<svg width="264" height="280" viewBox="0 0 264 280" xmlns="http://www.w3.org/2000/svg" xmlns:xlink="http://www.w3.org/1999/xlink"><defs><path d="M12 160c0 66.274 53.726 120 120 120s120-53.726 120-120h12V0H0v160h12z" id="c"/><path d="M124 144.611V163h4c39.765 0 72 32.235 72 72v9H0v-9c0-39.765 32.235-72 72-72h4v-18.389c-17.237-8.189-29.628-24.924-31.695-44.73C38.48 99.058 34 94.052 34 88V74c0-5.946 4.325-10.882 10-11.834V56c0-30.928 25.072-56 56-56s56 25.072 56 56v6.166c5.675.952 10 5.888 10 11.834v14c0 6.052-4.48 11.058-10.305 11.881-2.067 19.806-14.458 36.541-31.695 44.73z" id="e"/><circle id="a" cx="120" cy="120" r="120"/></defs><g fill="none" fill-rule="evenodd"><g transform="translate(12 40)"><mask id="b" fill="#fff"><use xlink:href="#a"/></mask><use fill="#E6E6E6" xlink:href="#a"/><g mask="url(#b)" fill="#65C9FF"><path d="M0 0h240v240H0z"/></g></g><mask id="d" fill="#fff"><use xlink:href="#c"/></mask><g mask="url(#d)"><g transform="translate(32 36)"><mask id="f" fill="#fff"><use xlink:href="#e"/></mask><use fill="#D0C6AC" xlink:href="#e"/><g mask="url(#f)" fill="#FFDBB4"><path d="M-32 0h264v244H-32z"/></g><path d="M156 79v23c0 30.928-25.072 56-56 56s-56-25.072-56-56V79v15c0 30.928 25.072 56 56 56s56-25.072 56-56V79z" fill-opacity=".1" fill="#000" mask="url(#f)"/></g><g transform="translate(0 170)"><defs><path d="M108 13.07c-17.919 2.006-31.72 7.482-31.996 21.575C50.146 45.568 32 71.165 32 100.999V110h200v-9c0-29.835-18.146-55.432-44.004-66.355-.276-14.093-14.077-19.57-31.996-21.574V32c0 13.255-10.745 24-24 24s-24-10.745-24-24V13.07z" id="g"/></defs><mask id="h" fill="#fff"><use xlink:href="#g"/></mask><use fill="#B7C1DB" xlink:href="#g"/><g mask="url(#h)" fill="#3C4F5C"><path d="M0 0h264v110H0z"/></g><path d="M102 61.74V110h-7V58.15a64.54 64.54 0 007 3.59zm67-3.59V98.5a3.5 3.5 0 11-7 0V61.74a64.54 64.54 0 007-3.59z" fill="#F4F4F4" mask="url(#h)"/><path d="M90.96 12.724C75.91 15.571 65.5 21.243 65.5 32.308 65.5 52.02 98.538 68 132 68s66.5-15.98 66.5-35.692c0-11.065-10.41-16.737-25.46-19.584 9.085 3.35 14.96 8.982 14.96 18.353C188 51.469 160.179 68 132 68S76 51.469 76 31.077c0-9.37 5.875-15.003 14.96-18.353z" fill-opacity=".16" fill="#000" mask="url(#h)"/></g><g fill="#000"><g transform="translate(78 134)"><defs><path d="M35.118 15.128C36.176 24.62 44.226 32 54 32c9.804 0 17.874-7.426 18.892-16.96.082-.767-.775-2.04-1.85-2.04H37.088c-1.08 0-2.075 1.178-1.97 2.128z" id="i"/></defs><mask id="j" fill="#fff"><use xlink:href="#i"/></mask><use fill-opacity=".7" xlink:href="#i"/><rect fill="#FFF" mask="url(#j)" x="39" y="2" width="31" height="16" rx="5"/><g mask="url(#j)" fill="#FF4F6D"><g transform="translate(38 24)"><circle cx="11" cy="11" r="11"/><circle cx="21" cy="11" r="11"/></g></g></g><path d="M120 130c0 4.418 5.373 8 12 8s12-3.582 12-8" fill-opacity=".16"/><g transform="translate(76 90)"><defs><path d="M14 14.048c9.61 0 14 4.451 14-2.486C28 4.624 21.732 0 14 0S0 4.624 0 11.562c0 6.937 4.39 2.486 14 2.486z" id="k"/><path d="M14 14.048c9.61 0 14 4.451 14-2.486C28 4.624 21.732 0 14 0S0 4.624 0 11.562c0 6.937 4.39 2.486 14 2.486z" id="m"/></defs><g transform="translate(16 13)"><mask id="l" fill="#fff"><use xlink:href="#k"/></mask><use fill="#FFF" xlink:href="#k"/><circle fill-opacity=".7" mask="url(#l)" cx="14" cy="10" r="6"/></g><g transform="translate(68 13)"><mask id="n" fill="#fff"><use xlink:href="#m"/></mask><use fill="#FFF" xlink:href="#m"/><circle fill-opacity=".7" mask="url(#n)" cx="14" cy="10" r="6"/></g></g><path d="M91.591 96.162c4.496-6.326 14.012-9.508 23.756-6.366a2 2 0 101.228-3.807c-11.408-3.68-22.74.11-28.244 7.856a2 2 0 103.26 2.317zm80.786 6.996c-3.914-5.509-14.647-8.598-23.892-6.328a2 2 0 01-.954-3.884c10.736-2.637 23.165.94 28.107 7.895a2 2 0 11-3.26 2.317z" fill-opacity=".6" fill-rule="nonzero"/></g><defs><path id="o" d="M0 0h264v280H0z"/><path d="M114.94 28.337c-.986.222-1.954.454-2.903.693-15.092 3.808-24.02 14.621-31.68 30.618-3.761 7.855-5.991 17.143-6.334 25.833-.135 3.412.325 6.934 1.245 10.22.337 1.205 2.155 5.386 2.654 2.008.167-1.125-.442-2.676-.5-3.871-.078-1.569.005-3.157.112-4.723.2-2.928.722-5.8 1.65-8.59 1.328-3.988 3.017-8.312 5.603-11.677C91.188 60.521 95.765 43.206 133 41.671c37.235-1.535 48.749 25.79 52.183 31.63 4.065 6.914 2.195 15.406 3.436 22.9.472 2.85 1.545 2.786 2.132.237.997-4.33 1.468-8.828 1.151-13.279-.718-10.048-4.405-36.453-24.593-48.153-5.443-3.154-10.87-5.319-16.192-6.723C154.177 25.31 156 21.568 156 17.5 156 7.835 145.703 0 133 0s-23 7.835-23 17.5c0 4.092 1.846 7.857 4.94 10.837z" id="s"/></defs><mask id="p" fill="#fff"><use xlink:href="#o"/></mask><g mask="url(#p)"><g transform="translate(-1)"><g transform="translate(49 72)"><defs><path d="M105.018 94.13c-3.868 5.591-6.76 1.817-10.88-1.254-2.481-1.849-6.177-4.148-9.634-4.035-3.456-.113-7.152 2.186-9.633 4.035-4.12 3.07-7.013 6.845-10.88 1.254-2.903-4.198-1.688-11.256 1.024-15.227 3.859-5.652 9.094-2.918 14.947-3.563 1.592-.175 3.19-.617 4.542-1.34 1.352.723 2.95 1.165 4.542 1.34 5.854.645 11.089-2.089 14.948 3.563 2.712 3.97 3.926 11.03 1.024 15.227M140.39 26c-3.424 14.075-4.998 28.434-7.481 42.671a319.166 319.166 0 01-1.685 8.879c-.127.62-.251 2.923-.862 3.214-1.851.884-5.624-3.817-6.633-4.879-2.533-2.666-5.045-5.356-8.13-7.448-6.235-4.227-13.535-6.726-21.13-7.32-3.178-.248-7.475.186-10.47 1.993-2.995-1.807-7.292-2.24-10.47-1.992-7.596.593-14.895 3.092-21.13 7.32-3.085 2.091-5.597 4.781-8.13 7.447-1.01 1.062-4.782 5.763-6.633 4.88-.61-.292-.735-2.595-.862-3.215a319.164 319.164 0 01-1.685-8.879C32.607 54.434 31.034 40.075 27.61 26c-.997 0-1.871 18.748-1.983 20.495-.452 7.094-.98 14.03-.305 21.131 1.164 12.249 2.377 27.608 11.71 36.962 8.434 8.451 20.678 10.218 31.24 15.553 1.36.687 3.163 1.535 5.108 2.23 2.049 1.563 6.113 2.629 10.794 2.629 4.91 0 9.142-1.173 11.08-2.862a47.143 47.143 0 004.475-1.997c10.56-5.336 22.805-7.102 31.238-15.553 9.334-9.354 10.547-24.713 11.712-36.962.674-7.1.146-14.037-.306-21.131C142.26 44.748 141.387 26 140.39 26z" id="q"/></defs><mask id="r" fill="#fff"><use xlink:href="#q"/></mask><use fill="#252E32" xlink:href="#q"/><g mask="url(#r)" fill="#D6B370"><path d="M-32 0h264v244H-32z"/></g></g><mask id="t" fill="#fff"><use xlink:href="#s"/></mask><use fill="#28354B" xlink:href="#s"/><g mask="url(#t)" fill="#D6B370"><path d="M0 0h264v280H0z"/></g><g transform="translate(62 85)"><defs><filter x="-.8%" y="-2.1%" width="101.6%" height="108.3%" filterUnits="objectBoundingBox" id="u"><feOffset dy="2" in="SourceAlpha" result="shadowOffsetOuter1"/><feColorMatrix values="0 0 0 0 0 0 0 0 0 0 0 0 0 0 0 0 0 0 0.1 0" in="shadowOffsetOuter1"/></filter><path d="M80.465 16.394C84.38 8.46 92.553 3 102 3c8.92 0 16.703 4.866 20.84 12.088a2.52 2.52 0 01.66-.088h8a2.5 2.5 0 110 5h-6.537A23.998 23.998 0 01126 27c0 13.255-10.745 24-24 24S78 40.255 78 27c0-1.422.124-2.815.36-4.169C78.277 18.455 74.915 15 70.863 15c-3.736 0-6.887 2.94-7.42 6.83.365 1.665.558 3.395.558 5.17 0 13.255-10.745 24-24 24S16 40.255 16 27c0-2.435.363-4.785 1.037-7H10.5a2.5 2.5 0 110-5h8c.228 0 .45.03.66.088C23.297 7.866 31.08 3 40 3c9.352 0 17.455 5.35 21.416 13.155C63.493 13.039 66.949 11 70.862 11c4.013 0 7.545 2.144 9.603 5.394zM40 47c11.046 0 20-8.954 20-20S51.046 7 40 7s-20 8.954-20 20 8.954 20 20 20zm62 0c11.046 0 20-8.954 20-20s-8.954-20-20-20-20 8.954-20 20 8.954 20 20 20z" id="v"/></defs><use fill="#000" filter="url(#u)" xlink:href="#v"/><use fill="#252C2F" xlink:href="#v"/></g></g></g></g></g></svg>