<svg width="328" height="185" viewBox="0 0 328 185" fill="none" xmlns="http://www.w3.org/2000/svg">
<rect width="328" height="20" fill="#E0E0E0"/>
<g clip-path="url(#clip0_846_40277)">
<path d="M105.805 27H7.19493C6.53499 27 6 27.5461 6 28.2197V32.7802C6 33.4539 6.53499 34 7.19493 34H105.805C106.465 34 107 33.4539 107 32.7802V28.2197C107 27.5461 106.465 27 105.805 27Z" fill="#AE3DC9"/>
<path d="M63.7981 41H7.20186C6.53809 41 6 41.5461 6 42.2197V46.7802C6 47.4539 6.53809 48 7.20186 48H63.7981C64.4619 48 65 47.4539 65 46.7802V42.2197C65 41.5461 64.4619 41 63.7981 41Z" fill="#FCC077"/>
<path d="M105.805 67H7.19493C6.53499 67 6 67.5461 6 68.2198V72.7803C6 73.4539 6.53499 74 7.19493 74H105.805C106.465 74 107 73.4539 107 72.7803V68.2198C107 67.5461 106.465 67 105.805 67Z" fill="#4163EB"/>
<path d="M45.8114 81H7.18863C6.53217 81 6 81.5461 6 82.2198V86.7802C6 87.4539 6.53217 88 7.18863 88H45.8114C46.4678 88 47 87.4539 47 86.7802V82.2198C47 81.5461 46.4678 81 45.8114 81Z" fill="#FE8687"/>
<path d="M170.805 41H72.1949C71.535 41 71 41.5461 71 42.2197V46.7802C71 47.4539 71.535 48 72.1949 48H170.805C171.465 48 172 47.4539 172 46.7802V42.2197C172 41.5461 171.465 41 170.805 41Z" fill="#FCC077"/>
<path d="M136.811 53H79.1885C78.5321 53 78 53.5461 78 54.2198V58.7802C78 59.4539 78.5321 60 79.1885 60H136.811C137.468 60 138 59.4539 138 58.7802V54.2198C138 53.5461 137.468 53 136.811 53Z" fill="#ADB6BD"/>
<path d="M154.81 67H114.19C113.533 67 113 67.5461 113 68.2198V72.7803C113 73.4539 113.533 74 114.19 74H154.81C155.467 74 156 73.4539 156 72.7803V68.2198C156 67.5461 155.467 67 154.81 67Z" fill="#4163EB"/>
<path d="M153.805 81H55.1949C54.535 81 54 81.5461 54 82.2198V86.7802C54 87.4539 54.535 88 55.1949 88H153.805C154.465 88 155 87.4539 155 86.7802V82.2198C155 81.5461 154.465 81 153.805 81Z" fill="#FE8687"/>
<path d="M125.793 94H77.2068C76.5403 94 76 94.6241 76 95.394V100.606C76 101.376 76.5403 102 77.2068 102H125.793C126.46 102 127 101.376 127 100.606V95.394C127 94.6241 126.46 94 125.793 94Z" fill="#FE8687"/>
<path d="M242.816 41H178.184C177.53 41 177 41.5461 177 42.2197V46.7802C177 47.4539 177.53 48 178.184 48H242.816C243.47 48 244 47.4539 244 46.7802V42.2197C244 41.5461 243.47 41 242.816 41Z" fill="#FCC077"/>
<path d="M320.798 53H255.202C254.538 53 254 53.5461 254 54.2198V58.7802C254 59.4539 254.538 60 255.202 60H320.798C321.462 60 322 59.4539 322 58.7802V54.2198C322 53.5461 321.462 53 320.798 53Z" fill="#ADB6BD"/>
<path d="M245.805 53H147.195C146.535 53 146 53.5461 146 54.2198V58.7802C146 59.4539 146.535 60 147.195 60H245.805C246.465 60 247 59.4539 247 58.7802V54.2198C247 53.5461 246.465 53 245.805 53Z" fill="#ADB6BD"/>
<path d="M264.805 67H166.195C165.535 67 165 67.5461 165 68.2198V72.7803C165 73.4539 165.535 74 166.195 74H264.805C265.465 74 266 73.4539 266 72.7803V68.2198C266 67.5461 265.465 67 264.805 67Z" fill="#4163EB"/>
<path d="M158.807 107H92.193C91.5341 107 91 107.546 91 108.22V112.78C91 113.454 91.5341 114 92.193 114H158.807C159.466 114 160 113.454 160 112.78V108.22C160 107.546 159.466 107 158.807 107Z" fill="#ADB6BD"/>
<path d="M77.807 127H7.19302C6.53413 127 6 127.546 6 128.22V132.78C6 133.454 6.53413 134 7.19302 134H77.807C78.4659 134 79 133.454 79 132.78V128.22C79 127.546 78.4659 127 77.807 127Z" fill="#4163EB"/>
<path d="M69.8147 153H7.18528C6.53067 153 6 153.546 6 154.22V158.78C6 159.454 6.53067 160 7.18528 160H69.8147C70.4693 160 71 159.454 71 158.78V154.22C71 153.546 70.4693 153 69.8147 153Z" fill="#AE3DC9"/>
<path d="M170.805 139H72.1949C71.535 139 71 139.546 71 140.22V144.78C71 145.454 71.535 146 72.1949 146H170.805C171.465 146 172 145.454 172 144.78V140.22C172 139.546 171.465 139 170.805 139Z" fill="#AE3DC9"/>
<path d="M136.811 153H79.1885C78.5321 153 78 153.546 78 154.22V158.78C78 159.454 78.5321 160 79.1885 160H136.811C137.468 160 138 159.454 138 158.78V154.22C138 153.546 137.468 153 136.811 153Z" fill="#AE3DC9"/>
<path d="M242.816 139H178.184C177.53 139 177 139.546 177 140.22V144.78C177 145.454 177.53 146 178.184 146H242.816C243.47 146 244 145.454 244 144.78V140.22C244 139.546 243.47 139 242.816 139Z" fill="#AE3DC9"/>
<path d="M69.8147 53H7.18528C6.53067 53 6 53.5461 6 54.2198V58.7802C6 59.4539 6.53067 60 7.18528 60H69.8147C70.4693 60 71 59.4539 71 58.7802V54.2198C71 53.5461 70.4693 53 69.8147 53Z" fill="#ADB6BD"/>
<path d="M69.7999 94H7.2001C6.5373 94 6 94.6241 6 95.394V100.606C6 101.376 6.5373 102 7.2001 102H69.7999C70.4627 102 71 101.376 71 100.606V95.394C71 94.6241 70.4627 94 69.7999 94Z" fill="#FE8687"/>
<path d="M28.7988 107H7.20121C6.5378 107 6 107.546 6 108.22V112.78C6 113.454 6.5378 114 7.20121 114H28.7988C29.4622 114 30 113.454 30 112.78V108.22C30 107.546 29.4622 107 28.7988 107Z" fill="#ADB6BD"/>
<path d="M81.7943 107H38.2057C37.5398 107 37 107.546 37 108.22V112.78C37 113.454 37.5398 114 38.2057 114H81.7943C82.4602 114 83 113.454 83 112.78V108.22C83 107.546 82.4602 107 81.7943 107Z" fill="#ADB6BD"/>
<path d="M197.813 81H161.187C160.531 81 160 81.5461 160 82.2198V86.7802C160 87.4539 160.531 88 161.187 88H197.813C198.469 88 199 87.4539 199 86.7802V82.2198C199 81.5461 198.469 81 197.813 81Z" fill="#FE8687"/>
<path d="M63.7981 139H7.20186C6.53809 139 6 139.546 6 140.22V144.78C6 145.454 6.53809 146 7.20186 146H63.7981C64.4619 146 65 145.454 65 144.78V140.22C65 139.546 64.4619 139 63.7981 139Z" fill="#AE3DC9"/>
<path d="M105.805 167H7.19493C6.53499 167 6 167.546 6 168.22V172.78C6 173.454 6.53499 174 7.19493 174H105.805C106.465 174 107 173.454 107 172.78V168.22C107 167.546 106.465 167 105.805 167Z" fill="#ADB6BD"/>
<path d="M154.81 167H114.19C113.533 167 113 167.546 113 168.22V172.78C113 173.454 113.533 174 114.19 174H154.81C155.467 174 156 173.454 156 172.78V168.22C156 167.546 155.467 167 154.81 167Z" fill="#ADB6BD"/>
<path d="M208.804 167H166.196C165.536 167 165 167.546 165 168.22V172.78C165 173.454 165.536 174 166.196 174H208.804C209.464 174 210 173.454 210 172.78V168.22C210 167.546 209.464 167 208.804 167Z" fill="#ADB6BD"/>
</g>
<path d="M11.6251 11.4584H10.1667V10.2084H11.6251C11.7908 10.2084 11.9498 10.2742 12.067 10.3914C12.1842 10.5086 12.2501 10.6676 12.2501 10.8334C12.2501 10.9991 12.1842 11.1581 12.067 11.2753C11.9498 11.3925 11.7908 11.4584 11.6251 11.4584ZM10.1667 7.70835H11.4167C11.5825 7.70835 11.7415 7.7742 11.8587 7.89141C11.9759 8.00862 12.0417 8.16759 12.0417 8.33335C12.0417 8.49911 11.9759 8.65809 11.8587 8.7753C11.7415 8.89251 11.5825 8.95835 11.4167 8.95835H10.1667M12.5001 9.49585C12.9042 9.21252 13.1876 8.75002 13.1876 8.33335C13.1876 7.39169 12.4584 6.66669 11.5209 6.66669H8.91675V12.5H11.8501C12.7251 12.5 13.3959 11.7917 13.3959 10.9209C13.3959 10.2875 13.0376 9.74585 12.5001 9.49585Z" fill="black"/>
<path d="M23.1667 6.66669V7.91669H24.0875L22.6625 11.25H21.5V12.5H24.8333V11.25H23.9125L25.3375 7.91669H26.5V6.66669H23.1667Z" fill="black"/>
<path d="M34.0833 13.75H39.9166V12.9167H34.0833V13.75ZM36.9999 12.0833C37.663 12.0833 38.2988 11.8199 38.7677 11.3511C39.2365 10.8823 39.4999 10.2464 39.4999 9.58333V6.25H38.4583V9.58333C38.4583 9.97011 38.3046 10.341 38.0311 10.6145C37.7576 10.888 37.3867 11.0417 36.9999 11.0417C36.6131 11.0417 36.2422 10.888 35.9687 10.6145C35.6952 10.341 35.5416 9.97011 35.5416 9.58333V6.25H34.4999V9.58333C34.4999 10.2464 34.7633 10.8823 35.2322 11.3511C35.701 11.8199 36.3369 12.0833 36.9999 12.0833Z" fill="black"/>
<path d="M48 9.08331C47.5 8.12498 48.2083 6.99998 49.2083 6.79165C50.5 6.37498 52.375 6.95831 52.3333 8.54165H51.0833C51.0833 8.41665 51.0417 8.29165 51.0417 8.20831C50.9583 7.95831 50.7917 7.83331 50.5417 7.74998C50.2083 7.62498 49.6667 7.66665 49.375 7.87498C48.75 8.41665 49.3333 8.95831 50 9.16665H48.0833C48.0417 9.12498 48.0417 9.08331 48 9.08331ZM53.75 10.4166V9.58331H46.25V10.4166H50.25C50.3333 10.4583 50.4167 10.4583 50.5 10.5C50.75 10.625 50.9583 10.7083 51.0417 10.9583C51.0833 11.125 51.125 11.3333 51.0417 11.5C50.9583 11.7083 50.7917 11.7916 50.5833 11.875C49.8333 12.0833 48.9167 11.7916 48.9583 10.875H47.7083C47.6667 11.9583 48.5833 12.7083 49.5833 12.8333C51.1667 13.1666 53.0417 12.1666 52.2083 10.375L53.75 10.4166Z" fill="black"/>
<path d="M69.9166 10.4167V9.58335H75.7499V10.4167H69.9166ZM69.9166 12.9167V12.0834H75.7499V12.9167H69.9166ZM69.9166 7.91669V7.08335H75.7499V7.91669H69.9166ZM68.2499 8.33335V7.08335H67.8333V6.66669H68.6666V8.33335H68.2499ZM67.8333 12.0834V11.6667H69.0833V13.3334H67.8333V12.9167H68.6666V12.7084H68.2499V12.2917H68.6666V12.0834H67.8333ZM68.7708 9.16669C68.8536 9.16669 68.9331 9.19961 68.9917 9.25822C69.0503 9.31682 69.0833 9.39631 69.0833 9.47919C69.0833 9.56252 69.0499 9.64169 68.9958 9.69585L68.2999 10.4167H69.0833V10.8334H67.8333V10.45L68.6666 9.58335H67.8333V9.16669H68.7708Z" fill="black"/>
<path d="M82.9167 7.08333H88.7501V7.91667H82.9167V7.08333ZM82.9167 10.4167V9.58333H88.7501V10.4167H82.9167ZM81.6667 6.875C81.8325 6.875 81.9915 6.94085 82.1087 7.05806C82.2259 7.17527 82.2917 7.33424 82.2917 7.5C82.2917 7.66576 82.2259 7.82473 82.1087 7.94194C81.9915 8.05915 81.8325 8.125 81.6667 8.125C81.501 8.125 81.342 8.05915 81.2248 7.94194C81.1076 7.82473 81.0417 7.66576 81.0417 7.5C81.0417 7.33424 81.1076 7.17527 81.2248 7.05806C81.342 6.94085 81.501 6.875 81.6667 6.875ZM81.6667 9.375C81.8325 9.375 81.9915 9.44085 82.1087 9.55806C82.2259 9.67527 82.2917 9.83424 82.2917 10C82.2917 10.1658 82.2259 10.3247 82.1087 10.4419C81.9915 10.5592 81.8325 10.625 81.6667 10.625C81.501 10.625 81.342 10.5592 81.2248 10.4419C81.1076 10.3247 81.0417 10.1658 81.0417 10C81.0417 9.83424 81.1076 9.67527 81.2248 9.55806C81.342 9.44085 81.501 9.375 81.6667 9.375ZM82.9167 12.9167V12.0833H88.7501V12.9167H82.9167ZM81.6667 11.875C81.8325 11.875 81.9915 11.9408 82.1087 12.0581C82.2259 12.1753 82.2917 12.3342 82.2917 12.5C82.2917 12.6658 82.2259 12.8247 82.1087 12.9419C81.9915 13.0592 81.8325 13.125 81.6667 13.125C81.501 13.125 81.342 13.0592 81.2248 12.9419C81.1076 12.8247 81.0417 12.6658 81.0417 12.5C81.0417 12.3342 81.1076 12.1753 81.2248 12.0581C81.342 11.9408 81.501 11.875 81.6667 11.875Z" fill="black"/>
<path d="M97.5833 10.4167H101.75V9.58333H97.5833M97.5833 8.75H101.75V7.91667H97.5833M94.25 6.25V7.08333H101.75V6.25M97.5833 12.0833H101.75V11.25H97.5833M94.25 8.33333V11.6667L95.9167 10M94.25 13.75H101.75V12.9167H94.25V13.75Z" fill="black"/>
<path d="M110.583 10.4167H114.75V9.58333H110.583M110.583 8.75H114.75V7.91667H110.583M107.25 6.25V7.08333H114.75V6.25M107.25 13.75H114.75V12.9167H107.25M107.25 10L108.917 11.6667V8.33333M110.583 12.0833H114.75V11.25H110.583V12.0833Z" fill="black"/>
<circle cx="317" cy="10" r="5" fill="#4163EB"/>
<circle cx="313" cy="10" r="5" fill="#FCC077"/>
<circle cx="309" cy="10" r="5" fill="#AE3DC9"/>
<circle cx="305" cy="10" r="5" fill="#FE8687"/>
<defs>
<clipPath id="clip0_846_40277">
<rect width="316" height="147" fill="white" transform="translate(6 27)"/>
</clipPath>
</defs>
</svg>
