<svg width="328" height="185" viewBox="0 0 328 185" fill="none" xmlns="http://www.w3.org/2000/svg">
<rect width="328" height="185" fill="white"/>
<g filter="url(#filter0_d_432_3183)">
<path fill-rule="evenodd" clip-rule="evenodd" d="M134 34C130.686 34 128 36.6863 128 40V124C128 127.314 130.686 130 134 130H194C197.314 130 200 127.314 200 124V50L184 34H134Z" fill="#4163EB"/>
<path fill-rule="evenodd" clip-rule="evenodd" d="M190 50H200L184 34V44C184 47.3137 186.686 50 190 50Z" fill="#6E88F0"/>
<path d="M200 53L189 50H200V53Z" fill="#203173"/>
<path d="M183.855 67H144.145C143.513 67 143 66.3284 143 65.5C143 64.6716 143.513 64 144.145 64H183.855C184.487 64 185 64.6716 185 65.5C185 66.3284 184.487 67 183.855 67Z" fill="white"/>
<path d="M183.855 78H144.145C143.513 78 143 77.3284 143 76.5C143 75.6716 143.513 75 144.145 75H183.855C184.487 75 185 75.6716 185 76.5C185 77.3284 184.487 78 183.855 78Z" fill="white"/>
<path d="M183.855 89H144.145C143.513 89 143 88.3284 143 87.5C143 86.6716 143.513 86 144.145 86H183.855C184.487 86 185 86.6716 185 87.5C185 88.3284 184.487 89 183.855 89Z" fill="white"/>
<path d="M175.1 100H143.9C143.403 100 143 99.3284 143 98.5C143 97.6716 143.403 97 143.9 97H175.1C175.597 97 176 97.6716 176 98.5C176 99.3284 175.597 100 175.1 100Z" fill="white"/>
</g>
<g filter="url(#filter1_d_432_3183)">
<path d="M131.994 40C131.994 40 131.743 40.2349 131.304 40.6476C131.091 40.8508 130.828 41.1048 130.527 41.3905C130.232 41.6762 129.887 41.9873 129.536 42.3619C129.185 42.7238 128.809 43.1175 128.401 43.5302C128.201 43.7397 128 43.9493 127.793 44.1651C127.593 44.3874 127.386 44.6159 127.179 44.8509C126.772 45.3144 126.345 45.7842 125.919 46.2731C125.511 46.7684 125.098 47.2699 124.684 47.7779C124.483 48.0319 124.276 48.2731 124.076 48.5271C123.881 48.7811 123.687 49.0351 123.499 49.289C123.123 49.797 122.747 50.2795 122.402 50.7621C122.063 51.251 121.744 51.7208 121.43 52.1653C121.28 52.3875 121.129 52.6034 120.991 52.8065C120.853 53.0161 120.722 53.2256 120.596 53.4224C120.352 53.8161 120.12 54.178 119.919 54.4954C119.819 54.6542 119.725 54.8002 119.644 54.9399C119.6 55.0097 119.562 55.0732 119.518 55.1367C119.481 55.2002 119.443 55.2637 119.412 55.3209C119.142 55.7844 118.998 56.0383 118.992 56.051L115.769 52.4573C115.769 52.4573 115.587 52.578 115.243 52.8129C114.898 53.0478 114.39 53.378 113.776 53.8351C113.462 54.0637 113.117 54.3113 112.741 54.5843C112.553 54.724 112.353 54.8574 112.158 55.0097C111.964 55.1621 111.757 55.3209 111.544 55.4859C111.124 55.8161 110.672 56.1653 110.202 56.5336C109.738 56.9082 109.262 57.3209 108.754 57.7399C108.635 57.8415 108.51 57.9495 108.384 58.0511C108.34 58.0891 108.303 58.1209 108.259 58.159C108.184 58.2225 108.108 58.286 108.033 58.3558C108.027 58.3622 108.021 58.3685 108.008 58.3749C107.97 58.4066 107.927 58.4447 107.889 58.4765C107.807 58.5463 107.726 58.6225 107.638 58.6923C107.588 58.7368 107.544 58.7749 107.494 58.8193C107.419 58.8892 107.344 58.9527 107.262 59.0225C107.212 59.0669 107.162 59.1114 107.112 59.1558C107.036 59.2257 106.961 59.2892 106.886 59.359C106.836 59.4035 106.779 59.4542 106.729 59.4987C106.654 59.5685 106.579 59.6384 106.503 59.7082C106.453 59.7527 106.403 59.8035 106.347 59.8479C106.265 59.9177 106.19 59.9939 106.109 60.0701C106.058 60.1146 106.008 60.159 105.964 60.2035C105.87 60.2924 105.776 60.3812 105.682 60.4701C105.651 60.5019 105.613 60.5336 105.582 60.5654C105.45 60.686 105.325 60.8067 105.193 60.9336C105.162 60.959 105.137 60.9908 105.105 61.0162C105.005 61.1114 104.905 61.2067 104.805 61.3082C104.754 61.3527 104.711 61.4035 104.66 61.4479C104.579 61.5305 104.491 61.6067 104.41 61.6892C104.359 61.74 104.303 61.7908 104.253 61.8416C104.171 61.9178 104.096 62.0003 104.015 62.0765C103.958 62.1273 103.908 62.1844 103.852 62.2416C103.77 62.3178 103.695 62.4003 103.613 62.4765C103.557 62.5337 103.507 62.5845 103.45 62.6416C103.369 62.7241 103.287 62.8067 103.206 62.8892C103.156 62.94 103.106 62.9972 103.049 63.048C102.961 63.1368 102.874 63.2321 102.78 63.3273C102.736 63.3718 102.692 63.4162 102.648 63.4607C102.516 63.6003 102.385 63.74 102.253 63.8797C101.708 64.4829 101.156 65.0988 100.598 65.7147C100.454 65.867 100.322 66.0321 100.19 66.1909C100.059 66.3496 99.9209 66.5147 99.7893 66.6734C99.5197 66.9972 99.2438 67.321 98.9743 67.6448L98.7674 67.8925L98.573 68.1337C98.4414 68.2988 98.316 68.4576 98.1906 68.6226C97.9399 68.9528 97.6954 69.283 97.4571 69.6131C97.2252 69.9433 96.9995 70.2798 96.7863 70.6227L96.6422 70.8512C96.5983 70.9211 96.5544 70.9909 96.5168 71.0608C96.4353 71.2004 96.3538 71.3401 96.2723 71.4862C96.2472 71.537 96.2159 71.5878 96.1908 71.6386C96.1908 71.6386 96.1908 71.6512 96.1782 71.6576C96.1156 71.7719 96.0591 71.8862 96.0027 72.0068C95.9902 72.0259 95.9839 72.0449 95.9714 72.0703C95.9149 72.1846 95.8648 72.3052 95.8084 72.4259C95.8021 72.4449 95.7896 72.464 95.7833 72.483C95.7331 72.6036 95.683 72.7306 95.6328 72.8513C95.6328 72.864 95.6203 72.8767 95.6203 72.8957C95.5701 73.029 95.5263 73.156 95.4824 73.2894C95.4573 73.3656 95.4385 73.4354 95.4134 73.5116C95.4071 73.537 95.4009 73.5624 95.3946 73.5878C95.3821 73.6386 95.3695 73.6894 95.357 73.7402C95.3507 73.7719 95.3444 73.7973 95.3382 73.8291C95.3256 73.8735 95.3194 73.9243 95.3068 73.9687C95.3006 74.0005 95.2943 74.0322 95.288 74.064C95.2818 74.1084 95.2692 74.1529 95.263 74.2037C95.263 74.2354 95.2504 74.2672 95.2441 74.2989C95.2379 74.3434 95.2316 74.3941 95.2191 74.4386C95.2191 74.4703 95.2128 74.4957 95.2065 74.5275C95.2003 74.5783 95.194 74.6291 95.1877 74.6862C95.1877 74.7116 95.1877 74.737 95.1815 74.7624C95.1752 74.8386 95.1689 74.9148 95.1626 74.991C95.1626 75.0735 95.1564 75.1561 95.1501 75.2386C95.1501 75.264 95.1501 75.2957 95.1501 75.3211L95.125 79.3212C95.125 79.3212 95.125 79.2641 95.125 79.2387C95.125 79.1561 95.125 79.0736 95.1376 78.991C95.1376 78.9148 95.1501 78.8387 95.1564 78.7625C95.1564 78.7371 95.1564 78.7117 95.1626 78.6863C95.1626 78.6355 95.1752 78.5847 95.1815 78.5275C95.1815 78.4958 95.1877 78.4704 95.194 78.4386C95.2003 78.3942 95.2065 78.3434 95.2191 78.299C95.2191 78.2672 95.2316 78.2355 95.2379 78.2037C95.2441 78.1593 95.2567 78.1085 95.263 78.064C95.263 78.0323 95.2755 78.0005 95.2818 77.9752C95.2943 77.9307 95.3006 77.8799 95.3131 77.8355C95.3194 77.8037 95.3256 77.7783 95.3319 77.7466C95.3444 77.6958 95.357 77.645 95.3695 77.5942C95.3758 77.5688 95.3821 77.5434 95.3883 77.518C95.4071 77.4418 95.4322 77.372 95.4573 77.2958C95.5012 77.1624 95.5451 77.0291 95.5952 76.9021C95.5952 76.8894 95.6078 76.8767 95.6078 76.8577C95.6516 76.7307 95.7018 76.6101 95.7582 76.4894C95.7645 76.4704 95.777 76.4513 95.7833 76.4323C95.8334 76.3116 95.8899 76.1973 95.9463 76.0767C95.9588 76.0577 95.9651 76.0386 95.9776 76.0132C96.0341 75.8989 96.0905 75.7783 96.1532 75.664C96.1845 75.6069 96.2159 75.5497 96.2472 75.4926C96.3287 75.3465 96.4039 75.2069 96.4917 75.0672C96.5293 74.9973 96.5795 74.9275 96.6171 74.8576L96.7613 74.6291C96.9744 74.2926 97.2001 73.956 97.4321 73.6195C97.664 73.2894 97.9148 72.9529 98.1656 72.629C98.2909 72.464 98.4226 72.2989 98.548 72.1401L98.7423 71.8989L98.9492 71.6512C99.225 71.3274 99.4946 70.9973 99.7642 70.6798C99.8958 70.5147 100.034 70.356 100.165 70.1973C100.303 70.0385 100.429 69.8734 100.573 69.7211C101.131 69.0988 101.689 68.4893 102.228 67.8861C102.36 67.7464 102.491 67.6067 102.623 67.4671C102.667 67.4226 102.711 67.3782 102.755 67.3337C102.842 67.2385 102.93 67.1496 103.024 67.0544C103.074 67.0036 103.124 66.9464 103.181 66.8956C103.262 66.8131 103.344 66.7305 103.425 66.648C103.482 66.5909 103.532 66.5401 103.588 66.4829C103.67 66.4004 103.745 66.3242 103.827 66.248C103.883 66.1909 103.933 66.1401 103.99 66.0829C104.071 66.0067 104.146 65.9242 104.228 65.848C104.278 65.7972 104.334 65.7464 104.385 65.6956C104.466 65.6131 104.554 65.5305 104.635 65.4543C104.685 65.4099 104.729 65.3591 104.779 65.3146C104.88 65.2194 104.98 65.1242 105.08 65.0289C105.112 64.9972 105.143 64.9718 105.174 64.94C105.306 64.8194 105.431 64.6924 105.563 64.5718C105.594 64.54 105.632 64.5083 105.663 64.4765C105.757 64.3877 105.858 64.2988 105.952 64.2099C106.002 64.1654 106.046 64.121 106.096 64.0765C106.177 64.0003 106.259 63.9305 106.334 63.8543C106.384 63.8099 106.435 63.7591 106.485 63.7146C106.56 63.6448 106.635 63.5749 106.717 63.5051C106.767 63.4607 106.823 63.4099 106.873 63.3654C106.949 63.2956 107.024 63.2321 107.099 63.1622C107.149 63.1178 107.199 63.0733 107.249 63.0289C107.325 62.9591 107.406 62.8892 107.481 62.8257C107.532 62.7813 107.575 62.7432 107.626 62.6987C107.707 62.6225 107.795 62.5527 107.876 62.4765C107.914 62.4448 107.952 62.4067 107.989 62.3749C108.077 62.2987 108.159 62.2289 108.246 62.1527C108.284 62.121 108.328 62.0829 108.365 62.0511C108.491 61.9432 108.61 61.8416 108.735 61.74C109.243 61.3209 109.72 60.9146 110.183 60.5336C110.654 60.1654 111.105 59.8162 111.525 59.486C111.738 59.3209 111.939 59.1622 112.139 59.0098C112.34 58.8574 112.541 58.7177 112.722 58.5844C113.099 58.3114 113.443 58.0638 113.757 57.8352C114.371 57.378 114.885 57.0479 115.224 56.8129C115.525 56.6098 115.694 56.4955 115.738 56.4637L115.75 56.4574L118.973 60.0511C118.973 60.0511 119.123 59.7844 119.393 59.3209C119.424 59.2638 119.462 59.2003 119.499 59.1368C119.537 59.0733 119.581 59.0098 119.625 58.94C119.712 58.8003 119.8 58.6542 119.901 58.4955C120.101 58.178 120.327 57.8161 120.578 57.4225C120.703 57.2256 120.828 57.0161 120.973 56.8066C121.117 56.5971 121.261 56.3812 121.411 56.1653C121.719 55.7209 122.045 55.251 122.383 54.7621C122.728 54.2796 123.104 53.797 123.48 53.2891C123.668 53.0351 123.863 52.7811 124.057 52.5272C124.251 52.2732 124.458 52.0319 124.665 51.7779C125.079 51.2764 125.493 50.7684 125.9 50.2732C126.326 49.7906 126.753 49.3144 127.16 48.8509C127.367 48.616 127.574 48.3938 127.775 48.1652C127.981 47.9493 128.182 47.7398 128.383 47.5303C128.784 47.1176 129.166 46.7239 129.517 46.362C129.868 45.9937 130.207 45.6826 130.508 45.3906C130.809 45.1048 131.072 44.8572 131.285 44.6477C131.724 44.235 131.962 44.0128 131.975 44.0001L132 40L131.994 40Z" fill="#309441"/>
<path d="M111.562 51.7525L111.581 47.7524L108.365 44.1587L108.34 48.1587L111.562 51.7525Z" fill="#41C057"/>
<path d="M113.249 77.5307C113.249 77.5307 113.055 77.6703 112.697 77.937C112.334 78.1973 111.795 78.5719 111.08 79.0164C110.998 79.0672 110.917 79.1116 110.835 79.1624C110.81 79.1751 110.785 79.1878 110.767 79.2069C110.698 79.245 110.629 79.2894 110.56 79.3275C110.541 79.3402 110.516 79.3529 110.497 79.3656C110.409 79.4164 110.315 79.4672 110.221 79.5243C110.202 79.537 110.183 79.5434 110.165 79.5561C110.089 79.6005 110.008 79.645 109.926 79.6894C109.895 79.7021 109.87 79.7212 109.839 79.7339C109.745 79.7847 109.651 79.8355 109.557 79.8862C109.544 79.8862 109.538 79.8989 109.525 79.9053C109.425 79.9561 109.325 80.0132 109.218 80.064C109.13 80.1085 109.043 80.1529 108.955 80.1974C108.911 80.2228 108.867 80.2418 108.817 80.2672C108.679 80.337 108.541 80.4005 108.397 80.4704C108.265 80.5339 108.127 80.5974 107.989 80.6609C107.845 80.7244 107.707 80.7815 107.557 80.845C107.413 80.9085 107.262 80.972 107.112 81.0355C106.961 81.099 106.804 81.1561 106.648 81.2196C106.334 81.3466 106.008 81.4609 105.676 81.5815C105.519 81.6387 105.319 81.7021 105.131 81.7656C104.943 81.8291 104.748 81.8863 104.554 81.9498C104.397 81.9942 104.24 82.0387 104.084 82.0831C104.04 82.0958 103.996 82.1085 103.946 82.1212C103.814 82.1593 103.676 82.1974 103.538 82.2291C103.501 82.2355 103.469 82.2482 103.432 82.2545C103.275 82.299 103.112 82.3371 102.949 82.3752C102.736 82.426 102.523 82.4768 102.309 82.5212C102.222 82.5403 102.134 82.5593 102.046 82.572C101.513 82.6863 101.106 82.7434 100.698 82.8133C100.466 82.845 100.241 82.8704 100.002 82.9022C99.8833 82.9149 99.7705 82.9276 99.6514 82.9466C99.5323 82.9593 99.4194 82.9657 99.3003 82.9784C98.3599 83.0482 97.382 83.0482 96.4228 82.8133C95.4699 82.5784 94.5546 82.1085 93.8023 81.4672C93.0437 80.8259 92.4231 80.0386 91.9717 79.1688C91.5203 78.2926 91.2382 77.3338 91.1066 76.3433C91.0564 75.9306 91.0313 75.5179 91.0313 75.0989L91 79.0735C91 79.4926 91.0188 79.9053 91.0752 80.318C91.2006 81.3085 91.489 82.2672 91.9404 83.1434C92.3917 84.0196 93.0187 84.807 93.7709 85.4482C94.5232 86.0895 95.4385 86.5594 96.3914 86.7943C97.3506 87.0292 98.3286 87.0292 99.269 86.9594C99.3881 86.953 99.5072 86.9403 99.62 86.9276C99.7391 86.9149 99.852 86.8959 99.9711 86.8832C100.203 86.8514 100.435 86.826 100.667 86.7943C101.081 86.7244 101.482 86.6673 102.015 86.553C102.103 86.534 102.19 86.5149 102.278 86.5022C102.498 86.4578 102.711 86.407 102.918 86.3562C102.93 86.3562 102.943 86.3562 102.961 86.3498C103.112 86.3117 103.256 86.2736 103.407 86.2355C103.444 86.2292 103.476 86.2165 103.513 86.2101C103.651 86.1721 103.783 86.1403 103.921 86.1022C103.965 86.0895 104.008 86.0768 104.052 86.0641C104.209 86.0197 104.372 85.9752 104.522 85.9308C104.717 85.8673 104.911 85.8101 105.099 85.7467C105.287 85.6832 105.482 85.626 105.645 85.5625C105.977 85.4419 106.303 85.3276 106.616 85.2006C106.773 85.1371 106.924 85.08 107.08 85.0165C107.231 84.953 107.381 84.8895 107.525 84.826C107.67 84.7625 107.814 84.699 107.958 84.6419C108.096 84.5784 108.234 84.5149 108.365 84.4514C108.51 84.3816 108.648 84.3181 108.785 84.2482C108.829 84.2228 108.873 84.2038 108.923 84.1784C109.011 84.1339 109.105 84.0895 109.187 84.045C109.199 84.0387 109.212 84.0323 109.224 84.026C109.312 83.9815 109.406 83.9308 109.494 83.8863C109.506 83.8863 109.513 83.8736 109.525 83.8673C109.619 83.8165 109.713 83.7657 109.807 83.7149C109.839 83.7022 109.864 83.6831 109.895 83.6704C109.977 83.626 110.058 83.5815 110.133 83.5371C110.152 83.5244 110.171 83.518 110.19 83.5053C110.284 83.4546 110.378 83.3974 110.466 83.3466C110.484 83.3339 110.509 83.3212 110.528 83.3085C110.597 83.2704 110.666 83.226 110.735 83.1879C110.76 83.1752 110.785 83.1625 110.804 83.1434C110.886 83.0926 110.973 83.0419 111.049 82.9974C111.763 82.553 112.309 82.1847 112.666 81.918C112.892 81.7529 113.048 81.6387 113.136 81.5752C113.186 81.5371 113.218 81.518 113.218 81.5117L113.243 77.5116L113.249 77.5307Z" fill="#37A84B"/>
<path d="M116.616 41.9683C117.086 41.873 117.562 41.7715 118.039 41.6762C118.402 41.6 118.772 41.5302 119.136 41.454C119.506 41.3841 119.882 41.3207 120.252 41.2572C120.992 41.1365 121.731 41.0095 122.459 40.8889C123.186 40.7937 123.907 40.6984 124.596 40.6032C124.941 40.5587 125.28 40.5143 125.606 40.4762C125.938 40.4381 126.264 40.4127 126.584 40.381C127.211 40.3238 127.806 40.2667 128.358 40.2159C128.897 40.1587 129.411 40.1397 129.85 40.1143C130.295 40.0889 130.677 40.0698 130.997 40.0508C131.63 40.019 131.969 40 131.988 40C131.975 40.0127 131.737 40.2349 131.298 40.6476C131.085 40.8508 130.822 41.1048 130.521 41.3905C130.226 41.6762 129.881 41.9873 129.53 42.3619C129.179 42.7238 128.803 43.1175 128.395 43.5302C128.195 43.7397 127.994 43.9493 127.787 44.1651C127.587 44.3874 127.38 44.6159 127.173 44.8509C126.765 45.3144 126.339 45.7842 125.913 46.2731C125.505 46.7684 125.092 47.2699 124.678 47.7779C124.477 48.0319 124.27 48.2731 124.07 48.5271C123.875 48.7811 123.681 49.0351 123.493 49.289C123.117 49.797 122.741 50.2795 122.396 50.7621C122.057 51.251 121.738 51.7208 121.424 52.1653C121.274 52.3875 121.123 52.6034 120.985 52.8065C120.847 53.0161 120.716 53.2256 120.59 53.4224C120.346 53.8161 120.114 54.178 119.913 54.4954C119.813 54.6542 119.719 54.8002 119.637 54.9399C119.594 55.0097 119.556 55.0732 119.512 55.1367C119.474 55.2002 119.437 55.2637 119.405 55.3209C119.136 55.7844 118.992 56.0383 118.985 56.051L115.763 52.4573C115.763 52.4573 115.581 52.578 115.237 52.8129C114.892 53.0478 114.384 53.378 113.77 53.8351C113.456 54.0637 113.111 54.3113 112.735 54.5843C112.547 54.724 112.346 54.8574 112.152 55.0097C111.958 55.1621 111.751 55.3209 111.538 55.4859C111.118 55.8161 110.666 56.1653 110.196 56.5336C109.732 56.9082 109.256 57.3209 108.748 57.7399C106.742 59.4352 104.491 61.4987 102.266 63.8797C101.72 64.4829 101.169 65.0988 100.611 65.7147C100.466 65.867 100.335 66.0321 100.203 66.1909C100.072 66.3496 99.9336 66.5147 99.802 66.6734C99.5324 66.9972 99.2566 67.321 98.987 67.6448L98.7801 67.8925L98.5858 68.1337C98.4541 68.2988 98.3287 68.4576 98.2033 68.6226C97.9526 68.9528 97.7081 69.283 97.4699 69.6131C97.2379 69.9433 97.0122 70.2798 96.7991 70.6227L96.6549 70.8512C96.611 70.9211 96.5671 70.9909 96.5295 71.0608C96.448 71.2004 96.3665 71.3401 96.285 71.4862C95.9715 72.0576 95.702 72.6608 95.5014 73.2894C95.3007 73.9179 95.1816 74.5719 95.1691 75.2259C95.1566 75.8799 95.2506 76.5402 95.47 77.1624C95.6894 77.7847 96.0405 78.3625 96.5107 78.845C96.9746 79.3339 97.5702 79.6958 98.2221 79.8799C98.8741 80.0641 99.5512 80.0641 100.203 80.0323C101.382 79.9688 102.51 79.7974 103.57 79.5752C103.683 79.5498 103.795 79.5244 103.908 79.499C104.052 79.4609 104.197 79.4291 104.335 79.3974C104.479 79.3593 104.61 79.3339 104.773 79.2831C105.081 79.1942 105.388 79.118 105.676 79.0164C105.82 78.972 105.965 78.9275 106.109 78.8831C106.253 78.8387 106.391 78.7879 106.522 78.7371C106.66 78.6863 106.792 78.6418 106.924 78.5974C107.055 78.5466 107.187 78.4958 107.312 78.4513C108.328 78.0577 109.181 77.6577 109.876 77.3085C110.56 76.9466 111.093 76.6418 111.444 76.4259C111.795 76.21 111.97 76.0958 111.983 76.0894L113.249 77.5497C113.249 77.5497 113.055 77.6894 112.698 77.9561C112.334 78.2164 111.795 78.591 111.08 79.0355C110.359 79.4736 109.463 79.9752 108.384 80.4831C108.253 80.5466 108.115 80.6101 107.977 80.6736C107.833 80.7371 107.695 80.7942 107.544 80.8577C107.4 80.9212 107.25 80.9847 107.099 81.0482C106.949 81.1117 106.792 81.1688 106.635 81.2323C106.322 81.3593 105.996 81.4736 105.664 81.5942C105.507 81.6514 105.306 81.7149 105.118 81.7784C104.93 81.8419 104.736 81.899 104.541 81.9625C103.833 82.1657 103.081 82.3689 102.297 82.5339C102.209 82.553 102.122 82.572 102.034 82.5847C101.501 82.699 101.093 82.7562 100.686 82.826C100.454 82.8578 100.228 82.8832 99.99 82.9149C99.8709 82.9276 99.7581 82.9403 99.639 82.9594C99.5199 82.972 99.407 82.9784 99.2879 82.9911C98.3475 83.0609 97.3695 83.0609 96.4104 82.826C95.4575 82.5911 94.5422 82.1212 93.7899 81.48C93.0313 80.8387 92.4107 80.0514 91.9593 79.1752C91.5079 78.299 91.2258 77.3402 91.0942 76.3497C90.9688 75.3592 91.0064 74.3307 91.1882 73.3084C91.37 72.2862 91.696 71.2576 92.116 70.2544C92.2226 70.0068 92.3354 69.7528 92.4546 69.5052C92.511 69.3846 92.5737 69.2576 92.6364 69.1369L92.8119 68.7941C93.0313 68.3687 93.2633 67.956 93.5015 67.556C93.7397 67.1496 93.9905 66.7559 94.2413 66.3686C94.3666 66.1718 94.4983 65.9813 94.6237 65.7908L94.818 65.5051L95.0124 65.2321C95.2694 64.8702 95.5327 64.5019 95.7897 64.14C95.9214 63.9622 96.0468 63.7781 96.1721 63.6003C96.3038 63.4226 96.4229 63.2384 96.5608 63.067C97.1 62.3686 97.6329 61.6765 98.1595 60.9971C100.31 58.3114 102.529 55.9367 104.523 53.9748C105.024 53.4859 105.501 53.0161 105.965 52.578C106.441 52.1462 106.886 51.7399 107.312 51.3589C107.526 51.1684 107.726 50.9843 107.927 50.8002C108.127 50.6224 108.328 50.4573 108.516 50.2986C108.898 49.9811 109.243 49.6827 109.557 49.416C110.177 48.8763 110.698 48.4827 111.042 48.2033C111.394 47.9303 111.569 47.7906 111.575 47.7842L108.353 44.1905C108.353 44.1905 108.723 44.0762 109.369 43.8731C109.45 43.8477 109.532 43.8223 109.626 43.7969C109.72 43.7715 109.814 43.7461 109.908 43.7143C110.108 43.6572 110.315 43.6001 110.547 43.5302C110.999 43.4032 111.513 43.2635 112.071 43.1048C112.346 43.0286 112.635 42.9461 112.936 42.8699C113.237 42.7937 113.55 42.7175 113.87 42.6413C114.509 42.4889 115.18 42.3238 115.876 42.1588C116.114 42.108 116.359 42.0508 116.603 42L116.616 41.9683Z" fill="url(#paint0_linear_432_3183)"/>
</g>
<g filter="url(#filter2_d_432_3183)">
<path d="M217.919 100.216C218.033 100.259 218.146 100.303 218.259 100.347C218.316 100.372 218.372 100.39 218.429 100.415C218.542 100.459 218.656 100.509 218.769 100.552C218.825 100.577 218.876 100.596 218.932 100.621C219.083 100.683 219.234 100.752 219.392 100.814C219.404 100.814 219.417 100.827 219.429 100.833C219.593 100.908 219.763 100.982 219.926 101.057C219.977 101.082 220.027 101.101 220.077 101.126C220.197 101.182 220.316 101.238 220.43 101.294C220.486 101.319 220.549 101.35 220.606 101.381C220.719 101.437 220.839 101.493 220.952 101.549C221.008 101.574 221.065 101.606 221.115 101.63C221.26 101.705 221.405 101.78 221.549 101.855C221.575 101.867 221.593 101.88 221.619 101.892C221.814 101.998 222.009 102.104 222.204 102.21C222.254 102.235 222.298 102.266 222.348 102.291C222.537 102.397 222.726 102.509 222.915 102.621C222.921 102.621 222.927 102.628 222.94 102.634C223.135 102.752 223.324 102.871 223.512 102.989C223.556 103.02 223.607 103.051 223.651 103.082C223.839 103.207 224.028 103.332 224.217 103.463C224.764 103.843 225.305 104.254 225.815 104.697C226.324 105.139 226.809 105.606 227.255 106.092C228.149 107.065 228.885 108.124 229.35 109.202C229.589 109.738 229.753 110.28 229.873 110.835C229.973 111.383 230.017 111.938 230.005 112.486C229.986 113.035 229.898 113.577 229.772 114.1C229.652 114.568 229.489 115.017 229.294 115.447L231.181 111.165C231.37 110.729 231.54 110.28 231.659 109.819C231.785 109.289 231.873 108.754 231.892 108.205C231.905 107.657 231.861 107.102 231.76 106.554C231.64 105.999 231.477 105.463 231.238 104.921C230.772 103.843 230.036 102.79 229.143 101.811C228.696 101.325 228.212 100.858 227.702 100.415C227.193 99.9728 226.652 99.5615 226.104 99.1813C225.915 99.0505 225.727 98.9258 225.538 98.8012C225.494 98.77 225.444 98.7389 225.4 98.7077C225.211 98.5831 225.022 98.4647 224.827 98.3525C224.821 98.3525 224.808 98.3463 224.802 98.34C224.613 98.2279 224.424 98.1157 224.236 98.0097C224.185 97.9848 224.141 97.9537 224.091 97.9287C223.896 97.8228 223.701 97.7106 223.506 97.6109C223.506 97.6109 223.506 97.6109 223.5 97.6109C223.481 97.5984 223.456 97.5922 223.437 97.5797C223.292 97.505 223.147 97.4302 223.009 97.3554C222.952 97.3242 222.896 97.2993 222.839 97.2744C222.726 97.2183 222.613 97.1622 222.499 97.1061C222.443 97.075 222.38 97.05 222.323 97.0189C222.204 96.9628 222.084 96.9067 221.971 96.8506C221.921 96.8257 221.87 96.8008 221.82 96.7821C221.656 96.7073 221.487 96.6325 221.323 96.5577C221.31 96.5577 221.298 96.5452 221.279 96.539C221.128 96.4705 220.977 96.4081 220.826 96.3458C220.769 96.3209 220.719 96.3022 220.662 96.2773C220.549 96.2274 220.436 96.1838 220.323 96.1402C220.266 96.1152 220.209 96.0966 220.153 96.0716C220.04 96.028 219.926 95.9844 219.813 95.9408C219.763 95.9221 219.712 95.9034 219.662 95.8847C219.505 95.8223 219.341 95.76 219.184 95.7039C218.07 95.2926 217.02 94.9437 216.076 94.6632C215.604 94.5199 215.164 94.3828 214.755 94.2706C214.346 94.1584 213.969 94.0463 213.629 93.959C213.289 93.8718 212.987 93.797 212.723 93.7284C212.591 93.6973 212.471 93.6661 212.358 93.635C212.245 93.61 212.144 93.5851 212.05 93.5664C211.685 93.4854 211.496 93.4418 211.49 93.4418L209.678 97.5486C209.338 97.2619 208.923 96.9129 208.433 96.5266C208.256 96.3832 208.068 96.2399 207.873 96.0841C207.678 95.9345 207.47 95.785 207.262 95.6292C207.049 95.4734 206.828 95.3113 206.602 95.1431C206.369 94.981 206.136 94.819 205.897 94.6508C205.658 94.4825 205.407 94.308 205.155 94.1397C204.897 93.9715 204.639 93.8032 204.375 93.6287C203.846 93.2797 203.299 92.9557 202.739 92.6129C202.456 92.4384 202.179 92.2826 201.89 92.1206C201.6 91.9586 201.317 91.7966 201.034 91.6345C200.707 91.46 200.38 91.2793 200.053 91.111C200.015 91.0923 199.971 91.0674 199.933 91.0487C199.732 90.9428 199.524 90.8368 199.323 90.7309C198.763 90.4505 198.203 90.17 197.669 89.9208C197.14 89.6715 196.624 89.4347 196.146 89.2228C195.662 89.0171 195.221 88.8302 194.831 88.6619C194.435 88.4937 194.089 88.3628 193.8 88.2444C193.214 88.02 192.9 87.8954 192.887 87.8892L191 92.1705C191 92.1705 191.333 92.3013 191.912 92.5257C192.202 92.6441 192.548 92.7687 192.944 92.9432C193.334 93.1115 193.774 93.2984 194.259 93.5041C194.737 93.716 195.246 93.9528 195.781 94.2021C196.316 94.4513 196.87 94.7318 197.436 95.0122C197.675 95.1368 197.92 95.2677 198.166 95.3986C198.493 95.5731 198.82 95.7476 199.147 95.9221C199.43 96.0841 199.713 96.2461 200.003 96.4081C200.286 96.5702 200.569 96.7322 200.852 96.9005C201.412 97.2432 201.959 97.5673 202.487 97.9163C202.752 98.0908 203.01 98.259 203.268 98.4273C203.519 98.5955 203.771 98.77 204.01 98.9383C204.249 99.1066 204.482 99.2686 204.715 99.4306C204.941 99.5989 205.161 99.7609 205.375 99.9167C205.583 100.072 205.79 100.228 205.985 100.372C206.18 100.521 206.363 100.671 206.545 100.814C207.256 101.369 207.816 101.855 208.2 102.179C208.395 102.341 208.54 102.478 208.64 102.571C208.741 102.665 208.791 102.709 208.797 102.709L210.685 98.4273C210.685 98.4273 210.628 98.3774 210.527 98.2902C210.427 98.2029 210.276 98.0596 210.087 97.8976C210.056 97.8726 210.018 97.8415 209.98 97.8103C210.037 97.8228 210.093 97.8352 210.156 97.8477C210.244 97.8664 210.351 97.8913 210.465 97.9163C210.578 97.9412 210.697 97.9723 210.829 98.0097C211.094 98.0783 211.396 98.1531 211.735 98.2403C212.075 98.3276 212.446 98.4397 212.861 98.5519C213.27 98.6579 213.711 98.8012 214.183 98.9445C215.126 99.225 216.177 99.5802 217.29 99.9852C217.448 100.041 217.605 100.104 217.769 100.166C217.819 100.185 217.869 100.203 217.919 100.222V100.216Z" fill="#E27676"/>
<path d="M235.214 113.427C234.823 114.001 234.389 114.537 233.924 115.029C233.811 115.154 233.685 115.266 233.565 115.384C233.521 115.428 233.477 115.472 233.433 115.515C233.358 115.59 233.282 115.659 233.2 115.727C233.075 115.839 232.949 115.945 232.823 116.057C232.697 116.157 232.565 116.263 232.439 116.363C231.414 117.167 230.319 117.79 229.268 118.307C227.161 119.329 225.23 119.871 223.877 120.226C223.198 120.401 222.657 120.519 222.285 120.6C222.053 120.65 221.895 120.681 221.801 120.7C221.744 120.713 221.719 120.719 221.713 120.719L220.48 118.675L218.593 122.956L219.826 125C219.826 125 220.027 124.956 220.392 124.882C220.763 124.801 221.298 124.682 221.983 124.508C223.336 124.153 225.274 123.61 227.375 122.588C228.419 122.077 229.52 121.448 230.546 120.644C230.671 120.544 230.804 120.438 230.929 120.339C231.055 120.226 231.181 120.121 231.307 120.008C231.389 119.94 231.464 119.865 231.54 119.796C231.54 119.796 231.552 119.784 231.558 119.778C231.596 119.74 231.634 119.703 231.672 119.666C231.791 119.547 231.917 119.429 232.03 119.31C232.496 118.818 232.93 118.282 233.32 117.709C233.666 117.179 233.993 116.618 234.257 116.014L236.145 111.732C235.88 112.337 235.553 112.898 235.207 113.427H235.214Z" fill="#EA7C7C"/>
<path d="M213.34 82L212.534 86.9855C212.534 86.9855 212.761 87.0603 213.189 87.1912C213.296 87.2223 213.415 87.2597 213.541 87.3033C213.673 87.347 213.811 87.3968 213.969 87.4467C214.277 87.5526 214.629 87.671 215.019 87.8081C215.416 87.9452 215.843 88.1072 216.315 88.2817C216.787 88.45 217.29 88.6557 217.831 88.8675C218.907 89.2913 220.121 89.8023 221.442 90.4193C222.103 90.7309 222.789 91.0674 223.493 91.4288C224.198 91.7965 224.921 92.1954 225.657 92.6316C227.123 93.5103 228.633 94.5261 230.074 95.7226C230.797 96.3209 231.496 96.9628 232.15 97.642C232.804 98.3213 233.427 99.038 233.987 99.7858C234.553 100.534 235.056 101.319 235.49 102.129C235.925 102.939 236.277 103.774 236.528 104.616C236.786 105.457 236.931 106.304 236.988 107.127C237.025 107.943 236.975 108.735 236.849 109.489C236.717 110.243 236.491 110.947 236.214 111.614C235.937 112.281 235.585 112.898 235.201 113.483C234.811 114.057 234.377 114.593 233.911 115.085C233.798 115.21 233.672 115.322 233.553 115.44C233.433 115.559 233.314 115.677 233.188 115.783C233.062 115.895 232.936 116.001 232.81 116.113C232.685 116.213 232.553 116.319 232.427 116.419C231.401 117.223 230.307 117.846 229.256 118.363C227.148 119.385 225.217 119.927 223.865 120.282C223.185 120.457 222.644 120.575 222.273 120.656C221.902 120.737 221.713 120.775 221.707 120.775L220.474 118.731C220.474 118.731 220.65 118.675 220.977 118.569C221.304 118.463 221.782 118.301 222.374 118.083C223.55 117.634 225.211 116.961 226.872 115.889C227.696 115.353 228.533 114.724 229.262 113.97C229.35 113.876 229.445 113.783 229.539 113.689C229.621 113.589 229.709 113.49 229.797 113.39C229.885 113.29 229.967 113.191 230.042 113.085C230.118 112.979 230.206 112.879 230.281 112.767C230.583 112.337 230.86 111.876 231.093 111.396C231.313 110.91 231.514 110.405 231.647 109.881C231.772 109.352 231.86 108.816 231.879 108.267C231.892 107.719 231.848 107.164 231.747 106.616C231.628 106.061 231.464 105.525 231.225 104.983C230.76 103.905 230.023 102.852 229.13 101.873C228.683 101.387 228.199 100.92 227.69 100.478C227.18 100.035 226.639 99.6238 226.092 99.2436C223.871 97.6981 221.386 96.5826 219.165 95.7538C218.052 95.3425 217.001 94.9935 216.057 94.713C215.585 94.5697 215.145 94.4326 214.736 94.3204C214.327 94.2083 213.95 94.0961 213.61 94.0088C213.27 93.9216 212.968 93.8468 212.704 93.7783C212.572 93.7471 212.453 93.7159 212.339 93.6848C212.226 93.6599 212.125 93.6349 212.031 93.6162C211.666 93.5352 211.477 93.4916 211.471 93.4916L210.666 98.4771C210.666 98.4771 210.609 98.4272 210.509 98.34C210.408 98.2528 210.257 98.1094 210.068 97.9474C209.678 97.6171 209.118 97.131 208.414 96.5826C208.238 96.4393 208.049 96.2959 207.854 96.1401C207.659 95.9906 207.451 95.841 207.244 95.6852C207.03 95.5294 206.809 95.3674 206.583 95.1991C206.35 95.0371 206.117 94.8751 205.878 94.7068C205.639 94.5386 205.388 94.3641 205.136 94.1958C204.878 94.0275 204.62 93.8593 204.356 93.6848C203.827 93.3358 203.28 93.0117 202.72 92.669C202.437 92.4945 202.16 92.3387 201.871 92.1767C201.582 92.0146 201.298 91.8526 201.015 91.6906C200.443 91.379 199.87 91.0736 199.304 90.7807C198.744 90.5003 198.184 90.2199 197.65 89.9706C197.121 89.7213 196.605 89.4845 196.127 89.2726C195.643 89.067 195.202 88.88 194.812 88.7117C194.416 88.5435 194.07 88.4126 193.781 88.2942C193.196 88.0699 192.881 87.9452 192.868 87.939C192.881 87.9328 193.12 87.7957 193.56 87.5464C193.787 87.4217 194.057 87.2597 194.378 87.0977C194.705 86.9294 195.07 86.7487 195.473 86.543C195.882 86.3436 196.335 86.1442 196.819 85.9199C197.304 85.7017 197.832 85.4961 198.386 85.2717C198.939 85.0599 199.524 84.848 200.135 84.6299C200.443 84.5301 200.751 84.4304 201.059 84.3307C201.374 84.231 201.689 84.1251 202.009 84.0378C202.651 83.8571 203.305 83.6639 203.966 83.5081C204.299 83.4271 204.626 83.3461 204.947 83.2713C205.274 83.1965 205.602 83.128 205.922 83.0594C206.25 82.9909 206.57 82.9286 206.885 82.86C207.206 82.8039 207.514 82.7478 207.816 82.6917C208.124 82.6419 208.426 82.5858 208.716 82.5359C209.011 82.4923 209.294 82.4549 209.565 82.4113C210.66 82.2493 211.597 82.162 212.258 82.0935C212.591 82.0561 212.849 82.0436 213.031 82.0249C213.207 82.0125 213.302 82.0062 213.308 82H213.34Z" fill="#FE8687"/>
</g>
<rect x="38" y="44" width="48" height="48" rx="24" fill="#FCC077"/>
<path d="M63.3798 69.6864L65.3891 67.206V63.9794C64.4271 64.6213 63.2732 64.9963 62.0325 64.9963C60.6628 64.9963 59.4631 64.61 58.4905 63.9673V67.206L60.4999 69.6864H63.3798Z" fill="#F4BDA4"/>
<path d="M61.3887 64.9659C60.2853 64.8649 59.3075 64.5071 58.4905 63.9673V67.206L60.4999 69.6864H61.3887V64.9659Z" fill="#EFA78B"/>
<path d="M50.6197 84.1497C51.2408 84.1497 51.7444 84.6533 51.7444 85.2744V86.885C51.7444 87.0194 51.8531 87.1281 51.9875 87.1281H57.7663C57.714 86.9791 57.6843 86.8198 57.6843 86.6535V70.9372C57.6843 70.1429 58.3343 69.4929 59.1283 69.4929H60.4997L58.4903 67.0129L49.375 70.5469C49.375 70.5469 46 71.9344 46 75.7818V84.1497H50.6197Z" fill="#FC5F61"/>
<path d="M50.764 70.0085L49.375 70.5469C49.375 70.5469 46 71.9344 46 75.7818V84.1498H48.8982V74.2361C48.8982 72.1765 49.865 70.8226 50.764 70.0085Z" fill="#EF4D55"/>
<path d="M71.793 69.4929L65.389 67.0129L63.3796 69.4929H71.793Z" fill="#FC5F61"/>
<path d="M68.0829 69.4929L68.6838 68.2892L65.389 67.0129L63.3796 69.4929H68.0829Z" fill="#EF4D55"/>
<path d="M57.6844 70.9372C57.6844 70.1429 58.3345 69.4929 59.1288 69.4929H60.5046L58.4956 67.0129L55.2004 68.2892L57.6844 73.2667V70.9372Z" fill="#EF4D55"/>
<path d="M65.389 67.0129L63.3796 69.4929H66.0317L67.4076 67.7948L65.389 67.0129Z" fill="#E03F4F"/>
<path d="M58.6069 67.9969L59.1288 67.7948L58.4952 67.0129L55.2004 68.2892L57.6841 73.2667V70.9372C57.6841 70.3597 58.0287 69.8602 58.5212 69.6295L58.2136 69.0128C58.0199 68.6246 58.2023 68.1537 58.6069 67.9969Z" fill="#E03F4F"/>
<path d="M55.587 90.5557V89.5423C55.587 88.748 56.3334 88.1947 57.1277 88.1947H59.3216C58.6236 88.1947 58.0373 87.5959 57.9055 86.9353H51.9875C51.8531 86.9353 51.7444 86.8262 51.7444 86.6918V85.0812C51.7444 84.4601 51.2408 83.9565 50.6197 83.9565H46V88.9114C46 90.6172 47.3828 92 49.089 92H56.9347C56.1404 92 55.587 91.35 55.587 90.5557Z" fill="#F4BDA4"/>
<path d="M48.8901 89.1044V83.9565H46V88.9114C46 90.6172 47.3828 92 49.089 92H50.9025C49.7273 91.5631 48.8901 90.4315 48.8901 89.1044Z" fill="#EFA78B"/>
<path d="M51.7665 79.3919C51.3563 79.3795 51.0198 79.7083 51.0198 80.1159V86.525C51.0198 86.7513 51.2032 86.9351 51.4299 86.9351H52.4689V80.1463C52.4689 79.7497 52.1631 79.4037 51.7665 79.3919Z" fill="#EF4D55"/>
<path d="M68.9968 54.6865C68.8331 54.7748 68.6464 54.8253 68.4482 54.8253C68.2911 54.8253 68.1381 54.8085 67.9897 54.777V59.1898C67.9897 59.2392 67.9872 59.2876 67.9861 59.3367C69.5919 59.5798 70.8498 58.4197 70.8498 56.9944C70.8498 55.884 70.0885 54.9392 68.9968 54.6865Z" fill="#F4BDA4"/>
<path d="M55.8992 54.8252H55.1385C54.9987 54.8252 54.8632 54.8076 54.7321 54.7776C53.7913 55.1042 53.0391 55.9513 53.0391 56.9943C53.0391 58.4177 54.2941 59.5801 55.9028 59.3365C55.9017 59.2875 55.8992 59.2388 55.8992 59.1897V54.8252Z" fill="#F4BDA4"/>
<path d="M69.7426 54.9952C69.5188 54.855 69.2683 54.7495 68.9969 54.6865C68.8333 54.7748 68.6468 54.8253 68.4487 54.8253C68.2916 54.8253 68.1382 54.8085 67.9902 54.777V59.1898C67.9902 59.2392 67.9877 59.2876 67.9866 59.3367C68.6538 59.4377 69.261 59.2956 69.7429 58.9935V54.9952H69.7426Z" fill="#EFA78B"/>
<path d="M55.899 58.9938C55.2212 58.569 54.792 57.8263 54.792 56.9943C54.792 56.1802 55.2509 55.4869 55.899 55.0658V54.8252H55.1384C54.9985 54.8252 54.863 54.8076 54.7323 54.7776C53.7911 55.1042 53.0393 55.9513 53.0393 56.9943C53.0393 58.4177 54.2939 59.5801 55.9027 59.3365C55.9016 59.2875 55.899 59.2388 55.899 59.1897V58.9938Z" fill="#EFA78B"/>
<path d="M66.3576 52.6055C66.3576 52.4865 66.1983 52.4455 66.1423 52.5506C65.4187 53.9037 63.9927 54.8251 62.3509 54.8251H55.7705V59.1896C55.7705 62.3705 58.2626 65.2757 62.0323 65.2757C65.3883 65.2757 68.1184 62.5452 68.1184 59.1896V54.7764C67.1161 54.5636 66.3576 53.669 66.3576 52.6055Z" fill="#F9CBB4"/>
<path d="M59.6315 59.1897V54.8252H55.7705V59.1897C55.7705 62.3706 58.2626 65.2757 62.0327 65.2757C62.6838 65.2757 63.3111 65.1717 63.9 64.9813C61.2703 64.1665 59.6315 61.7689 59.6315 59.1897Z" fill="#F4BDA4"/>
<path d="M67.7234 46.814C67.1418 46.8586 66.6082 46.4932 66.4962 45.9204C66.308 44.9565 65.8308 44 63.9664 44H57.4984C55.1246 44 53.2002 45.9244 53.2002 48.2982V53.1439C53.2002 54.1433 54.0106 54.9537 55.01 54.9537H62.3511C63.9928 54.9537 65.4188 54.0327 66.1424 52.6792C66.1988 52.5744 66.3581 52.6151 66.3581 52.7341C66.3581 53.9551 67.3568 54.9537 68.5774 54.9537C69.2175 54.9537 69.7408 54.4304 69.7408 53.7903V48.7391C69.7408 47.5793 68.729 46.7367 67.7234 46.814Z" fill="#935D38"/>
<path d="M57.0538 53.301V48.2477C57.0538 46.2727 58.3315 44.5973 60.1055 44H57.4984C55.1246 44 53.2002 45.9244 53.2002 48.2982V53.1439C53.2002 54.1433 54.0106 54.9537 55.01 54.9537H58.0301C57.4482 54.6322 57.0538 54.0129 57.0538 53.301Z" fill="#7F4D2A"/>
<path d="M82.3156 88.0979H56.6414C55.847 88.0979 55.197 88.7479 55.197 89.5422V90.5555C55.197 91.3498 55.847 91.9999 56.6414 91.9999H82.3156C83.1099 91.9999 83.76 91.3498 83.76 90.5555V89.5422C83.76 88.7479 83.1099 88.0979 82.3156 88.0979Z" fill="#E0D9D5"/>
<path d="M82.3156 89.4236H56.6414C56.1345 89.4236 55.6874 89.1584 55.4296 88.7607C55.2831 88.9867 55.197 89.2548 55.197 89.5422V90.5555C55.197 91.3498 55.847 91.9999 56.6414 91.9999H82.3156C83.1099 91.9999 83.76 91.3498 83.76 90.5555V89.5422C83.76 89.2548 83.6735 88.9867 83.5274 88.7607C83.2692 89.1584 82.8221 89.4236 82.3156 89.4236Z" fill="#CEC8C6"/>
<path d="M79.9284 69.3967H59.0284C58.2341 69.3967 57.5845 70.0464 57.5845 70.8411V86.847C57.5845 87.6413 58.2341 88.2913 59.0284 88.2913H79.9284C80.7227 88.2913 81.3728 87.6413 81.3728 86.847V70.8411C81.3728 70.0464 80.7227 69.3967 79.9284 69.3967Z" fill="#EDEBED"/>
<path d="M60.4131 86.847V70.8411C60.4131 70.0464 61.0631 69.3967 61.8574 69.3967H59.0284C58.2341 69.3967 57.5845 70.0464 57.5845 70.8411V86.847C57.5845 87.6413 58.2341 88.2913 59.0284 88.2913H61.8574C61.0631 88.2913 60.4131 87.6413 60.4131 86.847Z" fill="#E0D9D5"/>
<rect x="242" y="84" width="48" height="48" rx="24" fill="#E598F6"/>
<path d="M276.07 102.659C275.591 102.412 275.166 102.13 274.852 101.763C274.244 101.052 273.891 100.111 273.891 99.0769L274.316 95.5806C274.316 94.263 274.316 92.8425 274.316 92.3723C274.316 87.7115 270.509 83.9406 265.834 84.0007C261.232 84.06 257.572 87.8954 257.572 92.4968V95.5803L257.997 99.0769C257.997 100.11 257.645 101.051 257.036 101.763C256.722 102.13 256.297 102.412 255.818 102.659C254.241 103.472 253.864 108.032 257.462 108.963H274.423L274.424 108.963C278.025 108.034 277.647 103.472 276.07 102.659Z" fill="#935D38"/>
<path d="M274.422 108.963L274.424 108.964C274.425 108.964 274.426 108.963 274.427 108.963H274.422Z" fill="#7F4D2A"/>
<path d="M259.471 102.659C259.95 102.412 260.375 102.13 260.689 101.763C261.298 101.051 261.65 100.11 261.65 99.0768L261.225 95.5802V92.4967C261.225 88.4838 264.009 85.0543 267.774 84.2032C267.15 84.064 266.501 83.9922 265.834 84.0007C261.232 84.06 257.572 87.8953 257.572 92.4967V95.5802L257.997 99.0768C257.997 100.11 257.645 101.051 257.036 101.763C256.722 102.13 256.297 102.412 255.818 102.659C254.241 103.472 253.864 108.032 257.462 108.963H261.115C257.517 108.032 257.894 103.472 259.471 102.659Z" fill="#7F4D2A"/>
<path d="M261.691 127.129H261.739C261.693 126.989 261.667 126.841 261.667 126.686V111.065C261.667 110.275 262.313 109.629 263.103 109.629H276.125L270.374 107.402C269.778 107.171 269.385 106.597 269.385 105.958V104.241C268.419 104.909 267.255 105.301 266.003 105.297C264.64 105.292 263.449 104.9 262.487 104.253V105.958C262.487 106.597 262.095 107.171 261.499 107.402L253.374 110.552C253.374 110.552 250 111.939 250 115.785V124.151H254.618C255.239 124.151 255.743 124.655 255.743 125.276V126.675C255.743 126.926 255.946 127.129 256.197 127.129H261.691Z" fill="#FC5F61"/>
<path d="M252.879 114.433C252.879 112.047 254.177 110.608 255.163 109.858L253.374 110.552C253.374 110.552 250 111.939 250 115.785V124.151H252.879V114.433Z" fill="#EF4D55"/>
<path d="M261.667 111.909V111.065C261.667 110.275 262.313 109.629 263.103 109.629H271.967C272.194 109.192 272.389 108.728 272.546 108.243L270.374 107.402C269.778 107.171 269.385 106.597 269.385 105.958V103.758C268.42 104.426 267.255 104.818 266.004 104.814C264.641 104.809 263.45 104.417 262.488 103.77V105.958C262.488 106.598 262.095 107.171 261.499 107.402L259.337 108.24C259.809 109.707 260.624 110.975 261.667 111.909Z" fill="#F4BDA4"/>
<path d="M263.297 107.245C263.805 107.216 264.305 107.075 264.737 106.805C265.081 106.59 265.353 106.313 265.353 105.958V104.78C264.26 104.674 263.293 104.312 262.488 103.77V105.958C262.488 106.544 262.157 107.073 261.644 107.336L263.297 107.245Z" fill="#EFA78B"/>
<path d="M260.634 128.122H263.103C262.398 128.122 261.81 127.608 261.691 126.936H256.197C255.946 126.936 255.743 126.733 255.743 126.482V125.083C255.743 124.461 255.239 123.958 254.619 123.958H250V128.912C250 130.617 251.383 132 253.088 132H260.62V131.999C259.837 131.991 259.198 131.349 259.198 130.564V129.557C259.198 128.768 259.844 128.122 260.634 128.122Z" fill="#F4BDA4"/>
<path d="M252.877 129.105V123.958H250V128.912C250 130.617 251.383 132 253.088 132H254.889C253.714 131.563 252.877 130.432 252.877 129.105Z" fill="#EFA78B"/>
<path d="M286.228 128.099H260.559C259.766 128.099 259.115 128.749 259.115 129.543V130.556C259.115 131.35 259.766 132 260.559 132H286.228C287.022 132 287.672 131.35 287.672 130.556V129.543C287.672 128.749 287.022 128.099 286.228 128.099Z" fill="#E0D9D5"/>
<path d="M286.228 129.424H260.559C260.053 129.424 259.606 129.159 259.348 128.761C259.202 128.987 259.115 129.255 259.115 129.543V130.556C259.115 131.35 259.766 132 260.559 132H286.228C287.022 132 287.672 131.35 287.672 130.556V129.543C287.672 129.255 287.586 128.987 287.439 128.761C287.181 129.159 286.735 129.424 286.228 129.424Z" fill="#CEC8C6"/>
<path d="M283.841 109.402H262.946C262.152 109.402 261.502 110.052 261.502 110.846V126.848C261.502 127.642 262.152 128.292 262.946 128.292H283.841C284.635 128.292 285.285 127.642 285.285 126.848V110.846C285.285 110.052 284.635 109.402 283.841 109.402Z" fill="#EDEBED"/>
<path d="M264.33 126.848V110.846C264.33 110.052 264.98 109.402 265.774 109.402H262.946C262.152 109.402 261.502 110.052 261.502 110.846V126.848C261.502 127.642 262.152 128.292 262.946 128.292H265.774C264.98 128.292 264.33 127.642 264.33 126.848Z" fill="#E0D9D5"/>
<path d="M255.765 119.395C255.355 119.382 255.019 119.711 255.019 120.119V126.326C255.019 126.663 255.292 126.936 255.629 126.936H256.467V120.149C256.467 119.753 256.162 119.407 255.765 119.395Z" fill="#EF4D55"/>
<path d="M271.903 94.8764V99.3061C271.903 99.3497 271.9 99.3918 271.9 99.435C273.48 99.7378 274.796 98.6019 274.796 97.1557C274.796 95.7106 273.482 94.5761 271.903 94.8764Z" fill="#F4BDA4"/>
<path d="M259.985 94.8762V99.3063C259.985 99.3499 259.987 99.392 259.988 99.4352C258.407 99.738 257.091 98.6021 257.091 97.1559C257.091 95.7108 258.406 94.5756 259.985 94.8762Z" fill="#F4BDA4"/>
<path d="M273.924 95.3477C273.4 94.9306 272.684 94.7277 271.903 94.8764V99.3061C271.903 99.3493 271.9 99.3918 271.9 99.435C272.682 99.5848 273.399 99.3819 273.924 98.9641V95.3477Z" fill="#EFA78B"/>
<path d="M259.985 98.9642C259.449 98.5376 259.112 97.8865 259.112 97.1559C259.112 96.4253 259.449 95.7745 259.985 95.3479V94.8762C258.406 94.5756 257.091 95.7108 257.091 97.1559C257.091 98.6021 258.407 99.738 259.988 99.4352C259.987 99.392 259.985 99.3495 259.985 99.3063V98.9642Z" fill="#EFA78B"/>
<path d="M269.448 94.8574C267.85 94.8574 266.506 93.7885 266.083 92.3302C266.082 92.3251 266.08 92.3199 266.078 92.3148C266.061 92.2544 266.007 92.2119 265.944 92.2119C265.881 92.2119 265.827 92.2544 265.81 92.3148C265.809 92.3203 265.807 92.3251 265.805 92.3306C265.376 93.8126 264.012 94.8574 262.441 94.8574H259.872V99.3058C259.872 102.426 262.311 105.279 266.006 105.291C269.312 105.302 272.016 102.552 272.016 99.2468V94.8574H269.448Z" fill="#F9CBB4"/>
<path d="M263.717 99.3053V94.6138C263.32 94.7698 262.889 94.8573 262.441 94.8573H259.872V99.3053C259.872 102.426 262.311 105.279 266.006 105.291C266.659 105.293 267.289 105.186 267.879 104.99C265.313 104.177 263.717 101.829 263.717 99.3053Z" fill="#F4BDA4"/>
<rect x="42" y="96" width="40" height="15" rx="7.5" fill="#FCC077"/>
<path d="M50.8129 100H54.9629V101.22H52.1829V102.95H54.7429V104.17H52.1829V107H50.8129V100ZM58.621 103.22C58.4143 103.147 58.2277 103.11 58.061 103.11C57.8277 103.11 57.631 103.173 57.471 103.3C57.3177 103.42 57.2143 103.577 57.161 103.77V107H55.861V102H56.871L57.021 102.66H57.061C57.1743 102.413 57.3277 102.223 57.521 102.09C57.7143 101.957 57.941 101.89 58.201 101.89C58.3743 101.89 58.571 101.927 58.791 102L58.621 103.22ZM59.3369 102.29C59.6035 102.17 59.9202 102.077 60.2869 102.01C60.6535 101.937 61.0369 101.9 61.4369 101.9C61.7835 101.9 62.0735 101.943 62.3069 102.03C62.5402 102.11 62.7235 102.227 62.8569 102.38C62.9969 102.533 63.0935 102.717 63.1469 102.93C63.2069 103.143 63.2369 103.383 63.2369 103.65C63.2369 103.943 63.2269 104.24 63.2069 104.54C63.1869 104.833 63.1735 105.123 63.1669 105.41C63.1669 105.697 63.1769 105.977 63.1969 106.25C63.2169 106.517 63.2669 106.77 63.3469 107.01H62.2869L62.0769 106.32H62.0269C61.8935 106.527 61.7069 106.707 61.4669 106.86C61.2335 107.007 60.9302 107.08 60.5569 107.08C60.3235 107.08 60.1135 107.047 59.9269 106.98C59.7402 106.907 59.5802 106.807 59.4469 106.68C59.3135 106.547 59.2102 106.393 59.1369 106.22C59.0635 106.04 59.0269 105.84 59.0269 105.62C59.0269 105.313 59.0935 105.057 59.2269 104.85C59.3669 104.637 59.5635 104.467 59.8169 104.34C60.0769 104.207 60.3835 104.117 60.7369 104.07C61.0969 104.017 61.4969 104 61.9369 104.02C61.9835 103.647 61.9569 103.38 61.8569 103.22C61.7569 103.053 61.5335 102.97 61.1869 102.97C60.9269 102.97 60.6502 102.997 60.3569 103.05C60.0702 103.103 59.8335 103.173 59.6469 103.26L59.3369 102.29ZM60.9869 106.01C61.2469 106.01 61.4535 105.953 61.6069 105.84C61.7602 105.72 61.8735 105.593 61.9469 105.46V104.81C61.7402 104.79 61.5402 104.787 61.3469 104.8C61.1602 104.813 60.9935 104.843 60.8469 104.89C60.7002 104.937 60.5835 105.003 60.4969 105.09C60.4102 105.177 60.3669 105.287 60.3669 105.42C60.3669 105.607 60.4202 105.753 60.5269 105.86C60.6402 105.96 60.7935 106.01 60.9869 106.01ZM67.3878 107V104.16C67.3878 103.753 67.3278 103.46 67.2078 103.28C67.0945 103.1 66.8978 103.01 66.6178 103.01C66.3711 103.01 66.1611 103.083 65.9878 103.23C65.8211 103.37 65.7011 103.547 65.6278 103.76V107H64.3278V102H65.3578L65.5078 102.66H65.5478C65.7011 102.447 65.9045 102.26 66.1578 102.1C66.4111 101.94 66.7378 101.86 67.1378 101.86C67.3845 101.86 67.6045 101.893 67.7978 101.96C67.9911 102.027 68.1545 102.137 68.2878 102.29C68.4211 102.443 68.5211 102.653 68.5878 102.92C68.6545 103.18 68.6878 103.503 68.6878 103.89V107H67.3878ZM69.517 105.9L71.487 103.53L71.997 103.1H69.517V102H73.437V103.1L71.487 105.51L70.987 105.9H73.437V107H69.517V105.9Z" fill="white"/>
<rect x="246" y="136" width="43" height="15" rx="7.5" fill="#E598F6"/>
<path d="M254.96 140H259.11V141.22H256.33V142.85H258.86V144.07H256.33V145.78H259.16V147H254.96V140ZM262.995 147V144.28C262.995 143.82 262.952 143.493 262.865 143.3C262.778 143.107 262.598 143.01 262.325 143.01C262.098 143.01 261.915 143.073 261.775 143.2C261.635 143.32 261.528 143.477 261.455 143.67V147H260.155V142H261.165L261.315 142.66H261.355C261.508 142.447 261.702 142.26 261.935 142.1C262.175 141.94 262.482 141.86 262.855 141.86C263.175 141.86 263.435 141.927 263.635 142.06C263.842 142.187 264.002 142.403 264.115 142.71C264.268 142.45 264.465 142.243 264.705 142.09C264.945 141.937 265.235 141.86 265.575 141.86C265.855 141.86 266.092 141.893 266.285 141.96C266.485 142.027 266.645 142.143 266.765 142.31C266.892 142.47 266.985 142.687 267.045 142.96C267.105 143.233 267.135 143.58 267.135 144V147H265.835V144.19C265.835 143.797 265.792 143.503 265.705 143.31C265.625 143.11 265.442 143.01 265.155 143.01C264.922 143.01 264.735 143.073 264.595 143.2C264.462 143.327 264.362 143.5 264.295 143.72V147H262.995ZM271.042 147V144.28C271.042 143.82 270.999 143.493 270.912 143.3C270.825 143.107 270.645 143.01 270.372 143.01C270.145 143.01 269.962 143.073 269.822 143.2C269.682 143.32 269.575 143.477 269.502 143.67V147H268.202V142H269.212L269.362 142.66H269.402C269.555 142.447 269.749 142.26 269.982 142.1C270.222 141.94 270.529 141.86 270.902 141.86C271.222 141.86 271.482 141.927 271.682 142.06C271.889 142.187 272.049 142.403 272.162 142.71C272.315 142.45 272.512 142.243 272.752 142.09C272.992 141.937 273.282 141.86 273.622 141.86C273.902 141.86 274.139 141.893 274.332 141.96C274.532 142.027 274.692 142.143 274.812 142.31C274.939 142.47 275.032 142.687 275.092 142.96C275.152 143.233 275.182 143.58 275.182 144V147H273.882V144.19C273.882 143.797 273.839 143.503 273.752 143.31C273.672 143.11 273.489 143.01 273.202 143.01C272.969 143.01 272.782 143.073 272.642 143.2C272.509 143.327 272.409 143.5 272.342 143.72V147H271.042ZM276.219 142.29C276.485 142.17 276.802 142.077 277.169 142.01C277.535 141.937 277.919 141.9 278.319 141.9C278.665 141.9 278.955 141.943 279.189 142.03C279.422 142.11 279.605 142.227 279.739 142.38C279.879 142.533 279.975 142.717 280.029 142.93C280.089 143.143 280.119 143.383 280.119 143.65C280.119 143.943 280.109 144.24 280.089 144.54C280.069 144.833 280.055 145.123 280.049 145.41C280.049 145.697 280.059 145.977 280.079 146.25C280.099 146.517 280.149 146.77 280.229 147.01H279.169L278.959 146.32H278.909C278.775 146.527 278.589 146.707 278.349 146.86C278.115 147.007 277.812 147.08 277.439 147.08C277.205 147.08 276.995 147.047 276.809 146.98C276.622 146.907 276.462 146.807 276.329 146.68C276.195 146.547 276.092 146.393 276.019 146.22C275.945 146.04 275.909 145.84 275.909 145.62C275.909 145.313 275.975 145.057 276.109 144.85C276.249 144.637 276.445 144.467 276.699 144.34C276.959 144.207 277.265 144.117 277.619 144.07C277.979 144.017 278.379 144 278.819 144.02C278.865 143.647 278.839 143.38 278.739 143.22C278.639 143.053 278.415 142.97 278.069 142.97C277.809 142.97 277.532 142.997 277.239 143.05C276.952 143.103 276.715 143.173 276.529 143.26L276.219 142.29ZM277.869 146.01C278.129 146.01 278.335 145.953 278.489 145.84C278.642 145.72 278.755 145.593 278.829 145.46V144.81C278.622 144.79 278.422 144.787 278.229 144.8C278.042 144.813 277.875 144.843 277.729 144.89C277.582 144.937 277.465 145.003 277.379 145.09C277.292 145.177 277.249 145.287 277.249 145.42C277.249 145.607 277.302 145.753 277.409 145.86C277.522 145.96 277.675 146.01 277.869 146.01Z" fill="white"/>
<defs>
<filter id="filter0_d_432_3183" x="127" y="33" width="82" height="106" filterUnits="userSpaceOnUse" color-interpolation-filters="sRGB">
<feFlood flood-opacity="0" result="BackgroundImageFix"/>
<feColorMatrix in="SourceAlpha" type="matrix" values="0 0 0 0 0 0 0 0 0 0 0 0 0 0 0 0 0 0 127 0" result="hardAlpha"/>
<feOffset dx="4" dy="4"/>
<feGaussianBlur stdDeviation="2.5"/>
<feComposite in2="hardAlpha" operator="out"/>
<feColorMatrix type="matrix" values="0 0 0 0 0 0 0 0 0 0 0 0 0 0 0 0 0 0 0.19 0"/>
<feBlend mode="normal" in2="BackgroundImageFix" result="effect1_dropShadow_432_3183"/>
<feBlend mode="normal" in="SourceGraphic" in2="effect1_dropShadow_432_3183" result="shape"/>
</filter>
<filter id="filter1_d_432_3183" x="86" y="39" width="51" height="57" filterUnits="userSpaceOnUse" color-interpolation-filters="sRGB">
<feFlood flood-opacity="0" result="BackgroundImageFix"/>
<feColorMatrix in="SourceAlpha" type="matrix" values="0 0 0 0 0 0 0 0 0 0 0 0 0 0 0 0 0 0 127 0" result="hardAlpha"/>
<feOffset dy="4"/>
<feGaussianBlur stdDeviation="2.5"/>
<feComposite in2="hardAlpha" operator="out"/>
<feColorMatrix type="matrix" values="0 0 0 0 0 0 0 0 0 0 0 0 0 0 0 0 0 0 0.19 0"/>
<feBlend mode="normal" in2="BackgroundImageFix" result="effect1_dropShadow_432_3183"/>
<feBlend mode="normal" in="SourceGraphic" in2="effect1_dropShadow_432_3183" result="shape"/>
</filter>
<filter id="filter2_d_432_3183" x="186" y="81" width="56" height="53" filterUnits="userSpaceOnUse" color-interpolation-filters="sRGB">
<feFlood flood-opacity="0" result="BackgroundImageFix"/>
<feColorMatrix in="SourceAlpha" type="matrix" values="0 0 0 0 0 0 0 0 0 0 0 0 0 0 0 0 0 0 127 0" result="hardAlpha"/>
<feOffset dy="4"/>
<feGaussianBlur stdDeviation="2.5"/>
<feComposite in2="hardAlpha" operator="out"/>
<feColorMatrix type="matrix" values="0 0 0 0 0 0 0 0 0 0 0 0 0 0 0 0 0 0 0.19 0"/>
<feBlend mode="normal" in2="BackgroundImageFix" result="effect1_dropShadow_432_3183"/>
<feBlend mode="normal" in="SourceGraphic" in2="effect1_dropShadow_432_3183" result="shape"/>
</filter>
<linearGradient id="paint0_linear_432_3183" x1="91.1964" y1="61.1852" x2="131.711" y2="61.7019" gradientUnits="userSpaceOnUse">
<stop stop-color="#41C057"/>
<stop offset="1" stop-color="#41C057"/>
</linearGradient>
</defs>
</svg>
