<svg width="328" height="185" viewBox="0 0 328 185" fill="none" xmlns="http://www.w3.org/2000/svg">
<rect width="328" height="185" fill="white"/>
<rect width="328" height="185" fill="white"/>
<path d="M219 137C217.939 137 216.922 137.421 216.172 138.172C215.421 138.922 215 139.939 215 141V173C215 174.061 215.421 175.078 216.172 175.828C216.922 176.579 217.939 177 219 177H243C244.061 177 245.078 176.579 245.828 175.828C246.579 175.078 247 174.061 247 173V149L235 137H219ZM219 141H233V151H243V173H219V141ZM223 157V161H239V157H223ZM223 165V169H233V165H223Z" fill="#4163EB"/>
<path d="M140 53C137.878 53 135.843 53.8429 134.343 55.3431C132.843 56.8434 132 58.8783 132 61V125C132 127.122 132.843 129.157 134.343 130.657C135.843 132.157 137.878 133 140 133H188C190.122 133 192.157 132.157 193.657 130.657C195.157 129.157 196 127.122 196 125V77L172 53H140ZM140 61H168V81H188V125H140V61Z" fill="#0F3551"/>
<path d="M190.553 12.8647C189.517 12.6354 188.433 12.8269 187.538 13.3971C186.644 13.9674 186.012 14.8696 185.783 15.9054L178.865 47.1487C178.635 48.1844 178.827 49.2689 179.397 50.1635C179.967 51.0581 180.87 51.6895 181.905 51.9188L205.338 57.1073C206.374 57.3367 207.458 57.1452 208.353 56.5749C209.247 56.0047 209.879 55.1024 210.108 54.0667L215.297 30.6342L206.175 16.3237L190.553 12.8647ZM189.688 16.7702L203.357 19.7968L201.195 29.5603L210.959 31.7222L206.203 53.2019L182.77 48.0134L189.688 16.7702ZM190.135 33.2565L189.27 37.1619L204.891 40.6209L205.756 36.7155L190.135 33.2565ZM188.405 41.0674L187.54 44.9728L197.304 47.1346L198.169 43.2292L188.405 41.0674Z" fill="#ADB6BD"/>
<path d="M286.754 82.8756L270.951 85.3765C269.903 85.5423 268.964 86.1176 268.34 86.9758C267.717 87.8339 267.459 88.9047 267.625 89.9525L272.627 121.559C272.793 122.607 273.368 123.546 274.226 124.17C275.084 124.793 276.155 125.051 277.203 124.885L300.908 121.134C301.956 120.968 302.895 120.392 303.519 119.534C304.142 118.676 304.399 117.605 304.234 116.558L300.482 92.8525L286.754 82.8756ZM300.283 117.183L276.578 120.934L271.576 89.3273L285.404 87.1391L286.967 97.0162L296.844 95.4531L300.283 117.183ZM282.291 105.856L276.365 106.793L275.74 102.843L281.666 101.905L282.291 105.856ZM290.193 104.605L284.267 105.543L283.641 101.592L289.568 100.654L290.193 104.605ZM283.229 111.782L277.303 112.72L276.678 108.769L282.604 107.831L283.229 111.782ZM291.131 110.531L285.204 111.469L284.579 107.518L290.505 106.581L291.131 110.531ZM284.167 117.708L278.241 118.646L277.615 114.695L283.542 113.757L284.167 117.708ZM292.068 116.458L286.142 117.396L285.517 113.445L291.443 112.507L292.068 116.458Z" fill="#FE8687"/>
<path d="M45.3203 42.1017L29.8641 46.2373C28.8393 46.5115 27.9653 47.1816 27.4346 48.1002C26.9038 49.0187 26.7597 50.1105 27.0339 51.1353L35.3053 82.0478C35.5795 83.0727 36.2496 83.9466 37.1681 84.4773C38.0867 85.0081 39.1784 85.1522 40.2032 84.878L63.3876 78.6745C64.4125 78.4003 65.2864 77.7302 65.8171 76.8116C66.3479 75.8931 66.492 74.8013 66.2178 73.7765L60.0143 50.5921L45.3203 42.1017ZM62.3537 74.8104L39.1693 81.0139L30.898 50.1014L44.4222 46.4827L47.007 56.1428L56.6672 53.558L62.3537 74.8104ZM43.2788 65.4219L37.4826 66.9727L36.4487 63.1087L42.2448 61.5578L43.2788 65.4219ZM51.0069 63.354L45.2108 64.9049L44.1769 61.0408L49.973 59.49L51.0069 63.354ZM44.8296 71.218L39.0335 72.7688L37.9996 68.9048L43.7957 67.3539L44.8296 71.218ZM52.5578 69.1501L46.7617 70.701L45.7277 66.8369L51.5238 65.2861L52.5578 69.1501ZM46.3805 77.0141L40.5844 78.5649L39.5505 74.7009L45.3466 73.15L46.3805 77.0141ZM54.1086 74.9462L48.3125 76.4971L47.2786 72.633L53.0747 71.0822L54.1086 74.9462Z" fill="#AE3DC9"/>
<path d="M91.7455 130.219L76.2999 126.044C74.1761 125.47 71.9688 126.738 71.3947 128.861L63.0439 159.753C62.4697 161.876 63.7376 164.084 65.8614 164.658L89.0298 170.921C91.1535 171.495 93.3609 170.227 93.935 168.103L100.198 144.935L91.7455 130.219ZM90.0736 167.06L66.9053 160.796L75.2561 129.905L88.7709 133.559L86.1613 143.212L95.8148 145.822L90.0736 167.06ZM76.3508 148.847L73.2193 160.431L69.3579 159.388L72.4894 147.803L76.3508 148.847ZM86.8912 155.84L84.8035 163.563L88.6649 164.607L90.7526 156.884L86.8912 155.84ZM81.2561 146.03L77.0807 161.475L80.9421 162.519L85.1175 147.074L81.2561 146.03Z" fill="#FCC077"/>
</svg>
