<svg width="328" height="185" viewBox="0 0 328 185" fill="none" xmlns="http://www.w3.org/2000/svg">
<rect width="328" height="185" fill="white"/>
<path d="M328 0H0V20H328V0Z" fill="#E0E0E0"/>
<mask id="mask0_14580_39712" style="mask-type:luminance" maskUnits="userSpaceOnUse" x="6" y="27" width="316" height="147">
<path d="M322 27H6V174H322V27Z" fill="white"/>
</mask>
<g mask="url(#mask0_14580_39712)">
<path d="M105.805 27H7.19493C6.53499 27 6 27.5461 6 28.2197V32.7802C6 33.4539 6.53499 34 7.19493 34H105.805C106.465 34 107 33.4539 107 32.7802V28.2197C107 27.5461 106.465 27 105.805 27Z" fill="#AE3DC9"/>
<path d="M63.7981 41H7.20186C6.53809 41 6 41.5461 6 42.2197V46.7802C6 47.4539 6.53809 48 7.20186 48H63.7981C64.4619 48 65 47.4539 65 46.7802V42.2197C65 41.5461 64.4619 41 63.7981 41Z" fill="#FCC077"/>
<path d="M105.805 67H7.19493C6.53499 67 6 67.5461 6 68.2198V72.7803C6 73.4539 6.53499 74 7.19493 74H105.805C106.465 74 107 73.4539 107 72.7803V68.2198C107 67.5461 106.465 67 105.805 67Z" fill="#4163EB"/>
<path d="M45.8114 81H7.18863C6.53217 81 6 81.5461 6 82.2198V86.7802C6 87.4539 6.53217 88 7.18863 88H45.8114C46.4678 88 47 87.4539 47 86.7802V82.2198C47 81.5461 46.4678 81 45.8114 81Z" fill="#FE8687"/>
<path d="M170.805 41H72.1949C71.535 41 71 41.5461 71 42.2197V46.7802C71 47.4539 71.535 48 72.1949 48H170.805C171.465 48 172 47.4539 172 46.7802V42.2197C172 41.5461 171.465 41 170.805 41Z" fill="#FCC077"/>
<path d="M136.811 53H79.1885C78.5321 53 78 53.5461 78 54.2198V58.7802C78 59.4539 78.5321 60 79.1885 60H136.811C137.468 60 138 59.4539 138 58.7802V54.2198C138 53.5461 137.468 53 136.811 53Z" fill="#ADB6BD"/>
<path d="M154.81 67H114.19C113.533 67 113 67.5461 113 68.2198V72.7803C113 73.4539 113.533 74 114.19 74H154.81C155.467 74 156 73.4539 156 72.7803V68.2198C156 67.5461 155.467 67 154.81 67Z" fill="#4163EB"/>
<path d="M153.805 81H55.1949C54.535 81 54 81.5461 54 82.2198V86.7802C54 87.4539 54.535 88 55.1949 88H153.805C154.465 88 155 87.4539 155 86.7802V82.2198C155 81.5461 154.465 81 153.805 81Z" fill="#FE8687"/>
<path d="M125.793 94H77.2068C76.5403 94 76 94.6241 76 95.394V100.606C76 101.376 76.5403 102 77.2068 102H125.793C126.46 102 127 101.376 127 100.606V95.394C127 94.6241 126.46 94 125.793 94Z" fill="#FE8687"/>
<path d="M242.816 41H178.184C177.53 41 177 41.5461 177 42.2197V46.7802C177 47.4539 177.53 48 178.184 48H242.816C243.47 48 244 47.4539 244 46.7802V42.2197C244 41.5461 243.47 41 242.816 41Z" fill="#FCC077"/>
<path d="M320.798 53H255.202C254.538 53 254 53.5461 254 54.2198V58.7802C254 59.4539 254.538 60 255.202 60H320.798C321.462 60 322 59.4539 322 58.7802V54.2198C322 53.5461 321.462 53 320.798 53Z" fill="#ADB6BD"/>
<path d="M245.805 53H147.195C146.535 53 146 53.5461 146 54.2198V58.7802C146 59.4539 146.535 60 147.195 60H245.805C246.465 60 247 59.4539 247 58.7802V54.2198C247 53.5461 246.465 53 245.805 53Z" fill="#ADB6BD"/>
<path d="M264.805 67H166.195C165.535 67 165 67.5461 165 68.2198V72.7803C165 73.4539 165.535 74 166.195 74H264.805C265.465 74 266 73.4539 266 72.7803V68.2198C266 67.5461 265.465 67 264.805 67Z" fill="#4163EB"/>
<path d="M158.807 107H92.193C91.5341 107 91 107.546 91 108.22V112.78C91 113.454 91.5341 114 92.193 114H158.807C159.466 114 160 113.454 160 112.78V108.22C160 107.546 159.466 107 158.807 107Z" fill="#ADB6BD"/>
<path d="M77.807 127H7.19302C6.53413 127 6 127.546 6 128.22V132.78C6 133.454 6.53413 134 7.19302 134H77.807C78.4659 134 79 133.454 79 132.78V128.22C79 127.546 78.4659 127 77.807 127Z" fill="#4163EB"/>
<path d="M69.8147 153H7.18528C6.53067 153 6 153.546 6 154.22V158.78C6 159.454 6.53067 160 7.18528 160H69.8147C70.4693 160 71 159.454 71 158.78V154.22C71 153.546 70.4693 153 69.8147 153Z" fill="#AE3DC9"/>
<path d="M170.805 139H72.1949C71.535 139 71 139.546 71 140.22V144.78C71 145.454 71.535 146 72.1949 146H170.805C171.465 146 172 145.454 172 144.78V140.22C172 139.546 171.465 139 170.805 139Z" fill="#AE3DC9"/>
<path d="M136.811 153H79.1885C78.5321 153 78 153.546 78 154.22V158.78C78 159.454 78.5321 160 79.1885 160H136.811C137.468 160 138 159.454 138 158.78V154.22C138 153.546 137.468 153 136.811 153Z" fill="#AE3DC9"/>
<path d="M242.816 139H178.184C177.53 139 177 139.546 177 140.22V144.78C177 145.454 177.53 146 178.184 146H242.816C243.47 146 244 145.454 244 144.78V140.22C244 139.546 243.47 139 242.816 139Z" fill="#AE3DC9"/>
<path d="M69.8147 53H7.18528C6.53067 53 6 53.5461 6 54.2198V58.7802C6 59.4539 6.53067 60 7.18528 60H69.8147C70.4693 60 71 59.4539 71 58.7802V54.2198C71 53.5461 70.4693 53 69.8147 53Z" fill="#ADB6BD"/>
<path d="M69.7999 94H7.2001C6.5373 94 6 94.6241 6 95.394V100.606C6 101.376 6.5373 102 7.2001 102H69.7999C70.4627 102 71 101.376 71 100.606V95.394C71 94.6241 70.4627 94 69.7999 94Z" fill="#FE8687"/>
<path d="M28.7988 107H7.20121C6.5378 107 6 107.546 6 108.22V112.78C6 113.454 6.5378 114 7.20121 114H28.7988C29.4622 114 30 113.454 30 112.78V108.22C30 107.546 29.4622 107 28.7988 107Z" fill="#ADB6BD"/>
<path d="M81.7943 107H38.2057C37.5398 107 37 107.546 37 108.22V112.78C37 113.454 37.5398 114 38.2057 114H81.7943C82.4602 114 83 113.454 83 112.78V108.22C83 107.546 82.4602 107 81.7943 107Z" fill="#ADB6BD"/>
<path d="M197.813 81H161.187C160.531 81 160 81.5461 160 82.2198V86.7802C160 87.4539 160.531 88 161.187 88H197.813C198.469 88 199 87.4539 199 86.7802V82.2198C199 81.5461 198.469 81 197.813 81Z" fill="#FE8687"/>
<path d="M63.7981 139H7.20186C6.53809 139 6 139.546 6 140.22V144.78C6 145.454 6.53809 146 7.20186 146H63.7981C64.4619 146 65 145.454 65 144.78V140.22C65 139.546 64.4619 139 63.7981 139Z" fill="#AE3DC9"/>
<path d="M105.805 167H7.19493C6.53499 167 6 167.546 6 168.22V172.78C6 173.454 6.53499 174 7.19493 174H105.805C106.465 174 107 173.454 107 172.78V168.22C107 167.546 106.465 167 105.805 167Z" fill="#ADB6BD"/>
<path d="M154.81 167H114.19C113.533 167 113 167.546 113 168.22V172.78C113 173.454 113.533 174 114.19 174H154.81C155.467 174 156 173.454 156 172.78V168.22C156 167.546 155.467 167 154.81 167Z" fill="#ADB6BD"/>
<path d="M208.804 167H166.196C165.536 167 165 167.546 165 168.22V172.78C165 173.454 165.536 174 166.196 174H208.804C209.464 174 210 173.454 210 172.78V168.22C210 167.546 209.464 167 208.804 167Z" fill="#ADB6BD"/>
</g>
<path d="M11.6253 11.4587H10.1669V10.2087H11.6253C11.791 10.2087 11.95 10.2745 12.0672 10.3917C12.1844 10.5089 12.2503 10.6679 12.2503 10.8337C12.2503 10.9994 12.1844 11.1584 12.0672 11.2756C11.95 11.3928 11.791 11.4587 11.6253 11.4587ZM10.1669 7.70865H11.4169C11.5827 7.70865 11.7417 7.7745 11.8589 7.89171C11.9761 8.00892 12.0419 8.16789 12.0419 8.33365C12.0419 8.49941 11.9761 8.65839 11.8589 8.7756C11.7417 8.89281 11.5827 8.95865 11.4169 8.95865H10.1669M12.5003 9.49615C12.9044 9.21282 13.1878 8.75032 13.1878 8.33365C13.1878 7.39199 12.4586 6.66699 11.5211 6.66699H8.91699V12.5003H11.8503C12.7253 12.5003 13.3961 11.792 13.3961 10.9212C13.3961 10.2878 13.0378 9.74615 12.5003 9.49615Z" fill="black"/>
<path d="M23.1667 6.66699V7.91699H24.0875L22.6625 11.2503H21.5V12.5003H24.8333V11.2503H23.9125L25.3375 7.91699H26.5V6.66699H23.1667Z" fill="black"/>
<path d="M34.0835 13.75H39.9168V12.9167H34.0835V13.75ZM37.0001 12.0833C37.6632 12.0833 38.299 11.8199 38.7679 11.3511C39.2367 10.8823 39.5001 10.2464 39.5001 9.58333V6.25H38.4585V9.58333C38.4585 9.97011 38.3048 10.341 38.0313 10.6145C37.7578 10.888 37.3869 11.0417 37.0001 11.0417C36.6133 11.0417 36.2424 10.888 35.9689 10.6145C35.6954 10.341 35.5418 9.97011 35.5418 9.58333V6.25H34.5001V9.58333C34.5001 10.2464 34.7635 10.8823 35.2324 11.3511C35.7012 11.8199 36.3371 12.0833 37.0001 12.0833Z" fill="black"/>
<path d="M48 9.083C47.5 8.12467 48.2083 6.99967 49.2083 6.79134C50.5 6.37467 52.375 6.958 52.3333 8.54134H51.0833C51.0833 8.41634 51.0417 8.29134 51.0417 8.208C50.9583 7.958 50.7917 7.833 50.5417 7.74967C50.2083 7.62467 49.6667 7.66634 49.375 7.87467C48.75 8.41634 49.3333 8.958 50 9.16634H48.0833C48.0417 9.12467 48.0417 9.083 48 9.083ZM53.75 10.4163V9.583H46.25V10.4163H50.25C50.3333 10.458 50.4167 10.458 50.5 10.4997C50.75 10.6247 50.9583 10.708 51.0417 10.958C51.0833 11.1247 51.125 11.333 51.0417 11.4997C50.9583 11.708 50.7917 11.7913 50.5833 11.8747C49.8333 12.083 48.9167 11.7913 48.9583 10.8747H47.7083C47.6667 11.958 48.5833 12.708 49.5833 12.833C51.1667 13.1663 53.0417 12.1663 52.2083 10.3747L53.75 10.4163Z" fill="black"/>
<path d="M69.9168 10.417V9.58365H75.7501V10.417H69.9168ZM69.9168 12.917V12.0837H75.7501V12.917H69.9168ZM69.9168 7.91699V7.08365H75.7501V7.91699H69.9168ZM68.2501 8.33365V7.08365H67.8335V6.66699H68.6668V8.33365H68.2501ZM67.8335 12.0837V11.667H69.0835V13.3337H67.8335V12.917H68.6668V12.7087H68.2501V12.292H68.6668V12.0837H67.8335ZM68.771 9.16699C68.8538 9.16699 68.9333 9.19991 68.9919 9.25852C69.0505 9.31712 69.0835 9.39661 69.0835 9.47949C69.0835 9.56282 69.0501 9.64199 68.996 9.69615L68.3001 10.417H69.0835V10.8337H67.8335V10.4503L68.6668 9.58365H67.8335V9.16699H68.771Z" fill="black"/>
<path d="M82.9165 7.08333H88.7499V7.91667H82.9165V7.08333ZM82.9165 10.4167V9.58333H88.7499V10.4167H82.9165ZM81.6665 6.875C81.8323 6.875 81.9913 6.94085 82.1085 7.05806C82.2257 7.17527 82.2915 7.33424 82.2915 7.5C82.2915 7.66576 82.2257 7.82473 82.1085 7.94194C81.9913 8.05915 81.8323 8.125 81.6665 8.125C81.5008 8.125 81.3418 8.05915 81.2246 7.94194C81.1074 7.82473 81.0415 7.66576 81.0415 7.5C81.0415 7.33424 81.1074 7.17527 81.2246 7.05806C81.3418 6.94085 81.5008 6.875 81.6665 6.875ZM81.6665 9.375C81.8323 9.375 81.9913 9.44085 82.1085 9.55806C82.2257 9.67527 82.2915 9.83424 82.2915 10C82.2915 10.1658 82.2257 10.3247 82.1085 10.4419C81.9913 10.5592 81.8323 10.625 81.6665 10.625C81.5008 10.625 81.3418 10.5592 81.2246 10.4419C81.1074 10.3247 81.0415 10.1658 81.0415 10C81.0415 9.83424 81.1074 9.67527 81.2246 9.55806C81.3418 9.44085 81.5008 9.375 81.6665 9.375ZM82.9165 12.9167V12.0833H88.7499V12.9167H82.9165ZM81.6665 11.875C81.8323 11.875 81.9913 11.9408 82.1085 12.0581C82.2257 12.1753 82.2915 12.3342 82.2915 12.5C82.2915 12.6658 82.2257 12.8247 82.1085 12.9419C81.9913 13.0592 81.8323 13.125 81.6665 13.125C81.5008 13.125 81.3418 13.0592 81.2246 12.9419C81.1074 12.8247 81.0415 12.6658 81.0415 12.5C81.0415 12.3342 81.1074 12.1753 81.2246 12.0581C81.3418 11.9408 81.5008 11.875 81.6665 11.875Z" fill="black"/>
<path d="M97.5833 10.4167H101.75V9.58333H97.5833M97.5833 8.75H101.75V7.91667H97.5833M94.25 6.25V7.08333H101.75V6.25M97.5833 12.0833H101.75V11.25H97.5833M94.25 8.33333V11.6667L95.9167 10M94.25 13.75H101.75V12.9167H94.25V13.75Z" fill="black"/>
<path d="M110.583 10.4167H114.75V9.58333H110.583M110.583 8.75H114.75V7.91667H110.583M107.25 6.25V7.08333H114.75V6.25M107.25 13.75H114.75V12.9167H107.25M107.25 10L108.917 11.6667V8.33333M110.583 12.0833H114.75V11.25H110.583V12.0833Z" fill="black"/>
<path d="M317 15C319.761 15 322 12.7614 322 10C322 7.23858 319.761 5 317 5C314.239 5 312 7.23858 312 10C312 12.7614 314.239 15 317 15Z" fill="#4163EB"/>
<path d="M313 15C315.761 15 318 12.7614 318 10C318 7.23858 315.761 5 313 5C310.239 5 308 7.23858 308 10C308 12.7614 310.239 15 313 15Z" fill="#FCC077"/>
<path d="M309 15C311.761 15 314 12.7614 314 10C314 7.23858 311.761 5 309 5C306.239 5 304 7.23858 304 10C304 12.7614 306.239 15 309 15Z" fill="#AE3DC9"/>
<path d="M305 15C307.761 15 310 12.7614 310 10C310 7.23858 307.761 5 305 5C302.239 5 300 7.23858 300 10C300 12.7614 302.239 15 305 15Z" fill="#FE8687"/>
</svg>
