<svg viewBox="0 0 718 718" xmlns="http://www.w3.org/2000/svg"><g fill-rule="evenodd"><path d="M360.535 611.334c142.402 0 246.149 19.702 246.149 34.74 0 15.039-115.44 35.4-257.842 35.4S91 661.113 91 646.074c0-15.038 127.133-34.74 269.535-34.74z" fill="#ECEEF0"/><path d="M411.896 558.117l9.301 67.232h.058l.17-.001.89-.002h2.25c4.639.007 13.45.059 22.498.323l1.552.047c12.168.388 24.356 1.174 27.03 2.76 1.201.71 1.368 3.397 1.368 3.397l-40.453-.78s45.59 5.474 47.796 7.199c1.681 1.317 1.892 4.805 1.892 4.805l-52.5-7.816 36.439 7.441-.05.006c.226.072 1.47.452 1.772 2.195.303 1.742-1.604 3.359-1.604 3.359l-52.622-13.72h-38.191a3.657 3.657 0 013.578-3.528l31.254-4.406-10.768-67.814 8.34-.697zm-109.46 0l8.34.697-8.34 69.248 29.787 3.346a3.657 3.657 0 013.579 3.53l-40.612 1.79-77.088 9.399s-.806-2.908-.498-3.835c.065-.191 2.525-1.253 5.38-1.57 1.903-.212 20.694-2.899 56.374-8.06l-65.143 2.275s.21-3.487 1.892-4.804c2.162-1.691 53.914-2.056 55.983-2.07h.064l-46.163-2.714s.167-2.687 1.368-3.396c2.73-1.62 17.887-.903 32.912.281l1.876.15c15.617 1.272 30.522 2.965 30.522 2.965l9.766-67.232z" fill="#E98404"/><path d="M355.786 79.167l.643-.023c3.42-.082 6.61.276 9.568 1.075l1.141.318 1.065.315c9.142 2.8 6.6 4.683.133 7.136 41.943 2.48 54.437 70.629 56.715 84.971a1.714 1.714 0 01-1.913 1.96l-4.795-.617.065.253.317 1.028.343 1.036.404 1.175c1.064 3.05 2.729 7.566 4.4 12.197l.418 1.159.209.58.385 1.078c2.113 5.917 4.04 11.577 4.535 14.147 1.071 5.555.263 7.555-1.355 7.783-1.078.153-3.734-3.414-7.968-10.699l6.458 21.436c5.34-2.9 28.857 5.85 48.986 27.018l1.16 1.241c2.26 2.46 4.438 5.06 6.603 7.677l1.082 1.31c15.505 18.773 30.982 37.355 72.098 10.017 6.587-4.38 7.038-11.946 7.058-18.406v-1.128l-.001-.736v-.723c.006-5.003.251-8.857 3.92-9.164 8.733-.73 23.543 21.383 23.543 21.383l2.276-1.262c8.171-4.457 35.621-18.76 37.067-10.58 1.7 9.615-9.86 18.434-9.86 18.434l.932-.022c4-.063 19.68.02 23.627 5.067 4.014 5.131-14.699 16.579-14.699 16.579l1.135.077c4.283.338 19.109 1.973 16.816 8.273-1.148 3.154-8.995 8.375-17.202 13.931l-1.028.697-.514.349-1.028.7-.512.35-1.022.702c-7.472 5.152-14.358 10.343-15.776 14.24-12.803 35.173-18.838 137.606-100.59 162.14a71.848 71.848 0 01-13.92 2.742c-10.465 50.197-60.215 99.43-142.325 99.43-127.861 0-154.988-101.005-146.504-149.224l8.679-32.89c-2.215 2.661-3.902 3.605-5.06 2.832-3.876-2.587 7.31-43.556 16.859-55.776l1.22-1.506c.769-.958 1.28-1.64 1.574-2.097l.19-.752c-1.27.083-12.338 9.799-15.923 7.69-2.668-1.57 12.822-42.302 28.016-83.931l1.446-3.967c4.934-13.558 9.775-27.082 13.885-39.253l-.01.002c2.906-8.605 5.448-16.533 7.4-23.32l3.492-14.27-4.86 4.69c-3.842 3.65-5.076.063-4.72-4.69l.143-1.461.27-2.45c.333-2.786.67-4.797 1.133-6.976l.086-.398c.942-4.337 2.402-9.544 5.301-22.818l1.652-7.622.81-3.67c5.687-25.378 14.553-56.428 38.694-65.408l2.347-.86 4.674-1.694c5.396-1.982 10.49-4.048 14.244-6.86 5.2-3.894 13.526-14.884 15.92-20.391l.207-.5c2.467-6.31 15.46 9.416 10.241 20.926z"/><path d="M475.54 252.493l1.16 1.241c1.695 1.845 3.344 3.769 4.976 5.72l1.085 1.303.542.654 1.082 1.31c15.505 18.773 30.982 37.355 72.098 10.017 7.233-4.81 7.068-13.46 7.057-20.27v-.723c.006-5.003.251-8.857 3.92-9.164 8.733-.73 23.543 21.383 23.543 21.383l2.276-1.262c8.171-4.457 35.621-18.76 37.067-10.58 1.7 9.615-9.86 18.434-9.86 18.434l.932-.022c4-.063 19.68.02 23.627 5.067 4.014 5.131-14.699 16.579-14.699 16.579l1.135.077c4.283.338 19.109 1.973 16.816 8.273-2.392 6.57-33.86 22.113-37.082 30.968-12.803 35.174-18.838 137.607-100.59 162.14a71.848 71.848 0 01-13.919 2.743c3.577-17.126 2.58-34.362-3.264-49.794l-63.998-211.686h-.05l-2.842-9.426c5.338-2.902 28.857 5.849 48.988 27.018z" fill-opacity=".2"/><path d="M572.313 418.599c-.923-18.502-13.862-29.677-28.9-24.963-15.038 4.715-26.483 23.537-25.56 42.038.923 18.501 13.861 29.678 28.9 24.962 15.038-4.715 26.482-23.535 25.56-42.037zM523.56 256.846c-17.738-10.72-36.199-5.71-41.234 11.19-5.035 16.897 5.262 39.287 23 50.006 17.738 10.72 36.2 5.711 41.235-11.189 5.034-16.897-5.263-39.287-23-50.007zm-183.488-4.028c3.023-6.007 8.344-11.883 10.844-11.386 2.499.498.65 5.09 0 7l-.865 2.56c-9.046 27.06-12.401 45.852-10.178 56.053l.199.839c1.919 7.466 6.546 8.686 17.358 4.081l1.204-.525c5.707-3.252 8.906-4.68 9.598-4.283.69.396-.21 3.142-2.704 8.237-9.674 29.476-13.697 49.828-12.14 60.737l.132.855c1.286 7.599 4.47 8.565 13.59 3.89l1.019-.531c4.467-3 7.03-4.363 7.687-4.09.658.275.544 2.66-.343 7.153-.624 13.009.837 21.676 4 25.702 2.216 2.82 6.834 5.535 13.016 2.458 2.164-1.077 5.976-2.279 7.385-.625 1.41 1.653-1.766 2.998-3.93 4.076-10.19 5.072-19.173 4.533-24.488-2.23-3.545-4.51-5.299-11.806-5.466-22.046l-.012-1.32-.324.104c-14.738 8.32-22.972-1.148-24.817-12.54-1.845-11.394 4.764-28.092 12.25-52.691l1.077-3.496-.353.083c-12.07 2.742-20.46-1.388-23.04-12.13l-.123-.534c-2.574-11.812-2.54-31.63 9.424-55.4z" fill-opacity=".1"/><path d="M403.25 148.033c-.401-5.512-5.93-18.556-18.791-16.995-12.861 1.56-16.996 11.519-16.594 17.032.401 5.514 10.494 15.773 17.255 14.476 6.762-1.297 18.533-9 18.13-14.513zm-115.706-.003c-.402 5.496 11.368 13.175 18.13 14.469 6.762 1.293 16.854-8.936 17.256-14.433.401-5.497-3.734-15.426-16.594-16.981-12.86-1.556-18.39 11.449-18.792 16.945z" fill="#FFF"/><path d="M307.822 146.028c-4.953.147-8.814 3.958-8.626 8.512.187 4.554 4.352 8.126 9.304 7.98 4.951-.147 8.813-3.957 8.625-8.512-.187-4.554-4.352-8.126-9.303-7.98zm75.15 0c-4.95-.146-9.116 3.426-9.303 7.98-.187 4.555 3.674 8.365 8.625 8.512 4.952.146 9.117-3.426 9.305-7.98.187-4.554-3.674-8.365-8.626-8.512z" fill="#350211"/><path d="M346.396 135.582c6.893 0 10.853 2.034 12.367 11.003 1.393 8.251 16.182 9.75 16.182 17.32 0 6.021-5.487-.676-13.588 10.673l-14.961 25.425c-6.94-12.171-12.591-20.646-16.952-25.425-6.542-7.168-13.67-6.686-13.881-10.673-.305-5.769 16.003-10.541 18.296-18.693 2.294-8.151 5.007-9.63 12.537-9.63z" fill="#F7A600"/><path d="M379.434 110.488c1.707.732 1.632 1.623-.224 2.674 3.84-.972 10.168-.653 10.262.48.04.482-.475 1.034-1.546 1.657 6.177 2.26 10.094 6.944 9.714 9.097-.412 2.337-5.74.881-12.955-.49l-1.951-.359c-7.96-1.403-14.11-4.497-14.034-7.005l.026-.232c-.01-.182.025-.4.104-.654.978-3.17 6.952-6.734 10.604-5.168zm-72.701.964c5.483-1.986 14.045.96 15.275 4.058.09.228.129.43.116.604l.012.059c.493 2.535-5.723 5.876-13.883 7.462-8.16 1.586-15.175.817-15.668-1.718-.479-2.465 5.383-5.691 13.208-7.326l.676-.136.92-.17c-3.155-.904-3.373-1.849-.656-2.833z" fill="#350211"/><path fill="#B4BDC3" d="M248.142 218.682l99.095 89.011 107.254-59.877 105.35 95.35-68.928 218.203-83.014-65.984-71.892 40.138-72.203-64.855-79.315 47.04-45.464-236.041z"/><path d="M459.389 485.77a3.237 3.237 0 014.48.94c2.33 3.57 5.039 5.775 8.211 6.697l.182.059a3.237 3.237 0 01-1.989 6.158c-4.77-1.387-8.698-4.586-11.825-9.375a3.237 3.237 0 01.94-4.48zm32.88 6.11a3.237 3.237 0 01-1.427 4.35c-2.23 1.127-4.372 2.024-6.431 2.69a3.237 3.237 0 11-1.995-6.158c1.729-.56 3.563-1.327 5.504-2.31a3.237 3.237 0 014.35 1.428zm-39.6-31.304a3.237 3.237 0 013.705 2.689c.735 4.625 1.627 8.74 2.691 12.35a3.237 3.237 0 11-6.209 1.83c-1.15-3.897-2.1-8.28-2.875-13.165a3.237 3.237 0 012.689-3.704zm-236.363-9.468a3.237 3.237 0 011.744 4.232l-.508 1.21-.725 1.69-.456 1.041-.664 1.48-.297.643a3.237 3.237 0 01-5.931-2.587l.76-1.68.43-.969.45-1.039.473-1.106.492-1.171a3.237 3.237 0 014.232-1.744zm101.585 4.457a3.237 3.237 0 014.527.682c2.647 3.586 5.36 5.356 8.256 5.507l.19.016a3.237 3.237 0 01-.529 6.449c-5.06-.265-9.422-3.11-13.126-8.128a3.237 3.237 0 01.682-4.526zm33.124-4.227a3.237 3.237 0 114.47 4.681c-3.748 3.58-7.403 6.399-11 8.427a3.237 3.237 0 11-3.18-5.638c3.088-1.742 6.325-4.238 9.71-7.47zm-130.996-20.863a3.237 3.237 0 016.212 1.82 215.181 215.181 0 01-3.818 11.735 3.237 3.237 0 01-6.098-2.174 208.736 208.736 0 003.704-11.381zm88.904.629a3.237 3.237 0 013.977 2.266c1.254 4.578 2.555 8.603 3.92 12.096a3.237 3.237 0 11-6.029 2.357c-1.455-3.722-2.824-7.959-4.134-12.742a3.237 3.237 0 012.266-3.977zm141.699 3.494a3.237 3.237 0 013.383 3.083c.215 4.62.493 8.898.845 12.896a3.237 3.237 0 11-6.448.569 317.138 317.138 0 01-.863-13.164 3.237 3.237 0 013.083-3.384zm-83.265-2.83a3.237 3.237 0 015.272 3.757c-2.758 3.87-5.431 7.388-8.045 10.57a3.237 3.237 0 01-5.002-4.11c2.514-3.06 5.099-6.461 7.775-10.217zm-139.063-27.372l.183.015a3.237 3.237 0 012.863 3.572c-.434 3.938-1.123 8.053-2.042 12.32a3.237 3.237 0 11-6.328-1.364c.874-4.06 1.527-7.958 1.935-11.665a3.237 3.237 0 013.572-2.863zm75.254 1.1a3.237 3.237 0 013.772 2.593l.214 1.144.424 2.239.211 1.095.422 2.143.21 1.05.422 2.056.42 2.001.212.981a3.237 3.237 0 01-6.327 1.37l-.215-.997-.428-2.035-.214-1.037-.427-2.116-.428-2.176-.43-2.237-.43-2.302a3.237 3.237 0 012.592-3.772zm77.97 4.638a3.237 3.237 0 015.516 3.387 538.445 538.445 0 01-4.97 7.95l-1.367 2.125-.676 1.042a3.237 3.237 0 01-5.425-3.531l1.337-2.068c.224-.35.45-.701.676-1.056l1.369-2.157.693-1.104 1.409-2.258c.474-.764.953-1.54 1.438-2.33zm-210.824-7.945a3.237 3.237 0 012.261 3.98c-.11.403-.217.799-.319 1.186l-.292 1.135a96.65 96.65 0 00-.135.547l-.251 1.053-.232 1.028-.224 1.079a3.237 3.237 0 01-6.362-1.194l.186-.916.202-.918.123-.54.268-1.125.297-1.182.325-1.235.173-.637a3.237 3.237 0 013.98-2.261zm279.426 6.26a3.237 3.237 0 013.266 3.207l.037 3.568.068 4.906.085 4.545a3.237 3.237 0 11-6.471.14l-.032-1.497-.042-2.297-.06-4.021-.058-5.284a3.237 3.237 0 013.207-3.267zm-273.788-27.231a3.237 3.237 0 115.533 3.36c-1.904 3.135-3.62 6.646-5.152 10.432a3.237 3.237 0 11-6.001-2.427c1.655-4.092 3.522-7.911 5.62-11.365zm48.96-.74a3.237 3.237 0 014.13 1.974c1.35 3.823 2.122 8.126 2.368 12.868a3.237 3.237 0 01-6.465.335c-.215-4.155-.878-7.853-2.007-11.048a3.237 3.237 0 011.975-4.13zm169.575 7.263a3.237 3.237 0 015.582 3.279l-1.973 3.356-4.668 7.907a3.237 3.237 0 01-5.566-3.306l.584-.983zm-95.65-8.057a3.237 3.237 0 013.715 2.674l.642 3.934 1.481 8.93a3.237 3.237 0 01-6.383 1.077l-.132-.781-1.997-12.118a3.237 3.237 0 012.674-3.716zm150.617 2.644a3.237 3.237 0 013.297 3.176l.044 2.606.045 3.326.067 7.156a3.237 3.237 0 01-6.473.05l-.029-3.452-.06-5.36-.067-4.205a3.237 3.237 0 013.176-3.297zm-253.504-18.05a3.237 3.237 0 111.62 6.268c-3.232.836-6.258 2.593-9.095 5.212a3.237 3.237 0 01-4.392-4.755c3.584-3.31 7.537-5.605 11.867-6.724zm9.737 2.562a3.237 3.237 0 013.99-2.245 36.166 36.166 0 014.843 1.751c2.698 1.19 5.08 2.737 7.141 4.621a3.237 3.237 0 11-4.368 4.779c-1.539-1.407-3.327-2.568-5.386-3.477a29.707 29.707 0 00-3.976-1.44 3.237 3.237 0 01-2.244-3.99zm202.263-1.566a3.237 3.237 0 115.489 3.431l-.771 1.239-1.187 1.923-1.231 2.015-1.724 2.851-1.835 3.067a3.237 3.237 0 11-5.561-3.313l.941-1.576 1.356-2.258 2.13-3.51 1.215-1.975zm-113.504-11.342a3.237 3.237 0 013.76 2.61l.283 1.572.573 3.254.592 3.44.781 4.64a3.237 3.237 0 11-6.385 1.064l-.472-2.817-.748-4.378-.431-2.47-.563-3.154a3.237 3.237 0 012.61-3.76zm208.53 18.545a3.237 3.237 0 014.32-1.513c3.832 1.843 7.942 3.061 12.24 3.728a3.237 3.237 0 01-.99 6.397c-4.904-.76-9.623-2.159-14.057-4.292a3.237 3.237 0 01-1.514-4.32zm39.336 4.06a3.237 3.237 0 01-2.342 3.933l-.365.088-.425.094-.484.1-.541.102-.597.104-.997.157-.731.104-.385.051c-.766.1-1.56.186-2.376.259a3.237 3.237 0 11-.572-6.449 53.18 53.18 0 002.118-.23l.885-.122a42.94 42.94 0 001.593-.265l.685-.134.465-.102.136-.032a3.237 3.237 0 013.933 2.342zm-94.613-20.264a3.237 3.237 0 013.597 2.832c.057.482.112.972.166 1.47l.156 1.52c.05.516.098 1.04.145 1.572l.134 1.625c.043.55.084 1.11.124 1.68l.115 1.734.105 1.793c.033.607.065 1.224.096 1.85a3.237 3.237 0 11-6.466.315l-.046-.907-.097-1.768-.052-.862-.11-1.681-.06-.819-.124-1.596-.135-1.54a152.13 152.13 0 00-.22-2.212l-.16-1.409a3.237 3.237 0 012.832-3.597zm37.214-4.207a3.237 3.237 0 014.389 1.301c2.174 4.007 4.725 7.42 7.619 10.283a3.237 3.237 0 01-4.553 4.602c-3.348-3.313-6.28-7.237-8.756-11.797a3.237 3.237 0 011.301-4.389zm-93.731-2.16a3.237 3.237 0 114.578 4.577c-5.299 5.3-11.267 6.353-16.77 2.027a3.237 3.237 0 114-5.09c2.643 2.078 5.02 1.659 8.192-1.514zm32.304-6.31a3.237 3.237 0 014.782 4.365c-1.822 1.996-3.782 4.44-5.904 7.353l-.92 1.278c-.31.435-.623.88-.94 1.334a3.237 3.237 0 01-5.31-3.701c3-4.306 5.736-7.827 8.292-10.628zm-134.715-15.04a3.237 3.237 0 013.954 2.305c.316 1.198.628 2.432.938 3.703l.463 1.936.461 1.993.23 1.019.457 2.083.455 2.145a3.237 3.237 0 01-6.336 1.325 175.05 175.05 0 00-.223-1.056l-.446-2.066a265.75 265.75 0 00-1.121-4.899l-.453-1.856a198.59 198.59 0 00-.685-2.679 3.237 3.237 0 012.306-3.954zm72.457 1.285a3.237 3.237 0 014.448 1.081 87.016 87.016 0 007.897 10.943 3.237 3.237 0 11-4.942 4.18 93.483 93.483 0 01-8.484-11.756 3.237 3.237 0 011.08-4.448zm74.885 5.455c2.44-.301 4.759.293 6.809 1.767 2.444 1.765 4.242 4.648 5.607 8.597a3.237 3.237 0 01-6.118 2.115c-.97-2.804-2.095-4.61-3.273-5.46-.723-.52-1.41-.696-2.231-.594l-.19.017a3.237 3.237 0 01-.604-6.442zm-32.254-8.654a3.237 3.237 0 116.045 2.316c-1.883 4.916-3.802 9.317-5.755 13.136a3.237 3.237 0 01-5.763-2.947c1.838-3.596 3.667-7.79 5.473-12.505zm74.3-1.238a3.237 3.237 0 013.625 2.794c.61 4.713 1.495 9.052 2.64 13.028a3.237 3.237 0 01-6.221 1.791c-1.238-4.298-2.187-8.957-2.839-13.988a3.237 3.237 0 012.794-3.625zm-263.1-10.01a3.237 3.237 0 014.563.364c3.092 3.627 6.085 6.23 8.904 7.724a3.237 3.237 0 11-3.03 5.72c-3.633-1.924-7.22-5.045-10.8-9.244a3.237 3.237 0 01.362-4.563zm31.064.168a3.237 3.237 0 015.153 3.918c-.52.684-1.045 1.391-1.576 2.123l-.35.475c-2.578 3.444-5.319 5.94-8.242 7.488a3.237 3.237 0 11-3.03-5.72c2.109-1.117 4.248-3.105 6.383-6.046l.557-.762c.37-.503.739-.995 1.105-1.476zm31.626-10.615a3.237 3.237 0 014.532.639c2.356 3.128 4.464 7.248 6.408 12.374a3.237 3.237 0 11-6.053 2.296c-1.744-4.6-3.586-8.2-5.526-10.776a3.237 3.237 0 01.639-4.533zm80.08 8.447l.078.307.082.3.17.587.07.232a56.134 56.134 0 001.499 4.248 3.237 3.237 0 01-6.02 2.38 62.568 62.568 0 01-1.672-4.742l-.212-.714-.113-.403-.162-.624c-.01-.041-.02-.08-.027-.116a3.237 3.237 0 116.308-1.455zm-156.177-20.389a3.237 3.237 0 014.36 1.396c2.08 4.043 4.178 7.774 6.28 11.146a3.237 3.237 0 01-5.494 3.425c-2.201-3.531-4.383-7.415-6.542-11.608a3.237 3.237 0 011.396-4.359zm66.737 5.411a3.237 3.237 0 11.64 6.442c-2.637.262-5.805 1.958-9.483 5.311a3.237 3.237 0 11-4.361-4.784c4.62-4.211 8.986-6.549 13.204-6.969zm143.912 1.88a3.237 3.237 0 016.245 1.706 351.542 351.542 0 01-3.988 13.555 3.237 3.237 0 01-6.17-1.957c1.364-4.3 2.67-8.76 3.913-13.305zm65.758-2.417a3.237 3.237 0 013.041 3.422c-.279 4.741-.37 9.247-.28 13.52a3.237 3.237 0 01-6.472.136 175.94 175.94 0 01.29-14.037 3.237 3.237 0 013.421-3.04zm-286.841-28.811a3.237 3.237 0 014.205 1.809 310.966 310.966 0 005.024 11.906 3.237 3.237 0 11-5.908 2.645 317.406 317.406 0 01-5.13-12.155 3.237 3.237 0 011.809-4.205zm229.76 9.04a3.237 3.237 0 012.502 3.832l-.491 2.245-.38 1.677-.577 2.469a3.237 3.237 0 11-6.3-1.493l.293-1.244.403-1.745.717-3.239a3.237 3.237 0 013.833-2.503zm59.259-.29l.189.022a3.237 3.237 0 012.737 3.669 263.602 263.602 0 00-.842 6.338 3.237 3.237 0 01-6.427-.775c.26-2.163.548-4.326.863-6.494a3.237 3.237 0 013.48-2.76zM189.114 252.57l.589 1.769.524 1.54.385 1.111.412 1.175.216.61a3.237 3.237 0 11-6.1 2.167l-.842-2.4-.559-1.63-.726-2.184a3.237 3.237 0 016.1-2.158z" fill-opacity=".5" fill="#FFF"/><path d="M248.142 218.682l99.095 89.011 107.254-59.877 105.35 95.35-68.928 218.203-83.014-65.984-71.892 40.138-72.203-64.855-79.315 47.04-45.464-236.041 109.117-62.985zm1.542 29.13l-88.63 45.636 36.91 191.633 65.023-31.373 75.643 56.01 74.98-40.023 67.834 57.183 55.62-176.082-87.3-76.994-105.151 59.696-94.93-85.686z" fill="#ECEEF0"/><path fill-opacity=".1" d="M248.142 218.682l15.662 251.986 72.422 65.105 11.011-228.08zm206.348 29.134l-46.017 248.019 82.44 65.534 68.928-218.203z"/><path d="M211.993 501.396a136.896 136.896 0 003.07 9.206c-6.02.64-12.023.602-18.132-.27l15.062-8.936zm-69.671-180.374c2.503 3.692 3.438 9.97 2.805 18.835a80.04 80.04 0 0115.232-4.516c1.3-.248 16.362-2.782 25.078 3.464 1.95 1.643 3.17 2.923 2.044 4.732-1.363 2.19-3.513 3.233-5.922 4.03l-.315.102-.667.207-2.392.701-.69.21-.303.097-.605.2c-3.014 1.032-5.898 2.561-7.748 6.126l.417-.08.823-.149.807-.139.99-.157.964-.139.756-.097.924-.104.9-.083.387-.03.76-.046c1.293-.066 2.608-.164 3.91-.251l.65-.043c6.158-.394 11.88-.397 13.238 4.516 1.128 4.08-6.77 10.16-23.693 18.244l.278.006 1.771.059.978.044c12.975.118 19.864 1.737 20.666 4.856.803 3.119-6.097 9.672-20.7 19.66-4.587 3.335-7.368 6.1-7.18 15.895l.01.47.032.916.021.468.053.954.068.978.104 1.258.126 1.297.117 1.065.064.542.068.549.184 1.397.206 1.437.181 1.177.196 1.202.21 1.226.223 1.252.239 1.276.252 1.301 12.974 70.678c-16.115-2.89-50.996-18.164-73.11-74.773-12.256-31.376-1.566-57.496 6.122-69.677l20.267-35.972c3.672-5.142 6.082-6.865 7.23-5.171z"/><path d="M211.993 501.396a136.896 136.896 0 003.07 9.206c-6.02.64-12.023.602-18.132-.27l15.062-8.936zm-69.671-180.374c2.503 3.692 3.438 9.97 2.805 18.835a80.04 80.04 0 0115.232-4.516c1.3-.248 16.362-2.782 25.078 3.464 1.95 1.643 3.17 2.923 2.044 4.732-1.363 2.19-3.513 3.233-5.922 4.03l-.315.102-.667.207-2.392.701-.69.21-.303.097-.605.2c-3.014 1.032-5.898 2.561-7.748 6.126l.417-.08.823-.149.807-.139.99-.157.964-.139.756-.097.924-.104.9-.083.387-.03.76-.046c1.293-.066 2.608-.164 3.91-.251l.65-.043c6.158-.394 11.88-.397 13.238 4.516 1.128 4.08-6.77 10.16-23.693 18.244l.278.006 1.771.059.978.044c12.975.118 19.864 1.737 20.666 4.856.803 3.119-6.097 9.672-20.7 19.66-4.587 3.335-7.368 6.1-7.18 15.895l.01.47.032.916.021.468.053.954.068.978.104 1.258.126 1.297.117 1.065.064.542.068.549.184 1.397.206 1.437.181 1.177.196 1.202.21 1.226.223 1.252.239 1.276.252 1.301 12.974 70.678c-16.115-2.89-50.996-18.164-73.11-74.773-12.256-31.376-1.566-57.496 6.122-69.677l20.267-35.972c3.672-5.142 6.082-6.865 7.23-5.171z" fill-opacity=".2"/></g></svg>