<svg width="295" height="320" viewBox="0 0 295 320" fill="none" xmlns="http://www.w3.org/2000/svg"><path fill-rule="evenodd" clip-rule="evenodd" d="M154.189 280C235.651 280 295 291.236 295 299.812S228.962 320 147.5 320 0 308.388 0 299.812C0 291.236 72.727 280 154.189 280z" fill="#EEE"/><path d="M126.339 256.363l-4.261 36.097 15.221 1.744c.991.022 1.793.828 1.828 1.84l-20.751.933-39.39 4.9s-.412-1.516-.254-1.999c.033-.1 1.29-.653 2.749-.819 1.458-.166 28.805-4.201 28.805-4.201L77 296.044s.108-1.818.967-2.505c1.127-.899 28.638-1.079 28.638-1.079l-23.588-1.414s.086-1.401.7-1.771c2.906-1.759 33.371 1.771 33.371 1.771l4.99-35.046 4.261.363zm47.408 0l5.502 35.35-15.969 2.296c-.992.022-1.794.828-1.829 1.84h19.515L207.854 303s.974-.843.819-1.751c-.153-.898-.776-1.102-.901-1.143l-.004-.001.025-.003-18.619-3.879L216 300.297s-.108-1.818-.967-2.504c-1.127-.9-24.422-3.753-24.422-3.753l20.67.407s-.085-1.401-.699-1.771c-2.907-1.76-27.821-1.63-27.821-1.63L178.008 256l-4.261.363z" fill="#E98404"/><path fill-rule="evenodd" clip-rule="evenodd" d="M135.475 126.61c1.534-4.004 4.235-7.922 5.503-7.59 1.268.331.33 3.393 0 4.666l-.439 1.707c-4.59 18.039-6.293 30.567-5.165 37.368l.101.56c.974 4.977 3.322 5.791 8.809 2.721l.611-.351s4.344-3.252 4.87-2.855c.526.396-1.372 5.492-1.372 5.492-4.909 19.65-6.95 33.218-6.161 40.491l.068.57c.652 5.066 2.268 5.71 6.896 2.594l.517-.355s3.401-3 3.901-2.726c.501.274-.174 4.768-.174 4.768-.317 8.673.425 14.451 2.03 17.135 1.125 1.88 3.468 3.69 6.605 1.638 1.098-.718 3.033-1.519 3.748-.416.715 1.102-.896 1.999-1.995 2.717-5.171 3.381-9.729 3.022-12.427-1.486-1.799-3.008-2.688-7.871-2.773-14.698l-.006-.88-.165.069c-7.479 5.547-11.658-.765-12.594-8.36-.936-7.595 2.418-18.728 6.217-35.127l.546-2.331-.179.056c-6.125 1.828-10.383-.925-11.692-8.087l-.062-.356c-1.307-7.875-1.289-21.087 4.782-36.934z" fill="#000" fill-opacity=".1"/><path fill-rule="evenodd" clip-rule="evenodd" d="M149.695 11.474l.329-.012c1.748-.043 3.379.141 4.891.551l.584.163.544.161c4.673 1.437 3.374 2.402.068 3.66 21.441 1.273 27.829 36.225 28.993 43.58a.879.879 0 01-.978 1.006l-2.451-.316.033.13.162.527.175.53.207.604c1.35 3.884 4.594 12.399 5.085 14.956.548 2.85.134 3.875-.692 3.992-.552.078-1.91-1.751-4.074-5.488L220.047 200.3c11.742 31.114-13.688 62.423-38.372 69.439-24.684 7.016-50.535 7.016-73.194 0-22.66-7.016-40.086-42.316-34.394-70.264l4.38-16.386c-1.105 1.313-1.948 1.774-2.53 1.384-2.005-1.342 3.87-22.827 8.786-28.814l.363-.446c.444-.552.734-.938.896-1.19l.097-.386c-.654.047-6.307 5.025-8.139 3.945-2.165-1.278 19.052-53.146 25.934-77.149l1.785-7.32-2.484 2.406c-1.965 1.872-2.595.033-2.413-2.405l.073-.75.138-1.256c.515-4.33 1.052-5.011 3.333-15.485l.844-3.91.415-1.882c2.907-13.015 7.439-28.94 19.78-33.546l1.2-.442 2.389-.868c2.758-1.017 5.363-2.076 7.282-3.518 2.658-1.998 6.914-7.635 8.138-10.46l.106-.255c1.261-3.236 7.904 4.829 5.235 10.733z" fill="#9E292B"/><path fill-rule="evenodd" clip-rule="evenodd" d="M114.668 43.346c.205-3.265 3.037-10.99 9.624-10.066 6.586.924 8.703 6.823 8.498 10.088-.206 3.265-5.374 9.341-8.837 8.573-3.463-.768-9.491-5.33-9.285-8.595zm56.862 0c-.206-3.265-3.038-10.99-9.624-10.066-6.586.924-8.704 6.823-8.498 10.088.205 3.265 5.374 9.341 8.837 8.573 3.463-.768 9.491-5.33 9.285-8.595z" fill="#fff"/><path fill-rule="evenodd" clip-rule="evenodd" d="M125.4 47.647c-2.536.09-4.669-2.09-4.765-4.87-.096-2.78 1.881-5.105 4.418-5.194 2.535-.09 4.668 2.09 4.764 4.87.096 2.78-1.881 5.105-4.417 5.194zm35.397 0c2.537.09 4.67-2.09 4.766-4.87.095-2.78-1.882-5.105-4.418-5.194-2.536-.09-4.669 2.09-4.765 4.87-.096 2.78 1.882 5.105 4.417 5.194z" fill="#9E292B"/><path fill-rule="evenodd" clip-rule="evenodd" d="M153.394 50.539c-.446 18.39-11.355 27.45-11.355 27.45s-10.892-14.787-10.892-28.581l22.247 1.13z" fill="#AF6303"/><path fill-rule="evenodd" clip-rule="evenodd" d="M152.769 51.41c.615 8.813-10.564 21.922-10.564 21.922s-7.701-11.012-8.216-16.545l18.78-5.376z" fill="#501D2C"/><path fill-rule="evenodd" clip-rule="evenodd" d="M142.852 38.064c3.53 0 5.558 1.053 6.334 5.698.713 4.273 3.671 2.04 4.208 5.916.186 1.338.068 4.048-4.208 10.263-4.525 6.577-9.221 9.806-9.221 9.806s-4.391-5.37-5.976-9.097c-2.206-5.185-2.744-8.907-2.852-10.972-.157-2.988 3.792-3.08 4.989-5.916.894-2.115 2.416-5.698 6.726-5.698z" fill="#F7A600"/><path fill-rule="evenodd" clip-rule="evenodd" d="M156.25 27.835c.212-1.705 2.908-4.06 4.888-3.59 1.054.25.581.918-.092 1.487 1.807-.91 5.282-1.373 5.436-.78.059.227-.204.555-.589.897 3.263.28 5.665 1.236 5.665 2.371 0 1.356-3.426 2.455-7.651 2.455-4.226 0-7.651-1.1-7.651-2.455 0-.03.001-.06.005-.09a.755.755 0 01-.011-.295zm-23.872.069c-.316-1.697-4.332-4.04-7.282-3.572-1.596.252-.842.934.187 1.507a24.835 24.835 0 00-.614-.008c-4.257 0-7.708 1.085-7.708 2.422 0 1.337 3.451 2.422 7.708 2.422 4.258 0 7.709-1.085 7.709-2.422a.827.827 0 00-.005-.086.558.558 0 00.005-.263z" fill="#9E292B"/><path fill-rule="evenodd" clip-rule="evenodd" d="M153 54c-.317 2.388-1.298 4.963-2.538 7.422l-.379.735c-.064.121-.129.243-.195.364l-.398.72-.407.709c-.137.234-.275.466-.414.695l-.419.681-.421.664-.421.645-.418.624-.413.603-.604.858-.579.797-.719.959-.488.633-.693.873-.845 1.018-.581-.839-.772-1.15-.688-1.057-.608-.96.436.528c3.093-2.089 6.129-5.26 9.11-9.514 1.797-2.565 2.851-4.515 3.454-6.008zm-27.67-15.997c2.484-.09 4.573 2.076 4.667 4.836.094 2.76-1.843 5.07-4.327 5.158-2.484.09-4.573-2.076-4.667-4.836-.094-2.76 1.843-5.07 4.327-5.158zM160.939 38l.25.002a4.965 4.965 0 014.807 5.159 5.033 5.033 0 01-5.185 4.836 4.965 4.965 0 01-4.807-5.158A5.034 5.034 0 01160.939 38zm-28.956-10.03a.865.865 0 01-.002.354l.002.029c0 1.462-3.354 2.647-7.491 2.647-4.138 0-7.492-1.185-7.492-2.647 0-1.067 1.786-1.986 4.359-2.405l.585-.085c.099-.013.2-.025.301-.036l.619-.058a20.73 20.73 0 011.294-.06l.334-.003c.157 0 .313.002.467.005l-.31-.19c-1.141-.736-1.055-1.22.257-1.455 2.868-.511 6.771 2.05 7.077 3.905zm29.135-3.904c.967.237 1.011.734.13 1.493.6-.282 1.337-.518 2.074-.692l.49-.107.48-.086c1.259-.204 2.321-.186 2.407.153.065.26-.155.614-.661 1.06 3.464.646 5.962 2.842 5.962 4.064 0 .623-.652.89-1.751.993l-.433.031a8.207 8.207 0 01-.231.01l-.491.013-.527.002-.854-.01-1.9-.041-1.032-.016-.712-.004c-.961 0-1.883-.054-2.738-.155l-.628-.083c-2.663-.398-4.542-1.255-4.677-2.257l-.008-.127a1.116 1.116 0 01-.006-.37c.221-1.839 3.037-4.378 5.106-3.871z" fill="#1B1B1B"/><path fill-rule="evenodd" clip-rule="evenodd" d="M227.423 97.781c19.026 2 32.85 19.417 30.811 38.82l-5.636 48.18c-2.039 19.403-19.182 33.566-38.208 31.566l-12.55-1.319-3.699 35.193a3.218 3.218 0 01-2.249 2.753 3.183 3.183 0 01-1.226.11 3.129 3.129 0 01-2.123-1.17l-32.786-41.319-85.238-8.089c-19.026-2-32.85-19.417-30.81-38.82l5.634-48.171c2.039-19.403 19.182-33.566 38.208-31.566L227.423 97.78z" fill="#E0E0E0"/><path fill-rule="evenodd" clip-rule="evenodd" d="M174.274 126.273c.987-13.009-8.577-24.456-21.549-25.65-13.104-1.207-24.698 8.505-25.911 21.677l-.897 9.735-5.389-.497a5.627 5.627 0 00-6.109 5.078l-2.108 22.893c-1.761 19.129 12.37 36.127 31.498 37.893 19.134 1.763 36.133-12.374 37.895-31.503l2.109-22.892a5.626 5.626 0 00-5.078-6.108l-5.391-.497.897-9.735.033-.394zm-8.715 9.412l.896-9.735c.819-8.884-5.657-16.732-14.447-17.542-8.703-.801-16.435 5.594-17.382 14.343l-.027.266-.897 9.734 31.857 2.934zm-17.356 14.045c-4.317-.398-8.155 2.792-8.552 7.109a7.879 7.879 0 002.731 6.703l-1.297 11.522a4.534 4.534 0 004.095 4.925 4.534 4.534 0 004.925-4.094l1.297-11.517a7.886 7.886 0 003.91-6.091c.397-4.317-2.792-8.16-7.109-8.557z" fill="#3A424B"/><path d="M261.302 114.945c-.567-5.323-.136-9.122 1.293-11.397.655-1.044 2.142-.057 4.46 2.961l12.956 21.227c4.883 7.17 12.54 23.51 5.149 41.813-3.322 8.228-6.756 14.203-10.19 18.586-9.326 14.318-26.448 33.401-53.97 39.865l1.666-11.791c12.437-1.739 23.077-10.286 27.688-22.143l.839-32.05.003-.282v-.552l-.004-.283c-.078-4.943-2.092-6.146-4.408-7.53-.449-.268-.91-.543-1.369-.853 0 0-13.5-8.558-12.874-11.4.626-2.841 12.338-3.357 12.338-3.357l.588-.047 1.065-.073.167-.009s-15.535-6.765-14.646-10.484c.775-3.239 4.763-3.104 8.825-2.966.602.021 1.205.041 1.8.051l.458.012.234.01.544.031.558.042.457.043.584.063.598.074.49.067.498.073.253.038c-1.189-2.106-2.957-2.966-4.793-3.524l-.368-.108-.185-.051-.419-.112-1.455-.372-.406-.111-.192-.055c-1.467-.429-2.783-1.012-3.649-2.301-.716-1.065-.008-1.861 1.131-2.892 5.115-3.942 14.234-2.733 15.023-2.612a48.23 48.23 0 019.263 2.399z" fill="#9E292B"/><path opacity=".2" d="M261.302 114.945c-.567-5.323-.136-9.122 1.293-11.397.655-1.044 2.142-.057 4.46 2.961l12.956 21.227c4.883 7.17 12.54 23.51 5.149 41.813-3.322 8.228-6.756 14.203-10.19 18.586-9.326 14.318-26.448 33.401-53.97 39.865l1.666-11.791c12.437-1.739 23.077-10.286 27.688-22.143l.839-32.05.003-.282v-.552l-.004-.283c-.078-4.943-2.092-6.146-4.408-7.53-.449-.268-.91-.543-1.369-.853 0 0-13.5-8.558-12.874-11.4.626-2.841 12.338-3.357 12.338-3.357l.588-.047 1.065-.073.167-.009s-15.535-6.765-14.646-10.484c.775-3.239 4.763-3.104 8.825-2.966.602.021 1.205.041 1.8.051l.458.012.234.01.544.031.558.042.457.043.584.063.598.074.49.067.498.073.253.038c-1.189-2.106-2.957-2.966-4.793-3.524l-.368-.108-.185-.051-.419-.112-1.455-.372-.406-.111-.192-.055c-1.467-.429-2.783-1.012-3.649-2.301-.716-1.065-.008-1.861 1.131-2.892 5.115-3.942 14.234-2.733 15.023-2.612a48.23 48.23 0 019.263 2.399z" fill="#1B1B1B"/><path d="M52.615 100.677c1.578-5.445 1.828-9.484.751-12.12-.494-1.208-2.233-.452-5.219 2.267l-17.49 19.749c-4.514 4.61-11.32 16.236-13.175 30.46a67.41 67.41 0 00-.093-.139s-.018.385-.025 1.103c-.659 5.797-.481 12.002 1.01 18.324 1.51 6.404 3.584 12.136 6.024 17.236 7.045 16.91 21.087 34.711 49.01 41.443l.796-16.514a.208.208 0 00-.046-.013c-.662-.201-8.35-2.644-17.369-10.315a43.118 43.118 0 01-5.961-7.064c-6.318-9.371-2.68-28.571-2.68-28.571 1.186-6.134 10.85-12.284 14.17-13.756 0 0 15.72-6.441 15.588-9.518-.13-3.078-12.303-5.768-12.303-5.768l-.606-.157-1.103-.272-.173-.04s17.521-4.197 17.277-8.238c-.214-3.519-4.416-4.111-8.696-4.714-.634-.089-1.27-.179-1.894-.278l-.483-.072-.246-.033-.576-.067-.592-.058-.487-.04-.623-.041-.64-.033-.525-.021-.536-.015-.272-.006c1.634-1.978 3.645-2.55 5.671-2.794l.406-.045.202-.019.46-.04 1.593-.12.446-.041.211-.022c1.616-.177 3.102-.543 4.247-1.728.947-.979.352-1.939-.65-3.223-4.63-5.05-14.405-5.466-15.253-5.485a51.525 51.525 0 00-10.146.798z" fill="#9E292B"/><path opacity=".2" d="M52.615 100.677c1.578-5.445 1.828-9.484.751-12.12-.494-1.208-2.233-.452-5.219 2.267l-17.49 19.749c-4.514 4.61-11.32 16.236-13.175 30.46a67.41 67.41 0 00-.093-.139s-.018.385-.025 1.103c-.659 5.797-.481 12.002 1.01 18.324 1.51 6.404 3.584 12.136 6.024 17.236 7.045 16.91 21.087 34.711 49.01 41.443l.796-16.514a.208.208 0 00-.046-.013c-.662-.201-8.35-2.644-17.369-10.315a43.118 43.118 0 01-5.961-7.064c-6.318-9.371-2.68-28.571-2.68-28.571 1.186-6.134 10.85-12.284 14.17-13.756 0 0 15.72-6.441 15.588-9.518-.13-3.078-12.303-5.768-12.303-5.768l-.606-.157-1.103-.272-.173-.04s17.521-4.197 17.277-8.238c-.214-3.519-4.416-4.111-8.696-4.714-.634-.089-1.27-.179-1.894-.278l-.483-.072-.246-.033-.576-.067-.592-.058-.487-.04-.623-.041-.64-.033-.525-.021-.536-.015-.272-.006c1.634-1.978 3.645-2.55 5.671-2.794l.406-.045.202-.019.46-.04 1.593-.12.446-.041.211-.022c1.616-.177 3.102-.543 4.247-1.728.947-.979.352-1.939-.65-3.223-4.63-5.05-14.405-5.466-15.253-5.485a51.525 51.525 0 00-10.146.798z" fill="#1B1B1B"/></svg>