<svg width="328" height="185" viewBox="0 0 328 185" fill="none" xmlns="http://www.w3.org/2000/svg">
<g clip-path="url(#clip0_1493_27159)">
<rect width="328" height="185" fill="white"/>
<path opacity="0.4" fill-rule="evenodd" clip-rule="evenodd" d="M263.681 179.221C258.541 145.946 28.5926 87.5617 -12.9395 120.311C-54.4716 153.06 -12.1614 211.329 77.037 224.171C166.235 237.012 268.821 212.496 263.681 179.221Z" fill="#ECEEF0"/>
<path fill-rule="evenodd" clip-rule="evenodd" d="M59.5635 141.635V155.065C59.5635 157.791 61.7939 160.023 64.5217 160.023H253.952C256.676 160.023 258.907 157.791 258.907 155.065V141.635H59.5635Z" fill="#E3E7E9"/>
<mask id="mask0_1493_27159" style="mask-type:luminance" maskUnits="userSpaceOnUse" x="59" y="22" width="200" height="120">
<path fill-rule="evenodd" clip-rule="evenodd" d="M59.5635 22.6335H258.907V141.634H59.5635V22.6335Z" fill="white"/>
</mask>
<g mask="url(#mask0_1493_27159)">
<path fill-rule="evenodd" clip-rule="evenodd" d="M258.907 27.5914C258.907 24.8645 256.676 22.6335 253.952 22.6335H64.5217C61.7939 22.6335 59.5635 24.8645 59.5635 27.5914V141.634H258.907V27.5914Z" fill="#B4BDC3"/>
</g>
<path fill-rule="evenodd" clip-rule="evenodd" d="M66.5869 135.023H251.885V29.2445H66.5869V135.023Z" fill="white"/>
<path fill-rule="evenodd" clip-rule="evenodd" d="M162.783 151.414C162.783 153.372 161.195 154.96 159.237 154.96C157.276 154.96 155.69 153.372 155.69 151.414C155.69 149.455 157.276 147.867 159.237 147.867C161.195 147.867 162.783 149.455 162.783 151.414Z" fill="#617480"/>
<path fill-rule="evenodd" clip-rule="evenodd" d="M142.599 159.93H176.066L178.645 186.056H140.021L142.599 159.93Z" fill="#B4BDC3"/>
<rect opacity="0.66" x="66.543" y="28.9932" width="41.2194" height="14.2868" fill="#1A9BE5"/>
<rect x="66.543" y="43.1906" width="41.2194" height="92.0224" fill="#ECEEF0"/>
<rect x="83.9375" y="114.811" width="17.8697" height="3.16507" rx="1.58254" fill="#B4BDC3"/>
<rect opacity="0.195731" width="41.2194" height="0.258499" transform="matrix(1 0 0 -1 66.543 63.6274)" fill="#B4BDC3"/>
<rect opacity="0.195731" width="41.2194" height="0.258499" transform="matrix(1 0 0 -1 66.543 105.944)" fill="#B4BDC3"/>
<rect opacity="0.195731" width="41.2194" height="0.258499" transform="matrix(1 0 0 -1 66.543 84.7859)" fill="#B4BDC3"/>
<ellipse cx="76.2028" cy="52.9183" rx="3.9811" ry="3.9874" fill="#B4BDC3"/>
<ellipse cx="76.2028" cy="95.2361" rx="3.9811" ry="3.9874" fill="#B4BDC3"/>
<ellipse cx="76.2028" cy="74.0776" rx="3.9811" ry="3.9874" fill="#B4BDC3"/>
<ellipse cx="76.2028" cy="116.394" rx="3.9811" ry="3.9874" fill="#B4BDC3"/>
<rect x="83.9375" y="51.3368" width="17.8697" height="3.16507" rx="1.58254" fill="#B4BDC3"/>
<rect x="83.9375" y="93.6534" width="17.8697" height="3.16507" rx="1.58254" fill="#B4BDC3"/>
<rect x="83.9375" y="72.4952" width="17.8697" height="3.16507" rx="1.58254" fill="#B4BDC3"/>
<path fill-rule="evenodd" clip-rule="evenodd" d="M82.1964 31.2638L82.2698 31.2699C82.3917 31.2806 82.5143 31.2892 82.6347 31.3099C82.794 31.337 82.9523 31.3695 83.108 31.4098C83.3998 31.4859 83.6742 31.5997 83.9358 31.7421C84.1653 31.8671 84.3763 32.0145 84.5712 32.1804C84.7112 32.2993 84.8367 32.4303 84.956 32.5677C85.1274 32.7651 85.275 32.9764 85.4001 33.2001C85.471 33.3276 85.5383 33.4578 85.5925 33.5917C85.6737 33.793 85.7525 33.9961 85.812 34.2031C85.8696 34.4038 85.9065 34.6093 85.9491 34.8135C87.1947 35.1268 88.1234 36.239 88.161 37.5746L88.1622 37.5788V37.8972L88.1557 37.9076L88.1547 37.9103L88.1543 37.9129C88.1511 38.0585 88.1251 38.2013 88.0948 38.3441C88.0446 38.5814 87.9626 38.8084 87.8475 39.0258C87.7905 39.134 87.7264 39.2396 87.659 39.3427C87.55 39.5094 87.4202 39.6622 87.2752 39.8035C87.1337 39.9409 86.9816 40.068 86.8144 40.1801C86.5507 40.3568 86.2667 40.4977 85.9588 40.5984C85.7586 40.6637 85.5547 40.7155 85.343 40.7376L85.1663 40.7571C85.0779 40.7667 84.9895 40.7747 84.9012 40.7747C81.38 40.7794 77.8592 40.7819 74.3384 40.784C74.1032 40.784 73.8677 40.7858 73.6321 40.7836C73.5024 40.7822 73.3731 40.7783 73.2444 40.7676C73.0862 40.7544 72.9287 40.7365 72.7722 40.7133C72.5449 40.6805 72.3286 40.6134 72.1219 40.522C71.9448 40.4435 71.7819 40.345 71.6344 40.2251C71.4765 40.0969 71.3336 39.957 71.211 39.8C71.0806 39.6326 70.9744 39.4534 70.896 39.2617C70.8287 39.0975 70.7806 38.9287 70.7638 38.7535C70.7603 38.7185 70.7528 38.6846 70.7471 38.65V38.3551C70.7499 38.3484 70.7546 38.3423 70.7549 38.3355L70.771 38.1936C70.774 38.17 70.7777 38.1465 70.7827 38.1232C70.8265 37.919 70.8985 37.7234 71.0065 37.5389C71.1533 37.288 71.3472 37.0749 71.5902 36.8968C71.8087 36.7372 72.052 36.6202 72.3136 36.5352C72.4797 36.4813 72.6504 36.4406 72.826 36.4228L73.0406 36.3997C73.1122 36.3925 73.1838 36.3869 73.2555 36.386C73.4269 36.3839 73.5983 36.3967 73.769 36.4081C73.8702 36.4149 73.9707 36.431 74.0704 36.4456C74.1724 36.4606 74.2736 36.4795 74.3744 36.4967L74.38 36.3866L74.3869 36.2768C74.3915 36.2143 74.3929 36.1512 74.4054 36.0898C74.4264 35.9795 74.4503 35.8685 74.4813 35.7596C74.5444 35.538 74.6413 35.3278 74.7753 35.1339C74.9057 34.9455 75.0604 34.7756 75.2525 34.6339C75.3708 34.5468 75.493 34.4647 75.6302 34.4062C75.7603 34.3505 75.8939 34.2973 76.0318 34.2627C76.1794 34.2256 76.3337 34.201 76.4862 34.1906C76.6269 34.181 76.7702 34.1952 76.912 34.2038C77.0859 34.2138 77.2545 34.2527 77.4188 34.3041C77.556 34.3469 77.6903 34.398 77.8286 34.4462L77.8355 34.4332C77.8367 34.4303 77.8377 34.4272 77.8382 34.424C77.8585 34.3273 77.8763 34.2295 77.8981 34.1331C77.9572 33.8744 78.0556 33.6277 78.1789 33.3893C78.2729 33.208 78.3848 33.036 78.5106 32.8714C78.6336 32.7108 78.7697 32.5602 78.9208 32.4221C79.0298 32.3225 79.1449 32.2279 79.265 32.1394C79.3912 32.0462 79.522 31.957 79.6585 31.8763C79.8648 31.755 80.0804 31.6458 80.3109 31.5662C80.5112 31.4976 80.7147 31.4341 80.9207 31.3799C81.1056 31.331 81.2959 31.2978 81.4891 31.2849C81.6512 31.2742 81.8133 31.2603 81.9755 31.2553C82.0487 31.2531 82.1227 31.2578 82.1964 31.2638Z" fill="white"/>
<path fill-rule="evenodd" clip-rule="evenodd" d="M85.8763 37.6445C85.567 37.7762 85.2599 37.9072 84.9502 38.0389C84.8989 37.9968 84.8468 37.955 84.7955 37.9129C84.6765 37.8154 84.5575 37.718 84.4385 37.6209C84.4117 37.5988 84.3836 37.5777 84.359 37.5538C84.3511 37.5463 84.3483 37.5278 84.3526 37.5171C84.4281 37.3225 84.5047 37.1284 84.5806 36.9342C84.6163 36.8439 84.6505 36.7532 84.6854 36.6615C84.7613 36.6737 84.8379 36.6758 84.9021 36.633C84.9509 36.6001 84.9929 36.558 85.0364 36.518C85.0671 36.4891 85.0934 36.4559 85.1234 36.426C85.2121 36.3371 85.3023 36.2493 85.391 36.1608C85.4861 36.0651 85.5806 35.9694 85.6757 35.8734C85.7712 35.7771 85.8671 35.6807 85.9626 35.5843C86.0577 35.4883 86.1522 35.3927 86.2473 35.297C86.2701 35.2735 86.2929 35.2492 86.3175 35.2271C86.3246 35.2206 86.341 35.2153 86.3482 35.2185C86.3913 35.2378 86.433 35.2592 86.4797 35.2827C86.4458 35.3188 86.4159 35.3523 86.3842 35.3841C86.3229 35.4455 86.2605 35.5058 86.1996 35.5668C86.0791 35.6875 85.9594 35.8081 85.8396 35.9291C85.7716 35.9984 85.7039 36.0672 85.6355 36.1358C85.5132 36.2593 85.3892 36.3817 85.2688 36.5066C85.2167 36.5602 85.1611 36.6108 85.1291 36.6794C85.0874 36.7682 85.0731 36.8575 85.0927 36.9535C85.1123 37.0509 85.1526 37.1359 85.2338 37.2023C85.3108 37.2647 85.4013 37.2979 85.504 37.3054C85.5845 37.3108 85.6608 37.3011 85.7363 37.2736C85.8279 37.2404 85.8917 37.1787 85.9565 37.1166C85.9879 37.0866 86.016 37.0534 86.0467 37.0224C86.1358 36.9338 86.2252 36.846 86.3143 36.7572C86.4105 36.6612 86.506 36.5644 86.6015 36.4677C86.6728 36.3956 86.7448 36.3235 86.8164 36.2514C86.9101 36.1565 87.0042 36.0615 87.0979 35.9666C87.1357 35.928 87.1728 35.8888 87.2134 35.8467C87.2476 35.8841 87.2793 35.9184 87.3093 35.9537C87.3125 35.9577 87.3114 35.9691 87.3078 35.973C87.2736 36.0105 87.2387 36.0469 87.2031 36.083C87.0815 36.2057 86.9597 36.3282 86.8382 36.4506C86.7544 36.5355 86.6714 36.6212 86.588 36.7061C86.4789 36.8175 86.3695 36.9281 86.2605 37.0399C86.1771 37.1248 86.0934 37.2097 86.0107 37.2951C85.9758 37.3307 85.9394 37.365 85.9091 37.4028C85.8514 37.4757 85.8478 37.557 85.8763 37.6445Z" fill="white"/>
<g opacity="0.66">
<circle cx="196.435" cy="94.4342" r="26.483" transform="rotate(180 196.435 94.4342)" fill="#1A9BE5"/>
<g clip-path="url(#clip1_1493_27159)">
<path d="M191.138 100.381L191.138 87.7337L207.533 87.7337L207.533 100.381L191.138 100.381ZM189.499 103.542L209.172 103.542C209.607 103.542 210.024 103.376 210.331 103.079C210.639 102.783 210.812 102.381 210.812 101.962L210.812 86.1529C210.812 85.7336 210.639 85.3315 210.331 85.035C210.024 84.7385 209.607 84.572 209.172 84.572L189.499 84.572C189.064 84.572 188.647 84.7385 188.34 85.035C188.032 85.3315 187.86 85.7336 187.86 86.1529L187.86 91.6859L181.302 85.3624L181.302 102.752L187.86 96.4285L187.86 101.962C187.86 102.381 188.032 102.783 188.34 103.079C188.647 103.376 189.064 103.542 189.499 103.542Z" fill="white"/>
</g>
</g>
<g opacity="0.9">
<path fill-rule="evenodd" clip-rule="evenodd" d="M300.864 176.542C323.701 176.542 340.34 179.894 340.34 182.452C340.34 185.01 321.826 188.474 298.988 188.474C276.15 188.474 257.637 185.01 257.637 182.452C257.637 179.894 278.026 176.542 300.864 176.542Z" fill="#ECEEF0"/>
<path fill-rule="evenodd" clip-rule="evenodd" d="M286.462 114.188C283.817 111.45 269.912 124.216 264.18 107.475C263.279 104.841 265.133 103.608 263.764 102.984C262.395 102.359 260.746 105.447 260.746 105.447L260.462 104.666C259.77 102.818 258.011 98.4113 257.342 99.5557C256.501 100.994 256.812 104.539 256.812 104.539L256.643 104.271C256.05 103.351 254.054 100.405 253.145 100.966C252.194 101.553 252.989 106.86 252.989 106.86L252.879 106.715C252.474 106.196 251.055 104.483 250.322 105.005C249.462 105.617 238.078 155.407 281.461 157.785L286.462 114.188Z" fill="#0290E2"/>
<path fill-rule="evenodd" clip-rule="evenodd" d="M286.462 114.188C283.817 111.45 269.912 124.216 264.18 107.475C263.279 104.841 265.133 103.608 263.764 102.984C262.395 102.359 260.746 105.447 260.746 105.447L260.462 104.666C259.77 102.818 258.011 98.4113 257.342 99.5557C256.501 100.994 256.812 104.539 256.812 104.539L256.643 104.271C256.05 103.351 254.054 100.405 253.145 100.966C252.194 101.553 252.989 106.86 252.989 106.86L252.879 106.715C252.474 106.196 251.055 104.483 250.322 105.005C249.462 105.617 238.078 155.407 281.461 157.785L286.462 114.188Z" fill="black" fill-opacity="0.2"/>
<path fill-rule="evenodd" clip-rule="evenodd" d="M294.363 169.199L292.928 180.979L298.053 181.548C298.387 181.555 298.657 181.818 298.669 182.148L291.681 182.453L278.418 184.052C278.418 184.052 278.279 183.557 278.332 183.399C278.343 183.367 278.767 183.186 279.258 183.132C279.749 183.078 288.957 181.761 288.957 181.761L277.749 182.148C277.749 182.148 277.785 181.555 278.075 181.331C278.454 181.037 287.718 180.979 287.718 180.979L279.775 180.517C279.775 180.517 279.804 180.06 280.011 179.939C280.989 179.365 291.247 180.517 291.247 180.517L292.928 169.08L294.363 169.199ZM310.326 169.199L312.179 180.735L306.801 181.484C306.467 181.491 306.197 181.754 306.186 182.084H312.757L321.81 184.418C321.81 184.418 322.138 184.143 322.086 183.847C322.035 183.554 321.825 183.487 321.783 183.474L321.781 183.473L321.79 183.473L315.521 182.207L324.553 183.536C324.553 183.536 324.517 182.943 324.228 182.719C323.848 182.425 316.004 181.494 316.004 181.494L322.964 181.627C322.964 181.627 322.936 181.17 322.729 181.049C321.75 180.475 313.361 180.517 313.361 180.517L311.761 169.08L310.326 169.199Z" fill="#E98404"/>
<path fill-rule="evenodd" clip-rule="evenodd" d="M281.669 124.784C282.997 121.21 284.431 117.347 285.532 114.097H314.781L325.792 150.108C329.662 160.213 319.882 171.234 311.333 174.01C308.146 175.348 304.58 176.096 300.817 176.096C295.919 176.096 291.357 174.829 287.527 172.645C283.101 171.113 279.961 167.243 278.162 162.763C276.948 160.195 276.278 157.377 276.278 154.42C276.278 153.635 276.326 152.86 276.418 152.097C276.465 151.414 276.545 150.749 276.659 150.108L278.153 144.513C277.771 144.965 277.481 145.126 277.282 144.994C276.615 144.554 278.54 137.585 280.183 135.506L280.393 135.25C280.525 135.087 280.613 134.971 280.663 134.893L280.696 134.765C280.631 134.77 280.42 134.916 280.139 135.112L280.139 135.112C279.466 135.579 278.391 136.326 277.956 136.074C277.562 135.844 279.469 130.711 281.669 124.784L281.669 124.784L281.669 124.784Z" fill="#0290E2"/>
<path fill-rule="evenodd" clip-rule="evenodd" d="M297.339 125.74C297.859 124.403 298.774 123.094 299.204 123.205C299.634 123.316 299.316 124.338 299.204 124.763L299.056 125.333C297.499 131.357 296.922 135.541 297.304 137.812L297.339 137.999C297.669 139.661 298.465 139.933 300.325 138.908L300.532 138.791C300.532 138.791 302.005 137.705 302.184 137.837C302.362 137.969 301.718 139.671 301.718 139.671C300.054 146.233 299.362 150.764 299.63 153.193L299.653 153.383C299.874 155.075 300.422 155.29 301.991 154.249L302.166 154.131C302.166 154.131 303.319 153.129 303.489 153.22C303.658 153.312 303.43 154.813 303.43 154.813C303.322 157.709 303.574 159.638 304.118 160.535C304.499 161.162 305.294 161.767 306.357 161.082C306.73 160.842 307.385 160.575 307.628 160.943C307.87 161.311 307.324 161.61 306.952 161.85C305.198 162.979 303.653 162.859 302.738 161.354C302.128 160.349 301.827 158.725 301.798 156.446L301.796 156.152L301.74 156.175C299.204 158.027 297.788 155.919 297.47 153.383C297.153 150.847 298.29 147.129 299.578 141.653L299.763 140.874L299.703 140.893C297.626 141.503 296.182 140.584 295.738 138.192L295.717 138.073C295.274 135.444 295.28 131.032 297.339 125.74Z" fill="black" fill-opacity="0.1"/>
<path fill-rule="evenodd" clip-rule="evenodd" d="M314.882 114.449H285.412C285.912 112.985 286.35 111.636 286.686 110.481L287.286 108.053L286.45 108.851C285.789 109.472 285.577 108.862 285.638 108.053L285.663 107.804L285.709 107.388C285.811 106.541 285.916 106.114 286.142 105.195C286.3 104.555 286.516 103.676 286.831 102.251L287.115 100.954L287.255 100.33C288.233 96.0119 289.759 90.7291 293.913 89.2012L294.317 89.0548L295.121 88.7667C296.05 88.4295 296.927 88.078 297.572 87.5997C298.467 86.937 299.9 85.0671 300.312 84.1301L300.348 84.0451C300.772 82.9717 303.008 85.6471 302.11 87.6055L302.221 87.6016C302.809 87.5876 303.358 87.6485 303.867 87.7845L304.063 87.8385L304.247 87.8921C305.82 88.3686 305.382 88.6889 304.269 89.1062C311.487 89.5283 313.637 101.123 314.029 103.563C314.054 103.722 313.943 103.871 313.782 103.896C313.755 103.9 313.727 103.9 313.7 103.897L312.875 103.792L312.886 103.835L312.941 104.01L312.999 104.186L313.069 104.386C313.19 104.729 313.356 105.18 313.538 105.675C314.039 107.038 314.659 108.725 314.781 109.347C314.965 110.292 314.826 110.633 314.548 110.671C314.362 110.697 313.905 110.091 313.176 108.851L314.882 114.449Z" fill="#0290E2"/>
<rect width="20.1133" height="18.2955" transform="translate(290.019 91.8655)" fill="#0290E2"/>
<path fill-rule="evenodd" clip-rule="evenodd" d="M290.366 98.1596C290.435 97.0872 291.386 94.5496 293.599 94.8531C295.812 95.1567 296.523 97.0942 296.454 98.1668C296.385 99.2394 294.649 101.235 293.485 100.983C292.322 100.731 290.297 99.2322 290.366 98.1596ZM309.469 98.1596C309.4 97.0872 308.449 94.5496 306.236 94.8531C304.023 95.1567 303.312 97.0942 303.381 98.1668C303.45 99.2394 305.186 101.235 306.35 100.983C307.513 100.731 309.538 99.2322 309.469 98.1596Z" fill="white"/>
<path fill-rule="evenodd" clip-rule="evenodd" d="M305.864 99.5726C306.716 99.602 307.432 98.8858 307.465 97.9729C307.497 97.0599 306.833 96.296 305.981 96.2666C305.129 96.2372 304.412 96.9534 304.38 97.8664C304.348 98.7793 305.012 99.5432 305.864 99.5726ZM293.972 99.5726C293.12 99.602 292.403 98.8858 292.371 97.9729C292.339 97.0599 293.003 96.296 293.855 96.2666C294.707 96.2372 295.424 96.9534 295.456 97.8664C295.488 98.7793 294.824 99.5432 293.972 99.5726Z" fill="#0290E2"/>
<path fill-rule="evenodd" clip-rule="evenodd" d="M303.376 100.523C303.227 106.563 299.561 109.539 299.561 109.539C299.561 109.539 295.902 104.683 295.902 100.151L303.376 100.523Z" fill="#AF6303"/>
<path fill-rule="evenodd" clip-rule="evenodd" d="M303.167 100.809C303.373 103.704 299.618 108.01 299.618 108.01C299.618 108.01 297.03 104.392 296.857 102.575L303.167 100.809Z" fill="#501D2C"/>
<path fill-rule="evenodd" clip-rule="evenodd" d="M299.835 96.4248C301.021 96.4248 301.702 96.7707 301.963 98.2965C302.203 99.7002 303.196 98.9664 303.377 100.24C303.439 100.679 303.4 101.569 301.963 103.611C300.443 105.771 298.865 106.832 298.865 106.832C298.865 106.832 297.39 105.068 296.857 103.844C296.116 102.141 295.935 100.918 295.899 100.24C295.847 99.2583 297.173 99.2281 297.576 98.2965C297.876 97.6018 298.387 96.4248 299.835 96.4248Z" fill="#F7A600"/>
<path fill-rule="evenodd" clip-rule="evenodd" d="M304.336 93.0644C304.407 92.5046 305.313 91.7311 305.979 91.8855C306.333 91.9676 306.174 92.1867 305.947 92.3738C306.555 92.0749 307.722 91.9229 307.774 92.1174C307.794 92.192 307.705 92.3 307.576 92.4123C308.672 92.5045 309.479 92.8182 309.479 93.1911C309.479 93.6364 308.328 93.9974 306.909 93.9974C305.489 93.9974 304.338 93.6364 304.338 93.1911C304.338 93.1813 304.339 93.1714 304.34 93.1616C304.333 93.1362 304.331 93.1041 304.336 93.0644ZM296.316 93.0871C296.21 92.5299 294.861 91.76 293.87 91.9137C293.334 91.9968 293.587 92.2208 293.933 92.409C293.865 92.4073 293.796 92.4065 293.726 92.4065C292.296 92.4065 291.137 92.7626 291.137 93.202C291.137 93.6413 292.296 93.9974 293.726 93.9974C295.157 93.9974 296.316 93.6413 296.316 93.202C296.316 93.1924 296.316 93.183 296.315 93.1735C296.322 93.15 296.323 93.1214 296.316 93.0871Z" fill="#0290E2"/>
<path fill-rule="evenodd" clip-rule="evenodd" d="M303.138 101.577C303.03 102.385 302.696 103.257 302.275 104.09L302.146 104.338C302.124 104.38 302.102 104.421 302.079 104.462L301.944 104.705L301.806 104.945C301.759 105.025 301.712 105.103 301.665 105.181L301.522 105.411L301.379 105.636L301.236 105.855L301.094 106.066L300.953 106.27L300.748 106.56L300.551 106.83L300.307 107.155L300.141 107.369L299.905 107.665L299.618 108.01L299.42 107.726L299.158 107.336L298.924 106.978L298.717 106.654L298.865 106.832C299.917 106.125 300.95 105.051 301.963 103.611C302.574 102.742 302.932 102.082 303.138 101.577ZM293.855 96.2666C294.707 96.2372 295.424 96.9534 295.456 97.8664C295.488 98.7793 294.824 99.5432 293.972 99.5726C293.12 99.602 292.403 98.8858 292.371 97.9729C292.339 97.0599 293.003 96.2961 293.855 96.2666ZM305.904 96.266L305.981 96.2666C306.833 96.2961 307.497 97.0599 307.465 97.9729C307.433 98.8858 306.716 99.602 305.864 99.5726C305.012 99.5432 304.348 98.7793 304.38 97.8664C304.411 96.9811 305.086 96.2808 305.904 96.266ZM296.316 93.0871C296.324 93.1287 296.324 93.1641 296.316 93.1932L296.316 93.202C296.316 93.6413 295.157 93.9974 293.726 93.9974C292.296 93.9974 291.137 93.6413 291.137 93.202C291.137 92.8814 291.754 92.6051 292.644 92.4792L292.846 92.4537C292.88 92.4499 292.915 92.4463 292.95 92.4429L293.164 92.4253C293.309 92.4155 293.458 92.4093 293.611 92.4073L293.726 92.4065C293.781 92.4065 293.835 92.407 293.888 92.408L293.781 92.3511C293.386 92.1299 293.416 91.984 293.87 91.9137C294.861 91.76 296.21 92.5299 296.316 93.0871ZM305.979 91.8855C306.29 91.9577 306.304 92.1092 306.02 92.3402C306.213 92.2544 306.451 92.1824 306.688 92.1295L306.845 92.0971L307 92.0707C307.405 92.0086 307.746 92.0142 307.774 92.1174C307.795 92.1968 307.724 92.3045 307.561 92.4405C308.676 92.6369 309.479 93.3058 309.479 93.6777C309.479 93.8677 309.269 93.9491 308.916 93.9803L308.777 93.9898C308.752 93.991 308.728 93.9921 308.702 93.993L308.544 93.9967L308.375 93.9973L308.1 93.9943L307.489 93.9817L307.157 93.9769L306.928 93.9758C306.619 93.9758 306.322 93.9591 306.047 93.9286L305.845 93.9031C304.989 93.7819 304.384 93.5212 304.341 93.2158L304.338 93.1771C304.331 93.147 304.331 93.1094 304.336 93.0644C304.407 92.5046 305.313 91.7311 305.979 91.8855Z" fill="black" fill-opacity="0.8"/>
<path fill-rule="evenodd" clip-rule="evenodd" d="M333.98 141.657C338.768 152.009 338.278 163.047 336.563 168.869C335.435 172.699 332.564 168.869 332.564 168.869C334.8 172.762 328.788 177.197 324.99 169.715C321.192 162.233 315.241 119.003 315.241 119.003C315.241 119.003 325.142 122.548 333.98 141.657Z" fill="#0290E2"/>
<path fill-rule="evenodd" clip-rule="evenodd" d="M333.98 141.657C338.768 152.009 338.278 163.047 336.563 168.869C335.435 172.699 332.564 168.869 332.564 168.869C334.8 172.762 328.788 177.197 324.99 169.715C321.192 162.233 315.241 119.003 315.241 119.003C315.241 119.003 325.142 122.548 333.98 141.657Z" fill="black" fill-opacity="0.2"/>
<path fill-rule="evenodd" clip-rule="evenodd" d="M333.362 146.074C335.349 147.762 335.929 152.394 334.321 154.402C332.713 156.409 329.201 156.817 327.383 154.402C325.565 151.986 325.396 148.401 327.004 146.393C328.613 144.386 331.376 144.386 333.362 146.074ZM321.964 133.251C321.458 130.117 323.235 127.783 325.935 128.037C328.634 128.292 331.234 131.039 331.74 134.173C332.247 137.307 330.469 139.641 327.769 139.386C325.07 139.132 322.471 136.385 321.964 133.251Z" fill="black" fill-opacity="0.1"/>
</g>
<path fill-rule="evenodd" clip-rule="evenodd" d="M269.591 26.9722C275.428 26.0106 280.972 30.0527 281.949 35.9811L285.492 57.4871C286.468 63.4155 282.513 69.0226 276.676 69.9841L272.826 70.6183L274.597 81.3713C274.662 81.7669 274.487 82.161 274.151 82.3727C274.041 82.4403 273.921 82.4847 273.795 82.5055C273.545 82.5467 273.281 82.4886 273.066 82.3318L259.914 72.7422L236.254 76.6398C230.417 77.6013 224.872 73.5593 223.895 67.6308L220.353 46.1276C219.377 40.1992 223.332 34.5921 229.169 33.6306L269.591 26.9722Z" fill="#2D437E"/>
<path fill-rule="evenodd" clip-rule="evenodd" d="M260.63 40.2851C261.661 40.1151 262.635 40.8137 262.805 41.8454C262.975 42.8771 262.277 43.8512 261.245 44.0212L242.542 47.102C241.511 47.272 240.537 46.5734 240.367 45.5417C240.197 44.51 240.895 43.5358 241.927 43.3659L260.63 40.2851ZM270.71 49.0625C270.54 48.0308 269.566 47.3322 268.534 47.5022L236.755 52.7371C235.723 52.9071 235.025 53.8812 235.195 54.9129C235.364 55.9446 236.339 56.6432 237.37 56.4733L269.15 51.2383C270.182 51.0683 270.88 50.0942 270.71 49.0625ZM265.538 58.4338C265.368 57.4021 264.394 56.7035 263.362 56.8734L244.66 59.9543C243.628 60.1242 242.929 61.0983 243.099 62.13C243.269 63.1617 244.243 63.8603 245.275 63.6904L263.978 60.6095C265.009 60.4396 265.708 59.4655 265.538 58.4338Z" fill="white"/>
<circle cx="60.6272" cy="112.449" r="63.2932" fill="#ECEEF0"/>
<mask id="mask1_1493_27159" style="mask-type:alpha" maskUnits="userSpaceOnUse" x="-2" y="48" width="128" height="129">
<circle cx="62.24" cy="112.499" r="63.5457" fill="#ECEEF0"/>
</mask>
<g mask="url(#mask1_1493_27159)">
<path fill-rule="evenodd" clip-rule="evenodd" d="M22.636 194.599C23.1966 193.575 26.3157 162.511 26.8249 138.466L29.4647 138.098L53.2494 134.779L55.7758 134.426L123.466 250.877L116.98 251.782L78.9708 199.411L48.3362 161.47C44.1409 180.255 38.8798 198.619 37.2148 202C35.5493 205.382 15.6325 212.591 -22.5355 223.627L-24.7321 218.123C6.47286 203.122 22.2622 195.281 22.636 194.599Z" fill="#B28B67"/>
<path fill-rule="evenodd" clip-rule="evenodd" d="M-10.1892 220.429L-13.9382 211.594C8.17616 200.029 19.4511 193.51 19.8866 192.037C20.3221 190.563 20.8982 172.949 21.6148 139.193L55.303 134.492L58.1146 134.1C58.1146 134.1 75.627 159.541 91.6617 187.286C107.696 215.032 119.335 238.374 119.335 238.374L107.352 243.89C107.352 243.89 84.8476 223.299 63.844 197.402C59.3376 191.846 54.8749 185.987 50.6446 180.211C48.3988 194.446 45.714 203.521 42.5901 207.437C36.8912 214.579 19.2982 218.91 -10.1892 220.429Z" fill="#A6A6A6"/>
<path fill-rule="evenodd" clip-rule="evenodd" d="M-10.1892 220.429L-13.9382 211.594C8.17616 200.029 19.4511 193.51 19.8866 192.037C20.3221 190.563 20.8982 172.949 21.6148 139.193L55.303 134.492L58.1146 134.1C58.1146 134.1 75.627 159.541 91.6617 187.286C107.696 215.032 119.335 238.374 119.335 238.374L107.352 243.89C107.352 243.89 84.8476 223.299 63.844 197.402C59.3376 191.846 54.8749 185.987 50.6446 180.211C48.3988 194.446 45.714 203.521 42.5901 207.437C36.8912 214.579 19.2982 218.91 -10.1892 220.429Z" fill="black" fill-opacity="0.01"/>
<path fill-rule="evenodd" clip-rule="evenodd" d="M50.6441 180.211C54.8744 185.987 59.3371 191.846 63.8435 197.402C84.847 223.299 107.352 243.89 107.352 243.89L119.334 238.374C119.334 238.374 107.696 215.032 91.6612 187.286C75.6265 159.541 58.114 134.1 58.114 134.1L55.3025 134.492C54.048 153.237 52.4952 168.477 50.6441 180.211Z" fill="black" fill-opacity="0.2"/>
<path fill-rule="evenodd" clip-rule="evenodd" d="M51.6249 173.619L52.2571 168.813L56.53 174.381C68.374 189.798 101.311 232.535 110.171 242.541L107.352 243.89C96.473 231.603 52.1223 174.265 51.6249 173.619ZM53.5425 156.157L54.1167 150.908L61.2043 161.246C74.6942 180.953 103.674 223.442 114.538 240.588L111.511 241.971C97.2489 219.461 54.0103 156.84 53.5425 156.157ZM54.896 140.777L55.2212 135.578L57.7195 139.293C68.0141 154.641 107.13 213.401 119.335 238.374L116.389 239.768C102.461 211.266 55.3974 141.523 54.896 140.777ZM47.3643 135.6L50.6477 135.142L50.5983 137.479C50.4796 142.426 50.1515 152.785 49.3219 163.874L49.2914 164.28C47.6972 185.309 45.1157 198.662 41.6197 203.971C35.4637 213.319 19.7852 216.041 4.74317 218.939C-0.266451 219.904 -6.49801 220.106 -9.7893 220.392L-10.1892 220.429L-10.7742 219.008C-7.4669 217.998 -4.22953 217.644 1.08285 216.62L4.0225 216.051C17.3141 213.457 33.8636 209.803 38.8825 202.182C41.0519 198.888 44.0313 189.725 45.9665 164.813L46.1373 162.535C46.9934 150.683 47.2772 139.867 47.3572 135.955L47.3643 135.6ZM37.7849 136.937L41.0796 136.477L40.9351 140.209C40.4315 152.697 38.8429 187.633 36.5418 196.088C34.0143 205.375 14.1593 211.251 -1.73811 215.574L-6.73178 216.926C-8.41086 217.383 -9.50553 217.692 -10.9476 218.131L-11.1441 218.191L-12.3992 215.197L-10.7262 214.69C-9.35573 214.279 -7.95896 213.877 -5.89587 213.318L-3.15606 212.577C10.0595 208.984 31.3166 202.823 33.381 195.236C35.4419 187.664 36.972 156.335 37.5633 142.415L37.7849 136.937ZM27.7917 138.332L31.0599 137.876L31.0678 138.524C31.1888 149.61 30.8637 185.052 27.1608 192.716C25.4662 196.223 19.7859 200.412 10.2767 205.164C3.39206 208.605 -4.15968 211.83 -11.737 214.393L-12.6114 214.686L-13.9156 211.756C7.3982 204.69 22.0734 195.727 24.2103 191.303C27.1034 185.315 27.9591 155.814 27.8084 139.771L27.7917 138.332Z" fill="white" fill-opacity="0.2"/>
</g>
<path fill-rule="evenodd" clip-rule="evenodd" d="M55.765 85.8002C58.6533 86.5144 61.5989 86.5396 64.2146 85.7943C68.8072 84.2683 68.1881 69.027 64.106 62.5421C60.0239 56.0573 41.2235 54.4045 41.2061 67.812C41.1993 73.0742 43.2961 77.3879 46.4138 80.5253L43.0389 104.003L58.0221 102.97L55.765 85.8002Z" fill="#915B3C"/>
<path fill-rule="evenodd" clip-rule="evenodd" d="M65.729 65.4683C65.5204 64.6057 65.0909 63.6613 64.7413 62.8556C64.2905 61.817 63.6533 60.8965 62.9625 60.0352C61.662 58.4136 60.1367 56.9734 58.4817 55.8049C55.4586 53.6706 51.7223 52.5769 48.1695 53.2607C46.3756 53.606 44.667 54.4162 43.2514 55.6663C41.9724 56.7958 40.7786 58.411 39.0375 58.6412C37.143 58.8916 35.2832 57.3347 33.6859 56.4041C31.8848 55.3549 29.9958 54.6302 27.9621 54.4381C24.5552 54.1165 21.469 55.4714 19.3377 58.3917C17.0697 61.4993 15.5708 65.9306 17.4616 69.7106C17.8131 70.4132 18.2431 70.9964 18.8348 71.4635C19.3774 71.8918 20.1913 72.3312 20.4494 73.0576C20.7236 73.8297 20.1367 74.8907 19.931 75.6186C19.6362 76.6616 19.4102 77.7506 19.593 78.8495C19.8933 80.6542 21.1561 82.3097 22.4456 83.4206C23.7579 84.551 25.3179 85.1436 26.9549 85.3534C28.048 85.4935 29.1581 85.5358 30.2485 85.3798C30.7897 85.3023 31.2594 85.1183 31.7782 84.9619C32.2828 84.8098 32.5786 84.926 33.0329 85.1768C35.1431 86.3418 37.3501 86.6967 39.6695 86.3418C41.627 86.0423 43.8634 85.4093 45.3765 83.9514C47.057 82.3322 46.8792 80.2715 46.3075 78.0961C46.7673 78.2855 48.0069 78.3369 47.2113 77.5104C46.8961 77.183 46.3361 77.0796 45.9484 76.901C45.4969 76.693 45.0339 76.416 44.6693 76.0512C43.1971 74.5781 44.355 71.2938 46.0334 70.65C48.527 69.6935 49.3454 73.2521 51.2281 74.0574C52.3106 74.5204 53.3539 73.7136 54.0858 72.9127C55.0662 71.8399 55.69 70.4652 56.2145 69.0738C56.6465 67.928 57.0421 66.7691 57.4843 65.6281C57.6908 65.0953 58.4282 63.5785 57.9671 63.0239C59.7667 62.5347 61.8512 63.1518 63.4911 64.0365C64.1689 64.4023 64.6953 64.8207 65.0917 65.5216C65.1766 65.6717 65.37 66.1222 65.5742 66.1271C65.9544 66.1364 65.7814 65.6851 65.729 65.4683Z" fill="#091E33"/>
<path fill-rule="evenodd" clip-rule="evenodd" d="M104.813 122.605L83.1414 124.367L86.4915 134.134L104.317 128.201C111.802 129.339 115.451 129.356 115.261 128.252C115.102 127.321 114.317 127 113.593 126.705C113.03 126.475 112.504 126.261 112.341 125.785C111.968 124.698 114.532 122.624 117.05 120.759C119.567 118.894 117.968 118.441 116.949 118.416C113.289 119.064 109.244 120.46 104.813 122.605ZM-2.66193 169.436C-0.893452 166.308 15.2872 125.699 15.2872 125.699L27.2179 126.38C27.2179 126.38 5.25231 169.14 4.30136 171.161C3.06604 173.787 4.71287 177.786 5.82955 180.498C6.0023 180.917 6.16237 181.306 6.29712 181.654C4.51046 182.336 3.72205 181.355 2.89085 180.32C1.95204 179.152 0.95865 177.916 -1.58932 178.931C-2.57373 179.323 -3.51083 179.798 -4.42638 180.263C-7.58885 181.868 -10.4941 183.343 -14.203 180.792C-14.791 180.387 -15.3823 178.951 -13.7145 177.942C-9.55934 175.429 -3.52649 170.965 -2.66193 169.436Z" fill="#C17548"/>
<path fill-rule="evenodd" clip-rule="evenodd" d="M44.5763 86.908C22.6797 104.528 7.5743 130.282 -0.739858 164.168L27.8868 165.696C28.4048 159.229 29.0721 152.941 29.9382 146.834L68.17 148.875C67.693 146.047 67.1194 143.272 66.4963 140.51C75.9981 147.622 88.9053 150.417 102.93 149.375L100.621 122.586C73.1174 125.422 61.163 112.55 59.4127 92.7549C59.4349 92.1543 59.4623 91.5487 59.4949 90.9377L45.5104 86.9665L45.5035 86.9575L45.473 86.9559L44.5763 86.908Z" fill="#B4BDC3"/>
<path fill-rule="evenodd" clip-rule="evenodd" d="M44.5763 86.908C22.6797 104.528 7.5743 130.282 -0.739858 164.168L27.8868 165.696C28.4048 159.229 29.0721 152.941 29.9382 146.834L68.17 148.875C67.693 146.047 67.1194 143.272 66.4963 140.51C75.9981 147.622 88.9053 150.417 102.93 149.375L100.621 122.586C73.1174 125.422 61.163 112.55 59.4127 92.7549C59.4349 92.1543 59.4623 91.5487 59.4949 90.9377L45.5104 86.9665L45.5035 86.9575L45.473 86.9559L44.5763 86.908Z" fill="black" fill-opacity="0.01"/>
<path fill-rule="evenodd" clip-rule="evenodd" d="M102.93 149.375C88.9054 150.417 75.9983 147.622 66.4964 140.51C65.9256 137.979 65.3133 135.459 64.6959 132.917L64.6958 132.917C61.8137 121.053 58.8201 108.73 59.4128 92.7548C61.1632 112.549 73.1175 125.422 100.621 122.586L102.93 149.375ZM38.1162 111.821C34.2883 122.724 31.7015 134.402 29.9383 146.834L37.7087 147.249C35.7934 138.311 36.7746 123.628 38.1162 111.821Z" fill="black" fill-opacity="0.1"/>
<path fill-rule="evenodd" clip-rule="evenodd" d="M96.275 15.1098C89.2722 15.1098 83.5682 20.8174 83.562 27.8312L83.5395 53.2739C83.5333 60.2876 89.2271 65.9953 96.23 65.9953H100.849L85.7193 78.9157C85.7188 79.3837 85.9995 79.8043 86.4319 79.9845C86.5739 80.0414 86.7223 80.0698 86.8738 80.0698C86.6526 80.2912 87.1737 80.0698 86.8738 80.0698L116.339 65.9919H144.726C151.728 65.9919 157.432 60.2842 157.439 53.2705L157.461 27.831C157.467 20.8174 151.773 15.1096 144.771 15.1096L96.275 15.1098Z" fill="#1A9BE5"/>
<path fill-rule="evenodd" clip-rule="evenodd" d="M109.261 28.7433C108.04 28.7433 107.05 29.7327 107.049 30.9532C107.048 32.1737 108.037 33.1632 109.257 33.1632H131.757C132.977 33.1632 133.968 32.1737 133.969 30.9532C133.97 29.7327 132.981 28.7433 131.761 28.7433L109.261 28.7433ZM99.1964 40.7653C99.1975 39.5448 100.188 38.5553 101.408 38.5553H139.598C140.818 38.5553 141.807 39.5448 141.806 40.7653C141.805 41.9859 140.814 42.9753 139.594 42.9753H101.404C100.184 42.9753 99.1953 41.9859 99.1964 40.7653ZM107.031 50.577C107.032 49.3565 108.022 48.367 109.243 48.367H131.742C132.963 48.367 133.952 49.3565 133.95 50.577C133.949 51.7975 132.959 52.7869 131.739 52.7869H109.239C108.018 52.7869 107.03 51.7975 107.031 50.577Z" fill="#F3FBFE"/>
</g>
<defs>
<clipPath id="clip0_1493_27159">
<rect width="328" height="185" fill="white"/>
</clipPath>
<clipPath id="clip1_1493_27159">
<rect width="29.5097" height="29.5097" fill="white" transform="translate(210.812 108.813) rotate(180)"/>
</clipPath>
</defs>
</svg>
