<svg xmlns="http://www.w3.org/2000/svg" xmlns:xlink="http://www.w3.org/1999/xlink" viewBox="0 0 340 60"><defs><path id="a" d="M139.9 21.9c.2.5.4 1.1.6 1.7l-7.7 7.7c-1.2 1.2-1.5 2.8-.7 3.5.8.8 2.3.5 3.5-.7l7.3-7.3c.5.2.9.4 1.4.7l-7.7 7.7c-.6.6-.8 1.3-.7 2l-5.2 1.8-2.8-2.8 1.8-5.2c.6.1 1.4-.1 2-.7l8.2-8.4zm-18.2-11c6.7-.2 13.4 2.4 17.1 8.7l-9.8 9.8c-.2.2-.6.7-.6 1.1l-4.1 10c-.1.3-.2.5-.1.8-.7.4-1.4 1.1-1.8 1.3-1.8 1-3.4.6-4.9-.7-1.5-1.3-2.6-2.9-4.3-4-1.6-1-3.4-1.3-5.1-.6-1.8.7-3 2-4.4 3.4-1.1 1.2-2.7 2.7-4.5 2.5-1.7-.2-2.8-2-4-3.1-1.3-1.1-2.9-1.8-4.6-1.3-1.3.4-2.4 1.3-3.4 2.2l-.5.4c-.5.4-1.2.8-1.1 1.6.1.8 1 1.1 1.6.8.6-.3 1-.9 1.5-1.3.6-.6 1.4-1.2 2.2-1.5 1.8-.7 3 .8 4.2 2 1.1 1.1 2.3 2.2 4 2.4 1.7.1 3.3-.7 4.6-1.7 2.1-1.7 4.5-5.6 7.7-4.4 3.6 1.4 5.4 6.7 9.9 6.1.7-.1 3.5-1.2 4.8-2.4.2 0 .4-.1.6-.2l10.1-4.1c.4-.1.9-.4 1.1-.6l9-8.9c3 2.3 4.7 5.6 4.7 9.1 0 7.1-6.9 12.8-15.4 12.8H90.3c-6.9 0-12.3.7-16.5-2.9-6-4.5-1.9-18.1 13.4-15.1 0-7.5 7.8-11.9 16.1-8.6 1.3-8.4 9.8-13.3 18.4-13.6z"/></defs><clipPath id="b"><use xlink:href="#a" overflow="visible"/></clipPath><g clip-path="url(#b)"><defs><path id="c" d="M-205.8-11.2h557v84h-557z"/></defs><clipPath id="d"><use xlink:href="#c" overflow="visible"/></clipPath><path clip-path="url(#d)" fill="#fff" d="M66.2 5.8h90v50h-90z"/></g><defs><path id="e" d="M61.2 44c0 .4-.3.7-.7.7h-3.3c-.4 0-.7-.3-.7-.7V20.7c0-.4.3-.6.7-.6h3.3c.4 0 .7.3.7.6V44zm-13-16.2v-.3c0-2.8-1.7-3.8-5-3.8-.7 0-2.3.1-2.9.1v7.9c.5 0 2.4.1 2.9.1 3.6-.1 5-1.4 5-4zm4.5 0c0 5.8-4.4 7.7-9.5 7.7-.9 0-2.2-.1-2.9-.1V44c0 .4-.3.7-.6.7h-3.3c-.4 0-.7-.3-.7-.7V21.3c0-.7.4-.9 1.1-1 1.7-.3 4.1-.4 6.5-.4 5.1 0 9.5 1.8 9.5 7.6v.3zM30.7 44c0 .4-.3.7-.7.7h-3.3c-.4 0-.7-.3-.7-.7V33.9h-9.4V44c0 .4-.3.7-.7.7h-3.3c-.4 0-.7-.3-.7-.7V20.7c0-.4.3-.6.7-.6h3.3c.4 0 .7.3.7.6v9.1H26v-9.1c0-.4.3-.6.7-.6H30c.4 0 .7.3.7.6V44z"/></defs><clipPath id="f"><use xlink:href="#e" overflow="visible"/></clipPath><g clip-path="url(#f)"><defs><path id="g" d="M-205.8-11.2h557v84h-557z"/></defs><clipPath id="h"><use xlink:href="#g" overflow="visible"/></clipPath><path clip-path="url(#h)" fill="#fff" d="M7.2 14.8h59v34.8h-59z"/></g><defs><path id="i" d="M324.1 42.1V29c-1.1-.2-2.8-.2-3.9-.2-3.2 0-4.3 2-4.3 5.5v2.4c0 3.6 1 5.6 4.3 5.6 1.2 0 2.8-.1 3.9-.2zm2.9 1.5c0 .4-.1.7-.7.8-2 .4-4.1.6-6.1.6-4.9 0-7.2-3.2-7.2-8.2v-2.4c0-5.2 2.4-8.1 7.2-8.1 1 0 2.6.1 3.9.3v-6.1c0-.3.3-.6.6-.6h1.7c.3 0 .6.3.6.6v23.1zm-18.1.4c0 .4-.3.7-.6.7h-1.6c-.4 0-.6-.3-.6-.7v-.6c-1.8 1-3.3 1.5-5.2 1.5-4 0-5.7-2.5-5.7-6.9V27.2c0-.4.3-.7.7-.7h1.6c.4 0 .7.3.7.7V38c0 3.3 1.1 4.4 3.6 4.4 1.4 0 2.9-.5 4.5-1.3V27.2c0-.3.3-.7.7-.7h1.6c.3 0 .6.3.6.7V44zm-20.8-7.2v-2.5c0-3.4-1.4-5.5-4.5-5.5s-4.4 2.1-4.4 5.5v2.5c0 3.4 1.3 5.5 4.4 5.5 3.1 0 4.5-2.1 4.5-5.5zm2.9 0c0 4.9-2.5 8.1-7.4 8.1s-7.3-3.2-7.3-8.1v-2.5c0-4.9 2.5-8.1 7.3-8.1 4.9 0 7.4 3.2 7.4 8.1v2.5zM272 44c0 .3-.2.7-.6.7h-1.7c-.3 0-.6-.3-.6-.7V20.5c0-.3.2-.6.6-.6h1.7c.3 0 .6.3.6.6V44zm-6.8-.2c0 .4-.3.6-.7.7-1.4.3-2.7.4-5.5.4-4.1 0-8.7-2.2-8.7-10.2v-4.6c0-8.1 4.7-10.2 8.7-10.2 2.1 0 4.1.3 5.5.5.3 0 .5.1.5.4v1.7c0 .2-.1.4-.4.4h-.1c-1.2-.1-3.6-.3-5.5-.3-3.2 0-5.7 1.9-5.7 7.5v4.6c0 5.5 2.5 7.5 5.7 7.5 1.9 0 4.3-.2 5.4-.3h.1c.4 0 .5.2.5.5v1.4zm-19-8.2c0 .3-.3.6-.6.6H239c-.4 0-.6-.2-.6-.6v-1.3c0-.3.3-.6.6-.6h6.6c.4 0 .6.2.6.6v1.3zM234 44c0 .3-.2.7-.6.7h-1.7c-.3 0-.6-.3-.6-.7V20.5c0-.3.2-.6.6-.6h1.7c.3 0 .6.3.6.6V44zm-7.8 0c0 .4-.3.7-.6.7h-1.7c-.4 0-.6-.3-.6-.7v-.6c-1.8 1-3.3 1.5-5.2 1.5-4 0-5.7-2.5-5.7-6.9V27.2c0-.4.3-.7.7-.7h1.6c.4 0 .7.3.7.7V38c0 3.3 1.1 4.4 3.6 4.4 1.4 0 2.9-.5 4.5-1.3V27.2c0-.3.3-.7.7-.7h1.6c.3 0 .6.3.6.7V44zm-18.4 0c0 .4-.3.7-.7.7h-1.6c-.4 0-.7-.3-.7-.7V33.1c0-3.3-1.4-4.3-3.5-4.3-1 0-3.1.3-4.6.9V44c0 .3-.3.7-.7.7h-1.6c-.3 0-.6-.3-.6-.7V20.5c0-.4.3-.7.6-.7h1.7c.4 0 .6.3.6.7v6.8c1.6-.7 3.6-1 5-1 3.5 0 5.9 2 5.9 6.9V44zm-17.6-.2c0 .4-.1.6-.7.7-1.1.2-2.6.4-4.1.4-4.5 0-7-3.2-7-8v-2.6c0-4.9 2.5-8 7-8 1.5 0 3 .2 4.1.4.5.1.7.3.7.7v1.2c0 .3-.3.5-.6.5h-.1c-1.5-.2-2.5-.2-4.1-.2-2.6 0-4.1 1.7-4.1 5.5V37c0 3.7 1.5 5.5 4.1 5.5 1.6 0 2.6-.1 4.1-.2h.1c.3 0 .6.2.6.5v1zm-15.6-5.5c0 3.2-1.6 6.6-8.2 6.6-2.3 0-4-.2-5.5-.5-.6-.1-.6-.2-.6-.6v-1.3c0-.4.3-.5.6-.5h.1c1.5.1 3.9.2 5.4.2 4 0 5-1.6 5-3.9 0-1.7-1-2.6-4-4.4l-3.2-1.9c-3-1.8-4.6-3.5-4.6-6.2 0-4 2.9-5.8 7.9-5.8 1.9 0 4.5.2 5.7.4.3.1.6.2.6.6v1.4c0 .3-.2.5-.6.5h-.1c-1.5-.1-3.8-.2-5.7-.2-3.4 0-4.9.7-4.9 3.1 0 1.6 1.1 2.5 3.6 4l3 1.8c4.2 2.2 5.5 4 5.5 6.7z"/></defs><clipPath id="j"><use xlink:href="#i" overflow="visible"/></clipPath><g clip-path="url(#j)"><defs><path id="k" d="M-205.8-11.2h557v84h-557z"/></defs><clipPath id="l"><use xlink:href="#k" overflow="visible"/></clipPath><path clip-path="url(#l)" fill="#fff" d="M154.8 14.8H332v35H154.8z"/></g></svg>