<svg xmlns="http://www.w3.org/2000/svg" viewBox="0 0 80 48"><path fill="#fff" d="M50.765.05c-8.52.356-16.89 6.415-18.217 16.094-8.206-4.036-15.895 1.335-15.865 10.287C1.497 22.846-4.263 36.625 3.343 44.478c4.187 4.325 9.532 3.45 16.385 3.45h39.346c1.97-.02 3.943.042 5.7 0C73.19 47.928 80 41.056 80 32.638a15.194 15.194 0 00-1.867-7.265c-2.46 2.722-4.889 5.41-7.09 7.843l-.69.325-10.822 5.068a.667.667 0 01-.07.072s-.932.854-2.155 1.7c-1.222.845-2.697 1.752-4.152 1.689-2.846-.123-4.815-2.407-6.672-4.46-1.857-2.051-3.587-3.868-5.719-3.868-1.063 0-2.004.43-2.947 1.152-.943.722-1.858 1.731-2.793 2.768-.935 1.036-1.888 2.102-2.97 2.935-1.083.833-2.324 1.434-3.757 1.444-1.097 0-2.048-.456-2.863-1.075-.814-.618-1.522-1.4-2.21-2.154-.69-.753-1.358-1.476-2.032-1.984-.674-.509-1.321-.797-2.049-.787-.83.01-2.3.908-3.441 1.89-1.142.982-2 1.965-2 1.965a.667.667 0 11-1.004-.875s.91-1.046 2.134-2.1c1.226-1.053 2.723-2.196 4.295-2.214 1.098-.013 2.05.441 2.866 1.056.815.615 1.524 1.397 2.213 2.15.689.754 1.358 1.48 2.033 1.993.675.512 1.325.803 2.053.803 1.064 0 2.005-.442 2.949-1.168.943-.726 1.86-1.735 2.795-2.772.935-1.037 1.887-2.102 2.97-2.932 1.084-.83 2.327-1.427 3.76-1.427 2.853.01 4.844 2.25 6.705 4.306 1.862 2.057 3.609 3.93 5.743 4.022.761.033 2.199-.667 3.336-1.453a21.259 21.259 0 002.011-1.586.667.667 0 01.073-.062l3.916-11.141a.428.428 0 01.134-.191.479.479 0 01.067-.094l.055-.061 7.11-7.87-.028-.096C67.957 5.042 59.287-.308 50.765.048zM71.75 19.13l-7.11 7.86a1.384 1.384 0 01-.976.468 1.38 1.38 0 01-.469-.053l-1.777 5.013 3.139 2.833L69.379 33a1.452 1.452 0 01.262-1.496l7.234-8.072c-.173-.228-.351-.45-.537-.668l-3.586 3.969-3.18 3.512a2.54 2.54 0 01-3.564.238h-.004c-.459-.436-.724-1.086-.758-1.768a2.556 2.556 0 01.668-1.855l6.603-7.301a15.177 15.177 0 00-.767-.428z"/></svg>