<svg version="1.1" id="Layer_1" xmlns="http://www.w3.org/2000/svg" x="0" y="0" viewBox="0 0 340 60" xml:space="preserve"><style>.st0{fill:#fff}</style><g id="HPI-Schul-Cloud_Wort-Bildmarke-Banner"><g id="Logo" transform="translate(12 19)"><g id="TXT"><path id="HPI" class="st0" d="M18.5 24.1c0 .4-.3.7-.7.7h-3.3c-.4 0-.7-.3-.7-.7V14H4.6v10.1c0 .4-.3.7-.7.7H.7c-.4 0-.7-.3-.7-.7V.9C0 .5.3.3.7.3H4c.4 0 .7.3.7.6V10H14V.9c0-.4.3-.6.7-.6H18c.4 0 .7.3.7.6v23.2zM40.6 7.9c0 5.8-4.4 7.7-9.5 7.7-.9 0-2.2-.1-2.9-.1v8.6c0 .4-.3.7-.6.7h-3.3c-.4 0-.7-.3-.7-.7V1.4c0-.7.4-.9 1.1-1 1.6-.2 4-.4 6.4-.4 5.1 0 9.5 1.8 9.5 7.6v.3zm-4.6 0v-.3c0-2.8-1.7-3.8-5-3.8-.7 0-2.3.1-2.9.1v7.9c.5 0 2.4.1 2.9.1 3.6 0 5-1.3 5-4zm13 16.2c0 .4-.3.7-.7.7H45c-.4 0-.7-.3-.7-.7V.9c0-.4.3-.6.7-.6h3.3c.4 0 .7.3.7.6v23.2z"/><path id="Schul-Cloud" class="st0" d="M162.9 18.4c0 3.2-1.7 6.6-8.2 6.6-2.3 0-4-.2-5.5-.5-.6-.1-.6-.2-.6-.6v-1.3c0-.4.3-.5.6-.5h.1c1.5.1 3.9.2 5.4.2 4 0 5-1.6 5-3.9 0-1.6-1-2.6-4-4.4l-3.2-1.9c-3-1.8-4.6-3.5-4.6-6.2 0-4 2.9-5.8 7.9-5.8 1.9 0 4.5.2 5.7.4.3.1.6.2.6.6v1.4c0 .3-.2.5-.6.5h-.1c-1.5-.1-3.8-.2-5.7-.2-3.4 0-4.9.7-4.9 3.1 0 1.6 1.1 2.5 3.6 4l3 1.8c4.1 2.3 5.5 4.1 5.5 6.7zm15.5 5.6c0 .4-.1.6-.7.7-1.1.2-2.6.4-4.1.4-4.5 0-7-3.2-7-8v-2.6c0-4.9 2.5-8 7-8 1.5 0 3 .2 4.1.4.5.1.7.3.7.7v1.2c0 .3-.3.5-.6.5h-.1c-1.5-.3-2.5-.3-4.1-.3-2.6 0-4.1 1.7-4.1 5.5V17c0 3.7 1.5 5.5 4.1 5.5 1.6 0 2.6-.1 4.1-.2h.1c.3 0 .6.2.6.5V24zm17.6.2c0 .4-.3.7-.7.7h-1.6c-.4 0-.7-.3-.7-.7V13.3c0-3.3-1.4-4.3-3.5-4.3-1 0-3.1.3-4.6.9v14.3c0 .3-.3.7-.7.7h-1.6c-.3 0-.6-.3-.6-.7V.7c0-.4.3-.7.6-.7h1.7c.4 0 .6.3.6.7v6.8c1.6-.7 3.6-1 5-1 3.5 0 5.9 2 5.9 6.9v10.8zm18.4 0c0 .4-.3.7-.6.7h-1.6c-.4 0-.6-.3-.6-.7v-.6c-1.8 1-3.3 1.5-5.2 1.5-4 0-5.7-2.5-5.7-6.9V7.3c0-.4.3-.7.7-.7h1.6c.4 0 .7.3.7.7v10.9c0 3.3 1.1 4.4 3.6 4.4 1.4 0 2.9-.5 4.5-1.3v-14c0-.3.3-.7.7-.7h1.6c.3 0 .6.3.6.7v16.9zm7.8 0c0 .3-.2.7-.6.7h-1.7c-.3 0-.6-.3-.6-.7V.6c0-.3.2-.6.6-.6h1.7c.3 0 .6.3.6.6v23.6zm12.2-8.4c0 .3-.3.6-.6.6h-6.6c-.4 0-.6-.2-.6-.6v-1.3c0-.3.3-.6.6-.6h6.6c.4 0 .6.2.6.6v1.3zm19 8.2c0 .4-.3.6-.7.7-1.4.3-2.7.4-5.5.4-4.1 0-8.7-2.2-8.7-10.2v-4.6c0-8.1 4.7-10.2 8.7-10.2 2.1 0 4.1.3 5.5.5.3 0 .5.1.5.4v1.7c0 .2-.1.4-.4.4h-.1c-1.2-.1-3.6-.3-5.5-.3-3.2 0-5.7 1.9-5.7 7.5v4.6c0 5.5 2.5 7.5 5.7 7.5 1.9 0 4.3-.2 5.4-.3h.1c.4 0 .5.2.5.5V24zm6.9.2c0 .3-.2.7-.6.7H258c-.3 0-.6-.3-.6-.7V.6c0-.3.2-.6.6-.6h1.7c.3 0 .6.3.6.6v23.6zm18.9-7.2c0 4.9-2.5 8.1-7.4 8.1s-7.3-3.2-7.3-8.1v-2.5c0-4.9 2.5-8.1 7.3-8.1 4.9 0 7.4 3.2 7.4 8.1V17zm-2.9 0v-2.5c0-3.4-1.4-5.5-4.5-5.5s-4.4 2.1-4.4 5.5V17c0 3.4 1.3 5.5 4.4 5.5 3.1 0 4.5-2.1 4.5-5.5zm20.8 7.2c0 .4-.3.7-.6.7h-1.6c-.4 0-.6-.3-.6-.7v-.6c-1.8 1-3.3 1.5-5.2 1.5-4 0-5.7-2.5-5.7-6.9V7.3c0-.4.3-.7.7-.7h1.6c.4 0 .7.3.7.7v10.9c0 3.3 1.1 4.4 3.6 4.4 1.4 0 2.9-.5 4.5-1.3v-14c0-.3.3-.7.7-.7h1.6c.3 0 .6.3.6.7v16.9zm18.1-.5c0 .4-.1.7-.7.8-2 .4-4.1.6-6.1.6-4.9 0-7.2-3.2-7.2-8.2v-2.4c0-5.2 2.4-8.1 7.2-8.1 1 0 2.6.1 3.9.3V.6c0-.3.3-.6.6-.6h1.7c.3 0 .6.3.6.6v23.1zm-2.9-1.4V9.2c-1.1-.2-2.8-.2-3.8-.2-3.2 0-4.3 2-4.3 5.5v2.4c0 3.6 1 5.6 4.3 5.6 1.1 0 2.7-.1 3.8-.2z"/></g></g><g id="Group-3" transform="translate(72 9)"><path d="M50.5 0c-8.6.3-17.1 5.3-18.4 13.4C23.8 10.1 16 14.5 16 22 5.2 19.9 0 26 0 31.3v.2c0 2.2.9 4.2 2.6 5.5 4.2 3.6 9.6 2.9 16.5 2.9h45.5c8.5 0 15.4-5.7 15.4-12.8 0-5.3-4-10.1-10.1-11.9v-.1C68 4.5 59.7 0 51.3 0h-.8" fill-rule="evenodd" clip-rule="evenodd" fill="#fff" id="Cloud"/></g><path id="OPEN" d="M89 45.2c0 5.5-2.9 7.8-7 7.8s-7-2.3-7-7.8v-3.4c0-5.5 2.9-7.8 7-7.8s7 2.3 7 7.8v3.4zm-4 .6v-3.7c0-3.6-1.1-5.2-3.5-5.2S78 38.6 78 42.2v3.7c0 3.6 1.1 5.2 3.5 5.2s3.5-1.7 3.5-5.3zm24-11.1c0 5.7-4.4 7.5-9.5 7.5-.9 0-2.2-.1-2.9-.1v8.3c0 .4-.3.6-.6.6h-3.3c-.4 0-.7-.3-.7-.6v-22c0-.6.4-.9 1.1-1 1.7-.3 4.1-.4 6.5-.4 5.1 0 9.5 1.7 9.5 7.4v.3zm-5-.1v-.3c0-2.4-1.5-3.3-4.4-3.3-.6 0-2.1.1-2.6.1v6.8c.5 0 2.1.1 2.6.1 3.2 0 4.4-1.1 4.4-3.4zm29 13.8c0 .6-.2.9-1 1-1.5.2-3.4.6-9 .6-6.2 0-11-1.6-11-9.5v-16c0-7.8 4.8-9.5 11-9.5 5.7 0 7.5.4 9 .6.7.1 1 .3 1 1v3c0 .5-.4.9-1 .9h-9.7c-2.8 0-3.8.9-3.8 4v5h12.9c.5 0 1 .4 1 .9v3.3c0 .5-.4.9-1 .9h-12.9v5.9c0 3 1 4 3.8 4h9.7c.5 0 1 .4 1 .9v3zm18 .5c0 .6-.5 1.1-1.1 1.1h-2.7c-.6 0-1.2 0-1.6-1l-5.9-13.1c-.1-.2-.2-.2-.2-.2-.1 0-.1.1-.1.2v13.5c0 .3-.2.5-.5.5h-2.3c-.3 0-.5-.2-.5-.5V31.1c0-.6.5-1.1 1.1-1.1h2.9c.6 0 .9.2 1.2.9l6.2 13.8c.1.1.1.2.2.2s.1-.1.1-.2V30.5c0-.3.2-.5.5-.5h2.3c.3 0 .5.2.5.5v18.4z" fill="#136dc4"/></g></svg>