<svg width="340" height="60" viewBox="0 0 340 60" xmlns="http://www.w3.org/2000/svg"><g fill="#FFF" fill-rule="evenodd"><path d="M140.314 22.761l-7.701 7.693c-1.202 1.201-1.485 2.753-.707 3.53.777.776 2.332.494 3.533-.706l7.324-7.316c.469.2.927.413 1.364.651l-7.681 7.67a2.464 2.464 0 0 0-.706 1.977l-5.231 1.835-2.824-2.82 1.836-5.227a2.476 2.476 0 0 0 1.98-.705l8.247-8.238c.21.53.396 1.085.566 1.656zm5.94 5.257c2.973 2.343 4.746 5.633 4.746 9.15 0 7.086-6.896 12.777-15.392 12.777H90.134c-6.896 0-12.293.7-16.49-2.895-5.997-4.492-1.9-18.069 13.392-15.074 0-7.487 7.795-11.88 16.091-8.585 1.3-8.086 9.794-13.078 18.39-13.377 6.664-.232 13.433 2.373 17.077 8.713l-9.78 9.77c-.212.21-.565.706-.635 1.06l-4.073 10.048a1.48 1.48 0 0 0-.145.773c-.703.438-1.396 1.06-1.829 1.29-1.817.968-3.389.55-4.913-.75-1.49-1.27-2.61-2.922-4.304-3.959-1.592-.973-3.38-1.295-5.145-.6-1.797.708-3.035 2.013-4.35 3.364-1.146 1.176-2.69 2.731-4.5 2.517-1.7-.202-2.823-2.029-4.02-3.069-1.298-1.13-2.888-1.826-4.618-1.336-1.547.44-2.71 1.55-3.898 2.566-.472.403-1.164.84-1.079 1.558.093.794.976 1.06 1.625.77.634-.285 1.013-.88 1.492-1.346.6-.584 1.361-1.166 2.151-1.463 1.793-.673 3.046.796 4.167 1.971 1.095 1.148 2.31 2.232 3.97 2.353 1.706.124 3.266-.689 4.552-1.735 2.112-1.719 4.511-5.629 7.695-4.36 3.61 1.44 5.361 6.748 9.876 6.073.736-.109 3.546-1.243 4.786-2.402.183-.017.368-.059.553-.15l10.06-4.07c.355-.069.85-.422 1.062-.634l8.96-8.948z"/><path d="M30.546 43.123c0 .363-.297.66-.66.66h-3.267a.662.662 0 0 1-.66-.66V33.025h-9.372v10.098c0 .363-.297.66-.66.66H12.66a.662.662 0 0 1-.66-.66V19.891c0-.363.297-.627.66-.627h3.267c.363 0 .66.264.66.627v9.108h9.372v-9.108c0-.363.297-.627.66-.627h3.267c.363 0 .66.264.66.627v23.232zm22.02-16.203c0 5.841-4.422 7.722-9.504 7.722-.858 0-2.178-.099-2.937-.132v8.613c0 .363-.264.66-.627.66h-3.3a.662.662 0 0 1-.66-.66V20.419c0-.66.396-.891 1.056-.99 1.716-.264 4.059-.429 6.468-.429 5.082 0 9.504 1.782 9.504 7.623v.297zm-4.554 0v-.297c0-2.772-1.65-3.828-4.95-3.828-.693 0-2.343.066-2.937.132v7.854c.528.033 2.376.099 2.937.099 3.564 0 4.95-1.32 4.95-3.96zm12.995 16.203c0 .363-.297.66-.66.66H57.08a.662.662 0 0 1-.66-.66V19.891c0-.363.297-.627.66-.627h3.267c.362 0 .66.264.66.627v23.232zm113.457-5.676c0 3.168-1.65 6.6-8.151 6.6-2.31 0-4.026-.231-5.478-.462-.561-.099-.627-.231-.627-.594v-1.32c0-.363.263-.528.56-.528h.1c1.518.132 3.927.198 5.445.198 3.96 0 5.016-1.584 5.016-3.894 0-1.65-.958-2.574-3.96-4.422l-3.202-1.947c-3.036-1.848-4.554-3.531-4.554-6.171 0-3.993 2.871-5.841 7.887-5.841 1.947 0 4.488.198 5.743.396.33.066.56.231.56.561v1.419c0 .33-.23.528-.56.528h-.066a93.138 93.138 0 0 0-5.677-.198c-3.399 0-4.85.726-4.85 3.135 0 1.551 1.088 2.475 3.596 3.993l3.036 1.815c3.828 2.277 5.181 4.092 5.181 6.732zm15.519 5.511c0 .429-.132.627-.66.726a23.933 23.933 0 0 1-4.125.363c-4.488 0-7.03-3.168-7.03-8.019v-2.574c0-4.851 2.509-8.019 7.03-8.019 1.518 0 3.036.165 4.125.363.528.099.66.264.66.726v1.188c0 .33-.264.495-.561.495h-.132a32.18 32.18 0 0 0-4.092-.231c-2.64 0-4.125 1.749-4.125 5.478v2.574c0 3.696 1.452 5.478 4.125 5.478 1.617 0 2.64-.066 4.092-.231h.132c.297 0 .56.165.56.495v1.188zm17.628.198c0 .363-.297.66-.66.66h-1.584a.662.662 0 0 1-.66-.66V32.299c0-3.3-1.386-4.323-3.531-4.323-1.023 0-3.102.264-4.554.924v14.256c0 .33-.297.66-.66.66h-1.617c-.33 0-.627-.297-.627-.66V19.66c0-.363.264-.66.627-.66h1.65c.363 0 .627.297.627.66v6.798c1.584-.693 3.63-1.023 5.049-1.023 3.498 0 5.94 2.013 5.94 6.864v10.857zm18.42 0c0 .363-.264.66-.627.66h-1.65c-.363 0-.627-.297-.627-.66v-.627c-1.815 1.023-3.3 1.518-5.247 1.518-3.96 0-5.742-2.475-5.742-6.864V26.326c0-.363.297-.66.66-.66h1.584c.363 0 .66.297.66.66v10.857c0 3.333 1.122 4.356 3.63 4.356 1.386 0 2.937-.528 4.455-1.287V26.326c0-.33.297-.66.66-.66h1.617c.33 0 .627.297.627.66v16.83zm7.76 0c0 .33-.23.66-.593.66h-1.716c-.33 0-.594-.297-.594-.66V19.627c0-.33.23-.627.594-.627h1.716c.33 0 .594.264.594.627v23.529zm12.227-8.349c0 .33-.264.561-.627.561h-6.567c-.363 0-.627-.198-.627-.561V33.52c0-.33.264-.594.627-.594h6.567c.363 0 .627.231.627.594v1.287zm19.024 8.151c0 .396-.297.594-.66.66-1.386.264-2.673.429-5.478.429-4.06 0-8.712-2.178-8.712-10.197v-4.587c0-8.085 4.653-10.197 8.712-10.197 2.079 0 4.092.297 5.544.528.297.033.528.132.528.429v1.683c0 .198-.066.363-.396.363h-.1c-1.187-.099-3.63-.297-5.543-.297-3.234 0-5.742 1.881-5.742 7.491v4.587c0 5.544 2.508 7.491 5.742 7.491 1.88 0 4.257-.165 5.445-.264h.132c.363 0 .528.165.528.528v1.353zm6.83.198c0 .33-.231.66-.594.66h-1.716c-.33 0-.594-.297-.594-.66V19.627c0-.33.231-.627.594-.627h1.716c.33 0 .594.264.594.627v23.529zm18.918-7.161c0 4.851-2.508 8.052-7.359 8.052-4.85 0-7.326-3.201-7.326-8.052v-2.508c0-4.851 2.475-8.052 7.326-8.052 4.851 0 7.36 3.201 7.36 8.052v2.508zm-2.904 0v-2.508c0-3.366-1.353-5.511-4.455-5.511-3.069 0-4.422 2.112-4.422 5.511v2.508c0 3.366 1.32 5.511 4.422 5.511 3.07 0 4.455-2.112 4.455-5.511zm20.856 7.161c0 .363-.264.66-.627.66h-1.65c-.363 0-.627-.297-.627-.66v-.627c-1.815 1.023-3.3 1.518-5.247 1.518-3.96 0-5.742-2.475-5.742-6.864V26.326c0-.363.297-.66.66-.66h1.584c.363 0 .66.297.66.66v10.857c0 3.333 1.122 4.356 3.63 4.356 1.386 0 2.937-.528 4.455-1.287V26.326c0-.33.297-.66.66-.66h1.617c.33 0 .627.297.627.66v16.83zm18.103-.429c0 .429-.1.66-.693.759a31.748 31.748 0 0 1-6.072.561c-4.917 0-7.194-3.201-7.194-8.151V33.52c0-5.181 2.376-8.085 7.194-8.085 1.023 0 2.574.099 3.86.33v-6.138c0-.33.265-.627.628-.627h1.683c.33 0 .594.264.594.627v23.1zm-2.904-1.419V28.207c-1.09-.198-2.805-.231-3.861-.231-3.234 0-4.29 2.013-4.29 5.544v2.376c0 3.597 1.023 5.61 4.29 5.61 1.122 0 2.739-.099 3.86-.198z" fill-rule="nonzero"/></g></svg>