<svg width="239" height="60" viewBox="0 0 239 60" xmlns="http://www.w3.org/2000/svg" xmlns:xlink="http://www.w3.org/1999/xlink"><defs><path d="M31.974 0c-.133.001-.267.004-.4.009-5.373.187-10.682 3.307-11.495 8.36-5.184-2.058-10.056.687-10.056 5.367-9.557-1.873-12.118 6.613-8.371 9.42 2.624 2.247 5.997 1.81 10.307 1.81H40.38c5.31 0 9.62-3.557 9.62-7.987 0-2.197-1.109-4.253-2.967-5.718l-5.6 5.593c-.132.133-.441.353-.663.396l-6.288 2.544a.932.932 0 01-.451.09c-.78.687-2.46 1.363-2.897 1.428-1.666.247-2.698-.82-3.793-1.95-.703-.727-1.431-1.479-2.34-1.84a2.185 2.185 0 00-.815-.164c-1.19 0-2.19 1.03-3.09 1.958-.344.353-.669.687-.982.942-.95.773-1.895 1.128-2.79 1.066-1.04-.075-1.799-.786-2.43-1.446l-.114-.121c-.687-.725-1.464-1.545-2.574-1.13-.56.21-1.055.622-1.372.931a4.937 4.937 0 00-.25.269c-.202.225-.393.437-.66.557a.74.74 0 01-.643-.02.509.509 0 01-.263-.399c-.041-.344.243-.574.516-.797.046-.037.09-.072.132-.109l.226-.195c.653-.565 1.329-1.15 2.181-1.392 1.17-.328 2.175.263 2.813.82.205.177.406.391.618.619.56.6 1.141 1.221 1.936 1.316 1.187.141 2.205-.904 2.878-1.595l.074-.076c.794-.815 1.544-1.586 2.617-2.01 1.012-.397 2.102-.27 3.147.37.639.392 1.159.939 1.662 1.468.321.338.654.69 1.018 1 1.064.907 2.067 1.058 3.157.478.142-.076.317-.209.521-.363a9.07 9.07 0 01.59-.419.939.939 0 01.087-.577l2.546-6.28c.044-.222.264-.53.396-.663l6.113-6.106C40.081 1.688 36.151.03 32.19 0h-.215zm5.838 12.09c-.353.353-.84.485-1.236.44l-1.148 3.266 1.766 1.764 3.268-1.147a1.542 1.542 0 01.441-1.236l4.8-4.794c-.368-.2-.759-.377-1.164-.535l-4.486 4.48c-.317.317-.687.53-1.042.599-.309.06-.563.003-.725-.157-.365-.365-.167-1.157.442-1.766l4.696-4.69a12.67 12.67 0 00-.456-1.373l-5.156 5.149z" id="a"/></defs><g fill="none" fill-rule="evenodd"><path d="M22.31 51V40.5h-1.125V51h1.125zm17.664.165V40.5h-1.08v6.645l.165 1.575h-.06l-.615-1.575-3.885-6.81h-.675V51h1.08v-6.66l-.165-1.65h.045l.645 1.65 3.855 6.825h.69zM54.218 51v-9.465h2.58V40.5h-6.285v1.035h2.58V51h1.125zm17.859 0v-1.035h-3.615v-3.84h3.255V45.09h-3.255v-3.555h3.54V40.5h-4.665V51h4.74zm12.189 0v-4.8l1.125.225L87.64 51h1.305l-2.07-4.185-.57-.555a2.491 2.491 0 001.372-1.005c.345-.5.518-1.165.518-1.995 0-.55-.078-1.008-.233-1.372a2.373 2.373 0 00-.622-.886 2.297 2.297 0 00-.915-.48 4.22 4.22 0 00-1.11-.142c-.33 0-.693.017-1.088.052a7.397 7.397 0 00-1.087.173V51h1.125zm.9-5.55h-.9v-3.945c.11-.03.272-.053.487-.068.215-.014.423-.022.623-.022.54 0 .947.18 1.222.54.275.36.413.815.413 1.365 0 .72-.165 1.255-.495 1.605-.33.35-.78.525-1.35.525zm20.694 5.715V40.5h-1.08v6.645l.165 1.575h-.06l-.615-1.575-3.885-6.81h-.675V51h1.08v-6.66l-.165-1.65h.045l.645 1.65 3.855 6.825h.69zM117.374 51l.84-2.94h2.97l.855 2.94h1.17l-3.165-10.665h-.615L116.264 51h1.11zm3.54-3.945h-2.4l.885-3.21.285-1.605h.03l.285 1.575.915 3.24zM135.743 51v-9.465h2.58V40.5h-6.285v1.035h2.58V51h1.125zm14.469 0V40.5h-1.125V51h1.125zm14.664.18c1.17 0 2.042-.46 2.617-1.38.575-.92.863-2.27.863-4.05 0-.83-.065-1.58-.195-2.25-.13-.67-.333-1.24-.608-1.71a2.946 2.946 0 00-1.072-1.087c-.44-.256-.975-.383-1.605-.383-1.17 0-2.04.46-2.61 1.38-.57.92-.855 2.27-.855 4.05 0 .83.062 1.58.187 2.25.125.67.328 1.24.608 1.71.28.47.64.832 1.08 1.087.44.256.97.383 1.59.383zm0-1.035c-.41 0-.76-.12-1.05-.36a2.61 2.61 0 01-.705-.96c-.18-.4-.313-.865-.398-1.395-.085-.53-.127-1.09-.127-1.68 0-1.49.195-2.595.585-3.315.39-.72.955-1.08 1.695-1.08.42 0 .775.12 1.065.36.29.24.525.563.705.967.18.405.312.873.397 1.403.085.53.128 1.085.128 1.665 0 1.49-.195 2.595-.585 3.315-.39.72-.96 1.08-1.71 1.08zm20.604 1.02V40.5h-1.08v6.645l.165 1.575h-.06l-.615-1.575-3.885-6.81h-.675V51h1.08v-6.66l-.165-1.65h.045l.645 1.65 3.855 6.825h.69zM196.994 51l.84-2.94h2.97l.855 2.94h1.17l-3.165-10.665h-.615L195.884 51h1.11zm3.54-3.945h-2.4l.885-3.21.285-1.605h.03l.285 1.575.915 3.24zM218.288 51v-1.035h-3.93V40.5h-1.125V51h5.055zM31.591 29.702a.414.414 0 01-.412.412h-2.042a.414.414 0 01-.413-.412V23.39h-5.857v6.31a.414.414 0 01-.413.413h-2.042a.414.414 0 01-.412-.412v-14.52c0-.227.186-.392.412-.392h2.042c.227 0 .413.165.413.392v5.692h5.857v-5.692c0-.227.186-.392.413-.392h2.042c.227 0 .412.165.412.392v14.52zm13.763-10.127c0 3.65-2.764 4.826-5.94 4.826-.536 0-1.361-.062-1.836-.082v5.383c0 .227-.165.412-.392.412h-2.062a.414.414 0 01-.413-.412v-14.19c0-.413.248-.557.66-.619 1.073-.165 2.537-.268 4.043-.268 3.176 0 5.94 1.114 5.94 4.764v.186zm-2.846 0v-.186c0-1.732-1.032-2.392-3.094-2.392-.433 0-1.465.041-1.836.082v4.91c.33.02 1.485.061 1.836.061 2.227 0 3.094-.825 3.094-2.475zm8.121 10.127a.414.414 0 01-.412.412h-2.042a.414.414 0 01-.413-.412v-14.52c0-.227.186-.392.413-.392h2.042c.226 0 .412.165.412.392v14.52zm71.152-3.548c0 1.98-1.031 4.125-5.094 4.125-1.444 0-2.516-.144-3.424-.288-.35-.062-.392-.145-.392-.372v-.825c0-.226.165-.33.35-.33h.063c.948.083 2.454.124 3.403.124 2.475 0 3.135-.99 3.135-2.434 0-1.03-.598-1.608-2.475-2.763l-2-1.217c-1.898-1.155-2.847-2.207-2.847-3.857 0-2.496 1.794-3.65 4.93-3.65 1.216 0 2.804.123 3.588.247.206.041.35.144.35.35v.887c0 .207-.144.33-.35.33h-.041a58.211 58.211 0 00-3.548-.123c-2.124 0-3.032.453-3.032 1.959 0 .97.681 1.547 2.249 2.496l1.897 1.134c2.393 1.423 3.238 2.557 3.238 4.207zm9.7 3.445c0 .268-.083.392-.413.454-.68.123-1.608.226-2.578.226-2.805 0-4.393-1.98-4.393-5.011v-1.61c0-3.031 1.568-5.011 4.393-5.011.949 0 1.898.103 2.578.227.33.062.413.165.413.454v.742c0 .206-.165.31-.35.31h-.083a20.112 20.112 0 00-2.558-.145c-1.65 0-2.578 1.093-2.578 3.424v1.608c0 2.31.908 3.424 2.578 3.424 1.01 0 1.65-.041 2.558-.144h.082c.186 0 .35.103.35.31v.742zm11.017.124a.414.414 0 01-.412.412h-.99a.414.414 0 01-.413-.412v-6.786c0-2.063-.866-2.702-2.207-2.702-.639 0-1.938.165-2.846.578v8.91a.428.428 0 01-.412.412h-1.01a.41.41 0 01-.393-.412V15.038c0-.227.165-.413.392-.413h1.031c.227 0 .392.186.392.413v4.248c.99-.433 2.269-.64 3.156-.64 2.186 0 3.712 1.259 3.712 4.29v6.787zm11.513 0c0 .226-.165.412-.392.412h-1.031c-.227 0-.392-.186-.392-.412v-.392c-1.135.639-2.063.948-3.28.948-2.475 0-3.588-1.546-3.588-4.29v-6.785c0-.227.185-.413.412-.413h.99c.227 0 .413.186.413.413v6.785c0 2.084.7 2.723 2.268 2.723.867 0 1.836-.33 2.785-.804v-8.704c0-.206.185-.413.412-.413h1.01c.207 0 .393.186.393.413v10.519zm4.85 0c0 .206-.144.412-.37.412h-1.073c-.207 0-.372-.186-.372-.412V15.017c0-.206.145-.392.372-.392h1.072c.206 0 .371.165.371.392v14.706zm7.642-5.219c0 .207-.165.351-.392.351h-4.105c-.226 0-.392-.124-.392-.35V23.7c0-.206.166-.371.392-.371h4.105c.227 0 .392.144.392.371v.804zm11.89 5.095c0 .247-.186.371-.413.412-.866.165-1.67.268-3.424.268-2.537 0-5.445-1.36-5.445-6.373V21.04c0-5.053 2.908-6.373 5.445-6.373 1.3 0 2.558.186 3.465.33.186.02.33.083.33.268v1.052c0 .124-.04.227-.247.227h-.062c-.743-.062-2.269-.185-3.465-.185-2.021 0-3.589 1.175-3.589 4.681v2.867c0 3.465 1.568 4.682 3.589 4.682 1.176 0 2.66-.103 3.403-.165h.083c.226 0 .33.103.33.33v.846zm4.269.124c0 .206-.145.412-.372.412h-1.072c-.206 0-.371-.186-.371-.412V15.017c0-.206.144-.392.37-.392h1.073c.207 0 .372.165.372.392v14.706zm11.823-4.476c0 3.032-1.567 5.032-4.599 5.032s-4.579-2-4.579-5.032v-1.568c0-3.031 1.547-5.032 4.58-5.032 3.031 0 4.599 2 4.599 5.032v1.568zm-1.815 0v-1.568c0-2.103-.845-3.444-2.784-3.444-1.918 0-2.764 1.32-2.764 3.444v1.568c0 2.104.825 3.444 2.764 3.444 1.918 0 2.785-1.32 2.785-3.444zm13.035 4.476c0 .226-.165.412-.392.412h-1.031c-.227 0-.392-.186-.392-.412v-.392c-1.134.639-2.062.948-3.28.948-2.474 0-3.588-1.546-3.588-4.29v-6.785c0-.227.186-.413.413-.413h.99c.226 0 .412.186.412.413v6.785c0 2.084.701 2.723 2.269 2.723.866 0 1.835-.33 2.784-.804v-8.704c0-.206.186-.413.413-.413h1.01c.207 0 .392.186.392.413v10.519zm11.315-.269c0 .269-.062.413-.434.475-1.278.247-2.536.35-3.794.35-3.074 0-4.497-2-4.497-5.094V23.7c0-3.238 1.485-5.053 4.497-5.053.639 0 1.608.062 2.413.206v-3.836c0-.206.165-.392.391-.392h1.052c.207 0 .372.165.372.392v14.437zm-1.815-.886v-8.189c-.681-.123-1.754-.144-2.413-.144-2.022 0-2.682 1.258-2.682 3.465v1.485c0 2.248.64 3.506 2.681 3.506.702 0 1.712-.062 2.414-.123z" fill="#FFF" fill-rule="nonzero"/><g transform="translate(56.875 9)"><mask id="b" fill="#fff"><use xlink:href="#a"/></mask><path d="M31.974 0c-.133.001-.267.004-.4.009-5.373.187-10.682 3.307-11.495 8.36-5.184-2.058-10.056.687-10.056 5.367-9.557-1.873-12.118 6.613-8.371 9.42 2.624 2.247 5.997 1.81 10.307 1.81H40.38c5.31 0 9.62-3.557 9.62-7.987 0-2.197-1.109-4.253-2.967-5.718l-5.6 5.593c-.132.133-.441.353-.663.396l-6.288 2.544a.932.932 0 01-.451.09c-.78.687-2.46 1.363-2.897 1.428-1.666.247-2.698-.82-3.793-1.95-.703-.727-1.431-1.479-2.34-1.84a2.185 2.185 0 00-.815-.164c-1.19 0-2.19 1.03-3.09 1.958-.344.353-.669.687-.982.942-.95.773-1.895 1.128-2.79 1.066-1.04-.075-1.799-.786-2.43-1.446l-.114-.121c-.687-.725-1.464-1.545-2.574-1.13-.56.21-1.055.622-1.372.931a4.937 4.937 0 00-.25.269c-.202.225-.393.437-.66.557a.74.74 0 01-.643-.02.509.509 0 01-.263-.399c-.041-.344.243-.574.516-.797.046-.037.09-.072.132-.109l.226-.195c.653-.565 1.329-1.15 2.181-1.392 1.17-.328 2.175.263 2.813.82.205.177.406.391.618.619.56.6 1.141 1.221 1.936 1.316 1.187.141 2.205-.904 2.878-1.595l.074-.076c.794-.815 1.544-1.586 2.617-2.01 1.012-.397 2.102-.27 3.147.37.639.392 1.159.939 1.662 1.468.321.338.654.69 1.018 1 1.064.907 2.067 1.058 3.157.478.142-.076.317-.209.521-.363a9.07 9.07 0 01.59-.419.939.939 0 01.087-.577l2.546-6.28c.044-.222.264-.53.396-.663l6.113-6.106C40.081 1.688 36.151.03 32.19 0h-.215zm5.838 12.09c-.353.353-.84.485-1.236.44l-1.148 3.266 1.766 1.764 3.268-1.147a1.542 1.542 0 01.441-1.236l4.8-4.794c-.368-.2-.759-.377-1.164-.535l-4.486 4.48c-.317.317-.687.53-1.042.599-.309.06-.563.003-.725-.157-.365-.365-.167-1.157.442-1.766l4.696-4.69a12.67 12.67 0 00-.456-1.373l-5.156 5.149z" fill="#FFF" mask="url(#b)"/></g></g></svg>