<svg width="48" height="48" viewBox="0 0 48 48" xmlns="http://www.w3.org/2000/svg"><g fill-rule="evenodd"><path d="M42 4a2 2 0 012 2v36a2 2 0 01-2 2H6a2 2 0 01-2-2V6a2 2 0 012-2h36zm-2 3H8a1 1 0 00-.993.883L7 8v32a1 1 0 00.883.993L8 41h32a1 1 0 00.993-.883L41 40V8a1 1 0 00-.883-.993L40 7z"/><path d="M37 10a1 1 0 011 1v26a1 1 0 01-1 1H11a1 1 0 01-1-1V11a1 1 0 011-1h26zM27 29H15a1 1 0 00-.117 1.993L15 31h12a1 1 0 00.117-1.993L27 29zm6-6H15a1 1 0 00-.117 1.993L15 25h18a1 1 0 00.117-1.993L33 23zm0-6H15a1 1 0 00-.117 1.993L15 19h18a1 1 0 00.117-1.993L33 17z"/></g></svg>