<svg width="48" height="48" viewBox="0 0 48 48" xmlns="http://www.w3.org/2000/svg" xmlns:xlink="http://www.w3.org/1999/xlink"><defs><linearGradient x1="100%" y1="0%" x2="0%" y2="100%" id="a"><stop stop-color="#E42C85" offset="0%"/><stop stop-color="#3B1E65" offset="100%"/></linearGradient><path d="M9.172 16.163l-3.47-3.47a.996.996 0 10-1.41 1.41l4.18 4.18c.39.39 1.02.39 1.41 0l10.58-10.58a.996.996 0 10-1.41-1.41l-9.88 9.87z" id="b"/></defs><g fill="none" fill-rule="evenodd"><path d="M0 0h48v48H0z"/><circle fill="url(#a)" fill-rule="nonzero" cx="24" cy="24" r="16"/><g transform="translate(12 12)"><mask id="c" fill="#fff"><use xlink:href="#b"/></mask><use fill="#000" fill-rule="nonzero" xlink:href="#b"/><path fill="#FFF" mask="url(#c)" d="M0 0h24v24H0z"/><path mask="url(#c)" d="M0 0h24v24H0z"/></g><path d="M24 2c12.15 0 22 9.85 22 22s-9.85 22-22 22S2 36.15 2 24 11.85 2 24 2zm0 3C13.507 5 5 13.507 5 24s8.507 19 19 19 19-8.507 19-19S34.493 5 24 5z" fill="url(#a)" fill-rule="nonzero"/></g></svg>