<svg width="48" height="48" viewBox="0 0 48 48" xmlns="http://www.w3.org/2000/svg" xmlns:xlink="http://www.w3.org/1999/xlink"><defs><linearGradient x1="100%" y1="0%" x2="0%" y2="100%" id="b"><stop offset="0%"/><stop offset="100%"/></linearGradient><path d="M7 .5v5a.5.5 0 01-.5.5h-5a.5.5 0 01-.5-.5v-5a.5.5 0 01.5-.5h5a.5.5 0 01.5.5zM3 4h2V2H3v2zm17-1a1 1 0 01-1 1h-8a1 1 0 010-2h8a1 1 0 011 1zm0 8a1 1 0 01-1 1h-8a1 1 0 010-2h8a1 1 0 011 1zM2.793 14.293L.705 12.205a.997.997 0 011.412-1.412L3.5 12.17l3.884-3.876a.998.998 0 011.411 1.411l-4.588 4.588a1 1 0 01-1.414 0z" id="a"/></defs><g fill="none"><use fill="#000" xlink:href="#a" transform="translate(14 17)"/><path d="M24 2c12.15 0 22 9.85 22 22s-9.85 22-22 22S2 36.15 2 24 11.85 2 24 2zm0 3C13.507 5 5 13.507 5 24s8.507 19 19 19 19-8.507 19-19S34.493 5 24 5z" fill="url(#b)"/></g></svg>