<svg width="44" height="44" viewBox="0 0 44 44" xmlns="http://www.w3.org/2000/svg"><path d="M22 0c12.15 0 22 9.85 22 22s-9.85 22-22 22S0 34.15 0 22 9.85 0 22 0zm0 3C11.507 3 3 11.507 3 22s8.507 19 19 19 19-8.507 19-19S32.493 3 22 3z"/><path d="M17.5 15a.5.5 0 01.5.5v5a.5.5 0 01-.5.5h-5a.5.5 0 01-.5-.5v-5a.5.5 0 01.5-.5h5zM16 17h-2v2h2v-2zm6 8h8a1 1 0 010 2h-8a1 1 0 010-2zm-2.534-1.407a1 1 0 010 1.414l-4.243 4.243a1 1 0 01-1.414 0l-.016-.017a1.784 1.784 0 01-.109-.105l-1.892-1.983a1.05 1.05 0 01-.262-.465.978.978 0 01.006-.507 1.05 1.05 0 01.273-.459 1 1 0 011.414 0l1.353 1.353 3.476-3.474a1 1 0 011.414 0zM22 17h8a1 1 0 010 2h-8a1 1 0 110-2z"/></svg>