<svg width="44" height="44" viewBox="0 0 44 44" xmlns="http://www.w3.org/2000/svg"><g fill="none" fill-rule="evenodd"><path d="M22 0c12.15 0 22 9.85 22 22s-9.85 22-22 22S0 34.15 0 22 9.85 0 22 0zm0 3C11.507 3 3 11.507 3 22s8.507 19 19 19 19-8.507 19-19S32.493 3 22 3z" fill="#D8D8D8"/><path d="M22 6c8.837 0 16 7.163 16 16s-7.163 16-16 16S6 30.837 6 22 13.163 6 22 6zm-1.534 17.593a1 1 0 00-1.414 0l-3.476 3.474-1.353-1.353a1 1 0 00-1.414 0 1.05 1.05 0 00-.273.46.978.978 0 00-.006.506c.043.167.13.327.262.465l1.892 1.983c.037.038.073.073.11.105l.015.017a1 1 0 001.414 0l4.243-4.243a1 1 0 000-1.414zM31 25h-8a1 1 0 000 2h8a1 1 0 000-2zM18.5 15h-5a.5.5 0 00-.5.5v5a.5.5 0 00.5.5h5a.5.5 0 00.5-.5v-5a.5.5 0 00-.5-.5zM17 17v2h-2v-2h2zm14 0h-8a1 1 0 000 2h8a1 1 0 000-2z" fill="#9E9E9E"/></g></svg>