<svg width="48" height="48" viewBox="0 0 48 48" xmlns="http://www.w3.org/2000/svg" xmlns:xlink="http://www.w3.org/1999/xlink"><defs><path d="M9 5.5v5a.5.5 0 01-.5.5h-5a.5.5 0 01-.5-.5v-5a.5.5 0 01.5-.5h5a.5.5 0 01.5.5zM5 9h2V7H5v2zm17-1a1 1 0 01-1 1h-8a1 1 0 010-2h8a1 1 0 011 1zm0 8a1 1 0 01-1 1h-8a1 1 0 010-2h8a1 1 0 011 1zM4.793 19.293l-2.088-2.088a.997.997 0 011.412-1.412L5.5 17.17l3.884-3.876a.998.998 0 011.411 1.411l-4.588 4.588a1 1 0 01-1.414 0z" id="a"/></defs><g fill="none" fill-rule="evenodd"><path d="M0 0h48v48H0z"/><circle fill="#9E9E9E" cx="24" cy="24" r="16"/><g transform="translate(12 12)"><mask id="b" fill="#fff"><use xlink:href="#a"/></mask><use fill="#000" fill-rule="nonzero" xlink:href="#a"/><path fill="#FFF" mask="url(#b)" d="M0 0h24v24H0z"/><path mask="url(#b)" d="M0 0h24v24H0z"/></g><path d="M24 2c12.15 0 22 9.85 22 22s-9.85 22-22 22S2 36.15 2 24 11.85 2 24 2zm0 3C13.507 5 5 13.507 5 24s8.507 19 19 19 19-8.507 19-19S34.493 5 24 5z" fill="#DDD"/></g></svg>