<svg xmlns="http://www.w3.org/2000/svg"><defs><font id="PTSansNarrow" horiz-adv-x="448"><font-face font-family="PT Sans Narrow" panose-1="2 11 7 6 2 2 3 2 2 4" ascent="1018" descent="-276" alphabetic="0"/><glyph glyph-name="space" horiz-adv-x="205"/><glyph unicode="!" glyph-name="exclam" horiz-adv-x="251" d="M83 700h123V371l-24-163h-75L83 371v329zM72 65q0 37 19 56t52 19q35 0 54-19t19-56q0-36-19-56t-54-20q-33 0-52 20T72 65z"/><glyph unicode="&quot;" glyph-name="quotedbl" horiz-adv-x="351" d="M73 700h103l-31-216H73v216zm134 0h103l-31-216h-72v216z"/><glyph unicode="#" glyph-name="numbersign" horiz-adv-x="478" d="M242 205h-69L143 51H46l30 154H15l21 95h58l22 110H56l21 95h57l29 144h98l-29-144h69l29 144h97l-29-144h59l-22-95h-55l-22-110h58l-22-95h-54L310 51h-98l30 154zm-50 95h69l21 110h-69l-21-110z"/><glyph unicode="$" glyph-name="dollar" horiz-adv-x="478" d="M194-13q-48 2-82 11T58 21l33 107q15-11 41-20t62-13v220q-26 15-51 33t-44 42-32 57-13 78q0 78 38 123t102 60v92h95v-88q35-2 62-9t51-20l-33-104q-15 8-35 14t-45 10V406q26-16 51-34t46-44 34-57 13-75q0-86-39-136T289-6v-94h-95v87zm54 109q32 6 48 29t16 58q0 34-18 56t-46 42V96zm-12 509q-36-4-49-25t-14-47q0-31 18-52t45-41v165z"/><glyph unicode="%" glyph-name="percent" horiz-adv-x="720" d="M41 542q0 46 11 78t31 52 47 30 61 10q33 0 60-8t48-29 31-52 12-81q0-48-11-80t-32-53-47-28-61-9q-33 0-60 8t-48 29-31 52-11 81zm106 0q0-48 10-67t34-20q12 0 20 3t14 14 8 27 3 43q0 51-11 69t-34 18q-23 0-33-18t-11-69zm242-371q0 46 11 78t31 52 47 30 61 10q33 0 60-8t48-29 31-52 12-81q0-48-11-80t-32-53-47-28-61-9q-33 0-60 8t-48 29-31 52-11 81zm106 0q0-48 10-67t34-20q12 0 20 3t14 14 8 27 3 43q0 51-11 69t-34 18q-23 0-33-18t-11-69zm80 543l70-58L151-14 80 45l495 669z"/><glyph unicode="&amp;" glyph-name="ampersand" horiz-adv-x="671" d="M70 194q0 38 10 72t30 64 44 55 55 46q-21 33-34 68t-14 73q0 25 8 50t26 46 46 33 70 13q39 0 67-10t45-28 26-41 8-48q0-42-25-86t-82-87q25-47 53-94t64-92q19 25 32 59t24 72l89-41q-5-18-14-41t-20-45-22-43-21-35q25-29 46-46t43-31l-61-91q-27 13-52 34t-50 49q-30-34-73-58T279-14q-45 0-83 13t-67 40-43 66-16 89zm322-46q-40 53-72 103t-56 99q-35-35-55-68t-20-79q0-51 28-79t75-29q32 0 59 16t41 37zM280 566q0-44 29-90 29 25 42 47t13 43q0 23-10 37t-33 15q-20 0-30-14t-11-38z"/><glyph unicode="'" glyph-name="quotesingle" horiz-adv-x="217" d="M73 700h103l-31-216H73v216z"/><glyph unicode="(" glyph-name="parenleft" horiz-adv-x="278" d="M186-220q-38 48-64 105T80 3 56 125t-8 118q0 55 7 116t24 122 43 121 66 110l80-45q-27-47-46-99t-31-108-18-110-6-107q0-48 6-103t18-110 31-108 47-94l-83-48z"/><glyph unicode=")" glyph-name="parenright" horiz-adv-x="278" d="M92 712q38-48 64-105t42-118 24-122 8-118q0-55-7-116T199 11t-43-121-66-110L9-174q30 50 49 103T89 36t17 108 5 105q0 48-6 103T86 463 54 571 9 666l83 46z"/><glyph unicode="*" glyph-name="asterisk" horiz-adv-x="323" d="M123 724l24-43 13-56 11 52 26 47 59-34-27-49-42-40 55 15h52v-70h-50l-52 16 45-45 22-40-60-35-24 43-16 61-10-55-26-47-60 35 27 48 39 34-47-15H29v71h54l50-16-45 41-25 47 60 35z"/><glyph unicode="+" glyph-name="plus" horiz-adv-x="444" d="M38 393h129v146h110V393h129V287H277V140H167v147H38v106z"/><glyph unicode="," glyph-name="comma" horiz-adv-x="216" d="M33 65q0 34 20 53t50 20q38 0 58-27t21-75q0-44-12-76t-31-53-38-35-36-19L28-99q23 12 41 38T89-7Q68-8 51 9T33 65z"/><glyph unicode="-" glyph-name="hyphen" horiz-adv-x="298" d="M45 344h208V230H45v114z"/><glyph unicode="." glyph-name="period" horiz-adv-x="212" d="M34 65q0 37 19 56t52 19q35 0 54-19t19-56q0-36-19-56t-54-20Q72-11 53 9T34 65z"/><glyph unicode="/" glyph-name="slash" horiz-adv-x="349" d="M276 712l91-35L74-140l-92 35 294 817z"/><glyph unicode="0" glyph-name="zero" horiz-adv-x="478" d="M35 351q0 98 13 167t40 112 64 64 87 20q52 0 90-20t64-63 38-113 13-167q0-99-14-168T390 70 326 6t-87-20q-52 0-90 20T85 71 48 185 35 351zm119 0q0-134 20-196t66-63q22 0 38 14t27 45 15 80 5 120q0 133-19 195t-67 62q-23 0-39-14t-26-45-15-80-5-118z"/><glyph unicode="1" glyph-name="one" horiz-adv-x="478" d="M87 106h114v393l13 68-41-59-66-51-55 67 193 188h70V106h112V0H87v106z"/><glyph unicode="2" glyph-name="two" horiz-adv-x="478" d="M402 532q0-52-15-106t-38-107-52-99-55-83l-44-41v-5l60 15h155V0H62v69q21 26 45 59t49 71 48 78 40 81 28 80 9 73q2 42-18 68t-63 26q-25 0-51-11t-44-28l-46 87q33 28 75 44t99 17q36 0 67-11t53-35 36-57 13-79z"/><glyph unicode="3" glyph-name="three" horiz-adv-x="478" d="M200 92q49 0 74 33t26 84q0 113-112 113h-59v68l99 168 48 45-66-9H73v106h320v-71L277 440l-37-27v-5l37 6q28-2 54-15t45-37 31-60 12-85q0-59-16-102t-45-72-67-43-83-14q-37 0-78 8T65 17l32 100q21-11 46-18t57-7z"/><glyph unicode="4" glyph-name="four" horiz-adv-x="478" d="M465 195h-88V0H264v195H17v74l256 436h104V297h88V195zM264 452l11 90h-4l-30-81-79-134-40-38 51 8h91v155z"/><glyph unicode="5" glyph-name="five" horiz-adv-x="478" d="M183 95q54 0 82 35t28 90q0 63-33 91t-95 28l-65-4v365h291V584H202V441l33 4q81-3 129-60t48-160q0-59-17-104t-46-75-71-45-89-15q-36 0-72 7T57 13l31 101q37-19 95-19z"/><glyph unicode="6" glyph-name="six" horiz-adv-x="478" d="M438 217q0-53-14-96t-40-73-61-46-78-16q-44 0-81 15t-64 48-42 82-15 120q0 102 24 182t66 139 95 93 113 49l30-97q-39-10-73-32t-61-53-45-70-28-84q17 24 43 39t64 15q36 0 66-13t53-40 35-67 13-95zm-115-7q0 61-20 88t-63 28q-30 0-51-17t-30-40q-1-11-1-22t0-23q0-26 5-49t15-42 26-30 38-11q36 0 58 30t23 88z"/><glyph unicode="7" glyph-name="seven" horiz-adv-x="478" d="M88 0l189 547 36 49-50-10H52v114h379v-38L204 0H88z"/><glyph unicode="8" glyph-name="eight" horiz-adv-x="478" d="M50 168q0 36 8 64t22 51 31 41 38 33q-39 31-61 71T65 529q0 85 47 135t131 50q76 0 123-44t47-125q0-59-22-100t-63-76q50-35 75-79t25-111q0-45-14-81t-40-61-61-38-76-13q-42 0-76 12t-59 36-38 57-14 77zm263 11q0 25-8 45t-21 35-30 29-33 25q-35-27-48-58t-14-64q0-42 21-70t59-29q34 0 54 21t20 66zM179 527q0-23 6-40t18-32 25-25 31-22q23 27 34 53t12 61q0 41-18 63t-45 23q-33 0-48-24t-15-57z"/><glyph unicode="9" glyph-name="nine" horiz-adv-x="478" d="M37 481q0 106 50 169t146 64q93 0 148-66t56-198q0-116-25-200t-67-141-97-86-114-37L106 86q90 18 140 78t64 147q-19-25-41-35t-57-10q-31 0-62 12t-57 39-40 67-16 97zm115 7q0-57 24-86t63-30q29 0 49 10t31 30q2 11 2 23t1 23q0 31-5 58t-16 48-28 32-41 12q-38 0-59-32t-21-88z"/><glyph unicode=":" glyph-name="colon" horiz-adv-x="251" d="M77 427q0 37 19 56t52 19q35 0 54-19t19-56q0-36-19-56t-54-20q-33 0-52 20t-19 56zm0-362q0 37 19 56t52 19q35 0 54-19t19-56q0-36-19-56t-54-20q-33 0-52 20T77 65z"/><glyph unicode=";" glyph-name="semicolon" horiz-adv-x="251" d="M72 65q0 34 20 53t50 20q38 0 58-27t21-75q0-44-12-76t-31-53-38-35-36-19L67-99q23 12 41 38t20 54Q107-8 90 9T72 65zm1 362q0 37 19 56t52 19q35 0 54-19t19-56q0-36-19-56t-54-20q-33 0-52 20t-19 56z"/><glyph unicode="&lt;" glyph-name="less" horiz-adv-x="444" d="M35 285v70l311 222 60-81-186-139-75-35 74-31 191-137-60-81L35 285z"/><glyph unicode="=" glyph-name="equal" horiz-adv-x="444" d="M38 489h368V383H38v106zm0 65h368V448H38v106z"/><glyph unicode="&gt;" glyph-name="greater" horiz-adv-x="444" d="M409 365v-70L100 75l-62 80 187 138 74 36-74 30L34 497l62 79 313-211z"/><glyph unicode="?" glyph-name="question" horiz-adv-x="382" d="M113 208q-4 46 4 80t22 61 32 48 34 41 26 43 11 51q0 35-16 55t-55 21q-26 0-55-10t-50-29l-47 90q31 23 73 39t102 16q80 0 125-43t46-123q0-47-11-79t-28-57-36-45-36-42-28-50-12-67H113zM97 65q0 37 19 56t52 19q35 0 54-19t19-56q0-36-19-56t-54-20q-33 0-52 20T97 65z"/><glyph unicode="@" glyph-name="at" horiz-adv-x="881" d="M558 484h66l-39-273q-12-91 29-91 20 0 39 12t35 37 25 64 10 93q0 69-19 118t-55 81-83 47-105 15q-64 0-119-25t-96-72-64-110-24-142q0-153 76-233t213-80q26 0 57 7t57 20l29-87q-32-17-70-25t-86-9q-79 0-147 24T167-72 87 54 57 236q0 105 33 188t90 140 129 87 153 30q76 0 142-22t115-67 77-111 28-155q0-66-19-122t-53-97-77-64-95-23q-41 0-69 21t-27 73h-3q-23-38-55-66t-80-28q-43 0-73 38t-30 106q0 67 16 126t45 103 65 71 79 26q28 0 48-10t37-27l25 31zm-53-115q-18 21-47 21-23 0-42-16t-33-44-22-63-8-74q0-35 11-54t36-19q22 0 44 24t38 55l23 170z"/><glyph unicode="A" glyph-name="A" horiz-adv-x="501" d="M328 158H163L122 0H-3l203 705h99L503 0H371l-43 158zM190 262h116l-40 163-16 110h-4l-17-111-39-162z"/><glyph unicode="B" glyph-name="B" horiz-adv-x="490" d="M445 538q0-26-5-51t-18-48-31-40-47-26v-6q24-6 45-18t38-32 25-50 10-70q0-54-18-93t-50-65-74-37-89-12h-36q-22 0-47 1T95-4 45 5v690q33 6 81 10t97 5q44 0 84-7t71-26 49-52 18-87zM234 99q42 0 69 27t27 79q0 33-9 52t-24 30-34 14-41 3h-51V105q8-3 27-4t36-2zm-34 304q11 0 25 1t24 4q29 11 49 36t21 65q0 26-7 44t-19 28-28 15-36 5q-41 0-58-4V403h29z"/><glyph unicode="C" glyph-name="C" horiz-adv-x="457" d="M442 28Q416 6 373-4t-87-10q-54 0-100 18t-82 62-55 113-20 172q0 106 22 176t59 111 84 59 95 17q49 0 85-8t60-18l-25-111q-19 10-44 15t-61 6q-69 0-106-60t-37-188q0-55 8-100t27-79 47-51 69-18q35 0 60 9t45 23l25-106z"/><glyph unicode="D" glyph-name="D" horiz-adv-x="535" d="M45 700q18 3 40 4t46 3 46 2 39 1q83 0 138-25t89-72 48-112 14-145q0-73-13-139t-48-117-92-81-146-30q-13 0-35 1t-46 2-46 3-34 4v701zm184-106h-32q-16 0-26-3V109q3-1 10-1t16-1 16-1 11-1q45 0 74 21t45 56 23 80 7 96q0 46-5 89t-21 75-44 52-74 20z"/><glyph unicode="E" glyph-name="E" horiz-adv-x="430" d="M45 700h350V584H171V412h203V296H171V116h228V0H45v700z"/><glyph unicode="F" glyph-name="F" horiz-adv-x="419" d="M45 700h350V584H171V402h206V286H171V0H45v700z"/><glyph unicode="G" glyph-name="G" horiz-adv-x="502" d="M257 362h216V52q-37-35-86-50t-99-16q-59 0-107 21t-81 65-52 113-19 165q0 100 22 169t58 112 85 63 103 20q48 0 87-8t66-20l-26-109q-20 9-46 15t-65 6q-35 0-63-14t-48-44-30-77-11-114q0-127 38-187t102-60q20 0 38 6t33 19v143l-115 16v76z"/><glyph unicode="H" glyph-name="H" horiz-adv-x="533" d="M362 296H171V0H45v700h126V412h191v288h126V0H362v296z"/><glyph unicode="I" glyph-name="I" horiz-adv-x="238" d="M56 700h126V0H56v700z"/><glyph unicode="J" glyph-name="J" horiz-adv-x="289" d="M113 700h126V191q0-46-7-83t-25-64-45-41-70-15q-29 0-57 6t-52 17l29 106q21-13 49-13 35 0 43 29t9 85v482z"/><glyph unicode="K" glyph-name="K" horiz-adv-x="519" d="M198 300h-27V0H45v700h126V389l25 12 147 299h142L325 405l-47-37 48-38L511 0H357L198 300z"/><glyph unicode="L" glyph-name="L" horiz-adv-x="424" d="M417 0H45v700h126V116h246V0z"/><glyph unicode="M" glyph-name="M" horiz-adv-x="664" d="M493 361l14 134h-5l-37-120-114-246h-42L188 376l-37 121h-6l19-135V0H45v700h121l146-303 24-87h4l23 89 137 301h119V0H493v361z"/><glyph unicode="N" glyph-name="N" horiz-adv-x="540" d="M199 344l-46 123h-5l16-121V0H45v705h97l201-352 43-121h6l-16 119v349h119V-5h-97L199 344z"/><glyph unicode="O" glyph-name="O" horiz-adv-x="553" d="M29 350q0 178 61 271t186 93q65 0 112-25t77-73 44-115 15-151q0-178-62-271T276-14q-66 0-112 25T87 84 43 199 29 350zm132 0q0-53 6-98t20-79 35-52 54-19q58 0 87 59t29 189q0 51-6 96t-19 79-36 53-55 20q-115 0-115-248z"/><glyph unicode="P" glyph-name="P" horiz-adv-x="477" d="M45 693q36 8 79 12t86 5q46 0 90-8t80-34 57-70 22-119q0-66-18-112t-50-75-71-42-84-13h-32q-10 0-19 2t-14 2V0H45v693zm126-339q6-2 22-3t23-2q22 0 42 6t35 20 25 40 9 65q0 33-8 56t-23 36-34 20-40 6q-31 0-51-5V354z"/><glyph unicode="Q" glyph-name="Q" horiz-adv-x="553" d="M579-196q-20-7-40-10t-41-3q-42 0-81 10t-77 22-71 23-66 10q-10 0-19-1t-19-4v112q24 6 48 6 34 0 68-10t70-21 73-22 79-10q18 0 37 2t39 9v-113zM29 350q0 178 61 271t186 93q65 0 112-25t77-73 44-115 15-151q0-178-62-271T276-14q-66 0-112 25T87 84 43 199 29 350zm132 0q0-53 6-98t20-79 35-52 54-19q58 0 87 59t29 189q0 51-6 96t-19 79-36 53-55 20q-115 0-115-248z"/><glyph unicode="R" glyph-name="R" horiz-adv-x="503" d="M45 693q41 9 88 13t81 4q43 0 84-8t72-31 51-61 20-98q0-85-31-138t-87-74l40-32L492 0H347L225 276l-54 13V0H45v693zm126-318h43q47 0 71 28t24 89q0 45-20 73t-63 29q-16 0-31-1t-24-4V375z"/><glyph unicode="S" glyph-name="S" horiz-adv-x="439" d="M290 180q0 32-19 54t-47 43-62 41-62 49-48 66-19 93q0 51 15 86t43 58 64 33 79 11q51 0 95-10t73-27l-39-111q-17 12-50 22t-73 10q-39 0-60-16t-21-47q0-28 19-49t47-42 62-41 62-50 48-67 19-92q0-53-15-92t-44-64-69-39-89-13Q137-14 91-2T19 25l41 113q20-12 55-24t75-12q100 0 100 78z"/><glyph unicode="T" glyph-name="T" horiz-adv-x="474" d="M466 584H300V0H174v584H8v116h458V584z"/><glyph unicode="U" glyph-name="U" horiz-adv-x="515" d="M354 700h119V246q0-136-55-197T264-12Q149-12 96 47T42 229v471h126V251q0-82 22-114t73-33q49 0 70 34t21 113v449z"/><glyph unicode="V" glyph-name="V" horiz-adv-x="503" d="M243 289l14-120h4l16 121 102 410h133L300-5h-96L-10 700h149l104-411z"/><glyph unicode="W" glyph-name="W" horiz-adv-x="717" d="M205 315l10-126h4l11 128 94 383h88l91-385 11-126h4l11 128 62 383h128L562-5h-89l-98 386-13 109h-5l-12-110L247-5h-93L-2 700h139l68-385z"/><glyph unicode="X" glyph-name="X" horiz-adv-x="528" d="M177 356L22 700h152l81-200 19-76 18 76 85 200h136L353 363 521 0H374l-94 215-21 78-20-78L145 0H6l171 356z"/><glyph unicode="Y" glyph-name="Y" horiz-adv-x="495" d="M184 260L-4 700h150l97-265 10-76h5l11 78 95 263h135L310 261V0H184v260z"/><glyph unicode="Z" glyph-name="Z" horiz-adv-x="445" d="M21 116l234 427 42 41H21v116h403V584L189 154l-41-38h276V0H21v116z"/><glyph unicode="[" glyph-name="bracketleft" horiz-adv-x="276" d="M45 700h208V597h-93v-724h93v-103H45v930z"/><glyph unicode="\" glyph-name="backslash" horiz-adv-x="362" d="M373-103l-93-37-298 816 94 35 297-814z"/><glyph unicode="]" glyph-name="bracketright" horiz-adv-x="276" d="M231-230H23v103h93v724H23v103h208v-930z"/><glyph unicode="^" glyph-name="asciicircum" horiz-adv-x="428" d="M181 705h68l155-292H285l-56 122-17 73-21-74-59-121H18l163 292z"/><glyph unicode="_" glyph-name="underscore" horiz-adv-x="374" d="M0-122h374v-102H0v102z"/><glyph unicode="`" glyph-name="grave" horiz-adv-x="290" d="M230 566h-66L60 690v30h121l49-154z"/><glyph unicode="a" glyph-name="a" horiz-adv-x="413" d="M44 470q30 18 75 29t102 11q85 0 118-44t34-125q0-47-2-92t-4-89 1-84 14-77h-97l-19 61h-4q-16-29-45-48T144-7Q85-7 51 32T17 138q0 90 64 128t173 32q5 58-7 84t-54 26q-30 0-62-7t-57-20l-30 89zM187 95q27 0 44 13t25 30v83q-23 3-44 1t-37-9-25-20-10-35q0-31 12-47t35-16z"/><glyph unicode="b" glyph-name="b" horiz-adv-x="443" d="M43 700h119V468h3q36 44 103 44 71 0 110-59t40-190q0-142-56-208T209-12q-53 0-97 10T43 20v680zm119-592q21-11 55-11 38 0 58 36t20 123q0 76-16 111t-50 36q-50 0-67-52V108z"/><glyph unicode="c" glyph-name="c" horiz-adv-x="350" d="M338 27Q313 7 278-3t-70-10q-51 0-85 18T66 58t-31 83-10 109q0 131 47 197t138 66q45 0 73-8t51-20l-28-99q-18 9-34 13t-40 5q-42 0-63-36t-21-118q0-68 21-111t69-43q25 0 42 6t33 17l25-92z"/><glyph unicode="d" glyph-name="d" horiz-adv-x="445" d="M402 176q0-42 1-84t8-93h-84l-16 58h-4q-34-70-119-70-76 0-119 60T25 242q0 132 47 200t140 69q24 0 40-3t31-10v202h119V176zM216 96q27 0 43 13t24 40v236q-10 9-22 13t-33 4q-40 0-60-36t-20-128q0-69 16-105t52-37z"/><glyph unicode="e" glyph-name="e" horiz-adv-x="428" d="M381 37q-25-22-68-36t-90-14q-52 0-89 18T72 57t-35 82-12 111q0 135 53 199t149 65q32 0 62-9t53-32 38-60 15-95q0-22-2-47t-8-54H142q2-62 26-95t77-33q32 0 58 10t41 21l37-83zM225 412q-38 0-57-30t-22-86h138q3 57-12 86t-47 30z"/><glyph unicode="f" glyph-name="f" horiz-adv-x="267" d="M8 500h54v28q0 95 35 137t102 43q66 0 110-18l-22-101q-18 7-32 8t-29 2q-29 0-37-22t-8-77h85V394h-85V0H62v394H8v106z"/><glyph unicode="g" glyph-name="g" horiz-adv-x="443" d="M401 0q0-109-50-160t-139-52q-62 0-97 9t-54 21L86-81q22-9 47-17t61-8q51 0 70 27t20 84v27h-3q-14-20-37-30T183-8Q104-8 65 51T25 240q0 139 54 205t156 66q54 0 97-8t69-21V0zM216 94q27 0 42 13t24 37v250q-11 5-24 8t-32 3q-37 0-57-36t-21-124q0-151 68-151z"/><glyph unicode="h" glyph-name="h" horiz-adv-x="449" d="M291 0v302q0 54-12 78t-46 24q-24 0-44-17t-27-43V0H43v700h119V455h3q20 26 48 42t72 16q31 0 54-9t39-30 24-56 8-90V0H291z"/><glyph unicode="i" glyph-name="i" horiz-adv-x="225" d="M53 500h119V0H53v500zm242 141q0 30 19 49t54 20q35 0 56-19t21-50q0-31-21-49t-56-18q-35 0-54 18t-19 49z"/><glyph unicode="j" glyph-name="j" horiz-adv-x="225" d="M54 500h119V-21q0-91-31-139T41-208q-28 0-57 7v106q43-4 56 24t14 85v486zm241 141q0 30 19 49t54 20q35 0 56-19t21-50q0-31-21-49t-56-18q-35 0-54 18t-19 49z"/><glyph unicode="k" glyph-name="k" horiz-adv-x="412" d="M190 207h-28V0H43v700h119V287l24 14 83 199h129l-92-198-43-34 47-34L412 0H278l-88 207z"/><glyph unicode="l" glyph-name="l" horiz-adv-x="243" d="M164 162q0-35 7-50t23-15q9 0 18 2t22 7l11-96q-12-8-41-15t-59-7q-50 0-75 25T45 98v602h119V162z"/><glyph unicode="m" glyph-name="m" horiz-adv-x="663" d="M274 0v291q0 63-10 87t-39 25q-24 0-39-15t-24-38V0H43v500h92l15-60h3q19 31 47 51t76 21q39 0 63-17t39-60q19 36 50 56t73 21q33 0 56-8t38-30 22-57 7-93V0H505v304q0 51-9 75t-40 24q-25 0-40-14t-23-40V0H274z"/><glyph unicode="n" glyph-name="n" horiz-adv-x="449" d="M291 0v304q0 55-13 77t-44 22q-26 0-45-16t-27-40V0H43v500h95l14-58h3q18 29 49 49t81 21q30 0 53-9t40-29 24-55 8-86V0H291z"/><glyph unicode="o" glyph-name="o" horiz-adv-x="445" d="M25 250q0 133 52 198t145 65q100 0 149-66t49-197q0-134-52-198T222-13Q25-13 25 250zm123 0q0-75 17-116t57-41q38 0 56 35t19 122q0 77-17 117t-58 40q-35 0-54-35t-20-122z"/><glyph unicode="p" glyph-name="p" horiz-adv-x="447" d="M43 500h89l12-57h3q23 36 51 52t71 17q76 0 114-57t39-192q0-134-48-205T235-14q-24 0-41 4T162 3v-203H43v700zm119-388q10-10 22-15t33-5q40 0 61 39t21 135q0 71-16 105t-53 35q-50 0-68-59V112z"/><glyph unicode="q" glyph-name="q" horiz-adv-x="443" d="M401-200H282V35h-4q-14-22-36-35t-61-14q-74 0-115 63T25 240q0 134 57 202t162 69q45 0 88-9t69-20v-682zM282 393q-21 12-56 12-39 0-58-37t-20-123q0-153 68-153 27 0 42 13t24 39v249z"/><glyph unicode="r" glyph-name="r" horiz-adv-x="293" d="M279 382q-24 9-44 9-27 0-46-15t-27-42V0H43v500h91l14-60h4q13 33 37 51t57 19q24 0 47-10l-14-118z"/><glyph unicode="s" glyph-name="s" horiz-adv-x="350" d="M211 133q0 21-13 35t-35 27-44 26-45 32-34 46-14 68q0 70 38 108t112 38q44 0 83-9t62-24l-28-92q-19 8-46 15t-53 8q-49 0-49-41 0-19 13-31t35-25 44-25 45-32 34-48 14-69q0-69-42-111T163-13q-41 0-80 10T19 23l33 96q21-12 48-21t58-9q23 0 38 10t15 34z"/><glyph unicode="t" glyph-name="t" horiz-adv-x="291" d="M4 500h55v94l119 37V500h97V394h-97V176q0-43 8-61t31-18q15 0 27 3t26 9l15-95Q263 3 234-4t-61-8q-57 0-85 33T59 132v262H4v106z"/><glyph unicode="u" glyph-name="u" horiz-adv-x="446" d="M158 500V201q0-59 11-82t40-23q28 0 47 20t27 50v334h119V152q0-41 3-80t11-72h-90l-21 68h-3q-19-35-51-58t-81-23q-31 0-55 8T74 25 48 82t-9 93v325h119z"/><glyph unicode="v" glyph-name="v" horiz-adv-x="399" d="M195 239l12-79h4l11 80 62 260h128L244-5h-80L-13 500h139l69-261z"/><glyph unicode="w" glyph-name="w" horiz-adv-x="596" d="M352 500l70-256 12-83h4l10 84 47 255h108L480-5h-94l-75 279-8 64h-6l-7-66L218-5h-97L-7 500h129l54-251 9-89h4l13 90 61 250h89z"/><glyph unicode="x" glyph-name="x" horiz-adv-x="439" d="M133 256L14 500h140l51-118 19-64 21 64 52 118h129L306 260 434 0H299l-61 130-22 71-23-71L132 0H4l129 256z"/><glyph unicode="y" glyph-name="y" horiz-adv-x="400" d="M203 219l13-78h5l9 79 58 280h122L285 49q-17-59-32-106t-32-80-38-50-52-18q-21 0-40 3t-34 12L77-88q13-5 26-5t25 10 21 30 15 53L-10 500h143l70-281z"/><glyph unicode="z" glyph-name="z" horiz-adv-x="381" d="M24 106l162 245 44 43H24v106h331V394L195 145l-43-39h203V0H24v106z"/><glyph unicode="{" glyph-name="braceleft" horiz-adv-x="313" d="M98 98q0 51-17 70t-49 19v96q32 0 49 20t17 65v214q0 53 20 86t71 33h107V599h-41q-23 0-33-14t-10-46V336q0-44-17-66t-40-28v-10q23-4 40-30t17-68V-68q0-31 9-45t35-15h40v-102H189q-91 0-91 118V98z"/><glyph unicode="|" glyph-name="bar" horiz-adv-x="188" d="M45 700h98v-830H45v830z"/><glyph unicode="}" glyph-name="braceright" horiz-adv-x="313" d="M223 373q0-51 17-70t49-19v-96q-32 0-49-20t-17-65v-215q0-54-21-86t-73-32H25v102h41q23 0 33 14t10 46v203q0 44 17 66t40 28v10q-23 4-40 30t-17 68v202q0 31-9 45t-35 15H25v102h107q91 0 91-117V373z"/><glyph unicode="~" glyph-name="asciitilde" horiz-adv-x="444" d="M23 378q39 38 71 52t59 15q24 0 45-8t40-18 37-18 39-8q15 0 30 6t33 22l44-103q-30-27-55-37t-47-11q-23 0-43 8t-40 19-39 20-41 9q-20 0-42-10t-50-38L23 378z"/><glyph glyph-name="uni00A0" horiz-adv-x="205"/><glyph unicode="¡" glyph-name="exclamdown" horiz-adv-x="251" d="M169-202H46v329l23 163h76l24-163v-329zM35 433q0 38 19 57t52 19q35 0 54-19t19-57q0-35-19-55t-54-20q-33 0-52 20t-19 55z"/><glyph unicode="¢" glyph-name="cent" horiz-adv-x="478" d="M414 28q-14-11-33-19T339-5v-95H227v90q-43 7-73 28t-48 56-27 78-9 98q0 110 40 176t117 83v91h112v-91q43-7 70-24l-25-96q-12 5-26 8t-29 6V96q20 3 35 9t26 13l24-90zM252 401q-32-11-48-47t-17-104q0-58 15-97t50-53v301z"/><glyph unicode="£" glyph-name="sterling" horiz-adv-x="478" d="M44 392h60q-12 26-21 58t-9 78q0 48 14 83t38 58 59 34 75 11q51 0 92-10t74-27l-38-103q-17 10-44 18t-66 9q-38 0-59-23t-22-71q0-35 10-61t25-54h117V292h-83q2-10 3-19t1-21q0-29-9-63t-26-55l-45-35v-6l66 16h183V0H44v109h2q25 1 45 12t33 29 20 41 7 48q0 29-6 53H44v100z"/><glyph unicode="¤" glyph-name="currency" horiz-adv-x="478" d="M56 607l71-70 17-33q18 14 42 20t52 7q26 0 52-7t44-19l17 32 70 70 70-73-69-70-34-15q25-37 25-93 0-27-6-50t-19-41l34-14 69-71-70-72-70 69-16 33q-17-12-44-19t-53-7q-27 0-51 6t-43 20l-17-33-71-69-69 72 69 71 33 16q-11 18-17 40t-6 49q0 27 6 50t19 43l-35 15-69 70 69 73zm109-250q0-33 20-55t54-22q33 0 53 22t21 55q0 32-20 55t-54 23q-33 0-53-23t-21-55z"/><glyph unicode="¥" glyph-name="yen" horiz-adv-x="478" d="M66 336h77L-12 700h150l97-265 10-76h5l11 78 95 263h135L334 336h78v-79H302v-58h110v-79H302V0H176v120H66v79h110v58H66v79z"/><glyph unicode="¦" glyph-name="brokenbar" horiz-adv-x="188" d="M45 213h98v-343H45v343zm98 144H45v343h98V357z"/><glyph unicode="§" glyph-name="section" horiz-adv-x="444" d="M121 481q-23 17-38 41t-15 66q0 54 36 90t115 36q48 0 93-9t67-22l-30-99q-21 10-51 17t-56 7q-30 0-42-11t-13-27q0-19 16-30t40-20 53-19 53-29 41-48 16-77q0-31-12-61t-35-54l-37-14q23-16 38-40t15-66q0-61-41-93T220-14q-56 0-95 11T59 24l31 96q20-11 47-19t62-9q30 0 43 10t14 31q0 19-16 29t-40 20-53 21-52 29-41 47-16 74q0 31 12 61t36 53l35 14zm127-212q17 12 28 32t11 44q0 34-24 50t-68 34q-17-12-27-30t-11-44q0-33 24-51t67-35z"/><glyph unicode="¨" glyph-name="dieresis" horiz-adv-x="432" d="M60 651q0 32 17 50t47 18q28 0 45-18t17-50q0-30-17-47t-45-18q-29 0-46 17t-18 48zm186 0q0 32 17 50t46 18q29 0 46-18t17-50q0-30-17-47t-46-18q-29 0-46 17t-17 48z"/><glyph unicode="©" glyph-name="copyright" horiz-adv-x="725" d="M51 298q0 72 24 129t66 98 99 62 123 22q65 0 122-21t99-62 66-98 24-130q0-72-24-129t-66-98-99-62-122-22q-72 0-130 21t-98 62-62 98-22 130zm86 0q0-54 16-96t47-73 71-46 92-16q49 0 90 16t72 46 46 72 17 97q0 54-16 96t-47 73-71 46-91 16q-50 0-91-16t-72-46-46-72-17-97zm334-137q-19-12-48-19t-62-8q-69 0-106 44t-37 120q0 78 39 121t104 43q32 0 56-7t48-21l-28-77q-15 8-28 10t-24 3q-25 0-38-17t-14-55q0-72 58-72 29 0 54 13l26-78z"/><glyph unicode="ª" glyph-name="ordfeminine" horiz-adv-x="347" d="M45 675q22 14 62 23t91 10q66 0 90-27t25-85q0-34-1-66t-1-63q0-24 1-45t5-42h-88l-13 44h-3q-10-17-30-32t-56-16q-46 0-72 27t-26 72q0 33 14 55t40 35 58 17 69 3q2 26-5 38t-36 12q-32 0-58-7t-44-15l-22 62zm165-149q-33 4-55-3t-23-35q0-16 8-25t22-10q23 0 33 9t15 19v45z"/><glyph unicode="«" glyph-name="guillemotleft" horiz-adv-x="405" d="M184 261l125 216 68-45-69-133-38-39 38-35 74-131-68-46-130 213zm-162-2l131 230 76-51-76-137-39-41 39-36 80-135-75-51L22 259z"/><glyph unicode="¬" glyph-name="logicalnot" horiz-adv-x="444" d="M40 409h368V186H296v117H40v106z"/><glyph unicode="­" glyph-name="uni00AD" horiz-adv-x="298" d="M45 344h208V230H45v114z"/><glyph unicode="®" glyph-name="registered" horiz-adv-x="595" d="M54 483q0 58 19 103t53 77 78 47 94 16q51 0 95-16t77-47 52-76 19-104q0-58-19-103t-53-77-77-47-94-16q-51 0-95 16t-78 47-52 76-19 104zm82 0q0-42 13-73t35-51 52-31 62-10q34 0 63 10t52 30 34 51 12 74q0 42-13 73t-35 51-51 31-62 11q-73 0-117-44t-45-122zm73 112q14 4 39 6t47 3q36 0 62-15t26-52q0-27-17-42t-44-17l24-12 56-94h-53l-54 90-41 13V372h-45v223zm77-30h-18q-8 0-14-4v-60h29q26 0 39 7t13 27q0 30-49 30z"/><glyph unicode="¯" glyph-name="overscore" horiz-adv-x="392" d="M60 658h272v-91H60v91z"/><glyph unicode="°" glyph-name="degree" horiz-adv-x="364" d="M44 548q0 37 10 68t29 52 45 34 57 12q64 0 103-43t40-123q0-78-39-121t-104-43q-63 0-102 43T44 548zm90 0q0-33 14-55t38-23q23 0 37 22t15 56q0 34-14 57t-38 23q-24 0-38-22t-14-58z"/><glyph unicode="±" glyph-name="plusminus" horiz-adv-x="444" d="M38 500h129v143h110V500h129V394H277v-94H167v94H38v106zm0-248h368V146H38v106z"/><glyph unicode="²" glyph-name="twosuperior" horiz-adv-x="353" d="M299 684q0-30-7-56t-20-50-28-45-33-40l-39-25 48 7h90v-95H45v67q23 18 49 43t49 54 37 58 15 58q0 51-46 51-22 0-41-6t-34-16l-29 83q29 20 63 27t63 8q60 0 94-31t34-92z"/><glyph unicode="³" glyph-name="threesuperior" horiz-adv-x="353" d="M144 464q36 0 50 15t15 39q0 23-15 36t-56 14H99v38l60 81 38 28-50-6H54v91h240v-60l-70-94-30-19 26-1q43-2 67-31t25-84q0-36-12-62t-34-43-48-25-58-8q-32 0-61 6t-50 18l21 86q37-19 74-19z"/><glyph unicode="´" glyph-name="acute" horiz-adv-x="281" d="M102 720h119v-30l-94-124H60l42 154z"/><glyph unicode="µ" glyph-name="mu" horiz-adv-x="476" d="M159 500V213q0-60 17-89t55-30q35 0 55 17t30 48v341h119V163q0-41 2-82t11-81h-89l-28 64h-4q-12-32-37-54t-66-22q-30 0-47 13t-31 33h-4l17-101v-133H40v700h119z"/><glyph unicode="¶" glyph-name="paragraph" d="M306 700h97v-830h-97v830zM147 294q-28 0-51 15t-40 43-26 64-9 81q0 44 11 81t31 64 50 42 64 16h67v-830h-97v424z"/><glyph unicode="·" glyph-name="middot" horiz-adv-x="212" d="M34 315q0 37 19 56t52 19q35 0 54-19t19-56q0-36-19-56t-54-20q-33 0-52 20t-19 56z"/><glyph unicode="¸" glyph-name="cedilla" horiz-adv-x="305" d="M191 0l-20-43q34-4 54-21t20-54q0-23-10-40t-29-28-42-18-50-6q-27 0-54 6l7 48q42-4 55 5t14 24q0 28-70 32l49 95h76z"/><glyph unicode="¹" glyph-name="onesuperior" horiz-adv-x="353" d="M63 475h78v168l9 46-26-32-46-31-44 69 131 112h82V475h70v-95H63v95z"/><glyph unicode="º" glyph-name="ordmasculine" horiz-adv-x="350" d="M25 542q0 46 11 78t31 52 47 30 61 10q33 0 60-8t48-29 31-52 12-81q0-48-11-80t-32-53-47-28-61-9q-33 0-60 8t-48 29-31 52-11 81zm106 0q0-48 10-67t34-20q12 0 20 3t14 14 8 27 3 43q0 51-11 69t-34 18q-23 0-33-18t-11-69z"/><glyph unicode="»" glyph-name="guillemotright" horiz-adv-x="405" d="M220 266L95 50 27 93l70 135 37 39-37 35-74 132 67 45 130-213zm163 2L252 38l-76 49 74 139 40 41-40 36-79 135 75 51 137-221z"/><glyph unicode="¼" glyph-name="onequarter" horiz-adv-x="749" d="M713 80h-61V0h-95v80H385v64l178 281h89V166h61V80zM557 250l7 55h-5l-19-51-38-65-30-30 43 7h42v84zm-54 465l81-39L242-14l-83 41 344 688zM395 544l8 46-26-33-44-31-45 70 131 111h81V280H395v264z"/><glyph unicode="½" glyph-name="onehalf" horiz-adv-x="770" d="M503 715l81-39L242-14l-83 41 344 688zm218-411q0-30-7-56t-20-50-28-45-33-40l-39-25 48 7h90V0H467v67q23 18 49 43t49 54 37 58 15 58q0 51-46 51-22 0-41-6t-34-16l-29 83q29 20 63 27t63 8q60 0 94-31t34-92zM394 544l8 46-26-33-44-31-45 70 131 111h81V280H394v264z"/><glyph unicode="¾" glyph-name="threequarters" horiz-adv-x="766" d="M521 715l81-39L260-14l-83 41 344 688zM133 364q36 0 50 15t15 39q0 23-15 36t-56 14H88v38l60 81 38 28-50-6H43v91h240v-60l-70-94-30-19 26-1q43-2 67-31t25-84q0-36-12-62t-34-43-48-25-58-8q-32 0-61 6t-50 18l21 86q37-19 74-19zM730 80h-61V0h-95v80H402v64l178 281h89V166h61V80zM574 250l7 55h-5l-19-51-38-65-30-30 43 7h42v84z"/><glyph unicode="¿" glyph-name="questiondown" horiz-adv-x="382" d="M271 290q4-46-4-80t-22-61-32-48-34-41-26-43-11-51q0-35 16-55t55-21q26 0 55 10t50 29l47-90q-31-23-73-39t-102-16q-80 0-125 43T19-50q0 47 11 79t28 57 36 45 36 42 28 49 12 68h101zm16 143q0-37-19-56t-52-19q-35 0-54 19t-19 56q0 36 19 56t54 20q33 0 52-20t19-56z"/><glyph unicode="À" glyph-name="Agrave" horiz-adv-x="501" d="M328 158H163L122 0H-3l203 705h99L503 0H371l-43 158zM190 262h116l-40 163-16 110h-4l-17-111-39-162zm144 490h-94l-130 88v30h142l82-118z"/><glyph unicode="Á" glyph-name="Aacute" horiz-adv-x="501" d="M328 158H163L122 0H-3l203 705h99L503 0H371l-43 158zM190 262h116l-40 163-16 110h-4l-17-111-39-162zm59 608h143v-30l-132-88h-93l82 118z"/><glyph unicode="Â" glyph-name="Acircumflex" horiz-adv-x="501" d="M328 158H163L122 0H-3l203 705h99L503 0H371l-43 158zM190 262h116l-40 163-16 110h-4l-17-111-39-162zm19 608h87l104-93v-39h-85l-47 41-17 34-18-33-50-42h-83v40l109 92z"/><glyph unicode="Ã" glyph-name="Atilde" horiz-adv-x="501" d="M328 158H163L122 0H-3l203 705h99L503 0H371l-43 158zM190 262h116l-40 163-16 110h-4l-17-111-39-162zM82 796q29 37 56 50t53 14q19 0 38-5t37-12 34-11 33-6q14 0 27 5t25 20l27-63q-26-29-49-39t-47-11q-19 0-37 5t-36 12-35 11-34 6q-17 0-33-7t-33-27l-26 58z"/><glyph unicode="Ä" glyph-name="Adieresis" horiz-adv-x="501" d="M328 158H163L122 0H-3l203 705h99L503 0H371l-43 158zM190 262h116l-40 163-16 110h-4l-17-111-39-162zM92 798q0 26 15 42t54 16q35 0 50-16t16-42q0-26-15-41t-51-16q-38 0-53 15t-16 42zm182 0q0 26 15 42t52 16q37 0 52-16t16-42q0-26-15-41t-53-16q-36 0-51 15t-16 42z"/><glyph unicode="Å" glyph-name="Aring" horiz-adv-x="501" d="M-3 0l199 691q-31 10-44 30t-13 50q0 18 5 34t18 29 34 20 54 7q61 0 86-24t26-66q0-27-13-49t-46-32L503 0H371l-43 158H163L122 0H-3zm193 262h116l-40 163-16 110h-4l-17-111-39-162zm24 509q0-31 36-31 21 0 29 7t8 24q0 17-8 25t-29 9q-36 0-36-34z"/><glyph unicode="Æ" glyph-name="AE" horiz-adv-x="717" d="M326 522l-26-97-65-148h96v245h-5zm5-349H187L108 0H-24l350 700h355V584H457V412h203V296H457V116h228V0H331v173z"/><glyph unicode="Ç" glyph-name="Ccedilla" horiz-adv-x="457" d="M442 28q-22-18-55-27t-68-13l-14-31q34-4 54-21t20-54q0-23-10-40t-29-28-42-18-50-6q-27 0-54 6l7 48q42-4 55 5t14 24q0 28-70 32l43 84q-46 6-85 29T91 84 46 193 29 351q0 106 22 176t59 111 84 59 95 17q49 0 85-8t60-18l-25-111q-19 10-44 15t-61 6q-69 0-106-60t-37-188q0-55 8-100t27-79 47-51 69-18q35 0 60 9t45 23l25-106z"/><glyph unicode="È" glyph-name="Egrave" horiz-adv-x="430" d="M45 700h350V584H171V412h203V296H171V116h228V0H45v700zm252 52h-94L73 840v30h142l82-118z"/><glyph unicode="É" glyph-name="Eacute" horiz-adv-x="430" d="M45 700h350V584H171V412h203V296H171V116h228V0H45v700zm189 170h143v-30l-132-88h-93l82 118z"/><glyph unicode="Ê" glyph-name="Ecircumflex" horiz-adv-x="430" d="M45 700h350V584H171V412h203V296H171V116h228V0H45v700zm131 170h87l104-93v-39h-85l-47 41-17 34-18-33-50-42H67v40l109 92z"/><glyph unicode="Ë" glyph-name="Edieresis" horiz-adv-x="430" d="M45 700h350V584H171V412h203V296H171V116h228V0H45v700zm15 98q0 26 15 42t54 16q35 0 50-16t16-42q0-26-15-41t-51-16q-38 0-53 15t-16 42zm182 0q0 26 15 42t52 16q37 0 52-16t16-42q0-26-15-41t-53-16q-36 0-51 15t-16 42z"/><glyph unicode="Ì" glyph-name="Igrave" horiz-adv-x="238" d="M56 700h126V0H56v700zm403 52h-94l-130 88v30h142l82-118z"/><glyph unicode="Í" glyph-name="Iacute" horiz-adv-x="238" d="M56 700h126V0H56v700zm319 170h143v-30l-132-88h-93l82 118z"/><glyph unicode="Î" glyph-name="Icircumflex" horiz-adv-x="238" d="M56 700h126V0H56v700zm279 170h87l104-93v-39h-85l-47 41-17 34-18-33-50-42h-83v40l109 92z"/><glyph unicode="Ï" glyph-name="Idieresis" horiz-adv-x="238" d="M56 700h126V0H56v700zm162 98q0 26 15 42t54 16q35 0 50-16t16-42q0-26-15-41t-51-16q-38 0-53 15t-16 42zm182 0q0 26 15 42t52 16q37 0 52-16t16-42q0-26-15-41t-53-16q-36 0-51 15t-16 42z"/><glyph unicode="Ð" glyph-name="Eth" horiz-adv-x="555" d="M-3 401h68v299q18 3 40 4t46 3 46 2 39 1q83 0 138-25t89-72 48-112 14-145q0-73-13-139t-48-117-92-81-146-30q-13 0-35 1t-46 2-46 3-34 4v323H-3v79zm194 0h108v-79H191V109q3-1 10-1t16-1 16-1 11-1q45 0 74 21t45 56 23 80 7 96q0 46-5 89t-21 75-44 52-74 20h-32q-16 0-26-3V401z"/><glyph unicode="Ñ" glyph-name="Ntilde" horiz-adv-x="540" d="M199 344l-46 123h-5l16-121V0H45v705h97l201-352 43-121h6l-16 119v349h119V-5h-97L199 344zm-95 452q29 37 56 50t53 14q19 0 38-5t37-12 34-11 33-6q14 0 27 5t25 20l27-63q-26-29-49-39t-47-11q-19 0-37 5t-36 12-35 11-34 6q-17 0-33-7t-33-27l-26 58z"/><glyph unicode="Ò" glyph-name="Ograve" horiz-adv-x="553" d="M29 350q0 178 61 271t186 93q65 0 112-25t77-73 44-115 15-151q0-178-62-271T276-14q-66 0-112 25T87 84 43 199 29 350zm132 0q0-53 6-98t20-79 35-52 54-19q58 0 87 59t29 189q0 51-6 96t-19 79-36 53-55 20q-115 0-115-248zm183 402h-94l-130 88v30h142l82-118z"/><glyph unicode="Ó" glyph-name="Oacute" horiz-adv-x="553" d="M29 350q0 178 61 271t186 93q65 0 112-25t77-73 44-115 15-151q0-178-62-271T276-14q-66 0-112 25T87 84 43 199 29 350zm132 0q0-53 6-98t20-79 35-52 54-19q58 0 87 59t29 189q0 51-6 96t-19 79-36 53-55 20q-115 0-115-248zm140 520h143v-30l-132-88h-93l82 118z"/><glyph unicode="Ô" glyph-name="Ocircumflex" horiz-adv-x="553" d="M29 350q0 178 61 271t186 93q65 0 112-25t77-73 44-115 15-151q0-178-62-271T276-14q-66 0-112 25T87 84 43 199 29 350zm132 0q0-53 6-98t20-79 35-52 54-19q58 0 87 59t29 189q0 51-6 96t-19 79-36 53-55 20q-115 0-115-248zm73 520h87l104-93v-39h-85l-47 41-17 34-18-33-50-42h-83v40l109 92z"/><glyph unicode="Õ" glyph-name="Otilde" horiz-adv-x="553" d="M29 350q0 178 61 271t186 93q65 0 112-25t77-73 44-115 15-151q0-178-62-271T276-14q-66 0-112 25T87 84 43 199 29 350zm132 0q0-53 6-98t20-79 35-52 54-19q58 0 87 59t29 189q0 51-6 96t-19 79-36 53-55 20q-115 0-115-248zm-51 446q29 37 56 50t53 14q19 0 38-5t37-12 34-11 33-6q14 0 27 5t25 20l27-63q-26-29-49-39t-47-11q-19 0-37 5t-36 12-35 11-34 6q-17 0-33-7t-33-27l-26 58z"/><glyph unicode="Ö" glyph-name="Odieresis" horiz-adv-x="553" d="M29 350q0 178 61 271t186 93q65 0 112-25t77-73 44-115 15-151q0-178-62-271T276-14q-66 0-112 25T87 84 43 199 29 350zm132 0q0-53 6-98t20-79 35-52 54-19q58 0 87 59t29 189q0 51-6 96t-19 79-36 53-55 20q-115 0-115-248zm-43 448q0 26 15 42t54 16q35 0 50-16t16-42q0-26-15-41t-51-16q-38 0-53 15t-16 42zm182 0q0 26 15 42t52 16q37 0 52-16t16-42q0-26-15-41t-53-16q-36 0-51 15t-16 42z"/><glyph unicode="×" glyph-name="multiply" horiz-adv-x="444" d="M112 541l111-124 111 124 76-73-115-129 115-131-76-73-111 124-112-125-77 72 118 133L36 468l76 73z"/><glyph unicode="Ø" glyph-name="Oslash" horiz-adv-x="553" d="M88 83q-31 48-45 115T29 350q0 178 61 271t186 93q72 0 125-33l18 34 79-41-32-61q30-48 44-114t14-149q0-178-62-271T276-14q-36 0-66 8t-55 22l-16-30-79 43 28 54zm254 484q-26 31-66 31-115 0-115-248 0-31 2-59t6-54l173 330zM213 129q25-27 63-27 58 0 87 59t29 189q0 29-2 55t-6 52L213 129z"/><glyph unicode="Ù" glyph-name="Ugrave" horiz-adv-x="515" d="M354 700h119V246q0-136-55-197T264-12Q149-12 96 47T42 229v471h126V251q0-82 22-114t73-33q49 0 70 34t21 113v449zm-28 52h-94l-130 88v30h142l82-118z"/><glyph unicode="Ú" glyph-name="Uacute" horiz-adv-x="515" d="M354 700h119V246q0-136-55-197T264-12Q149-12 96 47T42 229v471h126V251q0-82 22-114t73-33q49 0 70 34t21 113v449zm-58 170h143v-30l-132-88h-93l82 118z"/><glyph unicode="Û" glyph-name="Ucircumflex" horiz-adv-x="515" d="M354 700h119V246q0-136-55-197T264-12Q149-12 96 47T42 229v471h126V251q0-82 22-114t73-33q49 0 70 34t21 113v449zM220 870h87l104-93v-39h-85l-47 41-17 34-18-33-50-42h-83v40l109 92z"/><glyph unicode="Ü" glyph-name="Udieresis" horiz-adv-x="515" d="M354 700h119V246q0-136-55-197T264-12Q149-12 96 47T42 229v471h126V251q0-82 22-114t73-33q49 0 70 34t21 113v449zm-253 98q0 26 15 42t54 16q35 0 50-16t16-42q0-26-15-41t-51-16q-38 0-53 15t-16 42zm182 0q0 26 15 42t52 16q37 0 52-16t16-42q0-26-15-41t-53-16q-36 0-51 15t-16 42z"/><glyph unicode="Ý" glyph-name="Yacute" horiz-adv-x="495" d="M184 260L-4 700h150l97-265 10-76h5l11 78 95 263h135L310 261V0H184v260zm81 610h143v-30l-132-88h-93l82 118z"/><glyph unicode="Þ" glyph-name="Thorn" horiz-adv-x="477" d="M45 700h126v-73q19 1 39 1 46 0 90-8t80-34 57-70 22-119q0-65-18-111t-50-75-71-42-84-14h-32q-10 0-19 2t-14 2V0H45v700zm177-184q-31 0-51-5V273q6-2 22-3t23-2q22 0 42 5t35 21 24 40 9 64q0 34-8 56t-23 36-33 20-40 6z"/><glyph unicode="ß" glyph-name="germandbls" horiz-adv-x="535" d="M63 394H9v106h54v11q0 54 14 92t39 61 59 33 75 11q42 0 78-9t62-29 42-48 15-67q0-35-15-58t-33-43-34-36-15-38q0-19 12-32t30-25 40-25 40-32 31-45 12-66q0-33-10-63t-30-54-51-37-72-14q-38 0-73 9t-59 25l31 94q20-11 39-18t48-8q26 0 42 18t16 44q0 23-12 38t-30 28-40 25-40 29-31 41-12 59q0 36 15 59t33 41 33 34 15 39q0 26-22 42t-48 17q-36 0-55-22t-20-86V0H63v394z"/><glyph unicode="à" glyph-name="agrave" horiz-adv-x="413" d="M44 470q30 18 75 29t102 11q85 0 118-44t34-125q0-47-2-92t-4-89 1-84 14-77h-97l-19 61h-4q-16-29-45-48T144-7Q85-7 51 32T17 138q0 90 64 128t173 32q5 58-7 84t-54 26q-30 0-62-7t-57-20l-30 89zM187 95q27 0 44 13t25 30v83q-23 3-44 1t-37-9-25-20-10-35q0-31 12-47t35-16zm72 471h-66L89 690v30h121l49-154z"/><glyph unicode="á" glyph-name="aacute" horiz-adv-x="413" d="M44 470q30 18 75 29t102 11q85 0 118-44t34-125q0-47-2-92t-4-89 1-84 14-77h-97l-19 61h-4q-16-29-45-48T144-7Q85-7 51 32T17 138q0 90 64 128t173 32q5 58-7 84t-54 26q-30 0-62-7t-57-20l-30 89zM187 95q27 0 44 13t25 30v83q-23 3-44 1t-37-9-25-20-10-35q0-31 12-47t35-16zm9 625h119v-30l-94-124h-67l42 154z"/><glyph unicode="â" glyph-name="acircumflex" horiz-adv-x="413" d="M44 470q30 18 75 29t102 11q85 0 118-44t34-125q0-47-2-92t-4-89 1-84 14-77h-97l-19 61h-4q-16-29-45-48T144-7Q85-7 51 32T17 138q0 90 64 128t173 32q5 58-7 84t-54 26q-30 0-62-7t-57-20l-30 89zM187 95q27 0 44 13t25 30v83q-23 3-44 1t-37-9-25-20-10-35q0-31 12-47t35-16zm-13 637h85l91-182h-93l-32 66-13 49-13-49-37-66H73l101 182z"/><glyph unicode="ã" glyph-name="atilde" horiz-adv-x="413" d="M44 470q30 18 75 29t102 11q85 0 118-44t34-125q0-47-2-92t-4-89 1-84 14-77h-97l-19 61h-4q-16-29-45-48T144-7Q85-7 51 32T17 138q0 90 64 128t173 32q5 58-7 84t-54 26q-30 0-62-7t-57-20l-30 89zM187 95q27 0 44 13t25 30v83q-23 3-44 1t-37-9-25-20-10-35q0-31 12-47t35-16zM60 656q29 37 54 50t46 14q18 0 33-6t31-15 30-15 30-7q11 0 23 5t26 18l22-61q-27-32-50-44t-44-12q-18 0-33 6t-31 13-30 14-30 7q-13 0-26-5t-27-20l-24 58z"/><glyph unicode="ä" glyph-name="adieresis" horiz-adv-x="413" d="M44 470q30 18 75 29t102 11q85 0 118-44t34-125q0-47-2-92t-4-89 1-84 14-77h-97l-19 61h-4q-16-29-45-48T144-7Q85-7 51 32T17 138q0 90 64 128t173 32q5 58-7 84t-54 26q-30 0-62-7t-57-20l-30 89zM187 95q27 0 44 13t25 30v83q-23 3-44 1t-37-9-25-20-10-35q0-31 12-47t35-16zm125 556q0 32 17 50t47 18q28 0 45-18t17-50q0-30-17-47t-45-18q-29 0-46 17t-18 48zm186 0q0 32 17 50t46 18q29 0 46-18t17-50q0-30-17-47t-46-18q-29 0-46 17t-17 48z"/><glyph unicode="å" glyph-name="aring" horiz-adv-x="413" d="M44 470q30 18 75 29t102 11q85 0 118-44t34-125q0-47-2-92t-4-89 1-84 14-77h-97l-19 61h-4q-16-29-45-48T144-7Q85-7 51 32T17 138q0 90 64 128t173 32q5 58-7 84t-54 26q-30 0-62-7t-57-20l-30 89zM187 95q27 0 44 13t25 30v83q-23 3-44 1t-37-9-25-20-10-35q0-31 12-47t35-16zm-73 552q0 45 24 70t73 25q46 0 72-23t26-72q0-42-25-67t-73-26q-47 0-72 25t-25 68zm67 0q0-17 8-25t22-9q31 0 31 34 0 19-8 27t-23 9q-13 0-21-8t-9-28z"/><glyph unicode="æ" glyph-name="ae" horiz-adv-x="653" d="M257 223q-23 2-44 1t-37-9-26-21-10-36q0-28 12-44t35-16q28 0 45 13t25 32v80zm30-155q-21-34-53-55T146-8Q86-8 52 33T17 139q0 46 16 77t47 51 75 28 98 5q1 9 1 16t0 16q0 39-13 56t-47 18q-31 0-63-9t-57-23l-31 90q32 21 78 33t96 13q42 0 68-13t44-41q20 29 52 43t72 15q32 0 62-9t54-33 38-61 14-95q0-22-2-47t-8-53H370q2-66 25-96t75-31q31 0 57 9t41 21l39-83q-25-20-67-34t-93-15q-109 0-155 81h-5zm223 227q3 54-12 85t-48 32q-38 0-56-30t-21-87h137z"/><glyph unicode="ç" glyph-name="ccedilla" horiz-adv-x="350" d="M338 27q-18-15-41-23t-49-14l-15-33q34-4 54-21t20-54q0-23-10-40t-29-28-42-18-50-6q-27 0-54 6l7 48q42-4 55 5t14 24q0 28-70 32l43 85Q91 3 58 72T25 250q0 131 47 197t138 66q45 0 73-8t51-20l-28-99q-18 9-34 13t-40 5q-42 0-63-36t-21-118q0-68 21-111t69-43q25 0 42 6t33 17l25-92z"/><glyph unicode="è" glyph-name="egrave" horiz-adv-x="428" d="M381 37q-25-22-68-36t-90-14q-52 0-89 18T72 57t-35 82-12 111q0 135 53 199t149 65q32 0 62-9t53-32 38-60 15-95q0-22-2-47t-8-54H142q2-62 26-95t77-33q32 0 58 10t41 21l37-83zM225 412q-38 0-57-30t-22-86h138q3 57-12 86t-47 30zm46 154h-66L101 690v30h121l49-154z"/><glyph unicode="é" glyph-name="eacute" horiz-adv-x="428" d="M381 37q-25-22-68-36t-90-14q-52 0-89 18T72 57t-35 82-12 111q0 135 53 199t149 65q32 0 62-9t53-32 38-60 15-95q0-22-2-47t-8-54H142q2-62 26-95t77-33q32 0 58 10t41 21l37-83zM225 412q-38 0-57-30t-22-86h138q3 57-12 86t-47 30zm-2 308h119v-30l-94-124h-67l42 154z"/><glyph unicode="ê" glyph-name="ecircumflex" horiz-adv-x="428" d="M381 37q-25-22-68-36t-90-14q-52 0-89 18T72 57t-35 82-12 111q0 135 53 199t149 65q32 0 62-9t53-32 38-60 15-95q0-22-2-47t-8-54H142q2-62 26-95t77-33q32 0 58 10t41 21l37-83zM225 412q-38 0-57-30t-22-86h138q3 57-12 86t-47 30zm-46 320h85l91-182h-93l-32 66-13 49-13-49-37-66H78l101 182z"/><glyph unicode="ë" glyph-name="edieresis" horiz-adv-x="428" d="M381 37q-25-22-68-36t-90-14q-52 0-89 18T72 57t-35 82-12 111q0 135 53 199t149 65q32 0 62-9t53-32 38-60 15-95q0-22-2-47t-8-54H142q2-62 26-95t77-33q32 0 58 10t41 21l37-83zM225 412q-38 0-57-30t-22-86h138q3 57-12 86t-47 30zM65 651q0 32 17 50t47 18q28 0 45-18t17-50q0-30-17-47t-45-18q-29 0-46 17t-18 48zm186 0q0 32 17 50t46 18q29 0 46-18t17-50q0-30-17-47t-46-18q-29 0-46 17t-17 48z"/><glyph unicode="ì" glyph-name="igrave" horiz-adv-x="225" d="M53 500h119V0H53v500zm368 66h-66L251 690v30h121l49-154z"/><glyph unicode="í" glyph-name="iacute" horiz-adv-x="225" d="M53 500h119V0H53v500zm304 220h119v-30l-94-124h-67l42 154z"/><glyph unicode="î" glyph-name="icircumflex" horiz-adv-x="225" d="M53 500h119V0H53v500zm277 232h85l91-182h-93l-32 66-13 49-13-49-37-66h-89l101 182z"/><glyph unicode="ï" glyph-name="idieresis" horiz-adv-x="225" d="M53 500h119V0H53v500zm160 151q0 32 17 50t47 18q28 0 45-18t17-50q0-30-17-47t-45-18q-29 0-46 17t-18 48zm186 0q0 32 17 50t46 18q29 0 46-18t17-50q0-30-17-47t-46-18q-29 0-46 17t-17 48z"/><glyph unicode="ð" glyph-name="eth" horiz-adv-x="458" d="M142 244q0-81 24-116t65-36q19 0 34 10t27 32 18 58 7 88v17q0 11-1 22t-2 22-2 17q-13 18-35 26t-46 9q-44 0-66-39t-23-110zm7 336l48 37q-30 18-62 29l48 68q21-7 47-19 20-9 40-22l47 36 40-50-37-29q9-9 18-20 27-30 47-73t33-99 13-130q0-86-14-147T375 61 310 4t-87-18q-97 0-146 67T27 245q0 61 14 108t39 79 59 50 76 17q29 0 54-9t42-28q-18 70-63 114l-58-45-41 49z"/><glyph unicode="ñ" glyph-name="ntilde" horiz-adv-x="449" d="M291 0v304q0 55-13 77t-44 22q-26 0-45-16t-27-40V0H43v500h95l14-58h3q18 29 49 49t81 21q30 0 53-9t40-29 24-55 8-86V0H291zM77 656q29 37 54 50t46 14q18 0 33-6t31-15 30-15 30-7q11 0 23 5t26 18l22-61q-27-32-50-44t-44-12q-18 0-33 6t-31 13-30 14-30 7q-13 0-26-5t-27-20l-24 58z"/><glyph unicode="ò" glyph-name="ograve" horiz-adv-x="445" d="M25 250q0 133 52 198t145 65q100 0 149-66t49-197q0-134-52-198T222-13Q25-13 25 250zm123 0q0-75 17-116t57-41q38 0 56 35t19 122q0 77-17 117t-58 40q-35 0-54-35t-20-122zm123 316h-66L101 690v30h121l49-154z"/><glyph unicode="ó" glyph-name="oacute" horiz-adv-x="445" d="M25 250q0 133 52 198t145 65q100 0 149-66t49-197q0-134-52-198T222-13Q25-13 25 250zm123 0q0-75 17-116t57-41q38 0 56 35t19 122q0 77-17 117t-58 40q-35 0-54-35t-20-122zm76 470h119v-30l-94-124h-67l42 154z"/><glyph unicode="ô" glyph-name="ocircumflex" horiz-adv-x="445" d="M25 250q0 133 52 198t145 65q100 0 149-66t49-197q0-134-52-198T222-13Q25-13 25 250zm123 0q0-75 17-116t57-41q38 0 56 35t19 122q0 77-17 117t-58 40q-35 0-54-35t-20-122zm38 482h85l91-182h-93l-32 66-13 49-13-49-37-66H85l101 182z"/><glyph unicode="õ" glyph-name="otilde" horiz-adv-x="445" d="M25 250q0 133 52 198t145 65q100 0 149-66t49-197q0-134-52-198T222-13Q25-13 25 250zm123 0q0-75 17-116t57-41q38 0 56 35t19 122q0 77-17 117t-58 40q-35 0-54-35t-20-122zM73 656q29 37 54 50t46 14q18 0 33-6t31-15 30-15 30-7q11 0 23 5t26 18l22-61q-27-32-50-44t-44-12q-18 0-33 6t-31 13-30 14-30 7q-13 0-26-5t-27-20l-24 58z"/><glyph unicode="ö" glyph-name="odieresis" horiz-adv-x="445" d="M25 250q0 133 52 198t145 65q100 0 149-66t49-197q0-134-52-198T222-13Q25-13 25 250zm123 0q0-75 17-116t57-41q38 0 56 35t19 122q0 77-17 117t-58 40q-35 0-54-35t-20-122zM66 651q0 32 17 50t47 18q28 0 45-18t17-50q0-30-17-47t-45-18q-29 0-46 17t-18 48zm186 0q0 32 17 50t46 18q29 0 46-18t17-50q0-30-17-47t-46-18q-29 0-46 17t-17 48z"/><glyph unicode="÷" glyph-name="divide" horiz-adv-x="444" d="M38 393h368V287H38v106zm113-235q0 37 19 56t52 19q35 0 54-19t19-56q0-36-19-56t-54-20q-33 0-52 20t-19 56zm0 365q0 37 19 56t52 19q35 0 54-19t19-56q0-36-19-56t-54-20q-33 0-52 20t-19 56z"/><glyph unicode="ø" glyph-name="oslash" d="M62 78q-34 64-34 172 0 134 52 199t146 65q49 0 87-18l18 30 79-49-27-46q40-65 40-181 0-134-51-199T226-14q-28 0-51 5T132 7l-19-31-81 51 30 51zm117 36q18-22 47-22 38 0 57 35t19 123q0 19-1 35t-3 32L179 114zm90 276q-17 18-43 18-37 0-57-36t-20-122q0-33 3-60l117 200z"/><glyph unicode="ù" glyph-name="ugrave" horiz-adv-x="446" d="M158 500V201q0-59 11-82t40-23q28 0 47 20t27 50v334h119V152q0-41 3-80t11-72h-90l-21 68h-3q-19-35-51-58t-81-23q-31 0-55 8T74 25 48 82t-9 93v325h119zm107 66h-66L95 690v30h121l49-154z"/><glyph unicode="ú" glyph-name="uacute" horiz-adv-x="446" d="M158 500V201q0-59 11-82t40-23q28 0 47 20t27 50v334h119V152q0-41 3-80t11-72h-90l-21 68h-3q-19-35-51-58t-81-23q-31 0-55 8T74 25 48 82t-9 93v325h119zm54 220h119v-30l-94-124h-67l42 154z"/><glyph unicode="û" glyph-name="ucircumflex" horiz-adv-x="446" d="M158 500V201q0-59 11-82t40-23q28 0 47 20t27 50v334h119V152q0-41 3-80t11-72h-90l-21 68h-3q-19-35-51-58t-81-23q-31 0-55 8T74 25 48 82t-9 93v325h119zm26 232h85l91-182h-93l-32 66-13 49-13-49-37-66H83l101 182z"/><glyph unicode="ü" glyph-name="udieresis" horiz-adv-x="446" d="M158 500V201q0-59 11-82t40-23q28 0 47 20t27 50v334h119V152q0-41 3-80t11-72h-90l-21 68h-3q-19-35-51-58t-81-23q-31 0-55 8T74 25 48 82t-9 93v325h119zM63 651q0 32 17 50t47 18q28 0 45-18t17-50q0-30-17-47t-45-18q-29 0-46 17t-18 48zm186 0q0 32 17 50t46 18q29 0 46-18t17-50q0-30-17-47t-46-18q-29 0-46 17t-17 48z"/><glyph unicode="ý" glyph-name="yacute" horiz-adv-x="400" d="M203 219l13-78h5l9 79 58 280h122L285 49q-17-59-32-106t-32-80-38-50-52-18q-21 0-40 3t-34 12L77-88q13-5 26-5t25 10 21 30 15 53L-10 500h143l70-281zm2 501h119v-30l-94-124h-67l42 154z"/><glyph unicode="þ" glyph-name="thorn" horiz-adv-x="446" d="M43 700h119V463h3q17 23 41 37t63 14q76 0 114-59t38-192q0-64-12-115t-35-88-59-55-81-19q-24 0-41 4T162 2v-202H43v900zm187-292q-26 0-42-15t-26-42V111q10-9 22-14t34-5q40 0 60 39t20 135q0 70-15 106t-53 36z"/><glyph unicode="ÿ" glyph-name="ydieresis" horiz-adv-x="400" d="M203 219l13-78h5l9 79 58 280h122L285 49q-17-59-32-106t-32-80-38-50-52-18q-21 0-40 3t-34 12L77-88q13-5 26-5t25 10 21 30 15 53L-10 500h143l70-281zm101 432q0 32 17 50t47 18q28 0 45-18t17-50q0-30-17-47t-45-18q-29 0-46 17t-18 48zm186 0q0 32 17 50t46 18q29 0 46-18t17-50q0-30-17-47t-46-18q-29 0-46 17t-17 48z"/><glyph unicode="–" glyph-name="endash" horiz-adv-x="543" d="M87 343h368V234H87v109z"/><glyph unicode="—" glyph-name="emdash" horiz-adv-x="676" d="M88 343h499V234H88v109z"/><glyph unicode="‘" glyph-name="quoteleft" horiz-adv-x="188" d="M159 618q0-29-17-46t-44-18q-32 0-50 23t-19 62q0 39 11 67t27 47 32 30 29 16l32-51q-17-9-30-27t-16-39q17-2 31-18t14-46z"/><glyph unicode="’" glyph-name="quoteright" horiz-adv-x="188" d="M29 644q0 29 17 47t44 18q32 0 50-22t19-63q0-39-11-66t-26-45-33-30-29-16l-30 50q17 8 30 24t15 39q-17 1-31 16t-15 48z"/><glyph unicode="‚" glyph-name="quotesinglbase" horiz-adv-x="188" d="M29 62q0 29 17 47t44 18q32 0 50-22t19-63q0-39-11-66t-26-45-33-30-29-16L30-65q17 8 30 24T75-2Q58-1 44 14T29 62z"/><glyph unicode="“" glyph-name="quotedblleft" horiz-adv-x="342" d="M312 618q0-29-17-46t-44-18q-32 0-50 23t-19 62q0 39 11 67t27 47 32 30 29 16l32-51q-17-9-30-27t-16-39q17-2 31-18t14-46zm-153 0q0-29-17-46t-44-18q-32 0-50 23t-19 62q0 39 11 67t27 47 32 30 29 16l32-51q-17-9-30-27t-16-39q17-2 31-18t14-46z"/><glyph unicode="”" glyph-name="quotedblright" horiz-adv-x="342" d="M182 644q0 29 17 47t44 18q32 0 50-22t19-63q0-39-11-66t-26-45-33-30-29-16l-30 50q17 8 30 24t15 39q-17 1-31 16t-15 48zm-153 0q0 29 17 47t44 18q32 0 50-22t19-63q0-39-11-66t-26-45-33-30-29-16l-30 50q17 8 30 24t15 39q-17 1-31 16t-15 48z"/><glyph unicode="„" glyph-name="quotedblbase" horiz-adv-x="341" d="M182 62q0 29 17 47t44 18q32 0 50-22t19-63q0-39-11-66t-26-45-33-30-29-16l-30 50q17 8 30 24t15 39q-17 1-31 16t-15 48zM29 62q0 29 17 47t44 18q32 0 50-22t19-63q0-39-11-66t-26-45-33-30-29-16L30-65q17 8 30 24T75-2Q58-1 44 14T29 62z"/><glyph unicode="•" glyph-name="bullet" horiz-adv-x="372" d="M57 311q0 34 9 62t27 49 40 31 52 11q57 0 93-39t37-114q0-73-36-112t-94-40q-56 0-92 39T57 311z"/><glyph unicode="‹" glyph-name="guilsinglleft" horiz-adv-x="256" d="M22 259l131 230 73-47-73-141-39-41 39-36 80-135-75-51L22 259z"/><glyph unicode="›" glyph-name="guilsinglright" horiz-adv-x="256" d="M98 38L23 89l80 135 39 36-39 41-73 141 73 47 131-230L98 38z"/></font>
</defs>
</svg>
