<svg width="60" height="60" viewBox="0 0 60 60" xmlns="http://www.w3.org/2000/svg"><g fill="#FFF" fill-rule="evenodd"><path d="M7 28v1.916h3.38V39h2.257v-9.084H16V28z"/><path d="M22.435 36.137a1.06 1.06 0 00-.367-.837 4.038 4.038 0 00-.923-.586c-.37-.177-.772-.36-1.204-.547a6.11 6.11 0 01-1.205-.692 3.5 3.5 0 01-.921-1.022c-.245-.408-.368-.928-.368-1.56 0-.548.088-1.022.266-1.424.177-.403.43-.738.758-1.006a3.222 3.222 0 011.165-.596c.448-.128.95-.193 1.501-.193.636 0 1.236.057 1.799.17.563.112 1.027.275 1.392.49l-.673 1.85c-.23-.15-.573-.286-1.032-.41a5.705 5.705 0 00-1.486-.185c-.5 0-.884.102-1.149.306a.98.98 0 00-.399.82c0 .322.123.59.368.805.245.214.553.413.923.595.369.182.77.37 1.203.563.433.193.834.427 1.205.7.37.274.678.61.923 1.014.245.402.367.903.367 1.504s-.096 1.118-.29 1.553a2.939 2.939 0 01-.813 1.085 3.42 3.42 0 01-1.267.645 6.045 6.045 0 01-1.634.208c-.782 0-1.47-.074-2.064-.225-.593-.15-1.032-.3-1.314-.45l.69-1.883c.113.064.261.134.444.209.182.075.389.145.618.21.23.064.471.118.727.16.256.043.519.064.79.064.636 0 1.123-.11 1.462-.33.338-.22.508-.554.508-1.005m9.704 3.089a7.771 7.771 0 01-1.587.161c-.657 0-1.28-.105-1.87-.313a3.992 3.992 0 01-1.555-1.014c-.448-.467-.806-1.073-1.072-1.819-.265-.744-.398-1.648-.398-2.71 0-1.105.148-2.03.446-2.776.296-.745.683-1.345 1.157-1.802a4.248 4.248 0 011.587-.98 5.411 5.411 0 011.752-.298c.624 0 .656 1.962.187 1.962-.866 0-1.561.317-2.087.95-.526.632-.79 1.614-.79 2.944 0 .579.062 1.108.188 1.585.125.477.315.884.57 1.222.256.339.573.601.954.789.381.188.821.281 1.322.281.468 0 .865-.048 1.188-.145.323-.096.524 1.856.008 1.963" opacity=".7"/><path d="M48.265 28.26l-.015-.05c-.66-4.679-3.562-6.67-6.483-6.67a5.71 5.71 0 00-.28.007c-3.013.13-5.975 2.357-6.443 5.912-.671-.342-1.332-.5-1.952-.5-.32 0-.622.055-.914.135.069.116.133.239.186.373.192.493.232.999.232 1.336 0 .206-.015.397-.042.574.164-.078.342-.12.538-.12.296 0 .619.088.958.26a2.182 2.182 0 002.04-.028 2.298 2.298 0 001.168-1.721c.325-2.468 2.42-3.842 4.323-3.925a4.99 4.99 0 01.185-.004c2.295 0 3.85 1.714 4.274 4.701.016.118.042.234.076.347l.022.075a2.27 2.27 0 001.364 1.457c1.25.468 2.09 1.715 2.091 3.1 0 1.83-1.413 3.32-3.151 3.32h-.052c-.139.003-.282.004-.43.004l-.578-.003a61.593 61.593 0 00-.657-.005l-.299.002H33.667c.118.274.212.603.253 1.03.049.495.02.912-.057 1.268h10.563l.299-.001c.422 0 .839.007 1.235.007.165 0 .326 0 .483-.004 2.977 0 5.385-2.525 5.385-5.618-.003-2.357-1.427-4.46-3.563-5.26"/></g></svg>