<svg width="68" height="48" viewBox="0 0 68 48" fill="none" xmlns="http://www.w3.org/2000/svg">
<path fill-rule="evenodd" clip-rule="evenodd" d="M0 20.772V23.6709H5.12565V37.415H8.55084V23.6709H13.6522V20.772H0Z" fill="white"/>
<path opacity="0.8" fill-rule="evenodd" clip-rule="evenodd" d="M23.4139 33.0829C23.4217 32.8438 23.3757 32.6059 23.2794 32.3868C23.1831 32.1677 23.0388 31.9728 22.8572 31.8165C22.4332 31.4584 21.9621 31.1596 21.4571 30.9284L19.6292 30.1008C18.9825 29.8221 18.3698 29.4709 17.8028 29.0538C17.2386 28.6358 16.7632 28.1102 16.4042 27.5075C16.0326 26.8902 15.846 26.1034 15.846 25.1457C15.846 24.3181 15.981 23.6009 16.2495 22.9927C16.518 22.3845 16.9018 21.8761 17.4009 21.4706C17.8999 21.0651 18.4885 20.764 19.1681 20.5704C19.9098 20.3681 20.6761 20.2698 21.445 20.2784C22.3603 20.2738 23.2739 20.3594 24.1724 20.5341C25.0264 20.705 25.7302 20.9517 26.2839 21.2754L25.2645 24.0745C24.9172 23.8475 24.3953 23.6403 23.6991 23.4542C23.0028 23.2681 22.2519 23.1743 21.445 23.1743C20.6865 23.1743 20.104 23.3286 19.702 23.6372C19.3 23.9459 19.0968 24.3589 19.0968 24.8794C19.0968 25.3666 19.2834 25.7721 19.655 26.0959C20.0806 26.4552 20.5512 26.7578 21.0551 26.9961L22.88 27.8479C23.5257 28.1343 24.1385 28.4894 24.7078 28.907C25.2709 29.3219 25.7466 29.8432 26.1079 30.4412C26.4796 31.0494 26.6646 31.8074 26.6646 32.7183C26.6646 33.6291 26.519 34.4098 26.2247 35.0665C25.9477 35.7026 25.5254 36.2652 24.9915 36.7096C24.4621 37.1483 23.822 37.4721 23.0696 37.6839C22.2618 37.902 21.4277 38.0079 20.5909 37.9986C19.4047 37.9986 18.3611 37.8867 17.46 37.6582C16.559 37.4298 15.8946 37.2043 15.4668 36.9774L16.512 34.1299C16.7304 34.2486 16.9559 34.3542 17.187 34.4461C17.4931 34.5695 17.8061 34.6751 18.1244 34.7623C18.4718 34.8592 18.8389 34.9424 19.2287 35.0059C19.6186 35.0695 20.0145 35.1028 20.4256 35.1028C21.3903 35.1028 22.1291 34.9363 22.6433 34.6035C23.1575 34.2706 23.4154 33.7638 23.4154 33.0829M38.134 37.7566C37.3421 37.9199 36.5354 38.0016 35.7267 38.0002C34.7301 38.0002 33.785 37.8413 32.8916 37.5266C31.9948 37.2075 31.1861 36.6819 30.5313 35.9924C29.8517 35.2858 29.3086 34.369 28.9051 33.2403C28.5016 32.1116 28.3014 30.7453 28.3014 29.1385C28.3014 27.4666 28.5259 26.0686 28.9779 24.9384C29.43 23.8082 30.014 22.9034 30.7315 22.212C31.449 21.5205 32.2545 21.0273 33.1404 20.7277C33.9948 20.4325 34.8922 20.2802 35.7965 20.2769C36.7445 20.2769 36.7916 23.2469 36.0816 23.2469C34.768 23.2469 33.7122 23.725 32.9158 24.6827C32.1195 25.6404 31.7175 27.1247 31.7175 29.137C31.7094 29.9452 31.8052 30.7512 32.0027 31.5351C32.1662 32.2024 32.4606 32.8307 32.8688 33.384C33.2491 33.8905 33.7446 34.2997 34.3144 34.5777C34.8924 34.8622 35.5598 35.0029 36.3198 35.0029C37.0297 35.0029 37.6319 34.9303 38.1234 34.7835C38.6149 34.6368 38.9183 37.5916 38.134 37.7535" fill="white"/>
<path fill-rule="evenodd" clip-rule="evenodd" d="M62.5955 21.1643L62.5727 21.0902C61.57 14.0109 57.1695 11 52.7385 11L52.3138 11.0091C47.7434 11.2058 43.2503 14.5752 42.5403 19.9539C41.5225 19.4365 40.5198 19.1959 39.5793 19.1959C39.11 19.202 38.6436 19.2712 38.1929 19.4017C38.2975 19.5772 38.3946 19.7633 38.475 19.966C38.7663 20.712 38.8269 21.4775 38.8269 21.9874C38.8269 22.2991 38.8042 22.5881 38.7632 22.8559C39.0105 22.7394 39.2805 22.6743 39.5793 22.6743C40.0283 22.6743 40.5183 22.8075 41.0325 23.0692C41.4987 23.3075 42.015 23.432 42.5388 23.4323C43.0849 23.4323 43.631 23.2962 44.1255 23.0269C44.6055 22.7625 45.0161 22.389 45.324 21.9365C45.6318 21.484 45.8283 20.9655 45.8973 20.423C46.3903 16.6889 49.5697 14.61 52.4549 14.4844L52.7355 14.4784C56.2153 14.4784 58.5772 17.0717 59.2188 21.591C59.2431 21.7695 59.2825 21.9451 59.3341 22.116L59.3675 22.228C59.5212 22.7284 59.7875 23.1871 60.1461 23.5692C60.5047 23.9512 60.9461 24.2465 61.4365 24.4324C63.3327 25.1405 64.6069 27.0272 64.6099 29.1243C64.6099 31.893 62.4665 34.1459 59.8301 34.1459H59.7512L59.099 34.1535L58.2207 34.1489L57.2241 34.1414L56.7705 34.1444H40.4516C40.6305 34.559 40.7731 35.0582 40.8353 35.7043C40.9081 36.4517 40.8657 37.0826 40.7489 37.6213H56.772L57.2256 37.6182L59.099 37.6303L59.8316 37.6228C64.3475 37.6228 68.0002 33.804 68.0002 29.1243C67.9972 25.5581 65.8356 22.3747 62.5955 21.1643Z" fill="white"/>
</svg>
