<svg xmlns="http://www.w3.org/2000/svg" width="133" height="133" fill-rule="evenodd"><rect fill="#e4032e" width="133" height="133" rx="4"/><path d="M96.952 101.4a5.54 5.54 0 011.175.107 6.58 6.58 0 01.874.251v5.995c0 .772-.207 1.34-.62 1.708s-1.026.55-1.837.55c-.482 0-.87-.03-1.163-.1s-.544-.137-.753-.233l.253-.812c.185.072.4.14.614.203s.518.096.88.096c.337 0 .612-.03.825-.1s.384-.16.512-.3.217-.318.265-.537.072-.48.072-.782v-.573H98c-.16.23-.365.408-.614.53s-.574.185-.976.185c-.81 0-1.408-.25-1.79-.752s-.572-1.282-.572-2.34c0-1.02.245-1.793.735-2.323s1.213-.794 2.17-.794zm-30.062-.036c.273 0 .546.03.82.1s.518.173.735.34.394.404.53.71.205.71.205 1.212c0 .263-.024.553-.072.872H65.24c0 .35.036.66.108.93s.185.5.337.687.35.33.596.43.544.15.898.15c.273 0 .546-.048.82-.143s.478-.207.614-.334l.36.693c-.24.19-.544.342-.9.454s-.753.167-1.163.167c-.458 0-.855-.074-1.193-.22a2.12 2.12 0 01-.831-.633 2.73 2.73 0 01-.482-.985 4.937 4.937 0 01-.157-1.3c0-1.02.23-1.795.687-2.33s1.113-.8 1.964-.8zm-5.133-2.245h.964v6.603l.006.552.005.255a5.6 5.6 0 00.108.973h-.65l-.24-.848h-.05c-.16.28-.394.5-.7.693s-.663.275-1.072.275c-.803 0-1.4-.25-1.79-.752s-.584-1.286-.584-2.353c0-1.02.243-1.793.73-2.323s1.155-.794 2.006-.794c.297 0 .532.016.705.048a3.65 3.65 0 01.56.155V99.11zm22.905 2.388v3.403c0 .3.018.583.054.818s.098.43.187.585.21.273.36.352.345.12.578.12c.217 0 .4-.034.578-.102a1.51 1.51 0 00.452-.281 2.05 2.05 0 00.349-.412c.1-.155.183-.32.247-.496v-3.99h.964v4.275l.03.9c.02.307.054.575.102.806H87.9l-.24-.943h-.06c-.185.3-.434.57-.747.776s-.71.3-1.193.3c-.32 0-.604-.038-.85-.113a1.3 1.3 0 01-.614-.4c-.165-.19-.29-.448-.374-.77s-.127-.73-.127-1.224v-3.606h.964zm-6.4-2.388v2.974h.048c.185-.23.42-.4.705-.537s.596-.19.934-.19c.78 0 1.364.247 1.753.74s.584 1.258.584 2.293c0 1.043-.257 1.835-.77 2.376s-1.237.812-2.17.812c-.45 0-.857-.048-1.223-.143s-.64-.2-.825-.3V99.11h.964zm-30.484 2.293c.418 0 .753.056 1.006.167s.446.257.578.436.22.376.265.59.066.43.066.645l-.016.94-.02.458-.036 1.3.036.836c.024.263.068.506.133.728h-.71l-.253-.836h-.06a1.99 1.99 0 01-.271.328c-.108.107-.24.203-.392.287s-.33.153-.53.21-.43.084-.687.084a2.1 2.1 0 01-.717-.119 1.688 1.688 0 01-.572-.34 1.59 1.59 0 01-.38-.531 1.72 1.72 0 01-.14-.705c0-.35.072-.643.217-.878s.347-.422.608-.56.574-.24.94-.3.77-.1 1.21-.1h.33a2.36 2.36 0 01.331.024l.036-.645c0-.438-.088-.744-.265-.92s-.498-.263-.964-.263a3.5 3.5 0 00-.44.03l-.482.084a4.04 4.04 0 00-.47.131 2.39 2.39 0 00-.392.173l-.3-.717a3.49 3.49 0 011.066-.406 6.01 6.01 0 011.271-.131zm-10.953-2.388a6.09 6.09 0 01.958.078 2.67 2.67 0 01.886.299c.265.147.484.352.657.615s.26.6.26 1.015c0 .2-.032.402-.096.61a2.01 2.01 0 01-.289.579 1.92 1.92 0 01-.494.472 2.31 2.31 0 01-.711.31v.048a2.95 2.95 0 01.693.203c.22.096.416.227.584.394a1.94 1.94 0 01.41.609c.104.24.157.52.157.848 0 .43-.1.802-.27 1.117s-.418.57-.71.77a3.15 3.15 0 01-1.006.442 4.677 4.677 0 01-1.157.143H36.2c-.185 0-.378-.006-.578-.018l-.602-.048c-.2-.02-.378-.05-.53-.1v-8.23l1.036-.12 1.29-.048zm55.74 2.364a2.98 2.98 0 01.783.119l-.205.92a2.19 2.19 0 00-.687-.119c-.345 0-.62.094-.82.28s-.325.424-.374.71v4.18h-.964v-5.97h.675l.18.728h.048c.153-.27.335-.48.548-.627s.484-.22.813-.22zm-48.86 0a2.98 2.98 0 01.783.119l-.205.92a2.19 2.19 0 00-.687-.119c-.345 0-.62.094-.82.28s-.325.424-.374.71v4.18h-.964v-5.97h.675l.18.728h.048c.153-.27.335-.48.548-.627s.484-.22.813-.22zm29.845-.024c.33 0 .62.038.868.113a1.3 1.3 0 01.621.4c.165.19.29.448.374.77s.127.73.127 1.224v3.606h-.964v-3.403c0-.62-.1-1.09-.27-1.403s-.512-.472-.994-.472c-.426 0-.777.113-1.054.34a1.81 1.81 0 00-.584.854v4.084h-.964v-5.97h.675l.18.728h.048c.193-.255.452-.464.777-.627s.713-.245 1.163-.245zm-19.194 0c.33 0 .62.038.868.113a1.3 1.3 0 01.621.4c.165.19.29.448.374.77s.127.73.127 1.224v3.606h-.964v-3.403c0-.62-.1-1.09-.27-1.403s-.512-.472-.994-.472c-.426 0-.777.113-1.054.34a1.81 1.81 0 00-.584.854v4.084h-.964v-5.97h.675l.18.728h.048c.193-.255.452-.464.777-.627s.713-.245 1.163-.245zm6.18.872c-.554 0-.988.18-1.3.543s-.47.94-.47 1.738c0 .326.026.63.078.908s.14.517.26.717.28.356.476.472.436.173.717.173c.4 0 .735-.105.976-.316s.406-.53.494-.96v-2.962c-.145-.11-.31-.19-.494-.24s-.43-.072-.735-.072zm36.28 0c-.546 0-.976.183-1.29.55s-.47.94-.47 1.72c0 .334.028.64.084.92s.145.517.265.717a1.31 1.31 0 00.47.466 1.4 1.4 0 00.711.167c.4 0 .73-.102.964-.305s.398-.52.494-.95v-3.057c-.32-.15-.73-.227-1.23-.227zM79.77 102.2c-.402 0-.727.11-.976.334s-.43.537-.542.943v3.01c.153.088.337.153.554.197a3.4 3.4 0 00.675.066c.546 0 .982-.19 1.307-.573s.488-.98.488-1.79c0-.3-.028-.6-.084-.872s-.145-.502-.265-.693a1.36 1.36 0 00-.464-.454 1.36 1.36 0 00-.693-.167zm-31.75 2.58a6.24 6.24 0 00-.729.042 2.36 2.36 0 00-.627.155 1.1 1.1 0 00-.434.31.754.754 0 00-.163.496.88.88 0 00.301.687c.2.18.458.27.77.27.225 0 .426-.03.602-.1a1.75 1.75 0 00.458-.227 1.438 1.438 0 00.507-.627v-.99l-.17-.01-.173-.007-.343-.006zm-11.483-1.146H35.5v2.997a1.3 1.3 0 00.241.036l.337.024.374.018.337.006c.257 0 .506-.03.747-.1s.454-.155.64-.287a1.49 1.49 0 00.44-.484c.108-.19.163-.418.163-.68 0-.326-.066-.59-.2-.788s-.305-.354-.518-.466-.452-.187-.717-.227a5.35 5.35 0 00-.795-.06zM66.9 102.2c-.474 0-.853.123-1.14.37s-.456.67-.512 1.266h2.988c0-.605-.116-1.03-.35-1.272s-.562-.364-.988-.364zm-30.18-2.327l-.73.018-.24.017-.187.023-.074.014v2.842h.627l.31-.005.183-.007.265-.015.217-.02a3.31 3.31 0 00.542-.233c.17-.092.32-.2.452-.322a1.38 1.38 0 00.313-.43 1.24 1.24 0 00.114-.531c0-.263-.05-.48-.15-.65a1.17 1.17 0 00-.404-.412 1.755 1.755 0 00-.578-.22 3.34 3.34 0 00-.663-.066zM72.538 88c.482 0 .9.032 1.223.096s.608.14.825.227l-.325 1.385a2.403 2.403 0 00-.657-.19 6.05 6.05 0 00-.922-.06c-.667 0-1.203.235-1.61.705s-.608 1.198-.608 2.185c0 .43.048.822.145 1.176s.243.657.44.908.442.446.735.585.633.21 1.018.21c.36 0 .667-.036.916-.107s.466-.163.65-.275l.337 1.337c-.257.183-.584.314-.982.394s-.805.12-1.223.12c-.506 0-.986-.078-1.44-.233s-.853-.406-1.2-.752-.62-.796-.825-1.35-.307-1.224-.307-2.012c0-.82.114-1.507.343-2.06s.526-1 .892-1.337.773-.58 1.223-.728.9-.22 1.35-.22zm9.942 2.388c.482 0 .9.076 1.253.227a2.34 2.34 0 01.88.639c.233.275.408.607.524.997s.175.82.175 1.3c0 1.01-.247 1.79-.74 2.335s-1.19.818-2.1.818c-.482 0-.9-.076-1.253-.227s-.65-.364-.886-.64-.414-.607-.53-.997-.175-.82-.175-1.3c0-1.01.25-1.79.747-2.335s1.197-.818 2.097-.818zm5.766.167v3.39c0 .486.058.836.175 1.05s.343.322.68.322c.297 0 .544-.088.74-.263s.343-.4.44-.645v-3.857h1.566v4.156c0 .326.016.647.048.96s.08.6.145.854h-1.18l-.277-.884h-.048c-.185.303-.442.553-.77.752s-.72.3-1.17.3c-.305 0-.578-.04-.82-.12s-.442-.21-.602-.394-.283-.43-.367-.74-.127-.7-.127-1.17v-3.714h1.566zm-10.593-2.388v6.353c0 .28.036.482.108.61s.19.19.35.19c.096 0 .19-.008.283-.024s.207-.052.343-.107l.17 1.218c-.13.064-.325.127-.6.19s-.538.096-.82.096c-.458 0-.807-.105-1.048-.316s-.36-.56-.36-1.045v-7.165h1.566zM37.036 88c.5 0 .952.042 1.386.125s.79.205 1.072.364l-.518 1.373c-.177-.11-.442-.213-.795-.305s-.735-.137-1.145-.137c-.386 0-.68.076-.886.227a.72.72 0 00-.307.609.75.75 0 00.283.597c.19.16.426.307.71.442l.928.418c.333.143.643.316.928.52s.522.454.71.752.283.67.283 1.117-.074.83-.223 1.152-.357.59-.627.806-.594.374-.976.478-.8.155-1.26.155c-.602 0-1.133-.056-1.6-.167s-.795-.223-1.012-.334l.53-1.397a3.29 3.29 0 00.343.155 4.44 4.44 0 00.476.155c.177.048.363.088.56.12s.4.048.608.048c.5 0 .866-.082 1.127-.245s.392-.412.392-.746c0-.255-.094-.462-.283-.62s-.426-.305-.71-.436l-.928-.406c-.333-.14-.643-.3-.928-.513a2.63 2.63 0 01-.711-.758c-.19-.303-.283-.69-.283-1.158 0-.406.068-.758.205-1.057s.33-.547.584-.746a2.52 2.52 0 01.898-.442c.345-.096.73-.143 1.157-.143zm61.65.167v6.258l.012 1.003c.008.334.044.705.108 1.11h-1.12l-.217-.776h-.048c-.16.28-.392.504-.693.675s-.657.257-1.066.257c-.755 0-1.34-.247-1.76-.74s-.627-1.266-.627-2.317c0-1.02.233-1.81.7-2.376s1.15-.848 2.048-.848c.25 0 .454.014.614.042s.32.074.482.137v-2.424h1.566zM55.07 90.556v3.39c0 .486.058.836.175 1.05s.343.322.68.322c.297 0 .544-.088.74-.263s.343-.4.44-.645v-3.857h1.566v4.156c0 .326.016.647.048.96s.08.6.145.854h-1.18l-.277-.884h-.048c-.185.303-.442.553-.77.752s-.72.3-1.17.3c-.305 0-.578-.04-.82-.12s-.442-.21-.602-.394-.283-.43-.367-.74-.127-.7-.127-1.17v-3.714h1.566zm6.935-2.388v6.353c0 .28.036.482.108.61s.19.19.35.19c.096 0 .19-.008.283-.024s.207-.052.343-.107l.17 1.218c-.13.064-.325.127-.6.19s-.538.096-.82.096c-.458 0-.807-.105-1.048-.316s-.36-.56-.36-1.045v-7.165h1.566zm-18.516 2.22c.442 0 .797.036 1.066.107a3.64 3.64 0 01.729.275l-.374 1.266c-.185-.088-.367-.155-.548-.203s-.388-.072-.62-.072c-.434 0-.763.14-.988.424s-.337.734-.337 1.355a2.78 2.78 0 00.084.705c.056.215.14.402.253.56s.26.285.44.376.392.137.633.137c.265 0 .5-.034.675-.102s.35-.15.494-.245l.36 1.182c-.24.175-.532.308-.874.4a4.05 4.05 0 01-1.054.137c-.482 0-.9-.076-1.223-.227a2.08 2.08 0 01-.813-.639 2.603 2.603 0 01-.452-.997 5.6 5.6 0 01-.139-1.29c0-1.01.23-1.79.687-2.335s1.125-.818 2-.818zm4.73-2.22v3.057h.048a2.17 2.17 0 01.711-.609c.28-.15.64-.227 1.072-.227.305 0 .574.04.807.12s.428.21.584.394.273.432.35.746.114.703.114 1.164v3.714H50.34v-3.39c0-.486-.068-.836-.205-1.05s-.386-.322-.747-.322a1.13 1.13 0 00-.729.269c-.22.18-.367.408-.44.687v3.81h-1.566v-8.36h1.566zm47.998 3.56c-.442 0-.773.147-.994.442s-.33.8-.33 1.517c0 .5.1.92.27 1.23s.468.466.862.466c.305 0 .546-.074.723-.22s.3-.36.374-.64V91.99a1.2 1.2 0 00-.374-.197 1.767 1.767 0 00-.53-.066zm-13.738-.024c-.386 0-.687.143-.904.43s-.325.756-.325 1.41c0 .263.024.506.072.728a2.02 2.02 0 00.217.585 1.04 1.04 0 00.38.388 1.09 1.09 0 00.56.137c.4 0 .715-.147.916-.442s.3-.76.3-1.397c0-.55-.092-.993-.277-1.332s-.498-.508-.94-.508zm-15.214.705v1.373H64.24v-1.373h3.024zm-12.928-41.74l.254.006 4.8 3.38c-.348.58-1.07.85-1.708.516-4.516-2.354-8.727.612-8.7 6.034.003.92-.804 1.6-1.648 1.387-8.167-2.043-12.35 5.344-7.678 10.462 1.105 1.208 2.155 1.755 4.126 1.96l.49.043c.255.018.524.032.8.042l.593.014.64.004.688-.004.73-.012 32.17-.027c1.813 0 3.49-.596 4.895-1.595l.26-.192 2.56 2.71c-1.9 1.52-4.21 2.476-6.74 2.56l-1.257.017-1.04-.005-.25-.002L46.47 78l-1.068.004-.336-.003-.644-.014-.608-.024-.575-.036c-2.98-.225-4.62-.99-6.4-2.95-6.47-7.08-1.112-17.438 8.98-16.048.644-4.928 4.088-8.162 8.283-8.255l.253-.002zM74.753 37l9.11 11.67 5.25-.704 2.83 1.852v1.794l-.992-1.022h-1.84l-1.397 1.254L101 59.242v11.924l-6.908-8.408-15.29-7.363-5.812 4.08-8.21-2.14 2.6-2.152 9.805-1.47-5.906-10.02L60.8 37h13.953z" fill="#fff" fill-rule="nonzero"/></svg>