<svg xmlns="http://www.w3.org/2000/svg" height="133" viewBox="0 0 133 133" width="133"><rect fill="#fff" width="133" height="133" rx="3.547"/><path d="M129.453 0A3.55 3.55 0 01133 3.547v125.907a3.55 3.55 0 01-3.547 3.547H3.547A3.55 3.55 0 010 129.453V3.547A3.55 3.55 0 013.547 0h125.907zM97.67 95.648c-.985 0-1.73.275-2.234.825s-.757 1.355-.757 2.414c0 1.1.197 1.912.6 2.433s1.008.782 1.843.782c.414 0 .75-.064 1.005-.192a1.65 1.65 0 00.528-.415l.105-.137h.05v.596c0 .314-.025.585-.074.813s-.14.414-.273.56-.308.248-.528.3-.503.093-.85.093c-.372 0-.674-.033-.906-.1l-.436-.138-.197-.073-.26.844a3.58 3.58 0 00.776.242c.302.062.7.093 1.198.093.836 0 1.467-.2 1.893-.57.387-.346.6-.867.634-1.56l.005-.214v-6.23c-.265-.1-.565-.186-.9-.26s-.74-.112-1.2-.112zM66.7 95.61c-.877 0-1.552.277-2.023.832s-.708 1.36-.708 2.42c0 .497.054.943.16 1.34s.273.74.497 1.024.51.505.857.658.757.23 1.23.23a4.05 4.05 0 001.198-.174c.3-.093.56-.212.78-.358l.157-.114-.372-.72c-.14.132-.352.248-.633.348a2.52 2.52 0 01-.844.149c-.364 0-.672-.052-.925-.155s-.457-.252-.614-.447-.273-.432-.348-.714a3.53 3.53 0 01-.107-.755l-.004-.214h3.985a6.15 6.15 0 00.074-.906c0-.52-.07-.94-.21-1.26s-.323-.565-.546-.74-.476-.292-.757-.354a3.91 3.91 0 00-.844-.093zm18.3.15h-.993v3.75c0 .513.043.937.13 1.272s.215.602.385.8a1.34 1.34 0 00.633.416 2.9 2.9 0 00.875.118c.497 0 .906-.108 1.23-.323a2.49 2.49 0 00.647-.62l.122-.187h.062l.248.98h.683c-.05-.24-.085-.52-.106-.838l-.028-.623-.003-.3V95.76H87.9v4.146c-.066.182-.15.354-.254.515s-.223.304-.36.428a1.55 1.55 0 01-.465.292c-.174.07-.372.106-.596.106-.24 0-.44-.04-.596-.124s-.28-.205-.372-.366-.155-.364-.192-.608a5.16 5.16 0 01-.052-.616l-.003-.235V95.76zm-22.605-2.483h-.993v2.582c-.207-.074-.4-.128-.577-.16s-.42-.05-.726-.05c-.877 0-1.566.275-2.067.825s-.75 1.355-.75 2.414c0 1.11.2 1.924.602 2.445s1.016.782 1.843.782c.422 0 .8-.095 1.105-.286a2.05 2.05 0 00.63-.58l.09-.14h.05l.248.88h.67a5.87 5.87 0 01-.112-1.012l-.01-.545-.003-.604v-6.554zm16 0h-.993v8.33c.2.116.474.223.85.323s.797.15 1.26.15c.96 0 1.705-.28 2.234-.844s.794-1.386.794-2.47c0-1.076-.2-1.87-.602-2.383s-1.003-.77-1.806-.77a2.29 2.29 0 00-.962.2 1.94 1.94 0 00-.606.421l-.12.138h-.05v-3.09zm-42.69-.1l-1.328.05-.83.088-.24.036v8.553c.157.04.34.072.546.093l.62.05.304.014.292.005h.497a4.8 4.8 0 001.192-.149 3.23 3.23 0 001.037-.459 2.39 2.39 0 00.732-.801c.186-.327.28-.714.28-1.16 0-.34-.054-.633-.16-.88a2.02 2.02 0 00-.422-.633 1.94 1.94 0 00-.602-.41 3 3 0 00-.469-.16l-.245-.05v-.05a2.37 2.37 0 00.732-.323c.207-.14.377-.304.51-.5s.232-.387.298-.602.1-.426.1-.633c0-.43-.09-.782-.267-1.055a1.92 1.92 0 00-.677-.639 2.503 2.503 0 00-.912-.3 6.22 6.22 0 00-.987-.081zM47 95.66c-.455 0-.892.046-1.3.137a3.73 3.73 0 00-.904.314l-.195.108.3.745c.116-.066.25-.126.403-.18a4.13 4.13 0 01.484-.137l.497-.087c.16-.02.312-.03.453-.03.48 0 .81.09.993.273s.273.5.273.956a6.8 6.8 0 01-.037.67l-.172-.02-.17-.006h-.34c-.455 0-.87.03-1.248.093s-.7.166-.968.3a1.61 1.61 0 00-.627.583c-.15.244-.223.548-.223.912 0 .273.048.517.143.732s.226.4.39.552.362.27.6.354.474.124.74.124a2.63 2.63 0 00.708-.087c.207-.058.39-.13.546-.217a1.79 1.79 0 00.403-.298c.074-.074.14-.15.2-.226l.08-.115h.062l.26.87h.732a4.11 4.11 0 01-.137-.757l-.037-.87.017-.877.02-.463.037-1.452a3.35 3.35 0 00-.068-.67 1.55 1.55 0 00-.273-.614c-.137-.186-.335-.337-.596-.453S47.43 95.66 47 95.66zm6.778-.05c-.463 0-.863.085-1.198.254a2.309 2.309 0 00-.673.5l-.127.153h-.05l-.186-.757h-.695v6.207h.993V97.72c.116-.356.317-.652.602-.888s.648-.354 1.086-.354c.497 0 .838.163 1.024.5.163.286.255.694.275 1.224l.004.235v3.538h.993v-3.75c0-.513-.043-.937-.13-1.272s-.215-.602-.385-.8-.383-.337-.64-.416-.554-.118-.894-.118zm19.774 0c-.463 0-.863.085-1.198.254a2.309 2.309 0 00-.673.5l-.127.153h-.05l-.186-.757h-.695v6.207h.993V97.72c.116-.356.317-.652.602-.888s.648-.354 1.086-.354c.497 0 .838.163 1.024.5.163.286.255.694.275 1.224l.004.235v3.538h.993v-3.75c0-.513-.043-.937-.13-1.272s-.215-.602-.385-.8-.383-.337-.64-.416-.554-.118-.894-.118zm19.588.025c-.34 0-.62.077-.838.23a1.83 1.83 0 00-.467.49l-.098.16h-.05l-.186-.757h-.695v6.207h.993V97.62a1.27 1.27 0 01.385-.739c.207-.194.488-.292.844-.292.168 0 .342.023.524.07l.184.054.21-.956a3.036 3.036 0 00-.807-.124zm-50.336 0c-.34 0-.62.077-.838.23a1.83 1.83 0 00-.467.49l-.098.16h-.05l-.186-.757h-.695v6.207h.993V97.62a1.27 1.27 0 01.385-.739c.207-.194.488-.292.844-.292.168 0 .342.023.524.07l.184.054.21-.956a3.036 3.036 0 00-.807-.124zm17.34.88c.314 0 .567.025.757.074.143.037.274.093.393.168l.116.08v3.08c-.09.447-.26.78-.51 1s-.583.33-1.005.33c-.3 0-.536-.06-.74-.18a1.39 1.39 0 01-.49-.49c-.124-.207-.213-.455-.267-.745s-.08-.604-.08-.943c0-.828.16-1.43.484-1.806s.77-.565 1.34-.565zm37.377 0c.44 0 .813.058 1.12.173l.147.063v3.178c-.1.447-.27.776-.51.987s-.57.317-.993.317c-.3 0-.534-.058-.732-.174s-.36-.277-.484-.484-.215-.455-.273-.745-.087-.608-.087-.956c0-.81.16-1.407.484-1.788s.765-.57 1.328-.57zm-17.552-.037c.28 0 .52.058.714.174a1.41 1.41 0 01.478.472c.124.2.215.44.273.72a4.49 4.49 0 01.087.906c0 .844-.168 1.465-.503 1.862s-.784.596-1.347.596c-.24 0-.472-.023-.695-.068a2.025 2.025 0 01-.447-.14l-.124-.064v-3.128c.116-.422.302-.75.56-.98s.592-.348 1.005-.348zm-32.71 2.68l.354.006.178.008.175.01v1.03a1.41 1.41 0 01-.192.335c-.087.116-.197.22-.33.317s-.3.174-.472.236a1.92 1.92 0 01-.621.093c-.323 0-.588-.093-.794-.28s-.3-.424-.3-.714c0-.207.056-.38.168-.515s.26-.244.447-.323.4-.132.645-.16a6.37 6.37 0 01.751-.043zM35.43 97.97a5.46 5.46 0 01.819.062 2.31 2.31 0 01.739.236 1.43 1.43 0 01.534.484c.137.207.205.48.205.82a1.42 1.42 0 01-.168.708c-.112.2-.263.366-.453.503a1.91 1.91 0 01-.658.298 3.16 3.16 0 01-.77.093l-.348-.006-.196-.008-.537-.036-.182-.022-.066-.015V97.97h1.08zm31.282-1.5c.44 0 .778.126 1.018.38.213.224.332.597.356 1.12l.004.203H65c.058-.62.234-1.06.528-1.316s.685-.385 1.173-.385zm-31.095-2.408a3.41 3.41 0 01.683.068c.223.046.422.122.596.23s.312.25.416.428.155.403.155.677c0 .2-.04.383-.118.552s-.186.32-.323.447-.292.24-.465.335-.36.176-.56.242l-.106.012-.248.02-.332.014-.32.006h-.645v-2.954c.046-.01.102-.02.166-.027l.22-.02h.13l.75-.02zM72.518 80.7a4.41 4.41 0 00-1.39.23 3.39 3.39 0 00-1.26.757c-.377.352-.683.815-.92 1.4s-.354 1.29-.354 2.14c0 .82.106 1.516.317 2.092s.494 1.043.85 1.403.768.62 1.235.782.962.242 1.483.242c.43 0 .85-.04 1.26-.124.34-.07.632-.175.873-.32l.138-.09-.348-1.4a2.77 2.77 0 01-.67.286 3.44 3.44 0 01-.943.112c-.397 0-.747-.072-1.05-.217a2.09 2.09 0 01-.757-.608c-.203-.26-.354-.575-.453-.943s-.15-.776-.15-1.223c0-1.026.21-1.783.627-2.272s.97-.732 1.657-.732c.372 0 .69.02.95.062a2.68 2.68 0 01.527.135l.15.064.335-1.44c-.223-.09-.507-.17-.85-.236s-.763-.1-1.26-.1zm10.243 2.483c-.927 0-1.647.283-2.16.85s-.77 1.376-.77 2.427c0 .488.06.935.18 1.34s.302.75.546 1.037.548.507.912.664.794.236 1.29.236c.927 0 1.645-.283 2.154-.85s.763-1.376.763-2.427c0-.488-.06-.935-.18-1.34a2.84 2.84 0 00-.54-1.037 2.41 2.41 0 00-.906-.664c-.364-.157-.794-.236-1.29-.236zm5.94.174h-1.614v3.86c0 .488.043.894.13 1.217s.213.58.38.77.372.327.62.4.53.124.844.124c.463 0 .865-.103 1.204-.3a2.34 2.34 0 00.693-.63l.1-.153h.05l.286.92h1.217a6.423 6.423 0 01-.15-.888l-.044-.662-.006-.337v-4.32H90.8v4c-.1.265-.25.488-.453.67a1.1 1.1 0 01-.763.273c-.348 0-.58-.112-.7-.335-.105-.196-.164-.5-.177-.9l-.003-.183v-3.525zm-10.913-2.483h-1.614v7.448c0 .505.124.867.372 1.086s.608.33 1.08.33a3.57 3.57 0 00.844-.099c.218-.053.392-.106.52-.16l.088-.04-.174-1.266c-.14.058-.26.095-.354.112a1.7 1.7 0 01-.292.025c-.166 0-.286-.066-.36-.2-.06-.106-.095-.262-.107-.47l-.004-.164v-6.604zm-35.197 2.31c-.902 0-1.59.283-2.06.85s-.708 1.376-.708 2.427a5.87 5.87 0 00.143 1.341c.095.406.25.75.465 1.037s.494.507.838.664.763.236 1.26.236a4.14 4.14 0 001.086-.143c.28-.076.53-.18.745-.312l.155-.104-.372-1.23c-.15.1-.32.184-.51.254s-.422.106-.695.106a1.42 1.42 0 01-.652-.143 1.22 1.22 0 01-.453-.391 1.79 1.79 0 01-.261-.583 2.91 2.91 0 01-.087-.732c0-.645.116-1.115.348-1.41s.57-.44 1.018-.44a2.49 2.49 0 01.639.074 3.11 3.11 0 01.375.127l.2.084.385-1.316a3.73 3.73 0 00-.751-.286c-.277-.074-.643-.112-1.1-.112zM35.943 80.7a4.43 4.43 0 00-1.192.149c-.356.1-.664.252-.925.46a2.06 2.06 0 00-.602.776c-.14.3-.21.677-.21 1.1 0 .488.097.9.292 1.204a2.72 2.72 0 00.732.788c.294.21.612.39.956.534l.956.422c.294.137.538.288.732.453s.292.38.292.645c0 .348-.134.606-.403.776s-.656.254-1.16.254c-.215 0-.424-.017-.627-.05l-.577-.124a6.039 6.039 0 01-.5-.16l-.254-.1-.1-.05-.546 1.452c.223.116.57.232 1.043.348s1.018.174 1.64.174c.472 0 .904-.054 1.297-.16s.728-.273 1.005-.497a2.27 2.27 0 00.645-.838c.153-.335.23-.734.23-1.198s-.097-.85-.292-1.16a2.75 2.75 0 00-.732-.782 5.244 5.244 0 00-.956-.54l-.956-.434a3.314 3.314 0 01-.732-.46.78.78 0 01-.292-.621.75.75 0 01.317-.633c.21-.157.515-.236.912-.236.422 0 .815.048 1.18.143.303.08.544.166.72.26l.1.057.534-1.428c-.3-.166-.658-.292-1.105-.38s-.923-.13-1.428-.13zm25.724.174h-1.614v7.448c0 .505.124.867.372 1.086s.608.33 1.08.33a3.57 3.57 0 00.844-.099c.218-.053.392-.106.52-.16l.088-.04-.174-1.266c-.14.058-.26.095-.354.112a1.7 1.7 0 01-.292.025c-.166 0-.286-.066-.36-.2-.06-.106-.095-.262-.107-.47l-.004-.164v-6.604zm37.792 0h-1.614v2.52a2.49 2.49 0 00-.497-.143 3.69 3.69 0 00-.633-.043c-.927 0-1.63.294-2.1.88s-.72 1.41-.72 2.47c0 1.092.215 1.895.645 2.408s1.034.77 1.812.77c.422 0 .788-.09 1.1-.267.26-.148.467-.335.625-.56l.09-.14h.05l.223.807h1.154a9.04 9.04 0 01-.112-1.154l-.01-.52-.003-.52v-6.505zm-44.936 2.483h-1.614v3.86c0 .488.043.894.13 1.217s.213.58.38.77.372.327.62.4.53.124.844.124c.463 0 .865-.103 1.204-.3a2.34 2.34 0 00.693-.63l.1-.153h.05l.286.92h1.217a6.423 6.423 0 01-.15-.888l-.044-.662-.006-.337v-4.32H56.62v4c-.1.265-.25.488-.453.67a1.1 1.1 0 01-.763.273c-.348 0-.58-.112-.7-.335-.105-.196-.164-.5-.177-.9l-.003-.183v-3.525zm-7.058-2.483H45.85v8.69h1.614v-3.96c.074-.3.226-.528.453-.714a1.16 1.16 0 01.751-.279c.372 0 .63.112.77.335.123.196.192.5.208.9l.003.183v3.525h1.614v-3.86c0-.48-.04-.883-.118-1.2s-.2-.585-.36-.776a1.35 1.35 0 00-.602-.41 2.542 2.542 0 00-.832-.124c-.447 0-.815.08-1.105.236a2.256 2.256 0 00-.608.48l-.125.152h-.05v-3.178zm35.296 3.674c.455 0 .778.176.968.528s.286.813.286 1.384c0 .662-.103 1.146-.3 1.452s-.52.46-.943.46c-.223 0-.416-.048-.577-.143s-.292-.23-.39-.403a2.11 2.11 0 01-.223-.608 3.593 3.593 0 01-.074-.757c0-.68.112-1.167.335-1.465s.534-.447.93-.447zm14.153.025c.223 0 .406.023.546.068.094.03.182.07.265.12l.12.083v2.632c-.074.3-.203.51-.385.664s-.43.23-.745.23c-.406 0-.7-.16-.888-.484s-.28-.75-.28-1.28c0-.745.114-1.27.34-1.576s.57-.46 1.024-.46zm-29.827.708H63.97v1.428h3.116V85.27zm-14.51-40.05l-.258.001c-4.45.087-8.106 3.447-8.8 8.57-10.686-1.443-16.357 9.3-9.51 16.66 2.04 2.2 3.896 2.942 7.532 3.106l.623.022.658.012.695.003 1.116-.01.393-.007 32.913-.02 1.052.007.74-.002.52-.01c2.704 0 5.187-.925 7.24-2.452l.277-.212-2.7-2.813-.276.2c-1.395.972-3.043 1.577-4.824 1.648l-.888.016-1.086-.001-.56-.005-31.88.025-.736.012-.695.005-.648-.003-.307-.005-.583-.017-.543-.027c-2.53-.158-3.75-.707-5.038-2.09-4.948-5.313-.518-12.98 8.13-10.86.894.22 1.75-.486 1.745-1.44-.018-5.63 4.44-8.707 9.22-6.263.635.326 1.345.1 1.735-.426l.074-.11-5.072-3.508-.26-.006zM74.18 31.033H59.408L70.49 37.98l6.253 10.402-10.38 1.525-2.742 2.234 8.693 2.22 6.153-4.235 16.187 7.643 7.313 8.728V54.122L87.9 46.444l1.48-1.302h1.947l1.05 1.06V44.34l-2.997-1.922-5.558.73-9.643-12.115z" fill="#e4032e"/></svg>