<svg width="156" height="156" viewBox="0 0 156 156" xmlns="http://www.w3.org/2000/svg" xmlns:xlink="http://www.w3.org/1999/xlink"><defs><filter x="-3.3%" y="-2.7%" width="106.7%" height="106.7%" filterUnits="objectBoundingBox" id="a"><feOffset dy="1" in="SourceAlpha" result="shadowOffsetOuter1"/><feGaussianBlur stdDeviation="1.5" in="shadowOffsetOuter1" result="shadowBlurOuter1"/><feColorMatrix values="0 0 0 0 0 0 0 0 0 0 0 0 0 0 0 0 0 0 0.2 0" in="shadowBlurOuter1" result="shadowMatrixOuter1"/><feMorphology radius=".5" in="SourceAlpha" result="shadowSpreadOuter2"/><feOffset dy="2" in="shadowSpreadOuter2" result="shadowOffsetOuter2"/><feGaussianBlur stdDeviation=".5" in="shadowOffsetOuter2" result="shadowBlurOuter2"/><feColorMatrix values="0 0 0 0 0 0 0 0 0 0 0 0 0 0 0 0 0 0 0.12 0" in="shadowBlurOuter2" result="shadowMatrixOuter2"/><feOffset dy="1" in="SourceAlpha" result="shadowOffsetOuter3"/><feGaussianBlur stdDeviation=".5" in="shadowOffsetOuter3" result="shadowBlurOuter3"/><feColorMatrix values="0 0 0 0 0 0 0 0 0 0 0 0 0 0 0 0 0 0 0.14 0" in="shadowBlurOuter3" result="shadowMatrixOuter3"/><feMerge><feMergeNode in="shadowMatrixOuter1"/><feMergeNode in="shadowMatrixOuter2"/><feMergeNode in="shadowMatrixOuter3"/></feMerge></filter><rect id="b" x="0" y="0" width="150" height="150" rx="4"/></defs><g transform="translate(3 2)" fill="none" fill-rule="evenodd"><use fill="#000" filter="url(#a)" xlink:href="#b"/><use fill="#FFF" xlink:href="#b"/><rect fill="#E4032E" width="150" height="150" rx="4"/><path d="M27 27h96v96H27z"/><path d="M41.699 98.368a.91.91 0 00-.329-.728 3.63 3.63 0 00-.826-.511c-.331-.154-.69-.313-1.078-.476a5.511 5.511 0 01-1.078-.602 3.07 3.07 0 01-.826-.889c-.22-.355-.329-.807-.329-1.358 0-.476.08-.889.238-1.239.159-.35.385-.642.679-.875a2.917 2.917 0 011.043-.518c.401-.112.85-.168 1.344-.168.57 0 1.106.049 1.61.147.504.098.92.24 1.246.427l-.602 1.61c-.205-.13-.513-.25-.924-.357a5.246 5.246 0 00-1.33-.161c-.448 0-.791.089-1.029.266a.845.845 0 00-.357.714c0 .28.11.513.329.7.22.187.495.36.826.518.331.159.69.322 1.078.49a5.79 5.79 0 011.078.609c.331.238.607.532.826.882.22.35.329.786.329 1.309 0 .523-.086.973-.259 1.351a2.56 2.56 0 01-.728.945c-.313.252-.69.439-1.134.56a5.533 5.533 0 01-1.463.182c-.7 0-1.316-.065-1.848-.196-.532-.13-.924-.261-1.176-.392l.616-1.638c.103.056.236.117.399.182.163.065.348.126.553.182.205.056.422.103.651.14.229.037.464.056.707.056.57 0 1.006-.096 1.309-.287.303-.191.455-.483.455-.875zm8.506 2.198a3.04 3.04 0 01-1.015.469 4.67 4.67 0 01-1.225.161c-.56 0-1.034-.089-1.421-.266a2.422 2.422 0 01-.945-.749 3.089 3.089 0 01-.525-1.169 6.62 6.62 0 01-.161-1.512c0-1.185.266-2.098.798-2.737.532-.64 1.307-.959 2.324-.959.513 0 .926.042 1.239.126.313.084.595.191.847.322l-.434 1.484a3.669 3.669 0 00-.637-.238 2.807 2.807 0 00-.721-.084c-.504 0-.887.166-1.148.497-.261.331-.392.861-.392 1.589 0 .299.033.574.098.826s.163.471.294.658c.13.187.301.334.511.441.21.107.455.161.735.161.308 0 .57-.04.784-.119.215-.08.406-.175.574-.287l.42 1.386zm5.79.434v-3.976c0-.57-.08-.98-.238-1.232-.159-.252-.448-.378-.868-.378-.308 0-.59.105-.847.315a1.49 1.49 0 00-.511.805V101h-1.82v-9.8h1.82v3.584h.056c.224-.299.5-.537.826-.714.327-.177.742-.266 1.246-.266.355 0 .667.047.938.14.27.093.497.247.679.462.182.215.317.506.406.875.089.369.133.824.133 1.365V101h-1.82zm5.496-7v3.976c0 .57.068.98.203 1.232s.399.378.791.378c.345 0 .632-.103.861-.308.229-.205.399-.457.511-.756V94h1.82v4.872c0 .383.019.758.056 1.127.037.369.093.702.168 1.001h-1.372l-.322-1.036h-.056a2.616 2.616 0 01-.896.882c-.383.233-.835.35-1.358.35-.355 0-.672-.047-.952-.14a1.564 1.564 0 01-.7-.462c-.187-.215-.329-.504-.427-.868-.098-.364-.147-.821-.147-1.372V94h1.82zm8.058 4.648c0 .327.042.565.126.714.084.15.22.224.406.224.112 0 .222-.01.329-.028.107-.019.24-.06.399-.126l.196 1.428c-.15.075-.378.15-.686.224a4.026 4.026 0 01-.952.112c-.532 0-.938-.124-1.218-.371s-.42-.656-.42-1.225v-8.4h1.82v7.448zm2.598-2.478h3.514v1.61h-3.514v-1.61zm12.16 4.424c-.299.215-.679.369-1.141.462-.462.093-.936.14-1.421.14a5.092 5.092 0 01-1.673-.273 3.578 3.578 0 01-1.393-.882c-.401-.406-.721-.933-.959-1.582s-.357-1.435-.357-2.359c0-.961.133-1.766.399-2.415s.611-1.171 1.036-1.568a3.823 3.823 0 011.421-.854 4.973 4.973 0 011.568-.259c.56 0 1.034.037 1.421.112.387.075.707.163.959.266l-.378 1.624a2.776 2.776 0 00-.763-.224 6.968 6.968 0 00-1.071-.07c-.775 0-1.398.275-1.869.826-.471.55-.707 1.405-.707 2.562 0 .504.056.964.168 1.379.112.415.282.77.511 1.064.229.294.513.523.854.686.34.163.735.245 1.183.245.42 0 .775-.042 1.064-.126.29-.084.541-.191.756-.322l.392 1.568zm3.424-1.946c0 .327.042.565.126.714.084.15.22.224.406.224.112 0 .222-.01.329-.028.107-.019.24-.06.399-.126l.196 1.428c-.15.075-.378.15-.686.224a4.026 4.026 0 01-.952.112c-.532 0-.938-.124-1.218-.371s-.42-.656-.42-1.225v-8.4h1.82v7.448zm2.304-1.148c0-1.185.29-2.098.868-2.737.579-.64 1.39-.959 2.436-.959.56 0 1.045.089 1.456.266.41.177.751.427 1.022.749.27.322.474.712.609 1.169.135.457.203.961.203 1.512 0 1.185-.287 2.098-.861 2.737-.574.64-1.384.959-2.429.959-.56 0-1.045-.089-1.456-.266a2.783 2.783 0 01-1.029-.749 3.145 3.145 0 01-.616-1.169 5.314 5.314 0 01-.203-1.512zm1.876 0c0 .308.028.593.084.854.056.261.14.49.252.686.112.196.259.348.441.455.182.107.399.161.651.161.476 0 .83-.173 1.064-.518.233-.345.35-.891.35-1.638 0-.644-.107-1.164-.322-1.561-.215-.397-.579-.595-1.092-.595-.448 0-.798.168-1.05.504-.252.336-.378.887-.378 1.652zm8.128-3.5v3.976c0 .57.068.98.203 1.232s.399.378.791.378c.345 0 .632-.103.861-.308.229-.205.399-.457.511-.756V94h1.82v4.872c0 .383.019.758.056 1.127.037.369.093.702.168 1.001h-1.372l-.322-1.036h-.056a2.616 2.616 0 01-.896.882c-.383.233-.835.35-1.358.35-.355 0-.672-.047-.952-.14a1.564 1.564 0 01-.7-.462c-.187-.215-.329-.504-.427-.868-.098-.364-.147-.821-.147-1.372V94h1.82zm12.132 4.536c0 .392.005.784.014 1.176.01.392.051.826.126 1.302h-1.302l-.252-.91h-.056c-.187.327-.455.59-.805.791-.35.2-.763.301-1.239.301-.877 0-1.559-.29-2.044-.868-.485-.579-.728-1.484-.728-2.716 0-1.195.27-2.123.812-2.786.541-.663 1.335-.994 2.38-.994.29 0 .527.016.714.049.187.033.373.086.56.161V91.2h1.82v7.336zm-3.094 1.12c.355 0 .635-.086.84-.259.205-.173.35-.422.434-.749V95.68a1.389 1.389 0 00-.434-.231 2.045 2.045 0 00-.616-.077c-.513 0-.898.173-1.155.518-.257.345-.385.938-.385 1.778 0 .597.105 1.078.315 1.442.21.364.544.546 1.001.546zm-65.591 7.784a2.42 2.42 0 01-.448 1.393c-.15.21-.34.394-.574.553-.233.159-.509.28-.826.364v.056c.28.047.548.126.805.238a2.19 2.19 0 011.155 1.176c.121.28.182.611.182.994 0 .504-.105.94-.315 1.309-.21.369-.485.67-.826.903-.34.233-.73.406-1.169.518a5.411 5.411 0 01-1.344.168h-.56c-.215 0-.439-.007-.672-.021a17.67 17.67 0 01-.7-.056 4.007 4.007 0 01-.616-.105v-9.646c.345-.056.747-.103 1.204-.14a18.65 18.65 0 011.498-.056c.364 0 .735.03 1.113.091.378.06.721.177 1.029.35.308.173.562.413.763.721.2.308.301.705.301 1.19zm-3.248 6.664c.299 0 .588-.035.868-.105.28-.07.527-.182.742-.336a1.74 1.74 0 00.511-.567c.126-.224.189-.49.189-.798 0-.383-.077-.69-.231-.924a1.613 1.613 0 00-.602-.546 2.605 2.605 0 00-.833-.266 6.16 6.16 0 00-.924-.07H38.74v3.514c.065.019.159.033.28.042.121.01.252.019.392.028a12.308 12.308 0 00.826.028zm-.77-4.592c.159 0 .35-.005.574-.014.224-.01.41-.023.56-.042a3.83 3.83 0 00.63-.273c.196-.107.371-.233.525-.378a1.62 1.62 0 00.364-.504c.089-.191.133-.399.133-.623 0-.308-.058-.562-.175-.763a1.368 1.368 0 00-.469-.483 2.038 2.038 0 00-.672-.259 3.848 3.848 0 00-.77-.077c-.308 0-.59.007-.847.021a4.04 4.04 0 00-.581.063v3.332h.728zm9.478-.434a2.525 2.525 0 00-.798-.14c-.401 0-.719.11-.952.329-.233.22-.378.497-.434.833v4.9h-1.12v-7h.784l.21.854h.056c.177-.317.39-.562.637-.735.247-.173.562-.259.945-.259.27 0 .574.047.91.14l-.238 1.078zm1.344-.56a4.033 4.033 0 011.239-.476 6.922 6.922 0 011.477-.154c.485 0 .875.065 1.169.196.294.13.518.301.672.511.154.21.257.441.308.693.051.252.077.504.077.756 0 .56-.014 1.106-.042 1.638a28.832 28.832 0 00-.042 1.512c0 .345.014.672.042.98.028.308.08.593.154.854h-.826l-.294-.98h-.07a2.33 2.33 0 01-.315.385 2.02 2.02 0 01-.455.336 2.873 2.873 0 01-1.414.343 2.42 2.42 0 01-.833-.14 1.866 1.866 0 01-1.106-1.022 2.022 2.022 0 01-.161-.826c0-.41.084-.754.252-1.029a1.82 1.82 0 01.707-.658c.303-.163.667-.28 1.092-.35.425-.07.894-.105 1.407-.105h.385c.126 0 .254.01.385.028a7.67 7.67 0 00.042-.756c0-.513-.103-.873-.308-1.078-.205-.205-.579-.308-1.12-.308a4.09 4.09 0 00-.511.035 6.422 6.422 0 00-.56.098 4.66 4.66 0 00-.546.154c-.173.06-.324.128-.455.203l-.35-.84zm1.988 5.614c.261 0 .495-.035.7-.105.205-.07.383-.159.532-.266a1.694 1.694 0 00.588-.735v-1.162a10.848 10.848 0 00-.798-.028c-.29 0-.572.016-.847.049a2.681 2.681 0 00-.728.182c-.21.089-.378.21-.504.364a.887.887 0 00-.189.581c0 .327.117.595.35.805.233.21.532.315.896.315zm9.562.868v-3.99c0-.728-.105-1.276-.315-1.645-.21-.369-.595-.553-1.155-.553-.495 0-.903.133-1.225.399a2.13 2.13 0 00-.679 1.001V115h-1.12v-7h.784l.21.854h.056c.224-.299.525-.544.903-.735.378-.191.828-.287 1.351-.287.383 0 .719.044 1.008.133.29.089.53.245.721.469.191.224.336.525.434.903.098.378.147.856.147 1.435V115h-1.12zm8.54-2.408c0 .476.005.908.014 1.295.01.387.051.768.126 1.141h-.756l-.28-.994h-.056a2.256 2.256 0 01-.812.812c-.355.215-.77.322-1.246.322-.933 0-1.626-.294-2.079-.882-.453-.588-.679-1.507-.679-2.758 0-1.195.282-2.102.847-2.723.565-.62 1.342-.931 2.331-.931.345 0 .618.019.819.056.2.037.418.098.651.182V105.2h1.12v7.392zm-2.828 1.596c.476 0 .854-.124 1.134-.371.28-.247.471-.623.574-1.127v-3.472a1.569 1.569 0 00-.574-.28 3.5 3.5 0 00-.854-.084c-.644 0-1.148.212-1.512.637-.364.425-.546 1.104-.546 2.037 0 .383.03.737.091 1.064.06.327.161.607.301.84.14.233.324.418.553.553.229.135.506.203.833.203zm10.094.252c-.28.224-.632.401-1.057.532a4.57 4.57 0 01-1.351.196c-.532 0-.994-.086-1.386-.259a2.466 2.466 0 01-.966-.742 3.212 3.212 0 01-.56-1.155 5.788 5.788 0 01-.182-1.512c0-1.195.266-2.105.798-2.73s1.293-.938 2.282-.938c.317 0 .635.035.952.105.317.07.602.203.854.399s.457.474.616.833c.159.36.238.833.238 1.421 0 .308-.028.649-.084 1.022h-4.494c0 .41.042.775.126 1.092.084.317.215.586.392.805.177.22.408.387.693.504.285.117.632.175 1.043.175.317 0 .635-.056.952-.168.317-.112.555-.243.714-.392l.42.812zm-2.408-5.628c-.55 0-.992.145-1.323.434-.331.29-.53.784-.595 1.484h3.472c0-.71-.135-1.206-.406-1.491-.27-.285-.653-.427-1.148-.427zM84.142 115v-3.99c0-.728-.105-1.276-.315-1.645-.21-.369-.595-.553-1.155-.553-.495 0-.903.133-1.225.399a2.13 2.13 0 00-.679 1.001V115h-1.12v-7h.784l.21.854h.056c.224-.299.525-.544.903-.735.378-.191.828-.287 1.351-.287.383 0 .719.044 1.008.133.29.089.53.245.721.469.191.224.336.525.434.903.098.378.147.856.147 1.435V115h-1.12zm3.164-9.8h1.12v3.486h.056c.215-.27.488-.48.819-.63a2.61 2.61 0 011.085-.224c.905 0 1.584.29 2.037.868.453.579.679 1.475.679 2.688 0 1.223-.299 2.151-.896 2.786-.597.635-1.437.952-2.52.952-.523 0-.996-.056-1.421-.168-.425-.112-.744-.233-.959-.364V105.2zm2.884 3.612c-.467 0-.845.13-1.134.392-.29.261-.5.63-.63 1.106v3.528c.177.103.392.18.644.231.252.051.513.077.784.077.635 0 1.141-.224 1.519-.672.378-.448.567-1.148.567-2.1 0-.364-.033-.705-.098-1.022a2.455 2.455 0 00-.308-.812 1.588 1.588 0 00-.539-.532c-.22-.13-.488-.196-.805-.196zm5.684-.812v3.99c0 .364.021.684.063.959.042.275.114.504.217.686.103.182.243.32.42.413.177.093.401.14.672.14.252 0 .476-.04.672-.119a1.75 1.75 0 00.525-.329c.154-.14.29-.301.406-.483.117-.182.212-.376.287-.581V108h1.12v5.012c0 .336.012.684.035 1.043.023.36.063.674.119.945h-.77l-.28-1.106h-.07a2.784 2.784 0 01-.868.91c-.364.243-.826.364-1.386.364-.373 0-.702-.044-.987-.133a1.51 1.51 0 01-.714-.469c-.191-.224-.336-.525-.434-.903-.098-.378-.147-.856-.147-1.435V108h1.12zm9.842 1.078a2.525 2.525 0 00-.798-.14c-.401 0-.719.11-.952.329-.233.22-.378.497-.434.833v4.9h-1.12v-7h.784l.21.854h.056c.177-.317.39-.562.637-.735.247-.173.562-.259.945-.259.27 0 .574.047.91.14l-.238 1.078zm6.818 6.244c0 .905-.24 1.573-.721 2.002-.48.43-1.192.644-2.135.644-.56 0-1.01-.035-1.351-.105a4.037 4.037 0 01-.875-.273l.294-.952c.215.084.453.163.714.238.261.075.602.112 1.022.112.392 0 .712-.035.959-.105.247-.07.446-.187.595-.35.15-.163.252-.373.308-.63.056-.257.084-.562.084-.917v-.672h-.056c-.187.27-.425.478-.714.623-.29.145-.667.217-1.134.217-.943 0-1.636-.294-2.079-.882-.443-.588-.665-1.503-.665-2.744 0-1.195.285-2.102.854-2.723.57-.62 1.41-.931 2.52-.931.532 0 .987.042 1.365.126.378.084.716.182 1.015.294v7.028zm-2.814-1.148c.476 0 .85-.119 1.12-.357.27-.238.462-.609.574-1.113v-3.584c-.373-.177-.85-.266-1.428-.266-.635 0-1.134.215-1.498.644-.364.43-.546 1.101-.546 2.016 0 .392.033.751.098 1.078.065.327.168.607.308.84.14.233.322.415.546.546.224.13.5.196.826.196z" fill="#FFF" fill-rule="nonzero"/><path d="M59.31 51.002l.278.006 5.72 3.956c-.416.68-1.276.996-2.04.604-5.392-2.756-10.42.716-10.4 7.064.004 1.076-.96 1.872-1.968 1.624-9.752-2.392-14.748 6.256-9.168 12.248 2.004 2.148 3.856 2.512 9.644 2.396l35.956-.028c1.272.012 1.792.012 2.456-.004 2.3 0 4.416-.788 6.156-2.092L99 79.948c-2.376 1.864-5.292 3.004-8.48 3.004-.7.016-1.256.016-2.608.004l-37.12.024c-6.884.14-9.484-.368-12.424-3.524-7.724-8.288-1.328-20.416 10.724-18.788.8-6 5.216-9.856 10.496-9.66zM83.66 35l10.877 13.664 6.268-.824 3.38 2.168v2.1L103 50.912h-2.196l-1.668 1.468L115 61.04V75l-8.248-9.844-18.256-8.62-6.94 4.776-9.804-2.504 3.092-2.52 11.708-1.72L79.5 42.836 67 35h16.66z" fill="#FFF"/></g></svg>