<svg xmlns="http://www.w3.org/2000/svg" viewBox="0 0 133 133"><path d="M4 0h125c2.2 0 4 1.8 4 4v125c0 2.2-1.8 4-4 4H4c-2.2 0-4-1.8-4-4V4c0-2.2 1.8-4 4-4z" fill-rule="evenodd" clip-rule="evenodd" fill="#e4032e"/><path fill="none" d="M23.94 23.94h85.1v85.1h-85.1z"/><path d="M36.94 87.24c0-.3-.1-.5-.3-.6-.2-.2-.4-.3-.7-.5-.3-.1-.6-.3-1-.4-.3-.1-.7-.3-1-.5-.3-.2-.5-.5-.7-.8-.2-.3-.3-.7-.3-1.2 0-.4.1-.8.2-1.1s.3-.6.6-.8.6-.4.9-.5c.4-.1.8-.1 1.2-.1.5 0 1 0 1.4.1.4.1.8.2 1.1.4l-.4 1.4c-.2-.1-.5-.2-.8-.3-.4-.1-.8-.1-1.2-.1-.4 0-.7.1-.9.2-.2.2-.3.4-.3.6 0 .2.1.5.3.6.2.2.4.3.7.5.3.1.6.3 1 .4s.7.3 1 .5c.3.2.5.5.7.8.2.3.3.7.3 1.2s-.1.9-.2 1.2c-.2.3-.4.6-.6.8-.3.2-.6.4-1 .5s-.8.2-1.3.2c-.6 0-1.2-.1-1.6-.2-.5-.1-.8-.2-1-.3l.5-1.5c.1 0 .2.1.4.2.1.1.3.1.5.2s.4.1.6.1h.6c.5 0 .9-.1 1.2-.3 0-.1.1-.4.1-.7zm7.6 1.9c-.2.2-.5.3-.9.4s-.7.1-1.1.1c-.5 0-.9-.1-1.3-.2-.3-.2-.6-.4-.8-.7s-.4-.6-.5-1c-.1-.4-.1-.9-.1-1.3 0-1.1.2-1.9.7-2.4.5-.6 1.2-.9 2.1-.9.5 0 .8 0 1.1.1.3.1.5.2.8.3l-.4 1.3c-.2-.1-.4-.2-.6-.2s-.4-.1-.6-.1c-.4 0-.8.1-1 .4-.2.3-.3.8-.3 1.4 0 .3 0 .5.1.7.1.2.1.4.3.6s.3.3.5.4.4.1.7.1c.3 0 .5 0 .7-.1.2-.1.4-.2.5-.3l.1 1.4zm5.1.4v-3.5c0-.5-.1-.9-.2-1.1-.1-.2-.4-.3-.8-.3-.3 0-.5.1-.8.3-.2.2-.4.4-.5.7v4h-1.6v-8.7h1.6v3.2c.2-.3.4-.5.7-.6.3-.2.7-.2 1.1-.2.3 0 .6 0 .8.1s.4.2.6.4c.2.2.3.4.4.8.1.3.1.7.1 1.2v3.9h-1.4zm4.9-6.2v3.5c0 .5.1.9.2 1.1.1.2.4.3.7.3.3 0 .6-.1.8-.3.2-.2.4-.4.5-.7v-4h1.6v5.3c0 .3.1.6.1.9h-1.2l-.3-.8c-.2.3-.5.6-.8.8-.3.2-.7.3-1.2.3-.3 0-.6 0-.8-.1s-.5-.2-.6-.4-.3-.4-.4-.8c-.2-.3-.2-.7-.2-1.2v-3.9h1.6zm7.1 4.1c0 .3 0 .5.1.6.1.1.2.2.4.2h.3c.1 0 .2-.1.4-.1l.2 1.3c-.1.1-.3.1-.6.2s-.6.1-.8.1c-.5 0-.8-.1-1.1-.3-.2-.2-.4-.6-.4-1.1v-7.4h1.6v6.5zm2.3-2.2h3.1v1.4h-3.1v-1.4zm10.8 4c-.3.2-.6.3-1 .4-.4.1-.8.1-1.3.1s-1-.1-1.5-.2-.9-.4-1.2-.8c-.4-.4-.6-.8-.9-1.4s-.3-1.3-.3-2.1c0-.9.1-1.6.4-2.1.2-.6.5-1 .9-1.4.4-.4.8-.6 1.3-.8.5-.2.9-.2 1.4-.2.5 0 .9 0 1.3.1.3.1.6.1.9.2l-.3 1.4c-.2-.1-.4-.2-.7-.2s-.6-.1-.9-.1c-.7 0-1.2.2-1.7.7-.4.5-.6 1.2-.6 2.3 0 .4 0 .9.1 1.2.1.4.3.7.5.9.2.3.5.5.8.6.3.1.7.2 1 .2.4 0 .7 0 .9-.1.3-.1.5-.2.7-.3l.2 1.6zm3-1.8c0 .3 0 .5.1.6s.2.2.4.2h.3c.1 0 .2-.1.4-.1l.2 1.3c-.1.1-.3.1-.6.2s-.6.1-.8.1c-.5 0-.8-.1-1.1-.3-.2-.2-.4-.6-.4-1.1v-7.4h1.6v6.5zm2.1-1c0-1.1.3-1.9.8-2.4.5-.6 1.2-.9 2.2-.9.5 0 .9.1 1.3.2.4.2.7.4.9.7.2.3.4.6.5 1 .1.4.2.9.2 1.3 0 1.1-.3 1.9-.8 2.4s-1.2.9-2.2.9c-.5 0-.9-.1-1.3-.2-.4-.2-.7-.4-.9-.7s-.4-.6-.5-1-.2-.8-.2-1.3zm1.7 0c0 .3 0 .5.1.8 0 .2.1.4.2.6.1.2.2.3.4.4.2.1.4.1.6.1.4 0 .7-.2.9-.5.2-.3.3-.8.3-1.5 0-.6-.1-1-.3-1.4-.2-.4-.5-.5-1-.5-.4 0-.7.1-.9.4s-.3.9-.3 1.6zm7.2-3.1v3.5c0 .5.1.9.2 1.1s.4.3.7.3c.3 0 .6-.1.8-.3.2-.2.4-.4.5-.7v-4h1.6v5.3c0 .3.1.6.1.9h-1.2l-.3-.9c-.2.3-.5.6-.8.8-.3.2-.7.3-1.2.3-.3 0-.6 0-.8-.1s-.5-.2-.6-.4-.3-.4-.4-.8c-.1-.3-.1-.7-.1-1.2v-3.9h1.5zm10.7 4v1c0 .3 0 .7.1 1.2h-1.2l-.2-.8c-.2.3-.4.5-.7.7s-.7.3-1.1.3c-.8 0-1.4-.3-1.8-.8-.4-.5-.6-1.3-.6-2.4 0-1.1.2-1.9.7-2.5.5-.6 1.2-.9 2.1-.9h.6c.2 0 .3.1.5.1v-2.5h1.6v6.6zm-2.7 1c.3 0 .6-.1.7-.2.2-.2.3-.4.4-.7v-2.6c-.1-.1-.2-.2-.4-.2-.1 0-.3-.1-.5-.1-.5 0-.8.2-1 .5s-.3.8-.3 1.6c0 .5.1 1 .3 1.3.1.3.4.4.8.4zm-58.2 6.9c0 .2 0 .4-.1.6l-.3.6c-.1.2-.3.3-.5.5s-.5.2-.7.3c.2 0 .5.1.7.2.2.1.4.2.6.4.2.2.3.4.4.6s.2.5.2.9-.1.8-.3 1.2c-.2.3-.4.6-.7.8-.3.2-.6.4-1 .5s-.8.1-1.2.1h-2.3v-8.6c.3 0 .7-.1 1.1-.1h1.3c.3 0 .7 0 1 .1l.9.3c.3.2.5.4.7.6.1.2.2.6.2 1zm-2.9 5.9c.3 0 .5 0 .8-.1.2-.1.5-.2.7-.3.2-.1.3-.3.5-.5.1-.2.2-.4.2-.7 0-.3-.1-.6-.2-.8-.1-.2-.3-.4-.5-.5-.2-.1-.5-.2-.7-.2-.3 0-.5-.1-.8-.1h-1.1v3.1h.9c0 .1.1.1.2.1zm-.6-4h1c.2-.1.4-.1.6-.2.2-.1.3-.2.5-.3.1-.1.2-.3.3-.4.1-.2.1-.4.1-.6 0-.3-.1-.5-.2-.7s-.2-.3-.4-.4c-.2-.1-.4-.2-.6-.2s-.5-.1-.7-.1h-.8c-.2 0-.4 0-.5.1v3h.7zm8.4-.4c-.2-.1-.5-.1-.7-.1-.4 0-.6.1-.8.3-.2.2-.3.4-.4.7v4.3h-1v-6.2h.7l.2.8c.2-.3.3-.5.6-.7s.5-.2.8-.2c.2 0 .5 0 .8.1l-.2 1zm1.2-.5c.3-.2.7-.3 1.1-.4s.9-.1 1.3-.1.8.1 1 .2.5.3.6.5l.3.6c.1.2.1.4.1.7v3.7c0 .3.1.5.1.8h-.7l-.3-.9h-.1l-.3.3c-.1.1-.2.2-.4.3-.2.1-.3.2-.5.2-.2.1-.4.1-.7.1-.3 0-.5 0-.7-.1s-.4-.2-.6-.4c-.2-.2-.3-.3-.4-.6s-.1-.5-.1-.7c0-.4.1-.7.2-.9.1-.2.4-.4.6-.6.3-.1.6-.2 1-.3.4-.1.8-.1 1.2-.1h.6v-.7c0-.5-.1-.8-.3-1-.2-.2-.5-.3-1-.3h-.5c-.2 0-.3 0-.5.1-.2 0-.3.1-.5.1 0 .1-.1.2-.2.2l-.3-.7zm1.7 5c.2 0 .4 0 .6-.1.2-.1.3-.1.5-.2s.2-.2.3-.3c.1-.1.2-.2.2-.3v-1h-1.6c-.2 0-.5.1-.6.2-.2.1-.3.2-.4.3-.1.1-.2.3-.2.5 0 .3.1.5.3.7.3.1.6.2.9.2zm8.5.7v-3.5c0-.6-.1-1.1-.3-1.5-.2-.3-.5-.5-1-.5-.4 0-.8.1-1.1.4-.3.2-.5.5-.6.9v4.2h-1v-6.2h.7l.2.8c.2-.3.5-.5.8-.7s.7-.3 1.2-.3c.3 0 .6 0 .9.1.3.1.5.2.6.4.2.2.3.5.4.8.1.3.1.8.1 1.3v3.8h-.9zm7.6-2.1v1.1c0 .3 0 .7.1 1h-.7l-.2-.9c-.2.3-.4.5-.7.7s-.7.3-1.1.3c-.8 0-1.4-.3-1.8-.8-.4-.5-.6-1.3-.6-2.4 0-1.1.3-1.9.8-2.4.5-.6 1.2-.8 2.1-.8h.7c.2 0 .4.1.6.2v-2.6h1v6.6zm-2.5 1.4c.4 0 .8-.1 1-.3.2-.2.4-.6.5-1v-3.1c-.1-.1-.3-.2-.5-.2s-.4-.1-.8-.1c-.6 0-1 .2-1.3.6-.3.4-.5 1-.5 1.8 0 .3 0 .7.1.9.1.3.1.5.3.7.1.2.3.4.5.5s.4.2.7.2zm8.9.2c-.2.2-.6.4-.9.5-.4.1-.8.2-1.2.2-.5 0-.9-.1-1.2-.2-.3-.2-.6-.4-.9-.7-.2-.3-.4-.6-.5-1-.1-.4-.2-.8-.2-1.3 0-1.1.2-1.9.7-2.4.5-.6 1.1-.8 2-.8.3 0 .6 0 .8.1.3.1.5.2.8.4.2.2.4.4.5.7s.2.7.2 1.3c0 .3 0 .6-.1.9h-4c0 .4 0 .7.1 1 .1.3.2.5.3.7.2.2.4.3.6.4.3.1.6.2.9.2.3 0 .6 0 .8-.1.3-.1.5-.2.6-.3l.7.4zm-2.1-5c-.5 0-.9.1-1.2.4-.3.3-.5.7-.5 1.3h3.1c0-.6-.1-1.1-.4-1.3-.3-.2-.6-.4-1-.4zm7.9 5.5v-3.5c0-.6-.1-1.1-.3-1.5-.2-.3-.5-.5-1-.5-.4 0-.8.1-1.1.4s-.5.5-.6.9v4.2h-1v-6.2h.7l.2.8c.2-.3.5-.5.8-.7.3-.2.7-.3 1.2-.3.3 0 .6 0 .9.1.3.1.5.2.6.4.2.2.3.5.4.8.1.3.1.8.1 1.3v3.8h-.9zm2.8-8.7h1v3.1c.2-.2.4-.4.7-.6.3-.1.6-.2 1-.2.8 0 1.4.3 1.8.8s.6 1.3.6 2.4c0 1.1-.3 1.9-.8 2.5-.5.6-1.3.8-2.2.8-.5 0-.9 0-1.3-.1s-.7-.2-.9-.3v-8.4zm2.5 3.2c-.4 0-.7.1-1 .3-.3.2-.4.6-.6 1v3.2c.2.1.3.2.6.2s.5.1.7.1c.6 0 1-.2 1.3-.6.3-.4.5-1 .5-1.9 0-.3 0-.6-.1-.9s-.1-.5-.3-.7c-.1-.2-.3-.4-.5-.5s-.3-.2-.6-.2zm5.1-.7v3.5c0 .3 0 .6.1.9 0 .2.1.4.2.6.1.2.2.3.4.4.2.1.4.1.6.1.2 0 .4 0 .6-.1s.3-.2.5-.3l.4-.4c.1-.2.2-.3.3-.5v-4.1h1v5.3c0 .3.1.6.1.8h-.7l-.2-1h-.1c-.2.3-.4.6-.8.8-.3.2-.7.3-1.2.3-.3 0-.6 0-.9-.1-.3-.1-.5-.2-.6-.4s-.3-.5-.4-.8c-.1-.3-.1-.8-.1-1.3v-3.7h.8zm8.7 1c-.2-.1-.5-.1-.7-.1-.4 0-.6.1-.8.3-.2.2-.3.4-.4.7v4.3h-1v-6.2h.7l.2.8c.2-.3.3-.5.6-.7.2-.2.5-.2.8-.2.2 0 .5 0 .8.1l-.2 1zm6 5.5c0 .8-.2 1.4-.6 1.8s-1.1.6-1.9.6c-.5 0-.9 0-1.2-.1-.3-.1-.6-.1-.8-.2l.3-.8c.2.1.4.1.6.2.2.1.5.1.9.1.3 0 .6 0 .9-.1.2-.1.4-.2.5-.3.1-.1.2-.3.3-.6 0-.2.1-.5.1-.8v-.6l-.6.6c-.3.1-.6.2-1 .2-.8 0-1.5-.3-1.8-.8-.4-.5-.6-1.3-.6-2.4 0-1.1.3-1.9.8-2.4.5-.6 1.2-.8 2.2-.8.5 0 .9 0 1.2.1l.9.3v6zm-2.5-1c.4 0 .8-.1 1-.3.2-.2.4-.5.5-1v-3.2c-.3-.2-.8-.2-1.3-.2-.6 0-1 .2-1.3.6-.3.4-.5 1-.5 1.8 0 .3 0 .7.1 1 .1.3.1.5.3.7.1.2.3.4.5.5.2 0 .5.1.7.1z" fill="#fff"/><path d="M52.54 45.24h.3l5.1 3.5c-.4.6-1.1.9-1.8.5-4.8-2.4-9.2.6-9.2 6.3 0 1-.9 1.7-1.7 1.4-8.6-2.1-13.1 5.5-8.1 10.9 1.8 1.9 3.4 2.2 8.6 2.1h34.1c2 0 3.9-.7 5.5-1.9l2.7 2.8c-2.1 1.7-4.7 2.7-7.5 2.7h-35.2c-6.1.1-8.4-.3-11-3.1-6.8-7.3-1.2-18.1 9.5-16.7.7-5.3 4.6-8.7 9.3-8.6l-.6.1zm21.6-14.2l9.6 12.1 5.6-.7 3 1.9v1.9l-1-1.1h-1.9l-1.5 1.3 14 7.7v12.4l-7.3-8.7-16.2-7.6-6.2 4.2-8.7-2.2 2.7-2.2 10.4-1.5-6.1-10.6-11.1-6.9h14.7z" fill-rule="evenodd" clip-rule="evenodd" fill="#fff"/></svg>