<svg xmlns="http://www.w3.org/2000/svg" viewBox="0 0 24 24"><path d="M0 0h24v24H0z" fill="none"/><path d="M11.983 2C7.29 2 3.455 3.986 3.455 6.452s3.836 4.452 8.528 4.452c4.726 0 8.562-1.986 8.562-4.452S16.709 2 11.983 2zM3.455 8.678V12c0 2.466 3.836 4.452 8.528 4.452 4.726 0 8.562-1.986 8.562-4.452V8.678c0 2.432-3.836 4.452-8.562 4.452-4.692 0-8.528-2.02-8.528-4.452zm0 5.548v3.322c0 2.466 3.836 4.452 8.528 4.452 4.726 0 8.562-1.986 8.562-4.452v-3.322c0 2.466-3.836 4.452-8.562 4.452-4.692 0-8.528-1.986-8.528-4.452z"/></svg>