<svg xmlns="http://www.w3.org/2000/svg" viewBox="0 0 24 24"><path d="M0 0h24v24H0z" fill="none"/><path d="M14.135 2C10.495 2 7.4 3.189 6.171 4.856l5.605 5.833c.758.122 1.526.2 2.36.2 4.718 0 8.54-1.989 8.54-4.445C22.675 3.99 18.853 2 14.135 2M5.508 6.533L3.993 8.111l2.67 2.778H1.324v2.222h5.337L3.993 15.89l1.516 1.578L10.762 12m11.913-3.333c0 2.455-3.821 4.444-8.54 4.444a15.08 15.08 0 01-2.039-.144L9.46 15.71c1.345.456 2.947.733 4.676.733 4.719 0 8.54-1.988 8.54-4.444m0 2.222c0 2.456-3.821 4.445-8.54 4.445-2.434 0-4.622-.556-6.181-1.39l-1.793 1.867C7.388 20.811 10.495 22 14.135 22c4.719 0 8.54-1.989 8.54-4.444"/></svg>