<svg xmlns="http://www.w3.org/2000/svg" viewBox="0 0 24 24"><path d="M0 0h24v24H0z" fill="none"/><path d="M16.513 22l-2.758-3.132 1.163-1.21 1.595 1.66 3.6-3.748 1.164 1.472zM10.746 2c4.433 0 8.024 1.868 8.024 4.175 0 2.307-3.59 4.176-8.024 4.176-4.433 0-8.023-1.869-8.023-4.176C2.723 3.868 6.313 2 10.746 2zM2.723 8.263c0 2.307 3.59 4.175 8.023 4.175s8.024-1.868 8.024-4.175v3.132c0 .448-.13.876-.381 1.273a5.998 5.998 0 00-1.625-.23c-2.217 0-4.162 1.253-5.205 3.132h-.813c-4.433 0-8.023-1.869-8.023-4.175zm0 5.22c0 2.306 3.59 4.175 8.104 4.175l-.08 1.043c0 .731.12 1.43.34 2.088h-.34c-4.434 0-8.024-1.868-8.024-4.175z"/></svg>