<svg xmlns="http://www.w3.org/2000/svg" viewBox="0 0 24 24"><path d="M0 0h24v24H0z" fill="none"/><path d="M17.284 11v1.5c2.123 0 3.844 1.79 3.844 4 0 .82-.24 1.58-.644 2.21l-1.047-1.09c.163-.34.25-.72.25-1.12 0-1.38-1.076-2.5-2.403-2.5v1.5l-2.161-2.25zm0 11v-1.5c-2.122 0-3.843-1.79-3.843-4 0-.82.24-1.58.644-2.21l1.047 1.09c-.163.34-.25.72-.25 1.12 0 1.38 1.076 2.5 2.402 2.5v-1.5l2.162 2.25zM10.56 2c4.247 0 7.686 1.79 7.686 4s-3.44 4-7.686 4c-4.247 0-7.687-1.79-7.687-4s3.44-4 7.687-4zM2.872 8c0 2.21 3.44 4 7.687 4 1.066 0 2.085-.11 3.017-.32a6.59 6.59 0 00-1.883 3.28l-1.134.04c-4.247 0-7.687-1.79-7.687-4zm15.373 0v2h-.48l-.577.03c.673-.6 1.057-1.29 1.057-2.03zM2.872 13c0 2.21 3.44 4 7.687 4l.96-.03c.087 1.06.404 2.03.913 2.91L10.56 20c-4.247 0-7.687-1.79-7.687-4z"/></svg>