<svg xmlns="http://www.w3.org/2000/svg" viewBox="0 0 24 24"><path d="M7.378 7.378h9.244v9.244H7.378z" fill="none"/><path d="M12 2c4.247 0 7.686 1.79 7.686 4s-3.44 4-7.686 4c-4.247 0-7.686-1.79-7.686-4S7.754 2 12 2zM4.314 8c0 2.21 3.44 4 7.686 4 4.247 0 7.686-1.79 7.686-4v3.08l-.96-.08c-2.489 0-4.612 1.64-5.42 3.94L12 15c-4.247 0-7.686-1.79-7.686-4zm0 5c0 2.21 3.44 4 7.686 4h.96c0 1.05.26 2.04.721 2.9L12 20c-4.247 0-7.686-1.79-7.686-4zm14.412 0c.528 0 .96.45.96 1v4c0 .55-.432 1-.96 1-.529 0-.961-.45-.961-1v-4c0-.55.432-1 .96-1zm.96 9h-1.921v-2h1.921z"/></svg>