<svg xmlns="http://www.w3.org/2000/svg" viewBox="0 0 24 24"><path d="M0 0h24v24H0z" fill="none"/><path d="M18.574 13.579v3.158h3.034v2.105h-3.034V22H16.55v-3.158h-3.034v-2.105h3.034v-3.158zM10.483 2c4.47 0 8.09 1.884 8.09 4.21 0 2.327-3.62 4.211-8.09 4.211s-8.09-1.884-8.09-4.21C2.392 3.884 6.012 2 10.482 2zm-8.09 6.316c0 2.326 3.62 4.21 8.09 4.21s8.09-1.884 8.09-4.21v3.242l-1.01-.084c-2.62 0-4.855 1.726-5.705 4.147l-1.375.063c-4.47 0-8.09-1.884-8.09-4.21zm0 5.263c0 2.326 3.62 4.21 8.09 4.21h1.011c0 1.106.273 2.148.759 3.053l-1.77.105c-4.47 0-8.09-1.884-8.09-4.21z"/></svg>