<svg xmlns="http://www.w3.org/2000/svg" viewBox="0 0 24 24"><path d="M0 0h24v24H0z" fill="none"/><path d="M9.95 2C5.232 2 1.41 3.989 1.41 6.444c0 2.456 3.822 4.445 8.54 4.445.534 0 1.068-.033 1.602-.089V9.222h3.085l-1.068-1.11 3.747-3.89C15.822 2.89 13.09 2 9.95 2zm7.388 4.533l-1.516 1.578 2.669 2.778h-5.338v2.222h5.338l-2.67 2.778 1.517 1.578L22.59 12zM1.41 8.667V12c0 2.456 3.822 4.444 8.54 4.444 1.25 0 2.413-.166 3.47-.41l1.206-1.256h-3.074v-1.756c-.534.056-1.068.09-1.602.09-4.718 0-8.54-1.99-8.54-4.445zm0 5.555v3.334C1.41 20.01 5.232 22 9.95 22c3.139 0 5.872-.889 7.366-2.222l-2.028-2.111c-1.484.622-3.31 1-5.338 1-4.718 0-8.54-1.99-8.54-4.445z"/></svg>