<svg xmlns="http://www.w3.org/2000/svg" viewBox="0 0 24 24"><path d="M0 0h24v24H0z" fill="none"/><path d="M13.601 17.556h8.54v2.222h-8.54zM10.4 2c4.718 0 8.54 1.989 8.54 4.444 0 2.456-3.822 4.445-8.54 4.445-4.719 0-8.54-1.989-8.54-4.445C1.858 3.99 5.68 2 10.398 2zM1.86 8.667c0 2.455 3.821 4.444 8.54 4.444 4.718 0 8.54-1.989 8.54-4.444V12c0 1.322-1.12 2.522-2.893 3.333h-4.58v1.078l-1.067.033c-4.719 0-8.54-1.988-8.54-4.444zm0 5.555c0 2.456 3.821 4.445 8.54 4.445l1.067-.034v3.334L10.4 22c-4.719 0-8.54-1.989-8.54-4.444zm17.08 0v1.111h-.267a2.53 2.53 0 00.267-1.11z"/></svg>