<svg xmlns="http://www.w3.org/2000/svg" xmlns:xlink="http://www.w3.org/1999/xlink" width="133" height="133"><defs><path id="a" d="M0 .105h58.254V37H0z"/><path id="c" d="M.023 1.442h10.954v12.999H.023z"/><path id="e" d="M0 .736h5.282v9.726H0z"/><path id="g" d="M.254.736h5.27v9.725H.254z"/><path id="i" d="M0 13.265h80V1.001H0z"/></defs><g fill="none" fill-rule="evenodd"><rect stroke="#3a424b" x=".5" y=".5" width="132" height="132" rx="4"/><g transform="translate(30 39.503)"><mask id="b" fill="#fff"><use xlink:href="#a"/></mask><path d="M35.32 36.89a4.85 4.85 0 00-4.482-3.007H17.763l-4.181.042c-3.361 0-6.16-.278-8.479-2.268-4.154-3.114-2-11.914 7.085-11.914a16.74 16.74 0 013.196.328c0-4.43 3.547-7.45 8.087-7.45 1.356 0 2.802.27 4.266.853.997-6.216 7.519-10.051 14.118-10.283a20.4 20.4 0 01.627-.01c4.231 0 8.449 1.507 11.25 4.913a4.288 4.288 0 004.52 1.372h.002C55.051 2.658 48.37.105 42.482.105a22.31 22.31 0 00-.734.013c-6.414.224-13.392 3.56-16.081 9.604a13.946 13.946 0 00-2.197-.177h-.002c-2.987 0-5.758 1.013-7.801 2.854a10.01 10.01 0 00-2.815 4.282 14.94 14.94 0 00-.666-.013h-.002c-6.755 0-10.46 3.896-11.676 7.543-1.239 3.718-.169 7.657 2.664 9.842C6.396 36.77 10.233 37 13.58 37l2.006-.021 2.175-.023h17.586l-.029-.068" fill="#3b424b" mask="url(#b)"/></g><path d="M81.05 71.471l-3.201.555a1.21 1.21 0 01-1.198-.499l-1.087-1.552a1.215 1.215 0 01-.063-1.29l1.604-2.836a2.45 2.45 0 01.719-.793l15.31-10.719a12.16 12.16 0 00-1.919-1.001c-.75-.31-1.61-.191-2.275.273l-12.841 8.993c-.206.143-.566.499-.676.78l-5.212 9.993c-.727.986.222 2.344 1.398 1.998l11.174-1.48c.302-.006.759-.224.965-.368l12.85-8.997a2.383 2.383 0 001.02-1.689 7.94 7.94 0 00.043-.833 8.01 8.01 0 00-.199-1.745L82.025 71.069a2.42 2.42 0 01-.975.402" fill="#3b424b"/><g transform="translate(92.739 47.547)"><mask id="d" fill="#fff"><use xlink:href="#c"/></mask><path d="M10.927 10.21c-.692-3.42-2.91-6.441-6.126-8.422-.812-.502-1.853-.45-2.635.098l-.96.671-.605.425-.578.404C4.674 4.779 7.721 8.449 7.721 12.5c0 .666-.082 1.314-.233 1.942l2.46-1.723c.803-.561 1.174-1.548.98-2.508" fill="#3b424b" mask="url(#d)"/></g><path d="M78.798 68.928c.526.751 1.844.745 3.005-.069l14.999-10.503a9.643 9.643 0 00-1.982-2.682L79.89 66.129c-1.161.812-1.618 2.048-1.092 2.799" fill="#3b424b"/><g transform="translate(27 82)"><g transform="translate(0 .265)"><mask id="f" fill="#fff"><use xlink:href="#e"/></mask><path d="M1.775 7.193c0 .667.071 1.132.213 1.397s.381.397.718.397a.86.86 0 00.794-.469V5.43c-.175-.333-.437-.5-.787-.5-.326 0-.563.131-.713.394s-.225.729-.225 1.4v.469zM0 6.749C0 5.64.187 4.813.562 4.267s.921-.819 1.638-.819c.521 0 .954.226 1.3.676V.736h1.782v9.601H3.675l-.081-.687c-.362.541-.829.812-1.4.812-.709 0-1.249-.271-1.622-.812S.008 8.312 0 7.262v-.513z" fill="#9e292b" mask="url(#f)"/></g><g transform="translate(7 .265)"><mask id="h" fill="#fff"><use xlink:href="#g"/></mask><path d="M1.398 5.913v3.501h1.563c.433 0 .777-.153 1.031-.458s.382-.734.382-1.286c0-1.171-.463-1.757-1.388-1.757H1.398zm0-1.029h1.469c.396 0 .716-.142.959-.428s.366-.665.366-1.138c0-.536-.11-.925-.331-1.168s-.559-.365-1.013-.365h-1.45v3.099zM.254 10.462V.736h2.594c.829 0 1.454.216 1.872.648s.629 1.08.629 1.944c0 .454-.106.855-.319 1.202s-.5.617-.863.809c.417.133.747.407.991.821s.366.913.366 1.497c0 .873-.224 1.558-.672 2.057s-1.087.748-1.916.748H.254z" fill="#3b424b" mask="url(#h)"/></g><mask id="j" fill="#fff"><use xlink:href="#i"/></mask><path d="M14.425 10.602h1.106V3.464h-1.106v7.138zm1.193-8.932c0 .187-.052.343-.156.468s-.263.188-.475.188-.365-.063-.469-.188-.156-.281-.156-.468.052-.346.156-.476.26-.193.469-.193.365.065.471.197a.72.72 0 01.16.472zm1.994 8.932h1.106V1.001h-1.106zm3.975-3.061c0 .757.113 1.314.338 1.67s.591.534 1.1.534c.55 0 .96-.277 1.231-.831V5.506c-.283-.541-.692-.812-1.225-.812-.509 0-.875.178-1.1.534s-.34.902-.344 1.639v.674zm-1.106-.628c0-1.042.194-1.836.584-2.382s.949-.818 1.679-.818c.645 0 1.15.262 1.512.787V1h1.107v9.601H24.35l-.056-.725a1.74 1.74 0 01-1.557.85c-.7 0-1.249-.272-1.647-.816s-.601-1.311-.609-2.303v-.694zm10.289 3.095c-.367.479-.902.719-1.607.719-.612 0-1.075-.212-1.387-.635s-.471-1.038-.476-1.847V3.838h1.101v4.326c0 1.054.316 1.581.95 1.581.671 0 1.133-.3 1.388-.9V3.838h1.106v6.764h-1.05l-.025-.594zm4.037-6.17l.031.731c.429-.571.977-.856 1.644-.856 1.196 0 1.803.798 1.819 2.394v4.494h-1.1V6.157c0-.529-.089-.905-.265-1.128s-.443-.335-.798-.335a1.12 1.12 0 00-.74.275 1.993 1.993 0 00-.529.719v4.913h-1.106V3.838h1.044zm6.295 3.703c0 .757.112 1.314.335 1.67s.588.534 1.096.534c.551 0 .963-.281 1.238-.843V5.524c-.287-.553-.696-.83-1.225-.83-.509 0-.875.178-1.1.534s-.34.902-.344 1.639v.674zm-1.106-.628c0-1.054.191-1.851.575-2.391s.944-.809 1.681-.809c.688 0 1.211.293 1.569.881l.056-.756h1.001v6.826c0 .837-.215 1.48-.644 1.928s-1.028.672-1.794.672c-.334 0-.708-.082-1.122-.247s-.727-.368-.935-.609l.45-.763c.459.45.965.675 1.519.675.921 0 1.394-.502 1.419-1.506v-.882a1.73 1.73 0 01-1.525.794c-.7 0-1.246-.263-1.638-.791s-.596-1.284-.612-2.272v-.75zm10.07 1.957c0-.237-.09-.442-.269-.612s-.525-.371-1.037-.601c-.596-.245-1.016-.456-1.26-.631s-.426-.374-.547-.597-.181-.488-.181-.797c0-.55.201-1.007.603-1.372s.916-.547 1.541-.547c.658 0 1.188.192 1.588.575s.6.875.6 1.475h-1.1a1.09 1.09 0 00-.307-.778 1.034 1.034 0 00-.781-.322c-.325 0-.58.084-.766.253s-.278.393-.278.676c0 .224.068.405.203.542s.462.318.978.542c.821.321 1.38.636 1.676.942s.443.696.443 1.168c0 .588-.202 1.059-.606 1.412s-.946.528-1.625.528c-.704 0-1.275-.202-1.713-.606a2 2 0 01-.656-1.538h1.112c.013.376.127.669.344.882s.521.319.913.319c.366 0 .646-.083.837-.247s.288-.387.288-.666m5.15.913c.367 0 .66-.113.881-.341s.342-.551.363-.972h1.044c-.025.65-.255 1.189-.691 1.616s-.968.641-1.597.641c-.838 0-1.476-.264-1.916-.791s-.659-1.311-.659-2.353v-.744c0-1.021.218-1.797.656-2.329s1.075-.797 1.913-.797c.691 0 1.241.219 1.647.657s.622 1.035.647 1.794H56.46c-.025-.501-.145-.876-.359-1.126s-.512-.375-.891-.375c-.492 0-.857.162-1.094.485s-.361.853-.369 1.591v.862c0 .797.118 1.359.353 1.688s.608.494 1.116.494m3.907.819h1.106V1.001h-1.106zm3.975-3.057c0 .696.136 1.243.41 1.641a1.27 1.27 0 001.103.597c.975 0 1.477-.704 1.506-2.113v-.763c0-.691-.137-1.238-.412-1.64s-.644-.604-1.107-.604c-.454 0-.818.201-1.09.604s-.41.947-.41 1.634v.644zm-1.106-.638c0-.983.238-1.761.715-2.334s1.108-.86 1.891-.86 1.414.279 1.891.838.722 1.319.735 2.281v.713c0 .979-.238 1.755-.713 2.325s-1.108.857-1.9.857c-.784 0-1.412-.277-1.885-.832s-.718-1.304-.734-2.25v-.738zm10.364 3.101c-.367.479-.902.719-1.607.719-.612 0-1.075-.212-1.387-.635s-.471-1.038-.476-1.847V3.838h1.101v4.326c0 1.054.316 1.581.95 1.581.671 0 1.133-.3 1.388-.9V3.838h1.106v6.764h-1.05l-.025-.594zm3.868-2.467c0 .757.113 1.314.338 1.67s.591.534 1.1.534c.55 0 .96-.277 1.231-.831V5.506c-.283-.541-.692-.812-1.225-.812-.509 0-.875.178-1.1.534s-.34.902-.344 1.639v.674zm-1.106-.628c0-1.042.194-1.836.584-2.382s.949-.818 1.679-.818c.645 0 1.15.262 1.512.787V1H80v9.601h-1.013l-.056-.725a1.74 1.74 0 01-1.557.85c-.7 0-1.249-.272-1.647-.816s-.601-1.311-.609-2.303v-.694z" mask="url(#j)" fill="#3b424b"/></g></g></svg>