<svg viewBox="0 0 20 12" xmlns="http://www.w3.org/2000/svg" xmlns:xlink="http://www.w3.org/1999/xlink"><defs><path id="a" d="M16.698 7.269a.889.889 0 00-1.258 0L10.408 12.3l1.258 1.258 5.032-5.041c.34-.34.34-.91 0-1.25zm3.783-.01l-8.815 8.816L8.56 12.98a.889.889 0 10-1.258 1.258l3.73 3.73a.889.889 0 001.257 0l9.45-9.44a.889.889 0 000-1.258h-.01a.87.87 0 00-1.249-.01zm-18.22 6.987l3.73 3.73a.889.889 0 001.258 0l.624-.625L3.52 12.98a.889.889 0 00-1.258 0 .9.9 0 000 1.267z"/></defs><g transform="translate(-2 -7)" fill="none" fill-rule="evenodd"><mask id="b" fill="#fff"><use xlink:href="#a"/></mask><use fill="#000" fill-rule="nonzero" xlink:href="#a"/><path fill="#13BA98" mask="url(#b)" d="M0 0h24v24H0z"/><path mask="url(#b)" d="M0 0h24v24H0z"/></g></svg>