<svg xmlns="http://www.w3.org/2000/svg" width="24" height="24"><path d="M20.438 16.43H8.625v-.565a.566.566 0 00-.562-.565H6.938a.564.564 0 00-.562.565v.565H3.563a.564.564 0 00-.562.565v1.13c0 .31.253.565.563.565h2.813v.565c0 .31.253.565.563.565h1.125c.31 0 .563-.254.563-.565v-.565h11.813c.31 0 .563-.254.563-.565v-1.13a.566.566 0 00-.562-.565zm0-5.65h-2.812v-.565a.566.566 0 00-.562-.565h-1.125a.564.564 0 00-.562.565v.565H3.563a.564.564 0 00-.562.565v1.13c0 .31.253.565.563.565h11.813v.565c0 .31.253.565.563.565h1.125c.31 0 .563-.254.563-.565v-.565h2.813c.31 0 .563-.254.563-.565v-1.13a.566.566 0 00-.562-.565zm0-5.65h-7.312v-.565A.566.566 0 0012.564 4h-1.125a.564.564 0 00-.562.565v.565H3.563a.564.564 0 00-.562.565v1.13c0 .31.253.565.563.565h7.313v.565c0 .31.253.565.563.565h1.125c.31 0 .563-.254.563-.565V7.4h7.313c.31 0 .563-.254.563-.565v-1.13a.566.566 0 00-.562-.565z"/></svg>