<svg xmlns="http://www.w3.org/2000/svg" xmlns:xlink="http://www.w3.org/1999/xlink" width="24" height="24"><defs><path id="c" d="M0 0v18h36V0z"/><path d="M18 9h18v9L18 9zm0 0v9H0l18-9zm0 0H0V0l18 9zm0 0V0h18L18 9z" id="e"/><circle id="a" cx="12" cy="12" r="9"/></defs><g fill="none" fill-rule="evenodd"><mask id="b" fill="#fff"><use xlink:href="#a"/></mask><use fill="#d8d8d8" xlink:href="#a"/><g mask="url(#b)"><g transform="translate(-6 3)"><mask id="d" fill="#fff"><use xlink:href="#c"/></mask><g mask="url(#d)"><g fill-rule="nonzero"><path fill="#012169" d="M0 0v18h36V0z"/><path d="M0 0l36 18m0-18L0 18" stroke="#fff" stroke-width="3.6" fill="#000"/></g><mask id="f" fill="#fff"><use xlink:href="#e"/></mask><g fill-rule="nonzero" fill="#000"><path d="M0 0l36 18m0-18L0 18" stroke="#c8102e" stroke-width="2.4" mask="url(#f)"/><path d="M18 0v18M0 9h36" stroke="#fff" stroke-width="6"/><path d="M18 0v18M0 9h36" stroke="#c8102e" stroke-width="3.6"/></g></g></g></g></g></svg>