<svg xmlns="http://www.w3.org/2000/svg" height="24" viewBox="0 0 24 24" width="24"><circle fill="#fff" cx="12.001" cy="12" r="9"/><path d="M12 3a9.03 9.03 0 012.001.223L14 10h6.777a9.03 9.03 0 010 4.001L14 14v6.777a9.03 9.03 0 01-4.001 0V14H3.224a9.03 9.03 0 010-4.001H10V3.223A9.03 9.03 0 0112 3zM9.003 15l-4.235 2.354a9.166 9.166 0 01-.767-1.23L6.02 15h2.982zm8.982 0l2.02 1.123a8.98 8.98 0 01-.767 1.23L15.003 15h2.982zm1.25-8.354c.287.388.544.8.767 1.23L17.98 9H15l4.236-2.354zm-14.47 0L9 9H6.017l-2.02-1.123a8.98 8.98 0 01.767-1.23l.001-.001z" fill="#c8102e"/><path d="M9.003 15.886v4.6a9.103 9.103 0 01-3.74-2.523l3.74-2.078zm6 .816l3.228 1.795a9 9 0 01-3.228 1.991v-3.786zM15 3.503a9.005 9.005 0 013.74 2.522L15 8.103v-4.6zm-6 .01v3.776L5.77 5.503a9 9 0 013.228-1.991z" fill="#012169"/></svg>