<svg width="24" height="24" viewBox="0 0 24 24" xmlns="http://www.w3.org/2000/svg"><g transform="translate(2 3)"><circle cx="10" cy="5.9" r="2.5"/><path d="M14.1 18H6c-.6 0-1-.4-1-1v-1.6c0-2.8 2.2-5 5-5h.1c2.8 0 5 2.2 5 5V17c0 .6-.4 1-1 1zM7.5 2.2C7.3.9 6.3 0 5 0 3.6 0 2.5 1.1 2.5 2.5S3.6 4.9 5 4.9c.2 0 .5 0 .7-.1.2-1 .9-2 1.8-2.6zm-.6 6.9c-.6-.6-1-1.3-1.2-2.1H5c-2.8 0-5 2.2-5 5v1.6c0 .6.4 1 1 1h2.1c.2-2.4 1.7-4.5 3.8-5.5zm7.5-4.2c.2.1.4.1.6.1 1.4 0 2.5-1.1 2.5-2.5S16.4 0 15 0c-1.3 0-2.3 1-2.5 2.2.9.6 1.6 1.5 1.9 2.7zm2.5 9.7H19c.6 0 1-.4 1-1V12c0-2.8-2.2-5-5-5h-.7c-.2.8-.6 1.5-1.2 2.1 2.1 1 3.6 3.1 3.8 5.5z"/></g></svg>