<svg xmlns="http://www.w3.org/2000/svg" width="24" height="24"><path d="M9.447 3.796l-.13.004c-.304.02-.512.13-.57.235l-.016.045-.534 3.493-3.534.004c-.17 0-.404.36-.404.887 0 .482.2.825.362.88l.044.007 3.26-.004-.813 5.316-3.526.004c-.17 0-.403.36-.403.886 0 .482.2.825.36.88l.043.007 3.253-.004-.493 3.215c-.026.167.295.453.815.533.476.073.845-.07.923-.223l.014-.042.534-3.485 5.378-.006-.493 3.224c-.026.167.295.453.815.533.476.073.846-.07.924-.223l.014-.042.534-3.493 3.534-.004c.17 0 .404-.36.404-.886 0-.482-.2-.825-.362-.88l-.044-.007-3.26.004.813-5.316 3.526-.004c.17 0 .403-.36.403-.887 0-.478-.195-.82-.357-.877l-.047-.01-3.253.004.493-3.216c.026-.167-.295-.453-.815-.533-.476-.073-.846.07-.924.223l-.014.042-.534 3.485-5.378.006.493-3.224c.026-.167-.295-.453-.816-.533l-.106-.013-.112-.007zm5.566 5.542v.5l-.006.076-.725 4.74-5.378.006.813-5.316 5.295-.007z"/></svg>