<svg width="156" height="156" viewBox="0 0 156 156" xmlns="http://www.w3.org/2000/svg" xmlns:xlink="http://www.w3.org/1999/xlink"><defs><linearGradient x1="4.987%" y1="95.013%" x2="95.077%" y2="4.922%" id="c"><stop stop-color="#B1063A" offset="0%"/><stop stop-color="#F6A800" offset="100%"/></linearGradient><filter x="-3.3%" y="-2.7%" width="106.7%" height="106.7%" filterUnits="objectBoundingBox" id="a"><feOffset dy="1" in="SourceAlpha" result="shadowOffsetOuter1"/><feGaussianBlur stdDeviation="1.5" in="shadowOffsetOuter1" result="shadowBlurOuter1"/><feColorMatrix values="0 0 0 0 0 0 0 0 0 0 0 0 0 0 0 0 0 0 0.2 0" in="shadowBlurOuter1" result="shadowMatrixOuter1"/><feMorphology radius=".5" in="SourceAlpha" result="shadowSpreadOuter2"/><feOffset dy="2" in="shadowSpreadOuter2" result="shadowOffsetOuter2"/><feGaussianBlur stdDeviation=".5" in="shadowOffsetOuter2" result="shadowBlurOuter2"/><feColorMatrix values="0 0 0 0 0 0 0 0 0 0 0 0 0 0 0 0 0 0 0.12 0" in="shadowBlurOuter2" result="shadowMatrixOuter2"/><feOffset dy="1" in="SourceAlpha" result="shadowOffsetOuter3"/><feGaussianBlur stdDeviation=".5" in="shadowOffsetOuter3" result="shadowBlurOuter3"/><feColorMatrix values="0 0 0 0 0 0 0 0 0 0 0 0 0 0 0 0 0 0 0.14 0" in="shadowBlurOuter3" result="shadowMatrixOuter3"/><feMerge><feMergeNode in="shadowMatrixOuter1"/><feMergeNode in="shadowMatrixOuter2"/><feMergeNode in="shadowMatrixOuter3"/></feMerge></filter><rect id="b" x="0" y="0" width="150" height="150" rx="4"/><path d="M47.932 0c-.2.002-.401.006-.601.013C39.278.294 31.319 4.97 30.1 12.546c-7.772-3.086-15.077 1.03-15.077 8.045C.698 17.784-3.14 30.504 2.476 34.714c3.933 3.366 8.99 2.711 15.452 2.711h42.605c7.959 0 14.42-5.33 14.42-11.972 0-3.294-1.661-6.376-4.447-8.572l-8.394 8.384c-.198.2-.662.53-.995.594l-9.425 3.813a1.397 1.397 0 01-.677.136c-1.169 1.029-3.687 2.043-4.343 2.14-2.497.37-4.045-1.228-5.685-2.924-1.054-1.089-2.146-2.216-3.507-2.758a3.275 3.275 0 00-1.223-.245c-1.783 0-3.282 1.544-4.633 2.935-.515.53-1.002 1.03-1.472 1.412-1.425 1.16-2.84 1.692-4.181 1.599-1.56-.113-2.698-1.179-3.643-2.168l-.172-.182c-1.03-1.086-2.194-2.316-3.858-1.694-.838.316-1.581.933-2.056 1.396-.132.128-.253.264-.377.403-.302.337-.588.656-.988.836a1.11 1.11 0 01-.964-.03.763.763 0 01-.394-.599c-.062-.516.364-.861.774-1.195.068-.055.134-.108.197-.163l.339-.292c.979-.848 1.992-1.725 3.27-2.087 1.753-.492 3.26.394 4.217 1.228.307.267.608.587.925.928.84.902 1.711 1.832 2.903 1.974 1.78.211 3.305-1.356 4.314-2.391l.111-.115c1.19-1.221 2.314-2.377 3.924-3.011 1.517-.597 3.15-.407 4.717.553.958.588 1.737 1.408 2.492 2.2.481.508.98 1.034 1.526 1.5 1.594 1.36 3.098 1.587 4.732.716.213-.113.475-.312.782-.544a13.6 13.6 0 01.883-.628 1.408 1.408 0 01.13-.864l3.818-9.415c.065-.332.396-.795.593-.994l9.164-9.152C60.085 2.53 54.193.045 48.254 0h-.322zm8.752 18.124a2.32 2.32 0 01-1.854.66l-1.72 4.896 2.646 2.644 4.9-1.72a2.312 2.312 0 01.66-1.852l7.197-7.187c-.552-.3-1.138-.565-1.746-.802l-6.724 6.716c-.476.475-1.03.794-1.562.898-.463.089-.844.004-1.087-.236-.547-.547-.25-1.735.662-2.646l7.04-7.032a18.993 18.993 0 00-.684-2.058l-7.728 7.719z" id="d"/></defs><g transform="translate(3 2)" fill="none" fill-rule="evenodd"><use fill="#000" filter="url(#a)" xlink:href="#b"/><use fill="#FFF" xlink:href="#b"/><rect fill="url(#c)" width="150" height="150" rx="4"/><g transform="translate(37.423 47)"><mask id="e" fill="#fff"><use xlink:href="#d"/></mask><path d="M47.932 0c-.2.002-.401.006-.601.013C39.278.294 31.319 4.97 30.1 12.546c-7.772-3.086-15.077 1.03-15.077 8.045C.698 17.784-3.14 30.504 2.476 34.714c3.933 3.366 8.99 2.711 15.452 2.711h42.605c7.959 0 14.42-5.33 14.42-11.972 0-3.294-1.661-6.376-4.447-8.572l-8.394 8.384c-.198.2-.662.53-.995.594l-9.425 3.813a1.397 1.397 0 01-.677.136c-1.169 1.029-3.687 2.043-4.343 2.14-2.497.37-4.045-1.228-5.685-2.924-1.054-1.089-2.146-2.216-3.507-2.758a3.275 3.275 0 00-1.223-.245c-1.783 0-3.282 1.544-4.633 2.935-.515.53-1.002 1.03-1.472 1.412-1.425 1.16-2.84 1.692-4.181 1.599-1.56-.113-2.698-1.179-3.643-2.168l-.172-.182c-1.03-1.086-2.194-2.316-3.858-1.694-.838.316-1.581.933-2.056 1.396-.132.128-.253.264-.377.403-.302.337-.588.656-.988.836a1.11 1.11 0 01-.964-.03.763.763 0 01-.394-.599c-.062-.516.364-.861.774-1.195.068-.055.134-.108.197-.163l.339-.292c.979-.848 1.992-1.725 3.27-2.087 1.753-.492 3.26.394 4.217 1.228.307.267.608.587.925.928.84.902 1.711 1.832 2.903 1.974 1.78.211 3.305-1.356 4.314-2.391l.111-.115c1.19-1.221 2.314-2.377 3.924-3.011 1.517-.597 3.15-.407 4.717.553.958.588 1.737 1.408 2.492 2.2.481.508.98 1.034 1.526 1.5 1.594 1.36 3.098 1.587 4.732.716.213-.113.475-.312.782-.544a13.6 13.6 0 01.883-.628 1.408 1.408 0 01.13-.864l3.818-9.415c.065-.332.396-.795.593-.994l9.164-9.152C60.085 2.53 54.193.045 48.254 0h-.322zm8.752 18.124a2.32 2.32 0 01-1.854.66l-1.72 4.896 2.646 2.644 4.9-1.72a2.312 2.312 0 01.66-1.852l7.197-7.187c-.552-.3-1.138-.565-1.746-.802l-6.724 6.716c-.476.475-1.03.794-1.562.898-.463.089-.844.004-1.087-.236-.547-.547-.25-1.735.662-2.646l7.04-7.032a18.993 18.993 0 00-.684-2.058l-7.728 7.719z" fill="#FFF" mask="url(#e)"/></g><path d="M41.594 101.514a.23.23 0 01-.23.23h-1.133a.23.23 0 01-.229-.23V98.01H36.75v3.504a.23.23 0 01-.229.23h-1.134a.23.23 0 01-.229-.23v-8.061c0-.126.103-.218.23-.218h1.133c.126 0 .23.092.23.218v3.16h3.251v-3.16c0-.126.103-.218.23-.218h1.133c.126 0 .229.092.229.218v8.061zm7.641-5.622c0 2.027-1.534 2.68-3.298 2.68-.298 0-.756-.035-1.02-.047v2.99c0 .125-.09.228-.217.228h-1.145a.23.23 0 01-.229-.229v-7.878c0-.23.138-.31.367-.344a15.64 15.64 0 012.244-.149c1.764 0 3.298.619 3.298 2.646v.103zm-1.58 0v-.103c0-.962-.573-1.329-1.718-1.329-.24 0-.813.023-1.02.046v2.725a29.3 29.3 0 001.02.035c1.237 0 1.718-.458 1.718-1.374zm4.509 5.622a.23.23 0 01-.229.23h-1.134a.23.23 0 01-.229-.23v-8.061c0-.126.103-.218.23-.218h1.133c.126 0 .229.092.229.218v8.061zm9.884-1.981c0 1.1-.573 2.29-2.828 2.29-.802 0-1.398-.08-1.901-.16-.195-.034-.218-.08-.218-.206v-.458c0-.126.092-.183.195-.183h.034a26.04 26.04 0 001.89.068c1.374 0 1.74-.55 1.74-1.35 0-.573-.332-.894-1.374-1.535l-1.11-.676c-1.054-.641-1.581-1.225-1.581-2.141 0-1.386.996-2.027 2.737-2.027.675 0 1.557.068 1.992.137.115.023.195.08.195.195v.492c0 .115-.08.183-.195.183h-.023a32.32 32.32 0 00-1.97-.068c-1.179 0-1.683.252-1.683 1.088 0 .538.378.859 1.249 1.385l1.053.63c1.329.79 1.798 1.42 1.798 2.336zm5.385 1.913c0 .148-.045.217-.229.251a8.305 8.305 0 01-1.431.126c-1.557 0-2.44-1.099-2.44-2.782v-.893c0-1.684.871-2.783 2.44-2.783.527 0 1.053.057 1.431.126.184.034.23.091.23.252v.412c0 .115-.092.172-.195.172h-.046c-.504-.057-.859-.08-1.42-.08-.916 0-1.431.607-1.431 1.9v.894c0 1.282.503 1.9 1.43 1.9.562 0 .917-.022 1.42-.08h.047c.103 0 .194.058.194.172v.413zm6.117.068a.23.23 0 01-.229.23h-.55a.23.23 0 01-.228-.23v-3.767c0-1.145-.481-1.5-1.226-1.5-.355 0-1.076.091-1.58.32v4.947a.237.237 0 01-.229.23h-.561c-.115 0-.218-.104-.218-.23v-8.153c0-.126.092-.23.218-.23h.573c.126 0 .217.104.217.23v2.359c.55-.24 1.26-.355 1.752-.355 1.214 0 2.061.698 2.061 2.382v3.767zm6.392 0c0 .126-.091.23-.217.23h-.573c-.126 0-.217-.104-.217-.23v-.217c-.63.355-1.146.526-1.821.526-1.374 0-1.993-.858-1.993-2.381v-3.768a.23.23 0 01.23-.229h.549a.23.23 0 01.229.23v3.767c0 1.156.39 1.511 1.26 1.511.48 0 1.019-.183 1.546-.446v-4.833c0-.114.103-.229.229-.229h.56c.115 0 .218.103.218.23v5.84zm2.693 0c0 .115-.08.23-.206.23h-.595c-.115 0-.206-.104-.206-.23V93.35c0-.114.08-.217.206-.217h.595c.115 0 .206.091.206.217v8.165zm4.243-2.897c0 .115-.092.195-.218.195h-2.278c-.126 0-.218-.069-.218-.195v-.447c0-.114.092-.206.218-.206h2.278c.126 0 .218.08.218.206v.447zm6.601 2.829c0 .137-.103.206-.229.229-.48.091-.927.148-1.9.148-1.41 0-3.024-.755-3.024-3.538v-1.592c0-2.805 1.615-3.538 3.023-3.538.722 0 1.42.103 1.924.183.103.011.183.046.183.149v.584c0 .069-.022.126-.137.126h-.034a25.658 25.658 0 00-1.924-.103c-1.122 0-1.993.653-1.993 2.6v1.591c0 1.924.87 2.6 1.993 2.6.653 0 1.477-.058 1.89-.092h.045c.126 0 .183.057.183.183v.47zm2.37.068c0 .115-.08.23-.206.23h-.595c-.115 0-.206-.104-.206-.23V93.35c0-.114.08-.217.206-.217h.595c.115 0 .207.091.207.217v8.165zm6.565-2.485c0 1.684-.87 2.794-2.553 2.794-1.684 0-2.542-1.11-2.542-2.794v-.87c0-1.683.858-2.794 2.542-2.794 1.683 0 2.553 1.11 2.553 2.794v.87zm-1.007 0v-.87c0-1.168-.47-1.912-1.546-1.912-1.065 0-1.535.733-1.535 1.912v.87c0 1.168.458 1.913 1.535 1.913 1.065 0 1.546-.733 1.546-1.913zm7.237 2.485c0 .126-.092.23-.218.23h-.572c-.126 0-.218-.104-.218-.23v-.217c-.63.355-1.145.526-1.82.526-1.375 0-1.993-.858-1.993-2.381v-3.768a.23.23 0 01.229-.229h.55a.23.23 0 01.228.23v3.767c0 1.156.39 1.511 1.26 1.511.481 0 1.02-.183 1.546-.446v-4.833c0-.114.103-.229.229-.229h.561c.115 0 .218.103.218.23v5.84zm6.282-.149c0 .15-.035.23-.24.264-.71.137-1.41.194-2.108.194-1.706 0-2.496-1.11-2.496-2.828v-.825c0-1.797.824-2.805 2.496-2.805.355 0 .893.034 1.34.114v-2.13c0-.114.092-.217.218-.217h.584c.114 0 .206.091.206.217v8.016zm-1.008-.492v-4.546c-.378-.069-.973-.08-1.34-.08-1.122 0-1.489.698-1.489 1.923v.825c0 1.248.355 1.947 1.49 1.947.388 0 .95-.035 1.339-.07z" fill="#FFF" fill-rule="nonzero"/></g></svg>