<svg xmlns="http://www.w3.org/2000/svg" xmlns:xlink="http://www.w3.org/1999/xlink" width="160" height="160"><defs><filter x="-5.3%" y="-4.7%" width="110.7%" height="110.7%" id="a"><feOffset dy="1" in="SourceAlpha"/><feGaussianBlur stdDeviation="2.5"/><feColorMatrix values="0 0 0 0 0 0 0 0 0 0 0 0 0 0 0 0 0 0 0.2 0" result="C"/><feMorphology radius="1" in="SourceAlpha"/><feOffset dy="3"/><feGaussianBlur stdDeviation=".5"/><feColorMatrix values="0 0 0 0 0 0 0 0 0 0 0 0 0 0 0 0 0 0 0.12 0" result="G"/><feOffset dy="2" in="SourceAlpha"/><feGaussianBlur stdDeviation="1"/><feColorMatrix values="0 0 0 0 0 0 0 0 0 0 0 0 0 0 0 0 0 0 0.14 0" result="J"/><feMerge><feMergeNode in="C"/><feMergeNode in="G"/><feMergeNode in="J"/></feMerge></filter><rect id="b" width="150" height="150" rx="4"/></defs><g transform="translate(5 4)" fill="none" fill-rule="evenodd"><use fill="#000" filter="url(#a)" xlink:href="#b"/><use fill="#fff" xlink:href="#b"/><g fill-rule="nonzero"><path d="M57.458 95.026c.777 0 1.792.079 2.292.158.132.026.224.092.224.224v.567c0 .132-.092.211-.224.211h-.026l-2.266-.079c-1.357 0-1.937.29-1.937 1.252 0 .619.435.988 1.436 1.594l1.212.725c1.528.909 2.069 1.634 2.069 2.688 0 1.265-.659 2.635-3.254 2.635-.922 0-1.607-.092-2.187-.184-.224-.04-.25-.092-.25-.237v-.527c0-.145.105-.211.224-.211h.04a29.96 29.96 0 002.174.079c1.581 0 2.003-.632 2.003-1.555 0-.659-.382-1.028-1.581-1.765l-1.278-.777c-1.212-.738-1.818-1.41-1.818-2.464 0-1.594 1.146-2.332 3.149-2.332zm7.066 2.543a9.68 9.68 0 011.647.145c.211.04.264.105.264.29v.474c0 .132-.105.198-.224.198h-.053a12.83 12.83 0 00-1.634-.092c-1.054 0-1.647.698-1.647 2.187v1.028c0 1.476.58 2.187 1.647 2.187.646 0 1.054-.026 1.634-.092h.053c.119 0 .224.066.224.198v.474c0 .171-.053.25-.264.29a9.565 9.565 0 01-1.647.145c-1.792 0-2.806-1.265-2.806-3.202v-1.028c0-1.937 1.001-3.202 2.806-3.202zm11.652.092c.145 0 .264.119.264.264v4.335c0 1.331.448 1.739 1.449 1.739.553 0 1.173-.211 1.779-.514v-5.56c0-.132.119-.264.264-.264h.646c.132 0 .25.119.25.264v6.719c0 .145-.105.264-.25.264h-.659c-.145 0-.25-.119-.25-.264v-.25c-.725.408-1.318.606-2.095.606-1.581 0-2.292-.988-2.292-2.74v-4.335c0-.145.119-.264.264-.264h.632zm17.775-2.635c.83 0 1.634.119 2.213.211.119.013.211.053.211.171v.672c0 .079-.026.145-.158.145h-.04l-2.213-.119c-1.291 0-2.292.751-2.292 2.991v1.831c0 2.213 1.001 2.991 2.292 2.991l2.174-.105h.053a.18.18 0 01.211.211v.54c0 .158-.119.237-.264.264-.553.105-1.067.171-2.187.171-1.621 0-3.478-.87-3.478-4.071v-1.831c0-3.228 1.858-4.071 3.478-4.071zm9.793 2.543c1.937 0 2.938 1.278 2.938 3.215v1.001c0 1.937-1.001 3.215-2.938 3.215s-2.925-1.278-2.925-3.215v-1.001c0-1.937.988-3.215 2.925-3.215zm5.454.092c.145 0 .264.119.264.264v4.335c0 1.331.448 1.739 1.449 1.739.553 0 1.173-.211 1.779-.514v-5.56c0-.132.119-.264.264-.264h.646c.132 0 .25.119.25.264v6.719c0 .145-.105.264-.25.264h-.659c-.145 0-.25-.119-.25-.264v-.25c-.725.408-1.318.606-2.095.606-1.581 0-2.292-.988-2.292-2.74v-4.335c0-.145.119-.264.264-.264h.632zM120.839 95c.132 0 .237.105.237.25v9.223c0 .171-.04.264-.277.303-.817.158-1.621.224-2.424.224-1.963 0-2.872-1.278-2.872-3.254v-.949c0-2.069.949-3.228 2.872-3.228a9.61 9.61 0 011.542.132V95.25a.25.25 0 01.25-.25h.672zm-89.971.119c.145 0 .264.105.264.25v3.636h3.742v-3.636c0-.145.119-.25.264-.25h1.304c.145 0 .264.105.264.25v9.275a.265.265 0 01-.264.264h-1.304a.265.265 0 01-.264-.264v-4.032h-3.742v4.032a.265.265 0 01-.264.264h-1.304a.265.265 0 01-.264-.264v-9.275c0-.145.119-.25.264-.25h1.304zm10.834-.105c2.029 0 3.794.711 3.794 3.043v.119c0 2.332-1.765 3.083-3.794 3.083-.343 0-.87-.04-1.173-.053v3.439c0 .145-.105.264-.25.264h-1.318a.265.265 0 01-.264-.264V95.58c0-.264.158-.356.422-.395.685-.105 1.621-.171 2.582-.171zm6.901.105c.145 0 .264.105.264.25v9.275a.265.265 0 01-.264.264h-1.304a.265.265 0 01-.264-.264v-9.275c0-.145.119-.25.264-.25h1.304zM98.891 95c.132 0 .237.105.237.25v9.394c0 .132-.092.264-.237.264h-.685c-.132 0-.237-.119-.237-.264V95.25c0-.132.092-.25.237-.25h.685zm-15.203 0c.132 0 .237.105.237.25v9.394c0 .132-.092.264-.237.264h-.685c-.132 0-.237-.119-.237-.264V95.25c0-.132.092-.25.237-.25h.685zm-14.853 0c.145 0 .25.119.25.264v2.714c.632-.277 1.449-.408 2.016-.408 1.397 0 2.372.804 2.372 2.74v4.335a.265.265 0 01-.264.264h-.632a.265.265 0 01-.264-.264v-4.335c0-1.318-.553-1.726-1.41-1.726-.408 0-1.238.105-1.818.369v5.692a.274.274 0 01-.264.264h-.646c-.132 0-.25-.119-.25-.264v-9.381c0-.145.105-.264.25-.264h.659zm49.541 3.584c-1.291 0-1.713.804-1.713 2.213v.949c0 1.436.408 2.24 1.713 2.24.448 0 1.094-.04 1.542-.079v-5.231c-.435-.079-1.12-.092-1.542-.092zm-14.632 0c-1.225 0-1.765.843-1.765 2.2v1.001c0 1.344.527 2.2 1.765 2.2 1.225 0 1.779-.843 1.779-2.2v-1.001c0-1.344-.54-2.2-1.779-2.2zm-15.188 1.976c.145 0 .25.092.25.237v.514c0 .132-.105.224-.25.224h-2.622c-.145 0-.25-.079-.25-.224v-.514c0-.132.105-.237.25-.237h2.622zm-46.854-4.032l-1.173.053v3.136l.405.018.354.012.414.009c1.423 0 1.976-.527 1.976-1.581v-.119c0-1.107-.659-1.528-1.976-1.528z" fill="#d9174c"/><path d="M30.518 112.917v-4.834H30v4.834h.518zm8.133.076v-4.91h-.497v3.059l.076.725h-.028l-.283-.725-1.789-3.135h-.311v4.91h.497v-3.066l-.076-.76h.021l.297.76 1.775 3.142h.318zm6.558-.076v-4.358h1.188v-.477h-2.894v.477h1.188v4.358h.518zm8.222 0v-.477h-1.664v-1.768h1.499v-.477h-1.499v-1.637h1.63v-.477h-2.148v4.834h2.182zm5.612 0v-2.21l.518.104 1.036 2.106h.601l-.953-1.927-.262-.256c.262-.078.473-.233.632-.463s.238-.536.238-.919c0-.253-.036-.464-.107-.632s-.167-.304-.287-.407-.26-.177-.421-.221-.331-.066-.511-.066l-.501.024a3.51 3.51 0 00-.501.079v4.786h.518zm.414-2.555h-.414v-1.816c.051-.014.125-.024.224-.031l.287-.01c.249 0 .436.083.563.249s.19.375.19.628c0 .331-.076.578-.228.739s-.359.242-.622.242zm9.528 2.631v-4.91h-.497v3.059l.076.725h-.028l-.283-.725-1.789-3.135h-.311v4.91h.497v-3.066l-.076-.76h.021l.297.76 1.775 3.142h.318zm5.301-.076l.387-1.354h1.367l.394 1.354h.539l-1.457-4.91h-.283l-1.457 4.91h.511zm1.63-1.816h-1.105l.407-1.478.131-.739h.014l.131.725.421 1.492zm6.827 1.816v-4.358h1.188v-.477h-2.894v.477h1.188v4.358h.518zm6.662 0v-4.834h-.518v4.834h.518zm6.751.083c.539 0 .94-.212 1.205-.635s.397-1.045.397-1.865a5.46 5.46 0 00-.09-1.036c-.06-.308-.153-.571-.28-.787s-.291-.383-.494-.501-.449-.176-.739-.176c-.539 0-.939.212-1.202.635s-.394 1.045-.394 1.865c0 .382.029.727.086 1.036s.151.571.28.787.295.383.497.501.447.176.732.176zm0-.477a.729.729 0 01-.483-.166 1.2 1.2 0 01-.325-.442c-.083-.184-.144-.398-.183-.642s-.059-.502-.059-.773c0-.686.09-1.195.269-1.526s.44-.497.78-.497c.193 0 .357.055.49.166s.242.259.325.445.144.402.183.646.059.5.059.767c0 .686-.09 1.195-.269 1.526s-.442.497-.787.497zm9.486.47v-4.91h-.497v3.059l.076.725h-.028l-.283-.725-1.789-3.135h-.311v4.91h.497v-3.066l-.076-.76h.021l.297.76 1.775 3.142h.318zm5.301-.076l.387-1.354h1.367l.394 1.354h.539l-1.457-4.91h-.283l-1.457 4.91h.511zm1.63-1.816h-1.105l.407-1.478.131-.739h.014l.131.725.421 1.492zm8.174 1.816v-.477h-1.809v-4.358h-.518v4.834h2.327z" fill="#17212a"/></g><path d="M85.355 47l-.602.013c-8.053.281-16.012 4.957-17.23 12.533-7.772-3.086-15.076 1.03-15.076 8.044-14.326-2.807-18.165 9.914-12.548 14.123 3.933 3.366 8.99 2.711 15.452 2.711h42.605c7.959 0 14.421-5.331 14.421-11.972 0-3.294-1.662-6.377-4.448-8.572l-8.394 8.384c-.199.2-.662.529-.995.594l-9.425 3.813a1.408 1.408 0 01-.677.136c-1.168 1.029-3.687 2.042-4.343 2.14-2.497.37-4.045-1.228-5.685-2.924-1.054-1.089-2.146-2.216-3.507-2.758a3.267 3.267 0 00-1.223-.245c-1.783 0-3.282 1.544-4.633 2.934-.515.53-1.002 1.03-1.472 1.412-1.425 1.16-2.84 1.692-4.181 1.599-1.56-.112-2.697-1.179-3.643-2.168l-.171-.182c-1.03-1.086-2.194-2.316-3.858-1.694-.839.316-1.582.933-2.057 1.396-.131.127-.253.264-.377.403-.302.337-.587.656-.988.836a1.11 1.11 0 01-.964-.03.76.76 0 01-.394-.599c-.062-.516.364-.861.774-1.195l.197-.163.339-.292c.979-.848 1.992-1.725 3.27-2.087 1.753-.492 3.26.394 4.217 1.228.307.267.608.587.926.928.84.901 1.711 1.832 2.903 1.973 1.779.212 3.305-1.356 4.315-2.391l.111-.114c1.191-1.222 2.314-2.377 3.924-3.011 1.517-.597 3.15-.407 4.717.553.958.588 1.737 1.408 2.491 2.201.482.508.98 1.033 1.526 1.499 1.595 1.359 3.098 1.587 4.732.717.213-.113.475-.313.781-.544.272-.205.575-.432.884-.628a1.41 1.41 0 01.13-.865l3.818-9.414c.065-.333.395-.795.593-.994l9.164-9.153c-3.246-5.645-9.138-8.13-15.077-8.175h-.322zm8.752 18.124a2.32 2.32 0 01-1.854.661l-1.72 4.895 2.647 2.644 4.9-1.719a2.31 2.31 0 01.661-1.852l7.197-7.187a15.22 15.22 0 00-1.746-.802l-6.724 6.716c-.476.475-1.03.794-1.562.898-.463.089-.844.005-1.087-.235-.547-.547-.25-1.735.662-2.647l7.039-7.032a18.942 18.942 0 00-.684-2.058l-7.728 7.719z" fill="#d9174c"/></g></svg>