<svg version="1.1" id="Layer_1" xmlns="http://www.w3.org/2000/svg" x="0" y="0" viewBox="0 0 133 133" xml:space="preserve"><style/><linearGradient id="BG_1_" gradientUnits="userSpaceOnUse" x1="-502.146" y1="3.552" x2="-501.245" y2="2.651" gradientTransform="matrix(133 0 0 133 66792 -346)"><stop offset="0" stop-color="#9e292b"/><stop offset="1" stop-color="#f6a800"/></linearGradient><path id="BG" d="M4 0h125c2.2 0 4 1.8 4 4v125c0 2.2-1.8 4-4 4H4c-2.2 0-4-1.8-4-4V4c0-2.2 1.8-4 4-4z" fill-rule="evenodd" clip-rule="evenodd" fill="url(#BG_1_)"/><path fill="#fff" d="M95.53 89.536a.22.22 0 01.22.22v3.62c0 1.11.374 1.452 1.2 1.452.462 0 .98-.176 1.485-.43v-4.642c0-.1.1-.22.22-.22h.54c.1 0 .21.1.21.22v5.6c0 .12-.088.22-.21.22h-.55c-.12 0-.21-.1-.21-.22v-.21c-.605.34-1.1.506-1.75.506-1.32 0-1.914-.825-1.914-2.288v-3.62a.22.22 0 01.22-.22h.528zm9.72-2.222c.1 0 .198.088.198.21v7.7c0 .143-.033.22-.23.253-.682.132-1.353.187-2.024.187-1.64 0-2.398-1.067-2.398-2.717v-.792c0-1.727.792-2.695 2.398-2.695.34 0 .858.033 1.287.1v-2.046c0-.1.088-.21.21-.21h.56zM90.977 89.46c1.617 0 2.453 1.067 2.453 2.684v.836c0 1.617-.836 2.684-2.453 2.684s-2.442-1.067-2.442-2.684v-.836c0-1.617.825-2.684 2.442-2.684zm-38.644-2.123l.455.01.237.01.466.03.42.04.335.043c.1.022.187.077.187.187v.473c0 .1-.077.176-.187.176l-.497-.028-.557-.023-.58-.014-.28-.002c-1.133 0-1.617.242-1.617 1.045 0 .517.363.825 1.2 1.33l1.012.605c1.276.76 1.727 1.364 1.727 2.244 0 1.056-.55 2.2-2.717 2.2-.578 0-1.044-.043-1.445-.097l-.38-.057c-.187-.033-.21-.077-.21-.198v-.44c0-.12.088-.176.187-.176h.033l.907.05.633.015h.275c1.32 0 1.672-.528 1.672-1.298 0-.447-.21-.734-.826-1.156l-.314-.206-.18-.112-1.067-.65c-1.012-.616-1.518-1.177-1.518-2.057 0-1.33.957-1.947 2.63-1.947zm30.468 0c.495 0 .98.05 1.39.107l.457.07c.1.01.176.044.176.143v.56c0 .066-.022.12-.132.12h-.033l-.513-.04-.432-.028-.458-.022-.445-.01c-1.078 0-1.914.627-1.914 2.497v1.53c0 1.848.836 2.497 1.914 2.497l.436-.007.448-.02.614-.038.317-.024h.044a.15.15 0 01.176.176v.45c0 .132-.1.198-.22.22l-.23.04-.24.035-.265.028-.304.02-.358.013-.428.004c-1.353 0-2.904-.726-2.904-3.4v-1.53c0-2.695 1.55-3.4 2.904-3.4zm-24.57 2.123c.506 0 1.012.055 1.375.12.176.033.22.088.22.242v.396c0 .1-.088.165-.187.165h-.044l-.45-.044-.915-.033c-.88 0-1.375.583-1.375 1.826V93c0 1.232.484 1.826 1.375 1.826.54 0 .88-.022 1.364-.077h.044c.1 0 .187.055.187.165v.396c0 .143-.044.21-.22.242a7.98 7.98 0 01-1.375.121c-1.496 0-2.343-1.056-2.343-2.673v-.858c0-1.617.836-2.673 2.343-2.673zm9.728.077a.22.22 0 01.22.22v3.62c0 1.11.374 1.452 1.2 1.452.462 0 .98-.176 1.485-.43v-4.642c0-.1.1-.22.22-.22h.54c.1 0 .21.1.21.22v5.6c0 .12-.088.22-.21.22h-.55c-.12 0-.21-.1-.21-.22v-.21c-.605.34-1.1.506-1.75.506-1.32 0-1.914-.825-1.914-2.288v-3.62a.22.22 0 01.22-.22h.528zm-6.13-2.222c.12 0 .21.1.21.22V89.8c.528-.23 1.2-.34 1.683-.34 1.166 0 1.98.67 1.98 2.288v3.62a.22.22 0 01-.22.22h-.528a.22.22 0 01-.22-.22v-3.62c0-1.1-.462-1.44-1.177-1.44-.34 0-1.034.088-1.518.308v4.752c0 .1-.1.22-.22.22h-.54c-.1 0-.21-.1-.21-.22v-7.832c0-.12.088-.22.21-.22h.55zm12.4 0c.1 0 .198.088.198.21v7.843c0 .1-.077.22-.198.22h-.572c-.1 0-.198-.1-.198-.22v-7.843c0-.1.077-.21.198-.21h.572zm12.693 0c.1 0 .198.088.198.21v7.843c0 .1-.077.22-.198.22h-.572c-.1 0-.198-.1-.198-.22v-7.843c0-.1.077-.21.198-.21h.572zm-41.986.1c.12 0 .22.088.22.21v7.744a.22.22 0 01-.22.22h-1.09a.22.22 0 01-.22-.22v-7.744c0-.12.1-.21.22-.21h1.09zm-5.76-.088c1.694 0 3.168.594 3.168 2.54v.1c0 1.947-1.474 2.574-3.168 2.574l-.187-.004-.42-.02-.372-.02v2.87c0 .12-.088.22-.21.22h-1.1a.22.22 0 01-.22-.22v-7.568c0-.22.132-.297.352-.33a15.023 15.023 0 012.156-.143zm-9.045.088c.12 0 .22.088.22.21v3.036h3.124v-3.036c0-.12.1-.21.22-.21h1.09c.12 0 .22.088.22.21v7.744a.22.22 0 01-.22.22h-1.09a.22.22 0 01-.22-.22V92h-3.124v3.366a.22.22 0 01-.22.22h-1.09a.22.22 0 01-.22-.22v-7.744c0-.12.1-.21.22-.21h1.09zm73.06 2.893c-1.078 0-1.43.67-1.43 1.848v.792c0 1.2.34 1.87 1.43 1.87.374 0 .913-.033 1.287-.066v-4.367c-.363-.066-.935-.077-1.287-.077zm-12.216 0c-1.023 0-1.474.704-1.474 1.837v.836c0 1.122.44 1.837 1.474 1.837 1.023 0 1.485-.704 1.485-1.837v-.836c0-1.122-.45-1.837-1.485-1.837zm-12.68 1.65c.12 0 .21.077.21.198v.43c0 .1-.088.187-.21.187h-2.19c-.12 0-.21-.066-.21-.187v-.43c0-.1.088-.198.21-.198h2.19zM39.18 88.6l-.26.005-.478.02-.24.018v2.618l.57.023.408.01c1.188 0 1.65-.44 1.65-1.32v-.1c0-.924-.55-1.276-1.65-1.276zm55.214-42.205l.202.342-9.78 9.77c-.188.188-.488.6-.602.938l-.033.122-4.073 10.05a1.48 1.48 0 00-.145.773l-.623.428-.753.564-.453.297c-1.817.97-3.39.55-4.913-.75a15.42 15.42 0 01-.984-.928l-.625-.65c-.828-.872-1.653-1.742-2.695-2.38-1.592-.973-3.38-1.295-5.145-.6-1.438.566-2.517 1.515-3.566 2.563l-1.233 1.255-.32.3c-1.034.982-2.3 1.92-3.734 1.752-1.052-.125-1.883-.873-2.648-1.67l-.69-.735-.68-.663c-1.298-1.13-2.888-1.826-4.618-1.336-1.03.293-1.892.884-2.704 1.546l-.482.404-.713.615-.406.334c-.38.32-.736.697-.673 1.224.093.794.976 1.06 1.625.77.352-.158.626-.412.88-.686l.454-.5.156-.16c.6-.584 1.36-1.166 2.15-1.463 1.345-.505 2.386.195 3.295 1.073l.256.255.615.644c1.095 1.148 2.3 2.232 3.97 2.353 1.706.124 3.266-.69 4.552-1.735l.144-.12.292-.26.296-.28.3-.297 1.087-1.112.323-.32.163-.16.33-.3c1.394-1.27 2.95-2.222 4.758-1.5 1.043.416 1.93 1.154 2.774 1.978l.387.386 1.148 1.178.193.192.39.376c1.373 1.3 2.878 2.278 4.985 1.963a2.92 2.92 0 00.366-.087l.33-.106.386-.14.21-.08.444-.184c1.068-.46 2.326-1.128 3.05-1.804.137-.013.276-.04.414-.09l.14-.06 10.06-4.07c.316-.06.742-.347.98-.56l.08-.075 8.96-8.948c2.974 2.343 4.747 5.633 4.747 9.15 0 6.993-6.713 12.626-15.053 12.775l-.34.003-46.385.004-3.05.04-1.243.01-.807-.002-.397-.005-.782-.018c-3.613-.115-6.69-.69-9.3-2.925-5.997-4.492-1.9-18.07 13.392-15.074 0-7.487 7.795-11.88 16.09-8.585 1.3-8.086 9.794-13.078 18.4-13.377 6.543-.228 13.187 2.28 16.875 8.37zm1.356 2.72c.14.353.27.718.4 1.09l.176.565-7.7 7.693c-1.202 1.2-1.485 2.753-.707 3.53.745.744 2.204.516 3.38-.56l.152-.145 7.324-7.316c.313.133.62.272.92.42l.444.23-7.68 7.67a2.471 2.471 0 00-.718 1.815l.012.162-5.23 1.835-2.824-2.82 1.836-5.226a2.48 2.48 0 001.834-.571l.146-.134 8.247-8.238z"/></svg>