<svg version="1.1" id="Layer_1" xmlns="http://www.w3.org/2000/svg" x="0" y="0" viewBox="0 0 156 156" xml:space="preserve"><style>.st2{fill:#fff}</style><linearGradient id="BG_1_" gradientUnits="userSpaceOnUse" x1="-478.737" y1="3.097" x2="-477.836" y2="2.196" gradientTransform="matrix(150 0 0 150 71821 -320)"><stop offset="0" stop-color="#b1063a"/><stop offset="1" stop-color="#f6a800"/></linearGradient><path id="BG_2_" d="M7 2h142c2.2 0 4 1.8 4 4v142c0 2.2-1.8 4-4 4H7c-2.2 0-4-1.8-4-4V6c0-2.2 1.8-4 4-4z" fill-rule="evenodd" clip-rule="evenodd" fill="url(#BG_1_)"/><g id="Group-10" transform="translate(.3)"><g id="Bildmarke" transform="translate(3.123)"><path id="Fill-1" d="M84.9 49h-.6c-8.1.3-16 5-17.2 12.5-7.8-3.1-15.1 1-15.1 8-14.3-2.7-18.1 10-12.5 14.2 3.9 3.4 9 2.7 15.5 2.7h42.6c8 0 14.4-5.3 14.4-12 0-3.3-1.7-6.4-4.4-8.6l-8.4 8.4c-.2.2-.7.5-1 .6l-9.4 3.8c-.2.1-.5.1-.7.1-1.2 1-3.7 2-4.3 2.1-2.5.4-4-1.2-5.7-2.9-1.1-1.1-2.1-2.2-3.5-2.8-.4-.2-.8-.2-1.2-.2-1.8 0-3.3 1.5-4.6 2.9-.5.5-1 1-1.5 1.4-1.4 1.2-2.8 1.7-4.2 1.6-1.6-.1-2.7-1.2-3.6-2.2l-.2-.2c-1-1.1-2.2-2.3-3.9-1.7-.8.3-1.6.9-2.1 1.4l-.4.4c-.3.3-.6.7-1 .8-.3.1-.7.1-1 0-.2-.1-.4-.3-.4-.6-.1-.5.4-.9.8-1.2l.2-.2.3-.3c1-.8 2-1.7 3.3-2.1 1.8-.5 3.3.4 4.2 1.2l.9.9c.8.9 1.7 1.8 2.9 2 1.8.2 3.3-1.4 4.3-2.4l.1-.1c1.2-1.2 2.3-2.4 3.9-3 1.5-.6 3.1-.4 4.7.6 1 .6 1.7 1.4 2.5 2.2l1.5 1.5c1.6 1.4 3.1 1.6 4.7.7.2-.1.5-.3.8-.5l.9-.6c0-.3 0-.6.1-.9l3.8-9.4c.1-.3.4-.8.6-1l9.2-9.2c-3.1-5.4-9-7.9-14.9-7.9h-.4zm8.8 18.1c-.5.5-1.3.7-1.9.7l-1.7 4.9 2.6 2.6 4.9-1.7c-.1-.6.1-1.3.7-1.9l7.2-7.2c-.6-.3-1.1-.6-1.7-.8L97 70.5c-.5.5-1 .8-1.6.9-.5.1-.8 0-1.1-.2-.5-.5-.3-1.7.7-2.6l7-7c-.2-.7-.4-1.4-.7-2.1l-7.6 7.6z" fill-rule="evenodd" clip-rule="evenodd" fill="#fff"/></g><g id="TXT" transform="translate(0 45.805)"><path id="HPI" class="st2" d="M44.3 57.7c0 .1-.1.2-.2.2h-1.2c-.1 0-.2-.1-.2-.2v-3.5h-3.2v3.5c0 .1-.1.2-.2.2h-1.2c-.1 0-.2-.1-.2-.2v-8.1c0-.1.1-.2.2-.2h1.1c.1 0 .2.1.2.2v3.2h3.3v-3.2c0-.1.1-.2.2-.2H44c.1 0 .2.1.2.2l.1 8.1zm7.6-5.6c0 2-1.5 2.7-3.3 2.7h-1v3c0 .1-.1.2-.2.2h-1.1c-.1 0-.2-.1-.2-.2v-8c0-.2.1-.3.4-.3.6-.1 1.4-.1 2.2-.1 1.8 0 3.3.6 3.2 2.7zm-1.5 0c0-1.1-.6-1.4-1.7-1.4h-1v2.7h1c1.2.1 1.7-.4 1.7-1.3zm4.5 5.6c0 .1-.1.2-.2.2h-1.1c-.1 0-.2-.1-.2-.2v-8.1c0-.1.1-.2.2-.2h1.1c.1 0 .2.1.2.2v8.1z"/><path id="Schul-Cloud" class="st2" d="M64.7 55.7c0 1.1-.6 2.3-2.8 2.3-.8 0-1.4-.1-1.9-.2-.2 0-.2-.1-.2-.2v-.5c0-.1.1-.2.2-.2.5 0 1.4.1 1.9.1 1.4 0 1.7-.5 1.7-1.4 0-.6-.3-.9-1.4-1.5l-1.1-.7c-1.1-.6-1.6-1.2-1.6-2.1 0-1.4 1-2 2.7-2 .7 0 1.6.1 2 .1.1 0 .2.1.2.2v.5c0 .1-.1.2-.2.2-.5 0-1.3-.1-2-.1-1.2 0-1.7.3-1.7 1.1 0 .5.4.9 1.2 1.4l1.3.7c1.3.8 1.7 1.4 1.7 2.3zm5.4 1.9c0 .1 0 .2-.2.3-.4.1-.9.1-1.4.1-1.6 0-2.5-1.1-2.5-2.8v-.9c0-1.7.9-2.8 2.4-2.8.5 0 1.1.1 1.4.1.2 0 .2.1.2.3v.4c0 .1-.1.2-.2.2-.5-.1-.9-.1-1.4-.1-.8 0-1.4.6-1.4 1.9v.9c0 1.3.5 1.9 1.4 1.9.6 0 .9 0 1.4-.1.1 0 .2.1.2.2l.1.4zm6.2.1c0 .1-.1.2-.2.2h-.5c-.1 0-.2-.1-.2-.2v-3.8c0-1.1-.5-1.5-1.2-1.5-.4 0-1.1.1-1.6.3v4.9c0 .1-.1.2-.2.2h-.6c-.1 0-.2-.1-.2-.2v-8c0-.1.1-.2.2-.2h.6c.1 0 .2.1.2.2V52c.5-.2 1.3-.4 1.8-.4 1.2 0 2.1.7 2.1 2.4v3.7h-.2zm6.3 0c0 .1-.1.2-.2.2h-.6c-.1 0-.2-.1-.2-.2v-.2c-.6.3-1.1.5-1.8.5-1.4 0-2-.9-2-2.4v-3.7c0-.1.1-.2.2-.2h.5c.1 0 .2.1.2.2v3.8c0 1.2.4 1.5 1.3 1.5.5 0 1-.2 1.5-.4v-4.9c0-.1.1-.2.2-.2h.6c.1 0 .2.1.2.2l.1 5.8zm2.7 0c0 .1-.1.2-.2.2h-.6c-.1 0-.2-.1-.2-.2v-8.2c0-.1.1-.2.2-.2h.6c.1 0 .2.1.2.2v8.2zm4.3-2.9c0 .1-.1.2-.2.2h-2.3c-.1 0-.2-.1-.2-.2v-.4c0-.1.1-.2.2-.2h2.3c.1 0 .2.1.2.2v.4zm6.6 2.8c0 .1-.1.2-.2.2-.5.2-1 .2-2 .2-1.4 0-3-.8-3-3.5v-1.6c0-2.8 1.6-3.5 3-3.5.7 0 1.4.1 1.9.2.1 0 .2 0 .2.1v.6c0 .1 0 .1-.1.1-.4 0-1.3-.1-1.9-.1-1.1 0-2 .7-2 2.6v1.6c0 1.9.9 2.6 2 2.6.7 0 1.5-.1 1.9-.1.1 0 .2.1.2.2v.4zm2.3.1c0 .1-.1.2-.2.2h-.6c-.1 0-.2-.1-.2-.2v-8.2c0-.1.1-.2.2-.2h.6c.1 0 .2.1.2.2v8.2zm6.6-2.5c0 1.7-.9 2.8-2.6 2.8-1.6 0-2.5-1.1-2.5-2.8v-.8c0-1.7.9-2.8 2.5-2.8 1.7 0 2.6 1.1 2.6 2.8v.8zm-1 0v-.8c0-1.2-.5-1.9-1.5-1.9-1.1 0-1.5.7-1.5 1.9v.9c0 1.2.5 1.9 1.5 1.9 1-.1 1.5-.8 1.5-2zm7.2 2.5c0 .1-.1.2-.2.2h-.6c-.1 0-.2-.1-.2-.2v-.2c-.6.4-1.1.5-1.8.5-1.4 0-2-.9-2-2.4v-3.7c0-.1.1-.2.2-.2h.5c.1 0 .2.1.2.2v3.8c0 1.2.4 1.5 1.3 1.5.5 0 1-.2 1.5-.4v-4.9c0-.1.1-.2.2-.2h.6c.1 0 .2.1.2.2v5.8h.1zm6.3-.1c0 .1 0 .2-.2.3-.7.1-1.4.1-2.1.1-1.7 0-2.5-1.1-2.5-2.8v-.8c0-1.8.8-2.8 2.5-2.8.4 0 .9 0 1.3.1v-2.2c0-.1.1-.2.2-.2h.6c.1 0 .2.1.2.2v8.1zm-1-.5v-4.6c-.4-.1-1-.1-1.3-.1-1.1 0-1.5.7-1.5 1.9v.8c0 1.2.4 1.9 1.5 1.9.4.1.9.1 1.3.1z"/></g></g></svg>