<svg width="24" height="24" viewBox="0 0 24 24" xmlns="http://www.w3.org/2000/svg" xmlns:xlink="http://www.w3.org/1999/xlink"><defs><path d="M10 0l6 6v12a2 2 0 01-2 2H2a2 2 0 01-2-2V2a2 2 0 012-2h8m.5 11H9c-.275 0-.5.225-.5.5s.225.5.5.5h1.5c.825 0 1.5.675 1.5 1.5s-.675 1.5-1.5 1.5H9c-.275 0-.5.225-.5.5s.225.5.5.5h1.5a2.5 2.5 0 000-5zM6 13.5c0 .275.225.5.5.5h3c.275 0 .5-.225.5-.5s-.225-.5-.5-.5h-3c-.275 0-.5.225-.5.5zM7 15H5.5c-.825 0-1.5-.675-1.5-1.5S4.675 12 5.5 12H7c.275 0 .5-.225.5-.5S7.275 11 7 11H5.5a2.5 2.5 0 000 5H7c.275 0 .5-.225.5-.5S7.275 15 7 15zm7 3V7H9V2H2v16h12" id="a"/></defs><use xlink:href="#a" transform="translate(4 2)" fill-rule="evenodd"/></svg>