<svg xmlns="http://www.w3.org/2000/svg" width="56" height="56"><path d="M28 0c15.464 0 28 12.536 28 28S43.464 56 28 56 0 43.464 0 28 12.536 0 28 0zm3 13H19a3 3 0 0 0-2.995 2.824L16 16v24a3 3 0 0 0 2.824 2.995L19 43h18a3 3 0 0 0 2.995-2.824L40 40V22l-9-9zm-1.5 3v7.5H37V40H19V16h10.5zm-2.175 7.56c-2.1.06-1.305 3.75-.945 4.905l-.12.475c-.223.803-.827 2.592-2.414 5.165l-.264.143c-.905.506-3.78 2.258-2.93 3.667.8 1.335 2.8-.045 4.485-3.2l.413-.133a22.31 22.31 0 0 1 4.702-.857l.405.168c1.138.447 4.317 1.513 4.845-.303.6-2.22-3.675-1.725-4.425-1.5l-.26-.185c-.645-.482-2.303-1.867-2.77-3.655l.1-.384c.276-1.128.912-4.345-.82-4.296zm-3.75 11.655c-.63 1.47-1.725 2.385-1.995 2.37-.27 0 .84-1.92 1.995-2.37zm3.78-5.5l.163.327c.264.508.88 1.542 2.102 2.613l-.87.194c-.928.215-2.374.573-3.194.9l.236-.43c.38-.71 1.13-2.194 1.564-3.606zm4.7 3.255c.7-.18 2.8.18 2.685.585-.06.4-2.685-.585-2.685-.585zm-4.7-8.685c.645.075 0 2.52 0 2.595l-.04-.233c-.1-.645-.333-2.4.04-2.362z" fill="#000" fill-rule="evenodd"/></svg>