<?xml version="1.0" encoding="UTF-8"?>
<svg width="24px" height="24px" viewBox="0 0 24 24" version="1.1" xmlns="http://www.w3.org/2000/svg" xmlns:xlink="http://www.w3.org/1999/xlink">
    <!-- Generator: Sketch 63.1 (92452) - https://sketch.com -->
    <title>01_Icon/document type card/word</title>
    <desc>Created with Sketch.</desc>
    <g id="01_Icon/document-type-card/word" stroke="none" stroke-width="1" fill="none" fill-rule="evenodd">
        <path d="M14,2 L6,2 C4.89,2 4,2.9 4,4 L4,20 C4,21.11 4.89,22 6,22 L18,22 C19.11,22 20,21.11 20,20 L20,8 L14,2 M18,20 L6,20 L6,4 L13,4 L13,9 L18,9 L18,20 M17.35,10 L15.25,19 L13.85,19 L12.05,12.21 L10.25,19 L8.85,19 L6.65,10 L8.15,10 L9.55,16.81 L11.35,10 L12.65,10 L14.45,16.81 L15.85,10 L17.35,10 Z" id="Shape" fill="#000000" fill-rule="nonzero"></path>
    </g>
</svg>