<svg xmlns="http://www.w3.org/2000/svg" width="24" height="24" fill-rule="evenodd"><path d="M19 3a2 2 0 012 2v7.34c-.63-.22-1.3-.34-2-.34a6 6 0 00-6 6c0 .34.03.67.08 1H3a2 2 0 01-2-2V5c0-1.1.9-2 2-2h16zm0 2l-8 5-8-5v2l8 5 8-5V5z" fill-rule="nonzero"/><path d="M20.768 14.818L19 16.586l-1.768-1.768a.5.5 0 00-.707 0l-.707.707a.5.5 0 000 .707L17.586 18l-1.768 1.768a.5.5 0 000 .707l.707.707a.5.5 0 00.707 0L19 19.414l1.768 1.768a.5.5 0 00.707 0l.707-.707a.5.5 0 000-.707L20.414 18l1.768-1.768a.5.5 0 000-.707l-.707-.707a.5.5 0 00-.707 0z" fill="#ff1134"/></svg>