<svg xmlns="http://www.w3.org/2000/svg" width="133" height="133" fill-rule="evenodd"><rect stroke="#6d6e6d" fill="#fff" x=".5" y=".5" width="132" height="132" rx="4"/><path d="M117.072 61L122 67.374 104.418 71l-17.136-3.517-.076-.028a.384.384 0 01-.19-.16c-.034-.072-.008-.16.022-.22l.045-.078.635-.88 14.56 2.738.15.013.178.006c.664.004 1.71-.212 1.803-1.587l.007-.204v-4.172L117.072 61zm-52.623-9c2.19 0 3.567.596 4.268 1.903.607 1.1.728 2.453.753 3.74l.006.635v.477l-.005.307c-.02.646-.115.8-.567.83l-.102.002h-7.19l.002.628.01.413c.037 1.16.2 2.193.916 2.566.45.227 1.292.398 2.05.398.65 0 1.268-.06 1.827-.145l.464-.077.43-.084.574-.126.735-.17c.154-.033.273-.052.352-.052.12 0 .178.075.217.286l.027.184.037.383a2.9 2.9 0 01.025.319l.004.362-.003.21c-.016.377-.105.517-.587.614a23.81 23.81 0 01-4.128.397c-1.938 0-3.54-.51-4.325-1.392-.863-.926-1.208-2.482-1.235-5.167L59 59.1l.01-.98.02-.587c.076-1.685.307-2.713.812-3.602.73-1.306 2.275-1.93 4.606-1.93zm14.126 0c.65 0 1.213.036 1.83.095l.786.082.25.03c.512.07.562.15.562.503 0 .397-.028.965-.112 1.42-.056.34-.17.426-.394.426l-.102-.003-.274-.022-1.72-.2-.498-.05-.49-.04-.68-.025c-1.01 0-1.6.227-1.9.738-.257.416-.358 1.48-.397 2.464l-.016.525-.007.483-.002.97.005.712.052 1.43.027.317c.112 1.448.673 1.93 2.246 1.93l.646-.023.467-.036.477-.046.7-.08.988-.118.286-.028.2-.01c.14 0 .196.028.28.113.032.04.064.14.094.276l.042.233.02.134.032.293.013.156.018.32.007.32-.006.143c-.022.212-.115.298-.438.362l-.223.036-.286.036-.17.02a20.54 20.54 0 01-2.302.113l-.483-.005-.458-.015-.432-.026-.408-.037-.384-.05c-2.23-.34-3.2-1.405-3.533-4l-.05-.45-.038-.478-.028-.508-.018-.54-.01-.57v-.596l.01-.57.018-.54.028-.51.038-.48.05-.45c.36-2.83 1.468-3.857 4.118-4.104l.42-.032.22-.012.458-.015.483-.005zm32.645 1l4.78 6.316L104.556 61 93 59.316l.94-1.244 8.74 1.164.124.004.13-.004.157-.015c.533-.068 1.375-.37 1.458-1.578l.007-.2V53.53l6.663-.53zm-46.77 1.158c-2.29 0-2.807.59-2.835 2.96l-.001.79h5.364l.022-.532.006-.477v-.27c0-1.93-.534-2.47-2.556-2.47zM104.63 43l5.37 7.502-5.34.498-5.66-.498.852-1.253 2.957.246.09.012.102.007.13.002.153-.008.17-.023c.494-.1 1.103-.414 1.17-1.456l.006-.19V43z" fill="#facc21"/><path d="M33.79 89c.06 0 .072.05.075.092l.003 5.344.01.4.012.196.008.06a.41.41 0 00.43.332 1.1 1.1 0 00.313-.049l.205-.068a.187.187 0 01.04-.007c.048 0 .06.016.068.036l.147.37c.01.02.02.047.02.067 0 .104-.516.237-.914.237-.526 0-.88-.19-1.01-.454-.094-.195-.13-.554-.142-.877l-.008-.5v-4.924c0-.05.018-.083.045-.1l.03-.013.582-.124h.083zm-6.83 2.182c1.282 0 1.73.784 1.88 1.53l.037.222.022.214.007.103.007.194v.15c-.002.075-.013.124-.068.14l-.05.006H25.71l.008.177c.05.592.367 1.447 1.476 1.447.376 0 .712-.113.952-.217l.18-.084.166-.08a.102.102 0 01.023-.007c.02 0 .034.013.045.03l.02.027.182.4c.01.028.032.047.032.076 0 .104-.9.492-1.697.492-1.43-.01-2.267-.967-2.267-2.41 0-1.395.794-2.41 2.128-2.41zm83.6 0c1.346 0 1.773.864 1.902 1.64l.03.22.01.106.01.202.003.185c0 .1 0 .18-.068.202l-.05.006h-3.085c0 .58.258 1.623 1.484 1.623.376 0 .712-.113.952-.217l.18-.084.166-.08a.102.102 0 01.023-.007c.02 0 .034.013.045.03l.02.027.182.4c.01.028.032.047.032.076 0 .104-.9.492-1.697.492-1.43-.01-2.267-.967-2.267-2.41 0-1.395.794-2.41 2.128-2.41zM94.355 89.75c.04 0 .05.027.053.064l.001 1.5H96c.064 0 .12.01.12.067l-.01.066-.14.37a.15.15 0 01-.094.078l-.046.007H94.4v2.77l.005.15c.02.294.124.543.64.543.253 0 .487-.064.67-.128l.324-.12a.14.14 0 01.04-.007c.032 0 .058.016.07.036l.006.02.12.35c.01.037.02.066.02.094 0 .123-.806.388-1.386.388-.463 0-.85-.15-1-.332-.242-.228-.296-.537-.308-.83l-.003-.243v-2.695h-.806c-.06 0-.072-.042-.075-.083v-.427c.002-.035.01-.06.038-.07l.037-.005h.806v-1.3c0-.043.024-.075.068-.096l.05-.018.57-.142.075-.01zM48.24 91.182c.72 0 1.548.445 1.548.587l-.006.026-.026.05-.247.4c-.02.028-.032.057-.064.057l-.02-.01-.154-.116c-.197-.143-.543-.36-.966-.36-1.054 0-1.365.693-1.365 1.775 0 .864.193 1.775 1.236 1.775.376 0 .712-.113.95-.217l.18-.084.166-.08a.093.093 0 01.024-.007c.02 0 .033.013.045.03l.02.027.182.4c.01.028.032.047.032.076 0 .104-.903.492-1.698.492-1.28 0-2.02-.88-2.02-2.266 0-1.585.86-2.55 2.18-2.55zM118.023 89c.06 0 .072.05.074.092l.001 4.308 2.14-2.143c.032-.028.064-.076.12-.076l.043.01.086.046.376.227c.02.02.064.028.064.067 0 .03-.02.06-.042.082l-.034.032-1.816 1.773 1.892 2.116c.02.028.075.066.075.114 0 .025-.02.038-.04.05l-.402.245-.086.046-.043.01c-.036 0-.067-.02-.1-.043l-2.22-2.423h-.02v2.22c0 .06-.028.097-.083.11l-.046.005h-.558c-.07 0-.1-.024-.124-.073l-.005-.04v-6.506c0-.05.018-.083.045-.1l.03-.013.582-.124h.083zm-65.45 2.182c1.346 0 1.773.864 1.902 1.64l.03.22.016.21.007.284-.004.113c-.007.046-.023.077-.064.09l-.05.006h-3.085l.008.177c.05.592.368 1.447 1.476 1.447.376 0 .712-.113.952-.217l.18-.084.166-.08a.102.102 0 01.023-.007c.02 0 .033.013.045.03l.02.027.183.4c.01.028.032.047.032.076 0 .104-.902.492-1.698.492-1.43-.01-2.267-.967-2.267-2.41 0-1.395.794-2.41 2.128-2.41zm37.505 0c1.282 0 1.73.784 1.882 1.53l.037.222.013.108.016.21.007.194v.15c-.002.075-.013.124-.068.14l-.05.006H88.83c0 .58.258 1.623 1.484 1.623.376 0 .712-.113.95-.217l.18-.084.166-.08a.102.102 0 01.023-.007c.02 0 .033.013.045.03l.02.027.182.4.026.05a.055.055 0 01.006.026c0 .104-.902.492-1.698.492-1.43-.01-2.267-.967-2.267-2.41 0-1.395.794-2.41 2.127-2.41zm-28.736-1.945a3.81 3.81 0 011.238.219l.21.078.252.1c.054.028.086.076.086.104l-.01.034-.174.393-.038.076c-.016.03-.035.047-.08.047a.27.27 0 01-.097-.023l-.125-.057-.198-.08a3.171 3.171 0 00-1.096-.22c-.645 0-1.14.295-1.14.93 0 .548.426.85.953 1.113l.295.142.303.142c.253.12.502.25.717.406.58.417.87.863.87 1.5 0 1.158-.966 1.86-2.278 1.86a4.3 4.3 0 01-1.359-.234l-.24-.087-.1-.04-.256-.112c-.053-.02-.086-.057-.086-.104 0-.02.014-.046.027-.074l.016-.04.14-.313c.032-.076.053-.123.118-.123.03 0 .062.008.097.022l.292.123c.3.124.82.3 1.384.3.806 0 1.28-.446 1.28-1.082 0-.62-.484-.958-1.073-1.26l-.665-.327c-.725-.365-1.402-.802-1.402-1.714 0-1.09 1.02-1.698 2.138-1.698zM80.613 89c.06 0 .072.05.075.092l.002 5.328.013.45.01.162.007.05a.41.41 0 00.43.332c.12 0 .226-.023.314-.05l.205-.068a.187.187 0 01.04-.007c.048 0 .06.016.068.036l.147.37c.01.02.02.047.02.067 0 .104-.515.237-.914.237-.526 0-.88-.19-1.01-.454-.113-.235-.14-.704-.148-1.064l-.002-.31v-4.924c0-.05.018-.083.045-.1l.03-.013.582-.124h.083zm-49.706 0c.06 0 .072.05.075.092l.002 5.328.013.45.01.162.007.05a.41.41 0 00.43.332c.12 0 .226-.023.314-.05l.205-.068a.187.187 0 01.04-.007c.048 0 .06.016.068.036l.147.37c.01.02.02.047.02.067 0 .104-.515.237-.914.237-.526 0-.88-.19-1.01-.454-.113-.235-.14-.704-.148-1.064l-.002-.31v-4.924c0-.05.018-.083.045-.1l.03-.013.592-.125.074-.008zm6.75 2.182c1.346 0 1.773.864 1.902 1.64l.03.22.016.21.007.284-.004.113c-.007.046-.023.077-.064.09l-.05.006h-3.085c0 .58.258 1.623 1.484 1.623.376 0 .712-.113.952-.217l.18-.084.166-.08a.102.102 0 01.023-.007c.02 0 .034.013.045.03l.02.027.182.4c.01.028.032.047.032.076 0 .104-.9.492-1.697.492-1.43-.01-2.267-.967-2.267-2.41 0-1.395.794-2.41 2.128-2.41zm40.554 0c.06 0 .072.048.074.092v3.408c0 .218.01.427.12.626l.126.2c.043.07.078.13.078.16 0 .02-.014.033-.032.045l-.064.03-.42.227c-.043.02-.064.028-.086.028-.1 0-.184-.133-.262-.286l-.09-.186-.044-.087c-.3.218-.882.558-1.494.558-1.26 0-1.515-.56-1.56-1.153l-.008-.18-.001-3.24c0-.05.018-.083.045-.1l.03-.013.582-.123.083-.01c.06 0 .072.048.075.092l.001 3.322c0 .408.182.768.882.768.3 0 .888-.253 1.15-.428l.075-.055V91.43c0-.05.018-.083.045-.1l.03-.013.59-.125.074-.008zm-11.687 0c.72 0 1.548.445 1.548.587l-.006.026-.026.05-.247.4c-.02.028-.03.057-.064.057l-.02-.01-.154-.116c-.197-.143-.543-.36-.966-.36-1.053 0-1.365.693-1.365 1.775 0 .864.193 1.775 1.236 1.775.376 0 .712-.113.952-.217l.18-.084.166-.08a.102.102 0 01.023-.007c.02 0 .034.013.045.03l.02.027.182.4.027.05a.055.055 0 01.006.026c0 .104-.903.492-1.7.492-1.278 0-2.02-.88-2.02-2.266 0-1.585.86-2.55 2.18-2.55zm-43.897 0c.72 0 1.548.445 1.548.587l-.006.026-.026.05-.247.4c-.022.028-.032.057-.064.057l-.02-.01-.154-.116c-.197-.143-.543-.36-.966-.36-1.054 0-1.365.693-1.365 1.775 0 .864.193 1.775 1.237 1.775.376 0 .712-.113.95-.217l.18-.084.166-.08a.102.102 0 01.023-.007c.02 0 .034.013.045.03l.02.027.183.4c.01.028.032.047.032.076 0 .104-.903.492-1.7.492-1.278 0-2.02-.88-2.02-2.266 0-1.585.86-2.55 2.18-2.55zm84.5.066c.028 0 .043.01.06.014l.5.12.068.026c.017.01.028.02.028.04l-.007.044-.015.05-1.396 4.297-.027.05a.102.102 0 01-.054.04l-.048.006h-.42c-.086 0-.117-.036-.13-.07l-.857-2.9a3.544 3.544 0 01-.083-.428l-.036-.294h-.02a3.11 3.11 0 01-.104.539l-.057.173-1 2.893c-.008.03-.024.067-.074.08l-.044.005h-.43c-.07 0-.097-.036-.1-.07l-.008-.024-1.214-4.297c-.02-.037-.02-.066-.02-.094 0-.02.01-.03.028-.04l.07-.026.472-.114c.032 0 .043-.02.086-.02s.056.016.07.052l.015.043.774 3.112.08.355.028.167h.02l.048-.25.046-.196 1.045-3.13c.016-.05.056-.073.102-.08l.048-.004h.41c.058 0 .085.017.102.04l.027.054.88 3.168.042.185.033.185h.022l.01-.094.035-.198.018-.078.913-3.235c.01-.067.054-.095.086-.095zm-88.073 0l.04.006.54.194.06.027c.016.01.027.025.027.048l-.01.028-.034.048-1.61 1.868 1.676 2.115c.01.02.043.047.043.076a.05.05 0 01-.027.048l-.06.027-.45.162c-.054.02-.086.037-.13.037-.065 0-.093-.016-.117-.044L17.84 94.33l-.146-.207-.057-.088-.092.13-.198.258-1.15 1.433c-.043.047-.053.076-.14.076a.197.197 0 01-.08-.02l-.048-.018-.45-.162c-.043-.02-.086-.028-.086-.076 0-.02.01-.038.022-.055l1.804-2.06-1.558-1.944c-.02-.02-.042-.047-.042-.076s.01-.038.027-.048l.06-.027.54-.194a.15.15 0 01.04-.006c.065 0 .087.016.112.044l.028.032.98 1.345.235.334.343-.456.935-1.223c.032-.048.053-.076.14-.076zM69.925 89c.06 0 .072.05.075.092v2.733l.21-.146c.346-.232.837-.498 1.48-.498 1.022 0 1.23.543 1.27 1.128l.008.196.001 3.247c0 .06-.028.097-.083.11l-.046.005h-.558c-.07 0-.1-.024-.124-.073l-.005-.04v-3.168c0-.408-.118-.768-.7-.768-.56 0-.98.237-1.264.44l-.187.14v3.358c0 .06-.028.097-.083.11l-.046.005h-.558c-.07 0-.1-.024-.124-.073l-.005-.04v-6.506c0-.05.018-.083.045-.1l.03-.013.582-.124h.083zm45.892 2.182c.247 0 .527.076.527.16l-.006.022-.263.537c-.01.02-.022.067-.064.067l-.03-.006-.1-.036a.64.64 0 00-.234-.043c-.226 0-.45.178-.65.373l-.278.286-.08.08v3.13c0 .06-.027.097-.082.11l-.047.005h-.558c-.07 0-.1-.024-.124-.073l-.005-.04V92.5c0-.17-.032-.483-.182-.72-.086-.132-.12-.21-.12-.237a.13.13 0 01.049-.079l.424-.234a.26.26 0 01.108-.047c.154 0 .302.376.376.633l.042.163.32-.324c.244-.236.554-.47.97-.47zM14.47 89.37c.12 0 .14.028.14.057l-.006.036-.026.087-.15.398c-.026.068-.052.082-.1.085H11.88v2.107h2.107c.098 0 .13.013.137.078l.002.045v.417c0 .087-.015.114-.088.12l-.05.002H11.88v2.4h2.58c.07 0 .11.024.124.068l.005.036v.426c0 .095-.023.124-.1.13l-.052.002h-3.31c-.07 0-.1-.024-.124-.072l-.005-.04v-6.27c0-.06.028-.097.083-.11l.046-.005h3.342zm70.896 1.812c1.078 0 1.25.605 1.274 1.226l.003.196v3.15c0 .06-.028.097-.083.11l-.046.005h-.558c-.07 0-.1-.024-.124-.073l-.005-.04v-3.168c0-.408-.118-.768-.7-.768-.57 0-.978.248-1.254.452l-.165.127v3.358c0 .06-.027.097-.082.11l-.046.005h-.56c-.07 0-.11-.024-.123-.073l-.005-.04v-3.395c-.001-.222-.006-.316-.043-.437a1.53 1.53 0 00-.092-.238l-.065-.117c-.01-.017-.015-.03-.015-.042s.005-.025.02-.04l.033-.026.483-.237c.022-.01.054-.037.086-.037.128 0 .228.252.284.443l.04.158.008.042.214-.146c.352-.232.848-.498 1.518-.498zm-41.977 0c1.078 0 1.25.605 1.274 1.226l.003.196v3.15c0 .06-.028.097-.083.11l-.046.005h-.558c-.07 0-.1-.024-.124-.073l-.005-.04v-3.168c0-.408-.118-.768-.698-.768-.572 0-.98.248-1.255.452l-.165.127v3.358c0 .06-.028.097-.083.11l-.046.005h-.558c-.07 0-.1-.024-.124-.073l-.005-.04v-3.395l-.005-.215a.9.9 0 00-.038-.223 1.417 1.417 0 00-.092-.238l-.065-.117c-.01-.017-.015-.03-.015-.042s.005-.025.02-.04l.033-.026.537-.267a.08.08 0 01.032-.008c.15 0 .26.344.308.532l.024.112.214-.146c.353-.232.848-.498 1.517-.498zm57.22.132c.086 0 .117.012.126.066l.003.048v.388l-2.675 3.435h2.654c.097 0 .15.01.15.038l-.006.03-.23.463c-.024.057-.055.076-.095.082l-.045.003h-3.352c-.1 0-.112-.006-.117-.07l-.001-.423 2.697-3.445h-2.353c-.07 0-.1-.024-.124-.072l-.005-.04v-.388c0-.075.014-.103.074-.11l.055-.003h3.245zM58.375 93.09c.086 0 .13.024.145.082l.005.05v.483c0 .06-.02.085-.1.092l-.06.003H56c-.086 0-.13-.018-.145-.074l-.005-.05v-.436c0-.087.015-.135.088-.148l.05-.004h2.396zm-20.763-1.32c-.934 0-1.178.813-1.202 1.303l-.002.083h2.323c0-.494-.183-1.386-1.12-1.386zm52.422 0c-.935 0-1.178.813-1.202 1.303l-.002.083h2.322c0-.494-.182-1.386-1.118-1.386zm-63.12 0c-.934 0-1.178.813-1.202 1.303l-.002.083h2.322l-.008-.178c-.042-.503-.28-1.21-1.1-1.21zm25.613 0c-.934 0-1.178.813-1.202 1.303l-.002.083h2.323c0-.494-.183-1.386-1.12-1.386zm57.988 0c-.934 0-1.178.813-1.202 1.303l-.002.083h2.322c0-.494-.182-1.386-1.118-1.386zM63.142 78c.06 0 .073.048.075.092l.003 5.344.006.266.017.32.008.06c.02.105.12.332.432.332.12 0 .227-.023.315-.05l.207-.068a.187.187 0 01.04-.007c.05 0 .06.016.068.036l.148.372c.01.02.02.047.02.066 0 .104-.52.237-.92.237-.53 0-.886-.19-1.015-.454-.113-.235-.142-.704-.15-1.064l-.002-.31v-4.924c0-.05.018-.083.045-.1l.03-.013.61-.127.06-.006zm-22.444.75c.04 0 .05.027.054.064l.001 1.5h1.6c.065 0 .12.01.12.067l-.01.067-.14.37a.15.15 0 01-.094.079l-.046.007h-1.427v2.695l.002.152c.01.325.085.618.647.618.254 0 .49-.064.673-.128l.326-.12a.14.14 0 01.04-.007c.032 0 .058.016.07.036l.125.372c.01.038.02.067.02.095 0 .123-.81.388-1.395.388-.466 0-.854-.15-1.016-.332-.278-.26-.31-.627-.313-.952v-2.815h-.81c-.06 0-.073-.043-.075-.084v-.427c.002-.034.01-.06.038-.07l.037-.006h.81v-1.3c0-.043.024-.074.068-.096l.05-.018.572-.142.075-.01zm-4.342 1.433c1.178 0 1.618.476 1.66 1.204l.004.124.001 2.024.01.254a1.49 1.49 0 00.049.322l.044.134.027.075c.043.114.195.294.195.35 0 .02-.013.033-.032.045l-.065.03-.42.227a.215.215 0 01-.086.028c-.1 0-.2-.155-.27-.315l-.085-.185-.055-.133-.138.116c-.236.19-.714.518-1.42.518-.855 0-1.405-.492-1.405-1.337 0-1.145 1.103-1.487 1.978-1.596l.254-.026.436-.024.165-.005v-.342c0-.55-.195-.854-.963-.854a2.81 2.81 0 00-.896.152l-.2.073-.143.056a.29.29 0 01-.081.023.091.091 0 01-.058-.023l-.017-.025-.14-.332a.282.282 0 01-.032-.123c0-.16.995-.436 1.687-.436zm12.254 0c1.482 0 2.108 1.042 2.108 2.38C50.718 83.89 50.08 85 48.5 85c-1.46 0-2.086-1.033-2.086-2.4 0-1.31.626-2.428 2.195-2.428zm-25.485 0a3.85 3.85 0 011.276.284c.087.037.12.076.12.123 0 .02-.014.038-.027.06l-.016.035-.14.257c-.043.076-.065.114-.13.114a.283.283 0 01-.077-.022l-.235-.088a2.38 2.38 0 00-.78-.146c-.433 0-.802.2-.802.626 0 .392.338.595.76.774l.59.24c.546.233 1.05.538 1.05 1.217 0 .892-.8 1.346-1.73 1.346a3.27 3.27 0 01-.476-.044l-.272-.05-.136-.03-.26-.067c-.285-.083-.5-.18-.5-.263 0-.03.01-.055.023-.078l.02-.036.15-.294c.032-.067.065-.085.097-.085a.33.33 0 01.077.02l.225.088c.253.097.64.223 1.093.223.466 0 .866-.227.866-.683 0-.33-.267-.524-.623-.69l-.28-.122-.447-.184c-.546-.238-1.05-.548-1.05-1.205 0-.768.68-1.318 1.632-1.318zm36.034 0c1.178 0 1.618.476 1.66 1.204l.004.124v1.86c0 .42.016.586.06.74l.044.134.027.075.037.075.102.16c.032.05.056.093.056.115s-.014.033-.033.045l-.065.03-.42.227a.213.213 0 01-.087.028c-.108 0-.23-.223-.315-.41l-.094-.223-.138.116c-.236.19-.714.518-1.42.518-.855 0-1.405-.492-1.405-1.337 0-1.145 1.103-1.487 1.978-1.596l.254-.026.436-.024.165-.005v-.342c0-.55-.195-.854-.964-.854a2.81 2.81 0 00-.895.152l-.2.073-.192.073a.122.122 0 01-.033.006.091.091 0 01-.058-.023l-.017-.025-.14-.332a.282.282 0 01-.032-.123c0-.16.995-.436 1.687-.436zm-40.8 0c1.178 0 1.618.476 1.66 1.204l.004.124v1.86c0 .42.016.586.06.74l.044.134.027.075.037.075.102.16c.032.05.056.093.056.115s-.013.033-.032.045l-.065.03-.42.227a.215.215 0 01-.086.028c-.108 0-.23-.223-.316-.41l-.094-.223-.138.116c-.236.19-.714.518-1.42.518-.855 0-1.405-.492-1.405-1.337 0-1.145 1.103-1.487 1.978-1.596l.254-.026.436-.024.165-.005v-.342c0-.55-.195-.854-.963-.854a2.82 2.82 0 00-.896.152l-.2.073-.143.056a.29.29 0 01-.081.023.096.096 0 01-.058-.023l-.017-.025-.14-.332a.282.282 0 01-.032-.123c0-.16.995-.436 1.687-.436zm48.674 0c1.483 0 1.857 1.037 1.943 1.86l.016.21.007.194v.1c0 .1 0 .182-.07.202l-.05.006h-3.104c0 .58.26 1.623 1.493 1.623.38 0 .716-.113.958-.217l.182-.084.167-.08a.093.093 0 01.024-.007c.022 0 .034.013.046.03l.02.027.183.4.026.05a.055.055 0 01.006.026c0 .105-.907.492-1.708.492-1.44-.01-2.282-.967-2.282-2.41 0-1.395.8-2.41 2.14-2.41zM11.13 78.37h1.362l.264.004c1.4.042 2.645.478 2.645 3.184 0 2.183-.768 3.24-2.812 3.307l-.216.004H11.13c-.07 0-.11-.024-.125-.073l-.005-.04v-6.27c0-.06.027-.097.083-.11l.047-.005zm43.472 1.812c1.085 0 1.26.605 1.282 1.226l.003.196v3.15c0 .06-.028.097-.083.11l-.047.005h-.56c-.07 0-.11-.024-.124-.073l-.005-.04v-3.17c0-.408-.12-.768-.704-.768-.575 0-.984.247-1.262.452l-.166.127v3.36c0 .06-.027.097-.083.11l-.047.005h-.56c-.07 0-.1-.024-.124-.073l-.005-.04v-3.396c-.001-.22-.006-.316-.043-.438a1.5 1.5 0 00-.064-.175l-.055-.112-.04-.068c-.01-.017-.015-.03-.015-.042s.005-.025.02-.04l.033-.026.486-.237.055-.03a.069.069 0 01.032-.008c.13 0 .23.252.286.443l.04.16.008.042.215-.146c.355-.232.854-.498 1.527-.498zm-9.71.132c.095 0 .128.036.137.095l.003.048v4.297c0 .06-.028.097-.083.11l-.047.005h-.56c-.07 0-.11-.024-.125-.073l-.005-.04v-3.852h-.844c-.07 0-.11-.024-.125-.073l-.005-.04v-.36c0-.06.027-.097.083-.11l.047-.005h1.524zM31.8 80.182c1.028 0 1.238.543 1.277 1.128l.008.196.001 3.248c0 .06-.028.097-.083.11l-.047.005h-.56c-.07 0-.11-.024-.124-.073l-.005-.04v-3.17c0-.408-.12-.768-.704-.768-.575 0-.984.247-1.262.452l-.166.127v3.36c0 .06-.028.097-.083.11l-.047.005h-.56c-.07 0-.11-.024-.125-.073l-.005-.04v-3.396c-.001-.22-.006-.316-.043-.438a1.64 1.64 0 00-.063-.175l-.055-.112-.04-.068c-.01-.017-.015-.03-.015-.042s.005-.025.02-.04l.033-.026.486-.237.055-.03a.069.069 0 01.032-.008c.15 0 .263.344.3.532l.024.112.215-.146c.355-.232.854-.498 1.527-.498zm28.204 3.643V82.6l-.248.006-.212.01-.116.01-.243.03c-.58.086-1.205.317-1.205.952 0 .38.238.807.8.807.358 0 .7-.185.93-.353l.18-.136.125-.1zm-22.802 0V82.6l-.248.006-.212.01-.116.01-.243.03c-.58.086-1.205.317-1.205.952 0 .38.238.807.8.807.358 0 .7-.185.93-.353l.18-.136.125-.1zm11.366-3.056c-.974 0-1.266.816-1.266 1.756 0 1.082.28 1.888 1.278 1.888.963 0 1.255-.768 1.255-1.86 0-.93-.292-1.784-1.266-1.784zm-29.363 3.056V82.6l-.248.006-.212.01-.116.01-.243.03c-.58.086-1.205.317-1.205.952 0 .38.238.807.79.807.41 0 .784-.24 1.024-.424l.21-.165zm-6.723-4.792h-.595v5.172h.67c1.433 0 1.817-.91 1.866-2.334l.006-.35c0-2.004-.634-2.455-1.815-2.485l-.133-.002zm54.51 1.736c-.94 0-1.185.813-1.2 1.303l-.002.083h2.338c0-.494-.184-1.386-1.126-1.386zm-22.42-2.703c.368 0 .66.266.66.578s-.292.578-.66.578-.66-.256-.66-.578.292-.578.66-.578zM13.864 52c.455 0 .56.105.683.44l.27.735.297.824.65 1.844 1.208 3.497.805 2.364 1.667-4.875.672-1.934.742-2.098.128-.355c.113-.305.226-.42.588-.437l.116-.003h1.25c.32.005.466.05.518.432l.012.112 1.057 12.847c.038.487-.084.594-.532.607l-.98.001c-.342 0-.475-.106-.5-.495l-.63-10.864-.377 1.332-.164.547-.888 2.6-.79 2.286-.295.838-.276.77-.254.7c-.152.423-.287.6-.675.626l-.112.004h-.54c-.436 0-.577-.14-.725-.52l-.543-1.476-.728-2.036-.464-1.322-.77-2.234-.236-.784-.343-1.332-.663 10.75c-.02.442-.108.585-.425.605l-.092.003h-.87c-.48 0-.658-.072-.647-.502l.006-.106 1.056-12.847c.04-.484.2-.54.55-.544h1.25zm15.967 0c.417 0 .504.158.516.46l.001 12.933c0 .442-.122.585-.43.605L29.83 66h-.87c-.5 0-.625-.072-.64-.502V52.545c0-.484.194-.54.55-.544h.962zm5.754.001c.338.006.456.047.624.292l.7 1.028 1.026 1.56 4.285 6.63.522.8v-9.766c0-.484.177-.54.53-.544h.982c.417 0 .505.158.516.46v12.933c0 .442-.122.585-.43.605l-.09.003h-.797c-.294 0-.515-.016-.735-.314l-.46-.676-.767-1.153-.837-1.282-1.784-2.78-2.59-4.084v9.683c0 .442-.122.585-.43.605l-.09.003h-.87c-.5 0-.625-.072-.64-.502l-.002-12.953c0-.484.177-.54.546-.544h.798zm11.996.001L56.482 52c.304 0 .486.053.514.433l.004.112v.685l-.008.173c-.026.263-.127.4-.51.4l-.953-.004-1.29-.016-1.153-.023v11.632c0 .442-.122.585-.43.605L52.57 66h-.87c-.5 0-.625-.072-.64-.502l-.002-.106V53.76l-1.153.023-.843.012-.914.007-.486.001c-.46 0-.512-.196-.517-.573l-.001-.685c0-.442.157-.53.438-.543z" fill="#6d6e6d"/></svg>