<svg id="Layer_1" data-name="Layer 1" xmlns="http://www.w3.org/2000/svg" viewBox="0 0 150 150"><defs><style>.cls-2{fill:#facc21}.cls-3{fill:#6d6e6d}</style></defs><rect id="BG" x=".5" y=".5" width="149" height="149" rx="4" fill="#fff" stroke="#9e9e9e"/><path class="cls-2" d="M72.6 60.67c-1.95 0-3.25.52-3.86 1.6s-.7 2.08-.7 4.29c0 2.41.28 3.77 1 4.58a5 5 0 003.62 1.15 20.39 20.39 0 003.49-.29c.47-.09.49-.24.49-.68a5 5 0 000-.57c-.05-.54-.07-.71-.24-.71a20.1 20.1 0 01-3.67.55 4.48 4.48 0 01-1.73-.37c-.78-.4-.78-1.72-.78-3h6c.54 0 .57-.16.57-1.08a8 8 0 00-.64-3.89c-.57-1.08-1.72-1.58-3.55-1.58zm2.11 4.9h-4.49v-.47c0-2.12.4-2.64 2.38-2.64 1.69 0 2.14.45 2.14 2.05 0 .4 0 .64-.03 1.06zm9.01-3.06c1.06 0 2.7.28 3.15.28.19 0 .28-.07.33-.35a7.08 7.08 0 00.09-1.18c0-.38-.07-.38-.94-.47a17.7 17.7 0 00-1.93-.12c-4 0-4.89 1.06-4.89 5.82s.94 5.8 4.89 5.8a17.46 17.46 0 001.93-.09c.85-.1.94-.12.94-.5a4.43 4.43 0 00-.18-1.44.29.29 0 00-.24-.09c-.4 0-2.09.28-3.15.28-1.32 0-1.79-.4-1.88-1.6-.07-.68-.07-1.65-.07-2.36a10.34 10.34 0 01.35-3.37c.26-.42.75-.61 1.6-.61z"/><path class="cls-3" d="M39.42 60.91h-.93c-.36 0-.46.08-.56.35-.66 1.8-1.77 5-2.57 7.33-.79-2.33-1.9-5.53-2.58-7.33-.1-.27-.18-.35-.54-.35h-.93c-.33 0-.48 0-.51.43L30 71.5c0 .42.1.48.52.48h.69c.32 0 .4-.1.42-.48l.53-8.5c.11.43.29 1.21.46 1.67.68 2 1.45 4.15 2 5.51.13.36.23.49.61.49h.43c.38 0 .49-.13.63-.49.51-1.36 1.25-3.53 1.93-5.51.17-.46.37-1.24.5-1.67l.49 8.5c0 .38.12.48.42.48h.69c.43 0 .55-.06.52-.48l-.85-10.16c-.11-.41-.24-.43-.57-.43zm5.58 0h-.7c-.33 0-.51 0-.51.43V71.5c0 .42.08.48.51.48h.7c.3 0 .41-.1.41-.48V61.34c-.01-.28-.06-.43-.41-.43zm11.5 0h-.71c-.33 0-.5 0-.5.43v7.73c-1.82-2.76-3.85-6-5.21-7.93-.15-.21-.25-.23-.59-.23H49c-.34 0-.51 0-.51.43V71.5c0 .42.08.48.51.48h.7c.3 0 .41-.1.41-.48v-7.66c1.61 2.51 3.81 6 5.15 7.9.19.26.39.24.67.24h.55c.3 0 .41-.1.41-.48V61.34c.02-.28-.03-.43-.39-.43zm9.77 0h-7c-.27 0-.41.05-.41.43v.47c0 .34 0 .53.41.53h2.71v9.2c0 .42.08.48.51.48h.7c.3 0 .41-.1.41-.48V62.3h2.71c.4 0 .42-.19.42-.53v-.47c-.04-.3-.19-.39-.46-.39z"/><path class="cls-2" d="M106 69.22v3.63a1.45 1.45 0 01-1.89 1.51L92.6 72l-.51.77s-.09.15-.09.23a.37.37 0 00.23.17L106 76.26l14.08-3.16-4-5.55zm0-7.75v3.44a1.41 1.41 0 01-1.57 1.57l-7.19-1-.78 1.1L106 68l9.45-1.48-4-5.55zm0-3.84a1.33 1.33 0 01-1.61 1.47l-2.62-.22L101 60l5 .44 4.7-.44-4.7-6.64z"/><path class="cls-3" d="M64 92.2c-1.09 0-1.74.93-1.74 2.22s.69 2.21 1.85 2.22a2.28 2.28 0 001.38-.45v-.07l-.15-.37h-.06a2.33 2.33 0 01-1.07.36c-1 0-1.21-1-1.21-1.5h2.5c.1 0 .1-.07.1-.19 0-.8-.13-2.22-1.6-2.22zM63 94c0-.44.18-1.28 1-1.28s.91.82.91 1.28zm-11.13-1.8c-1.09 0-1.74.93-1.74 2.22s.68 2.21 1.85 2.22a2.28 2.28 0 001.38-.45.15.15 0 000-.07l-.14-.37h-.06a2.33 2.33 0 01-1.07.36c-1 0-1.21-1-1.21-1.5h2.51c.1 0 .1-.07.1-.19-.03-.8-.16-2.22-1.62-2.22zm-1 1.82c0-.44.17-1.28 1-1.28s.91.82.91 1.28zm5.66-1.82a2.28 2.28 0 00-1.41.59c0-.07-.11-.59-.27-.59h-.07l-.39.22v.06c0 .06.07.11.14.37a2.2 2.2 0 010 .52v3a.1.1 0 00.11.11h.45c.07 0 .1 0 .1-.11v-3.05a1.73 1.73 0 011.16-.54c.47 0 .57.34.57.71v2.92c0 .07 0 .11.1.11h.46c.07 0 .1 0 .1-.11v-2.9c-.01-.63-.08-1.31-1.05-1.31zm-20.61 2.11l1.31-1.73a.11.11 0 000-.07s0-.05-.07-.07l-.36-.15h-.11a.1.1 0 00-.11.07l-.76 1.13-.28.42-.26-.42-.73-1.13s0-.07-.11-.07a.45.45 0 00-.11 0l-.37.15s-.07 0-.07.07a.08.08 0 000 .07l1.27 1.8-1.46 1.88a.11.11 0 000 .07l.07.07.37.15h.1c.07 0 .08 0 .12-.07l.93-1.32c.1-.14.16-.23.24-.36a4.23 4.23 0 00.23.37l.86 1.31s0 .07.11.07a.45.45 0 00.11 0l.37-.15s.07 0 .07-.07a.12.12 0 000-.07zM49.67 96s0-.05-.06-.05a1.77 1.77 0 01-.45.11.34.34 0 01-.35-.31V90.3s0-.11-.06-.11h-.11l-.43.11s-.06 0-.06.1V95a4.49 4.49 0 00.12 1.27.82.82 0 00.82.42c.32 0 .74-.12.74-.22v-.06zm-16.84-4.86c.08 0 .1 0 .13-.08l.12-.37a.45.45 0 000-.11h-2.81c-.07 0-.1 0-.1.1v5.78c0 .07 0 .11.1.11H33c.09 0 .12 0 .12-.12V96c0-.06 0-.09-.11-.09h-2.12v-2.22h1.71c.1 0 .11 0 .11-.11v-.38c0-.1 0-.12-.11-.12h-1.71v-1.94zm6.85 1.64a1.55 1.55 0 01.93.45l.2-.37v-.07a1.73 1.73 0 00-1.26-.54c-1.07 0-1.77.89-1.77 2.35 0 1.28.6 2.09 1.64 2.09a2.28 2.28 0 001.38-.45v-.07l-.15-.37h-.06a2.33 2.33 0 01-1.07.36c-.85 0-1-.84-1-1.64.05-1.1.31-1.74 1.16-1.74zM68.73 94h-2c-.1 0-.11 0-.11.14v.4c0 .09 0 .11.12.11h1.94c.1 0 .12 0 .12-.08v-.45c.05-.12.02-.12-.07-.12zm-21.4 2s0-.05-.07-.05a1.65 1.65 0 01-.45.11.36.36 0 01-.35-.31V90.3s0-.11-.06-.11h-.1l-.44.11a.1.1 0 00-.06.1V95a4.49 4.49 0 00.12 1.27.82.82 0 00.82.42c.33 0 .75-.12.75-.22a.21.21 0 000-.06zm-4.17-3.8c-1.09 0-1.73.93-1.73 2.22s.68 2.21 1.84 2.22a2.28 2.28 0 001.38-.45.14.14 0 000-.07l-.15-.37a2.44 2.44 0 01-1.08.36c-1 0-1.21-1-1.21-1.5h2.51c.1 0 .1-.07.1-.19-.07-.8-.2-2.22-1.66-2.22zm-1 1.82c0-.44.18-1.28 1-1.28s.84.82.84 1.26zm18.37-1.24a1.58 1.58 0 01.93.45l.2-.37v-.07a1.73 1.73 0 00-1.26-.54c-1.08 0-1.78.89-1.78 2.35 0 1.28.61 2.09 1.65 2.09a2.28 2.28 0 001.38-.45.15.15 0 000-.07l-.14-.37h-.06a2.33 2.33 0 01-1.07.36c-.85 0-1-.84-1-1.64.04-1.1.29-1.74 1.15-1.74zm50.68-.58c-1.09 0-1.74.93-1.74 2.22s.68 2.21 1.85 2.22a2.28 2.28 0 001.38-.45.15.15 0 000-.07l-.14-.37h-.06a2.33 2.33 0 01-1.07.36c-1 0-1.21-1-1.21-1.5h2.51c.1 0 .1-.07.1-.19-.03-.8-.16-2.22-1.62-2.22zm-1 1.82c0-.44.17-1.28 1-1.28s.91.82.91 1.28zm-1.73-1.74h-.07s-.06 0-.07.09l-.74 3a3 3 0 00-.06.34c0-.11 0-.23-.07-.34l-.71-2.92s0-.09-.11-.09h-.33a.11.11 0 00-.12.08l-.83 2.82a3.48 3.48 0 00-.1.48c0-.14 0-.33-.08-.48l-.63-2.87c0-.06 0-.09-.07-.09h-.07l-.39.1s-.08 0-.08.06a.15.15 0 000 .09l1 4s0 .09.09.09h.35a.09.09 0 00.1-.08l.82-2.67a2.68 2.68 0 00.13-.65 4.35 4.35 0 00.1.66l.69 2.65a.1.1 0 00.11.09h.34c.08 0 .09 0 .11-.09l1.13-4a.29.29 0 000-.09l-.08-.06zM101 96l2.18-3.17v-.35c0-.09 0-.11-.1-.11h-2.65c-.08 0-.1 0-.1.11v.35c0 .07 0 .11.1.11h1.92l-2.2 3.18v.34c0 .1 0 .11.1.11H103a.1.1 0 00.11-.08l.16-.36a.31.31 0 000-.09h-.13zm17.1-1.74l1.48-1.63a.15.15 0 00.06-.11v-.06l-.31-.21a.24.24 0 00-.1 0c-.05 0-.07 0-.1.07l-1.74 2V90.3s0-.11-.06-.11h-.1l-.44.11s-.06 0-.06.1v6c0 .07 0 .11.1.11h.46c.07 0 .1 0 .1-.11v-2l1.78 2.2a.14.14 0 00.1.07.24.24 0 00.1 0l.31-.21v-.06c0-.06 0-.08-.06-.11zm-2.62-2.06c-.5 0-.82.49-1 .73 0-.19-.19-.73-.35-.73h-.08l-.33.2a.17.17 0 00-.06.09.65.65 0 00.1.22 1.51 1.51 0 01.15.66v3c0 .07 0 .11.1.11h.46c.07 0 .1 0 .1-.11v-2.84c.21-.23.52-.68.82-.68a.88.88 0 01.29.07v-.06l.2-.44a.41.41 0 000-.07c.03-.08-.19-.15-.4-.15zm-15.99 3.67a.07.07 0 00-.07-.05 2.45 2.45 0 01-.84.24c-.52 0-.52-.36-.52-.71v-2.49h1.15a.12.12 0 00.12-.08l.11-.34v-.06c0-.06 0-.06-.1-.06h-1.28v-1.41H98l-.47.13c-.06 0-.09 0-.09.1v1.2h-.66c-.06 0-.06 0-.06.11v.33s0 .1.06.1h.66v2.49a1.41 1.41 0 00.25 1 1.1 1.1 0 00.82.3c.47 0 1.13-.24 1.13-.36a.31.31 0 000-.08zM72 93.55c-.7-.57-1.85-.74-1.85-1.66a.83.83 0 01.93-.86 2.47 2.47 0 011.11.31.21.21 0 00.12 0c.06 0 .06 0 .1-.11l.11-.29a.69.69 0 000-.1.15.15 0 00-.07-.1 3.11 3.11 0 00-1.39-.37A1.59 1.59 0 0069.4 92c0 1.81 2.56 1.59 2.56 3a1 1 0 01-1 1 3.22 3.22 0 01-1.32-.36.27.27 0 00-.13-.05s-.07.05-.09.12l-.12.28v.11a.1.1 0 00.07.09 3.4 3.4 0 001.59.44A1.71 1.71 0 0072 93.55zm7.57-1.35a2.22 2.22 0 00-1.38.59V90.3s0-.11-.06-.11H78l-.44.11s-.06 0-.06.1v6c0 .07 0 .11.1.11h.46c.07 0 .1 0 .1-.11v-3.08a1.82 1.82 0 011.18-.54c.48 0 .57.34.57.71v2.92a.1.1 0 00.11.11h.45a.1.1 0 00.11-.11v-2.9c.03-.63-.04-1.31-1.01-1.31zm-4.16.58a1.55 1.55 0 01.93.45l.2-.37v-.07a1.73 1.73 0 00-1.26-.54c-1.07 0-1.77.89-1.77 2.35 0 1.28.6 2.09 1.64 2.09a2.28 2.28 0 001.38-.45v-.07l-.15-.37a2.44 2.44 0 01-1.08.36c-.85 0-1-.84-1-1.64 0-1.1.26-1.74 1.11-1.74zm9.52 2.65v-3.12s0-.11-.06-.11h-.1l-.44.1a.11.11 0 00-.06.11v3.18a2.13 2.13 0 01-1 .45.63.63 0 01-.71-.71v-3s0-.11-.07-.11h-.1l-.44.1a.11.11 0 00-.06.11v2.9c0 .63.1 1.31 1.28 1.31a2.05 2.05 0 001.21-.51c.1.2.2.51.33.51h.07l.34-.21s.08 0 .08-.07A2.12 2.12 0 0085 96a1.23 1.23 0 01-.07-.57zm5.77-3.23a2.26 2.26 0 00-1.41.59c0-.07-.11-.59-.27-.59h-.07l-.39.22v.06c0 .06.07.11.14.37a1.66 1.66 0 010 .52v3c0 .07 0 .11.1.11h.46c.07 0 .1 0 .1-.11v-3.05a1.73 1.73 0 011.16-.54c.47 0 .57.34.57.71v2.92c0 .07 0 .11.1.11h.45a.1.1 0 00.11-.11v-2.9c-.01-.63-.08-1.31-1.05-1.31zM87.78 96s0-.05-.06-.05a1.65 1.65 0 01-.45.11.34.34 0 01-.35-.31V90.3s0-.11-.06-.11h-.1l-.44.11s-.06 0-.06.1V95a4.49 4.49 0 00.12 1.27.82.82 0 00.82.42c.33 0 .74-.12.74-.22a.15.15 0 000-.06zm6.75-3.8c-1.08 0-1.73.93-1.73 2.22s.68 2.21 1.85 2.22a2.28 2.28 0 001.35-.45.15.15 0 000-.07l-.15-.37a2.33 2.33 0 01-1.07.36c-1 0-1.21-1-1.21-1.5H96c.1 0 .1-.07.1-.19.03-.8-.1-2.22-1.57-2.22zm-1 1.82c0-.44.17-1.28 1-1.28s.91.82.91 1.28zM52 85.68V84c0-.74-.34-1.23-1.34-1.23-.56 0-1.37.25-1.37.4a.27.27 0 000 .12l.11.3a.07.07 0 00.06 0 2.84 2.84 0 011.07-.28c.62 0 .78.28.78.78v.32c-.54 0-2.29 0-2.29 1.52a1.09 1.09 0 001.13 1.23 1.74 1.74 0 001.26-.58c.05.12.21.58.34.58h.07l.34-.21s.08 0 .08-.07-.13-.22-.16-.32a2.14 2.14 0 01-.08-.88zm-.66.42a1.68 1.68 0 01-1 .54.67.67 0 01-.64-.74c.04-.9 1.3-.9 1.68-.9zm-19.95-5.03h-1.1c-.07 0-.1 0-.1.11V87c0 .07 0 .1.1.1h1c1.78 0 2.45-1 2.45-3 .01-2.74-1.13-3.03-2.35-3.03zm.06 5.38h-.55v-4.77h.48c1 0 1.58.38 1.58 2.29.04 1.5-.26 2.48-1.51 2.48zm6.04-.77V84c0-.74-.35-1.23-1.35-1.23-.56 0-1.37.25-1.37.4a.27.27 0 000 .12l.11.3a.08.08 0 00.07 0 2.76 2.76 0 011.05-.26c.62 0 .78.28.78.78v.32c-.54 0-2.29 0-2.29 1.52a1.1 1.1 0 001.14 1.23 1.79 1.79 0 001.26-.58c0 .12.2.58.33.58h.07l.34-.21s.08 0 .08-.07a3.13 3.13 0 00-.16-.32 2.19 2.19 0 01-.06-.9zm-.67.42a1.68 1.68 0 01-1 .54.67.67 0 01-.64-.74c0-.92 1.26-.92 1.64-.93zm2.52-2.21c0-.41.3-.58.65-.58a2.47 2.47 0 01.88.24c.05 0 .07 0 .1-.11l.12-.24a.41.41 0 000-.08c0-.05 0-.08-.09-.12a2.89 2.89 0 00-1-.26A1.23 1.23 0 0038.67 84c0 1.32 1.95 1.12 1.95 2a.63.63 0 01-.7.63 3 3 0 01-1.13-.31s-.06 0-.08.08l-.12.27a.21.21 0 000 .11c0 .17.91.41 1.33.41a1.25 1.25 0 001.4-1.24c-.04-1.37-1.98-1.1-1.98-2.06zM47 82.74a2.23 2.23 0 00-1.41.6c0-.07-.11-.6-.27-.6h-.07l-.39.21v.07a2.75 2.75 0 01.14.36 1.66 1.66 0 010 .52v3c0 .07 0 .1.1.1h.46c.07 0 .1 0 .1-.1v-3.1a1.73 1.73 0 011.16-.53c.47 0 .57.33.57.71V87c0 .07 0 .1.1.1H48c.07 0 .1 0 .1-.1v-2.95c-.05-.63-.1-1.31-1.1-1.31zm23.49 2.94V84c0-.74-.34-1.23-1.35-1.23-.56 0-1.36.25-1.36.4a.5.5 0 000 .12l.12.3a.06.06 0 00.06 0 2.82 2.82 0 011.04-.26c.63 0 .78.28.78.78v.32c-.54 0-2.29 0-2.29 1.52a1.1 1.1 0 001.14 1.23 1.79 1.79 0 001.26-.58c0 .12.2.58.33.58a.11.11 0 00.07 0l.34-.21s.08 0 .08-.07a3.13 3.13 0 00-.16-.32 2.19 2.19 0 01-.06-.9zm-.67.42a1.69 1.69 0 01-1 .54.67.67 0 01-.64-.74c0-.92 1.25-.92 1.63-.93zm3.5.48h-.06a1.89 1.89 0 01-.46.11.36.36 0 01-.35-.3v-5.55s0-.11-.06-.11h-.1l-.44.1a.11.11 0 00-.06.11v4.56a4.53 4.53 0 00.12 1.27.85.85 0 00.82.41c.33 0 .75-.12.75-.21a.11.11 0 000-.06zm-7.87-3.84a2.18 2.18 0 00-1.4.6c0-.07-.12-.6-.27-.6h-.08l-.39.21v.07a2.75 2.75 0 01.14.36 2.2 2.2 0 010 .52v3c0 .07 0 .1.11.1H64c.07 0 .11 0 .11-.1v-3.1a1.7 1.7 0 011.15-.53c.47 0 .57.33.57.71V87c0 .07 0 .1.11.1h.45c.07 0 .1 0 .1-.1v-2.95c0-.63-.06-1.31-1.04-1.31zm10.06 0c-1.09 0-1.73.94-1.73 2.22s.68 2.22 1.84 2.22a2.26 2.26 0 001.38-.45v-.07l-.15-.37v-.05a2.39 2.39 0 01-1.08.36c-1 0-1.21-1-1.21-1.5H77c.09 0 .09-.07.09-.19.01-.75-.09-2.17-1.58-2.17zm-1 1.82c0-.44.18-1.28 1-1.28s.91.83.91 1.28zm-16.91-1.7h-1.23a.1.1 0 00-.11.11v.33a.1.1 0 00.11.11h.68V87c0 .07 0 .1.11.1h.45c.07 0 .11 0 .11-.1v-4c0-.08-.02-.14-.12-.14zm3.01-.12c-1.27 0-1.78 1-1.78 2.24s.51 2.2 1.69 2.2 1.79-1 1.79-2.24-.5-2.2-1.7-2.2zm0 3.9c-.8 0-1-.74-1-1.74s.24-1.62 1-1.62 1 .79 1 1.65-.25 1.71-1.03 1.71zm-4.93-.22a.06.06 0 00-.06-.06 2.62 2.62 0 01-.84.24c-.53 0-.53-.36-.53-.71v-2.48h1.16a.13.13 0 00.11-.08l.12-.34v-.06c0-.06 0-.07-.09-.07h-1.3v-1.44h-.06l-.46.13c-.07 0-.1 0-.1.11v1.19h-.66c-.06 0-.06 0-.06.11v.33s0 .11.06.11h.66v2.48a1.41 1.41 0 00.25 1 1.11 1.11 0 00.82.3c.48 0 1.13-.24 1.13-.35v-.09zm1.66-5.63a.54.54 0 000 1.07.54.54 0 000-1.07z"/></svg>