<svg version="1.1" id="Layer_1" xmlns="http://www.w3.org/2000/svg" x="0" y="0" viewBox="0 0 133 133" xml:space="preserve"><style>.st1{fill-rule:evenodd;clip-rule:evenodd;fill:#fff}</style><path id="Rectangle" d="M4 0h125c2.2 0 4 1.8 4 4v125c0 2.2-1.8 4-4 4H4c-2.2 0-4-1.8-4-4V4c0-2.2 1.8-4 4-4z" fill-rule="evenodd" clip-rule="evenodd" fill="#78aae5"/><g id="TXT-Niedersächsische-Bildungs" transform="translate(31.21 80.687)"><path id="Fill-1" class="st1" d="M5.4 7.3c0 .3-.1.5-.4.5-.2 0-.4-.1-.5-.3L.8 2.1v5.2c0 .3-.1.4-.4.4-.3.1-.4-.1-.4-.4V1C0 .7.1.5.4.5.6.5.8.6.9.8l3.6 5.4V1c0-.1 0-.2.1-.3s.2-.1.3-.1c.3 0 .4.2.4.5l.1 6.2"/><path id="Fill-2" class="st1" d="M7.4 1.1c0 .1-.1.3-.2.4 0 .1-.2.1-.3.1s-.3-.1-.4-.2c-.1 0-.1-.2-.1-.3s.1-.3.2-.4.2-.2.4-.2c.1 0 .3.1.4.2v.4zm-.1 6.2c0 .3-.1.5-.4.5-.1 0-.2 0-.3-.1-.1-.1-.1-.2-.1-.4V2.8c0-.3.1-.5.4-.5s.4.2.4.5v4.5z"/><path id="Fill-3" class="st1" d="M12.7 5c0 .3-.2.4-.5.4H9c0 .7.3 1.2.8 1.4.2.1.5.2.8.2.5 0 1-.2 1.4-.5.1-.1.2-.2.3-.2.2 0 .3.1.3.4 0 .1 0 .2-.1.3-.2.2-.4.4-.8.5-.3.2-.7.2-1.1.2-.8 0-1.4-.3-1.9-.9-.4-.4-.6-1-.6-1.7 0-1 .4-1.8 1.1-2.3.3-.3.7-.4 1.2-.4.4 0 .8.1 1.2.4.3.2.6.6.8 1 .2.3.3.7.3 1.2zm-.9-.3c0-.5-.1-.9-.4-1.2-.2-.3-.6-.5-1-.5s-.8.1-1 .4c-.3.4-.4.8-.4 1.3h2.8z"/><path id="Fill-4" class="st1" d="M17.7 7.3c0 .3-.1.5-.4.5-.1 0-.2 0-.3-.1-.1-.1-.1-.2-.1-.3v-.3c-.1.2-.2.4-.4.5-.2.1-.5.2-.8.2-.4 0-.8-.1-1.2-.3-.3-.2-.6-.6-.8-1s-.3-.9-.3-1.4c0-.4 0-.7.2-1.1.2-.7.6-1.2 1.1-1.5.3-.1.6-.2.9-.2.6 0 1 .2 1.4.7V.4c-.1-.3 0-.4.3-.4s.4.2.4.5v6.8zM17 5.1c0-.4-.1-.7-.2-1-.3-.6-.7-.9-1.2-.9-.6 0-1 .3-1.3 1-.1.3-.2.6-.2.9 0 .5.1 1 .3 1.4.3.3.6.5 1.1.5.3 0 .6-.1.9-.3.2-.2.4-.4.5-.7 0-.3.1-.6.1-.9z"/><path id="Fill-5" class="st1" d="M23.2 5c0 .3-.2.4-.5.4h-3.2c0 .7.3 1.2.8 1.4.2.1.4.2.7.2.5 0 1-.2 1.4-.5.1-.1.2-.2.3-.2.2 0 .3.1.3.4 0 .1 0 .2-.1.3-.2.2-.4.4-.8.5-.3.2-.7.2-1.1.2-.8 0-1.4-.3-1.9-.9-.4-.5-.5-1.1-.6-1.8 0-1 .4-1.8 1.1-2.3.3-.3.7-.4 1.2-.4.4 0 .8.1 1.2.4.3.2.6.6.8 1 .3.4.4.8.4 1.3zm-.9-.3c0-.5-.1-.9-.4-1.2-.2-.3-.6-.5-1-.5s-.8.1-1 .4-.4.7-.4 1.2l2.8.1z"/><path id="Fill-6" class="st1" d="M26.5 2.8c0 .2-.2.4-.6.5-.2.1-.3.1-.4.1-.5.3-.7.7-.7 1.3v2.6c0 .3-.1.5-.4.5s-.4-.2-.4-.5V2.8c0-.3.1-.5.4-.5s.4.2.4.5v.4c.2-.2.3-.4.5-.6.2-.2.4-.3.6-.3.1 0 .2 0 .3.1.2.1.3.2.3.4"/><path id="Fill-7" class="st1" d="M30.5 6.2c0 .3-.1.5-.2.8-.1.2-.4.4-.6.6-.3.2-.6.2-1.1.2-.7 0-1.2-.2-1.7-.6-.1-.1-.2-.2-.2-.4 0-.1 0-.2.1-.3.1-.1.2-.1.3-.1.1 0 .3.1.6.3.1.1.2.1.3.2.1 0 .3.1.6.1s.5 0 .7-.2c.2-.1.3-.3.3-.6 0-.2-.1-.4-.4-.6-.2-.1-.4-.2-.7-.4-.4-.2-.6-.3-.7-.3-.3-.1-.5-.3-.6-.5-.2-.2-.2-.4-.2-.7 0-.6.3-1 .8-1.3.3-.1.6-.2.9-.2s.6 0 .9.2c.3.1.5.2.7.4.1.1.2.3.2.4 0 .1 0 .2-.1.3s-.2.1-.3.1c-.1 0-.3-.1-.5-.2-.3-.2-.4-.3-.5-.3-.1-.1-.2-.1-.4-.1-.3 0-.5.1-.7.2-.2.1-.2.3-.3.5.1.3.3.6.7.8.2.1.4.2.6.2.2.1.3.1.5.2.4.2.7.4.8.6.1.1.2.4.2.7"/><path id="Fill-8" class="st1" d="M35.6 7.3c0 .3-.1.5-.4.5-.3 0-.4-.1-.4-.4V7c-.4.5-.8.8-1.3.8-.4 0-.8-.1-1.2-.3-.8-.5-1.1-1.3-1.1-2.4 0-1.2.4-2 1.2-2.5.3-.2.7-.3 1-.3.6 0 1.1.2 1.5.7v-.2c0-.1 0-.2.1-.3s.2-.1.3-.1c.3 0 .4.2.4.5l-.1 4.4zm-.8-2.2c0-.8-.2-1.4-.7-1.7-.2-.2-.5-.2-.7-.2-.5 0-.8.2-1 .6-.3.2-.4.7-.4 1.3 0 .3 0 .7.2 1 .2.7.6 1 1.2 1 .5 0 .9-.2 1.1-.6.2-.4.3-.9.3-1.4zm.1-4c0 .1-.1.3-.2.4-.1.1-.2.2-.4.2-.1 0-.3-.1-.4-.2-.1-.1-.2-.2-.2-.4s0-.3.1-.4.2-.2.4-.2.3.1.4.2c.3.2.3.3.3.4zm-1.8 0c0 .1 0 .3-.1.4-.1.1-.2.2-.4.2-.1 0-.3-.1-.4-.2-.1-.1-.2-.2-.2-.4s.1-.3.2-.4c.1-.1.2-.2.4-.2.1 0 .3.1.4.2s.1.3.1.4z"/><path id="Fill-9" class="st1" d="M40.2 3c0 .2-.1.4-.4.4-.2-.1-.3-.1-.5-.2s-.4-.1-.5-.1c-.6 0-1 .3-1.3 1-.1.3-.2.6-.2.9 0 .5.1.9.3 1.3.2.4.5.6 1 .7h.1c.2 0 .3 0 .4-.1.1 0 .1 0 .2-.1l.2-.1c.1 0 .2-.1.2-.1.2 0 .3.1.3.4s-.2.5-.5.6c-.2.1-.5.1-.8.1-1 0-1.6-.4-2-1.3-.2-.4-.3-.8-.3-1.3 0-.4 0-.7.1-1.1.2-.7.6-1.2 1.1-1.5.3-.2.6-.2 1-.2.3 0 .6 0 .9.1.3.1.4.2.5.3.2.2.2.3.2.3"/><path id="Fill-10" class="st1" d="M45.2 7.3c0 .3-.1.5-.4.5-.1 0-.2 0-.3-.1s-.1-.2-.1-.3v-3c0-.4-.1-.7-.3-.9s-.5-.4-.9-.4c-.2 0-.4 0-.6.1-.4.2-.6.6-.6 1.2v2.9c0 .3-.1.5-.4.5-.1 0-.2 0-.3-.1s-.1-.2-.1-.3V.5c0-.3.1-.5.4-.5.3 0 .4.2.4.5v2.6c.3-.5.8-.7 1.4-.7.7 0 1.3.3 1.6 1 .2.3.2.6.2 1v2.9"/><path id="Fill-11" class="st1" d="M49.8 6.2c0 .3-.1.5-.2.8-.1.2-.4.4-.6.6-.3.2-.6.2-1.1.2-.7 0-1.2-.2-1.7-.6-.2-.1-.2-.3-.3-.4 0-.1 0-.2.1-.3.1-.1.2-.1.3-.1s.3.1.6.3c.1.1.2.1.3.2.1 0 .4.1.7.1.3 0 .5 0 .7-.2.2-.1.3-.3.3-.6 0-.2-.1-.4-.4-.6-.2-.1-.4-.2-.7-.4-.4 0-.6-.1-.8-.2-.3-.1-.5-.3-.6-.5-.2-.2-.2-.4-.2-.7 0-.6.3-1 .8-1.3.3-.1.6-.2.9-.2.3 0 .6 0 .9.2.3.1.5.2.7.4.1.1.2.3.2.4 0 .1 0 .2-.1.3s-.2.1-.3.1-.3-.1-.5-.2c-.3-.2-.4-.3-.5-.3-.1-.1-.2-.1-.4-.1-.3 0-.5.1-.7.2-.1.1-.2.3-.2.5.1.3.3.5.7.7.2.1.4.2.6.2.2.1.3.1.5.2.4.2.7.4.8.6.1.1.2.4.2.7"/><path id="Fill-12" class="st1" d="M51.6 1.1c0 .1-.1.3-.2.4-.1.1-.2.2-.4.2-.1 0-.3-.1-.4-.2-.1-.1-.2-.2-.2-.4 0-.1.1-.3.2-.4s.2-.2.4-.2c.1 0 .3.1.4.2s.2.2.2.4zm-.1 6.2c0 .3-.1.5-.4.5-.1 0-.2 0-.3-.1s-.1-.2-.1-.3V2.8c0-.3.1-.5.4-.5.3 0 .4.2.4.5v4.5z"/><path id="Fill-13" class="st1" d="M56.1 6.2c0 .3-.1.5-.2.8-.1.2-.4.4-.6.6-.3.2-.6.2-1.1.2-.7 0-1.2-.2-1.7-.6-.1-.1-.2-.2-.2-.4 0-.1 0-.2.1-.3.1-.1.2-.1.3-.1s.3.1.6.3c.1.1.2.1.3.2 0 0 .3.1.5.1.3 0 .5 0 .7-.2.2-.1.3-.3.3-.6 0-.2-.1-.4-.4-.6-.2-.1-.4-.2-.7-.4-.4-.2-.6-.3-.7-.3-.3-.1-.5-.3-.6-.5-.2-.2-.2-.4-.2-.7 0-.6.3-1 .8-1.3.3-.1.6-.2.9-.2.3 0 .6 0 .9.2.3.1.5.2.7.4.1.1.2.3.2.4 0 .1 0 .2-.1.3s-.2.1-.3.1-.3-.1-.5-.2c-.3-.2-.4-.3-.5-.3-.1-.1-.2-.1-.4-.1-.3 0-.5.1-.7.2-.2.1-.2.3-.3.5.1.3.3.5.7.7.2.1.4.2.6.2.2.1.3.1.5.2.4.2.7.4.8.6.2.2.3.5.3.8"/><path id="Fill-14" class="st1" d="M60.4 3c0 .2-.1.4-.4.4-.2-.1-.3-.1-.5-.2s-.4-.1-.5-.1c-.6 0-1 .3-1.3 1-.1.3-.2.6-.2.9 0 .5.1.9.3 1.3s.6.7 1 .7h.2c.2 0 .3 0 .4-.1.1 0 .1 0 .2-.1l.2-.1c.1 0 .2-.1.2-.1.2 0 .3.1.3.4s-.2.5-.5.6c-.2.1-.5.1-.8.1-1 0-1.6-.4-2-1.3-.2-.4-.3-.8-.3-1.3 0-.4 0-.7.1-1.1.2-.7.6-1.2 1.1-1.5.3-.2.6-.2 1-.2.3 0 .6 0 .9.1.3.1.4.2.5.3.1.2.1.3.1.3"/><path id="Fill-15" class="st1" d="M65.3 7.3c0 .3-.1.5-.4.5-.1 0-.2 0-.3-.1-.1-.1-.1-.2-.1-.3v-3c0-.4-.1-.7-.3-.9-.2-.2-.5-.4-.9-.4-.2 0-.4 0-.6.1-.4.2-.6.6-.6 1.2v2.9c0 .3-.1.5-.4.5-.1 0-.2 0-.3-.1s-.1-.2-.1-.3V.5c0-.3.1-.5.4-.5.3 0 .4.2.4.5v2.6c.3-.5.8-.7 1.4-.7.7 0 1.3.3 1.6 1 .2.3.2.6.2 1v2.9"/><path id="Fill-16" class="st1" d="M70.7 5c0 .3-.2.4-.5.4H67c0 .7.3 1.2.8 1.4.2.1.4.2.7.2.5 0 1-.2 1.4-.5.1-.1.2-.2.3-.2.2 0 .3.1.3.4 0 .1 0 .2-.1.3-.2.2-.4.4-.8.5-.3.2-.7.2-1.1.2-.8 0-1.4-.3-1.9-.9-.4-.5-.5-1.1-.6-1.8 0-1 .4-1.8 1.1-2.3.3-.3.7-.4 1.2-.4.4 0 .8.1 1.2.4.3.2.6.6.8 1 .3.4.4.8.4 1.3zm-.9-.3c0-.5-.1-.9-.4-1.2-.2-.3-.6-.5-1-.5s-.8.1-1 .4c-.3.4-.4.8-.4 1.3h2.8z"/><path id="Fill-17" class="st1" d="M15.4 15.5c0 .8-.3 1.4-1 1.8-.3.2-.7.3-1.2.3h-1.8c-.3 0-.5-.2-.5-.5v-6.2c0-.3.2-.5.5-.5H13c.7 0 1.3.3 1.6.8.2.3.3.6.3.9 0 .2 0 .4-.1.6-.1.5-.4.8-.9 1 .8.2 1.2.5 1.4 1.1.1.3.1.5.1.7zM14 12.3c0-.3-.1-.6-.3-.8s-.5-.3-.8-.3h-1.1v2.3h1c.5 0 .8-.2 1-.6.1-.2.2-.4.2-.6zm.5 3.2c0-.2-.1-.4-.2-.7-.2-.5-.7-.7-1.3-.7h-1.3v2.7H13c.7 0 1.1-.2 1.4-.7.1-.1.1-.3.1-.6z"/><path id="Fill-18" class="st1" d="M17.5 10.9c0 .1-.1.3-.2.4-.1.1-.2.2-.4.2-.1 0-.3-.1-.4-.2-.1-.1-.2-.2-.2-.4s.1-.3.2-.4c.1-.1.2-.2.4-.2.1 0 .3.1.4.2.1.1.2.3.2.4zm-.1 6.3c0 .3-.1.5-.4.5-.1 0-.2 0-.3-.1-.1-.1-.1-.2-.1-.3v-4.6c0-.3.1-.5.4-.5s.4.2.4.5v4.5z"/><path id="Fill-19" class="st1" d="M19.6 17.2c0 .3-.1.5-.4.5s-.4-.2-.4-.5v-6.9c0-.3.1-.5.4-.5s.4.1.4.4v7"/><path id="Fill-20" class="st1" d="M25.3 17.2c0 .3-.2.5-.5.5-.1 0-.2 0-.3-.1-.1-.1-.1-.2-.1-.3V17c-.1.2-.2.4-.5.5-.2.1-.5.2-.9.2-.5 0-.9-.1-1.2-.3-.4-.2-.6-.6-.8-1-.2-.4-.3-.9-.3-1.4 0-.4.1-.7.2-1.1.2-.7.6-1.2 1.2-1.5.3-.1.6-.2.9-.2.6 0 1.1.2 1.4.7v-2.6c0-.3.1-.4.4-.4s.5.2.5.5v6.8zm-.8-2.3c0-.4-.1-.7-.2-1-.3-.6-.7-.9-1.3-.9-.6 0-1.1.3-1.3 1-.1.3-.2.6-.2.9 0 .5.1 1 .4 1.4.2.4.6.6 1 .6s.7-.1.9-.3c.2-.2.4-.4.5-.7s.2-.7.2-1z"/><path id="Fill-21" class="st1" d="M30.9 15.6c0 .8-.3 1.4-.9 1.8-.3.2-.7.3-1.2.3-.9 0-1.5-.3-1.9-1-.1-.3-.2-.7-.2-1v-3c0-.3.1-.5.4-.5s.4.2.4.5v2.9c0 .9.4 1.3 1.2 1.3.8 0 1.3-.4 1.3-1.3v-2.9c0-.3.1-.5.4-.5s.4.2.4.5v2.9"/><path id="Fill-22" class="st1" d="M36.5 17.2c0 .3-.1.4-.4.4-.3 0-.4-.1-.4-.4v-3c0-.4-.1-.7-.3-.9s-.5-.4-.9-.4c-.5 0-.8.2-1.1.6-.1.2-.2.4-.2.7v3c0 .3-.1.5-.4.5-.1 0-.2 0-.3-.1s-.1-.2-.1-.3v-4.6c0-.3.1-.5.4-.5.3 0 .4.2.4.5v.2c.4-.5.8-.7 1.5-.7s1.3.3 1.6.9c.2.3.3.7.3 1.1l-.1 3"/><path id="Fill-23" class="st1" d="M42.2 17.2c0 1-.4 1.8-1.1 2.2-.4.2-.8.3-1.3.3-.6 0-1.1-.2-1.7-.5-.3-.2-.4-.3-.4-.6 0-.2.2-.3.4-.4.2 0 .4.1.6.2.4.3.8.4 1.2.4.5 0 .9-.2 1.1-.6.2-.3.3-.8.3-1.3v-.2c-.3.5-.8.8-1.4.8-.4 0-.8-.1-1.2-.4-.3-.2-.6-.6-.8-1s-.3-.9-.3-1.4.1-1 .3-1.4.5-.7.8-1c.4-.2.8-.4 1.2-.3.7 0 1.1.3 1.3.8v-.3c0-.3.1-.4.4-.4.3 0 .5.2.5.5v4.6h.1zm-.8-2.2c0-.8-.2-1.4-.7-1.7-.2-.2-.5-.3-.9-.3-.3 0-.6.1-.8.3s-.4.4-.5.7-.2.6-.1.9c0 .4.1.7.2 1 .1.3.3.5.5.7s.5.3.8.3c.4 0 .8-.2 1.1-.5.2-.4.4-.8.4-1.4z"/><path id="Fill-24" class="st1" d="M47.2 16.1c0 .3-.1.5-.2.8-.1.2-.4.4-.7.6s-.7.2-1.1.2c-.7 0-1.3-.2-1.7-.6-.1-.1-.2-.2-.2-.4 0-.1 0-.2.1-.3.1-.1.2-.1.3-.1s.3.1.6.3c.1.1.2.1.3.2.2.1.5.2.7.2.3 0 .5 0 .8-.2.2-.1.3-.3.3-.6 0-.2-.1-.4-.4-.6l-.8-.4c-.4-.2-.6-.3-.8-.3-.3-.1-.5-.3-.6-.5-.2-.2-.2-.4-.2-.7 0-.6.3-1 .8-1.3.3-.1.6-.2.9-.2.3 0 .6 0 1 .2.3.1.5.2.7.4v.3c0 .1 0 .2-.1.3s-.2.1-.3.1-.3-.1-.5-.2c-.3-.2-.5-.3-.5-.3-.1-.1-.2-.1-.4-.1-.3 0-.5.1-.7.2-.2.1-.3.3-.3.5.1.3.3.5.7.7.2.1.4.2.6.2.2.1.3.1.5.2.4.2.7.4.9.6.2.2.3.5.3.8"/></g><g id="TXT-cloud" transform="translate(79.163 90.505)"><path id="Fill-328" class="st1" d="M3.8 3c0 .2-.1.4-.4.4-.1 0-.3-.1-.5-.2-.2 0-.3-.1-.5-.1-.6 0-1.1.3-1.3 1-.1.3-.2.6-.2.9 0 .5.1 1 .3 1.4s.6.6 1.1.7h.1c.2 0 .3 0 .4-.1.1 0 .2 0 .3-.1l.2-.1c.1 0 .2-.1.2-.1.2 0 .3.1.3.4s-.2.5-.5.6-.6.2-.9.2c-1 0-1.7-.4-2.1-1.3-.2-.5-.3-.9-.3-1.4 0-.4 0-.7.1-1.1.2-.7.6-1.2 1.2-1.5.3-.2.7-.3 1.1-.3s.7 0 .9.1c.3.1.4.2.5.4V3"/><path id="Fill-329" class="st1" d="M5.8 7.4c0 .3-.1.5-.4.5-.4 0-.5-.2-.5-.5V.5c0-.3.1-.5.4-.5s.4.1.4.4l.1 7"/><path id="Fill-330" class="st1" d="M11.6 5.1c0 1.1-.4 1.9-1.1 2.4-.4.2-.8.4-1.2.4-1 0-1.7-.5-2.1-1.4-.3-.5-.4-.9-.4-1.4 0-1.1.4-1.9 1.2-2.4.4-.2.8-.4 1.2-.4.5 0 .9.1 1.2.4.4.2.6.6.8 1 .3.5.4.9.4 1.4zm-.9 0c0-.3-.1-.7-.2-1-.2-.7-.7-1-1.3-1s-1.1.3-1.3 1c-.1.3-.2.6-.2 1 0 .5.1 1 .3 1.3.3.4.6.6 1.1.6.6 0 1.1-.3 1.3-1 .2-.2.3-.5.3-.9z"/><path id="Fill-331" class="st1" d="M16.9 5.8c0 .8-.3 1.4-.9 1.8-.3.2-.7.3-1.2.3-.9 0-1.5-.3-1.9-1-.1-.3-.2-.7-.2-1v-3c0-.3.1-.5.4-.5.3 0 .4.2.4.5v2.9c0 .9.4 1.3 1.2 1.3S16 6.7 16 5.8v-3c0-.3.1-.5.4-.5s.4.2.4.5v3"/><path id="Fill-332" class="st1" d="M22.6 7.4c0 .3-.2.5-.5.5-.1 0-.2 0-.3-.1-.1-.1-.1-.2-.1-.3v-.4c-.1.2-.2.4-.5.5-.2.1-.5.2-.9.2-.5 0-.9-.1-1.2-.3-.4-.2-.6-.6-.8-1-.2-.4-.3-.9-.3-1.4 0-.3 0-.7.1-1.1.2-.7.6-1.2 1.2-1.5.3-.1.6-.2.9-.2.6 0 1.1.2 1.4.7V.4c0-.3.1-.4.4-.4s.5.2.5.5v6.9h.1zm-.8-2.3c0-.4-.1-.7-.2-1-.3-.6-.7-.9-1.3-.9-.6 0-1.1.3-1.3 1-.1.3-.2.6-.2.9 0 .5.1 1 .4 1.4.2.4.6.6 1 .6s.7-.1.9-.3c.2-.2.4-.4.5-.7.2-.4.2-.7.2-1z"/></g><g id="N21-Logo-Bildmarke" transform="translate(122 219)"><path id="cloud" d="M-53.1-180.7c-5.1-4-10.8-4.6-16.6-1.8-6.1 3-9.2 8.2-8.8 15-6.6-.2-12.2 5.9-11.4 12.5.6 5.3 4.2 9 9.5 9.8h32.2c6.5-.8 7.8-2.1 8.8-6.5" fill="none" stroke="#fff" stroke-width="2" stroke-linecap="round" stroke-linejoin="round"/><g id="Pferd" transform="translate(88.282 16.022)"><path id="Fill-26" class="st1" d="M-143.6-174.4h.3c.2 0 .3.1.3.3v.3c0 .2-.1.3-.3.3h-.3c-.2 0-.3-.1-.3-.3v-.3c0-.2.1-.3.3-.3"/><path id="Fill-27" class="st1" d="M-142.4-174.4h.3c.2 0 .3.1.3.3v.3c0 .2-.1.3-.3.3h-.3c-.2 0-.3-.1-.3-.3v-.3c0-.2.2-.3.3-.3"/><path id="Fill-28" class="st1" d="M-138.7-193h.3c.2 0 .3.1.3.3v.3c0 .2-.1.3-.3.3h-.3c-.2 0-.3-.1-.3-.3v-.3c0-.2.2-.3.3-.3"/><path id="Fill-29" class="st1" d="M-139.9-193h.3c.2 0 .3.1.3.3v.3c0 .2-.1.3-.3.3h-.3c-.2 0-.3-.1-.3-.3v-.3c0-.2.1-.3.3-.3"/><path id="Fill-30" class="st1" d="M-137.4-193h.3c.2 0 .3.1.3.3v.3c0 .2-.1.3-.3.3h-.3c-.2 0-.3-.1-.3-.3v-.3c0-.2.1-.3.3-.3"/><path id="Fill-31" class="st1" d="M-134.9-193h.3c.2 0 .3.1.3.3v.3c0 .2-.1.3-.3.3h-.3c-.2 0-.3-.1-.3-.3v-.3c0-.2.1-.3.3-.3"/><path id="Fill-32" class="st1" d="M-136.2-193h.3c.2 0 .3.1.3.3v.3c0 .2-.1.3-.3.3h-.3c-.2 0-.3-.1-.3-.3v-.3c0-.2.2-.3.3-.3"/><path id="Fill-33" class="st1" d="M-139.9-191.8h.3c.2 0 .3.1.3.3v.3c0 .2-.1.3-.3.3h-.3c-.2 0-.3-.1-.3-.3v-.3c0-.2.1-.3.3-.3"/><path id="Fill-34" class="st1" d="M-141.1-191.8h.3c.2 0 .3.1.3.3v.3c0 .2-.1.3-.3.3h-.3c-.2 0-.3-.1-.3-.3v-.3c0-.2.1-.3.3-.3"/><path id="Fill-35" class="st1" d="M-138.7-191.8h.3c.2 0 .3.1.3.3v.3c0 .2-.1.3-.3.3h-.3c-.2 0-.3-.1-.3-.3v-.3c0-.2.2-.3.3-.3"/><path id="Fill-36" class="st1" d="M-136.2-191.8h.3c.2 0 .3.1.3.3v.3c0 .2-.1.3-.3.3h-.3c-.2 0-.3-.1-.3-.3v-.3c0-.2.2-.3.3-.3"/><path id="Fill-37" class="st1" d="M-137.4-191.8h.3c.2 0 .3.1.3.3v.3c0 .2-.1.3-.3.3h-.3c-.2 0-.3-.1-.3-.3v-.3c0-.2.1-.3.3-.3"/><path id="Fill-38" class="st1" d="M-134.9-191.8h.3c.2 0 .3.1.3.3v.3c0 .2-.1.3-.3.3h-.3c-.2 0-.3-.1-.3-.3v-.3c0-.2.1-.3.3-.3"/><path id="Fill-39" class="st1" d="M-133.7-191.8h.3c.2 0 .3.1.3.3v.3c0 .2-.1.3-.3.3h-.3c-.2 0-.3-.1-.3-.3v-.3c0-.2.1-.3.3-.3"/><path id="Fill-40" class="st1" d="M-141.1-190.6h.3c.2 0 .3.1.3.3v.3c0 .2-.1.3-.3.3h-.3c-.2 0-.3-.1-.3-.3v-.3c0-.1.1-.3.3-.3"/><path id="Fill-41" class="st1" d="M-142.4-190.6h.3c.2 0 .3.1.3.3v.3c0 .2-.1.3-.3.3h-.3c-.2 0-.3-.1-.3-.3v-.3c0-.1.2-.3.3-.3"/><path id="Fill-42" class="st1" d="M-139.9-190.6h.3c.2 0 .3.1.3.3v.3c0 .2-.1.3-.3.3h-.3c-.2 0-.3-.1-.3-.3v-.3c0-.1.1-.3.3-.3"/><path id="Fill-43" class="st1" d="M-137.4-190.6h.3c.2 0 .3.1.3.3v.3c0 .2-.1.3-.3.3h-.3c-.2 0-.3-.1-.3-.3v-.3c0-.1.1-.3.3-.3"/><path id="Fill-44" class="st1" d="M-138.7-190.6h.3c.2 0 .3.1.3.3v.3c0 .2-.1.3-.3.3h-.3c-.2 0-.3-.1-.3-.3v-.3c0-.1.2-.3.3-.3"/><path id="Fill-45" class="st1" d="M-136.2-190.6h.3c.2 0 .3.1.3.3v.3c0 .2-.1.3-.3.3h-.3c-.2 0-.3-.1-.3-.3v-.3c0-.1.2-.3.3-.3"/><path id="Fill-46" class="st1" d="M-134.9-190.6h.3c.2 0 .3.1.3.3v.3c0 .2-.1.3-.3.3h-.3c-.2 0-.3-.1-.3-.3v-.3c0-.1.1-.3.3-.3"/><path id="Fill-47" class="st1" d="M-132.5-190.6h.3c.2 0 .3.1.3.3v.3c0 .2-.1.3-.3.3h-.3c-.2 0-.3-.1-.3-.3v-.3c0-.1.2-.3.3-.3"/><path id="Fill-48" class="st1" d="M-133.7-190.6h.3c.2 0 .3.1.3.3v.3c0 .2-.1.3-.3.3h-.3c-.2 0-.3-.1-.3-.3v-.3c0-.1.1-.3.3-.3"/><path id="Fill-49" class="st1" d="M-142.4-189.3h.3c.2 0 .3.1.3.3v.3c0 .2-.1.3-.3.3h-.3c-.2 0-.3-.1-.3-.3v-.3c0-.2.2-.3.3-.3"/><path id="Fill-50" class="st1" d="M-143.6-189.3h.3c.2 0 .3.1.3.3v.3c0 .2-.1.3-.3.3h-.3c-.2 0-.3-.1-.3-.3v-.3c0-.2.1-.3.3-.3"/><path id="Fill-51" class="st1" d="M-141.1-189.3h.3c.2 0 .3.1.3.3v.3c0 .2-.1.3-.3.3h-.3c-.2 0-.3-.1-.3-.3v-.3c0-.2.1-.3.3-.3"/><path id="Fill-52" class="st1" d="M-138.7-189.3h.3c.2 0 .3.1.3.3v.3c0 .2-.1.3-.3.3h-.3c-.2 0-.3-.1-.3-.3v-.3c0-.2.2-.3.3-.3"/><path id="Fill-53" class="st1" d="M-139.9-189.3h.3c.2 0 .3.1.3.3v.3c0 .2-.1.3-.3.3h-.3c-.2 0-.3-.1-.3-.3v-.3c0-.2.1-.3.3-.3"/><path id="Fill-54" class="st1" d="M-137.4-189.3h.3c.2 0 .3.1.3.3v.3c0 .2-.1.3-.3.3h-.3c-.2 0-.3-.1-.3-.3v-.3c0-.2.1-.3.3-.3"/><path id="Fill-55" class="st1" d="M-136.2-189.3h.3c.2 0 .3.1.3.3v.3c0 .2-.1.3-.3.3h-.3c-.2 0-.3-.1-.3-.3v-.3c0-.2.2-.3.3-.3"/><path id="Fill-56" class="st1" d="M-133.7-189.3h.3c.2 0 .3.1.3.3v.3c0 .2-.1.3-.3.3h-.3c-.2 0-.3-.1-.3-.3v-.3c0-.2.1-.3.3-.3"/><path id="Fill-57" class="st1" d="M-134.9-189.3h.3c.2 0 .3.1.3.3v.3c0 .2-.1.3-.3.3h-.3c-.2 0-.3-.1-.3-.3v-.3c0-.2.1-.3.3-.3"/><path id="Fill-58" class="st1" d="M-132.5-189.3h.3c.2 0 .3.1.3.3v.3c0 .2-.1.3-.3.3h-.3c-.2 0-.3-.1-.3-.3v-.3c0-.2.2-.3.3-.3"/><path id="Fill-59" class="st1" d="M-131.2-189.3h.3c.2 0 .3.1.3.3v.3c0 .2-.1.3-.3.3h-.3c-.2 0-.3-.1-.3-.3v-.3c0-.2.1-.3.3-.3"/><path id="Fill-60" class="st1" d="M-143.6-188.1h.3c.2 0 .3.1.3.3v.3c0 .2-.1.3-.3.3h-.3c-.2 0-.3-.1-.3-.3v-.3c0-.2.1-.3.3-.3"/><path id="Fill-61" class="st1" d="M-144.9-188.1h.3c.2 0 .3.1.3.3v.3c0 .2-.1.3-.3.3h-.3c-.2 0-.3-.1-.3-.3v-.3c0-.2.2-.3.3-.3"/><path id="Fill-62" class="st1" d="M-142.4-188.1h.3c.2 0 .3.1.3.3v.3c0 .2-.1.3-.3.3h-.3c-.2 0-.3-.1-.3-.3v-.3c0-.2.2-.3.3-.3"/><path id="Fill-63" class="st1" d="M-139.9-188.1h.3c.2 0 .3.1.3.3v.3c0 .2-.1.3-.3.3h-.3c-.2 0-.3-.1-.3-.3v-.3c0-.2.1-.3.3-.3"/><path id="Fill-64" class="st1" d="M-141.1-188.1h.3c.2 0 .3.1.3.3v.3c0 .2-.1.3-.3.3h-.3c-.2 0-.3-.1-.3-.3v-.3c0-.2.1-.3.3-.3"/><path id="Fill-65" class="st1" d="M-138.7-188.1h.3c.2 0 .3.1.3.3v.3c0 .2-.1.3-.3.3h-.3c-.2 0-.3-.1-.3-.3v-.3c0-.2.2-.3.3-.3"/><path id="Fill-66" class="st1" d="M-137.4-188.1h.3c.2 0 .3.1.3.3v.3c0 .2-.1.3-.3.3h-.3c-.2 0-.3-.1-.3-.3v-.3c0-.2.1-.3.3-.3"/><path id="Fill-67" class="st1" d="M-134.9-188.1h.3c.2 0 .3.1.3.3v.3c0 .2-.1.3-.3.3h-.3c-.2 0-.3-.1-.3-.3v-.3c0-.2.1-.3.3-.3"/><path id="Fill-68" class="st1" d="M-136.2-188.1h.3c.2 0 .3.1.3.3v.3c0 .2-.1.3-.3.3h-.3c-.2 0-.3-.1-.3-.3v-.3c0-.2.2-.3.3-.3"/><path id="Fill-69" class="st1" d="M-133.7-188.1h.3c.2 0 .3.1.3.3v.3c0 .2-.1.3-.3.3h-.3c-.2 0-.3-.1-.3-.3v-.3c0-.2.1-.3.3-.3"/><path id="Fill-70" class="st1" d="M-132.5-188.1h.3c.2 0 .3.1.3.3v.3c0 .2-.1.3-.3.3h-.3c-.2 0-.3-.1-.3-.3v-.3c0-.2.2-.3.3-.3"/><path id="Fill-71" class="st1" d="M-131.2-188.1h.3c.2 0 .3.1.3.3v.3c0 .2-.1.3-.3.3h-.3c-.2 0-.3-.1-.3-.3v-.3c0-.2.1-.3.3-.3"/><path id="Fill-72" class="st1" d="M-130-188.1h.3c.2 0 .3.1.3.3v.3c0 .2-.1.3-.3.3h-.3c-.2 0-.3-.1-.3-.3v-.3c0-.2.2-.3.3-.3"/><path id="Fill-73" class="st1" d="M-143.6-186.8h.3c.2 0 .3.1.3.3v.3c0 .2-.1.3-.3.3h-.3c-.2 0-.3-.1-.3-.3v-.3c0-.2.1-.3.3-.3"/><path id="Fill-74" class="st1" d="M-142.4-186.8h.3c.2 0 .3.1.3.3v.3c0 .2-.1.3-.3.3h-.3c-.2 0-.3-.1-.3-.3v-.3c0-.2.2-.3.3-.3"/><path id="Fill-75" class="st1" d="M-137.4-186.8h.3c.2 0 .3.1.3.3v.3c0 .2-.1.3-.3.3h-.3c-.2 0-.3-.1-.3-.3v-.3c0-.2.1-.3.3-.3"/><path id="Fill-76" class="st1" d="M-136.2-186.8h.3c.2 0 .3.1.3.3v.3c0 .2-.1.3-.3.3h-.3c-.2 0-.3-.1-.3-.3v-.3c0-.2.2-.3.3-.3"/><path id="Fill-77" class="st1" d="M-134.9-186.8h.3c.2 0 .3.1.3.3v.3c0 .2-.1.3-.3.3h-.3c-.2 0-.3-.1-.3-.3v-.3c0-.2.1-.3.3-.3"/><path id="Fill-78" class="st1" d="M-133.7-186.8h.3c.2 0 .3.1.3.3v.3c0 .2-.1.3-.3.3h-.3c-.2 0-.3-.1-.3-.3v-.3c0-.2.1-.3.3-.3"/><path id="Fill-79" class="st1" d="M-132.5-186.8h.3c.2 0 .3.1.3.3v.3c0 .2-.1.3-.3.3h-.3c-.2 0-.3-.1-.3-.3v-.3c0-.2.2-.3.3-.3"/><path id="Fill-80" class="st1" d="M-131.2-186.8h.3c.2 0 .3.1.3.3v.3c0 .2-.1.3-.3.3h-.3c-.2 0-.3-.1-.3-.3v-.3c0-.2.1-.3.3-.3"/><path id="Fill-81" class="st1" d="M-130-186.8h.3c.2 0 .3.1.3.3v.3c0 .2-.1.3-.3.3h-.3c-.2 0-.3-.1-.3-.3v-.3c0-.2.2-.3.3-.3"/><path id="Fill-82" class="st1" d="M-137.4-185.6h.3c.2 0 .3.1.3.3v.3c0 .2-.1.3-.3.3h-.3c-.2 0-.3-.1-.3-.3v-.3c0-.2.1-.3.3-.3"/><path id="Fill-83" class="st1" d="M-136.2-185.6h.3c.2 0 .3.1.3.3v.3c0 .2-.1.3-.3.3h-.3c-.2 0-.3-.1-.3-.3v-.3c0-.2.2-.3.3-.3"/><path id="Fill-84" class="st1" d="M-134.9-185.6h.3c.2 0 .3.1.3.3v.3c0 .2-.1.3-.3.3h-.3c-.2 0-.3-.1-.3-.3v-.3c0-.2.1-.3.3-.3"/><path id="Fill-85" class="st1" d="M-133.7-185.6h.3c.2 0 .3.1.3.3v.3c0 .2-.1.3-.3.3h-.3c-.2 0-.3-.1-.3-.3v-.3c0-.2.1-.3.3-.3"/><path id="Fill-86" class="st1" d="M-132.5-185.6h.3c.2 0 .3.1.3.3v.3c0 .2-.1.3-.3.3h-.3c-.2 0-.3-.1-.3-.3v-.3c0-.2.2-.3.3-.3"/><path id="Fill-87" class="st1" d="M-131.2-185.6h.3c.2 0 .3.1.3.3v.3c0 .2-.1.3-.3.3h-.3c-.2 0-.3-.1-.3-.3v-.3c0-.2.1-.3.3-.3"/><path id="Fill-88" class="st1" d="M-130-185.6h.3c.2 0 .3.1.3.3v.3c0 .2-.1.3-.3.3h-.3c-.2 0-.3-.1-.3-.3v-.3c0-.2.2-.3.3-.3"/><path id="Fill-89" class="st1" d="M-137.4-184.4h.3c.2 0 .3.1.3.3v.3c0 .2-.1.3-.3.3h-.3c-.2 0-.3-.1-.3-.3v-.3c0-.1.1-.3.3-.3"/><path id="Fill-90" class="st1" d="M-136.2-184.4h.3c.2 0 .3.1.3.3v.3c0 .2-.1.3-.3.3h-.3c-.2 0-.3-.1-.3-.3v-.3c0-.1.2-.3.3-.3"/><path id="Fill-91" class="st1" d="M-134.9-184.4h.3c.2 0 .3.1.3.3v.3c0 .2-.1.3-.3.3h-.3c-.2 0-.3-.1-.3-.3v-.3c0-.1.1-.3.3-.3"/><path id="Fill-92" class="st1" d="M-133.7-184.4h.3c.2 0 .3.1.3.3v.3c0 .2-.1.3-.3.3h-.3c-.2 0-.3-.1-.3-.3v-.3c0-.1.1-.3.3-.3"/><path id="Fill-93" class="st1" d="M-132.5-184.4h.3c.2 0 .3.1.3.3v.3c0 .2-.1.3-.3.3h-.3c-.2 0-.3-.1-.3-.3v-.3c0-.1.2-.3.3-.3"/><path id="Fill-94" class="st1" d="M-131.2-184.4h.3c.2 0 .3.1.3.3v.3c0 .2-.1.3-.3.3h-.3c-.2 0-.3-.1-.3-.3v-.3c0-.1.1-.3.3-.3"/><path id="Fill-95" class="st1" d="M-130-184.4h.3c.2 0 .3.1.3.3v.3c0 .2-.1.3-.3.3h-.3c-.2 0-.3-.1-.3-.3v-.3c0-.1.2-.3.3-.3"/><path id="Fill-96" class="st1" d="M-127.5-180.6h.3c.2 0 .3.1.3.3v.3c0 .2-.1.3-.3.3h-.3c-.2 0-.3-.1-.3-.3v-.3c0-.2.1-.3.3-.3"/><path id="Fill-97" class="st1" d="M-137.4-183.1h.3c.2 0 .3.1.3.3v.3c0 .2-.1.3-.3.3h-.3c-.2 0-.3-.1-.3-.3v-.3c0-.2.1-.3.3-.3"/><path id="Fill-98" class="st1" d="M-136.2-183.1h.3c.2 0 .3.1.3.3v.3c0 .2-.1.3-.3.3h-.3c-.2 0-.3-.1-.3-.3v-.3c0-.2.2-.3.3-.3"/><path id="Fill-99" class="st1" d="M-134.9-183.1h.3c.2 0 .3.1.3.3v.3c0 .2-.1.3-.3.3h-.3c-.2 0-.3-.1-.3-.3v-.3c0-.2.1-.3.3-.3"/><path id="Fill-100" class="st1" d="M-133.7-183.1h.3c.2 0 .3.1.3.3v.3c0 .2-.1.3-.3.3h-.3c-.2 0-.3-.1-.3-.3v-.3c0-.2.1-.3.3-.3"/><path id="Fill-101" class="st1" d="M-132.5-183.1h.3c.2 0 .3.1.3.3v.3c0 .2-.1.3-.3.3h-.3c-.2 0-.3-.1-.3-.3v-.3c0-.2.2-.3.3-.3"/><path id="Fill-102" class="st1" d="M-131.2-183.1h.3c.2 0 .3.1.3.3v.3c0 .2-.1.3-.3.3h-.3c-.2 0-.3-.1-.3-.3v-.3c0-.2.1-.3.3-.3"/><path id="Fill-103" class="st1" d="M-139.9-194.3h.3c.2 0 .3.1.3.3v.3c0 .2-.1.3-.3.3h-.3c-.2 0-.3-.1-.3-.3v-.3c0-.2.1-.3.3-.3"/><path id="Fill-104" class="st1" d="M-138.7-194.3h.3c.2 0 .3.1.3.3v.3c0 .2-.1.3-.3.3h-.3c-.2 0-.3-.1-.3-.3v-.3c0-.2.2-.3.3-.3"/><path id="Fill-105" class="st1" d="M-130-183.1h.3c.2 0 .3.1.3.3v.3c0 .2-.1.3-.3.3h-.3c-.2 0-.3-.1-.3-.3v-.3c0-.2.2-.3.3-.3"/><path id="Fill-106" class="st1" d="M-128.7-183.1h.3c.2 0 .3.1.3.3v.3c0 .2-.1.3-.3.3h-.3c-.2 0-.3-.1-.3-.3v-.3c0-.2.1-.3.3-.3"/><path id="Fill-107" class="st1" d="M-137.4-181.9h.3c.2 0 .3.1.3.3v.3c0 .2-.1.3-.3.3h-.3c-.2 0-.3-.1-.3-.3v-.3c0-.2.1-.3.3-.3"/><path id="Fill-108" class="st1" d="M-136.2-181.9h.3c.2 0 .3.1.3.3v.3c0 .2-.1.3-.3.3h-.3c-.2 0-.3-.1-.3-.3v-.3c0-.2.2-.3.3-.3"/><path id="Fill-109" class="st1" d="M-134.9-181.9h.3c.2 0 .3.1.3.3v.3c0 .2-.1.3-.3.3h-.3c-.2 0-.3-.1-.3-.3v-.3c0-.2.1-.3.3-.3"/><path id="Fill-110" class="st1" d="M-133.7-181.9h.3c.2 0 .3.1.3.3v.3c0 .2-.1.3-.3.3h-.3c-.2 0-.3-.1-.3-.3v-.3c0-.2.1-.3.3-.3"/><path id="Fill-111" class="st1" d="M-132.5-181.9h.3c.2 0 .3.1.3.3v.3c0 .2-.1.3-.3.3h-.3c-.2 0-.3-.1-.3-.3v-.3c0-.2.2-.3.3-.3"/><path id="Fill-112" class="st1" d="M-131.2-181.9h.3c.2 0 .3.1.3.3v.3c0 .2-.1.3-.3.3h-.3c-.2 0-.3-.1-.3-.3v-.3c0-.2.1-.3.3-.3"/><path id="Fill-113" class="st1" d="M-130-181.9h.3c.2 0 .3.1.3.3v.3c0 .2-.1.3-.3.3h-.3c-.2 0-.3-.1-.3-.3v-.3c0-.2.2-.3.3-.3"/><path id="Fill-114" class="st1" d="M-128.7-181.9h.3c.2 0 .3.1.3.3v.3c0 .2-.1.3-.3.3h-.3c-.2 0-.3-.1-.3-.3v-.3c0-.2.1-.3.3-.3"/><path id="Fill-115" class="st1" d="M-138.7-180.6h.3c.2 0 .3.1.3.3v.3c0 .2-.1.3-.3.3h-.3c-.2 0-.3-.1-.3-.3v-.3c0-.2.2-.3.3-.3"/><path id="Fill-116" class="st1" d="M-137.4-180.6h.3c.2 0 .3.1.3.3v.3c0 .2-.1.3-.3.3h-.3c-.2 0-.3-.1-.3-.3v-.3c0-.2.1-.3.3-.3"/><path id="Fill-117" class="st1" d="M-136.2-180.6h.3c.2 0 .3.1.3.3v.3c0 .2-.1.3-.3.3h-.3c-.2 0-.3-.1-.3-.3v-.3c0-.2.2-.3.3-.3"/><path id="Fill-118" class="st1" d="M-134.9-180.6h.3c.2 0 .3.1.3.3v.3c0 .2-.1.3-.3.3h-.3c-.2 0-.3-.1-.3-.3v-.3c0-.2.1-.3.3-.3"/><path id="Fill-119" class="st1" d="M-133.7-180.6h.3c.2 0 .3.1.3.3v.3c0 .2-.1.3-.3.3h-.3c-.2 0-.3-.1-.3-.3v-.3c0-.2.1-.3.3-.3"/><path id="Fill-120" class="st1" d="M-132.5-180.6h.3c.2 0 .3.1.3.3v.3c0 .2-.1.3-.3.3h-.3c-.2 0-.3-.1-.3-.3v-.3c0-.2.2-.3.3-.3"/><path id="Fill-121" class="st1" d="M-131.2-180.6h.3c.2 0 .3.1.3.3v.3c0 .2-.1.3-.3.3h-.3c-.2 0-.3-.1-.3-.3v-.3c0-.2.1-.3.3-.3"/><path id="Fill-122" class="st1" d="M-130-180.6h.3c.2 0 .3.1.3.3v.3c0 .2-.1.3-.3.3h-.3c-.2 0-.3-.1-.3-.3v-.3c0-.2.2-.3.3-.3"/><path id="Fill-123" class="st1" d="M-128.7-180.6h.3c.2 0 .3.1.3.3v.3c0 .2-.1.3-.3.3h-.3c-.2 0-.3-.1-.3-.3v-.3c0-.2.1-.3.3-.3"/><path id="Fill-124" class="st1" d="M-138.7-179.4h.3c.2 0 .3.1.3.3v.3c0 .2-.1.3-.3.3h-.3c-.2 0-.3-.1-.3-.3v-.3c0-.2.2-.3.3-.3"/><path id="Fill-125" class="st1" d="M-137.4-179.4h.3c.2 0 .3.1.3.3v.3c0 .2-.1.3-.3.3h-.3c-.2 0-.3-.1-.3-.3v-.3c0-.2.1-.3.3-.3"/><path id="Fill-126" class="st1" d="M-136.2-179.4h.3c.2 0 .3.1.3.3v.3c0 .2-.1.3-.3.3h-.3c-.2 0-.3-.1-.3-.3v-.3c0-.2.2-.3.3-.3"/><path id="Fill-127" class="st1" d="M-134.9-179.4h.3c.2 0 .3.1.3.3v.3c0 .2-.1.3-.3.3h-.3c-.2 0-.3-.1-.3-.3v-.3c0-.2.1-.3.3-.3"/><path id="Fill-128" class="st1" d="M-133.7-179.4h.3c.2 0 .3.1.3.3v.3c0 .2-.1.3-.3.3h-.3c-.2 0-.3-.1-.3-.3v-.3c0-.2.1-.3.3-.3"/><path id="Fill-129" class="st1" d="M-132.5-179.4h.3c.2 0 .3.1.3.3v.3c0 .2-.1.3-.3.3h-.3c-.2 0-.3-.1-.3-.3v-.3c0-.2.2-.3.3-.3"/><path id="Fill-130" class="st1" d="M-131.2-179.4h.3c.2 0 .3.1.3.3v.3c0 .2-.1.3-.3.3h-.3c-.2 0-.3-.1-.3-.3v-.3c0-.2.1-.3.3-.3"/><path id="Fill-131" class="st1" d="M-130-179.4h.3c.2 0 .3.1.3.3v.3c0 .2-.1.3-.3.3h-.3c-.2 0-.3-.1-.3-.3v-.3c0-.2.2-.3.3-.3"/><path id="Fill-132" class="st1" d="M-128.7-179.4h.3c.2 0 .3.1.3.3v.3c0 .2-.1.3-.3.3h-.3c-.2 0-.3-.1-.3-.3v-.3c0-.2.1-.3.3-.3"/><path id="Fill-133" class="st1" d="M-123.8-179.4h.3c.2 0 .3.1.3.3v.3c0 .2-.1.3-.3.3h-.3c-.2 0-.3-.1-.3-.3v-.3c0-.2.2-.3.3-.3"/><path id="Fill-134" class="st1" d="M-127.5-179.4h.3c.2 0 .3.1.3.3v.3c0 .2-.1.3-.3.3h-.3c-.2 0-.3-.1-.3-.3v-.3c0-.2.1-.3.3-.3"/><path id="Fill-135" class="st1" d="M-126.3-179.4h.3c.2 0 .3.1.3.3v.3c0 .2-.1.3-.3.3h-.3c-.2 0-.3-.1-.3-.3v-.3c0-.2.2-.3.3-.3"/><path id="Fill-136" class="st1" d="M-125-179.4h.3c.2 0 .3.1.3.3v.3c0 .2-.1.3-.3.3h-.3c-.2 0-.3-.1-.3-.3v-.3c0-.2.1-.3.3-.3"/><path id="Fill-137" class="st1" d="M-138.7-178.2h.3c.2 0 .3.1.3.3v.3c0 .2-.1.3-.3.3h-.3c-.2 0-.3-.1-.3-.3v-.3c0-.1.2-.3.3-.3"/><path id="Fill-138" class="st1" d="M-137.4-178.2h.3c.2 0 .3.1.3.3v.3c0 .2-.1.3-.3.3h-.3c-.2 0-.3-.1-.3-.3v-.3c0-.1.1-.3.3-.3"/><path id="Fill-139" class="st1" d="M-136.2-178.2h.3c.2 0 .3.1.3.3v.3c0 .2-.1.3-.3.3h-.3c-.2 0-.3-.1-.3-.3v-.3c0-.1.2-.3.3-.3"/><path id="Fill-140" class="st1" d="M-134.9-178.2h.3c.2 0 .3.1.3.3v.3c0 .2-.1.3-.3.3h-.3c-.2 0-.3-.1-.3-.3v-.3c0-.1.1-.3.3-.3"/><path id="Fill-141" class="st1" d="M-133.7-178.2h.3c.2 0 .3.1.3.3v.3c0 .2-.1.3-.3.3h-.3c-.2 0-.3-.1-.3-.3v-.3c0-.1.1-.3.3-.3"/><path id="Fill-142" class="st1" d="M-132.5-178.2h.3c.2 0 .3.1.3.3v.3c0 .2-.1.3-.3.3h-.3c-.2 0-.3-.1-.3-.3v-.3c0-.1.2-.3.3-.3"/><path id="Fill-143" class="st1" d="M-131.2-178.2h.3c.2 0 .3.1.3.3v.3c0 .2-.1.3-.3.3h-.3c-.2 0-.3-.1-.3-.3v-.3c0-.1.1-.3.3-.3"/><path id="Fill-144" class="st1" d="M-130-178.2h.3c.2 0 .3.1.3.3v.3c0 .2-.1.3-.3.3h-.3c-.2 0-.3-.1-.3-.3v-.3c0-.1.2-.3.3-.3"/><path id="Fill-145" class="st1" d="M-128.7-178.2h.3c.2 0 .3.1.3.3v.3c0 .2-.1.3-.3.3h-.3c-.2 0-.3-.1-.3-.3v-.3c0-.1.1-.3.3-.3"/><path id="Fill-146" class="st1" d="M-123.8-178.2h.3c.2 0 .3.1.3.3v.3c0 .2-.1.3-.3.3h-.3c-.2 0-.3-.1-.3-.3v-.3c0-.1.2-.3.3-.3"/><path id="Fill-147" class="st1" d="M-127.5-178.2h.3c.2 0 .3.1.3.3v.3c0 .2-.1.3-.3.3h-.3c-.2 0-.3-.1-.3-.3v-.3c0-.1.1-.3.3-.3"/><path id="Fill-148" class="st1" d="M-126.3-178.2h.3c.2 0 .3.1.3.3v.3c0 .2-.1.3-.3.3h-.3c-.2 0-.3-.1-.3-.3v-.3c0-.1.2-.3.3-.3"/><path id="Fill-149" class="st1" d="M-125-178.2h.3c.2 0 .3.1.3.3v.3c0 .2-.1.3-.3.3h-.3c-.2 0-.3-.1-.3-.3v-.3c0-.1.1-.3.3-.3"/><path id="Fill-150" class="st1" d="M-122.5-178.2h.3c.2 0 .3.1.3.3v.3c0 .2-.1.3-.3.3h-.3c-.2 0-.3-.1-.3-.3v-.3c0-.1.1-.3.3-.3"/><path id="Fill-151" class="st1" d="M-121.3-178.2h.3c.2 0 .3.1.3.3v.3c0 .2-.1.3-.3.3h-.3c-.2 0-.3-.1-.3-.3v-.3c0-.1.1-.3.3-.3"/><path id="Fill-152" class="st1" d="M-120.1-178.2h.3c.2 0 .3.1.3.3v.3c0 .2-.1.3-.3.3h-.3c-.2 0-.3-.1-.3-.3v-.3c0-.1.2-.3.3-.3"/><path id="Fill-153" class="st1" d="M-142.4-176.9h.3c.2 0 .3.1.3.3v.3c0 .2-.1.3-.3.3h-.3c-.2 0-.3-.1-.3-.3v-.3c0-.2.2-.3.3-.3"/><path id="Fill-154" class="st1" d="M-141.1-176.9h.3c.2 0 .3.1.3.3v.3c0 .2-.1.3-.3.3h-.3c-.2 0-.3-.1-.3-.3v-.3c0-.2.1-.3.3-.3"/><path id="Fill-155" class="st1" d="M-139.9-176.9h.3c.2 0 .3.1.3.3v.3c0 .2-.1.3-.3.3h-.3c-.2 0-.3-.1-.3-.3v-.3c0-.2.1-.3.3-.3"/><path id="Fill-156" class="st1" d="M-138.7-176.9h.3c.2 0 .3.1.3.3v.3c0 .2-.1.3-.3.3h-.3c-.2 0-.3-.1-.3-.3v-.3c0-.2.2-.3.3-.3"/><path id="Fill-157" class="st1" d="M-137.4-176.9h.3c.2 0 .3.1.3.3v.3c0 .2-.1.3-.3.3h-.3c-.2 0-.3-.1-.3-.3v-.3c0-.2.1-.3.3-.3"/><path id="Fill-158" class="st1" d="M-136.2-176.9h.3c.2 0 .3.1.3.3v.3c0 .2-.1.3-.3.3h-.3c-.2 0-.3-.1-.3-.3v-.3c0-.2.2-.3.3-.3"/><path id="Fill-159" class="st1" d="M-134.9-176.9h.3c.2 0 .3.1.3.3v.3c0 .2-.1.3-.3.3h-.3c-.2 0-.3-.1-.3-.3v-.3c0-.2.1-.3.3-.3"/><path id="Fill-160" class="st1" d="M-133.7-176.9h.3c.2 0 .3.1.3.3v.3c0 .2-.1.3-.3.3h-.3c-.2 0-.3-.1-.3-.3v-.3c0-.2.1-.3.3-.3"/><path id="Fill-161" class="st1" d="M-132.5-176.9h.3c.2 0 .3.1.3.3v.3c0 .2-.1.3-.3.3h-.3c-.2 0-.3-.1-.3-.3v-.3c0-.2.2-.3.3-.3"/><path id="Fill-162" class="st1" d="M-127.5-176.9h.3c.2 0 .3.1.3.3v.3c0 .2-.1.3-.3.3h-.3c-.2 0-.3-.1-.3-.3v-.3c0-.2.1-.3.3-.3"/><path id="Fill-163" class="st1" d="M-131.2-176.9h.3c.2 0 .3.1.3.3v.3c0 .2-.1.3-.3.3h-.3c-.2 0-.3-.1-.3-.3v-.3c0-.2.1-.3.3-.3"/><path id="Fill-164" class="st1" d="M-130-176.9h.3c.2 0 .3.1.3.3v.3c0 .2-.1.3-.3.3h-.3c-.2 0-.3-.1-.3-.3v-.3c0-.2.2-.3.3-.3"/><path id="Fill-165" class="st1" d="M-128.7-176.9h.3c.2 0 .3.1.3.3v.3c0 .2-.1.3-.3.3h-.3c-.2 0-.3-.1-.3-.3v-.3c0-.2.1-.3.3-.3"/><path id="Fill-166" class="st1" d="M-126.3-176.9h.3c.2 0 .3.1.3.3v.3c0 .2-.1.3-.3.3h-.3c-.2 0-.3-.1-.3-.3v-.3c0-.2.2-.3.3-.3"/><path id="Fill-167" class="st1" d="M-125-176.9h.3c.2 0 .3.1.3.3v.3c0 .2-.1.3-.3.3h-.3c-.2 0-.3-.1-.3-.3v-.3c0-.2.1-.3.3-.3"/><path id="Fill-168" class="st1" d="M-123.8-176.9h.3c.2 0 .3.1.3.3v.3c0 .2-.1.3-.3.3h-.3c-.2 0-.3-.1-.3-.3v-.3c0-.2.2-.3.3-.3"/><path id="Fill-169" class="st1" d="M-120.1-176.9h.3c.2 0 .3.1.3.3v.3c0 .2-.1.3-.3.3h-.3c-.2 0-.3-.1-.3-.3v-.3c0-.2.2-.3.3-.3"/><path id="Fill-170" class="st1" d="M-122.5-176.9h.3c.2 0 .3.1.3.3v.3c0 .2-.1.3-.3.3h-.3c-.2 0-.3-.1-.3-.3v-.3c0-.2.1-.3.3-.3"/><path id="Fill-171" class="st1" d="M-121.3-176.9h.3c.2 0 .3.1.3.3v.3c0 .2-.1.3-.3.3h-.3c-.2 0-.3-.1-.3-.3v-.3c0-.2.1-.3.3-.3"/><path id="Fill-172" class="st1" d="M-118.8-176.9h.3c.2 0 .3.1.3.3v.3c0 .2-.1.3-.3.3h-.3c-.2 0-.3-.1-.3-.3v-.3c0-.2.1-.3.3-.3"/><path id="Fill-173" class="st1" d="M-117.6-176.9h.3c.2 0 .3.1.3.3v.3c0 .2-.1.3-.3.3h-.3c-.2 0-.3-.1-.3-.3v-.3c0-.2.2-.3.3-.3"/><path id="Fill-174" class="st1" d="M-142.4-175.7h.3c.2 0 .3.1.3.3v.3c0 .2-.1.3-.3.3h-.3c-.2 0-.3-.1-.3-.3v-.3c0-.2.2-.3.3-.3"/><path id="Fill-175" class="st1" d="M-141.1-172h.3c.2 0 .3.1.3.3v.3c0 .2-.1.3-.3.3h-.3c-.2 0-.3-.1-.3-.3v-.3c0-.1.1-.3.3-.3"/><path id="Fill-176" class="st1" d="M-139.9-172h.3c.2 0 .3.1.3.3v.3c0 .2-.1.3-.3.3h-.3c-.2 0-.3-.1-.3-.3v-.3c0-.1.1-.3.3-.3"/><path id="Fill-177" class="st1" d="M-138.7-169.5h.3c.2 0 .3.1.3.3v.3c0 .2-.1.3-.3.3h-.3c-.2 0-.3-.1-.3-.3v-.3c0-.2.2-.3.3-.3"/><path id="Fill-178" class="st1" d="M-137.4-169.5h.3c.2 0 .3.1.3.3v.3c0 .2-.1.3-.3.3h-.3c-.2 0-.3-.1-.3-.3v-.3c0-.2.1-.3.3-.3"/><path id="Fill-179" class="st1" d="M-143.6-174.4h.3c.2 0 .3.1.3.3v.3c0 .2-.1.3-.3.3h-.3c-.2 0-.3-.1-.3-.3v-.3c0-.2.1-.3.3-.3"/><path id="Fill-180" class="st1" d="M-142.4-174.4h.3c.2 0 .3.1.3.3v.3c0 .2-.1.3-.3.3h-.3c-.2 0-.3-.1-.3-.3v-.3c0-.2.2-.3.3-.3"/><path id="Fill-181" class="st1" d="M-142.4-173.2h.3c.2 0 .3.1.3.3v.3c0 .2-.1.3-.3.3h-.3c-.2 0-.3-.1-.3-.3v-.3c0-.2.2-.3.3-.3"/><path id="Fill-182" class="st1" d="M-141.1-173.2h.3c.2 0 .3.1.3.3v.3c0 .2-.1.3-.3.3h-.3c-.2 0-.3-.1-.3-.3v-.3c0-.2.1-.3.3-.3"/><path id="Fill-183" class="st1" d="M-139.9-173.2h.3c.2 0 .3.1.3.3v.3c0 .2-.1.3-.3.3h-.3c-.2 0-.3-.1-.3-.3v-.3c0-.2.1-.3.3-.3"/><path id="Fill-184" class="st1" d="M-141.1-170.7h.3c.2 0 .3.1.3.3v.3c0 .2-.1.3-.3.3h-.3c-.2 0-.3-.1-.3-.3v-.3c0-.2.1-.3.3-.3"/><path id="Fill-185" class="st1" d="M-139.9-170.7h.3c.2 0 .3.1.3.3v.3c0 .2-.1.3-.3.3h-.3c-.2 0-.3-.1-.3-.3v-.3c0-.2.1-.3.3-.3"/><path id="Fill-186" class="st1" d="M-138.7-170.7h.3c.2 0 .3.1.3.3v.3c0 .2-.1.3-.3.3h-.3c-.2 0-.3-.1-.3-.3v-.3c0-.2.2-.3.3-.3"/><path id="Fill-187" class="st1" d="M-139.9-174.4h.3c.2 0 .3.1.3.3v.3c0 .2-.1.3-.3.3h-.3c-.2 0-.3-.1-.3-.3v-.3c0-.2.1-.3.3-.3"/><path id="Fill-188" class="st1" d="M-138.7-174.4h.3c.2 0 .3.1.3.3v.3c0 .2-.1.3-.3.3h-.3c-.2 0-.3-.1-.3-.3v-.3c0-.2.2-.3.3-.3"/><path id="Fill-189" class="st1" d="M-137.4-174.4h.3c.2 0 .3.1.3.3v.3c0 .2-.1.3-.3.3h-.3c-.2 0-.3-.1-.3-.3v-.3c0-.2.1-.3.3-.3"/><path id="Fill-190" class="st1" d="M-139.9-175.7h.3c.2 0 .3.1.3.3v.3c0 .2-.1.3-.3.3h-.3c-.2 0-.3-.1-.3-.3v-.3c0-.2.1-.3.3-.3"/><path id="Fill-191" class="st1" d="M-138.7-175.7h.3c.2 0 .3.1.3.3v.3c0 .2-.1.3-.3.3h-.3c-.2 0-.3-.1-.3-.3v-.3c0-.2.2-.3.3-.3"/><path id="Fill-192" class="st1" d="M-137.4-175.7h.3c.2 0 .3.1.3.3v.3c0 .2-.1.3-.3.3h-.3c-.2 0-.3-.1-.3-.3v-.3c0-.2.1-.3.3-.3"/><path id="Fill-193" class="st1" d="M-136.2-175.7h.3c.2 0 .3.1.3.3v.3c0 .2-.1.3-.3.3h-.3c-.2 0-.3-.1-.3-.3v-.3c0-.2.2-.3.3-.3"/><path id="Fill-194" class="st1" d="M-134.9-175.7h.3c.2 0 .3.1.3.3v.3c0 .2-.1.3-.3.3h-.3c-.2 0-.3-.1-.3-.3v-.3c0-.2.1-.3.3-.3"/><path id="Fill-195" class="st1" d="M-133.7-175.7h.3c.2 0 .3.1.3.3v.3c0 .2-.1.3-.3.3h-.3c-.2 0-.3-.1-.3-.3v-.3c0-.2.1-.3.3-.3"/><path id="Fill-196" class="st1" d="M-132.5-175.7h.3c.2 0 .3.1.3.3v.3c0 .2-.1.3-.3.3h-.3c-.2 0-.3-.1-.3-.3v-.3c0-.2.2-.3.3-.3"/><path id="Fill-197" class="st1" d="M-131.2-175.7h.3c.2 0 .3.1.3.3v.3c0 .2-.1.3-.3.3h-.3c-.2 0-.3-.1-.3-.3v-.3c0-.2.1-.3.3-.3"/><path id="Fill-198" class="st1" d="M-130-175.7h.3c.2 0 .3.1.3.3v.3c0 .2-.1.3-.3.3h-.3c-.2 0-.3-.1-.3-.3v-.3c0-.2.2-.3.3-.3"/><path id="Fill-199" class="st1" d="M-125-175.7h.3c.2 0 .3.1.3.3v.3c0 .2-.1.3-.3.3h-.3c-.2 0-.3-.1-.3-.3v-.3c0-.2.1-.3.3-.3"/><path id="Fill-200" class="st1" d="M-128.7-175.7h.3c.2 0 .3.1.3.3v.3c0 .2-.1.3-.3.3h-.3c-.2 0-.3-.1-.3-.3v-.3c0-.2.1-.3.3-.3"/><path id="Fill-201" class="st1" d="M-127.5-175.7h.3c.2 0 .3.1.3.3v.3c0 .2-.1.3-.3.3h-.3c-.2 0-.3-.1-.3-.3v-.3c0-.2.1-.3.3-.3"/><path id="Fill-202" class="st1" d="M-126.3-175.7h.3c.2 0 .3.1.3.3v.3c0 .2-.1.3-.3.3h-.3c-.2 0-.3-.1-.3-.3v-.3c0-.2.2-.3.3-.3"/><path id="Fill-203" class="st1" d="M-123.8-175.7h.3c.2 0 .3.1.3.3v.3c0 .2-.1.3-.3.3h-.3c-.2 0-.3-.1-.3-.3v-.3c0-.2.2-.3.3-.3"/><path id="Fill-204" class="st1" d="M-122.5-175.7h.3c.2 0 .3.1.3.3v.3c0 .2-.1.3-.3.3h-.3c-.2 0-.3-.1-.3-.3v-.3c0-.2.1-.3.3-.3"/><path id="Fill-205" class="st1" d="M-121.3-175.7h.3c.2 0 .3.1.3.3v.3c0 .2-.1.3-.3.3h-.3c-.2 0-.3-.1-.3-.3v-.3c0-.2.1-.3.3-.3"/><path id="Fill-206" class="st1" d="M-117.6-175.7h.3c.2 0 .3.1.3.3v.3c0 .2-.1.3-.3.3h-.3c-.2 0-.3-.1-.3-.3v-.3c0-.2.2-.3.3-.3"/><path id="Fill-207" class="st1" d="M-120.1-175.7h.3c.2 0 .3.1.3.3v.3c0 .2-.1.3-.3.3h-.3c-.2 0-.3-.1-.3-.3v-.3c0-.2.2-.3.3-.3"/><path id="Fill-208" class="st1" d="M-118.8-175.7h.3c.2 0 .3.1.3.3v.3c0 .2-.1.3-.3.3h-.3c-.2 0-.3-.1-.3-.3v-.3c0-.2.1-.3.3-.3"/><path id="Fill-209" class="st1" d="M-116.3-175.7h.3c.2 0 .3.1.3.3v.3c0 .2-.1.3-.3.3h-.3c-.2 0-.3-.1-.3-.3v-.3c0-.2.1-.3.3-.3"/><path id="Fill-210" class="st1" d="M-115.1-175.7h.3c.2 0 .3.1.3.3v.3c0 .2-.1.3-.3.3h-.3c-.2 0-.3-.1-.3-.3v-.3c0-.2.1-.3.3-.3"/><path id="Fill-211" class="st1" d="M-113.9-175.7h.3c.2 0 .3.1.3.3v.3c0 .2-.1.3-.3.3h-.3c-.2 0-.3-.1-.3-.3v-.3c0-.2.2-.3.3-.3"/><path id="Fill-212" class="st1" d="M-134.9-174.4h.3c.2 0 .3.1.3.3v.3c0 .2-.1.3-.3.3h-.3c-.2 0-.3-.1-.3-.3v-.3c0-.2.1-.3.3-.3"/><path id="Fill-213" class="st1" d="M-133.7-174.4h.3c.2 0 .3.1.3.3v.3c0 .2-.1.3-.3.3h-.3c-.2 0-.3-.1-.3-.3v-.3c0-.2.1-.3.3-.3"/><path id="Fill-214" class="st1" d="M-132.5-174.4h.3c.2 0 .3.1.3.3v.3c0 .2-.1.3-.3.3h-.3c-.2 0-.3-.1-.3-.3v-.3c0-.2.2-.3.3-.3"/><path id="Fill-215" class="st1" d="M-131.2-174.4h.3c.2 0 .3.1.3.3v.3c0 .2-.1.3-.3.3h-.3c-.2 0-.3-.1-.3-.3v-.3c0-.2.1-.3.3-.3"/><path id="Fill-216" class="st1" d="M-130-174.4h.3c.2 0 .3.1.3.3v.3c0 .2-.1.3-.3.3h-.3c-.2 0-.3-.1-.3-.3v-.3c0-.2.2-.3.3-.3"/><path id="Fill-217" class="st1" d="M-128.7-174.4h.3c.2 0 .3.1.3.3v.3c0 .2-.1.3-.3.3h-.3c-.2 0-.3-.1-.3-.3v-.3c0-.2.1-.3.3-.3"/><path id="Fill-218" class="st1" d="M-127.5-174.4h.3c.2 0 .3.1.3.3v.3c0 .2-.1.3-.3.3h-.3c-.2 0-.3-.1-.3-.3v-.3c0-.2.1-.3.3-.3"/><path id="Fill-219" class="st1" d="M-126.3-174.4h.3c.2 0 .3.1.3.3v.3c0 .2-.1.3-.3.3h-.3c-.2 0-.3-.1-.3-.3v-.3c0-.2.2-.3.3-.3"/><path id="Fill-220" class="st1" d="M-125-174.4h.3c.2 0 .3.1.3.3v.3c0 .2-.1.3-.3.3h-.3c-.2 0-.3-.1-.3-.3v-.3c0-.2.1-.3.3-.3"/><path id="Fill-221" class="st1" d="M-120.1-174.4h.3c.2 0 .3.1.3.3v.3c0 .2-.1.3-.3.3h-.3c-.2 0-.3-.1-.3-.3v-.3c0-.2.2-.3.3-.3"/><path id="Fill-222" class="st1" d="M-123.8-174.4h.3c.2 0 .3.1.3.3v.3c0 .2-.1.3-.3.3h-.3c-.2 0-.3-.1-.3-.3v-.3c0-.2.2-.3.3-.3"/><path id="Fill-223" class="st1" d="M-122.5-174.4h.3c.2 0 .3.1.3.3v.3c0 .2-.1.3-.3.3h-.3c-.2 0-.3-.1-.3-.3v-.3c0-.2.1-.3.3-.3"/><path id="Fill-224" class="st1" d="M-121.3-174.4h.3c.2 0 .3.1.3.3v.3c0 .2-.1.3-.3.3h-.3c-.2 0-.3-.1-.3-.3v-.3c0-.2.1-.3.3-.3"/><path id="Fill-225" class="st1" d="M-118.8-174.4h.3c.2 0 .3.1.3.3v.3c0 .2-.1.3-.3.3h-.3c-.2 0-.3-.1-.3-.3v-.3c0-.2.1-.3.3-.3"/><path id="Fill-226" class="st1" d="M-117.6-174.4h.3c.2 0 .3.1.3.3v.3c0 .2-.1.3-.3.3h-.3c-.2 0-.3-.1-.3-.3v-.3c0-.2.2-.3.3-.3"/><path id="Fill-227" class="st1" d="M-116.3-174.4h.3c.2 0 .3.1.3.3v.3c0 .2-.1.3-.3.3h-.3c-.2 0-.3-.1-.3-.3v-.3c0-.2.1-.3.3-.3"/><path id="Fill-228" class="st1" d="M-131.2-173.2h.3c.2 0 .3.1.3.3v.3c0 .2-.1.3-.3.3h-.3c-.2 0-.3-.1-.3-.3v-.3c0-.2.1-.3.3-.3"/><path id="Fill-229" class="st1" d="M-130-173.2h.3c.2 0 .3.1.3.3v.3c0 .2-.1.3-.3.3h-.3c-.2 0-.3-.1-.3-.3v-.3c0-.2.2-.3.3-.3"/><path id="Fill-230" class="st1" d="M-128.7-173.2h.3c.2 0 .3.1.3.3v.3c0 .2-.1.3-.3.3h-.3c-.2 0-.3-.1-.3-.3v-.3c0-.2.1-.3.3-.3"/><path id="Fill-231" class="st1" d="M-127.5-173.2h.3c.2 0 .3.1.3.3v.3c0 .2-.1.3-.3.3h-.3c-.2 0-.3-.1-.3-.3v-.3c0-.2.1-.3.3-.3"/><path id="Fill-232" class="st1" d="M-126.3-173.2h.3c.2 0 .3.1.3.3v.3c0 .2-.1.3-.3.3h-.3c-.2 0-.3-.1-.3-.3v-.3c0-.2.2-.3.3-.3"/><path id="Fill-233" class="st1" d="M-125-173.2h.3c.2 0 .3.1.3.3v.3c0 .2-.1.3-.3.3h-.3c-.2 0-.3-.1-.3-.3v-.3c0-.2.1-.3.3-.3"/><path id="Fill-234" class="st1" d="M-123.8-173.2h.3c.2 0 .3.1.3.3v.3c0 .2-.1.3-.3.3h-.3c-.2 0-.3-.1-.3-.3v-.3c0-.2.2-.3.3-.3"/><path id="Fill-235" class="st1" d="M-122.5-173.2h.3c.2 0 .3.1.3.3v.3c0 .2-.1.3-.3.3h-.3c-.2 0-.3-.1-.3-.3v-.3c0-.2.1-.3.3-.3"/><path id="Fill-236" class="st1" d="M-121.3-173.2h.3c.2 0 .3.1.3.3v.3c0 .2-.1.3-.3.3h-.3c-.2 0-.3-.1-.3-.3v-.3c0-.2.1-.3.3-.3"/><path id="Fill-237" class="st1" d="M-116.3-173.2h.3c.2 0 .3.1.3.3v.3c0 .2-.1.3-.3.3h-.3c-.2 0-.3-.1-.3-.3v-.3c0-.2.1-.3.3-.3"/><path id="Fill-238" class="st1" d="M-120.1-173.2h.3c.2 0 .3.1.3.3v.3c0 .2-.1.3-.3.3h-.3c-.2 0-.3-.1-.3-.3v-.3c0-.2.2-.3.3-.3"/><path id="Fill-239" class="st1" d="M-118.8-173.2h.3c.2 0 .3.1.3.3v.3c0 .2-.1.3-.3.3h-.3c-.2 0-.3-.1-.3-.3v-.3c0-.2.1-.3.3-.3"/><path id="Fill-240" class="st1" d="M-117.6-173.2h.3c.2 0 .3.1.3.3v.3c0 .2-.1.3-.3.3h-.3c-.2 0-.3-.1-.3-.3v-.3c0-.2.2-.3.3-.3"/><path id="Fill-241" class="st1" d="M-113.9-173.2h.3c.2 0 .3.1.3.3v.3c0 .2-.1.3-.3.3h-.3c-.2 0-.3-.1-.3-.3v-.3c0-.2.2-.3.3-.3"/><path id="Fill-242" class="st1" d="M-112.6-173.2h.3c.2 0 .3.1.3.3v.3c0 .2-.1.3-.3.3h-.3c-.2 0-.3-.1-.3-.3v-.3c0-.2.1-.3.3-.3"/><path id="Fill-243" class="st1" d="M-126.3-172h.3c.2 0 .3.1.3.3v.3c0 .2-.1.3-.3.3h-.3c-.2 0-.3-.1-.3-.3v-.3c0-.1.2-.3.3-.3"/><path id="Fill-244" class="st1" d="M-125-172h.3c.2 0 .3.1.3.3v.3c0 .2-.1.3-.3.3h-.3c-.2 0-.3-.1-.3-.3v-.3c0-.1.1-.3.3-.3"/><path id="Fill-245" class="st1" d="M-123.8-172h.3c.2 0 .3.1.3.3v.3c0 .2-.1.3-.3.3h-.3c-.2 0-.3-.1-.3-.3v-.3c0-.1.2-.3.3-.3"/><path id="Fill-246" class="st1" d="M-122.5-172h.3c.2 0 .3.1.3.3v.3c0 .2-.1.3-.3.3h-.3c-.2 0-.3-.1-.3-.3v-.3c0-.1.1-.3.3-.3"/><path id="Fill-247" class="st1" d="M-121.3-172h.3c.2 0 .3.1.3.3v.3c0 .2-.1.3-.3.3h-.3c-.2 0-.3-.1-.3-.3v-.3c0-.1.1-.3.3-.3"/><path id="Fill-248" class="st1" d="M-120.1-172h.3c.2 0 .3.1.3.3v.3c0 .2-.1.3-.3.3h-.3c-.2 0-.3-.1-.3-.3v-.3c0-.1.2-.3.3-.3"/><path id="Fill-249" class="st1" d="M-118.8-172h.3c.2 0 .3.1.3.3v.3c0 .2-.1.3-.3.3h-.3c-.2 0-.3-.1-.3-.3v-.3c0-.1.1-.3.3-.3"/><path id="Fill-250" class="st1" d="M-117.6-172h.3c.2 0 .3.1.3.3v.3c0 .2-.1.3-.3.3h-.3c-.2 0-.3-.1-.3-.3v-.3c0-.1.2-.3.3-.3"/><path id="Fill-251" class="st1" d="M-116.3-172h.3c.2 0 .3.1.3.3v.3c0 .2-.1.3-.3.3h-.3c-.2 0-.3-.1-.3-.3v-.3c0-.1.1-.3.3-.3"/><path id="Fill-252" class="st1" d="M-111.4-172h.3c.2 0 .3.1.3.3v.3c0 .2-.1.3-.3.3h-.3c-.2 0-.3-.1-.3-.3v-.3c0-.1.2-.3.3-.3"/><path id="Fill-253" class="st1" d="M-113.9-172h.3c.2 0 .3.1.3.3v.3c0 .2-.1.3-.3.3h-.3c-.2 0-.3-.1-.3-.3v-.3c0-.1.2-.3.3-.3"/><path id="Fill-254" class="st1" d="M-112.6-172h.3c.2 0 .3.1.3.3v.3c0 .2-.1.3-.3.3h-.3c-.2 0-.3-.1-.3-.3v-.3c0-.1.1-.3.3-.3"/><path id="Fill-255" class="st1" d="M-113.9-170.7h.3c.2 0 .3.1.3.3v.3c0 .2-.1.3-.3.3h-.3c-.2 0-.3-.1-.3-.3v-.3c0-.2.2-.3.3-.3"/><path id="Fill-256" class="st1" d="M-113.9-174.4h.3c.2 0 .3.1.3.3v.3c0 .2-.1.3-.3.3h-.3c-.2 0-.3-.1-.3-.3v-.3c0-.2.2-.3.3-.3"/><path id="Fill-257" class="st1" d="M-112.6-174.4h.3c.2 0 .3.1.3.3v.3c0 .2-.1.3-.3.3h-.3c-.2 0-.3-.1-.3-.3v-.3c0-.2.1-.3.3-.3"/><path id="Fill-258" class="st1" d="M-123.8-170.7h.3c.2 0 .3.1.3.3v.3c0 .2-.1.3-.3.3h-.3c-.2 0-.3-.1-.3-.3v-.3c0-.2.2-.3.3-.3"/><path id="Fill-259" class="st1" d="M-122.5-170.7h.3c.2 0 .3.1.3.3v.3c0 .2-.1.3-.3.3h-.3c-.2 0-.3-.1-.3-.3v-.3c0-.2.1-.3.3-.3"/><path id="Fill-260" class="st1" d="M-121.3-170.7h.3c.2 0 .3.1.3.3v.3c0 .2-.1.3-.3.3h-.3c-.2 0-.3-.1-.3-.3v-.3c0-.2.1-.3.3-.3"/><path id="Fill-261" class="st1" d="M-120.1-170.7h.3c.2 0 .3.1.3.3v.3c0 .2-.1.3-.3.3h-.3c-.2 0-.3-.1-.3-.3v-.3c0-.2.2-.3.3-.3"/><path id="Fill-262" class="st1" d="M-118.8-170.7h.3c.2 0 .3.1.3.3v.3c0 .2-.1.3-.3.3h-.3c-.2 0-.3-.1-.3-.3v-.3c0-.2.1-.3.3-.3"/><path id="Fill-263" class="st1" d="M-117.6-170.7h.3c.2 0 .3.1.3.3v.3c0 .2-.1.3-.3.3h-.3c-.2 0-.3-.1-.3-.3v-.3c0-.2.2-.3.3-.3"/><path id="Fill-264" class="st1" d="M-116.3-170.7h.3c.2 0 .3.1.3.3v.3c0 .2-.1.3-.3.3h-.3c-.2 0-.3-.1-.3-.3v-.3c0-.2.1-.3.3-.3"/><path id="Fill-265" class="st1" d="M-112.6-169.5h.3c.2 0 .3.1.3.3v.3c0 .2-.1.3-.3.3h-.3c-.2 0-.3-.1-.3-.3v-.3c0-.2.1-.3.3-.3"/><path id="Fill-266" class="st1" d="M-112.6-170.7h.3c.2 0 .3.1.3.3v.3c0 .2-.1.3-.3.3h-.3c-.2 0-.3-.1-.3-.3v-.3c0-.2.1-.3.3-.3"/><path id="Fill-267" class="st1" d="M-111.4-170.7h.3c.2 0 .3.1.3.3v.3c0 .2-.1.3-.3.3h-.3c-.2 0-.3-.1-.3-.3v-.3c0-.2.2-.3.3-.3"/><path id="Fill-268" class="st1" d="M-113.9-169.5h.3c.2 0 .3.1.3.3v.3c0 .2-.1.3-.3.3h-.3c-.2 0-.3-.1-.3-.3v-.3c0-.2.2-.3.3-.3"/><path id="Fill-269" class="st1" d="M-111.4-169.5h.3c.2 0 .3.1.3.3v.3c0 .2-.1.3-.3.3h-.3c-.2 0-.3-.1-.3-.3v-.3c0-.2.2-.3.3-.3"/><path id="Fill-270" class="st1" d="M-110.1-169.5h.3c.2 0 .3.1.3.3v.3c0 .2-.1.3-.3.3h-.3c-.2 0-.3-.1-.3-.3v-.3c0-.2.1-.3.3-.3"/><path id="Fill-271" class="st1" d="M-110.1-165.8h.3c.2 0 .3.1.3.3v.3c0 .2-.1.3-.3.3h-.3c-.2 0-.3-.1-.3-.3v-.3c0-.1.1-.3.3-.3"/><path id="Fill-272" class="st1" d="M-111.4-168.2h.3c.2 0 .3.1.3.3v.3c0 .2-.1.3-.3.3h-.3c-.2 0-.3-.1-.3-.3v-.3c0-.2.2-.3.3-.3"/><path id="Fill-273" class="st1" d="M-112.6-168.2h.3c.2 0 .3.1.3.3v.3c0 .2-.1.3-.3.3h-.3c-.2 0-.3-.1-.3-.3v-.3c0-.2.1-.3.3-.3"/><path id="Fill-274" class="st1" d="M-110.1-168.2h.3c.2 0 .3.1.3.3v.3c0 .2-.1.3-.3.3h-.3c-.2 0-.3-.1-.3-.3v-.3c0-.2.1-.3.3-.3"/><path id="Fill-275" class="st1" d="M-110.1-167h.3c.2 0 .3.1.3.3v.3c0 .2-.1.3-.3.3h-.3c-.2 0-.3-.1-.3-.3v-.3c0-.2.1-.3.3-.3"/><path id="Fill-276" class="st1" d="M-111.4-167h.3c.2 0 .3.1.3.3v.3c0 .2-.1.3-.3.3h-.3c-.2 0-.3-.1-.3-.3v-.3c0-.2.2-.3.3-.3"/><path id="Fill-277" class="st1" d="M-108.9-167h.3c.2 0 .3.1.3.3v.3c0 .2-.1.3-.3.3h-.3c-.2 0-.3-.1-.3-.3v-.3c0-.2.1-.3.3-.3"/><path id="Fill-278" class="st1" d="M-123.8-169.5h.3c.2 0 .3.1.3.3v.3c0 .2-.1.3-.3.3h-.3c-.2 0-.3-.1-.3-.3v-.3c0-.2.2-.3.3-.3"/><path id="Fill-279" class="st1" d="M-122.5-169.5h.3c.2 0 .3.1.3.3v.3c0 .2-.1.3-.3.3h-.3c-.2 0-.3-.1-.3-.3v-.3c0-.2.1-.3.3-.3"/><path id="Fill-280" class="st1" d="M-121.3-169.5h.3c.2 0 .3.1.3.3v.3c0 .2-.1.3-.3.3h-.3c-.2 0-.3-.1-.3-.3v-.3c0-.2.1-.3.3-.3"/><path id="Fill-281" class="st1" d="M-120.1-169.5h.3c.2 0 .3.1.3.3v.3c0 .2-.1.3-.3.3h-.3c-.2 0-.3-.1-.3-.3v-.3c0-.2.2-.3.3-.3"/><path id="Fill-282" class="st1" d="M-118.8-169.5h.3c.2 0 .3.1.3.3v.3c0 .2-.1.3-.3.3h-.3c-.2 0-.3-.1-.3-.3v-.3c0-.2.1-.3.3-.3"/><path id="Fill-283" class="st1" d="M-117.6-169.5h.3c.2 0 .3.1.3.3v.3c0 .2-.1.3-.3.3h-.3c-.2 0-.3-.1-.3-.3v-.3c0-.2.2-.3.3-.3"/><path id="Fill-284" class="st1" d="M-122.5-168.2h.3c.2 0 .3.1.3.3v.3c0 .2-.1.3-.3.3h-.3c-.2 0-.3-.1-.3-.3v-.3c0-.2.1-.3.3-.3"/><path id="Fill-285" class="st1" d="M-121.3-168.2h.3c.2 0 .3.1.3.3v.3c0 .2-.1.3-.3.3h-.3c-.2 0-.3-.1-.3-.3v-.3c0-.2.1-.3.3-.3"/><path id="Fill-286" class="st1" d="M-120.1-168.2h.3c.2 0 .3.1.3.3v.3c0 .2-.1.3-.3.3h-.3c-.2 0-.3-.1-.3-.3v-.3c0-.2.2-.3.3-.3"/><path id="Fill-287" class="st1" d="M-118.8-168.2h.3c.2 0 .3.1.3.3v.3c0 .2-.1.3-.3.3h-.3c-.2 0-.3-.1-.3-.3v-.3c0-.2.1-.3.3-.3"/><path id="Fill-288" class="st1" d="M-117.6-168.2h.3c.2 0 .3.1.3.3v.3c0 .2-.1.3-.3.3h-.3c-.2 0-.3-.1-.3-.3v-.3c0-.2.2-.3.3-.3"/><path id="Fill-289" class="st1" d="M-121.3-167h.3c.2 0 .3.1.3.3v.3c0 .2-.1.3-.3.3h-.3c-.2 0-.3-.1-.3-.3v-.3c0-.2.1-.3.3-.3"/><path id="Fill-290" class="st1" d="M-120.1-167h.3c.2 0 .3.1.3.3v.3c0 .2-.1.3-.3.3h-.3c-.2 0-.3-.1-.3-.3v-.3c0-.2.2-.3.3-.3"/><path id="Fill-291" class="st1" d="M-118.8-167h.3c.2 0 .3.1.3.3v.3c0 .2-.1.3-.3.3h-.3c-.2 0-.3-.1-.3-.3v-.3c0-.2.1-.3.3-.3"/><path id="Fill-292" class="st1" d="M-117.6-167h.3c.2 0 .3.1.3.3v.3c0 .2-.1.3-.3.3h-.3c-.2 0-.3-.1-.3-.3v-.3c0-.2.2-.3.3-.3"/><path id="Fill-293" class="st1" d="M-116.3-167h.3c.2 0 .3.1.3.3v.3c0 .2-.1.3-.3.3h-.3c-.2 0-.3-.1-.3-.3v-.3c0-.2.1-.3.3-.3"/><path id="Fill-294" class="st1" d="M-121.3-165.8h.3c.2 0 .3.1.3.3v.3c0 .2-.1.3-.3.3h-.3c-.2 0-.3-.1-.3-.3v-.3c0-.1.1-.3.3-.3"/><path id="Fill-295" class="st1" d="M-120.1-165.8h.3c.2 0 .3.1.3.3v.3c0 .2-.1.3-.3.3h-.3c-.2 0-.3-.1-.3-.3v-.3c0-.1.2-.3.3-.3"/><path id="Fill-296" class="st1" d="M-116.3-160.8h.3c.2 0 .3.1.3.3v.3c0 .2-.1.3-.3.3h-.3c-.2 0-.3-.1-.3-.3v-.3c0-.2.1-.3.3-.3"/><path id="Fill-297" class="st1" d="M-116.3-162h.3c.2 0 .3.1.3.3v.3c0 .2-.1.3-.3.3h-.3c-.2 0-.3-.1-.3-.3v-.3c0-.2.1-.3.3-.3"/><path id="Fill-298" class="st1" d="M-116.3-165.8h.3c.2 0 .3.1.3.3v.3c0 .2-.1.3-.3.3h-.3c-.2 0-.3-.1-.3-.3v-.3c0-.1.1-.3.3-.3"/><path id="Fill-299" class="st1" d="M-121.3-164.5h.3c.2 0 .3.1.3.3v.3c0 .2-.1.3-.3.3h-.3c-.2 0-.3-.1-.3-.3v-.3c0-.2.1-.3.3-.3"/><path id="Fill-300" class="st1" d="M-120.1-164.5h.3c.2 0 .3.1.3.3v.3c0 .2-.1.3-.3.3h-.3c-.2 0-.3-.1-.3-.3v-.3c0-.2.2-.3.3-.3"/><path id="Fill-301" class="st1" d="M-117.6-158.3h.3c.2 0 .3.1.3.3v.3c0 .2-.1.3-.3.3h-.3c-.2 0-.3-.1-.3-.3v-.3c0-.2.2-.3.3-.3"/><path id="Fill-302" class="st1" d="M-117.6-159.6h.3c.2 0 .3.1.3.3v.3c0 .2-.1.3-.3.3h-.3c-.2 0-.3-.1-.3-.3v-.3c0-.1.2-.3.3-.3"/><path id="Fill-303" class="st1" d="M-116.3-164.5h.3c.2 0 .3.1.3.3v.3c0 .2-.1.3-.3.3h-.3c-.2 0-.3-.1-.3-.3v-.3c0-.2.1-.3.3-.3"/><path id="Fill-304" class="st1" d="M-122.5-163.3h.3c.2 0 .3.1.3.3v.3c0 .2-.1.3-.3.3h-.3c-.2 0-.3-.1-.3-.3v-.3c0-.2.1-.3.3-.3"/><path id="Fill-305" class="st1" d="M-121.3-163.3h.3c.2 0 .3.1.3.3v.3c0 .2-.1.3-.3.3h-.3c-.2 0-.3-.1-.3-.3v-.3c0-.2.1-.3.3-.3"/><path id="Fill-306" class="st1" d="M-117.6-164.5h.3c.2 0 .3.1.3.3v.3c0 .2-.1.3-.3.3h-.3c-.2 0-.3-.1-.3-.3v-.3c0-.2.2-.3.3-.3"/><path id="Fill-307" class="st1" d="M-117.6-165.8h.3c.2 0 .3.1.3.3v.3c0 .2-.1.3-.3.3h-.3c-.2 0-.3-.1-.3-.3v-.3c0-.1.2-.3.3-.3"/><path id="Fill-308" class="st1" d="M-116.3-163.3h.3c.2 0 .3.1.3.3v.3c0 .2-.1.3-.3.3h-.3c-.2 0-.3-.1-.3-.3v-.3c0-.2.1-.3.3-.3"/><path id="Fill-309" class="st1" d="M-123.8-162h.3c.2 0 .3.1.3.3v.3c0 .2-.1.3-.3.3h-.3c-.2 0-.3-.1-.3-.3v-.3c0-.2.2-.3.3-.3"/><path id="Fill-310" class="st1" d="M-122.5-162h.3c.2 0 .3.1.3.3v.3c0 .2-.1.3-.3.3h-.3c-.2 0-.3-.1-.3-.3v-.3c0-.2.1-.3.3-.3"/><path id="Fill-311" class="st1" d="M-118.8-159.6h.3c.2 0 .3.1.3.3v.3c0 .2-.1.3-.3.3h-.3c-.2 0-.3-.1-.3-.3v-.3c0-.1.1-.3.3-.3"/><path id="Fill-312" class="st1" d="M-117.6-162h.3c.2 0 .3.1.3.3v.3c0 .2-.1.3-.3.3h-.3c-.2 0-.3-.1-.3-.3v-.3c0-.2.2-.3.3-.3"/><path id="Fill-313" class="st1" d="M-117.6-163.3h.3c.2 0 .3.1.3.3v.3c0 .2-.1.3-.3.3h-.3c-.2 0-.3-.1-.3-.3v-.3c0-.2.2-.3.3-.3"/><path id="Fill-314" class="st1" d="M-117.6-160.8h.3c.2 0 .3.1.3.3v.3c0 .2-.1.3-.3.3h-.3c-.2 0-.3-.1-.3-.3v-.3c0-.2.2-.3.3-.3"/><path id="Fill-315" class="st1" d="M-125-160.8h.3c.2 0 .3.1.3.3v.3c0 .2-.1.3-.3.3h-.3c-.2 0-.3-.1-.3-.3v-.3c0-.2.1-.3.3-.3"/><path id="Fill-316" class="st1" d="M-123.8-160.8h.3c.2 0 .3.1.3.3v.3c0 .2-.1.3-.3.3h-.3c-.2 0-.3-.1-.3-.3v-.3c0-.2.2-.3.3-.3"/><path id="Fill-317" class="st1" d="M-125-159.6h.3c.2 0 .3.1.3.3v.3c0 .2-.1.3-.3.3h-.3c-.2 0-.3-.1-.3-.3v-.3c0-.1.1-.3.3-.3"/><path id="Fill-318" class="st1" d="M-123.8-159.6h.3c.2 0 .3.1.3.3v.3c0 .2-.1.3-.3.3h-.3c-.2 0-.3-.1-.3-.3v-.3c0-.1.2-.3.3-.3"/><path id="Fill-319" class="st1" d="M-126.3-158.3h.3c.2 0 .3.1.3.3v.3c0 .2-.1.3-.3.3h-.3c-.2 0-.3-.1-.3-.3v-.3c0-.2.2-.3.3-.3"/><path id="Fill-320" class="st1" d="M-125-158.3h.3c.2 0 .3.1.3.3v.3c0 .2-.1.3-.3.3h-.3c-.2 0-.3-.1-.3-.3v-.3c0-.2.1-.3.3-.3"/><path id="Fill-321" class="st1" d="M-118.8-158.3h.3c.2 0 .3.1.3.3v.3c0 .2-.1.3-.3.3h-.3c-.2 0-.3-.1-.3-.3v-.3c0-.2.1-.3.3-.3"/><path id="Fill-322" class="st1" d="M-128.7-184.4h.3c.2 0 .3.1.3.3v.3c0 .2-.1.3-.3.3h-.3c-.2 0-.3-.1-.3-.3v-.3c0-.1.1-.3.3-.3"/><path id="Fill-323" class="st1" d="M-127.5-181.9h.3c.2 0 .3.1.3.3v.3c0 .2-.1.3-.3.3h-.3c-.2 0-.3-.1-.3-.3v-.3c0-.2.1-.3.3-.3"/><path id="Fill-324" class="st1" d="M-126.3-180.6h.3c.2 0 .3.1.3.3v.3c0 .2-.1.3-.3.3h-.3c-.2 0-.3-.1-.3-.3v-.3c0-.2.2-.3.3-.3"/><path id="Fill-325" class="st1" d="M-139.9-178.2h.3c.2 0 .3.1.3.3v.3c0 .2-.1.3-.3.3h-.3c-.2 0-.3-.1-.3-.3v-.3c0-.1.1-.3.3-.3"/><path id="Fill-326" class="st1" d="M-143.6-175.7h.3c.2 0 .3.1.3.3v.3c0 .2-.1.3-.3.3h-.3c-.2 0-.3-.1-.3-.3v-.3c0-.2.1-.3.3-.3"/><path id="Fill-327" class="st1" d="M-141.1-178.2h.3c.2 0 .3.1.3.3v.3c0 .2-.1.3-.3.3h-.3c-.2 0-.3-.1-.3-.3v-.3c0-.1.1-.3.3-.3"/></g></g></svg>