<svg xmlns="http://www.w3.org/2000/svg" width="133" height="133" fill-rule="evenodd"><rect fill="#78aae5" width="133" height="133" rx="4"/><path d="M107.71 98.587c.355 0 .533.182.533.546v8.182c0 .358-.178.537-.533.537a.49.49 0 01-.362-.149.5.5 0 01-.148-.364v-.343h-.023a1.5 1.5 0 01-.547.59c-.266.172-.61.26-1.03.267a2.616 2.616 0 01-1.46-.4 2.691 2.691 0 01-.974-1.145 3.91 3.91 0 01-.36-1.666c-.004-.433.06-.856.194-1.27.266-.83.73-1.415 1.394-1.76a2.32 2.32 0 011.079-.253 2.02 2.02 0 011.706.869h.023v-3.1c0-.348.17-.522.5-.522zm-6.73 2.763c.347 0 .52.18.52.54v3.494c0 .976-.363 1.684-1.09 2.123-.38.23-.86.346-1.443.346-1.074 0-1.804-.412-2.2-1.235a2.879 2.879 0 01-.263-1.235v-3.494c0-.36.17-.54.5-.54.347 0 .52.18.52.538v3.466c0 1.054.482 1.582 1.446 1.582.987 0 1.48-.527 1.48-1.582v-3.466c0-.36.17-.538.5-.538zm-8.53 0c.542.004 1.03.155 1.46.454.418.29.743.687.975 1.194a3.85 3.85 0 01.336 1.607c0 1.27-.434 2.206-1.3 2.807-.42.293-.9.44-1.47.44-1.14 0-1.957-.545-2.447-1.634a3.852 3.852 0 01-.338-1.614c0-1.297.45-2.242 1.35-2.836.43-.283.908-.423 1.434-.42zm-4.597-2.763c.347 0 .52.175.52.524v8.18c0 .374-.174.562-.52.562-.34 0-.5-.187-.5-.562v-8.157c0-.365.17-.547.5-.547zm-3.472 2.763c.415-.006.782.053 1.102.176.305.12.502.257.593.414a.85.85 0 01.046.23c0 .27-.154.418-.463.443l-.608-.215c-.24-.08-.45-.118-.625-.118-.735 0-1.258.387-1.568 1.16a2.99 2.99 0 00-.232 1.085c-.01.556.113 1.087.367 1.592.245.488.664.765 1.256.83a.5.5 0 01.176.023c.197-.014.37-.05.524-.105l.15-.06.322-.143c.102-.05.2-.073.264-.073.26 0 .4.147.4.442 0 .312-.2.538-.63.68a3.219 3.219 0 01-1.018.142c-1.157 0-1.985-.515-2.484-1.546a3.643 3.643 0 01-.36-1.555c-.004-.43.05-.856.165-1.275.23-.86.69-1.47 1.38-1.83.372-.192.8-.29 1.252-.297zm21.207.917c-.75 0-1.265.406-1.544 1.22a3.457 3.457 0 00-.197 1.097c-.006.632.132 1.18.414 1.642s.692.7 1.232.71c.424.01.777-.105 1.06-.342.27-.226.463-.514.578-.865.122-.365.184-.74.188-1.123a3.074 3.074 0 00-.22-1.224c-.308-.743-.812-1.114-1.5-1.114zm-13.14 0c-.74 0-1.253.38-1.54 1.14a3.356 3.356 0 00-.203 1.198c0 .623.13 1.146.388 1.57.307.507.75.76 1.33.76.762 0 1.28-.386 1.553-1.158a3.59 3.59 0 00.2-1.172 3.3 3.3 0 00-.197-1.172c-.287-.778-.798-1.166-1.533-1.166zm8.802-22.455a.28.28 0 01.28.28v.32a.28.28 0 01-.28.28h-.32a.28.28 0 01-.28-.28v-.32a.28.28 0 01.28-.28h.32zm-8.403 0a.28.28 0 01.28.28v.32a.28.28 0 01-.28.28h-.32a.28.28 0 01-.28-.28v-.32a.28.28 0 01.28-.28h.32zm7.202 0a.28.28 0 01.28.28v.32a.28.28 0 01-.28.28h-.32a.28.28 0 01-.28-.28v-.32a.28.28 0 01.28-.28h.32zm-6.002 0a.28.28 0 01.28.28v.32a.28.28 0 01-.28.28h-.32a.28.28 0 01-.28-.28v-.32a.28.28 0 01.28-.28h.32zm0-1.2a.28.28 0 01.28.28v.32a.28.28 0 01-.28.28h-.32a.28.28 0 01-.28-.28v-.32a.28.28 0 01.28-.28h.32zm6.002 0a.28.28 0 01.28.28v.32a.28.28 0 01-.28.28h-.32a.28.28 0 01-.28-.28v-.32a.28.28 0 01.28-.28h.32zm1.2 0a.28.28 0 01.28.28v.32a.28.28 0 01-.28.28h-.32a.28.28 0 01-.28-.28v-.32a.28.28 0 01.28-.28h.32zm-6.002 0a.28.28 0 01.28.28v.32a.28.28 0 01-.28.28h-.32a.28.28 0 01-.28-.28v-.32a.28.28 0 01.28-.28h.32zm-1.2-1.2a.28.28 0 01.28.28v.32a.28.28 0 01-.28.28h-.32a.28.28 0 01-.28-.28v-.32a.28.28 0 01.28-.28h.32zm1.2 0a.28.28 0 01.28.28v.32a.28.28 0 01-.28.28h-.32a.28.28 0 01-.28-.28v-.32a.28.28 0 01.28-.28h.32zm7.202 0a.28.28 0 01.28.28v.32a.28.28 0 01-.28.28h-.32a.28.28 0 01-.28-.28v-.32a.28.28 0 01.28-.28h.32zm-1.2 0a.28.28 0 01.28.28v.32a.28.28 0 01-.28.28h-.32a.28.28 0 01-.28-.28v-.32a.28.28 0 01.28-.28h.32zm-22.74-35.616a1.05 1.05 0 01-1.302 1.65c-4.64-3.66-9.68-4.195-14.985-1.593-5.508 2.7-8.247 7.393-7.89 13.517a1.05 1.05 0 01-1.076 1.112c-5.743-.147-10.635 5.21-9.967 10.916.53 4.538 3.55 7.73 8.007 8.496l.234.036h30.992l.567-.073.596-.084.558-.087.52-.09a18.97 18.97 0 00.716-.146l.436-.105c2.31-.6 3.202-1.55 3.87-3.674l.12-.4.116-.426.113-.45a1.05 1.05 0 112.043.495c-.064.266-.13.522-.2.767l-.14.478c-1 3.26-2.522 4.642-6.33 5.44l-.56.1-.592.103-.625.097-.66.092-.35.045-.13.008H51.448l-.15-.01c-5.563-.8-9.437-4.795-10.09-10.38-.76-6.494 4.303-12.546 10.67-13.206l.328-.03v-.062c-.005-6.297 3.055-11.277 8.753-14.205l.345-.173c6.032-2.958 11.937-2.33 17.212 1.83zM96.452 76.2a.28.28 0 01.28.28v.32a.28.28 0 01-.28.28h-.32a.28.28 0 01-.28-.28v-.32a.28.28 0 01.28-.28h.32zm-1.2 0a.28.28 0 01.28.28v.32a.28.28 0 01-.28.28h-.32a.28.28 0 01-.28-.28v-.32a.28.28 0 01.28-.28h.32zm6.002 0a.28.28 0 01.28.28v.32a.28.28 0 01-.28.28h-.32a.28.28 0 01-.28-.28v-.32a.28.28 0 01.28-.28h.32zm1.2 0a.28.28 0 01.28.28v.32a.28.28 0 01-.28.28h-.32a.28.28 0 01-.28-.28v-.32a.28.28 0 01.28-.28h.32zm-1.2-1.2a.28.28 0 01.28.28v.32a.28.28 0 01-.28.28h-.32a.28.28 0 01-.28-.28v-.32a.28.28 0 01.28-.28h.32zm-3.6 0a.28.28 0 01.28.28v.32a.28.28 0 01-.28.28h-.32a.28.28 0 01-.28-.28v-.32a.28.28 0 01.28-.28h.32zm4.8 0a.28.28 0 01.28.28v.32a.28.28 0 01-.28.28h-.32a.28.28 0 01-.28-.28v-.32a.28.28 0 01.28-.28h.32zm-6.002 0a.28.28 0 01.28.28v.32a.28.28 0 01-.28.28h-.32a.28.28 0 01-.28-.28v-.32a.28.28 0 01.28-.28h.32zm2.4-1.2a.28.28 0 01.28.28v.32a.28.28 0 01-.28.28h-.32a.28.28 0 01-.28-.28v-.32a.28.28 0 01.28-.28h.32zm-1.2 0a.28.28 0 01.28.28v.32a.28.28 0 01-.28.28h-.32a.28.28 0 01-.28-.28v-.32a.28.28 0 01.28-.28h.32zm4.8 0a.28.28 0 01.28.28v.32a.28.28 0 01-.28.28h-.32a.28.28 0 01-.28-.28v-.32a.28.28 0 01.28-.28h.32zm-1.2 0a.28.28 0 01.28.28v.32a.28.28 0 01-.28.28h-.32a.28.28 0 01-.28-.28v-.32a.28.28 0 01.28-.28h.32zm0-1.2a.28.28 0 01.28.28v.32a.28.28 0 01-.28.28h-.32a.28.28 0 01-.28-.28v-.32a.28.28 0 01.28-.28h.32zm-2.4 0a.28.28 0 01.28.28v.32a.28.28 0 01-.28.28h-.32a.28.28 0 01-.28-.28v-.32a.28.28 0 01.28-.28h.32zm9.603 0a.28.28 0 01.28.28v.32a.28.28 0 01-.28.28h-.32a.28.28 0 01-.28-.28v-.32a.28.28 0 01.28-.28h.32zm-10.803 0a.28.28 0 01.28.28v.32a.28.28 0 01-.28.28h-.32a.28.28 0 01-.28-.28v-.32a.28.28 0 01.28-.28h.32zm4.8 0a.28.28 0 01.28.28v.32a.28.28 0 01-.28.28h-.32a.28.28 0 01-.28-.28v-.32a.28.28 0 01.28-.28h.32zm-4.8-1.2a.28.28 0 01.28.28V72a.28.28 0 01-.28.28h-.32a.28.28 0 01-.28-.28v-.32a.28.28 0 01.28-.28h.32zm1.2 0a.28.28 0 01.28.28V72a.28.28 0 01-.28.28h-.32a.28.28 0 01-.28-.28v-.32a.28.28 0 01.28-.28h.32zm1.2 0a.28.28 0 01.28.28V72a.28.28 0 01-.28.28h-.32a.28.28 0 01-.28-.28v-.32a.28.28 0 01.28-.28h.32zm1.2 0a.28.28 0 01.28.28V72a.28.28 0 01-.28.28h-.32a.28.28 0 01-.28-.28v-.32a.28.28 0 01.28-.28h.32zm1.2 0a.28.28 0 01.28.28V72a.28.28 0 01-.28.28h-.32a.28.28 0 01-.28-.28v-.32a.28.28 0 01.28-.28h.32zm6.002 0a.28.28 0 01.28.28V72a.28.28 0 01-.28.28h-.32a.28.28 0 01-.28-.28v-.32a.28.28 0 01.28-.28h.32zm-1.2 0a.28.28 0 01.28.28V72a.28.28 0 01-.28.28h-.32a.28.28 0 01-.28-.28v-.32a.28.28 0 01.28-.28h.32zm2.4 0a.28.28 0 01.28.28V72a.28.28 0 01-.28.28h-.32a.28.28 0 01-.28-.28v-.32a.28.28 0 01.28-.28h.32zm-1.2-1.2a.28.28 0 01.28.28v.32a.28.28 0 01-.28.28h-.32a.28.28 0 01-.28-.28v-.32a.28.28 0 01.28-.28h.32zm-1.2 0a.28.28 0 01.28.28v.32a.28.28 0 01-.28.28h-.32a.28.28 0 01-.28-.28v-.32a.28.28 0 01.28-.28h.32zm-10.803 0a.28.28 0 01.28.28v.32a.28.28 0 01-.28.28h-.32a.28.28 0 01-.28-.28v-.32a.28.28 0 01.28-.28h.32zm9.603 0a.28.28 0 01.28.28v.32a.28.28 0 01-.28.28h-.32a.28.28 0 01-.28-.28v-.32a.28.28 0 01.28-.28h.32zm-8.402 0a.28.28 0 01.28.28v.32a.28.28 0 01-.28.28h-.32a.28.28 0 01-.28-.28v-.32a.28.28 0 01.28-.28h.32zm1.2 0a.28.28 0 01.28.28v.32a.28.28 0 01-.28.28h-.32a.28.28 0 01-.28-.28v-.32a.28.28 0 01.28-.28h.32zm2.4 0a.28.28 0 01.28.28v.32a.28.28 0 01-.28.28h-.32a.28.28 0 01-.28-.28v-.32a.28.28 0 01.28-.28h.32zm-1.2 0a.28.28 0 01.28.28v.32a.28.28 0 01-.28.28h-.32a.28.28 0 01-.28-.28v-.32a.28.28 0 01.28-.28h.32zm7.202-1.2a.28.28 0 01.28.28v.32a.28.28 0 01-.28.28h-.32a.28.28 0 01-.28-.28v-.32a.28.28 0 01.28-.28h.32zm-25.208 0a.28.28 0 01.28.28v.32a.28.28 0 01-.28.28h-.32a.28.28 0 01-.28-.28v-.32a.28.28 0 01.28-.28h.32zm26.408 0a.28.28 0 01.28.28v.32a.28.28 0 01-.28.28h-.32a.28.28 0 01-.28-.28v-.32a.28.28 0 01.28-.28h.32zM95.25 69a.28.28 0 01.28.28v.32a.28.28 0 01-.28.28h-.32a.28.28 0 01-.28-.28v-.32a.28.28 0 01.28-.28h.32zm1.2 0a.28.28 0 01.28.28v.32a.28.28 0 01-.28.28h-.32a.28.28 0 01-.28-.28v-.32a.28.28 0 01.28-.28h.32zm-15.605 0a.28.28 0 01.28.28v.32a.28.28 0 01-.28.28h-.32a.28.28 0 01-.28-.28v-.32a.28.28 0 01.28-.28h.32zm20.406 0a.28.28 0 01.28.28v.32a.28.28 0 01-.28.28h-.32a.28.28 0 01-.28-.28v-.32a.28.28 0 01.28-.28h.32zm4.8 0a.28.28 0 01.28.28v.32a.28.28 0 01-.28.28h-.32a.28.28 0 01-.28-.28v-.32a.28.28 0 01.28-.28h.32zm-8.402 0a.28.28 0 01.28.28v.32a.28.28 0 01-.28.28h-.32a.28.28 0 01-.28-.28v-.32a.28.28 0 01.28-.28h.32zm1.2 0a.28.28 0 01.28.28v.32a.28.28 0 01-.28.28h-.32a.28.28 0 01-.28-.28v-.32a.28.28 0 01.28-.28h.32zm6.002 0a.28.28 0 01.28.28v.32a.28.28 0 01-.28.28h-.32a.28.28 0 01-.28-.28v-.32a.28.28 0 01.28-.28h.32zm-4.8 0a.28.28 0 01.28.28v.32a.28.28 0 01-.28.28h-.32a.28.28 0 01-.28-.28v-.32a.28.28 0 01.28-.28h.32zm-3.6-1.2a.28.28 0 01.28.28v.32a.28.28 0 01-.28.28h-.32a.28.28 0 01-.28-.28v-.32a.28.28 0 01.28-.28h.32zm3.6 0a.28.28 0 01.28.28v.32a.28.28 0 01-.28.28h-.32a.28.28 0 01-.28-.28v-.32a.28.28 0 01.28-.28h.32zm1.2 0a.28.28 0 01.28.28v.32a.28.28 0 01-.28.28h-.32a.28.28 0 01-.28-.28v-.32a.28.28 0 01.28-.28h.32zm-21.607 0a.28.28 0 01.28.28v.32a.28.28 0 01-.28.28h-.32a.28.28 0 01-.28-.28v-.32a.28.28 0 01.28-.28h.32zm25.208 0a.28.28 0 01.28.28v.32a.28.28 0 01-.28.28h-.32a.28.28 0 01-.28-.28v-.32a.28.28 0 01.28-.28h.32zm-24.007 0a.28.28 0 01.28.28v.32a.28.28 0 01-.28.28h-.32a.28.28 0 01-.28-.28v-.32a.28.28 0 01.28-.28h.32zm16.805 0a.28.28 0 01.28.28v.32a.28.28 0 01-.28.28h-.32a.28.28 0 01-.28-.28v-.32a.28.28 0 01.28-.28h.32zm-2.4 0a.28.28 0 01.28.28v.32a.28.28 0 01-.28.28h-.32a.28.28 0 01-.28-.28v-.32a.28.28 0 01.28-.28h.32zm-16.805 0a.28.28 0 01.28.28v.32a.28.28 0 01-.28.28h-.32a.28.28 0 01-.28-.28v-.32a.28.28 0 01.28-.28h.32zm20.406 0a.28.28 0 01.28.28v.32a.28.28 0 01-.28.28h-.32a.28.28 0 01-.28-.28v-.32a.28.28 0 01.28-.28h.32zm3.6 0a.28.28 0 01.28.28v.32a.28.28 0 01-.28.28h-.32a.28.28 0 01-.28-.28v-.32a.28.28 0 01.28-.28h.32zm3.6 0a.28.28 0 01.28.28v.32a.28.28 0 01-.28.28h-.32a.28.28 0 01-.28-.28v-.32a.28.28 0 01.28-.28h.32zm1.2 0a.28.28 0 01.28.28v.32a.28.28 0 01-.28.28h-.32a.28.28 0 01-.28-.28v-.32a.28.28 0 01.28-.28h.32zm-14.405-1.2a.28.28 0 01.28.28v.32a.28.28 0 01-.28.28h-.32a.28.28 0 01-.28-.28v-.32a.28.28 0 01.28-.28h.32zm9.603 0a.28.28 0 01.28.28v.32a.28.28 0 01-.28.28h-.32a.28.28 0 01-.28-.28v-.32a.28.28 0 01.28-.28h.32zm-8.402 0a.28.28 0 01.28.28v.32a.28.28 0 01-.28.28h-.32a.28.28 0 01-.28-.28v-.32a.28.28 0 01.28-.28h.32zm2.4 0a.28.28 0 01.28.28v.32a.28.28 0 01-.28.28h-.32a.28.28 0 01-.28-.28v-.32a.28.28 0 01.28-.28h.32zm-16.805 0a.28.28 0 01.28.28v.32a.28.28 0 01-.28.28h-.32a.28.28 0 01-.28-.28v-.32a.28.28 0 01.28-.28h.32zm21.607 0a.28.28 0 01.28.28v.32a.28.28 0 01-.28.28h-.32a.28.28 0 01-.28-.28v-.32a.28.28 0 01.28-.28h.32zm3.6 0a.28.28 0 01.28.28v.32a.28.28 0 01-.28.28h-.32a.28.28 0 01-.28-.28v-.32a.28.28 0 01.28-.28h.32zm-7.202 0a.28.28 0 01.28.28v.32a.28.28 0 01-.28.28h-.32a.28.28 0 01-.28-.28v-.32a.28.28 0 01.28-.28h.32zm-19.206 0a.28.28 0 01.28.28v.32a.28.28 0 01-.28.28h-.32a.28.28 0 01-.28-.28v-.32a.28.28 0 01.28-.28h.32zm27.608 0a.28.28 0 01.28.28v.32a.28.28 0 01-.28.28h-.32a.28.28 0 01-.28-.28v-.32a.28.28 0 01.28-.28h.32zm-7.202 0a.28.28 0 01.28.28v.32a.28.28 0 01-.28.28h-.32a.28.28 0 01-.28-.28v-.32a.28.28 0 01.28-.28h.32zm8.403 0a.28.28 0 01.28.28v.32a.28.28 0 01-.28.28h-.32a.28.28 0 01-.28-.28v-.32a.28.28 0 01.28-.28h.32zm-7.202 0a.28.28 0 01.28.28v.32a.28.28 0 01-.28.28h-.32a.28.28 0 01-.28-.28v-.32a.28.28 0 01.28-.28h.32zm-4.802 0a.28.28 0 01.28.28v.32a.28.28 0 01-.28.28h-.32a.28.28 0 01-.28-.28v-.32a.28.28 0 01.28-.28h.32zm6.002-1.2a.28.28 0 01.28.28V66a.28.28 0 01-.28.28h-.32a.28.28 0 01-.28-.28v-.32a.28.28 0 01.28-.28h.32zm-9.603 0a.28.28 0 01.28.28V66a.28.28 0 01-.28.28h-.32a.28.28 0 01-.28-.28v-.32a.28.28 0 01.28-.28h.32zm-1.2 0a.28.28 0 01.28.28V66a.28.28 0 01-.28.28h-.32a.28.28 0 01-.28-.28v-.32a.28.28 0 01.28-.28h.32zm15.604 0a.28.28 0 01.28.28V66a.28.28 0 01-.28.28h-.32a.28.28 0 01-.28-.28v-.32a.28.28 0 01.28-.28h.32zm-6.002 0a.28.28 0 01.28.28V66a.28.28 0 01-.28.28h-.32a.28.28 0 01-.28-.28v-.32a.28.28 0 01.28-.28h.32zm-3.6 0a.28.28 0 01.28.28V66a.28.28 0 01-.28.28h-.32a.28.28 0 01-.28-.28v-.32a.28.28 0 01.28-.28h.32zm1.2 0a.28.28 0 01.28.28V66a.28.28 0 01-.28.28h-.32a.28.28 0 01-.28-.28v-.32a.28.28 0 01.28-.28h.32zm-20.406 0a.28.28 0 01.28.28V66a.28.28 0 01-.28.28h-.32a.28.28 0 01-.28-.28v-.32a.28.28 0 01.28-.28h.32zm21.606 0a.28.28 0 01.28.28V66a.28.28 0 01-.28.28h-.32a.28.28 0 01-.28-.28v-.32a.28.28 0 01.28-.28h.32zm-10.803 0a.28.28 0 01.28.28V66a.28.28 0 01-.28.28h-.32a.28.28 0 01-.28-.28v-.32a.28.28 0 01.28-.28h.32zm-8.403 0a.28.28 0 01.28.28V66a.28.28 0 01-.28.28h-.32a.28.28 0 01-.28-.28v-.32a.28.28 0 01.28-.28h.32zm14.405 0a.28.28 0 01.28.28V66a.28.28 0 01-.28.28h-.32a.28.28 0 01-.28-.28v-.32a.28.28 0 01.28-.28h.32zm-4.802 0a.28.28 0 01.28.28V66a.28.28 0 01-.28.28h-.32a.28.28 0 01-.28-.28v-.32a.28.28 0 01.28-.28h.32zm15.605 0a.28.28 0 01.28.28V66a.28.28 0 01-.28.28h-.32a.28.28 0 01-.28-.28v-.32a.28.28 0 01.28-.28h.32zm-2.4 0a.28.28 0 01.28.28V66a.28.28 0 01-.28.28h-.32a.28.28 0 01-.28-.28v-.32a.28.28 0 01.28-.28h.32zm-9.603 0a.28.28 0 01.28.28V66a.28.28 0 01-.28.28h-.32a.28.28 0 01-.28-.28v-.32a.28.28 0 01.28-.28h.32zm2.4 0a.28.28 0 01.28.28V66a.28.28 0 01-.28.28h-.32a.28.28 0 01-.28-.28v-.32a.28.28 0 01.28-.28h.32zm-16.805 0a.28.28 0 01.28.28V66a.28.28 0 01-.28.28h-.32a.28.28 0 01-.28-.28v-.32a.28.28 0 01.28-.28h.32zm1.2-1.2a.28.28 0 01.28.28v.32a.28.28 0 01-.28.28h-.32a.28.28 0 01-.28-.28v-.32a.28.28 0 01.28-.28h.32zm21.607 0a.28.28 0 01.28.28v.32a.28.28 0 01-.28.28h-.32a.28.28 0 01-.28-.28v-.32a.28.28 0 01.28-.28h.32zm-7.202 0a.28.28 0 01.28.28v.32a.28.28 0 01-.28.28h-.32a.28.28 0 01-.28-.28v-.32a.28.28 0 01.28-.28h.32zm2.4 0a.28.28 0 01.28.28v.32a.28.28 0 01-.28.28h-.32a.28.28 0 01-.28-.28v-.32a.28.28 0 01.28-.28h.32zm-15.605 0a.28.28 0 01.28.28v.32a.28.28 0 01-.28.28h-.32a.28.28 0 01-.28-.28v-.32a.28.28 0 01.28-.28h.32zm4.8 0a.28.28 0 01.28.28v.32a.28.28 0 01-.28.28h-.32a.28.28 0 01-.28-.28v-.32a.28.28 0 01.28-.28h.32zm-8.402 0a.28.28 0 01.28.28v.32a.28.28 0 01-.216.273l-.064.007h-.32a.28.28 0 01-.28-.28v-.32a.28.28 0 01.28-.28h.32zm9.603 0a.28.28 0 01.28.28v.32a.28.28 0 01-.28.28h-.32a.28.28 0 01-.28-.28v-.32a.28.28 0 01.28-.28h.32zm8.402 0a.28.28 0 01.28.28v.32a.28.28 0 01-.28.28h-.32a.28.28 0 01-.28-.28v-.32a.28.28 0 01.28-.28h.32zm-6.002 0a.28.28 0 01.28.28v.32a.28.28 0 01-.28.28h-.32a.28.28 0 01-.28-.28v-.32a.28.28 0 01.28-.28h.32zm-13.204 0a.28.28 0 01.28.28v.32a.28.28 0 01-.216.273l-.064.007h-.32a.28.28 0 01-.28-.28v-.32a.28.28 0 01.28-.28h.32zm28.81 0a.28.28 0 01.28.28v.32a.28.28 0 01-.28.28h-.32a.28.28 0 01-.28-.28v-.32a.28.28 0 01.28-.28h.32zm-12.004 0a.28.28 0 01.28.28v.32a.28.28 0 01-.28.28h-.32a.28.28 0 01-.28-.28v-.32a.28.28 0 01.28-.28h.32zm-10.803 0a.28.28 0 01.28.28v.32a.28.28 0 01-.28.28h-.32a.28.28 0 01-.28-.28v-.32a.28.28 0 01.28-.28h.32zm18.006 0a.28.28 0 01.28.28v.32a.28.28 0 01-.28.28h-.32a.28.28 0 01-.28-.28v-.32a.28.28 0 01.28-.28h.32zm6.002 0a.28.28 0 01.28.28v.32a.28.28 0 01-.28.28h-.32a.28.28 0 01-.28-.28v-.32a.28.28 0 01.28-.28h.32zm-18.005 0a.28.28 0 01.28.28v.32a.28.28 0 01-.28.28h-.32a.28.28 0 01-.28-.28v-.32a.28.28 0 01.28-.28h.32zm-3.6 0a.28.28 0 01.28.28v.32a.28.28 0 01-.28.28h-.32a.28.28 0 01-.28-.28v-.32a.28.28 0 01.28-.28h.32zm14.404 0a.28.28 0 01.28.28v.32a.28.28 0 01-.28.28h-.32a.28.28 0 01-.28-.28v-.32a.28.28 0 01.28-.28h.32zm-1.2 0a.28.28 0 01.28.28v.32a.28.28 0 01-.28.28h-.32a.28.28 0 01-.28-.28v-.32a.28.28 0 01.28-.28h.32zm4.8 0a.28.28 0 01.28.28v.32a.28.28 0 01-.28.28h-.32a.28.28 0 01-.28-.28v-.32a.28.28 0 01.28-.28h.32zm-10.803 0a.28.28 0 01.28.28v.32a.28.28 0 01-.28.28h-.32a.28.28 0 01-.28-.28v-.32a.28.28 0 01.28-.28h.32zm-1.2 0a.28.28 0 01.28.28v.32a.28.28 0 01-.28.28h-.32a.28.28 0 01-.28-.28v-.32a.28.28 0 01.28-.28h.32zm7.202-1.2a.28.28 0 01.28.28v.32a.28.28 0 01-.28.28h-.32a.28.28 0 01-.28-.28v-.32a.28.28 0 01.28-.28h.32zm3.6 0a.28.28 0 01.28.28v.32a.28.28 0 01-.28.28h-.32a.28.28 0 01-.28-.28v-.32a.28.28 0 01.28-.28h.32zm-1.2 0a.28.28 0 01.28.28v.32a.28.28 0 01-.28.28h-.32a.28.28 0 01-.28-.28v-.32a.28.28 0 01.28-.28h.32zm-1.2 0a.28.28 0 01.28.28v.32a.28.28 0 01-.28.28h-.32a.28.28 0 01-.28-.28v-.32a.28.28 0 01.28-.28h.32zm-9.603 0a.28.28 0 01.28.28v.32a.28.28 0 01-.28.28h-.32a.28.28 0 01-.28-.28v-.32a.28.28 0 01.28-.28h.32zm13.204 0a.28.28 0 01.28.28v.32a.28.28 0 01-.28.28h-.32a.28.28 0 01-.28-.28v-.32a.28.28 0 01.28-.28h.32zm-10.803 0a.28.28 0 01.28.28v.32a.28.28 0 01-.28.28h-.32a.28.28 0 01-.28-.28v-.32a.28.28 0 01.28-.28h.32zm13.204 0a.28.28 0 01.28.28v.32a.28.28 0 01-.28.28h-.32a.28.28 0 01-.28-.28v-.32a.28.28 0 01.28-.28h.32zm-9.603 0a.28.28 0 01.28.28v.32a.28.28 0 01-.28.28h-.32a.28.28 0 01-.28-.28v-.32a.28.28 0 01.28-.28h.32zm-15.605 0a.28.28 0 01.28.28v.32a.28.28 0 01-.28.28h-.32a.28.28 0 01-.28-.28v-.32a.28.28 0 01.28-.28h.32zm13.204 0a.28.28 0 01.28.28v.32a.28.28 0 01-.28.28h-.32a.28.28 0 01-.28-.28v-.32a.28.28 0 01.28-.28h.32zm3.6 0a.28.28 0 01.28.28v.32a.28.28 0 01-.28.28h-.32a.28.28 0 01-.28-.28v-.32a.28.28 0 01.28-.28h.32zm-12.004 0a.28.28 0 01.28.28v.32a.28.28 0 01-.28.28h-.32a.28.28 0 01-.28-.28v-.32a.28.28 0 01.28-.28h.32zm2.4 0a.28.28 0 01.28.28v.32a.28.28 0 01-.28.28h-.32a.28.28 0 01-.28-.28v-.32a.28.28 0 01.28-.28h.32zm-3.6 0a.28.28 0 01.28.28v.32a.28.28 0 01-.28.28h-.32a.28.28 0 01-.28-.28v-.32a.28.28 0 01.28-.28h.32zm7.202 0a.28.28 0 01.28.28v.32a.28.28 0 01-.28.28h-.32a.28.28 0 01-.28-.28v-.32a.28.28 0 01.28-.28h.32zm-2.4 0a.28.28 0 01.28.28v.32a.28.28 0 01-.28.28h-.32a.28.28 0 01-.28-.28v-.32a.28.28 0 01.28-.28h.32zm-2.4 0a.28.28 0 01.28.28v.32a.28.28 0 01-.28.28h-.32a.28.28 0 01-.28-.28v-.32a.28.28 0 01.28-.28h.32zm-4.8 0a.28.28 0 01.28.28v.32a.28.28 0 01-.28.28h-.32a.28.28 0 01-.28-.28v-.32a.28.28 0 01.28-.28h.32zm1.2 0a.28.28 0 01.28.28v.32a.28.28 0 01-.28.28h-.32a.28.28 0 01-.28-.28v-.32a.28.28 0 01.28-.28h.32zm-6.002 0a.28.28 0 01.28.28v.32a.28.28 0 01-.28.28h-.32a.28.28 0 01-.28-.28v-.32a.28.28 0 01.28-.28h.32zm18.006 0a.28.28 0 01.28.28v.32a.28.28 0 01-.28.28h-.32a.28.28 0 01-.28-.28v-.32a.28.28 0 01.28-.28h.32zm-16.805 0a.28.28 0 01.28.28v.32a.28.28 0 01-.28.28h-.32a.28.28 0 01-.28-.28v-.32a.28.28 0 01.28-.28h.32zm26.408 0a.28.28 0 01.28.28v.32a.28.28 0 01-.28.28h-.32a.28.28 0 01-.28-.28v-.32a.28.28 0 01.28-.28h.32zm-3.6-1.2a.28.28 0 01.28.28v.32a.28.28 0 01-.28.28h-.32a.28.28 0 01-.28-.28v-.32a.28.28 0 01.28-.28h.32zm-8.403 0a.28.28 0 01.28.28v.32a.28.28 0 01-.28.28h-.32a.28.28 0 01-.28-.28v-.32a.28.28 0 01.28-.28h.32zm-7.202 0a.28.28 0 01.28.28v.32a.28.28 0 01-.28.28h-.32a.28.28 0 01-.28-.28v-.32a.28.28 0 01.28-.28h.32zm3.6 0a.28.28 0 01.28.28v.32a.28.28 0 01-.28.28h-.32a.28.28 0 01-.28-.28v-.32a.28.28 0 01.28-.28h.32zm7.202 0a.28.28 0 01.28.28v.32a.28.28 0 01-.28.28h-.32a.28.28 0 01-.28-.28v-.32a.28.28 0 01.28-.28h.32zm3.6 0a.28.28 0 01.28.28v.32a.28.28 0 01-.28.28h-.32a.28.28 0 01-.28-.28v-.32a.28.28 0 01.28-.28h.32zm-9.603 0a.28.28 0 01.28.28v.32a.28.28 0 01-.28.28h-.32a.28.28 0 01-.28-.28v-.32a.28.28 0 01.28-.28h.32zm12.004 0a.28.28 0 01.28.28v.32a.28.28 0 01-.28.28h-.32a.28.28 0 01-.28-.28v-.32a.28.28 0 01.28-.28h.32zm-4.8 0a.28.28 0 01.28.28v.32a.28.28 0 01-.28.28h-.32a.28.28 0 01-.28-.28v-.32a.28.28 0 01.28-.28h.32zm-14.405 0a.28.28 0 01.28.28v.32a.28.28 0 01-.28.28h-.32a.28.28 0 01-.28-.28v-.32a.28.28 0 01.28-.28h.32zm12.004 0a.28.28 0 01.28.28v.32a.28.28 0 01-.28.28h-.32a.28.28 0 01-.28-.28v-.32a.28.28 0 01.28-.28h.32zm-10.803 0a.28.28 0 01.28.28v.32a.28.28 0 01-.28.28h-.32a.28.28 0 01-.28-.28v-.32a.28.28 0 01.28-.28h.32zm-3.6 0a.28.28 0 01.28.28v.32a.28.28 0 01-.28.28h-.32a.28.28 0 01-.28-.28v-.32a.28.28 0 01.28-.28h.32zm10.803 0a.28.28 0 01.28.28v.32a.28.28 0 01-.28.28h-.32a.28.28 0 01-.28-.28v-.32a.28.28 0 01.28-.28h.32zm-12.003 0a.28.28 0 01.28.28v.32a.28.28 0 01-.28.28h-.32a.28.28 0 01-.28-.28v-.32a.28.28 0 01.28-.28h.32zm2.4 0a.28.28 0 01.28.28v.32a.28.28 0 01-.28.28h-.32a.28.28 0 01-.28-.28v-.32a.28.28 0 01.28-.28h.32zm4.8 0a.28.28 0 01.28.28v.32a.28.28 0 01-.28.28h-.32a.28.28 0 01-.28-.28v-.32a.28.28 0 01.28-.28h.32zm1.2 0a.28.28 0 01.28.28v.32a.28.28 0 01-.28.28h-.32a.28.28 0 01-.28-.28v-.32a.28.28 0 01.28-.28h.32zm10.803 0a.28.28 0 01.28.28v.32a.28.28 0 01-.28.28h-.32a.28.28 0 01-.28-.28v-.32a.28.28 0 01.28-.28h.32zm-4.802 0a.28.28 0 01.28.28v.32a.28.28 0 01-.28.28h-.32a.28.28 0 01-.28-.28v-.32a.28.28 0 01.28-.28h.32zm-15.604 0a.28.28 0 01.28.28v.32a.28.28 0 01-.28.28h-.32a.28.28 0 01-.28-.28v-.32a.28.28 0 01.28-.28h.32zm7.202-1.2a.28.28 0 01.28.28v.32a.28.28 0 01-.28.28h-.32a.28.28 0 01-.28-.28v-.32a.28.28 0 01.28-.28h.32zm3.6 0a.28.28 0 01.28.28v.32a.28.28 0 01-.28.28h-.32a.28.28 0 01-.28-.28v-.32a.28.28 0 01.28-.28h.32zm9.603 0a.28.28 0 01.28.28v.32a.28.28 0 01-.28.28h-.32a.28.28 0 01-.28-.28v-.32a.28.28 0 01.28-.28h.32zm-8.403 0a.28.28 0 01.28.28v.32a.28.28 0 01-.28.28h-.32a.28.28 0 01-.28-.28v-.32a.28.28 0 01.28-.28h.32zm-8.402 0a.28.28 0 01.28.28v.32a.28.28 0 01-.28.28h-.32a.28.28 0 01-.28-.28v-.32a.28.28 0 01.28-.28h.32zm15.605 0a.28.28 0 01.28.28v.32a.28.28 0 01-.28.28h-.32a.28.28 0 01-.28-.28v-.32a.28.28 0 01.28-.28h.32zm-2.4 0a.28.28 0 01.28.28v.32a.28.28 0 01-.28.28h-.32a.28.28 0 01-.28-.28v-.32a.28.28 0 01.28-.28h.32zm-10.803 0a.28.28 0 01.28.28v.32a.28.28 0 01-.28.28h-.32a.28.28 0 01-.28-.28v-.32a.28.28 0 01.28-.28h.32zm-3.6 0a.28.28 0 01.28.28v.32a.28.28 0 01-.28.28h-.32a.28.28 0 01-.28-.28v-.32a.28.28 0 01.28-.28h.32zm15.605 0a.28.28 0 01.28.28v.32a.28.28 0 01-.28.28h-.32a.28.28 0 01-.28-.28v-.32a.28.28 0 01.28-.28h.32zm-4.8 0a.28.28 0 01.28.28v.32a.28.28 0 01-.28.28h-.32a.28.28 0 01-.28-.28v-.32a.28.28 0 01.28-.28h.32zm-12.004 0a.28.28 0 01.28.28v.32a.28.28 0 01-.28.28h-.32a.28.28 0 01-.28-.28v-.32a.28.28 0 01.28-.28h.32zm3.6 0a.28.28 0 01.28.28v.32a.28.28 0 01-.28.28h-.32a.28.28 0 01-.28-.28v-.32a.28.28 0 01.28-.28h.32zm4.802 0a.28.28 0 01.28.28v.32a.28.28 0 01-.28.28h-.32a.28.28 0 01-.28-.28v-.32a.28.28 0 01.28-.28h.32zm6.002 0a.28.28 0 01.28.28v.32a.28.28 0 01-.28.28h-.32a.28.28 0 01-.28-.28v-.32a.28.28 0 01.28-.28h.32zm-1.2 0a.28.28 0 01.28.28v.32a.28.28 0 01-.28.28h-.32a.28.28 0 01-.28-.28v-.32a.28.28 0 01.28-.28h.32zm-6.002 0a.28.28 0 01.28.28v.32a.28.28 0 01-.28.28h-.32a.28.28 0 01-.28-.28v-.32a.28.28 0 01.28-.28h.32zm13.204 0a.28.28 0 01.28.28v.32a.28.28 0 01-.28.28h-.32a.28.28 0 01-.28-.28v-.32a.28.28 0 01.28-.28h.32zm-10.803-1.2a.28.28 0 01.28.28V60a.28.28 0 01-.28.28h-.32a.28.28 0 01-.28-.28v-.32a.28.28 0 01.28-.28h.32zm3.6 0a.28.28 0 01.28.28V60a.28.28 0 01-.28.28h-.32a.28.28 0 01-.28-.28v-.32a.28.28 0 01.28-.28h.32zm-9.603 0a.28.28 0 01.28.28V60a.28.28 0 01-.28.28h-.32a.28.28 0 01-.28-.28v-.32a.28.28 0 01.28-.28h.32zm10.803 0a.28.28 0 01.28.28V60a.28.28 0 01-.28.28h-.32a.28.28 0 01-.28-.28v-.32a.28.28 0 01.28-.28h.32zm-12.003 0a.28.28 0 01.28.28V60a.28.28 0 01-.28.28h-.32a.28.28 0 01-.28-.28v-.32a.28.28 0 01.28-.28h.32zm6.002 0a.28.28 0 01.28.28V60a.28.28 0 01-.28.28h-.32a.28.28 0 01-.28-.28v-.32a.28.28 0 01.28-.28h.32zm-2.4 0a.28.28 0 01.28.28V60a.28.28 0 01-.28.28h-.32a.28.28 0 01-.28-.28v-.32a.28.28 0 01.28-.28h.32zm6.002 0a.28.28 0 01.28.28V60a.28.28 0 01-.28.28h-.32a.28.28 0 01-.28-.28v-.32a.28.28 0 01.28-.28h.32zm-4.802 0a.28.28 0 01.28.28V60a.28.28 0 01-.28.28h-.32a.28.28 0 01-.28-.28v-.32a.28.28 0 01.28-.28h.32zm9.603 0a.28.28 0 01.28.28V60a.28.28 0 01-.28.28h-.32a.28.28 0 01-.28-.28v-.32a.28.28 0 01.28-.28h.32zm-12.003 0a.28.28 0 01.28.28V60a.28.28 0 01-.28.28h-.32a.28.28 0 01-.28-.28v-.32a.28.28 0 01.28-.28h.32zm6.002 0a.28.28 0 01.28.28V60a.28.28 0 01-.28.28h-.32a.28.28 0 01-.28-.28v-.32a.28.28 0 01.28-.28h.32zm4.802 0a.28.28 0 01.28.28V60a.28.28 0 01-.28.28h-.32a.28.28 0 01-.28-.28v-.32a.28.28 0 01.28-.28h.32zm-8.403-1.2a.28.28 0 01.28.28v.32a.28.28 0 01-.28.28h-.32a.28.28 0 01-.28-.28v-.32a.28.28 0 01.28-.28h.32zm-4.8 0a.28.28 0 01.28.28v.32a.28.28 0 01-.28.28h-.32a.28.28 0 01-.28-.28v-.32a.28.28 0 01.28-.28h.32zm9.603 0a.28.28 0 01.28.28v.32a.28.28 0 01-.28.28h-.32a.28.28 0 01-.28-.28v-.32a.28.28 0 01.28-.28h.32zm-8.403 0a.28.28 0 01.28.28v.32a.28.28 0 01-.28.28h-.32a.28.28 0 01-.28-.28v-.32a.28.28 0 01.28-.28h.32zm4.802 0a.28.28 0 01.28.28v.32a.28.28 0 01-.28.28h-.32a.28.28 0 01-.28-.28v-.32a.28.28 0 01.28-.28h.32zm1.2 0a.28.28 0 01.28.28v.32a.28.28 0 01-.28.28h-.32a.28.28 0 01-.28-.28v-.32a.28.28 0 01.28-.28h.32zm-3.6 0a.28.28 0 01.28.28v.32a.28.28 0 01-.28.28h-.32a.28.28 0 01-.28-.28v-.32a.28.28 0 01.28-.28h.32zm4.8 0a.28.28 0 01.28.28v.32a.28.28 0 01-.28.28h-.32a.28.28 0 01-.28-.28v-.32a.28.28 0 01.28-.28h.32zm-6.002 0a.28.28 0 01.28.28v.32a.28.28 0 01-.28.28h-.32a.28.28 0 01-.28-.28v-.32a.28.28 0 01.28-.28h.32zm9.603 0a.28.28 0 01.28.28v.32a.28.28 0 01-.28.28h-.32a.28.28 0 01-.28-.28v-.32a.28.28 0 01.28-.28h.32zm-1.2 0a.28.28 0 01.28.28v.32a.28.28 0 01-.28.28h-.32a.28.28 0 01-.28-.28v-.32a.28.28 0 01.28-.28h.32zm-3.6-1.2a.28.28 0 01.28.28v.32a.28.28 0 01-.28.28h-.32a.28.28 0 01-.28-.28v-.32a.28.28 0 01.28-.28h.32zm-3.6 0a.28.28 0 01.28.28v.32a.28.28 0 01-.28.28h-.32a.28.28 0 01-.28-.28v-.32a.28.28 0 01.28-.28h.32zm1.2 0a.28.28 0 01.28.28v.32a.28.28 0 01-.28.28h-.32a.28.28 0 01-.28-.28v-.32a.28.28 0 01.28-.28h.32zm-3.6 0a.28.28 0 01.28.28v.32a.28.28 0 01-.28.28h-.32a.28.28 0 01-.28-.28v-.32a.28.28 0 01.28-.28h.32zm1.2 0a.28.28 0 01.28.28v.32a.28.28 0 01-.28.28h-.32a.28.28 0 01-.28-.28v-.32a.28.28 0 01.28-.28h.32zm3.6 0a.28.28 0 01.28.28v.32a.28.28 0 01-.28.28h-.32a.28.28 0 01-.28-.28v-.32a.28.28 0 01.28-.28h.32zm3.6 0a.28.28 0 01.28.28v.32a.28.28 0 01-.28.28h-.32a.28.28 0 01-.28-.28v-.32a.28.28 0 01.28-.28h.32zm-1.2 0a.28.28 0 01.28.28v.32a.28.28 0 01-.28.28h-.32a.28.28 0 01-.28-.28v-.32a.28.28 0 01.28-.28h.32zm2.4 0a.28.28 0 01.28.28v.32a.28.28 0 01-.28.28h-.32a.28.28 0 01-.28-.28v-.32a.28.28 0 01.28-.28h.32zm-8.402-1.2a.28.28 0 01.28.28v.32a.28.28 0 01-.28.28h-.32a.28.28 0 01-.28-.28v-.32a.28.28 0 01.28-.28h.32zm7.202 0a.28.28 0 01.28.28v.32a.28.28 0 01-.28.28h-.32a.28.28 0 01-.28-.28v-.32a.28.28 0 01.28-.28h.32zm-3.6 0a.28.28 0 01.28.28v.32a.28.28 0 01-.28.28h-.32a.28.28 0 01-.28-.28v-.32a.28.28 0 01.28-.28h.32zm-4.802 0a.28.28 0 01.28.28v.32a.28.28 0 01-.28.28h-.32a.28.28 0 01-.28-.28v-.32a.28.28 0 01.28-.28h.32zm7.202 0a.28.28 0 01.28.28v.32a.28.28 0 01-.28.28h-.32a.28.28 0 01-.28-.28v-.32a.28.28 0 01.28-.28h.32zm-1.2 0a.28.28 0 01.28.28v.32a.28.28 0 01-.28.28h-.32a.28.28 0 01-.28-.28v-.32a.28.28 0 01.28-.28h.32zm-3.6 0a.28.28 0 01.28.28v.32a.28.28 0 01-.28.28h-.32a.28.28 0 01-.28-.28v-.32a.28.28 0 01.28-.28h.32zm1.2 0a.28.28 0 01.28.28v.32a.28.28 0 01-.28.28h-.32a.28.28 0 01-.28-.28v-.32a.28.28 0 01.28-.28h.32zm-3.6-1.2a.28.28 0 01.28.28v.32a.28.28 0 01-.28.28h-.32a.28.28 0 01-.28-.28v-.32a.28.28 0 01.28-.28h.32zm4.802 0a.28.28 0 01.28.28v.32a.28.28 0 01-.28.28h-.32a.28.28 0 01-.28-.28v-.32a.28.28 0 01.28-.28h.32zm1.2 0a.28.28 0 01.28.28v.32a.28.28 0 01-.28.28h-.32a.28.28 0 01-.28-.28v-.32a.28.28 0 01.28-.28h.32zm-4.802 0a.28.28 0 01.28.28v.32a.28.28 0 01-.28.28h-.32a.28.28 0 01-.28-.28v-.32a.28.28 0 01.28-.28h.32zm2.4 0a.28.28 0 01.28.28v.32a.28.28 0 01-.28.28h-.32a.28.28 0 01-.28-.28v-.32a.28.28 0 01.28-.28h.32zm3.6 0a.28.28 0 01.28.28v.32a.28.28 0 01-.28.28h-.32a.28.28 0 01-.28-.28v-.32a.28.28 0 01.28-.28h.32zm-4.8 0a.28.28 0 01.28.28v.32a.28.28 0 01-.28.28h-.32a.28.28 0 01-.28-.28v-.32a.28.28 0 01.28-.28h.32zm6.002 0a.28.28 0 01.28.28v.32a.28.28 0 01-.28.28h-.32a.28.28 0 01-.28-.28v-.32a.28.28 0 01.28-.28h.32zm-3.6-1.2a.28.28 0 01.28.28V54a.28.28 0 01-.28.28h-.32a.28.28 0 01-.28-.28v-.32a.28.28 0 01.28-.28h.32zm-1.2 0a.28.28 0 01.28.28V54a.28.28 0 01-.28.28h-.32a.28.28 0 01-.28-.28v-.32a.28.28 0 01.28-.28h.32zm3.6 0a.28.28 0 01.28.28V54a.28.28 0 01-.28.28h-.32a.28.28 0 01-.28-.28v-.32a.28.28 0 01.28-.28h.32zm-1.2 0a.28.28 0 01.28.28V54a.28.28 0 01-.28.28h-.32a.28.28 0 01-.28-.28v-.32a.28.28 0 01.28-.28h.32zm-6.002 0a.28.28 0 01.28.28V54a.28.28 0 01-.28.28h-.32a.28.28 0 01-.28-.28v-.32a.28.28 0 01.28-.28h.32zm1.2 0a.28.28 0 01.28.28V54a.28.28 0 01-.28.28h-.32a.28.28 0 01-.28-.28v-.32a.28.28 0 01.28-.28h.32zm1.2 0a.28.28 0 01.28.28V54a.28.28 0 01-.28.28h-.32a.28.28 0 01-.28-.28v-.32a.28.28 0 01.28-.28h.32zm-7.202-1.2a.28.28 0 01.28.28v.32a.28.28 0 01-.28.28h-.32a.28.28 0 01-.28-.28v-.32a.28.28 0 01.28-.28h.32zm6.002 0a.28.28 0 01.28.28v.32a.28.28 0 01-.28.28h-.32a.28.28 0 01-.28-.28v-.32a.28.28 0 01.28-.28h.32zm1.2 0a.28.28 0 01.28.28v.32a.28.28 0 01-.28.28h-.32a.28.28 0 01-.28-.28v-.32a.28.28 0 01.28-.28h.32zm-2.4 0a.28.28 0 01.28.28v.32a.28.28 0 01-.28.28h-.32a.28.28 0 01-.28-.28v-.32a.28.28 0 01.28-.28h.32zm3.6 0a.28.28 0 01.28.28v.32a.28.28 0 01-.28.28h-.32a.28.28 0 01-.28-.28v-.32a.28.28 0 01.28-.28h.32zm3.6 0a.28.28 0 01.28.28v.32a.28.28 0 01-.28.28h-.32a.28.28 0 01-.28-.28v-.32a.28.28 0 01.28-.28h.32zm-1.2 0a.28.28 0 01.28.28v.32a.28.28 0 01-.28.28h-.32a.28.28 0 01-.28-.28v-.32a.28.28 0 01.28-.28h.32zm-1.2 0a.28.28 0 01.28.28v.32a.28.28 0 01-.28.28h-.32a.28.28 0 01-.28-.28v-.32a.28.28 0 01.28-.28h.32zm-10.803 0a.28.28 0 01.28.28v.32a.28.28 0 01-.28.28h-.32a.28.28 0 01-.28-.28v-.32a.28.28 0 01.28-.28h.32zM84.45 51a.28.28 0 01.28.28v.32a.28.28 0 01-.28.28h-.32a.28.28 0 01-.28-.28v-.32a.28.28 0 01.28-.28h.32zm-7.202 0a.28.28 0 01.28.28v.32a.28.28 0 01-.28.28h-.32a.28.28 0 01-.28-.28v-.32a.28.28 0 01.28-.28h.32zm-1.2 0a.28.28 0 01.28.28v.32a.28.28 0 01-.28.28h-.32a.28.28 0 01-.28-.28v-.32a.28.28 0 01.28-.28h.32zm7.202 0a.28.28 0 01.28.28v.32a.28.28 0 01-.28.28h-.32a.28.28 0 01-.28-.28v-.32a.28.28 0 01.28-.28h.32zm-4.8 0a.28.28 0 01.28.28v.32a.28.28 0 01-.28.28h-.32a.28.28 0 01-.28-.28v-.32a.28.28 0 01.28-.28h.32zm1.2 0a.28.28 0 01.28.28v.32a.28.28 0 01-.28.28h-.32a.28.28 0 01-.28-.28v-.32a.28.28 0 01.28-.28h.32zm2.4 0a.28.28 0 01.28.28v.32a.28.28 0 01-.28.28h-.32a.28.28 0 01-.28-.28v-.32a.28.28 0 01.28-.28h.32zm3.6 0a.28.28 0 01.28.28v.32a.28.28 0 01-.28.28h-.32a.28.28 0 01-.28-.28v-.32a.28.28 0 01.28-.28h.32zm3.6 0a.28.28 0 01.28.28v.32a.28.28 0 01-.28.28h-.32a.28.28 0 01-.28-.28v-.32a.28.28 0 01.28-.28h.32zm-8.402 0a.28.28 0 01.28.28v.32a.28.28 0 01-.28.28h-.32a.28.28 0 01-.28-.28v-.32a.28.28 0 01.28-.28h.32zm7.202 0a.28.28 0 01.28.28v.32a.28.28 0 01-.28.28h-.32a.28.28 0 01-.28-.28v-.32a.28.28 0 01.28-.28h.32zm-1.2 0a.28.28 0 01.28.28v.32a.28.28 0 01-.28.28h-.32a.28.28 0 01-.28-.28v-.32a.28.28 0 01.28-.28h.32zm-12.004 0a.28.28 0 01.28.28v.32a.28.28 0 01-.28.28h-.32a.28.28 0 01-.28-.28v-.32a.28.28 0 01.28-.28h.32zm3.6-1.2a.28.28 0 01.28.28v.32a.28.28 0 01-.28.28h-.32a.28.28 0 01-.28-.28v-.32a.28.28 0 01.28-.28h.32zm2.4 0a.28.28 0 01.28.28v.32a.28.28 0 01-.28.28h-.32a.28.28 0 01-.28-.28v-.32a.28.28 0 01.28-.28h.32zm6.002 0a.28.28 0 01.28.28v.32a.28.28 0 01-.28.28h-.32a.28.28 0 01-.28-.28v-.32a.28.28 0 01.28-.28h.32zm1.2 0a.28.28 0 01.28.28v.32a.28.28 0 01-.28.28h-.32a.28.28 0 01-.28-.28v-.32a.28.28 0 01.28-.28h.32zm-6.002 0a.28.28 0 01.28.28v.32a.28.28 0 01-.28.28h-.32a.28.28 0 01-.28-.28v-.32a.28.28 0 01.28-.28h.32zm1.2 0a.28.28 0 01.28.28v.32a.28.28 0 01-.28.28h-.32a.28.28 0 01-.28-.28v-.32a.28.28 0 01.28-.28h.32zm1.2 0a.28.28 0 01.28.28v.32a.28.28 0 01-.28.28h-.32a.28.28 0 01-.28-.28v-.32a.28.28 0 01.28-.28h.32zm1.2 0a.28.28 0 01.28.28v.32a.28.28 0 01-.28.28h-.32a.28.28 0 01-.28-.28v-.32a.28.28 0 01.28-.28h.32zm-6.002 0a.28.28 0 01.28.28v.32a.28.28 0 01-.28.28h-.32a.28.28 0 01-.28-.28v-.32a.28.28 0 01.28-.28h.32zm-2.4 0a.28.28 0 01.28.28v.32a.28.28 0 01-.28.28h-.32a.28.28 0 01-.28-.28v-.32a.28.28 0 01.28-.28h.32zm-1.2 0a.28.28 0 01.28.28v.32a.28.28 0 01-.28.28h-.32a.28.28 0 01-.28-.28v-.32a.28.28 0 01.28-.28h.32zm4.802-1.2a.28.28 0 01.28.28v.32a.28.28 0 01-.28.28h-.32a.28.28 0 01-.28-.28v-.32a.28.28 0 01.28-.28h.32zm-3.6 0a.28.28 0 01.28.28v.32a.28.28 0 01-.28.28h-.32a.28.28 0 01-.28-.28v-.32a.28.28 0 01.28-.28h.32zm1.2 0a.28.28 0 01.28.28v.32a.28.28 0 01-.28.28h-.32a.28.28 0 01-.28-.28v-.32a.28.28 0 01.28-.28h.32zm6.002 0a.28.28 0 01.28.28v.32a.28.28 0 01-.28.28h-.32a.28.28 0 01-.28-.28v-.32a.28.28 0 01.28-.28h.32zm2.4 0a.28.28 0 01.28.28v.32a.28.28 0 01-.28.28h-.32a.28.28 0 01-.28-.28v-.32a.28.28 0 01.28-.28h.32zm-4.802 0a.28.28 0 01.28.28v.32a.28.28 0 01-.28.28h-.32a.28.28 0 01-.28-.28v-.32a.28.28 0 01.28-.28h.32zm3.6 0a.28.28 0 01.28.28v.32a.28.28 0 01-.28.28h-.32a.28.28 0 01-.28-.28v-.32a.28.28 0 01.28-.28h.32zm-6.002 0a.28.28 0 01.28.28v.32a.28.28 0 01-.28.28h-.32a.28.28 0 01-.28-.28v-.32a.28.28 0 01.28-.28h.32zm3.6 0a.28.28 0 01.28.28v.32a.28.28 0 01-.28.28h-.32a.28.28 0 01-.28-.28v-.32a.28.28 0 01.28-.28h.32zm0-1.2a.28.28 0 01.28.28V48a.28.28 0 01-.28.28h-.32a.28.28 0 01-.28-.28v-.32a.28.28 0 01.28-.28h.32zm-1.2 0a.28.28 0 01.28.28V48a.28.28 0 01-.28.28h-.32a.28.28 0 01-.28-.28v-.32a.28.28 0 01.28-.28h.32zm2.4 0a.28.28 0 01.28.28V48a.28.28 0 01-.28.28h-.32a.28.28 0 01-.28-.28v-.32a.28.28 0 01.28-.28h.32zm1.2 0a.28.28 0 01.28.28V48a.28.28 0 01-.28.28h-.32a.28.28 0 01-.28-.28v-.32a.28.28 0 01.28-.28h.32zm-4.8 0a.28.28 0 01.28.28V48a.28.28 0 01-.28.28h-.32a.28.28 0 01-.28-.28v-.32a.28.28 0 01.28-.28h.32zm-2.4 0a.28.28 0 01.28.28V48a.28.28 0 01-.28.28h-.32a.28.28 0 01-.28-.28v-.32a.28.28 0 01.28-.28h.32zm1.2 0a.28.28 0 01.28.28V48a.28.28 0 01-.28.28h-.32a.28.28 0 01-.28-.28v-.32a.28.28 0 01.28-.28h.32zm4.802-1.2a.28.28 0 01.28.28v.32a.28.28 0 01-.28.28h-.32a.28.28 0 01-.28-.28v-.32a.28.28 0 01.28-.28h.32zm-1.2 0a.28.28 0 01.28.28v.32a.28.28 0 01-.28.28h-.32a.28.28 0 01-.28-.28v-.32a.28.28 0 01.28-.28h.32zm-3.6 0a.28.28 0 01.28.28v.32a.28.28 0 01-.28.28h-.32a.28.28 0 01-.28-.28v-.32a.28.28 0 01.28-.28h.32zm2.4 0a.28.28 0 01.28.28v.32a.28.28 0 01-.28.28h-.32a.28.28 0 01-.28-.28v-.32a.28.28 0 01.28-.28h.32zm-1.2 0a.28.28 0 01.28.28v.32a.28.28 0 01-.28.28h-.32a.28.28 0 01-.28-.28v-.32a.28.28 0 01.28-.28h.32zm-1.2-1.2a.28.28 0 01.28.28v.32a.28.28 0 01-.28.28h-.32a.28.28 0 01-.28-.28v-.32a.28.28 0 01.28-.28h.32zm1.2 0a.28.28 0 01.28.28v.32a.28.28 0 01-.28.28h-.32a.28.28 0 01-.28-.28v-.32a.28.28 0 01.28-.28h.32z" fill="#fff" fill-rule="nonzero"/><path d="M72.117 101.35c.77.012 1.296.31 1.576.892h.023l.001-.343c0-.342.17-.514.51-.514.355 0 .532.18.532.538v5.416c0 1.22-.428 2.094-1.284 2.625-.43.264-.933.397-1.5.4a3.67 3.67 0 01-1.967-.56c-.312-.192-.482-.4-.51-.654.046-.248.184-.395.414-.442.187.024.373.1.56.196l.14.087c.45.305.92.457 1.408.457.582 0 1.026-.243 1.33-.73.258-.41.387-.924.387-1.545l-.012-.238h-.023c-.335.617-.896.923-1.683.917a2.38 2.38 0 01-1.414-.463c-.4-.29-.712-.682-.934-1.18a3.89 3.89 0 01-.341-1.651c.006-.61.126-1.166.36-1.663a2.68 2.68 0 01.974-1.139c.432-.28.92-.416 1.46-.408zm-6.316 0c.868 0 1.504.36 1.91 1.084.204.365.307.812.307 1.34v3.542c0 .342-.174.513-.52.513-.34 0-.5-.17-.5-.513v-3.52c0-.44-.133-.8-.4-1.084-.272-.287-.624-.43-1.058-.43a1.36 1.36 0 00-1.261.699 1.62 1.62 0 00-.208.839v3.497c0 .375-.166.562-.498.562-.154 0-.282-.054-.382-.163s-.15-.242-.15-.4v-5.402c0-.375.17-.562.5-.562.347 0 .52.19.52.57v.253l.023.024c.42-.564.993-.845 1.718-.845zm12.525 0a3.11 3.11 0 011.123.196c.374.137.64.283.8.44.166.164.25.328.25.492 0 .123-.047.23-.14.318a.53.53 0 01-.325.151c-.1-.028-.255-.09-.436-.185l-.717-.398a1.08 1.08 0 00-.453-.096c-.368-.006-.65.07-.842.225s-.297.347-.31.57c.064.347.328.625.793.835l.506.204.2.07.57.215c.476.2.814.423 1.013.67.21.262.313.575.308.94a1.73 1.73 0 01-.272.904c-.174.28-.434.506-.78.68-.357.18-.784.27-1.28.273-.82.004-1.506-.23-2.06-.703-.162-.112-.257-.283-.286-.51 0-.13.043-.24.13-.33a.43.43 0 01.321-.135c.127 0 .31.08.552.238l.282.196.118.072.044.022a1.87 1.87 0 00.877.235 1.74 1.74 0 00.9-.209c.26-.14.4-.36.4-.66 0-.28-.16-.52-.483-.712a4.39 4.39 0 00-.381-.199l-.337-.15-.757-.3-.194-.085-.136-.065c-.324-.17-.578-.365-.763-.6s-.276-.506-.276-.843c0-.67.33-1.17.987-1.5a2.46 2.46 0 011.073-.261zm-33.366 0c.347 0 .52.18.52.54v5.425c0 .36-.174.54-.52.54-.15 0-.273-.05-.368-.154s-.142-.23-.142-.384v-5.402c0-.375.17-.562.5-.562zm2.606-2.763c.347 0 .52.175.52.524v8.18c0 .374-.174.562-.52.562-.34 0-.5-.187-.5-.562v-8.157c0-.365.17-.547.5-.547zm6.73 0c.355 0 .533.182.533.546v8.182c0 .358-.178.537-.533.537a.49.49 0 01-.362-.149.5.5 0 01-.148-.364v-.343h-.023a1.504 1.504 0 01-.546.59c-.266.172-.61.26-1.03.267a2.616 2.616 0 01-1.46-.4 2.691 2.691 0 01-.974-1.145 3.94 3.94 0 01-.362-1.666c-.004-.433.06-.856.194-1.27.266-.83.73-1.415 1.394-1.76a2.32 2.32 0 011.079-.253 2.02 2.02 0 011.706.869h.023v-3.1c0-.348.17-.522.5-.522zm6.637 2.763c.347 0 .52.18.52.54v3.494c0 .976-.364 1.684-1.09 2.123-.38.23-.86.346-1.443.346-1.074 0-1.804-.412-2.2-1.235a2.879 2.879 0 01-.263-1.235v-3.494c0-.36.17-.54.5-.54.347 0 .52.18.52.538v3.466c0 1.054.482 1.582 1.446 1.582.987 0 1.48-.527 1.48-1.582v-3.466c0-.36.17-.538.5-.538zm-20.644-2.06c.857 0 1.498.332 1.924.997.202.318.308.652.315 1.003a2.35 2.35 0 01-.113.744c-.176.584-.53.963-1.06 1.137v.023c.89.178 1.45.622 1.683 1.332.095.287.142.557.142.81 0 .92-.413 1.616-1.238 2.09-.407.235-.883.352-1.43.352h-2.085c-.378 0-.567-.187-.567-.56v-7.372c0-.372.177-.558.532-.558h1.895zm31.722 2.977a1.35 1.35 0 00-.92.358 1.99 1.99 0 00-.55.867 3.58 3.58 0 00.029 2.304 1.84 1.84 0 00.564.826 1.42 1.42 0 00.9.326c.528.008.962-.196 1.302-.61.334-.405.5-.956.5-1.652 0-.92-.265-1.61-.795-2.065a1.487 1.487 0 00-1.03-.352zm-19.835 0c-.75 0-1.265.406-1.544 1.22a3.457 3.457 0 00-.197 1.097c-.006.632.132 1.18.414 1.642s.692.7 1.232.71c.424.01.777-.105 1.06-.342.27-.226.463-.514.578-.865.122-.365.184-.74.188-1.123a3.074 3.074 0 00-.22-1.224c-.308-.743-.812-1.114-1.5-1.114zm-11.78 1.465H38.9v3.144h1.397c.797 0 1.34-.258 1.634-.773a1.6 1.6 0 00.214-.787c.004-.27-.06-.53-.194-.78-.285-.537-.8-.805-1.548-.805zm-.177-3.537H38.9v2.68h1.21c.582 0 .99-.23 1.226-.69a1.42 1.42 0 00.159-.654c0-.386-.115-.703-.344-.952-.235-.256-.543-.384-.923-.384zm4.742-.977c.176 0 .326.065.452.195s.188.283.188.46a.64.64 0 01-.19.459.601.601 0 01-.45.198.62.62 0 01-.457-.196.63.63 0 01-.194-.46.63.63 0 01.192-.46.619.619 0 01.46-.193zM25.423 87.602c.222 0 .414.118.575.354l4.295 6.333h.01v-6.1c0-.156.045-.287.136-.393s.2-.16.358-.16c.344 0 .516.184.516.553v7.49c0 .355-.15.533-.446.533-.226 0-.414-.1-.563-.33L26 89.51v6.155c0 .34-.168.5-.505.5-.33 0-.494-.178-.494-.533v-7.49c0-.37.14-.553.423-.553zm20-.602c.344 0 .516.18.516.54v8.103c0 .355-.172.532-.516.532a.47.47 0 01-.351-.148.5.5 0 01-.143-.361v-.34h-.022c-.108.226-.285.42-.53.584-.258.17-.6.26-.998.265a2.42 2.42 0 01-1.415-.406 2.651 2.651 0 01-.944-1.134 3.957 3.957 0 01-.35-1.65c-.004-.43.06-.848.188-1.258.258-.82.708-1.402 1.35-1.742a2.21 2.21 0 011.045-.251c.686 0 1.237.287 1.653.86h.022v-3.08c0-.345.165-.517.494-.517zm25.386 2.736a2.79 2.79 0 011.068.174c.295.118.487.255.575.4.03.097.045.172.045.227 0 .267-.15.414-.45.44l-.59-.212a1.96 1.96 0 00-.606-.117c-.712 0-1.22.383-1.52 1.15-.144.364-.22.722-.224 1.074a3.39 3.39 0 00.356 1.577c.238.483.643.758 1.217.823.077 0 .134.008.17.023.19-.013.36-.048.508-.104l.235-.1.222-.1a.61.61 0 01.255-.072c.252 0 .378.146.378.437 0 .31-.204.533-.61.673-.275.094-.604.14-.987.14-1.12 0-1.924-.5-2.408-1.53a3.65 3.65 0 01-.348-1.54c-.004-.427.05-.848.16-1.263.224-.852.67-1.455 1.337-1.81.36-.2.765-.288 1.214-.294zm-4.238 0c.314 0 .47.178.47.533v5.373c0 .356-.157.533-.47.533s-.47-.16-.47-.483v-.46h-.034c-.436.62-.967.934-1.593.943a2.52 2.52 0 01-1.4-.395c-.898-.56-1.347-1.49-1.347-2.795 0-1.38.466-2.345 1.397-2.893.404-.238.812-.357 1.224-.357.667 0 1.24.287 1.718.86h.034v-.347a.53.53 0 01.132-.366.434.434 0 01.34-.147zM73.964 87c.337 0 .505.18.505.54l.022 3.034c.398-.558.946-.837 1.643-.837.848 0 1.477.388 1.886 1.165.19.358.283.745.283 1.162v3.58c0 .356-.168.533-.505.533-.146 0-.265-.05-.356-.153s-.137-.228-.137-.38V92.21c0-.45-.126-.82-.378-1.114s-.593-.444-1.023-.452a1.43 1.43 0 00-.71.176c-.484.26-.726.715-.726 1.368v3.455c0 .355-.168.533-.505.533-.146 0-.265-.05-.356-.152s-.137-.228-.137-.38V87.54c0-.36.165-.54.494-.54zm11.25 2.736c.337 0 .505.178.505.533v5.373c0 .356-.168.533-.505.533-.146 0-.265-.05-.356-.153s-.137-.23-.137-.38v-5.35c0-.37.165-.556.494-.556zM97.723 87c.337 0 .505.18.505.54l.022 3.034c.398-.558.946-.837 1.643-.837.848 0 1.477.388 1.886 1.165a2.45 2.45 0 01.283 1.162v3.58c0 .356-.168.533-.505.533-.146 0-.265-.05-.356-.153s-.137-.228-.137-.38V92.21c0-.45-.126-.82-.378-1.114s-.593-.444-1.023-.452a1.43 1.43 0 00-.71.176c-.484.26-.726.715-.726 1.368v3.455c0 .355-.168.533-.505.533-.146 0-.264-.05-.356-.152s-.137-.228-.137-.38V87.54c0-.36.165-.54.494-.54zm-42.055 2.736a.56.56 0 01.395.15.49.49 0 01.177.383c0 .25-.183.437-.55.562l-.378.112a1.27 1.27 0 00-.208.082c-.544.306-.816.83-.816 1.57v3.048c0 .356-.16.533-.483.533-.344 0-.516-.185-.516-.555v-5.317c0-.355.165-.533.494-.533.337 0 .505.177.505.532v.53h.022a2.84 2.84 0 01.595-.749c.247-.224.5-.34.763-.348zm-18.386 0a2.35 2.35 0 011.405.439c.406.285.72.674.947 1.166.222.485.334.992.334 1.52 0 .34-.187.508-.56.508h-3.812c.015.82.325 1.38.93 1.687a2.02 2.02 0 00.928.212c.512 0 1-.168 1.468-.505l.174-.134c.15-.125.278-.188.38-.188.237 0 .356.146.356.437a.56.56 0 01-.149.377c-.21.24-.53.455-.953.644a3.23 3.23 0 01-1.331.276c-.96 0-1.688-.353-2.183-1.058-.422-.602-.64-1.32-.653-2.157a.43.43 0 00.022-.058c.05-1.2.48-2.1 1.287-2.705a2.32 2.32 0 011.413-.461zm-4.143 0c.337 0 .505.178.505.533v5.373c0 .356-.168.533-.505.533a.455.455 0 01-.357-.153.55.55 0 01-.137-.381v-5.35c0-.37.165-.556.494-.556zm16.5 0a2.35 2.35 0 011.404.439c.406.285.72.674.947 1.166.222.485.334.992.334 1.52 0 .34-.187.508-.56.508H47.95c.015.82.325 1.38.93 1.687a2.02 2.02 0 00.928.212c.512 0 1-.168 1.468-.505l.174-.134c.15-.125.278-.188.38-.188.237 0 .356.146.356.437a.56.56 0 01-.149.377c-.21.24-.53.455-.953.644a3.23 3.23 0 01-1.331.276c-.96 0-1.688-.353-2.183-1.058-.422-.602-.64-1.32-.653-2.157l.022-.058c.05-1.2.48-2.1 1.287-2.705a2.32 2.32 0 011.413-.461zm39.268 0a2.96 2.96 0 011.088.194c.363.135.62.28.774.435.16.162.24.325.24.487a.425.425 0 01-.135.315.51.51 0 01-.315.149 2.468 2.468 0 01-.56-.26l-.557-.317a1.024 1.024 0 00-.44-.095c-.357-.006-.63.07-.816.223a.77.77 0 00-.301.566c.062.344.318.62.768.827l.5.202.194.07.55.213c.46.198.79.418.982.662.204.26.304.57.298.93-.004.313-.092.61-.264.895-.168.276-.42.5-.757.674-.346.178-.76.27-1.242.27-.715.003-1.325-.184-1.83-.563l-.165-.133c-.157-.11-.25-.28-.278-.507 0-.13.042-.237.126-.326a.41.41 0 01.311-.134c.123 0 .302.08.535.236l.273.194.114.07.043.022c.247.144.53.22.85.233.308.01.6-.058.872-.207a.695.695 0 00.38-.654c0-.278-.156-.514-.47-.706l-.23-.128-.295-.14-.36-.155-.546-.228-.26-.12-.06-.03c-.314-.167-.56-.362-.74-.584s-.268-.5-.268-.835c0-.662.32-1.158.956-1.486.32-.165.666-.25 1.04-.26zm-30.143 0a2.96 2.96 0 011.088.194c.363.135.62.28.774.435.16.162.24.325.24.487a.425.425 0 01-.135.315.51.51 0 01-.315.149 2.468 2.468 0 01-.56-.26l-.557-.317a1.024 1.024 0 00-.44-.095c-.357-.006-.628.07-.816.223a.77.77 0 00-.301.566c.062.344.318.62.768.827l.5.202.194.07.55.213c.46.198.79.418.982.662.205.26.304.57.298.93a1.73 1.73 0 01-.264.895c-.168.276-.42.5-.757.674-.346.178-.76.27-1.242.27-.794.004-1.46-.228-1.995-.696-.157-.11-.25-.28-.278-.507 0-.13.042-.237.126-.326a.41.41 0 01.311-.134c.123 0 .302.08.535.236l.273.194.062.04.095.053c.247.144.53.22.85.233.308.01.6-.058.872-.207.252-.138.378-.356.378-.654 0-.278-.156-.514-.47-.706l-.23-.128-.295-.14-.36-.155-.546-.228-.188-.084-.132-.065c-.314-.167-.56-.362-.74-.584s-.268-.5-.268-.835c0-.662.32-1.158.956-1.486.32-.165.666-.25 1.04-.26zm46.938 0a2.35 2.35 0 011.405.439c.406.285.72.674.947 1.166.222.485.334.992.334 1.52 0 .34-.187.508-.56.508h-3.812c.015.82.325 1.38.93 1.687a2.02 2.02 0 00.928.212c.512 0 1-.168 1.468-.505l.174-.134c.152-.125.278-.188.38-.188.237 0 .356.146.356.437a.56.56 0 01-.149.377c-.21.24-.53.455-.953.644a3.23 3.23 0 01-1.331.276c-.96 0-1.688-.353-2.183-1.058-.422-.602-.64-1.32-.653-2.157l.022-.058c.05-1.2.48-2.1 1.287-2.705a2.32 2.32 0 011.413-.461zm-24.21 0a2.96 2.96 0 011.088.194c.363.135.62.28.774.435.16.162.24.325.24.487a.425.425 0 01-.135.315.51.51 0 01-.315.149 2.468 2.468 0 01-.56-.26l-.557-.317a1.024 1.024 0 00-.44-.095c-.357-.006-.628.07-.816.223a.77.77 0 00-.301.566c.062.344.318.62.768.827l.5.202.194.07.55.213c.46.198.79.418.982.662.205.26.304.57.298.93-.004.313-.09.61-.263.895-.168.276-.42.5-.757.674-.346.178-.76.27-1.242.27-.715.003-1.325-.184-1.83-.563l-.165-.133c-.157-.11-.25-.28-.278-.507 0-.13.042-.237.126-.326a.41.41 0 01.311-.134c.123 0 .302.08.535.236l.273.194.114.07.043.022c.247.144.53.22.85.233.308.01.6-.058.872-.207.252-.138.378-.356.378-.654 0-.278-.156-.514-.47-.706l-.23-.128-.295-.14-.17-.076-.734-.307-.262-.12-.06-.03c-.314-.167-.56-.362-.74-.584s-.268-.5-.268-.835c0-.662.32-1.158.956-1.486.32-.165.666-.25 1.04-.26zm13.075 0a2.79 2.79 0 011.068.174c.295.118.487.255.575.4.03.097.045.172.045.227 0 .267-.15.414-.45.44l-.59-.212a1.965 1.965 0 00-.606-.117c-.712 0-1.22.383-1.52 1.15-.144.364-.22.722-.224 1.074a3.39 3.39 0 00.356 1.577c.238.483.643.758 1.217.823.077 0 .134.008.17.023.19-.013.36-.048.508-.104l.235-.1.222-.1a.61.61 0 01.255-.072c.253 0 .38.146.38.437 0 .31-.204.533-.61.673-.275.094-.604.14-.987.14-1.12 0-1.924-.5-2.408-1.53a3.65 3.65 0 01-.348-1.54 4.74 4.74 0 01.16-1.263c.224-.852.67-1.455 1.337-1.81.36-.2.765-.288 1.214-.294zm-30.143.908h-.022c-.533 0-.944.222-1.234.667-.28.43-.424.98-.432 1.65-.004.393.057.77.182 1.132.27.783.748 1.175 1.436 1.175.606 0 1.057-.24 1.355-.718.247-.398.37-.928.37-1.59 0-.967-.264-1.647-.79-2.037a1.42 1.42 0 00-.864-.279zm-21.057 0c-.727 0-1.226.402-1.497 1.207a3.469 3.469 0 00-.19 1.086c-.006.626.128 1.168.4 1.626s.67.692 1.194.704c.41.01.753-.103 1.026-.34a1.85 1.85 0 00.561-.856c.118-.362.178-.733.182-1.112a3.092 3.092 0 00-.213-1.213c-.3-.736-.787-1.103-1.463-1.103zm-6.04 0c-.504-.006-.914.162-1.227.504s-.482.82-.504 1.43h3.363c-.01-.576-.16-1.04-.45-1.392-.293-.356-.687-.536-1.183-.542zm68.42 0c-.504-.006-.914.162-1.227.504s-.482.82-.504 1.43h3.363c-.01-.576-.16-1.04-.45-1.392-.293-.356-.687-.536-1.183-.542zm-56.064 0c-.504-.006-.914.162-1.227.504s-.482.82-.504 1.43h3.363c-.01-.576-.16-1.04-.45-1.392-.293-.356-.687-.536-1.183-.542zm15.9-2.95c.18 0 .33.062.45.186s.18.278.18.463c0 .175-.062.323-.186.444s-.273.18-.445.18a.6.6 0 01-.441-.18.604.604 0 01-.18-.445c0-.185.06-.34.175-.463s.265-.186.445-.186zm-2.124 0c.176 0 .32.063.436.19s.172.28.172.46a.61.61 0 01-.177.444.58.58 0 01-.432.181c-.174 0-.323-.06-.446-.18s-.185-.268-.185-.445c0-.186.06-.34.18-.464s.27-.185.452-.185zm-30.31-.07a.58.58 0 01.438.193.64.64 0 01.182.454c0 .173-.06.324-.184.455a.58.58 0 01-.436.196c-.17 0-.318-.065-.443-.194s-.188-.28-.188-.456a.63.63 0 01.187-.456.6.6 0 01.445-.191zm52.074 0a.58.58 0 01.438.193.64.64 0 01.182.454c0 .173-.06.324-.184.455s-.268.196-.436.196-.318-.065-.443-.194-.188-.28-.188-.456a.63.63 0 01.186-.456.6.6 0 01.445-.191z" fill="#1b1b1b"/></svg>