<svg width="26" height="22" viewBox="0 0 26 22" xmlns="http://www.w3.org/2000/svg"><g fill="none" fill-rule="evenodd"><path d="M4 .5A3.5 3.5 0 00.5 4v14A3.5 3.5 0 004 21.5h18a3.5 3.5 0 003.5-3.5V4A3.5 3.5 0 0022 .5H4z" stroke="#E98404"/><path d="M6.388 10.872l-.552-1.476h-.06l.192 1.452V15H4.54V6.54h1.164l2.412 4.224.516 1.452h.072l-.192-1.428V6.6H9.94v8.46H8.776l-2.388-4.188zM11.02 6.6h4.2v1.392h-2.688v2.064h2.436v1.392h-2.436v2.16h2.736V15H11.02V6.6zm8.868 0h1.428v5.448c0 1.088-.222 1.876-.666 2.364-.444.488-1.058.732-1.842.732-.92 0-1.594-.238-2.022-.714-.428-.476-.642-1.202-.642-2.178V6.6h1.512v5.388c0 .656.088 1.114.264 1.374.176.26.468.39.876.39.392 0 .672-.138.84-.414.168-.276.252-.726.252-1.35V6.6z" fill="#E98404" fill-rule="nonzero"/></g></svg>