<svg version="1.1" id="Layer_1" xmlns="http://www.w3.org/2000/svg" x="0" y="0" viewBox="0 0 150 150" xml:space="preserve" enable-background="new 0 0 150 150"><style>.st4{fill:#fff}</style><path id="BG" d="M4 0h142c2.2 0 4 1.8 4 4v142c0 2.2-1.8 4-4 4H4c-2.2 0-4-1.8-4-4V4c0-2.2 1.8-4 4-4z" fill-rule="evenodd" clip-rule="evenodd" fill="#126dc4"/><g transform="translate(7.3 20)"><g id="Bildmarke" transform="translate(3.123)"><defs><filter id="Adobe_OpacityMaskFilter" filterUnits="userSpaceOnUse" x="27" y="27" width="75" height="37.5"><feColorMatrix values="1 0 0 0 0 0 1 0 0 0 0 0 1 0 0 0 0 0 1 0"/></filter></defs><mask maskUnits="userSpaceOnUse" x="27" y="27" width="75" height="37.5" id="mask-3_1_"><g filter="url(#Adobe_OpacityMaskFilter)"><path id="path-2_1_" d="M74.9 27h-.6c-8.1.3-16 5-17.2 12.5-7.8-3.1-15.1 1-15.1 8-14.3-2.8-18.2 9.9-12.5 14.1 3.9 3.4 9 2.7 15.5 2.7h42.6c8 0 14.4-5.3 14.4-12 0-3.3-1.7-6.4-4.4-8.6l-8.4 8.4c-.2.2-.7.5-1 .6l-9.4 3.8c-.2.1-.5.1-.7.1-1.2 1-3.7 2-4.3 2.1-2.5.4-4-1.2-5.7-2.9-1.1-1.1-2.1-2.2-3.5-2.8-.4-.2-.8-.2-1.2-.2-1.8 0-3.3 1.5-4.6 2.9-.5.5-1 1-1.5 1.4-1.4 1.2-2.8 1.7-4.2 1.6-1.6-.1-2.7-1.2-3.6-2.2l-.2-.2c-1-1.1-2.2-2.3-3.9-1.7-.8.3-1.6.9-2.1 1.4l-.4.4c-.3.3-.6.7-1 .8-.3.1-.7.1-1 0-.2-.1-.4-.3-.4-.6-.1-.5.4-.9.8-1.2l.2-.2.3-.3c1-.8 2-1.7 3.3-2.1 1.8-.5 3.3.4 4.2 1.2l.9.9c.8.9 1.7 1.8 2.9 2 1.8.2 3.3-1.4 4.3-2.4l.1-.1c1.2-1.2 2.3-2.4 3.9-3 1.5-.6 3.1-.4 4.7.6 1 .6 1.7 1.4 2.5 2.2l1.5 1.5c1.6 1.4 3.1 1.6 4.7.7.2-.1.5-.3.8-.5l.9-.6c0-.3 0-.6.1-.9l3.8-9.4c.1-.3.4-.8.6-1l9.2-9.2c-3.2-5.6-9.1-8.1-15.1-8.2h-.2zm8.8 18.1c-.5.5-1.3.7-1.9.7l-1.7 4.9 2.6 2.6 4.9-1.7c-.1-.6.1-1.3.7-1.9l7.2-7.2c-.6-.3-1.1-.6-1.7-.8L87 48.5c-.5.5-1 .8-1.6.9-.5.1-.8 0-1.1-.2-.5-.5-.3-1.7.7-2.6l7-7c-.2-.7-.4-1.4-.7-2.1l-7.6 7.6z" fill-rule="evenodd" clip-rule="evenodd" fill="#fff"/></g></mask><path id="Fill-1" d="M74.9 27h-.6c-8.1.3-16 5-17.2 12.5-7.8-3.1-15.1 1-15.1 8-14.3-2.8-18.2 9.9-12.5 14.1 3.9 3.4 9 2.7 15.5 2.7h42.6c8 0 14.4-5.3 14.4-12 0-3.3-1.7-6.4-4.4-8.6l-8.4 8.4c-.2.2-.7.5-1 .6l-9.4 3.8c-.2.1-.5.1-.7.1-1.2 1-3.7 2-4.3 2.1-2.5.4-4-1.2-5.7-2.9-1.1-1.1-2.1-2.2-3.5-2.8-.4-.2-.8-.2-1.2-.2-1.8 0-3.3 1.5-4.6 2.9-.5.5-1 1-1.5 1.4-1.4 1.2-2.8 1.7-4.2 1.6-1.6-.1-2.7-1.2-3.6-2.2l-.2-.2c-1-1.1-2.2-2.3-3.9-1.7-.8.3-1.6.9-2.1 1.4l-.4.4c-.3.3-.6.7-1 .8-.3.1-.7.1-1 0-.2-.1-.4-.3-.4-.6-.1-.5.4-.9.8-1.2l.2-.2.3-.3c1-.8 2-1.7 3.3-2.1 1.8-.5 3.3.4 4.2 1.2l.9.9c.8.9 1.7 1.8 2.9 2 1.8.2 3.3-1.4 4.3-2.4l.1-.1c1.2-1.2 2.3-2.4 3.9-3 1.5-.6 3.1-.4 4.7.6 1 .6 1.7 1.4 2.5 2.2l1.5 1.5c1.6 1.4 3.1 1.6 4.7.7.2-.1.5-.3.8-.5l.9-.6c0-.3 0-.6.1-.9l3.8-9.4c.1-.3.4-.8.6-1l9.2-9.2c-3.2-5.6-9.1-8.1-15.1-8.2h-.2zm8.8 18.1c-.5.5-1.3.7-1.9.7l-1.7 4.9 2.6 2.6 4.9-1.7c-.1-.6.1-1.3.7-1.9l7.2-7.2c-.6-.3-1.1-.6-1.7-.8L87 48.5c-.5.5-1 .8-1.6.9-.5.1-.8 0-1.1-.2-.5-.5-.3-1.7.7-2.6l7-7c-.2-.7-.4-1.4-.7-2.1l-7.6 7.6z" mask="url(#mask-3_1_)" fill-rule="evenodd" clip-rule="evenodd" fill="#fff"/></g><path id="OPEN" class="st4" d="M49.1 94.3c1.8 0 3.1-1 3.1-3.4v-1.5c0-2.4-1.3-3.4-3.1-3.4S46 87 46 89.4v1.5c0 2.4 1.3 3.4 3.1 3.4zm0-1.3c-1.1 0-1.6-.6-1.6-2.1v-1.5c0-1.5.5-2.1 1.6-2.1s1.6.6 1.6 2.1v1.5c0 1.5-.5 2.1-1.6 2.1zm11.4 1.3c.1 0 .2-.1.2-.2v-2.9h1c1.7 0 3.2-.6 3.2-2.6v-.1c0-1.9-1.5-2.5-3.2-2.5-.8 0-1.6.1-2.2.1-.2 0-.4.1-.4.3V94c0 .1.1.2.2.2h1.2zm1.2-4.3h-1v-2.6h1c1.1 0 1.7.4 1.7 1.3v.1c0 .7-.5 1.2-1.7 1.2zm12.4 4.3c1.3 0 1.7-.1 2.1-.2.2 0 .2-.1.2-.2v-.7c0-.1-.1-.2-.2-.2H74c-.6 0-.9-.2-.9-.9v-1.4h3c.1 0 .2-.1.2-.2v-.8c0-.1-.1-.2-.2-.2h-3v-1.2c0-.7.2-.9.9-.9h2.2c.1 0 .2-.1.2-.2v-.7c0-.2-.1-.2-.2-.2-.4-.1-.8-.2-2.1-.2-1.4 0-2.5.4-2.5 2.3v3.8c0 1.8 1.1 2.1 2.5 2.1zm10.5 0c.1 0 .2-.1.2-.2v-5.5c0-.1 0-.1.1-.1 0 0 .1 0 .1.1l2.4 5.4c.2.4.4.4.7.4h1.1c.2 0 .4-.2.4-.4v-7.5c0-.1-.1-.2-.2-.2h-.9c-.1 0-.2.1-.2.2v5.8c0 .1 0 .1-.1.1 0 0-.1 0-.1-.1l-2.6-5.7c-.1-.3-.3-.4-.5-.4h-1.2c-.2 0-.4.2-.4.4V94c0 .1.1.2.2.2h1z"/><g id="TXT" transform="translate(0 46)"><path id="HPI" class="st4" d="M34.3 35.7c0 .1-.1.2-.2.2H33c-.1 0-.2-.1-.2-.2v-3.5h-3.3v3.5c0 .1-.1.2-.2.2h-1.1c-.1 0-.2-.1-.2-.2v-8.1c0-.1.1-.2.2-.2h1.1c.1 0 .2.1.2.2v3.2h3.3v-3.2c0-.1.1-.2.2-.2h1.1c.1 0 .2.1.2.2v8.1zm7.6-5.6c0 2-1.5 2.7-3.3 2.7h-1v3c0 .1-.1.2-.2.2h-1.1c-.1 0-.2-.1-.2-.2v-7.9c0-.2.1-.3.4-.3.6-.1 1.4-.1 2.2-.1 1.8 0 3.3.6 3.3 2.6zm-1.5 0V30c0-1-.6-1.3-1.7-1.3h-1v2.7h1c1.2.1 1.7-.4 1.7-1.3zm4.5 5.6c0 .1-.1.2-.2.2h-1.1c-.1 0-.2-.1-.2-.2v-8.1c0-.1.1-.2.2-.2h1.1c.1 0 .2.1.2.2v8.1z"/><path id="Schul-Cloud" class="st4" d="M54.7 33.7c0 1.1-.6 2.3-2.8 2.3-.8 0-1.4-.1-1.9-.2-.2 0-.2-.1-.2-.2v-.5c0-.1.1-.2.2-.2.5 0 1.4.1 1.9.1 1.4 0 1.7-.5 1.7-1.4 0-.6-.3-.9-1.4-1.5l-1.1-.7c-1.1-.6-1.6-1.2-1.6-2.1 0-1.4 1-2 2.7-2 .7 0 1.6.1 2 .1.1 0 .2.1.2.2v.5c0 .1-.1.2-.2.2-.5 0-1.3-.1-2-.1-1.2 0-1.7.3-1.7 1.1 0 .5.4.9 1.2 1.4l1.1.6c1.5.9 1.9 1.5 1.9 2.4zm5.4 1.9c0 .1 0 .2-.2.3-.4.1-.9.1-1.4.1-1.6 0-2.4-1.1-2.4-2.8v-.9c0-1.7.9-2.8 2.4-2.8.5 0 1.1.1 1.4.1.2 0 .2.1.2.3v.4c0 .1-.1.2-.2.2-.5-.1-.9-.1-1.4-.1-.9 0-1.4.6-1.4 1.9v.9c0 1.3.5 1.9 1.4 1.9.6 0 .9 0 1.4-.1.1 0 .2.1.2.2v.4zm6.2.1c0 .1-.1.2-.2.2h-.5c-.1 0-.2-.1-.2-.2v-3.8c0-1.1-.5-1.5-1.2-1.5-.4 0-1.1.1-1.6.3v4.9c0 .1-.1.2-.2.2h-.6c-.1 0-.2-.1-.2-.2v-8.2c0-.1.1-.2.2-.2h.6c.1 0 .2.1.2.2v2.4c.5-.2 1.3-.4 1.8-.4 1.2 0 2.1.7 2.1 2.4v3.9zm6.3 0c0 .1-.1.2-.2.2h-.6c-.1 0-.2-.1-.2-.2v-.2c-.6.3-1.1.5-1.8.5-1.4 0-2-.9-2-2.4v-3.8c0-.1.1-.2.2-.2h.5c.1 0 .2.1.2.2v3.8c0 1.2.4 1.5 1.3 1.5.5 0 1-.2 1.5-.4v-4.8c0-.1.1-.2.2-.2h.6c.1 0 .2.1.2.2v5.8zm2.7 0c0 .1-.1.2-.2.2h-.6c-.1 0-.2-.1-.2-.2v-8.2c0-.1.1-.2.2-.2h.6c.1 0 .2.1.2.2v8.2zm4.3-2.9c0 .1-.1.2-.2.2h-2.3c-.1 0-.2-.1-.2-.2v-.4c0-.1.1-.2.2-.2h2.3c.1 0 .2.1.2.2v.4zm6.6 2.8c0 .1-.1.2-.2.2-.5.2-1 .2-2 .2-1.4 0-3-.8-3-3.5v-1.6c0-2.8 1.6-3.5 3-3.5.7 0 1.4.1 1.9.2.1 0 .2 0 .2.1v.6c0 .1 0 .1-.1.1-.4 0-1.3-.1-1.9-.1-1.1 0-2 .7-2 2.6v1.6c0 1.9.9 2.6 2 2.6.7 0 1.5-.1 1.9-.1.1 0 .2.1.2.2v.4zm2.3.1c0 .1-.1.2-.2.2h-.6c-.1 0-.2-.1-.2-.2v-8.2c0-.1.1-.2.2-.2h.6c.1 0 .2.1.2.2v8.2zm6.6-2.5c0 1.7-.9 2.8-2.6 2.8-1.7 0-2.5-1.1-2.5-2.8v-.9c0-1.7.9-2.8 2.5-2.8 1.7 0 2.6 1.1 2.6 2.8v.9zm-1 0v-.9c0-1.2-.5-1.9-1.5-1.9-1.1 0-1.5.7-1.5 1.9v.9c0 1.2.5 1.9 1.5 1.9s1.5-.7 1.5-1.9zm7.2 2.5c0 .1-.1.2-.2.2h-.6c-.1 0-.2-.1-.2-.2v-.2c-.6.4-1.1.5-1.8.5-1.4 0-2-.9-2-2.4v-3.8c0-.1.1-.2.2-.2h.5c.1 0 .2.1.2.2v3.8c0 1.2.4 1.5 1.3 1.5.5 0 1-.2 1.5-.4v-4.8c0-.1.1-.2.2-.2h.6c.1 0 .2.1.2.2v5.8zm6.3-.1c0 .1 0 .2-.2.3-.7.1-1.4.2-2.1.2-1.7 0-2.5-1.1-2.5-2.8v-.8c0-1.8.8-2.8 2.5-2.8.4 0 .9 0 1.3.1v-2.1c0-.1.1-.2.2-.2h.6c.1 0 .2.1.2.2v7.9zm-1-.5v-4.5c-.4-.1-1-.1-1.3-.1-1.1 0-1.5.7-1.5 1.9v.8c0 1.2.4 1.9 1.5 1.9h1.3z"/></g></g></svg>