<svg xmlns="http://www.w3.org/2000/svg" width="133" height="133" fill-rule="evenodd"><rect fill="#126dc4" width="133" height="133" rx="4"/><path d="M70.465 98.74l.45.004.543.02.286.02.237.024.282.038.29.047c.14.02.202.062.216.17l.004.06v.704a.22.22 0 01-.162.212l-.058.008H70.31c-.595 0-.836.192-.866.807l-.003.14v1.188h2.98a.22.22 0 01.212.162l.008.058v.792a.22.22 0 01-.162.212l-.058.008h-2.98v1.42c0 .678.2.914.747.943l.122.003h2.244a.22.22 0 01.212.162l.008.058v.704c0 .132-.04.19-.156.22l-.44.072-.196.025-.237.024-.286.02-.345.015-.413.008-.235.001c-1.38 0-2.46-.358-2.537-2.06l-.004-.195v-3.84c0-1.87 1.11-2.255 2.54-2.255zm-23.992 0c1.755 0 3.046.946 3.13 3.195l.004.237v1.485c0 2.42-1.32 3.432-3.135 3.432-1.755 0-3.046-.946-3.13-3.195l-.004-.237v-1.485c0-2.42 1.32-3.432 3.135-3.432zm12.073 0c1.636 0 3.066.554 3.163 2.344l.005.197v.1c0 1.947-1.474 2.574-3.168 2.574l-.187-.004-.792-.04v2.87c0 .1-.06.186-.152.212l-.057.008h-1.1a.22.22 0 01-.212-.162l-.008-.058v-7.568c0-.22.132-.297.352-.33a15.023 15.023 0 012.156-.143zm22.342.088a.42.42 0 01.435.255l.05.097 2.563 5.654c.022.055.055.088.088.088.017 0 .04-.02.05-.056l.005-.043v-5.786c0-.1.06-.18.152-.202l.057-.007h.946c.1 0 .18.06.202.152l.007.057v7.524a.44.44 0 01-.361.433l-.08.007h-1.19c-.206-.003-.39-.032-.538-.288l-.054-.107-2.442-5.357c-.033-.066-.066-.088-.1-.088-.025 0-.043.012-.05.046l-.004.042v5.533c0 .1-.06.186-.152.212l-.057.008h-.935a.22.22 0 01-.212-.162l-.008-.058v-7.513a.44.44 0 01.361-.433l.08-.007h1.188zm-34.415 1.243c-1.03 0-1.547.59-1.592 1.908l-.003.193v1.485c0 1.452.517 2.1 1.595 2.1 1.03 0 1.547-.59 1.592-1.908l.003-.193v-1.485c0-1.452-.517-2.1-1.595-2.1zm12.073-.066l-.26.005-.478.02-.24.018v2.618l.57.023.408.01c1.125 0 1.6-.395 1.646-1.185l.004-.234c0-.924-.55-1.276-1.65-1.276zm-6.212-11.982l.223.002.47.017.466.03.42.04.335.043c.1.022.187.077.187.187v.473c0 .1-.077.176-.187.176l-.497-.028-.557-.023-.58-.014-.28-.002c-1.133 0-1.617.242-1.617 1.045 0 .443.267.733.87 1.125l.33.206 1.012.605c1.276.76 1.727 1.364 1.727 2.244 0 1.056-.55 2.2-2.717 2.2-.578 0-1.044-.043-1.445-.097l-.38-.057c-.16-.028-.2-.065-.207-.15l-.002-.487c0-.12.088-.176.187-.176h.033l.203.015.46.025.244.01.633.015.275.002c1.32 0 1.672-.528 1.672-1.298 0-.48-.244-.777-.976-1.256l-.344-.218-1.067-.65c-1.012-.616-1.518-1.177-1.518-2.057 0-1.33.957-1.947 2.63-1.947zm43.197 2.2a.22.22 0 01.22.22v3.62c0 1.11.374 1.452 1.2 1.452.462 0 .98-.176 1.485-.43v-4.642c0-.1.1-.22.22-.22h.54c.1 0 .21.1.21.22v5.6c0 .12-.088.22-.21.22h-.55c-.12 0-.21-.1-.21-.22v-.21c-.605.34-1.1.506-1.75.506-1.32 0-1.914-.825-1.914-2.288v-3.62a.22.22 0 01.22-.22h.528zm-27.57 0a.22.22 0 01.22.22v3.62c0 1.11.374 1.452 1.2 1.452.462 0 .98-.176 1.485-.43v-4.642c0-.1.1-.22.22-.22h.54c.1 0 .21.1.21.22v5.6c0 .12-.088.22-.21.22h-.55c-.12 0-.21-.1-.21-.22v-.21c-.605.34-1.1.506-1.75.506-1.32 0-1.914-.825-1.914-2.288v-3.62a.22.22 0 01.22-.22h.528zm-9.728-.077c.506 0 1.012.055 1.375.12.176.033.22.088.22.242v.396c0 .1-.088.165-.187.165h-.044l-.45-.044-.17-.012-.35-.016-.395-.005c-.88 0-1.375.583-1.375 1.826v.858c0 1.232.484 1.826 1.375 1.826l.915-.033.45-.044h.044c.1 0 .187.055.187.165v.396c0 .143-.044.21-.22.242a7.98 7.98 0 01-1.375.121c-1.496 0-2.343-1.056-2.343-2.673v-.858c0-1.617.836-2.673 2.343-2.673zm24.57-2.123c.495 0 .98.05 1.39.107l.457.07c.1.01.176.044.176.143v.56c0 .066-.022.12-.132.12h-.033l-.513-.04-.432-.028-.458-.022-.445-.01c-1.078 0-1.914.627-1.914 2.497v1.53c0 1.848.836 2.497 1.914 2.497l.214-.002.447-.014.44-.022.713-.05h.044a.15.15 0 01.176.176v.45c0 .132-.1.198-.22.22l-.23.04-.24.035-.265.028-.476.03-.615.01c-1.353 0-2.904-.726-2.904-3.4v-1.53c0-2.695 1.55-3.4 2.904-3.4zm8.176 2.123c1.617 0 2.453 1.067 2.453 2.684v.836c0 1.617-.836 2.684-2.453 2.684s-2.442-1.067-2.442-2.684v-.836c0-1.617.825-2.684 2.442-2.684zM105.25 88c.1 0 .198.088.198.21v7.7c0 .143-.033.22-.23.253-.682.132-1.353.187-2.024.187-1.64 0-2.398-1.067-2.398-2.717v-.792c0-1.727.792-2.695 2.398-2.695.34 0 .858.033 1.287.1V88.21c0-.1.088-.21.21-.21h.56zm-18.324 0c.1 0 .198.088.198.21v7.843c0 .1-.077.22-.198.22h-.572c-.1 0-.198-.1-.198-.22V88.21c0-.1.077-.21.198-.21h.572zm-12.693 0c.1 0 .198.088.198.21v7.843c0 .1-.077.22-.198.22h-.572c-.1 0-.198-.1-.198-.22V88.21c0-.1.077-.21.198-.21h.572zm-12.4 0c.12 0 .21.1.21.22v2.266c.528-.23 1.2-.34 1.683-.34 1.166 0 1.98.67 1.98 2.288v3.62a.22.22 0 01-.22.22h-.528a.22.22 0 01-.22-.22v-3.62c0-1.1-.462-1.44-1.177-1.44-.34 0-1.034.088-1.518.308v4.752c0 .1-.1.22-.22.22h-.54c-.1 0-.21-.1-.21-.22V88.22c0-.12.088-.22.21-.22h.55zm-31.698.1c.12 0 .22.088.22.21v3.036h3.124V88.31c0-.12.1-.21.22-.21h1.09c.12 0 .22.088.22.21v7.744a.22.22 0 01-.22.22h-1.09a.22.22 0 01-.22-.22v-3.366h-3.124v3.366a.22.22 0 01-.22.22h-1.09a.22.22 0 01-.22-.22V88.31c0-.12.1-.21.22-.21h1.09zm9.045-.088c1.694 0 3.168.594 3.168 2.54v.1c0 1.947-1.474 2.574-3.168 2.574l-.187-.004-.792-.04v2.87c0 .12-.088.22-.21.22h-1.1a.22.22 0 01-.22-.22v-7.568c0-.22.132-.297.352-.33a15.023 15.023 0 012.156-.143zm5.76.088c.12 0 .22.088.22.21v7.744a.22.22 0 01-.22.22h-1.09a.22.22 0 01-.22-.22V88.31c0-.12.1-.21.22-.21h1.09zm46.037 2.893c-1.023 0-1.474.704-1.474 1.837v.836c0 1.122.44 1.837 1.474 1.837 1.023 0 1.485-.704 1.485-1.837v-.836c0-1.122-.45-1.837-1.485-1.837zm12.216 0c-1.078 0-1.43.67-1.43 1.848v.792c0 1.2.34 1.87 1.43 1.87l.78-.03.507-.037V91.07c-.363-.066-.935-.077-1.287-.077zm-24.896 1.65c.12 0 .21.077.21.198v.43c0 .1-.088.187-.21.187h-2.19c-.12 0-.21-.066-.21-.187v-.43c0-.1.088-.198.21-.198h2.19zM39.18 89.276l-.26.005-.478.02-.24.018v2.618l.57.023.408.01c1.188 0 1.65-.44 1.65-1.32v-.1c0-.924-.55-1.276-1.65-1.276zm55.214-42.89l.202.342-9.78 9.77c-.188.188-.488.6-.602.938l-.033.122-4.073 10.05a1.48 1.48 0 00-.145.773l-.623.428-.753.564-.453.297c-1.817.97-3.39.55-4.913-.75a15.42 15.42 0 01-.984-.928l-.625-.65c-.828-.872-1.653-1.742-2.695-2.38-1.592-.973-3.38-1.295-5.145-.6-1.438.566-2.517 1.515-3.566 2.563l-1.233 1.255-.32.3c-1.034.982-2.3 1.92-3.734 1.752-1.052-.125-1.883-.873-2.648-1.67l-.69-.735-.68-.663c-1.298-1.13-2.888-1.826-4.618-1.336-1.03.293-1.892.884-2.704 1.546l-.482.404-.713.615-.406.334c-.38.32-.736.697-.673 1.224.093.794.976 1.06 1.625.77.352-.158.626-.412.88-.686l.454-.5.156-.16c.6-.584 1.36-1.166 2.15-1.463 1.345-.505 2.386.195 3.295 1.073l.256.255.615.644c1.095 1.148 2.3 2.232 3.97 2.353 1.706.124 3.266-.69 4.552-1.735l.144-.12.292-.26.296-.28.3-.297 1.087-1.112.323-.32.163-.16.33-.3c1.394-1.27 2.95-2.222 4.758-1.5 1.043.416 1.93 1.154 2.774 1.978l.387.386 1.148 1.178.193.192.39.376c1.373 1.3 2.878 2.278 4.985 1.963a2.92 2.92 0 00.366-.087l.33-.106.386-.14.21-.08.444-.184c1.068-.46 2.326-1.128 3.05-1.804.137-.013.276-.04.414-.09l.14-.06 10.06-4.07c.316-.06.742-.347.98-.56l.08-.075 8.96-8.948c2.974 2.343 4.747 5.633 4.747 9.15 0 6.993-6.713 12.626-15.053 12.775l-.34.003-46.385.004-3.05.04-1.243.01-.807-.002-.397-.005-.782-.018c-3.613-.115-6.69-.69-9.3-2.925-5.997-4.492-1.9-18.07 13.392-15.074 0-7.487 7.795-11.88 16.09-8.585 1.3-8.086 9.794-13.078 18.4-13.377 6.543-.228 13.187 2.28 16.875 8.37zm1.356 2.72c.14.353.27.718.4 1.09l.176.565-7.7 7.693c-1.202 1.2-1.485 2.753-.707 3.53.745.744 2.204.516 3.38-.56l.152-.145 7.324-7.316c.313.133.62.272.92.42l.444.23-7.68 7.67a2.471 2.471 0 00-.718 1.815l.012.162-5.23 1.835-2.824-2.82 1.836-5.226a2.48 2.48 0 001.834-.571l.146-.134 8.247-8.238z" fill="#fff"/></svg>