<svg version="1.1" id="Layer_1" xmlns="http://www.w3.org/2000/svg" x="0" y="0" viewBox="0 0 150 150" xml:space="preserve"><style>.st2{fill:#fff}</style><path id="Rectangle" d="M4 0h142c2.2 0 4 1.8 4 4v142c0 2.2-1.8 4-4 4H4c-2.2 0-4-1.8-4-4V4c0-2.2 1.8-4 4-4z" fill-rule="evenodd" clip-rule="evenodd" fill="#126dc4"/><path id="Fill-1_1_" d="M84.1 50.7h-.5c-7.1.2-14.2 4.4-15.3 11.1-6.9-2.7-13.3.9-13.3 7.1-12.7-2.4-16.1 8.8-11.1 12.6 3.5 3 8 2.4 13.7 2.4h37.7c7.1 0 12.8-4.7 12.8-10.6 0-2.9-1.5-5.7-3.9-7.6l-7.4 7.4c-.2.2-.6.5-.9.5L87.4 77c-.2.1-.4.1-.6.1-1 .9-3.3 1.8-3.9 1.9-2.2.3-3.6-1.1-5-2.6-.9-1-1.9-2-3.1-2.4-.4-.1-.7-.2-1.1-.2-1.6 0-2.9 1.4-4.1 2.6l-1.3 1.3c-1.3 1-2.5 1.5-3.7 1.4-1.4-.1-2.4-1-3.2-1.9l-.2-.2c-.9-1-1.9-2.1-3.4-1.5-.7.3-1.4.8-1.8 1.2-.1.1-.2.2-.3.4-.3.3-.5.6-.9.7-.3.1-.6.1-.9 0-.1-.1-.3-.3-.3-.6-.1-.5.3-.8.7-1.1.1 0 .1-.1.2-.1l.3-.3c.9-.8 1.8-1.5 2.9-1.9 1.6-.4 2.9.3 3.7 1.1.3.2.5.5.8.8.7.8 1.5 1.6 2.6 1.7 1.6.2 2.9-1.2 3.8-2.1l.1-.1c1.1-1.1 2.1-2.1 3.5-2.7 1.3-.5 2.8-.4 4.2.5.8.5 1.5 1.2 2.2 2 .4.5.9.9 1.4 1.3 1.4 1.2 2.7 1.4 4.2.6.2-.1.4-.3.7-.5.2-.2.5-.4.8-.6 0-.2 0-.5.1-.8l3.4-8.3c.1-.3.4-.7.5-.9l8.1-8.1c-2.9-4.8-8.1-7-13.4-7h-.3zm7.8 16.1c-.5.5-1.1.6-1.6.6l-1.6 4.3L91 74l4.3-1.5c-.1-.5.1-1.2.6-1.6l6.4-6.4c-.5-.3-1-.5-1.5-.7l-6 6c-.4.4-.9.7-1.4.8-.4.1-.7 0-1-.2-.5-.5-.2-1.5.6-2.3l6.2-6.2-.6-1.8-6.7 6.7z" fill-rule="evenodd" clip-rule="evenodd" fill="#fff"/><path id="HPI_1_" class="st2" d="M45.4 99c0 .1-.1.2-.2.2h-1c-.1 0-.2-.1-.2-.2v-3.1h-3V99c0 .1-.1.2-.2.2h-1c-.1 0-.2-.1-.2-.2v-7.1c0-.1.1-.2.2-.2h1c.1 0 .2.1.2.2v2.8h3v-2.8c0-.1.1-.2.2-.2h1c.1 0 .2.1.2.2V99zm6.6-5c0 1.8-1.4 2.4-2.9 2.4h-.9v2.7c0 .1-.1.2-.2.2h-1c-.1-.1-.2-.2-.2-.3v-7c0-.2.1-.3.3-.3.5-.1 1.2-.1 2-.1 1.7 0 2.9.5 2.9 2.4zm-1.3 0c0-.9-.5-1.3-1.5-1.3h-.9v2.4h.9c1 .2 1.5-.3 1.5-1.1zm4 5c0 .1-.1.2-.2.2h-1c-.1 0-.2-.1-.2-.2v-7.1c0-.1.1-.2.2-.2h1c.1 0 .2.1.2.2V99z"/><path id="Schul-Cloud_1_" class="st2" d="M63.5 97.3c0 1-.5 2-2.5 2-.7 0-1.2-.1-1.7-.1-.3 0-.3-.1-.3-.2v-.4c0-.1.1-.2.2-.2.5 0 1.2.1 1.7.1 1.2 0 1.5-.5 1.5-1.2 0-.5-.3-.8-1.2-1.4l-1-.6c-.9-.6-1.4-1.1-1.4-1.9 0-1.2.9-1.8 2.4-1.8.6 0 1.4.1 1.8.1.1 0 .2.1.2.2v.4c0 .1-.1.2-.2.2-.4 0-1.2-.1-1.7-.1-1 0-1.5.2-1.5 1 0 .5.3.8 1.1 1.2l.9.6c1.2.7 1.7 1.3 1.7 2.1zm4.7 1.7c0 .1 0 .2-.2.2-.4 0-.8.1-1.3.1-1.4 0-2.2-1-2.2-2.5V96c0-1.5.8-2.5 2.2-2.5.5 0 .9.1 1.3.1.2 0 .2.1.2.2v.5c0 .1-.1.2-.2.2-.4-.1-.8-.1-1.3-.1-.8 0-1.3.5-1.3 1.7v.8c0 1.1.4 1.7 1.3 1.7.5 0 .8 0 1.3-.1.1 0 .2.1.2.2v.3zm5.4 0c0 .1-.1.2-.2.2h-.5c-.1 0-.2-.1-.2-.2v-3.3c0-1-.4-1.3-1.1-1.3-.3 0-1 .1-1.4.3v4.4c0 .1-.1.2-.2.2h-.5c-.1 0-.2-.1-.2-.2v-7.3c0-.1.1-.2.2-.2h.5c.1 0 .2.1.2.2v2.1c.5-.2 1.1-.3 1.6-.3 1.1 0 1.8.6 1.8 2.1.1 0 .1 3.3 0 3.3zm5.8 0c0 .1-.1.2-.2.2h-.5c-.1 0-.2-.1-.2-.2v-.2c-.6.3-1 .5-1.6.5-1.2 0-1.8-.8-1.8-2.1v-3.4c0-.1.1-.2.2-.2h.5c.1 0 .2.1.2.2v3.3c0 1 .3 1.3 1.1 1.3.4 0 .9-.2 1.4-.4v-4.2c0-.1.1-.2.2-.2h.5c.1 0 .2.1.2.2V99zm2.4 0c0 .1-.1.2-.2.2h-.5c-.2 0-.2-.1-.2-.2v-7.2c0-.1.1-.2.2-.2h.5c.1 0 .2.1.2.2V99zm3.6-2.5c0 .1-.1.2-.2.2h-2c-.1 0-.2-.1-.2-.2v-.4c0-.1.1-.2.2-.2h2c.1 0 .2.1.2.2v.4zm6 2.5c0 .1-.1.2-.2.2-.5 0-.9.1-1.7.1-1.2 0-2.7-.7-2.7-3.1v-1.5c0-2.5 1.4-3.1 2.7-3.1.6 0 1.3.1 1.7.2.1 0 .2 0 .2.1v.5c0 .1 0 .1-.1.1-.4 0-1.1-.1-1.7-.1-1 0-1.8.6-1.8 2.3v1.4c0 1.7.8 2.3 1.8 2.3.6 0 1.3-.1 1.7-.1.1 0 .2.1.2.2l-.1.5zm2 0c0 .1-.1.2-.2.2h-.5c-.1 0-.2-.1-.2-.2v-7.2c0-.1.1-.2.2-.2h.5c.1 0 .2.1.2.2V99zm5.8-2.2c0 1.5-.8 2.5-2.3 2.5s-2.3-1-2.3-2.5V96c0-1.5.8-2.5 2.3-2.5s2.3 1 2.3 2.5v.8zm-.8 0V96c0-1-.4-1.7-1.4-1.7-.9 0-1.4.6-1.4 1.7v.8c0 1 .4 1.7 1.4 1.7s1.4-.6 1.4-1.7zm6.4 2.2c0 .1-.1.2-.2.2h-.5c-.1 0-.2-.1-.2-.2v-.2c-.5.3-1 .5-1.6.5-1.2 0-1.8-.8-1.8-2.1v-3.4c0-.1.1-.2.2-.2h.5c.1 0 .2.1.2.2v3.3c0 1 .3 1.3 1.1 1.3.4 0 .9-.2 1.4-.4v-4.2c0-.1.1-.2.2-.2h.5c.1 0 .2.1.2.2V99zm5.6-.1c0 .1 0 .2-.2.2-.7.1-1.3.2-1.9.2-1.5 0-2.2-1-2.2-2.5v-.7c0-1.6.7-2.5 2.2-2.5.3 0 .8 0 1.2.1v-1.9c0-.1.1-.2.2-.2h.5c.1 0 .2.1.2.2v7.1zm-1-.4v-4c-.3-.1-.9-.1-1.2-.1-1 0-1.3.6-1.3 1.7v.7c0 1.1.3 1.7 1.3 1.7h1.2z"/></svg>