<svg width="62" height="61" viewBox="0 0 62 61" xmlns="http://www.w3.org/2000/svg"><g stroke="#000" fill="none" fill-rule="evenodd" opacity=".646"><path d="M43 5.732L19.187 29.544l2.121 11.528 11.311 1.91 23.799-23.787c4.323-6.706 6.765-13.874 3.676-16.962C57.01-.852 49.764 1.509 43 5.732zM56.422 19.19l.015-.016a.086.086 0 0 0-.015.016z"/><path d="M56.685 19.19c-1.547-2.363-3.526-4.8-5.863-7.138-2.528-2.528-5.173-4.636-7.714-6.234m-6.222 33.171c-1.547-2.363-3.526-4.8-5.863-7.138-2.528-2.528-5.173-4.636-7.714-6.234m36.824-13.512a47.475 47.475 0 0 0-4.362-5.003 46.756 46.756 0 0 0-5.825-4.965"/><path d="M54.635 20.967L32.79 42.81l12.726 12.726c3.97-4.08 4.646-6.807 3.952-11.723-.032-.225-.194-1.33-.238-1.645a36.125 36.125 0 0 1-.207-1.748c-.172-1.88-.121-3.576.226-5.387.379-1.979 1.021-4.125 1.883-6.394.971-2.555 2.167-5.132 3.467-7.605l.036-.068zm-17.98 18.127l12.05 12.05M41.2 7.532L19.355 29.376 6.63 16.651c4.08-3.97 6.807-4.647 11.722-3.953.225.032 1.33.194 1.646.238.658.092 1.205.158 1.747.208 1.88.171 3.577.12 5.387-.226 1.98-.38 4.125-1.022 6.394-1.884 2.555-.97 5.133-2.166 7.605-3.466l.069-.036zM23.072 25.511l-12.05-12.05"/><path d="M21.267 40.933l11.575 2.026-3.107 12.168-2.75-2.749-8.426 8.427.581-9.689L4.328 57.84l.178-.178 6.578-14.601-9.689.581 8.427-8.427-2.749-2.748 11.98-3.169 2.214 11.636z" stroke-linecap="round" stroke-linejoin="round"/></g></svg>