<svg xmlns="http://www.w3.org/2000/svg" xmlns:xlink="http://www.w3.org/1999/xlink" viewBox="0 0 42 42"><defs><path id="a" d="M12 4V1L8 5l4 4V6c3.3 0 6 2.7 6 6a5.87 5.87 0 01-.7 2.8l1.46 1.46A7.93 7.93 0 0020 12a8 8 0 00-8-8zm0 14c-3.3 0-6-2.7-6-6a5.87 5.87 0 01.7-2.8L5.24 7.74A7.93 7.93 0 004 12a8 8 0 008 8v3l4-4-4-4v3z"/></defs><g fill="none" fill-rule="evenodd"><circle cx="21" cy="21" r="21" fill="#d8d8d8"/><g transform="translate(9 9)"><mask id="b" fill="#fff"><use xlink:href="#a"/></mask><use fill="#000" fill-rule="nonzero" xlink:href="#a"/><path fill="#fff" mask="url(#b)" d="M0 0h24v24H0z"/></g></g></svg>