<svg width="156" height="156" viewBox="0 0 156 156" xmlns="http://www.w3.org/2000/svg" xmlns:xlink="http://www.w3.org/1999/xlink"><defs><linearGradient x1="100.003%" y1="-.003%" x2=".003%" y2="99.997%" id="c"><stop stop-color="#5284B8" offset="0%"/><stop stop-color="#185888" offset="100%"/></linearGradient><filter x="-3.3%" y="-2.7%" width="106.7%" height="106.7%" filterUnits="objectBoundingBox" id="a"><feOffset dy="1" in="SourceAlpha" result="shadowOffsetOuter1"/><feGaussianBlur stdDeviation="1.5" in="shadowOffsetOuter1" result="shadowBlurOuter1"/><feColorMatrix values="0 0 0 0 0 0 0 0 0 0 0 0 0 0 0 0 0 0 0.2 0" in="shadowBlurOuter1" result="shadowMatrixOuter1"/><feMorphology radius=".5" in="SourceAlpha" result="shadowSpreadOuter2"/><feOffset dy="2" in="shadowSpreadOuter2" result="shadowOffsetOuter2"/><feGaussianBlur stdDeviation=".5" in="shadowOffsetOuter2" result="shadowBlurOuter2"/><feColorMatrix values="0 0 0 0 0 0 0 0 0 0 0 0 0 0 0 0 0 0 0.12 0" in="shadowBlurOuter2" result="shadowMatrixOuter2"/><feOffset dy="1" in="SourceAlpha" result="shadowOffsetOuter3"/><feGaussianBlur stdDeviation=".5" in="shadowOffsetOuter3" result="shadowBlurOuter3"/><feColorMatrix values="0 0 0 0 0 0 0 0 0 0 0 0 0 0 0 0 0 0 0.14 0" in="shadowBlurOuter3" result="shadowMatrixOuter3"/><feMerge><feMergeNode in="shadowMatrixOuter1"/><feMergeNode in="shadowMatrixOuter2"/><feMergeNode in="shadowMatrixOuter3"/></feMerge></filter><path d="M4 0h142c2.2 0 4 1.8 4 4v142c0 2.2-1.8 4-4 4H4c-2.2 0-4-1.8-4-4V4c0-2.2 1.8-4 4-4z" id="b"/></defs><g fill="none" fill-rule="evenodd"><g transform="translate(3 2)"><use fill="#000" filter="url(#a)" xlink:href="#b"/><use fill="#FFF" xlink:href="#b"/></g><path d="M4 0h142c2.2 0 4 1.8 4 4v142c0 2.2-1.8 4-4 4H4c-2.2 0-4-1.8-4-4V4c0-2.2 1.8-4 4-4z" fill="url(#c)" fill-rule="nonzero" transform="translate(3 2)"/><g fill="#FFF"><path d="M64.1 69.1c0-.6-.2-1.1-.7-1.4-.5-.4-1-.7-1.7-1-.7-.3-1.4-.6-2.2-.9-.8-.3-1.6-.7-2.2-1.2-.7-.5-1.3-1.1-1.7-1.8-.5-.7-.7-1.6-.7-2.7 0-.9.2-1.8.5-2.4.3-.7.8-1.3 1.4-1.7.6-.5 1.3-.8 2.2-1 .8-.2 1.8-.3 2.8-.3 1.2 0 2.3.1 3.3.3 1 .2 1.9.5 2.6.8L66.4 59c-.4-.3-1.1-.5-1.9-.7-.9-.2-1.8-.3-2.8-.3-.9 0-1.6.2-2.1.5s-.7.8-.7 1.4c0 .6.2 1 .7 1.4.5.4 1 .7 1.7 1 .7.3 1.4.6 2.2 1 .8.4 1.6.7 2.2 1.2.7.5 1.3 1.1 1.7 1.7.5.7.7 1.6.7 2.6s-.2 1.9-.5 2.7c-.4.7-.9 1.4-1.5 1.9s-1.4.9-2.4 1.1c-.9.2-1.9.4-3 .4-1.5 0-2.7-.1-3.8-.4-1.1-.3-1.9-.5-2.4-.8l1.3-3.2c.2.1.5.2.8.4.3.1.7.2 1.2.4.4.1.9.2 1.4.3.5.1 1 .1 1.5.1 1.2 0 2.1-.2 2.7-.6.4-.6.7-1.2.7-2m17.2 5.3c-.9.2-1.9.3-2.8.3-1.2 0-2.3-.2-3.3-.5-1.1-.4-2-.9-2.8-1.7-.8-.8-1.4-1.8-1.9-3.1s-.7-2.8-.7-4.7c0-1.9.3-3.5.8-4.8.5-1.3 1.2-2.3 2.1-3.1.8-.8 1.8-1.3 2.8-1.7 1-.3 2.1-.5 3.1-.5 1.1 0 1.2 3.4.3 3.4-1.5 0-2.8.5-3.7 1.6-.9 1.1-1.4 2.8-1.4 5.1 0 1 .1 1.9.3 2.7.2.8.6 1.5 1 2.1.5.6 1 1 1.7 1.4.7.3 1.5.5 2.4.5.8 0 1.5-.1 2.1-.2.6-.3.9 3 0 3.2m30-18.6c-.1 0-.1 0 0 0-1.2-8.2-6.5-11.6-11.8-11.6H99c-5.5.2-10.9 4.1-11.7 10.2-1.2-.6-2.4-.9-3.6-.9-.6 0-1.1.1-1.7.2l.3.6c.4.8.4 1.7.4 2.3 0 .4 0 .7-.1 1 .3-.1.6-.2 1-.2.5 0 1.1.2 1.7.5.6.3 1.2.4 1.8.4.7 0 1.3-.2 1.9-.5 1.2-.6 2-1.7 2.1-3 .6-4.3 4.4-6.6 7.9-6.8h.3c4.2 0 7 3 7.8 8.1 0 .2.1.4.1.6v.1c.4 1.2 1.3 2.1 2.5 2.5 2.3.8 3.8 3 3.8 5.4 0 3.2-2.6 5.7-5.7 5.7H84.5c.2.5.4 1 .5 1.8.1.9 0 1.6-.1 2.2h22.9c5.4 0 9.8-4.4 9.8-9.7.1-3.9-2.5-7.5-6.3-8.9zm-57.7 2.8h-5.8v16.1h-3.9V58.6h-5.8v-3.4h15.6v3.4h-.1z"/><path d="M43.9 85.9h-2.4v9h-1.1v-9H38v-1h5.9v1zm8.4 4.4h-3.6v4.6h-1.1v-10h1.1v4.4h3.6v-4.4h1.1v10h-1.1v-4.6zm10-5.4h1v6.7c0 1.2-.2 2.1-.7 2.6-.5.5-1.1.8-2 .8-1 0-1.7-.3-2.2-.8-.5-.5-.7-1.3-.7-2.4v-7h1.1v6.4c0 .5 0 1 .1 1.3.1.4.2.6.3.9.2.2.3.4.6.5.2.1.5.1.8.1.6 0 1.1-.2 1.3-.7.2-.4.4-1.1.4-2.1v-6.3zm-3.6-1.3c0-.2.1-.4.2-.5.1-.1.3-.2.5-.2s.4.1.5.2c.1.1.2.3.2.5s-.1.4-.2.5c-.1.1-.3.2-.5.2s-.4-.1-.5-.2c-.1-.2-.2-.3-.2-.5zm2.3 0c0-.2.1-.4.2-.5.1-.1.3-.2.5-.2s.4.1.5.2c.1.1.2.3.2.5s-.1.4-.2.5c-.1.1-.3.2-.5.2s-.4-.1-.5-.2c-.2-.2-.2-.3-.2-.5zm6.7 1.4c.3-.1.7-.1 1-.2.3-.1.7-.1 1-.1.4 0 .7 0 1 .1.3.1.6.2.9.5.2.2.4.5.6.8.1.3.2.8.2 1.3 0 .8-.2 1.4-.5 1.9s-.8.8-1.3 1l.5.5 1.9 4h-1.2l-2.1-4.4-1.1-.2v4.6h-1.1V85h.2zm1 4.7h.8c.5 0 1-.2 1.3-.5.3-.3.5-.8.5-1.5 0-.5-.1-1-.4-1.3-.3-.3-.6-.5-1.1-.5h-.6c-.2 0-.4 0-.5.1v3.7zm8.5-4.8h1.1v10h-1.1v-10zm7.2 3.7l-.6-1.6.2 1.6V95h-1V84.8h.6l3.7 6.5.6 1.5h.1l-.2-1.5V85h1v10.2h-.6l-3.8-6.6zM95.8 90h2.7v4.4c-.3.2-.6.4-1 .6-.4.1-.8.2-1.3.2s-1-.1-1.4-.3c-.4-.2-.8-.5-1.1-.9-.3-.4-.5-1-.7-1.6-.2-.6-.2-1.4-.2-2.3 0-.9.1-1.7.3-2.4.2-.7.5-1.2.8-1.6.3-.4.7-.7 1.1-.9.4-.2.9-.3 1.3-.3.5 0 .8 0 1.1.1.3.1.6.1.8.3l-.3 1c-.2-.1-.4-.2-.7-.2-.3-.1-.6-.1-.9-.1-.3 0-.6.1-.9.2-.3.1-.6.4-.8.7-.2.3-.4.8-.6 1.3-.2.5-.2 1.2-.2 2 0 1.4.2 2.5.7 3.2.4.7 1.1 1 1.8 1 .5 0 .9-.1 1.2-.4v-2.9l-1.8-.3V90h.1zm6.8-5.1h4.4v1h-3.3v3.4h3.1v1h-3.1V94h3.4v1h-4.5V84.9zm8.6.1c.3-.1.7-.1 1-.2.3-.1.7-.1 1-.1.4 0 .7 0 1 .1.3.1.6.2.9.5.2.2.4.5.6.8.2.3.2.8.2 1.3 0 .8-.2 1.4-.5 1.9s-.8.8-1.3 1l.5.5 1.9 4h-1.2l-2.1-4.4-1.1-.2v4.6H111V85h.2zm1.1 4.7h.8c.5 0 1-.2 1.3-.5.3-.3.5-.8.5-1.5 0-.5-.1-1-.4-1.3-.3-.3-.6-.5-1.1-.5h-.6c-.2 0-.4 0-.5.1v3.7zM42.1 107c0-.3-.1-.6-.3-.8-.2-.2-.4-.4-.7-.6l-.9-.6c-.3-.2-.6-.4-.9-.7-.3-.3-.5-.6-.7-.9-.2-.4-.3-.8-.3-1.3s.1-.9.2-1.2c.1-.3.3-.6.6-.8.3-.2.6-.4.9-.5.3-.1.7-.2 1.1-.2.5 0 .9 0 1.3.1s.8.2 1 .4l-.5 1.6c-.2-.1-.4-.2-.7-.3-.3-.1-.7-.1-1-.1-.3 0-.6.1-.8.2-.2.1-.3.4-.3.7 0 .3.1.5.3.7.2.2.4.4.7.6l.9.6c.3.2.6.4.9.7.3.3.5.6.7 1 .2.4.3.8.3 1.3s-.1.9-.2 1.3-.4.7-.6.9c-.2.2-.6.4-1 .6-.4.1-.8.2-1.3.2-.6 0-1.1-.1-1.5-.2-.4-.1-.8-.2-1-.4l.6-1.6c.2.1.4.2.8.3.3.1.7.2 1.1.2.8-.1 1.3-.5 1.3-1.2zm9.9 2.1c-.2.2-.6.4-1 .5-.4.1-.8.1-1.2.1-.5 0-1-.1-1.4-.3-.4-.2-.8-.5-1.1-.9-.3-.4-.6-1-.8-1.6-.2-.7-.3-1.5-.3-2.5s.1-1.9.3-2.5c.2-.7.5-1.2.8-1.6.3-.4.7-.7 1.2-.8.5-.1.9-.2 1.3-.2.5 0 .9 0 1.2.1.3.1.6.2.8.3l-.4 1.6c-.2-.1-.4-.2-.6-.2-.2-.1-.5-.1-.9-.1-.6 0-1.1.3-1.5.9-.3.6-.5 1.5-.5 2.7 0 .5 0 1 .1 1.4.1.4.2.8.4 1.1.2.3.4.6.7.7.3.2.6.3 1 .3.3 0 .6 0 .8-.1l.6-.3.5 1.4zm6.9-3.8h-2.7v4.2h-1.8v-10h1.8v4.1h2.7v-4.1h1.8v10h-1.8v-4.2zm9-5.8h1.7v6.5c0 1.3-.3 2.2-.8 2.8-.5.6-1.2.9-2.2.9-1.1 0-1.9-.3-2.4-.9-.5-.6-.8-1.4-.8-2.6v-6.8h1.8v6.4c0 .8.1 1.3.3 1.6.2.3.5.5 1 .5s.8-.2 1-.5c.2-.3.3-.9.3-1.6v-6.3h.1zm9.7 10h-5.2v-10h1.8v8.4h3.5v1.6h-.1zm6.7-.4c-.2.2-.6.4-1 .5-.4.1-.8.1-1.2.1-.5 0-1-.1-1.4-.3-.4-.2-.8-.5-1.1-.9-.3-.4-.6-1-.8-1.6-.2-.6-.3-1.5-.3-2.5s.1-1.9.3-2.5c.2-.7.5-1.2.8-1.6.3-.4.7-.7 1.2-.8.5-.1.9-.2 1.3-.2.5 0 .9 0 1.2.1.3.1.6.2.8.3l-.4 1.6c-.2-.1-.4-.2-.6-.2-.2-.1-.5-.1-.9-.1-.6 0-1.1.3-1.5.9-.3.6-.5 1.5-.5 2.7 0 .5 0 1 .1 1.4.1.4.2.8.4 1.1.2.3.4.6.7.7.3.2.6.3 1 .3.3 0 .6 0 .8-.1l.6-.3.5 1.4zm7.7.4h-5.2v-10h1.8v8.4h3.5v1.6H92zm1-5c0-1.7.3-3 .9-3.9.6-.9 1.4-1.3 2.6-1.3.6 0 1.1.1 1.6.4.4.2.8.6 1.1 1 .3.4.5 1 .6 1.6.1.6.2 1.4.2 2.2 0 1.7-.3 3-.9 3.9-.6.9-1.5 1.3-2.6 1.3-.6 0-1.1-.1-1.6-.4-.5-.3-.8-.6-1.1-1-.3-.4-.5-1-.6-1.6-.1-.6-.2-1.4-.2-2.2zm1.8 0c0 .5 0 1 .1 1.4.1.4.2.8.3 1.1.1.3.3.6.5.7.2.2.5.3.8.3.5 0 1-.3 1.2-.8.2-.5.4-1.5.4-2.7 0-.5 0-.9-.1-1.4-.1-.4-.1-.8-.3-1.1-.1-.3-.3-.6-.5-.8-.2-.2-.5-.3-.8-.3-1 .1-1.6 1.2-1.6 3.6zm12.1-5h1.7v6.5c0 1.3-.3 2.2-.8 2.8-.5.6-1.2.9-2.2.9-1.1 0-1.9-.3-2.4-.9-.5-.6-.8-1.4-.8-2.6v-6.8h1.8v6.4c0 .8.1 1.3.3 1.6.2.3.5.5 1 .5s.8-.2 1-.5c.2-.3.3-.9.3-1.6v-6.3h.1zm4.5 0c.2 0 .4-.1.6-.1h1.7c.8 0 1.4.1 1.9.4.5.2.9.6 1.3 1 .3.4.5 1 .7 1.6.2.6.2 1.3.2 2.1 0 .7-.1 1.4-.2 2-.1.6-.3 1.2-.7 1.7-.3.5-.8.9-1.3 1.2-.5.3-1.2.4-2.1.4h-1.7c-.2 0-.4 0-.5-.1V99.5h.1zm2.6 1.5h-.9v6.9h.6c.4 0 .8-.1 1-.3.3-.2.5-.5.6-.8.2-.3.3-.7.3-1.2.1-.4.1-.9.1-1.4 0-.4 0-.9-.1-1.3s-.2-.8-.3-1.1c-.1-.3-.4-.6-.6-.7 0 0-.3-.1-.7-.1z" fill-rule="nonzero"/></g></g></svg>