<svg version="1.1" id="Layer_1" xmlns="http://www.w3.org/2000/svg" x="0" y="0" viewBox="0 0 133 133" xml:space="preserve"><style>.st1{fill-rule:evenodd;clip-rule:evenodd}.st1,.st2{fill:#fff}</style><linearGradient id="Rectangle-Copy-7_1_" gradientUnits="userSpaceOnUse" x1="-742.368" y1="987.955" x2="-743.368" y2="988.955" gradientTransform="matrix(133 0 0 133 98868 -131398)"><stop offset="0" stop-color="#5284b8"/><stop offset="1" stop-color="#185888"/></linearGradient><path id="Rectangle-Copy-7" d="M4 0h125c2.2 0 4 1.8 4 4v125c0 2.2-1.8 4-4 4H4c-2.2 0-4-1.8-4-4V4c0-2.2 1.8-4 4-4z" fill="url(#Rectangle-Copy-7_1_)"/><path id="Fill-1" class="st1" d="M54.2 59.5c0-.5-.2-.9-.6-1.3-.4-.3-.9-.6-1.5-.9-.6-.3-1.3-.5-2-.8-.7-.3-1.4-.6-2-1.1-.6-.4-1.1-.9-1.5-1.6-.4-.6-.6-1.4-.6-2.4 0-.8.1-1.6.4-2.2.3-.6.7-1.1 1.3-1.5.5-.4 1.2-.7 1.9-.9.7-.2 1.6-.3 2.5-.3 1 0 2 .1 3 .3 1 .2 1.7.4 2.3.7l-1.1 2.8c-.4-.2-.9-.4-1.7-.6-.8-.2-1.6-.3-2.5-.3-.8 0-1.5.2-1.9.5s-.7.7-.7 1.2.2.9.6 1.2c.4.3.9.6 1.5.9.6.3 1.3.6 2 .9.7.3 1.4.6 2 1.1.6.4 1.1.9 1.5 1.5.4.6.6 1.4.6 2.3s-.2 1.7-.5 2.4-.8 1.2-1.3 1.7c-.6.4-1.3.8-2.1 1-.8.2-1.7.3-2.7.3-1.3 0-2.4-.1-3.4-.3s-1.7-.5-2.2-.7l1.1-2.9c.2.1.4.2.7.3.3.1.6.2 1 .3.4.1.8.2 1.2.2.4.1.9.1 1.3.1 1 0 1.9-.2 2.4-.5.7-.2 1-.7 1-1.4"/><path id="Fill-3" class="st1" d="M69.4 64.2c-.8.2-1.7.2-2.5.2-1 0-2-.2-3-.5-.9-.3-1.8-.8-2.5-1.5s-1.3-1.6-1.7-2.8c-.4-1.1-.6-2.5-.6-4.1 0-1.7.2-3.1.7-4.2.5-1.1 1.1-2 1.8-2.7.8-.7 1.6-1.2 2.5-1.5 1-.4 1.9-.5 2.9-.5s1 3 .3 3c-1.4 0-2.5.5-3.3 1.4-.8 1-1.3 2.5-1.3 4.5 0 .9.1 1.7.3 2.4.2.7.5 1.3.9 1.9.4.5.9.9 1.5 1.2.6.3 1.3.4 2.1.4.7 0 1.4-.1 1.9-.2.5-.2.8 2.8 0 3"/><path id="Fill-5" class="st1" d="M95.9 47.7s0-.1 0 0c-1-7.2-5.7-10.3-10.4-10.3H85c-4.9.2-9.7 3.6-10.4 9.1-1.1-.5-2.2-.8-3.2-.8-.5 0-1 .1-1.5.2l.3.6c.3.8.4 1.5.4 2 0 .3 0 .6-.1.9.3-.1.6-.2.9-.2.5 0 1 .1 1.5.4.5.2 1.1.4 1.6.4.6 0 1.2-.1 1.7-.4 1-.5 1.7-1.5 1.9-2.6.5-3.8 3.9-5.9 7-6h.3c3.7 0 6.2 2.6 6.9 7.2 0 .2.1.4.1.5v.1c.3 1 1.2 1.9 2.2 2.2 2 .7 3.4 2.6 3.4 4.7 0 2.8-2.3 5.1-5.1 5.1H72.4c.2.4.3.9.4 1.6.1.8 0 1.4-.1 1.9h20.4c4.8 0 8.7-3.9 8.7-8.6-.1-3.6-2.4-6.8-5.9-8zm-51.1 2.5h-5.2v14.2h-3.4V50.2H31v-3h13.8v3z"/><path id="THÜRINGER" class="st2" d="M36.2 74.4h-2.1v8h-.9v-8H31v-.9h5.2v.9zm7.5 3.9h-3.3v4.1h-.9v-8.9h.9v3.9h3.2v-3.9h.9v8.9h-.9v-4.1h.1zm8.8-4.8h.9v6c0 1.1-.2 1.9-.6 2.3s-1 .7-1.8.7c-.9 0-1.5-.2-1.9-.7-.4-.5-.6-1.2-.6-2.1v-6.2h.9v5.7c0 .5 0 .8.1 1.2.1.3.2.6.3.8.1.2.3.3.5.4s.4.1.7.1c.6 0 .9-.2 1.1-.6.2-.4.3-1 .3-1.9l.1-5.7zm-3.1-1.2c0-.2.1-.3.2-.4.1-.1.2-.2.4-.2s.3.1.4.2c.1.1.2.3.2.4s-.1.3-.2.4c-.1.1-.2.2-.4.2s-.3-.1-.4-.2c-.1-.1-.2-.2-.2-.4zm2 0c0-.2.1-.3.2-.4.1-.1.2-.2.3-.2.2 0 .3.1.4.2.1.1.2.3.2.4s0 .3-.1.4c-.1.1-.2.2-.4.2s-.3-.1-.4-.2c-.1-.1-.2-.2-.2-.4zm5.9 1.3c.3-.1.6-.1.9-.1h.9c.3 0 .6 0 .9.1.3.1.5.2.8.4.2.1.4.4.5.7.1.3.2.7.2 1.2 0 .7-.1 1.3-.4 1.7-.3.4-.7.7-1.1.9l.5.5 1.7 3.5h-1.1l-1.9-3.9-.9-.2v4.1h-.9v-8.9h-.1zm.9 4.1h.8c.5 0 .9-.1 1.1-.4.3-.3.4-.7.4-1.4 0-.5-.1-.9-.3-1.2s-.6-.5-1-.5h-.5c-.2 0-.3 0-.4.1v3.4h-.1zm7.6-4.2h.9v8.9h-.9v-8.9zm6.3 3.2l-.5-1.4.1 1.4v5.6h-.9v-9h.6l3.2 5.8.5 1.3h.1l-.2-1.3v-5.6h.9v9h-.6l-3.2-5.8zM82.2 78h2.4v3.9c-.2.2-.5.4-.9.5-.4.1-.7.2-1.1.2-.5 0-.9-.1-1.3-.3-.4-.2-.7-.5-1-.8-.3-.4-.5-.9-.6-1.4s-.1-1.4-.1-2.2c0-.8.1-1.5.3-2.1.2-.6.4-1.1.7-1.4.3-.4.6-.6 1-.8.4-.2.8-.3 1.2-.3.4 0 .7 0 1 .1.3.1.5.1.7.2l-.2.9c-.2-.1-.4-.2-.6-.2s-.5-.1-.8-.1-.6.1-.8.2c-.3.1-.5.3-.7.6-.4.3-.5.7-.7 1.2-.1.5-.2 1.1-.2 1.8 0 1.3.2 2.2.6 2.8.4.6.9.9 1.6.9.4 0 .8-.1 1.1-.3v-2.6l-1.6-.2V78zm6.1-4.5h3.9v.9h-3v3h2.7v.9h-2.7v3.3h3v.9h-4l.1-9zm7.6.1c.3-.1.6-.1.9-.1h.9c.3 0 .6 0 .9.1.4 0 .6.1.8.3.2.2.4.4.5.7.1.3.2.7.2 1.2 0 .7-.1 1.3-.4 1.7-.3.4-.7.7-1.1.9l.4.4 1.7 3.5h-1.1l-1.9-3.9-.9-.2v4.1h-.9v-8.7zm1 4.1h.8c.5 0 .9-.1 1.1-.4.3-.3.4-.7.4-1.4 0-.5-.1-.9-.3-1.2s-.6-.5-1-.5h-.5c-.2 0-.3 0-.4.1l-.1 3.4z"/><path id="SCHULCLOUD" class="st2" d="M34.6 93c0-.3-.1-.5-.2-.7-.2-.2-.4-.4-.6-.5s-.5-.3-.8-.5-.5-.4-.7-.6-.4-.5-.6-.8c-.2-.3-.2-.7-.2-1.2 0-.4.1-.8.2-1.1.1-.3.3-.5.5-.7.2-.2.5-.3.8-.4.3-.1.6-.1 1-.1s.8 0 1.2.1c.3 0 .6.1.8.2l-.5 1.4c-.1-.1-.4-.2-.6-.3-.3 0-.6-.1-.9-.1s-.6.1-.7.2c-.2.2-.3.4-.3.6 0 .2.1.4.2.6.2.2.4.4.6.5.2.2.5.3.8.5.3.2.5.4.8.6.3.2.4.7.6 1s.2.7.2 1.2c0 .4-.1.8-.2 1.2-.1.3-.3.6-.5.8-.2.2-.5.4-.9.5-.4.1-.7.2-1.1.2-.5 0-1-.1-1.4-.2-.4-.1-.7-.2-.9-.3l.5-1.4c.2.1.4.2.7.3.3.1.6.2.9.2.9-.2 1.3-.5 1.3-1.2zm8.8 2c-.2.2-.5.3-.9.4s-.7.1-1.1.1c-.4 0-.9-.1-1.3-.2s-.7-.4-1-.8c-.3-.4-.5-.8-.7-1.4-.2-.6-.2-1.3-.2-2.2s.1-1.6.3-2.2.4-1.1.7-1.4c.3-.4.7-.6 1-.7.4-.1.8-.2 1.2-.2.4 0 .8 0 1.1.1.3.1.6.1.7.2L43 88c-.2-.1-.3-.2-.6-.2-.2-.1-.4-.1-.7-.1-.6 0-1 .3-1.3.8-.3.5-.5 1.3-.5 2.4 0 .5 0 .9.1 1.3s.2.7.3 1c.2.3.3.5.6.6.3.1.5.2.9.2.3 0 .5 0 .7-.1l.6-.3.3 1.4zm6.1-3.4h-2.4v3.8h-1.6v-8.9h1.6v3.7h2.4v-3.7h1.6v8.9h-1.6v-3.8zm8-5.2H59v5.8c0 1.2-.2 2-.7 2.5s-1.1.8-1.9.8c-1 0-1.7-.3-2.1-.8s-.7-1.3-.7-2.3v-6h1.6v5.7c0 .7.1 1.2.3 1.5.2.3.5.4.9.4s.7-.1.9-.4c.2-.3.3-.8.3-1.4l-.1-5.8zm8.6 8.9h-4.6v-8.9H63v7.4h3.1v1.5zm6-.3c-.2.2-.5.3-.9.4s-.7.1-1.1.1c-.4 0-.9-.1-1.3-.2-.4-.2-.7-.4-1-.8-.3-.4-.5-.8-.7-1.4-.2-.6-.2-1.3-.2-2.2s.1-1.6.3-2.2.4-1.1.7-1.4c.3-.4.7-.6 1-.7.4-.1.8-.2 1.2-.2s.8 0 1.1.1c.3.1.6.1.7.2l-.3 1.4c-.2-.1-.3-.2-.6-.2-.2 0-.5-.1-.8-.1-.6 0-1 .3-1.3.8s-.5 1.3-.5 2.4c0 .5 0 .9.1 1.3s.2.7.3 1c.2.3.3.5.6.6.2.2.5.2.9.2.3 0 .5 0 .7-.1l.6-.3.5 1.3zm6.8.3h-4.6v-8.9h1.6v7.4H79l-.1 1.5zm.8-4.4c0-1.5.3-2.7.8-3.4.5-.8 1.3-1.2 2.3-1.2.5 0 1 .1 1.4.3.4.2.7.5 1 .9.3.4.4.9.6 1.5.1.6.2 1.2.2 1.9 0 1.5-.3 2.7-.8 3.4-.5.8-1.3 1.2-2.3 1.2-.5 0-1-.1-1.4-.3-.4-.2-.7-.5-1-.9-.2-.4-.4-.9-.5-1.5-.1-.6-.3-1.2-.3-1.9zm1.7 0c0 .4 0 .9.1 1.3 0 .4.1.7.2 1 .1.3.3.5.4.7.2.2.4.2.7.2.5 0 .8-.2 1.1-.7s.4-1.3.4-2.4c0-.4 0-.8-.1-1.2 0-.4-.1-.7-.2-1-.1-.3-.3-.5-.4-.7-.2-.2-.4-.2-.7-.2-1-.2-1.5.9-1.5 3zm10.7-4.5h1.5v5.8c0 1.2-.2 2-.7 2.5s-1.1.8-1.9.8c-1 0-1.7-.3-2.1-.8-.4-.5-.7-1.3-.7-2.3v-6h1.6v5.7c0 .7.1 1.2.3 1.5.2.3.5.4.9.4s.7-.1.9-.4c.2-.3.3-.8.3-1.4l-.1-5.8zm4 0c.1 0 .3 0 .5-.1s.4 0 .6 0h1.1c.7 0 1.3.1 1.7.3.4.2.8.5 1.1.9.3.4.5.9.6 1.4.1.6.2 1.2.2 1.8s-.1 1.2-.2 1.8c-.1.6-.3 1.1-.6 1.5-.3.4-.7.8-1.1 1-.5.3-1.1.4-1.8.4h-2l-.1-9zm2.3 1.4h-.7v6.1h.6c.4 0 .7-.1.9-.3.2-.2.4-.4.6-.7.1-.3.2-.6.3-1 .1-.4.1-.8.1-1.2s0-.8-.1-1.1c0-.4-.1-.7-.3-1-.1-.3-.3-.5-.5-.7-.3-.1-.6-.1-.9-.1z"/></svg>