<svg version="1.1" id="Layer_1" xmlns="http://www.w3.org/2000/svg" x="0" y="0" viewBox="0 0 133 133" xml:space="preserve"><style/><linearGradient id="Rectangle-Copy-7_1_" gradientUnits="userSpaceOnUse" x1="-742.368" y1="987.955" x2="-743.368" y2="988.955" gradientTransform="matrix(133 0 0 133 98868 -131398)"><stop offset="0" stop-color="#5284b8"/><stop offset="1" stop-color="#185888"/></linearGradient><path id="Rectangle-Copy-7" d="M4 0h125c2.2 0 4 1.8 4 4v125c0 2.2-1.8 4-4 4H4c-2.2 0-4-1.8-4-4V4c0-2.2 1.8-4 4-4z" fill="url(#Rectangle-Copy-7_1_)"/><path d="M39.42 99.397a4.71 4.71 0 011.045.11c.258.06.48.134.67.225l.134.072-.43 1.22-.082-.052a3.139 3.139 0 00-.473-.2c-.246-.073-.51-.1-.797-.1s-.506.06-.66.176-.23.3-.23.517c0 .205.07.387.21.544s.313.3.523.457l.682.456c.246.158.473.34.682.55a2.76 2.76 0 01.523.737c.14.282.21.618.21 1.007s-.057.726-.17 1.012a1.85 1.85 0 01-.484.709c-.21.187-.46.328-.753.424s-.62.143-.98.143a4.8 4.8 0 01-1.193-.132 3.558 3.558 0 01-.667-.232l-.12-.065.45-1.243.095.053c.135.07.305.14.5.21.257.088.532.132.825.132.733 0 1.1-.286 1.1-.858 0-.235-.07-.434-.21-.6s-.313-.32-.523-.468l-.682-.45a4.01 4.01 0 01-.682-.539 2.7 2.7 0 01-.523-.726c-.14-.28-.21-.62-.21-1.023 0-.374.057-.69.17-.952a1.7 1.7 0 01.468-.638 1.89 1.89 0 01.704-.363 3.17 3.17 0 01.869-.115zm6.434 0c.36 0 .673.03.94.088.2.044.374.092.52.144l.136.054-.275 1.22-.147-.068a2.084 2.084 0 00-.342-.103 3.23 3.23 0 00-.666-.06 1.29 1.29 0 00-1.166.66c-.27.44-.407 1.13-.407 2.068 0 .403.03.772.093 1.106s.16.62.297.864.308.43.517.56.46.198.754.198a1.86 1.86 0 00.66-.105c.122-.046.236-.1.342-.156l.153-.09.275 1.166-.122.092a1.922 1.922 0 01-.642.26c-.32.073-.636.1-.952.1-.396 0-.764-.068-1.105-.204a2.2 2.2 0 01-.896-.676c-.257-.315-.458-.73-.605-1.243s-.22-1.144-.22-1.892c0-.777.083-1.423.248-1.936s.38-.922.65-1.226.574-.52.918-.644.693-.187 1.045-.187zm24.34 0c.36 0 .673.03.94.088.2.044.374.092.52.144l.136.054-.275 1.22-.147-.068a2.084 2.084 0 00-.342-.103c-.187-.04-.41-.06-.665-.06a1.29 1.29 0 00-1.166.66c-.27.44-.407 1.13-.407 2.068 0 .403.03.772.094 1.106s.16.62.297.864.308.43.517.56.46.198.754.198a1.86 1.86 0 00.66-.105c.122-.046.236-.1.342-.156l.153-.09.275 1.166-.122.092a1.922 1.922 0 01-.642.26c-.32.073-.636.1-.952.1-.396 0-.764-.068-1.105-.204a2.2 2.2 0 01-.897-.676c-.257-.315-.458-.73-.605-1.243s-.22-1.144-.22-1.892c0-.777.082-1.423.248-1.936s.38-.922.65-1.226.574-.52.918-.644.693-.187 1.045-.187zm10.668 0c.477 0 .887.093 1.232.28s.627.455.847.803.383.77.5 1.265.16 1.047.16 1.655c0 1.305-.23 2.3-.687 2.98s-1.138 1.023-2.04 1.023c-.484 0-.897-.094-1.237-.28a2.29 2.29 0 01-.842-.803c-.22-.348-.38-.77-.484-1.265s-.154-1.047-.154-1.656c0-1.305.224-2.3.67-2.98s1.13-1.023 2.046-1.023zm5.895.154v4.94l.003.194c.016.5.096.854.24 1.066.16.238.43.358.803.358.36 0 .616-.126.77-.38.135-.22.21-.565.227-1.03l.004-.207v-4.94h1.31v4.994l-.004.244c-.03.872-.233 1.513-.606 1.923-.407.447-.97.67-1.69.67-.843 0-1.46-.218-1.853-.654-.357-.397-.55-.983-.584-1.758l-.005-.238v-5.18h1.386zm-29.343 0v4.94l.003.194c.016.5.096.854.24 1.066.16.238.43.358.803.358.36 0 .616-.126.77-.38.135-.22.21-.565.227-1.03l.004-.207v-4.94h1.31v4.994l-.004.244c-.03.872-.233 1.513-.606 1.923-.407.447-.97.67-1.688.67-.843 0-1.46-.218-1.854-.654-.357-.397-.55-.983-.584-1.758l-.005-.238v-5.18h1.386zm36.536-.1c.61 0 1.117.093 1.523.28a2.43 2.43 0 01.979.792c.246.34.42.75.523 1.227s.154 1.008.154 1.595a7.7 7.7 0 01-.148 1.535c-.1.488-.273.917-.523 1.287s-.587.666-1.012.886c-.372.192-.83.3-1.37.325l-.315.004-.307-.01-.506-.028-.62-.042-.187-.02-.073-.01v-7.71l.138-.02.148-.016.4-.03.5-.03.544-.013.13-.001zm-29.838.1v6.424h2.706v1.276h-4.092v-7.7h1.386zm10.81 0v6.424h2.706v1.276h-4.092v-7.7h1.386zm-24.34 0v3.168h2.1V99.55h1.386v7.7h-1.386v-3.256h-2.1v3.256h-1.386v-7.7h1.386zm30.278 1.122c-.843 0-1.265.91-1.265 2.728a8.31 8.31 0 00.066 1.084c.044.334.117.62.22.864s.233.433.4.572.354.21.59.21c.425 0 .744-.216.957-.65s.32-1.126.32-2.08c0-.374-.022-.728-.066-1.06s-.115-.623-.215-.87-.23-.44-.39-.583-.363-.215-.605-.215zm13.23.044l-.358.005-.145.008-.06.007-.075.013v5.302l.066.012.517.032c.33 0 .6-.077.814-.23a1.57 1.57 0 00.501-.616c.12-.257.205-.552.253-.885s.072-.684.072-1.05c0-.337-.02-.664-.06-.98s-.117-.592-.23-.83-.275-.43-.484-.572-.478-.215-.808-.215zM81.396 88.42c.352 0 .647.024.885.072.18.036.338.08.477.135l.133.057-.198.748-.115-.057a2.1 2.1 0 00-.407-.13 3.3 3.3 0 00-.698-.066c-.257 0-.502.055-.737.165s-.446.29-.633.544-.335.585-.445.995-.165.917-.165 1.518c0 1.1.174 1.912.523 2.437s.827.786 1.435.786c.318 0 .6-.064.816-.19l.13-.084v-2.244l-1.42-.21v-.484H83.1V95.8l-.13.11a2.143 2.143 0 01-.662.326 3.32 3.32 0 01-.979.148c-.41 0-.783-.077-1.117-.23a2.16 2.16 0 01-.852-.721c-.235-.326-.416-.74-.544-1.237s-.193-1.096-.193-1.793c0-.72.077-1.33.23-1.83s.36-.913.62-1.232.557-.552.89-.7a2.53 2.53 0 011.028-.22zm-9.964.01l2.85 4.994.45 1.155h.044l-.12-1.155V88.55h.792v7.82h-.506l-2.827-5.005-.473-1.2h-.033l.12 1.2v4.884h-.792v-7.82h.495zm-19.244.12v4.906l.003.23a4.94 4.94 0 00.074.771c.05.27.136.49.253.66a1 1 0 00.44.363 1.69 1.69 0 00.649.11c.484 0 .82-.17 1.007-.506.166-.3.26-.762.277-1.386l.003-.242V88.55h.792v5.16l-.005.248c-.03.804-.2 1.394-.54 1.77-.363.414-.878.62-1.546.62-.777 0-1.344-.202-1.7-.605-.32-.363-.496-.9-.528-1.615l-.005-.244V88.55h.825zm8.5-.088c.286 0 .557.035.814.105s.48.187.67.352a1.74 1.74 0 01.456.649c.114.268.17.603.17 1.007 0 .61-.127 1.096-.38 1.463-.217.314-.494.54-.832.676l-.174.06.418.407 1.518 3.07h-.957l-1.65-3.355-.825-.165v3.52h-.825v-7.623l.25-.053.548-.073.797-.038zm-20.08.088v.76h-1.892v6.94h-.825V89.3H36v-.76h4.61zm3.683 0v3.388h2.838V88.55h.825v7.7h-.825v-3.553h-2.838v3.553h-.825v-7.7h.825zm50.29-.088c.286 0 .557.035.814.105s.48.187.67.352a1.74 1.74 0 01.456.649c.114.268.17.603.17 1.007 0 .61-.126 1.096-.38 1.463-.217.314-.494.54-.832.676l-.174.06.418.407 1.518 3.07h-.957l-1.65-3.355-.825-.165v3.52h-.825v-7.623l.25-.053.548-.073.797-.038zm-4.893.088v.76h-2.596v2.607h2.387v.76h-2.387v2.816h2.65v.76h-3.476v-7.7h3.42zm-22.324 0v7.7h-.825v-7.7h.825zm27.26.67l-.457.017-.3.034-.068.015v2.893h.66c.418 0 .748-.128 1-.385s.363-.65.363-1.177c0-.403-.1-.737-.302-1s-.5-.396-.897-.396zm-33.892 0l-.456.017-.3.034-.068.015v2.893h.66c.418 0 .748-.128 1-.385s.363-.65.363-1.177c0-.403-.1-.737-.303-1s-.5-.396-.897-.396zM54.388 87c.16 0 .288.048.38.143s.138.22.138.374-.046.277-.138.368-.218.138-.38.138c-.154 0-.277-.046-.368-.138s-.138-.214-.138-.368.046-.28.138-.374.215-.143.368-.143zm-1.727 0c.154 0 .277.048.368.143s.138.22.138.374-.046.277-.138.368-.215.138-.368.138c-.16 0-.288-.046-.38-.138s-.138-.214-.138-.368.046-.28.138-.374.218-.143.38-.143zM42.593 55.758v3.486h-5.826V75.75h-3.913V59.244H27v-3.486h15.592zM88.55 44.47c5.335 0 10.634 3.533 11.84 11.84l.027.087c3.9 1.42 6.502 5.153 6.506 9.338 0 5.396-4.25 9.818-9.56 9.966l-.276.004-.88.01c-.482 0-.982-.007-1.49-.01l-1.04-.003-.273.002H74.116c.14-.632.193-1.37.105-2.248a5.959 5.959 0 00-.384-1.644l-.078-.188h20.798l1.653.012.398-.002.48-.007c3.174 0 5.756-2.642 5.756-5.9-.003-2.377-1.437-4.525-3.595-5.416l-.226-.088a4.08 4.08 0 01-2.49-2.587l-.04-.133c-.063-.2-.11-.405-.14-.615-.757-5.194-3.5-8.22-7.55-8.343l-.255-.004a7.05 7.05 0 00-.34.008c-3.473.146-7.302 2.587-7.895 6.967a4.08 4.08 0 01-2.134 3.056 4.067 4.067 0 01-1.91.476 4.08 4.08 0 01-1.814-.426c-.62-.307-1.208-.464-1.75-.464-.36 0-.684.076-.982.214.05-.314.076-.653.076-1.02 0-.6-.073-1.5-.424-2.372a4.473 4.473 0 00-.34-.662 6.416 6.416 0 011.67-.24c1.132 0 2.34.282 3.565.89.855-6.313 6.264-10.265 11.767-10.496.17-.007.34-.01.51-.01z" fill="#fff"/><path d="M50.876 55.36c1.16 0 2.256.1 3.284.3s1.875.5 2.542.87l-1.228 3.284c-.42-.267-1.047-.5-1.885-.728s-1.742-.33-2.713-.33c-.914 0-1.614.18-2.098.544s-.73.847-.73 1.457a1.8 1.8 0 00.672 1.428c.447.38 1.01.733 1.685 1.055l.837.393 1.36.607c.8.343 1.523.758 2.2 1.242s1.238 1.087 1.685 1.8.67 1.603.67 2.67-.175 1.984-.53 2.755-.847 1.413-1.485 1.928-1.41.894-2.313 1.142-1.9.37-2.984.37c-1.428 0-2.685-.132-3.77-.4s-1.885-.532-2.4-.8l1.258-3.342.442.216.37.156a10.8 10.8 0 001.129.37c.42.114.86.21 1.33.286a8.78 8.78 0 001.442.114c1.16 0 2.05-.194 2.67-.586s.93-.983.93-1.784c0-.608-.223-1.104-.67-1.485s-1.01-.728-1.685-1.042l-1.28-.576-.92-.395c-.8-.333-1.523-.743-2.2-1.228s-1.236-1.09-1.684-1.814-.672-1.647-.672-2.77c0-.97.162-1.813.486-2.527s.785-1.3 1.386-1.786 1.3-.828 2.127-1.057 1.734-.343 2.742-.343zm17.28 0c1.14 0 1.198 3.484.343 3.484-1.582 0-2.852.562-3.812 1.686s-1.443 2.864-1.443 5.225c0 1.028.114 1.967.343 2.814s.575 1.57 1.043 2.17 1.046 1.068 1.74 1.4 1.5.5 2.414.5c.855 0 1.58-.086 2.17-.257s.956 3.294.014 3.484-1.908.286-2.898.286c-1.2 0-2.338-.186-3.414-.556s-2.022-.97-2.84-1.8-1.472-1.904-1.957-3.23-.728-2.927-.728-4.812c0-1.96.27-3.603.815-4.927s1.247-2.388 2.112-3.197 1.833-1.39 2.9-1.742a10.14 10.14 0 013.199-.529z" fill="#fff" opacity=".7"/></svg>