<svg width="24" height="24" viewBox="0 0 24 24" xmlns="http://www.w3.org/2000/svg" xmlns:xlink="http://www.w3.org/1999/xlink"><defs><path d="M17.619 9.524H16.19v-3.81a1.904 1.904 0 00-1.904-1.904h-3.81V2.38a2.381 2.381 0 00-4.762 0v1.43h-3.81A1.905 1.905 0 000 5.714v3.62h1.429A2.56 2.56 0 014 11.903a2.56 2.56 0 01-2.571 2.572H0v3.62C0 19.146.853 20 1.905 20h3.619v-1.429A2.56 2.56 0 018.095 16a2.56 2.56 0 012.572 2.571V20h3.619a1.905 1.905 0 001.904-1.905v-3.81h1.429a2.381 2.381 0 000-4.761z" id="a"/></defs><use xlink:href="#a" transform="translate(3 2)"/></svg>