<svg width="156" height="156" viewBox="0 0 156 156" xmlns="http://www.w3.org/2000/svg" xmlns:xlink="http://www.w3.org/1999/xlink"><defs><linearGradient x1="100%" y1="0%" x2="0%" y2="100%" id="c"><stop stop-color="#5284B8" offset="0%"/><stop stop-color="#185888" offset="100%"/></linearGradient><filter x="-3.3%" y="-2.7%" width="106.7%" height="106.7%" filterUnits="objectBoundingBox" id="a"><feOffset dy="1" in="SourceAlpha" result="shadowOffsetOuter1"/><feGaussianBlur stdDeviation="1.5" in="shadowOffsetOuter1" result="shadowBlurOuter1"/><feColorMatrix values="0 0 0 0 0 0 0 0 0 0 0 0 0 0 0 0 0 0 0.2 0" in="shadowBlurOuter1" result="shadowMatrixOuter1"/><feMorphology radius=".5" in="SourceAlpha" result="shadowSpreadOuter2"/><feOffset dy="2" in="shadowSpreadOuter2" result="shadowOffsetOuter2"/><feGaussianBlur stdDeviation=".5" in="shadowOffsetOuter2" result="shadowBlurOuter2"/><feColorMatrix values="0 0 0 0 0 0 0 0 0 0 0 0 0 0 0 0 0 0 0.12 0" in="shadowBlurOuter2" result="shadowMatrixOuter2"/><feOffset dy="1" in="SourceAlpha" result="shadowOffsetOuter3"/><feGaussianBlur stdDeviation=".5" in="shadowOffsetOuter3" result="shadowBlurOuter3"/><feColorMatrix values="0 0 0 0 0 0 0 0 0 0 0 0 0 0 0 0 0 0 0.14 0" in="shadowBlurOuter3" result="shadowMatrixOuter3"/><feMerge><feMergeNode in="shadowMatrixOuter1"/><feMergeNode in="shadowMatrixOuter2"/><feMergeNode in="shadowMatrixOuter3"/></feMerge></filter><rect id="b" x="0" y="0" width="150" height="150" rx="4"/><path id="d" d="M0 .23h79.742v30.437H0z"/></defs><g transform="translate(3 2)" fill="none" fill-rule="evenodd"><use filter="url(#a)" xlink:href="#b" fill="#000"/><rect fill="url(#c)" fill-rule="nonzero" width="150" height="150" rx="4"/><path d="M61.14 67.128c0-.589-.227-1.07-.683-1.438-.456-.368-1.029-.704-1.718-1.008a70.338 70.338 0 00-2.244-.94 11.649 11.649 0 01-2.242-1.188 6.198 6.198 0 01-1.716-1.756c-.456-.7-.685-1.593-.685-2.68 0-.94.165-1.755.495-2.446.33-.69.8-1.267 1.413-1.728.61-.46 1.335-.801 2.168-1.023.835-.22 1.768-.331 2.796-.331 1.184 0 2.3.097 3.348.29 1.048.194 1.912.474 2.592.843l-1.253 3.178c-.427-.258-1.067-.493-1.921-.704a11.465 11.465 0 00-2.766-.318c-.932 0-1.646.175-2.14.526-.496.349-.743.82-.743 1.41 0 .553.229 1.012.685 1.382.456.367 1.029.709 1.718 1.021.688.313 1.435.636 2.24.967a12.37 12.37 0 012.244 1.202 6.293 6.293 0 011.718 1.742c.456.691.683 1.552.683 2.585 0 1.032-.178 1.92-.539 2.667a5.111 5.111 0 01-1.514 1.866c-.649.497-1.437.865-2.359 1.105-.922.239-1.935.358-3.042.358-1.455 0-2.737-.127-3.843-.386-1.105-.258-1.922-.515-2.446-.774l1.283-3.234c.212.11.488.23.827.36.34.128.724.248 1.151.359.427.11.878.204 1.355.276.475.075.965.11 1.47.11 1.184 0 2.09-.188 2.721-.567.631-.376.947-.951.947-1.726m17.168 5.306c-.922.186-1.869.276-2.838.276-1.175 0-2.29-.18-3.343-.538a7.174 7.174 0 01-2.783-1.741c-.801-.802-1.44-1.843-1.916-3.124-.474-1.28-.713-2.833-.713-4.657 0-1.898.265-3.486.798-4.768.53-1.28 1.221-2.311 2.068-3.094a7.641 7.641 0 012.84-1.686 10.039 10.039 0 013.133-.512c1.117 0 1.173 3.372.335 3.372-1.549 0-2.793.543-3.733 1.632-.942 1.085-1.413 2.771-1.413 5.056 0 .995.112 1.903.335 2.723.224.82.564 1.52 1.022 2.1a4.685 4.685 0 001.705 1.355c.682.322 1.469.483 2.364.483.838 0 1.548-.083 2.126-.249.578-.166.936 3.188.013 3.372" fill="#FFF"/><g transform="translate(35 42)"><mask id="e" fill="#fff"><use xlink:href="#d"/></mask><path d="M73.25 11.836c-.01-.028-.017-.059-.027-.085C72.02 3.668 66.733.23 61.41.23c-.17 0-.339.004-.51.01-5.49.225-10.886 4.07-11.74 10.214-1.222-.592-2.427-.865-3.556-.865-.582 0-1.133.095-1.666.234.126.2.243.411.339.644.35.85.423 1.725.423 2.308 0 .356-.027.686-.076.991.297-.133.622-.207.98-.207.54 0 1.127.152 1.745.451a4.154 4.154 0 003.716-.049 3.976 3.976 0 002.13-2.974c.59-4.262 4.41-6.638 7.876-6.78.113-.005.225-.007.338-.007h.001c4.18 0 7.015 2.961 7.786 8.121a3.8 3.8 0 00.138.599c.011.04.032.1.041.13a4.016 4.016 0 002.485 2.516c2.276.809 3.808 2.963 3.811 5.356 0 3.16-2.575 5.732-5.742 5.732h-.095a33.11 33.11 0 01-.783.009c-.344 0-.696-.004-1.055-.007-.393-.004-.793-.008-1.196-.008l-.544.003H46.65c.215.475.387 1.043.462 1.783.088.853.036 1.572-.105 2.187h19.248l.544-.003c.77 0 1.529.015 2.25.015.3 0 .595-.003.88-.01 5.425 0 9.812-4.36 9.812-9.701-.004-4.072-2.6-7.705-6.492-9.086zm-57.693 2.77H9.744v16.061H5.841V14.605H0v-3.391h15.556v3.391z" fill="#FFF" mask="url(#e)"/></g><path d="M40.91 83.91h-2.426v9.044h-1.058V83.91H35v-.99h5.91v.99zm8.38 4.414h-3.638v4.63h-1.058V82.92h1.058v4.414h3.639V82.92h1.058v10.033H49.29v-4.63zm9.976-5.403h1.015v6.722c0 1.214-.233 2.09-.698 2.63-.466.54-1.126.81-1.982.81-.997 0-1.723-.263-2.18-.788-.455-.526-.683-1.333-.683-2.423v-6.951h1.058v6.392c0 .516.033.951.098 1.305.066.353.174.64.325.86.15.22.338.377.564.473.226.095.503.143.832.143.62 0 1.051-.22 1.29-.66.24-.439.36-1.146.36-2.12V82.92zm-3.527-1.347c0-.201.06-.363.177-.488.117-.124.28-.186.486-.186a.62.62 0 01.473.186.68.68 0 01.176.488c0 .2-.059.36-.176.48a.633.633 0 01-.473.179c-.207 0-.369-.06-.486-.18a.655.655 0 01-.177-.48zm2.229 0c0-.201.059-.363.176-.488a.62.62 0 01.473-.186c.207 0 .369.062.486.186a.68.68 0 01.177.488c0 .2-.06.36-.177.48-.117.12-.28.179-.486.179a.633.633 0 01-.473-.18.655.655 0 01-.176-.48zm6.702 1.447a6.97 6.97 0 011.023-.165c.371-.033.712-.05 1.022-.05.367 0 .715.046 1.044.136.33.091.616.244.86.46.245.214.44.496.586.845.146.348.219.786.219 1.311 0 .793-.163 1.429-.487 1.906a2.345 2.345 0 01-1.29.96l.535.531 1.947 3.999h-1.227l-2.116-4.372-1.058-.215v4.587H64.67V83.02zm1.058 4.63h.846c.536 0 .96-.167 1.27-.502.31-.334.465-.846.465-1.534 0-.525-.129-.96-.388-1.304-.258-.344-.641-.516-1.15-.516-.187 0-.382.007-.584.022a2.5 2.5 0 00-.459.064v3.77zm8.508-4.73h1.058v10.033h-1.058V82.92zm7.168 3.67l-.607-1.577h-.042l.155 1.576v6.364h-1.016v-10.19h.635l3.653 6.506.579 1.505h.056l-.155-1.505v-6.35h1.016v10.192h-.65l-3.624-6.522zm11.385 1.36h2.722v4.415c-.263.249-.602.437-1.015.566a4.195 4.195 0 01-1.256.194 3.33 3.33 0 01-1.431-.301 2.78 2.78 0 01-1.094-.939c-.3-.425-.533-.963-.698-1.612-.164-.65-.247-1.429-.247-2.337 0-.936.1-1.731.297-2.386.197-.655.463-1.19.797-1.605a3.077 3.077 0 011.142-.91 3.202 3.202 0 011.319-.287c.451 0 .83.031 1.135.093.306.062.567.146.783.25l-.254.976a2.461 2.461 0 00-.67-.244 4.167 4.167 0 00-.895-.086c-.33 0-.644.072-.945.215-.301.143-.572.38-.811.71-.24.329-.43.761-.572 1.296-.14.536-.211 1.195-.211 1.978 0 1.434.223 2.492.67 3.175.446.683 1.06 1.025 1.84 1.025.49 0 .894-.12 1.213-.358v-2.924l-1.82-.273v-.63zm6.801-5.03h4.387v.989h-3.33v3.397h3.062v.989h-3.061v3.669h3.4v.989H99.59V82.92zm8.635.1c.31-.076.65-.131 1.022-.165.372-.033.713-.05 1.023-.05.367 0 .715.046 1.044.136.329.091.616.244.86.46.245.214.44.496.585.845.146.348.22.786.22 1.311 0 .793-.163 1.429-.487 1.906a2.345 2.345 0 01-1.291.96l.536.531 1.946 3.999h-1.227l-2.116-4.372-1.057-.215v4.587h-1.058V83.02zm1.058 4.63h.846c.536 0 .96-.167 1.27-.502.31-.334.465-.846.465-1.534 0-.525-.13-.96-.388-1.304-.259-.344-.642-.516-1.15-.516-.188 0-.383.007-.585.022a2.5 2.5 0 00-.458.064v3.77zm-70.178 17.305c0-.306-.089-.566-.267-.781a3.518 3.518 0 00-.669-.61 20.164 20.164 0 00-.872-.587 5.145 5.145 0 01-.873-.703 3.52 3.52 0 01-.668-.946c-.178-.363-.268-.808-.268-1.333 0-.488.073-.901.219-1.24.145-.34.344-.617.598-.832.253-.215.553-.373.9-.473.348-.1.718-.15 1.112-.15.479 0 .924.047 1.337.143.413.096.755.225 1.028.387l-.55 1.591c-.159-.114-.396-.22-.71-.315a3.492 3.492 0 00-1.02-.143c-.366 0-.648.076-.845.229-.197.153-.295.377-.295.674 0 .267.089.504.267.71.178.205.401.403.669.594.267.192.558.39.872.595.314.206.605.445.873.717.267.273.49.593.668.96.178.369.268.806.268 1.312 0 .507-.073.947-.219 1.32a2.415 2.415 0 01-.619.924 2.643 2.643 0 01-.964.552 3.97 3.97 0 01-1.252.186 6.026 6.026 0 01-1.527-.172c-.437-.114-.772-.243-1.007-.387l.577-1.62c.188.115.446.23.774.344.329.115.68.172 1.056.172.938 0 1.407-.372 1.407-1.118zm9.897 2.18c-.244.21-.57.362-.978.458a5.324 5.324 0 01-1.217.143 3.73 3.73 0 01-1.415-.265 2.82 2.82 0 01-1.147-.882c-.328-.41-.586-.95-.774-1.62-.187-.669-.281-1.49-.281-2.465 0-1.013.105-1.855.316-2.524.212-.669.488-1.201.83-1.598a2.848 2.848 0 011.176-.839 3.841 3.841 0 011.337-.243c.46 0 .86.038 1.203.114.343.077.622.163.838.258l-.352 1.592a2.422 2.422 0 00-.627-.223 4.014 4.014 0 00-.851-.078c-.647 0-1.145.286-1.492.86-.347.573-.52 1.472-.52 2.695 0 .526.04 1.006.12 1.44.079.436.206.81.38 1.126.173.316.393.56.66.731.268.172.59.258.965.258.328 0 .61-.045.844-.136.235-.09.446-.198.633-.322l.352 1.52zm6.885-3.843H53.2v4.244h-1.773V97.5H53.2v4.13h2.688V97.5h1.774v10.036h-1.774v-4.244zm8.968-5.792h1.675v6.509c0 1.3-.26 2.241-.781 2.824-.52.583-1.24.875-2.16.875-1.08 0-1.87-.285-2.372-.853-.502-.569-.753-1.436-.753-2.602V97.5h1.774v6.437c0 .784.103 1.331.31 1.642.206.31.548.466 1.027.466.46 0 .788-.165.985-.495.197-.33.295-.867.295-1.613V97.5zm9.714 10.036h-5.235V97.5h1.773v8.373h3.462v1.663zm6.773-.402c-.244.21-.57.363-.979.459a5.324 5.324 0 01-1.217.143 3.73 3.73 0 01-1.414-.265 2.82 2.82 0 01-1.147-.882c-.329-.41-.587-.95-.774-1.62-.188-.669-.282-1.49-.282-2.465 0-1.013.106-1.855.317-2.524.21-.669.488-1.201.83-1.598a2.848 2.848 0 011.175-.839 3.841 3.841 0 011.337-.243c.46 0 .861.038 1.204.114.342.077.621.163.837.258l-.352 1.592a2.422 2.422 0 00-.626-.223 4.014 4.014 0 00-.852-.078c-.647 0-1.144.286-1.491.86-.348.573-.521 1.472-.521 2.695 0 .526.04 1.006.12 1.44.08.436.206.81.38 1.126.173.316.394.56.661.731.267.172.589.258.964.258.328 0 .61-.045.844-.136.235-.09.446-.198.634-.322l.352 1.52zm7.659.402h-5.236V97.5h1.774v8.373H89v1.663zm.96-5.018c0-1.701.286-2.996.858-3.885.573-.889 1.445-1.333 2.618-1.333.61 0 1.135.121 1.576.365.441.244.802.593 1.084 1.047.281.454.49 1.003.626 1.648s.204 1.365.204 2.158c0 1.701-.293 2.996-.88 3.885-.586.889-1.456 1.333-2.61 1.333-.62 0-1.147-.122-1.583-.365a2.953 2.953 0 01-1.077-1.047c-.281-.454-.488-1.003-.62-1.648a10.848 10.848 0 01-.196-2.158zm1.858 0c0 .506.028.977.084 1.412.056.435.15.81.281 1.125.132.316.298.564.5.746.202.182.453.272.753.272.544 0 .952-.282 1.224-.846.272-.563.408-1.467.408-2.709 0-.487-.028-.949-.084-1.383a4.745 4.745 0 00-.274-1.133 1.987 1.987 0 00-.5-.76 1.112 1.112 0 00-.774-.28c-1.079 0-1.618 1.186-1.618 3.556zm12.078-5.018h1.674v6.509c0 1.3-.26 2.241-.78 2.824-.521.583-1.241.875-2.16.875-1.08 0-1.87-.285-2.372-.853-.502-.569-.753-1.436-.753-2.602V97.5h1.773v6.437c0 .784.103 1.331.31 1.642.206.31.549.466 1.027.466.46 0 .788-.165.985-.495.197-.33.296-.867.296-1.613V97.5zm4.478 0c.17-.028.36-.05.57-.064l.648-.043c.22-.015.434-.024.64-.029.206-.005.39-.007.549-.007.779 0 1.428.122 1.949.366.52.243.938.587 1.253 1.032.314.444.537.977.668 1.598a10.1 10.1 0 01.197 2.079c0 .698-.063 1.364-.19 2a4.66 4.66 0 01-.668 1.677c-.32.483-.751.868-1.295 1.154-.544.287-1.23.43-2.055.43-.122 0-.286-.004-.493-.014-.206-.01-.422-.022-.647-.036l-.647-.043a5.2 5.2 0 01-.479-.05V97.5zm2.59 1.52c-.15 0-.303.002-.458.007a2.002 2.002 0 00-.359.036v6.91a.66.66 0 00.148.021 28.444 28.444 0 00.45.03c.071.004.12.006.148.006.423 0 .77-.1 1.042-.3a2.05 2.05 0 00.64-.804 4.08 4.08 0 00.324-1.154c.06-.434.091-.89.091-1.369 0-.44-.025-.865-.077-1.276a3.602 3.602 0 00-.296-1.082A1.84 1.84 0 00112 99.3c-.267-.186-.612-.28-1.034-.28z" fill="#FFF" fill-rule="nonzero"/></g></svg>