<svg width="378" height="338" viewBox="0 0 378 338" fill="none" xmlns="http://www.w3.org/2000/svg">
<path fill-rule="evenodd" clip-rule="evenodd" d="M255.545 302.805C313.42 302.805 355.585 312.636 355.585 320.14C355.585 327.644 308.668 337.805 250.792 337.805C192.917 337.805 146 327.644 146 320.14C146 312.636 197.669 302.805 255.545 302.805Z" fill="#ECEEF0"/>
<path d="M191.377 294.981L89.1018 273.558V182.915L191.377 204.34V294.981Z" fill="#C49165"/>
<g style="mix-blend-mode:multiply" opacity="0.45">
<path d="M191.377 294.981L89.1018 273.558V182.915L191.377 204.34V294.981Z" fill="#D7A478"/>
</g>
<path d="M0.849207 306.517L89.1018 273.558V182.915L0.849207 215.877C0.849207 215.877 0.421646 306.946 0.849207 306.519V306.517Z" fill="#D79E6E"/>
<path d="M103.125 327.942L191.377 294.981V204.338L103.125 237.299C103.125 237.299 102.697 328.369 103.125 327.942Z" fill="#D79E6E"/>
<g opacity="0.25">
<path d="M103.125 327.942L191.377 294.981V204.338L103.125 237.299C103.125 237.299 102.697 328.369 103.125 327.942Z" fill="url(#paint0_linear_210_699)"/>
</g>
<path d="M103.125 327.942L0.849121 306.517V215.875L103.125 237.299V327.942Z" fill="#EDBB7D"/>
<path d="M102.919 237.372L191.404 204.156L89.109 182.695L0.625488 215.909L102.919 237.372Z" fill="#D7A478"/>
<g style="mix-blend-mode:multiply">
<path d="M102.919 237.372L191.404 204.156L103.431 236.35L0.625488 215.909L102.919 237.372Z" fill="#D7A478"/>
</g>
<path d="M130.283 191.126L45.635 225.106L61.2347 228.428L143.581 194.192L130.283 191.126Z" fill="#875B40"/>
<path d="M45.6765 225.069L45.8172 247.831L46.6092 246.984L47.2893 248.254L48.0525 247.238L48.7308 248.593L49.7266 247.559L50.3003 248.975L51.2601 248.069L52.0827 249.483L53.3059 248.58L54.0762 249.95L54.9259 249.017L55.9434 250.543L56.665 249.357L57.4281 250.756L58.2778 249.95L59.0825 251.307L59.9322 250.459L60.9785 251.857L61.1481 228.376L45.6765 225.069Z" fill="#AC7454"/>
<path d="M215.68 202.525L113.406 181.1V90.4589L215.68 111.884V202.525Z" fill="#C49165"/>
<g style="mix-blend-mode:multiply" opacity="0.45">
<path d="M215.68 202.525L113.406 181.1V90.4589L215.68 111.884V202.525Z" fill="#D7A478"/>
</g>
<path d="M25.1537 214.062L113.406 181.102V90.4589L25.1537 123.421C25.1537 123.421 24.7261 214.491 25.1537 214.063V214.062Z" fill="#D79E6E"/>
<path d="M127.427 235.486L215.68 202.525V111.882L127.427 144.843C127.427 144.843 127 235.913 127.427 235.486Z" fill="#D79E6E"/>
<path d="M127.427 235.486L25.1536 214.062V123.419L127.427 144.843V235.486Z" fill="#EDBB7D"/>
<g opacity="0.25">
<path d="M127.427 235.486L25.1536 214.062V123.419L127.427 144.843V235.486Z" fill="url(#paint1_linear_210_699)"/>
</g>
<path d="M127.223 144.914L215.707 111.7L113.413 90.239L24.928 123.453L127.223 144.914Z" fill="#D7A478"/>
<g style="mix-blend-mode:multiply">
<path d="M127.223 144.914L215.707 111.7L127.734 143.892L24.928 123.453L127.223 144.914Z" fill="#D7A478"/>
</g>
<path d="M154.587 98.6705L69.9375 132.65L85.5372 135.972L167.885 101.736L154.587 98.6705Z" fill="#875B40"/>
<path d="M69.9807 132.613L70.1214 155.375L70.9134 154.528L71.5917 155.798L72.3549 154.782L73.035 156.137L74.029 155.101L74.6045 156.519L75.5643 155.613L76.3869 157.027L77.6101 156.123L78.3804 157.494L79.2283 156.561L80.2476 158.087L80.9674 156.9L81.7323 158.3L82.5802 157.494L83.3867 158.85L84.2346 158.003L85.2827 159.401L85.4505 135.92L69.9807 132.613Z" fill="#AC7454"/>
<g opacity="0.25">
<path d="M127.734 143.892L215.707 111.444L191.109 106.284L113.965 141.098L127.734 143.892Z" fill="url(#paint2_linear_210_699)"/>
</g>
<path d="M191.108 112.287L88.8347 90.8627V0.219894L191.108 21.6446V112.287Z" fill="#C49165"/>
<g style="mix-blend-mode:multiply" opacity="0.45">
<path d="M191.108 112.287L88.8347 90.8627V0.219894L191.108 21.6446V112.287Z" fill="#D7A478"/>
</g>
<path d="M0.580408 123.823L88.833 90.8627V0.219894L0.580408 33.1816C0.580408 33.1816 0.152847 124.251 0.580408 123.824V123.823Z" fill="#D79E6E"/>
<path d="M102.856 145.247L191.109 112.286V21.6446L102.856 54.6063C102.856 54.6063 102.428 145.676 102.856 145.249V145.247Z" fill="#D79E6E"/>
<path d="M102.856 145.247L0.580322 123.823V33.1815L102.856 54.6045V145.247Z" fill="#EDBB7D"/>
<path d="M102.65 54.6766L191.136 21.4608L88.8402 0L0.356689 33.214L102.65 54.6766Z" fill="#D7A478"/>
<g style="mix-blend-mode:multiply">
<path d="M102.65 54.6766L191.136 21.4608L103.163 53.6546L0.356689 33.214L102.65 54.6766Z" fill="#D7A478"/>
</g>
<path d="M130.014 8.43147L45.3662 42.4133L60.9659 45.7332L143.312 11.4973L130.014 8.43147Z" fill="#875B40"/>
<path d="M45.4077 42.3754L45.5484 65.1357L46.3404 64.2886L47.0205 65.5593L47.7837 64.5427L48.462 65.8999L49.4578 64.8635L50.0315 66.2802L50.9913 65.3736L51.8139 66.7885L53.0371 65.8855L53.8074 67.2553L54.6571 66.3235L55.6746 67.8483L56.3962 66.6623L57.1593 68.0609L58.009 67.2553L58.8137 68.6125L59.6634 67.7635L60.7097 69.1622L60.8793 45.681L45.4077 42.3754Z" fill="#AC7454"/>
<path opacity="0.25" d="M103.431 236.35L13.4631 218.461L25.1534 214.062L113.747 232.574L103.431 236.35Z" fill="url(#paint3_linear_210_699)"/>
<path fill-rule="evenodd" clip-rule="evenodd" d="M231.03 277.805L235.296 278.156L230.328 310.228L238.902 307.345C239.835 307.365 240.602 308.056 240.718 308.953L240.732 309.123L229.788 314.959L203.679 329.684L203.604 329.11C203.524 328.44 203.421 327.383 203.526 327.072C203.551 327 203.608 326.952 203.684 326.917L203.765 326.886L203.739 326.883L219.853 316.676L193 320.613L193.01 320.493C193.053 320.086 193.243 318.752 193.968 318.193C194.657 317.662 203.613 316.428 210.487 315.547L218.414 314.566L197.724 314.959L197.746 314.742C197.799 314.345 197.962 313.516 198.423 313.248C200.573 311.991 214.755 311.732 222.011 311.682L226.273 311.673L231.03 277.805ZM270.029 277.805L274.786 311.673L277.843 311.675C284.594 311.705 300.359 311.918 302.636 313.248C303.25 313.606 303.335 314.959 303.335 314.959L282.644 314.566L288.063 315.229C295.025 316.102 306.314 317.595 307.091 318.193C307.951 318.856 308.059 320.613 308.059 320.613L281.206 316.676L297.32 326.883L297.294 326.886C297.41 326.923 297.499 326.976 297.533 327.072C297.69 327.539 297.38 329.684 297.38 329.684L271.271 314.959L257.359 314.566C257.393 313.589 258.197 312.81 259.189 312.789L271.271 312.317L265.763 278.156L270.029 277.805Z" fill="#E98404"/>
<path fill-rule="evenodd" clip-rule="evenodd" d="M254.264 28.9335L254.594 28.9218C256.349 28.8794 257.986 29.0633 259.505 29.4734L260.091 29.6363L260.637 29.798L261 29.912V29.912L261.337 30.0241V30.0241L261.65 30.1344V30.1344L261.939 30.2429V30.2429L262.204 30.3497V30.3497L262.445 30.455C262.522 30.4898 262.595 30.5244 262.664 30.5588L262.86 30.6611C263.755 31.1527 263.881 31.5981 263.467 32.0417L263.374 32.1334C263.357 32.1487 263.339 32.164 263.321 32.1793L263.206 32.2711V32.2711L263.076 32.3631V32.3631L262.933 32.4553V32.4553L262.776 32.5479V32.5479L262.606 32.6409V32.6409L262.424 32.7344V32.7344L262.229 32.8285V32.8285L262.023 32.9233V32.9233L261.694 33.067V33.067L261.341 33.2126V33.2126L260.837 33.4105C260.794 33.4272 260.75 33.444 260.706 33.4607C277.067 34.4284 284.698 54.8647 287.932 67.8499L288.178 68.8591V68.8591L288.406 69.8344V69.8344L288.618 70.7728V70.7728L288.812 71.6714V71.6714L288.99 72.5273C289.018 72.6663 289.046 72.8033 289.073 72.9383L289.227 73.7246V73.7246L289.366 74.4608V74.4608L289.547 75.4647V75.4647L289.65 76.0628V76.0628L289.816 77.0749V77.0749C289.89 77.555 289.56 78.004 289.08 78.0776C288.999 78.0901 288.916 78.0911 288.835 78.0806L286.373 77.7643L286.407 77.8938L286.569 78.4217L286.745 78.9533L287.03 79.7771V79.7771L287.283 80.4923V80.4923L288.197 83.022V83.022L289.595 86.8839V86.8839L290.173 88.5094V88.5094L290.61 89.7657V89.7657L290.817 90.3704V90.3704L291.108 91.2388V91.2388L291.371 92.0514V92.0514L291.53 92.5566V92.5566L291.672 93.0289V93.0289L291.798 93.4651V93.4651L291.905 93.8619C291.97 94.1126 292.022 94.3349 292.059 94.5244L292.098 94.7349V94.7349L292.166 95.1355C292.176 95.2001 292.186 95.2636 292.195 95.326L292.243 95.6874C292.256 95.8036 292.268 95.9156 292.277 96.0235L292.298 96.335V96.335L292.308 96.6226C292.322 97.9097 291.944 98.4373 291.363 98.5193C291.203 98.5419 290.976 98.4052 290.681 98.1092L290.54 97.9612C290.491 97.9081 290.441 97.8513 290.389 97.7907L290.229 97.5975V97.5975L290.059 97.3817C290.03 97.3438 290 97.305 289.971 97.2653L289.786 97.0156V97.0156L289.593 96.7432V96.7432L289.284 96.2923V96.2923L289.066 95.9634V95.9634L288.721 95.4276V95.4276L288.355 94.8409V94.8409L287.967 94.2034V94.2034L287.558 93.5149V93.5149L287.273 93.0286L292.042 108.854L292.169 108.855L296.776 123.748C299.475 125.548 302.496 127.669 305.544 130.017L305.461 129.4V129.4L305.337 128.519V128.519L305.212 127.689V127.689L305.087 126.908V126.908L304.921 125.941V125.941L304.798 125.27V125.27L304.676 124.643V124.643L304.556 124.06V124.06L304.438 123.518V123.518L304.322 123.016V123.016L304.21 122.553V122.553L304.031 121.863V121.863L303.929 121.496V121.496L303.769 120.958V120.958L303.57 120.348V120.348L303.495 120.133V120.133L303.365 119.78V119.78L303.196 119.341V119.341L303.171 119.26V119.26L303.163 119.218V119.218L303.163 119.197V119.197L303.168 119.183V119.183L303.178 119.174V119.174L303.192 119.169C303.195 119.169 303.198 119.169 303.201 119.169L301.77 115.08V115.08L300.784 112.311V112.311L300.514 111.577V111.577L300.38 111.237V111.237L300.36 111.195C300.358 111.191 300.356 111.189 300.355 111.188C300.005 111.067 299.685 110.942 299.394 110.814C296.51 109.55 296.12 105.549 299.053 104.436L299.18 104.39V104.39L299.036 104.426V104.426L298.84 104.465V104.465L298.719 104.483V104.483L298.584 104.499V104.499L298.36 104.516C298.334 104.517 298.307 104.518 298.28 104.518L298.112 104.519C298.055 104.518 297.996 104.515 297.936 104.512L297.754 104.495C296.731 104.374 295.452 103.767 294.91 101.629C294.422 99.704 294.711 97.3759 297.014 95.7045L297.08 95.6569L297.028 95.6795V95.6795L296.951 95.7078V95.7078L296.87 95.7312C296.857 95.7346 296.843 95.7378 296.829 95.7407L296.745 95.7547C296.168 95.8254 295.483 95.3626 295.433 92.818L295.43 92.4305C295.431 92.3634 295.432 92.295 295.433 92.2254C295.462 90.4587 297.03 88.5836 300.234 86.7114L300.692 86.4502C301.082 86.2325 301.495 86.015 301.929 85.7977L302.462 85.5372C303.186 85.19 303.968 84.8437 304.807 84.499L305.448 84.2408C305.665 84.1549 305.886 84.069 306.11 83.9833L306.794 83.7266C307.142 83.5984 307.497 83.4705 307.861 83.3429L310.305 82.7165L310.412 81.8953V81.8953L310.577 80.744V80.744L310.705 79.9086V79.9086L310.857 78.9654V78.9654L311.033 77.9315V77.9315L311.131 77.3858V77.3858L311.288 76.5375V76.5375L311.4 75.9551V75.9551L311.579 75.0617V75.0617L311.707 74.4559V74.4559L311.84 73.8446V73.8446L311.979 73.2297V73.2297L312.124 72.6135V72.6135L312.275 71.998V71.998L312.431 71.3854V71.3854L312.594 70.7779C312.622 70.6772 312.649 70.5768 312.678 70.4767L312.849 69.8807C312.994 69.3881 313.146 68.9062 313.304 68.4408L313.496 67.8904C314.438 65.2716 315.584 63.2774 316.929 62.9911C318.365 62.6859 319.367 63.6993 320.382 65.557L320.567 65.9039V65.9039L320.753 66.2689V66.2689L320.94 66.6511V66.6511L321.129 67.0501V67.0501L321.321 67.4652V67.4652L321.715 68.341V68.341L322.562 70.2575V70.2575L323.025 71.2882V71.2882L323.268 71.8194V71.8194L323.519 72.3603V72.3603L323.78 72.9103V72.9103L324.051 73.4688V73.4688L324.332 74.0352V74.0352L324.624 74.6087V74.6087L324.928 75.1888V75.1888L325.244 75.7749C326.588 78.2282 328.266 80.8197 330.474 83.3429L330.634 83.5221V83.5221L332.567 85.6V85.6L333.372 86.4742V86.4742L334.282 87.4743V87.4743L334.943 88.2093V88.2093L335.645 88.9978V88.9978L336.386 89.839V89.839L337.164 90.7317C337.297 90.8848 337.431 91.0399 337.566 91.1972L338.395 92.1656C338.536 92.3311 338.678 92.4987 338.822 92.6683L339.697 93.7103C340.142 94.2433 340.598 94.7943 341.062 95.3627L342.004 96.5225C351.854 108.744 365.329 128.248 371.588 150.326L372.201 152.506V152.506L372.587 153.897V153.897L372.956 155.241V155.241L373.308 156.539V156.539L373.804 158.402V158.402L374.263 160.17V160.17L374.549 161.298V161.298L374.819 162.388V162.388L375.074 163.439V163.439L375.315 164.455V164.455L375.541 165.437V165.437L375.752 166.386V166.386L375.95 167.303V167.303L376.135 168.19V168.19L376.306 169.048C376.361 169.329 376.414 169.606 376.465 169.879L376.611 170.684C376.634 170.816 376.657 170.948 376.679 171.078L376.807 171.847V171.847L376.923 172.595C376.942 172.717 376.96 172.839 376.977 172.961L377.077 173.677C377.108 173.913 377.138 174.146 377.166 174.376L377.244 175.057V175.057L377.312 175.723V175.723L377.371 176.375V176.375L377.42 177.014V177.014L377.461 177.642C377.472 177.85 377.483 178.056 377.492 178.261L377.515 178.87C377.518 178.971 377.521 179.072 377.524 179.173L377.535 179.773C377.536 179.872 377.537 179.972 377.538 180.071L377.538 180.665C377.537 180.763 377.536 180.862 377.535 180.961L377.525 181.551V181.551L377.508 182.141V182.141L377.485 182.733V182.733L377.44 183.625V183.625L377.404 184.226V184.226L377.362 184.832V184.832L377.316 185.447V185.447L377.238 186.386V186.386L377.122 187.679V187.679L376.785 191.185V191.185C375.208 207.52 366.11 214.902 359.947 218.25L359.433 218.524C359.349 218.568 359.265 218.611 359.182 218.654L358.692 218.899V218.899L358.22 219.128C358.142 219.164 358.066 219.2 357.99 219.235L357.547 219.439V219.439L357.124 219.626V219.626L356.532 219.878V219.878L355.995 220.099V220.099L354.763 220.59V220.59L354.576 220.668V220.668L354.571 221.096V221.096L354.558 221.572V221.572L354.544 221.913V221.913L354.524 222.268V222.268L354.497 222.635V222.635L354.463 223.011V223.011L354.42 223.393C354.412 223.457 354.403 223.521 354.395 223.585L354.337 223.97C354.055 225.703 353.446 227.396 352.143 227.851C350.945 228.27 349.785 228.224 348.746 227.87C348.564 230.426 347.384 232.651 344.067 232.944C341.019 233.214 339.161 231.513 338.043 229.252L337.891 228.933C337.696 228.503 337.525 228.056 337.377 227.601L337.213 227.71V227.71L337.05 227.811V227.811L336.759 227.981V227.981L336.583 228.076V228.076L336.391 228.175V228.175L336.182 228.277C336.146 228.294 336.109 228.311 336.072 228.328L335.841 228.429C335.801 228.446 335.761 228.462 335.72 228.479L335.47 228.576C335.385 228.607 335.298 228.638 335.209 228.667L334.939 228.751C333.839 229.067 332.54 229.156 331.428 228.447C329.561 227.258 328.889 225.894 328.587 224.729L328.527 224.482C328.518 224.441 328.509 224.401 328.501 224.361L328.455 224.125V224.125L328.399 223.787V223.787L328.307 223.175V223.175L328.26 222.908V222.908L328.224 222.745C328.192 222.616 328.154 222.5 328.105 222.402C327.772 222.5 327.44 222.589 327.108 222.669C334.165 256.334 313.343 286.633 287.273 293.71C274.477 297.183 264.143 298.267 253.336 298.253L252.16 298.247V298.247L251.077 298.233C239.685 298.043 227.657 296.417 212.882 290.914C183.336 279.909 174.192 244.261 178.213 219.539C177.77 219.473 177.323 219.391 176.874 219.291C176.85 219.351 176.829 219.417 176.812 219.488L176.781 219.636C176.776 219.662 176.772 219.688 176.768 219.715L176.747 219.883V219.883L176.721 220.157V220.157L176.681 220.668V220.668L176.661 220.89V220.89L176.635 221.12V221.12L176.603 221.358V221.358L176.562 221.604V221.604L176.509 221.856C176.258 222.964 175.655 224.241 174.033 225.441C172.818 226.34 171.28 226.194 170.081 225.845L169.829 225.767C169.788 225.754 169.748 225.74 169.708 225.726L169.475 225.643V225.643L169.255 225.558V225.558L169.052 225.473V225.473L168.865 225.39V225.39L168.619 225.273V225.273L168.364 225.143V225.143L168.146 225.021V225.021L168.054 225.368C168.038 225.425 168.022 225.483 168.005 225.54L167.9 225.882C167.881 225.938 167.863 225.995 167.843 226.051L167.724 226.386C166.81 228.818 165.091 230.771 161.957 230.715C158.688 230.654 157.379 228.554 157.026 226.063C156.032 226.481 154.899 226.605 153.696 226.277C152.194 225.868 151.478 223.797 151.125 221.879L151.061 221.51V221.51L151.006 221.148V221.148L150.958 220.795V220.795L150.917 220.455V220.455L150.868 219.975V219.975L150.821 219.406V219.406L150.524 219.307V219.307L149.217 218.889V218.889L148.657 218.701V218.701L148.253 218.56V218.56L147.826 218.405C147.753 218.378 147.679 218.351 147.604 218.323L147.145 218.147C147.067 218.116 146.988 218.085 146.908 218.053L146.42 217.854C146.337 217.819 146.254 217.784 146.169 217.748L145.655 217.524V217.524L145.126 217.282C145.036 217.241 144.946 217.198 144.855 217.155L144.305 216.886C138.085 213.773 129.556 207.042 127.041 192.041L126.47 188.629V188.629L126.317 187.681V187.681L126.128 186.456V186.456L126.041 185.857V185.857L125.958 185.265V185.265L125.881 184.68V184.68L125.809 184.098C125.798 184.001 125.787 183.905 125.776 183.808L125.713 183.231V183.231L125.656 182.654C125.647 182.557 125.638 182.461 125.63 182.365L125.583 181.786V181.786L125.542 181.204C125.53 181.01 125.519 180.815 125.509 180.618L125.482 180.026C125.478 179.927 125.475 179.828 125.472 179.728L125.456 179.125C125.45 178.821 125.448 178.513 125.448 178.202L125.452 177.572C125.454 177.466 125.455 177.359 125.458 177.252L125.475 176.603C125.478 176.493 125.482 176.383 125.486 176.272L125.517 175.599C125.528 175.372 125.541 175.142 125.556 174.909L125.604 174.199C125.613 174.08 125.622 173.959 125.632 173.837L125.695 173.097C125.729 172.721 125.766 172.337 125.807 171.944L125.895 171.145V171.145L125.994 170.32V170.32L126.103 169.467V169.467L126.223 168.586V168.586L126.354 167.674V167.674L126.496 166.73C126.521 166.57 126.546 166.408 126.572 166.246L126.732 165.251V165.251L126.904 164.221V164.221L127.088 163.155V163.155L127.285 162.05V162.05L127.494 160.905V160.905L127.716 159.719V159.719L127.952 158.49V158.49L128.33 156.563V156.563L128.739 154.533V154.533L129.029 153.119V153.119L129.334 151.654V151.654C133.432 132.085 143.232 114.111 151.545 101.472L152.446 100.115C152.893 99.4467 153.335 98.795 153.77 98.1602L154.632 96.9133C154.917 96.5053 155.198 96.105 155.475 95.7125L156.297 94.5589V94.5589L157.096 93.4535V93.4535L157.869 92.3974C157.996 92.2256 158.122 92.0559 158.246 91.8883L158.978 90.9082V90.9082L159.679 89.9803V89.9803L160.347 89.1054V89.1054L160.981 88.2847V88.2847L161.863 87.1577V87.1577L162.401 86.4772V86.4772L163.757 84.7879V84.7879L164.787 83.5152V83.5152L165.026 83.2107V83.2107C166.22 81.6367 167.226 80.0517 168.087 78.4964L168.424 77.876V77.876L168.746 77.2593C168.956 76.8496 169.157 76.4428 169.349 76.0396L169.631 75.4377V75.4377L169.901 74.8419C169.945 74.7431 169.988 74.6446 170.031 74.5464L170.283 73.9608V73.9608L170.525 73.3826C170.565 73.2869 170.604 73.1916 170.642 73.0966L170.869 72.5308V72.5308L171.087 71.9741V71.9741L171.297 71.4269V71.4269L171.597 70.6252V70.6252L172.662 67.6858V67.6858L172.986 66.8156V66.8156L173.145 66.4037V66.4037L173.302 66.008V66.008L173.459 65.6292V65.6292L173.616 65.2677C173.642 65.2089 173.668 65.1509 173.695 65.0936L173.853 64.7593V64.7593L174.013 64.4438C174.791 62.9652 175.647 62.1668 176.902 62.3431C178.345 62.5463 179.697 64.7122 180.859 67.5094L181.075 68.0409V68.0409L181.286 68.5853V68.5853L181.492 69.1406C181.56 69.3273 181.627 69.5154 181.693 69.7048L181.89 70.276V70.276L182.081 70.8523V70.8523L182.266 71.4316C182.297 71.5283 182.327 71.6251 182.357 71.7218L182.621 72.5918V72.5918L182.872 73.4555V73.4555L183.11 74.3065V74.3065L183.334 75.138V75.138L183.609 76.2053V76.2053L183.857 77.2108V77.2108L184.025 77.915V77.915L184.269 78.9741V78.9741L184.558 80.3033V80.3033L184.744 81.2152L187.181 81.6616L187.549 81.7634V81.7634L188.268 81.9688V81.9688L188.965 82.1765V82.1765L189.641 82.3866V82.3866L190.294 82.5989C190.508 82.67 190.719 82.7415 190.926 82.8133L191.535 83.0298C191.635 83.066 191.734 83.1024 191.832 83.1388L192.409 83.3583V83.3583L192.965 83.5796V83.5796L193.499 83.8027C197.683 85.595 199.797 87.5543 199.966 89.5126L199.996 89.9119C200 89.976 200.004 90.0388 200.007 90.1004L200.02 90.4555C200.066 92.5574 199.508 93.0526 198.983 93.0615L198.898 93.0588C198.884 93.0577 198.87 93.0563 198.856 93.0547L198.773 93.0412V93.0412L198.692 93.0219V93.0219L198.614 92.9977V92.9977L198.586 92.9877L198.656 93.0296C200.968 94.4733 201.446 96.6607 201.147 98.5492L201.123 98.6903C200.719 100.924 199.408 101.567 198.391 101.716L198.215 101.738C198.186 101.741 198.158 101.743 198.13 101.745L197.966 101.754C197.939 101.755 197.913 101.755 197.887 101.755L197.738 101.754V101.754L197.538 101.744V101.744L197.322 101.721V101.721L197.103 101.682V101.682C200.208 102.479 200.144 106.535 197.358 107.996C197.082 108.142 196.777 108.285 196.443 108.429L196.437 108.438V108.438L196.412 108.502V108.502L196.321 108.795V108.795L196.095 109.574V109.574L195.383 112.121V112.121L194.201 116.442V116.442L194.21 116.442V116.442L194.224 116.446V116.446L194.234 116.454C194.236 116.456 194.237 116.458 194.238 116.461L194.241 116.478V116.478L194.239 116.516V116.516L194.209 116.64V116.64L193.991 117.366V117.366L193.869 117.818V117.818L193.755 118.284V118.284L193.658 118.72V118.72L193.557 119.215V119.215L193.454 119.773V119.773L193.375 120.235V120.235L193.295 120.736V120.736L193.19 121.467V121.467L193.137 121.86V121.86L193.034 122.705V122.705L192.935 123.63V123.63L192.84 124.638V124.638L192.772 125.452V125.452L192.708 126.315V126.315L192.648 127.231V127.231C195.084 125.069 197.512 123.072 199.751 121.314L200.77 120.52V120.52L201.484 118.504V118.504L202.186 116.511V116.511L202.871 114.546V114.546L203.539 112.612V112.612L204.188 110.714C204.294 110.4 204.4 110.089 204.504 109.779L205.05 108.151V108.151L205.51 106.763V106.763L205.955 105.403V105.403L206.384 104.074V104.074L206.796 102.777V102.777L207.19 101.513C207.254 101.306 207.317 101.1 207.38 100.895L207.746 99.686V99.686L208.092 98.5155C208.148 98.3237 208.203 98.1336 208.257 97.9452L210.049 90.6199L207.555 93.0277C206.216 94.2986 205.495 93.8596 205.226 92.6837L205.187 92.492C205.182 92.4591 205.176 92.4257 205.171 92.3919L205.143 92.1834C205.139 92.1478 205.136 92.1118 205.132 92.0754L205.115 91.8521V91.8521L205.105 91.6199C205.104 91.5805 205.103 91.5408 205.103 91.5008L205.103 91.257V91.257L205.11 91.0065V91.0065L205.123 90.7501C205.126 90.7069 205.129 90.6635 205.132 90.6199L205.205 89.8702L205.344 88.6126L205.426 87.9605C205.439 87.8562 205.453 87.7538 205.467 87.6533L205.552 87.0695V87.0695L205.641 86.5167V86.5167L205.73 86.0127L205.867 85.3121V85.3121L206.047 84.4773V84.4773L206.286 83.4473V83.4473L207.301 79.2372V79.2372L207.766 77.2439V77.2439L208.236 75.1712V75.1712L208.691 73.1159V73.1159L209.538 69.2036L209.954 67.3198L210.313 65.7437V65.7437L210.593 64.5465V64.5465L210.885 63.339V63.339L211.086 62.5294V62.5294L211.293 61.7169C211.328 61.5813 211.363 61.4456 211.399 61.3098L211.615 60.4942V60.4942L211.837 59.6775V59.6775L212.067 58.8603V58.8603L212.303 58.0432V58.0432L212.546 57.2271V57.2271L212.798 56.4125V56.4125L213.057 55.6001C213.188 55.1946 213.323 54.7902 213.461 54.3873L213.741 53.5835C213.836 53.3163 213.933 53.0499 214.031 52.7843L214.329 51.9905C217.464 43.8174 222.132 36.6051 229.815 33.7474L231.019 33.3058L233.419 32.4364L233.833 32.2835V32.2835L234.653 31.9746V31.9746L235.458 31.6601C237.453 30.8651 239.285 29.9982 240.73 28.9158C241.89 28.0466 243.354 26.489 244.739 24.7735L245.152 24.2546V24.2546L245.557 23.7295C245.624 23.6416 245.691 23.5537 245.757 23.4656L246.148 22.937C246.404 22.5848 246.652 22.2337 246.889 21.888L247.235 21.374C247.963 20.2713 248.554 19.2477 248.901 18.4489L249.007 18.1923C249.603 16.6703 251.391 17.6466 252.842 19.7224L253.025 19.9932C253.237 20.316 253.439 20.6618 253.627 21.026L253.785 21.3426C254.865 23.5891 255.389 26.4521 254.264 28.9335Z" fill="#2876D0"/>
<path fill-rule="evenodd" clip-rule="evenodd" d="M327.109 222.669C327.441 222.589 327.773 222.5 328.105 222.402C328.233 222.661 328.288 223.035 328.353 223.483C328.547 224.81 328.837 226.796 331.428 228.447C333.931 230.042 337.377 227.601 337.377 227.601C338.361 230.616 340.31 233.276 344.067 232.945C347.384 232.651 348.564 230.426 348.746 227.87C349.785 228.224 350.945 228.27 352.143 227.851C354.364 227.076 354.568 222.708 354.576 220.669C354.758 220.59 355 220.494 355.293 220.379C359.562 218.694 374.706 212.716 376.785 191.185C376.822 190.804 376.858 190.432 376.893 190.068C378.022 178.469 378.417 174.415 371.588 150.327C362.236 117.339 336.777 90.0987 331.366 84.3094C330.936 83.849 330.632 83.5243 330.474 83.3431C326.151 78.4013 323.857 73.198 322.131 69.2826C320.333 65.2012 319.151 62.5192 316.929 62.9912C312.578 63.9174 310.305 82.7167 310.305 82.7167L307.861 83.3431C299.489 86.2766 295.479 89.3906 295.433 92.2255C295.373 95.8707 296.434 95.9439 297.077 95.6591C294.717 97.3336 294.417 99.6866 294.91 101.629C295.879 105.451 299.205 104.382 299.205 104.382C296.108 105.412 296.461 109.528 299.394 110.814C299.685 110.942 300.005 111.067 300.355 111.188C300.435 111.217 303.201 119.169 303.201 119.169C303.127 119.169 303.163 119.262 303.279 119.56C303.616 120.424 304.624 123.008 305.544 130.017C302.497 127.67 299.476 125.549 296.777 123.749L326.16 218.734C326.52 220.05 326.836 221.362 327.109 222.669ZM297.552 95.3487C297.552 95.3487 297.353 95.5369 297.077 95.6591C297.227 95.5528 297.385 95.4493 297.552 95.3487Z" fill="black" fill-opacity="0.2"/>
<path fill-rule="evenodd" clip-rule="evenodd" d="M365.24 157.657C358.324 150.459 349.111 150.488 344.662 157.723C340.213 164.956 342.213 176.656 349.129 183.854C356.045 191.052 365.258 191.024 369.707 183.789C374.156 176.555 372.156 164.856 365.24 157.657ZM335.986 134.817C330.856 128.217 323.181 127.434 318.842 133.07C314.503 138.705 315.145 148.625 320.275 155.225C325.405 161.825 333.08 162.608 337.419 156.972C341.757 151.337 341.116 141.418 335.986 134.817ZM361.816 105.61C353.028 100.3 343.883 102.781 341.388 111.153C338.894 119.524 343.995 130.617 352.783 135.927C361.57 141.237 370.716 138.756 373.21 130.384C375.705 122.013 370.603 110.921 361.816 105.61Z" fill="black" fill-opacity="0.1"/>
<path fill-rule="evenodd" clip-rule="evenodd" d="M200.769 120.52C198.258 122.461 195.459 124.736 192.648 127.231C193.07 120.301 193.88 117.7 194.151 116.83C194.244 116.531 194.274 116.437 194.201 116.442C194.201 116.442 196.366 108.461 196.443 108.428C196.777 108.285 197.082 108.141 197.358 107.996C200.144 106.535 200.208 102.478 197.103 101.681C197.103 101.681 200.435 102.5 201.123 98.6897C201.472 96.7524 201.018 94.4676 198.59 92.9887C199.24 93.2237 200.275 93.0793 199.966 89.512C199.726 86.7377 195.584 83.9615 187.181 81.6609L184.744 81.2146C184.744 81.2146 181.228 62.9518 176.902 62.3425C174.693 62.0322 173.719 64.7409 172.236 68.8628C170.814 72.8172 168.923 78.0722 165.026 83.2101C164.883 83.3985 164.608 83.7374 164.218 84.218C159.314 90.2608 136.236 118.694 129.334 151.654C124.294 175.722 124.958 179.667 126.858 190.954C126.918 191.308 126.979 191.671 127.041 192.041C130.553 212.993 145.8 217.812 150.098 219.171C150.393 219.264 150.636 219.341 150.821 219.406C150.968 221.403 151.467 225.669 153.696 226.276C154.899 226.605 156.032 226.48 157.026 226.062C157.379 228.554 158.688 230.653 161.957 230.713C165.661 230.781 167.389 228.041 168.146 225.02C168.146 225.02 171.69 227.175 174.033 225.441C176.457 223.646 176.606 221.681 176.705 220.367C176.738 219.923 176.766 219.554 176.874 219.29C177.322 219.39 177.769 219.472 178.213 219.539C178.257 219.269 178.302 219.001 178.349 218.733L182.803 200.611C181.666 201.977 180.8 202.461 180.206 202.065C178.217 200.737 183.958 179.712 188.858 173.441L189.485 172.668C189.879 172.176 190.141 171.826 190.292 171.591L190.389 171.206C190.197 171.218 189.568 171.661 188.728 172.251L188.728 172.251C186.722 173.661 183.515 175.915 182.218 175.152C181.043 174.461 186.729 158.974 193.292 141.095L193.292 141.094L193.292 141.094C195.767 134.354 198.366 127.275 200.769 120.52ZM198.59 92.9887C198.436 92.8948 198.274 92.8042 198.104 92.7171C198.104 92.7171 198.312 92.8879 198.59 92.9887Z" fill="black" fill-opacity="0.2"/>
<path fill-rule="evenodd" clip-rule="evenodd" d="M136.055 158.401C142.338 150.875 151.366 150.272 156.221 157.055C161.075 163.837 159.918 175.437 153.635 182.963C147.352 190.489 138.324 191.093 133.469 184.309C128.615 177.527 129.773 165.927 136.055 158.401ZM163.152 134.02C167.726 127.202 175.192 125.909 179.829 131.134C184.466 136.357 184.517 146.12 179.943 152.938C175.37 159.756 167.903 161.049 163.266 155.824C158.629 150.601 158.578 140.838 163.152 134.02ZM135.844 107.175C144.09 101.37 153.22 103.175 156.238 111.206C159.255 119.237 155.017 130.454 146.771 136.259C138.526 142.063 129.395 140.259 126.378 132.227C123.361 124.196 127.599 112.98 135.844 107.175Z" fill="black" fill-opacity="0.1"/>
<path fill-rule="evenodd" clip-rule="evenodd" d="M239.627 144.479C241.204 140.441 243.979 136.49 245.283 136.825C246.586 137.159 245.622 140.246 245.283 141.53L244.832 143.252C240.114 161.444 238.364 174.078 239.523 180.937L239.627 181.501C240.628 186.52 243.041 187.341 248.68 184.245L249.308 183.892C249.308 183.892 253.773 180.612 254.314 181.012C254.855 181.412 252.904 186.55 252.904 186.55C247.858 206.367 245.76 220.05 246.572 227.385L246.641 227.96C247.312 233.068 248.972 233.718 253.729 230.575L254.26 230.217C254.26 230.217 257.755 227.192 258.27 227.469C258.784 227.745 258.091 232.277 258.091 232.277C257.765 241.023 258.527 246.85 260.177 249.557C261.333 251.453 263.742 253.278 266.966 251.209C268.094 250.485 270.083 249.677 270.818 250.789C271.553 251.901 269.897 252.805 268.768 253.529C263.453 256.939 258.768 256.577 255.996 252.031C254.147 248.998 253.232 244.093 253.145 237.208L253.139 236.321L252.97 236.391C245.283 241.985 240.988 235.619 240.026 227.96C239.063 220.3 242.511 209.073 246.415 192.535L246.977 190.184L246.793 190.241C240.498 192.084 236.121 189.307 234.775 182.085L234.712 181.726C233.369 173.785 233.387 160.46 239.627 144.479Z" fill="black" fill-opacity="0.1"/>
<rect width="60" height="55" transform="translate(218 41.8047)" fill="#2876D0"/>
<path fill-rule="evenodd" clip-rule="evenodd" d="M219.036 60.7263C219.242 57.5023 222.081 49.8739 228.681 50.7864C235.282 51.699 237.404 57.5234 237.198 60.7478C236.992 63.9723 231.812 69.9726 228.342 69.214C224.871 68.4554 218.83 63.9507 219.036 60.7263ZM276.023 60.7263C276.23 63.9507 270.188 68.4554 266.718 69.214C263.247 69.9726 258.067 63.9723 257.861 60.7478C257.655 57.5234 259.777 51.699 266.378 50.7864C272.979 49.8739 275.817 57.5023 276.023 60.7263Z" fill="white"/>
<path fill-rule="evenodd" clip-rule="evenodd" d="M257.848 67.8301C257.401 85.9898 246.467 94.9362 246.467 94.9362L245.926 94.1781C243.722 91.0167 235.552 78.4988 235.552 66.7134L257.848 67.8301Z" fill="#AF6303"/>
<path fill-rule="evenodd" clip-rule="evenodd" d="M257.221 68.6902C257.837 77.3927 246.634 90.3375 246.634 90.3375L245.754 89.0534C243.714 86.0153 238.808 78.3177 238.4 73.999L257.221 68.6902Z" fill="#9E292B"/>
<path fill-rule="evenodd" clip-rule="evenodd" d="M247.283 55.5109C250.821 55.5109 252.853 56.5507 253.63 61.1375C254.345 65.3573 257.309 63.1515 257.848 66.9791L257.869 67.1478C258.017 68.5248 257.741 71.2269 253.63 77.1139C250.607 81.4436 247.527 84.6715 244.39 86.7976C241.456 83.2625 239.459 80.2681 238.4 77.8143C236.19 72.6943 235.65 69.0181 235.542 66.9791C235.385 64.029 239.342 63.9381 240.542 61.1375L240.767 60.6183C241.696 58.5125 243.304 55.5109 247.283 55.5109Z" fill="#F7A600"/>
<path fill-rule="evenodd" clip-rule="evenodd" d="M229.444 55.0355C231.985 54.9471 234.123 57.1002 234.219 59.8447C234.315 62.5892 232.334 64.8856 229.792 64.974C227.251 65.0624 225.113 62.9094 225.017 60.1649C224.921 57.4204 226.902 55.124 229.444 55.0355ZM265.616 55.0355C268.157 55.124 270.139 57.4204 270.043 60.1649C269.947 62.9094 267.809 65.0624 265.267 64.974C262.726 64.8856 260.744 62.5892 260.84 59.8447C260.937 57.1002 263.074 54.9471 265.616 55.0355Z" fill="#9E292B"/>
<path fill-rule="evenodd" clip-rule="evenodd" d="M258.818 45.3919C259.134 43.7168 263.159 41.4026 266.116 41.8645C267.716 42.1143 266.96 42.7877 265.928 43.3534C266.13 43.3485 266.335 43.346 266.542 43.346C270.808 43.346 274.267 44.4166 274.267 45.7373C274.267 47.0579 270.808 48.1286 266.542 48.1286C262.275 48.1286 258.816 47.0579 258.816 45.7373C258.816 45.707 258.818 45.6769 258.822 45.6469C258.801 45.5772 258.799 45.4927 258.818 45.3919ZM229.487 41.9496C232.444 41.4877 236.469 43.8019 236.786 45.477C236.805 45.5785 236.803 45.6634 236.782 45.7334C236.785 45.763 236.787 45.7926 236.787 45.8224C236.787 47.1431 233.328 48.2137 229.061 48.2137C224.795 48.2137 221.336 47.1431 221.336 45.8224C221.336 44.5017 224.795 43.4311 229.061 43.4311C229.268 43.4311 229.473 43.4336 229.676 43.4386C228.644 42.8729 227.888 42.1995 229.487 41.9496ZM229.444 55.0355C231.985 54.9471 234.123 57.1002 234.219 59.8447C234.315 62.5892 232.334 64.8856 229.792 64.974C227.251 65.0624 225.113 62.9093 225.017 60.1649C224.921 57.4204 226.902 55.1239 229.444 55.0355ZM265.616 55.0355C268.157 55.1239 270.139 57.4204 270.043 60.1649C269.947 62.9093 267.809 65.0624 265.267 64.974C262.726 64.8856 260.744 62.5892 260.841 59.8447C260.937 57.1002 263.074 54.9471 265.616 55.0355ZM243.944 86.2564C244.642 87.3754 245.276 88.3421 245.754 89.0534L246.634 90.3375C246.634 90.3375 256.012 79.5026 257.136 70.9941C256.524 72.5149 255.455 74.5006 253.63 77.1139C250.607 81.4435 247.527 84.6714 244.39 86.7976C244.239 86.6158 244.09 86.4354 243.944 86.2564Z" fill="black" fill-opacity="0.8"/>
<defs>
<linearGradient id="paint0_linear_210_699" x1="94.2543" y1="319.087" x2="200.143" y2="213.099" gradientUnits="userSpaceOnUse">
<stop stop-opacity="0"/>
<stop offset="1"/>
</linearGradient>
<linearGradient id="paint1_linear_210_699" x1="87.4242" y1="242.534" x2="65.1971" y2="116.364" gradientUnits="userSpaceOnUse">
<stop stop-color="#AC7454"/>
<stop offset="1" stop-color="#AC7454"/>
</linearGradient>
<linearGradient id="paint2_linear_210_699" x1="166.734" y1="137.023" x2="162.216" y2="111.374" gradientUnits="userSpaceOnUse">
<stop stop-color="#AC7454"/>
<stop offset="1" stop-color="#AC7454"/>
</linearGradient>
<linearGradient id="paint3_linear_210_699" x1="55.0689" y1="233.951" x2="62.642" y2="213.595" gradientUnits="userSpaceOnUse">
<stop stop-color="#AC7454"/>
<stop offset="1" stop-color="#AC7454"/>
</linearGradient>
</defs>
</svg>
