<svg width="275" height="343" viewBox="0 0 275 343" fill="none" xmlns="http://www.w3.org/2000/svg">
<path fill-rule="evenodd" clip-rule="evenodd" d="M142.134 304.56C190.213 304.56 225.242 315.358 225.242 323.599C225.242 331.841 186.265 343 138.186 343C90.1058 343 51.1294 331.841 51.1294 323.599C51.1294 315.358 94.0539 304.56 142.134 304.56Z" fill="#ECEEF0"/>
<path fill-rule="evenodd" clip-rule="evenodd" d="M117.794 281.891L122.398 282.276L117.037 317.465L126.288 314.303C127.296 314.325 128.123 315.083 128.248 316.067L128.264 316.254L116.454 322.657L88.2794 338.813L88.1991 338.184C88.1126 337.449 88.0019 336.289 88.1151 335.947C88.1421 335.868 88.2032 335.816 88.2847 335.777L88.3724 335.743L88.3449 335.74L105.733 324.541L76.7559 328.861L76.7673 328.729C76.8128 328.282 77.0188 326.818 77.8004 326.205C78.5437 325.623 88.2082 324.269 95.6262 323.302L104.181 322.226L81.8532 322.657L81.878 322.419C81.935 321.983 82.1111 321.074 82.6085 320.78C84.9286 319.401 100.232 319.116 108.062 319.061L112.66 319.051L117.794 281.891ZM159.878 281.891L165.012 319.051L168.31 319.054C175.595 319.086 192.607 319.32 195.064 320.78C195.727 321.172 195.819 322.657 195.819 322.657L173.491 322.226L179.338 322.954C186.851 323.911 199.033 325.549 199.872 326.205C200.8 326.933 200.916 328.861 200.916 328.861L171.939 324.541L189.327 335.74L189.3 335.743C189.424 335.783 189.521 335.842 189.557 335.947C189.727 336.459 189.393 338.813 189.393 338.813L161.218 322.657L146.206 322.226C146.243 321.153 147.11 320.299 148.181 320.276L161.218 319.758L155.274 282.276L159.878 281.891Z" fill="#E98404"/>
<path fill-rule="evenodd" clip-rule="evenodd" d="M145.635 37.0894C145.635 37.0894 150.037 35.8716 156.483 28.9158C162.93 21.9599 156.025 40.6632 152.579 41.9702C167.136 42.2371 170.135 51.9793 173.623 63.3099L173.623 63.3104C174.174 65.0998 174.737 66.9289 175.359 68.7664C178.008 76.5843 179.02 79.1013 180.012 81.5724L180.012 81.5726C180.335 82.3757 180.656 83.1739 181.03 84.1477C181.297 84.8424 181.863 85.961 182.484 87.1868L182.485 87.1875C183.934 90.0488 185.678 93.4935 184.6 93.4935C183.06 93.4935 177.899 89.9009 177.899 89.9009C177.899 89.9009 184.345 105.932 187.134 108.973C189.922 112.013 181.212 110.388 178.869 106.356L180.375 111.354C190.312 116.264 198.086 122.822 198.086 122.822L189.422 79.0151C188.923 77.4292 188.828 76.3167 189.137 75.6778C189.761 74.3911 191.455 74.5046 194.222 76.0181L194.771 76.3285C194.864 76.3832 194.959 76.4393 195.055 76.4968L195.644 76.8597L196.26 77.2575L196.384 77.3395C196.448 77.3823 196.513 77.4257 196.578 77.4695L197.234 77.9198C197.345 77.9977 197.458 78.0772 197.572 78.158L198.268 78.6607C198.504 78.8341 198.745 79.0134 198.99 79.1984C206.815 74.5709 213.035 56.168 215.681 48.3391L215.681 48.339L215.681 48.3385C216.344 46.3768 216.783 45.0792 216.966 44.8287C217.88 43.5788 219.362 42.5394 220.265 43.2628C221.611 44.3419 222.242 46.8106 222.731 50.1263L222.856 51.0102L223.036 52.4033C224.802 48.0748 226.527 46.1057 228.209 46.4958C228.692 46.608 229.391 47.7438 230.67 52.8158C231.949 57.8878 229.177 76.7184 229.177 76.7184C229.934 77.8778 231.448 80.5901 231.448 80.5901C231.448 80.5901 267.171 126.305 266.426 175.8C265.936 208.316 254.144 222.599 242.543 225.135C241.235 225.477 239.901 225.726 238.532 225.859C238.701 229.544 236.572 233.543 232.746 234.126C231.147 234.369 229.741 233.983 228.577 233.202C227.556 236.684 225.413 239.433 221.257 238.91C217.853 238.482 216.096 236.156 215.284 233.221C214.359 232.321 213.261 231.322 211.994 230.428C217.716 237.741 221.09 245.583 222.118 253.956C222.15 254.221 222.175 254.472 222.191 254.708L222.213 255.16C222.283 257.895 221.047 258.237 218.506 256.185L218.094 255.841C223.51 272.405 223.969 284.924 219.472 293.399L219.228 293.845L218.989 294.254L218.757 294.624C217.379 296.738 216.309 296.82 215.546 294.871L215.422 294.528C215.402 294.468 215.382 294.406 215.362 294.342L215.247 293.942L215.137 293.505L215.032 293.029C215.016 292.947 214.999 292.863 214.982 292.778L214.887 292.246L214.797 291.677L214.712 291.07L214.634 290.426L214.561 289.744L214.494 289.024L214.432 288.267L214.377 287.472L214.326 286.64L214.262 285.321L214.189 286.054C213.601 291.677 212.466 296.197 211.076 299.696L210.763 300.457L210.443 301.184C210.281 301.54 210.116 301.883 209.949 302.213L209.612 302.858C209.556 302.963 209.499 303.066 209.442 303.168L209.098 303.764C208.578 304.634 208.044 305.394 207.508 306.048L207.149 306.468C207.03 306.602 206.91 306.732 206.791 306.856L206.433 307.214C205.063 308.526 203.719 309.157 202.582 309.157C201.076 309.157 200.839 308.556 201.1 307.26L201.183 306.889L201.346 306.268L201.766 304.79C201.926 304.221 202.095 303.592 202.255 302.902C200.689 305.253 198.99 307.413 197.231 309.375L196.474 310.203C194.698 312.107 192.873 313.812 191.069 315.309L190.297 315.937C190.169 316.04 190.041 316.142 189.913 316.242L189.147 316.833L188.388 317.397L187.635 317.936C187.386 318.111 187.138 318.282 186.891 318.449L186.157 318.936L185.433 319.396C185.313 319.471 185.194 319.544 185.076 319.616L184.37 320.037C184.254 320.105 184.138 320.172 184.023 320.238L183.339 320.618L183.257 320.663C183.172 320.709 183.087 320.754 183.003 320.799L182.344 321.139L181.702 321.453L181.079 321.739C180.977 321.785 180.876 321.829 180.776 321.872L180.184 322.117L179.614 322.335C179.242 322.471 178.885 322.589 178.546 322.688L178.051 322.823C176.845 323.124 175.894 323.163 175.287 322.93C174.423 322.599 174.505 322.017 175.2 321.189L175.426 320.934C175.467 320.89 175.509 320.845 175.553 320.8L175.831 320.522L176.14 320.229L176.66 319.762L177.445 319.089L180.027 316.933L181.072 316.04L181.607 315.571C169.02 320.917 154.079 323.596 138.215 323.596C123.257 323.596 108.813 321.214 96.2935 316.461L96.8555 317.148L97.3601 317.781C97.3831 317.811 97.4059 317.84 97.4284 317.869C97.4573 317.906 97.4858 317.944 97.5139 317.98L97.7978 318.362C98.8671 319.844 99.1202 320.798 97.7407 321.441C96.4236 322.055 93.7403 321.641 90.396 320.098L89.7613 319.796C89.1193 319.48 88.4556 319.124 87.7748 318.728L87.0885 318.319C86.1664 317.754 85.2167 317.118 84.2505 316.407L83.5229 315.86C83.2794 315.673 83.0351 315.481 82.7901 315.285L82.0532 314.682C80.9453 313.757 79.8269 312.736 78.7138 311.618L77.9726 310.859C75.8759 308.665 73.8102 306.123 71.8814 303.217L72.5406 304.427L74.1745 307.359L74.5445 308.045L74.8698 308.678L75.0587 309.069L75.223 309.435C75.2735 309.552 75.3195 309.665 75.3608 309.774L75.4701 310.086C75.7692 311.031 75.6118 311.557 74.7244 311.557C73.8205 311.557 72.4857 310.829 70.9328 309.482L70.4834 309.08C70.2559 308.871 70.0244 308.649 69.7894 308.415L69.3151 307.932C69.2354 307.848 69.1553 307.764 69.0749 307.678L68.589 307.147L68.0967 306.585C67.7667 306.2 67.4331 305.795 67.0975 305.371L66.5928 304.719C66.5085 304.609 66.4241 304.496 66.3396 304.383L65.8324 303.689L65.3249 302.967L64.8181 302.218L64.3133 301.443C63.8937 300.785 63.4773 300.101 63.0668 299.391L62.5774 298.526C61.5239 296.627 60.5188 294.557 59.6125 292.343L59.2015 291.312C57.9904 288.186 56.9836 284.792 56.3152 281.197L56.2399 281.703L56.1853 282.012C56.1801 282.039 56.1749 282.066 56.1695 282.093L56.1566 282.157L56.0959 282.428L56.0307 282.673C56.0194 282.711 56.008 282.749 55.9963 282.785L55.9237 282.988C55.6478 283.682 55.2633 283.79 54.6916 283.063L54.531 282.844L54.3608 282.583L54.1806 282.278C54.1497 282.224 54.1184 282.167 54.0866 282.109L53.8908 281.737L53.6841 281.318L53.4661 280.851L53.2366 280.336L52.9951 279.772C49.1255 270.55 51.3946 258.359 55.3806 249.861L55.1644 250.102L54.954 250.318L54.7495 250.508C53.7421 251.39 52.9634 251.242 52.4998 249.342L52.4112 248.939C52.3832 248.796 52.3565 248.646 52.3313 248.487L52.26 247.986C52.2378 247.811 52.217 247.627 52.1977 247.434L52.1443 246.831C52.1124 246.42 52.0943 246.003 52.09 245.581C48.5173 245.953 46.385 243.53 45.1593 240.394C44.0679 241.273 42.701 241.78 41.0866 241.677C37.2242 241.43 34.755 237.632 34.6021 233.947C33.2272 233.933 31.8762 233.801 30.543 233.574C18.7657 232.059 5.77321 218.859 2.45148 186.509C-2.60474 137.267 28.9978 88.6128 28.9978 88.6128C28.9978 88.6128 30.2697 85.7788 30.923 84.5579C30.923 84.5579 26.5203 66.0405 27.3526 60.8763C28.1849 55.7122 28.7818 54.5197 29.2537 54.3659C30.8952 53.8306 32.7845 55.642 34.9217 59.8L34.9797 58.3965L35.027 57.5051C35.2254 54.1594 35.6389 51.6451 36.8856 50.4528C37.7214 49.6535 39.2889 50.5598 40.3085 51.7253C40.5129 51.9588 41.0629 53.2134 41.8944 55.11L41.8945 55.1101C45.2126 62.6785 53.0124 80.4695 61.2109 84.3975C61.4392 84.1918 61.6636 83.9922 61.8841 83.7989L62.5337 83.2374C62.64 83.1469 62.7453 83.058 62.8496 82.9706L63.4638 82.4649C63.5642 82.3837 63.6636 82.3041 63.762 82.226L64.3408 81.776L64.8959 81.3632C64.9864 81.2975 65.076 81.2333 65.1646 81.1707L65.6843 80.8137C68.3083 79.0648 69.9867 78.804 70.7198 80.0315C71.0838 80.641 71.0863 81.7575 70.7273 83.3809L65.9138 127.776C65.9138 127.776 75.2087 118.434 86.606 112.525C86.4811 112.307 86.4246 112.018 86.4516 111.658C86.4516 111.658 93.0854 94.9282 95.5122 78.6408C97.9391 62.3533 103.565 47.4155 116.924 42.4463L118.222 41.9702L120.809 41.0329L121.993 40.5909C122.756 40.3007 123.713 39.989 124.729 39.6585C127.099 38.8876 129.784 38.014 131.043 37.0703C133.249 35.4181 135.044 30.5877 136.358 27.0499C136.759 25.9727 137.115 25.0153 137.424 24.3039L137.538 24.0273C138.903 20.536 147.267 29.6114 145.635 37.0894ZM92.6886 109.828C92.8321 109.776 92.9758 109.724 93.1196 109.674L93.3279 108.973C93.1218 109.273 92.9079 109.559 92.6886 109.828Z" fill="#2876D0"/>
<path fill-rule="evenodd" clip-rule="evenodd" d="M217.17 45.1646C218.09 43.9198 219.583 42.8845 220.491 43.605C221.45 44.3652 222.048 45.8177 222.491 47.7715L222.58 48.1828L222.665 48.608L222.747 49.0468L222.826 49.4988L222.901 49.9635L222.974 50.4407L223.1 51.3209L223.281 52.7084C223.343 52.5598 223.404 52.4139 223.465 52.2709L223.649 51.85L223.832 51.446C223.924 51.2482 224.015 51.0566 224.106 50.8714L224.289 50.5092L224.471 50.1639C224.562 49.9954 224.653 49.8331 224.744 49.6772L224.925 49.3738C226.134 47.4065 227.322 46.5569 228.49 46.8249L228.534 46.8377L228.579 46.8564L228.626 46.8815L228.674 46.9135L228.723 46.9527L228.774 46.9997L228.826 47.0549L228.88 47.1189C228.889 47.1303 228.899 47.142 228.908 47.1542L228.964 47.2321L229.022 47.3197L229.082 47.4177L229.144 47.5265L229.208 47.6465L229.273 47.7782L229.341 47.9221L229.41 48.0785L229.482 48.2481L229.556 48.4313L229.671 48.7324L229.751 48.9514L229.833 49.1856L229.961 49.5664L230.094 49.9839L230.233 50.4397L230.429 51.1098L230.583 51.6611L230.743 52.2559L230.91 52.8957L230.968 53.1193C230.995 53.2268 231.021 53.3389 231.046 53.4557L231.093 53.6954L231.137 53.9476L231.177 54.2122C231.183 54.2573 231.189 54.303 231.196 54.3491L231.23 54.6323L231.261 54.9279L231.288 55.2359C231.292 55.2883 231.296 55.3412 231.3 55.3946L231.322 55.7212L231.34 56.0602C231.342 56.1177 231.345 56.1758 231.347 56.2344L231.359 56.592L231.368 56.962L231.373 57.3445L231.374 57.7393L231.372 58.1466L231.361 58.7807C231.36 58.8527 231.358 58.9253 231.356 58.9983L231.342 59.4428L231.325 59.8996L231.304 60.3689L231.28 60.8506L231.251 61.3447L231.202 62.1091L231.144 62.9014L231.055 64.0013L230.95 65.1508L230.862 66.0455L230.798 66.6574L230.661 67.9185L230.508 69.2293L230.384 70.2449L230.251 71.2885L230.062 72.7233L229.858 74.2078L229.695 75.3537L229.524 76.5275C229.504 76.6595 229.484 76.792 229.465 76.925L229.597 77.1282L229.815 77.4732L230.058 77.8666L230.324 78.3083L230.715 78.9725L231.037 79.527L231.626 80.5586C231.667 80.6318 231.709 80.7059 231.751 80.781C255.729 111.134 267.468 142.742 266.968 175.605C266.475 207.989 254.602 222.214 242.922 224.74C241.605 225.08 240.261 225.329 238.883 225.461C239.053 229.131 236.91 233.113 233.058 233.694C231.448 233.937 230.032 233.552 228.86 232.774C228.782 233.037 228.698 233.295 228.607 233.549L228.494 233.85C227.352 236.786 225.231 238.925 221.491 238.459C218.064 238.033 216.295 235.717 215.477 232.794L215.669 232.98L216.98 234.273L217.515 234.783L217.754 234.997L217.975 235.179L218.078 235.257L218.27 235.386C218.793 235.702 219.084 235.543 219.135 234.614L219.142 234.404C219.143 234.366 219.143 234.328 219.143 234.289C219.143 233.478 218.837 232.34 218.255 230.948L218.165 230.738L217.893 230.128L217.59 229.49L217.509 229.327L217.426 229.161L217.076 228.484L216.983 228.31L216.889 228.135L216.493 227.42L216.354 227.177L216.067 226.682L215.613 225.921L215.494 225.728L215.374 225.533L214.877 224.742L214.617 224.339L214.351 223.931L213.798 223.103L213.218 222.257L212.612 221.397L211.98 220.522L211.654 220.079L210.984 219.185L210.64 218.734L209.933 217.823L209.202 216.903C209.332 216.954 209.46 217.003 209.586 217.05L209.958 217.184L210.318 217.308C210.436 217.348 210.551 217.385 210.665 217.421L211.001 217.522L211.324 217.612C214.18 218.371 215.566 217.763 215.48 215.789C215.477 215.715 215.47 215.635 215.46 215.55L215.441 215.417L215.387 215.127L215.311 214.802L215.264 214.627L215.155 214.251L215.023 213.84L214.869 213.395L214.596 212.663L214.386 212.132L214.03 211.271L213.624 210.333L213.167 209.317L212.661 208.224L211.908 206.647L211.285 205.374L210.377 203.556L209.637 202.102L208.293 199.508L206.81 196.698L205.188 193.674L204.148 191.756C205.423 192.584 206.729 193.7 207.962 194.831L208.526 195.353L210.71 197.413L211.444 198.084L211.855 198.443L212.242 198.764L212.486 198.954L212.717 199.123L212.936 199.269L213.141 199.392L213.333 199.49C213.958 199.777 214.337 199.606 214.375 198.724L214.378 198.626L214.372 198.329C214.368 198.258 214.363 198.184 214.356 198.106L214.345 197.988L214.297 197.602L214.228 197.169L214.136 196.688L214.021 196.158L213.931 195.777L213.883 195.577L213.759 195.098C213.014 192.322 211.683 189.236 209.766 185.84L209.388 185.179C208.681 183.96 207.9 182.702 207.046 181.405L206.573 180.694C206.492 180.575 206.412 180.455 206.33 180.335L205.835 179.612L205.325 178.882L204.8 178.143C204.712 178.02 204.623 177.896 204.533 177.771L203.986 177.021L203.425 176.263C203.33 176.137 203.235 176.009 203.139 175.882L202.556 175.112C202.633 175.16 202.714 175.209 202.8 175.259L202.93 175.334L203.355 175.567L203.584 175.687L204.073 175.931L204.598 176.179L204.872 176.304L205.44 176.552L206.029 176.797L206.634 177.036L206.941 177.152L207.25 177.265L207.87 177.482L208.025 177.534L208.18 177.585L208.797 177.778L209.404 177.951L209.716 178.033L210.024 178.109C210.075 178.121 210.126 178.132 210.176 178.144L210.475 178.209L210.766 178.266C210.814 178.275 210.862 178.283 210.909 178.291L211.189 178.336C211.235 178.343 211.28 178.349 211.325 178.355L211.59 178.387L211.846 178.409C212.802 178.475 213.512 178.325 213.767 177.851C213.833 177.728 213.834 177.546 213.77 177.304L213.742 177.211L213.669 177.007L213.624 176.896L213.514 176.659L213.38 176.399L213.304 176.261L213.133 175.968L212.831 175.486L212.474 174.954L212.061 174.372L211.756 173.956L211.252 173.29L210.692 172.574L210.078 171.807L209.409 170.99L208.684 170.123L207.904 169.206L206.779 167.905L205.235 166.152L204.235 165.034L202.446 163.058L200.503 160.943L198.408 158.688L196.16 156.293L192.244 152.171L193.105 152.384L193.925 152.58L194.706 152.756L195.447 152.914L196.147 153.053L196.482 153.116L197.123 153.227L197.724 153.32L198.284 153.395L198.805 153.45L199.285 153.487L199.511 153.499L199.931 153.508C201.534 153.508 202.176 153.063 201.858 152.171C201.8 152.009 201.712 151.822 201.594 151.609L201.52 151.479L201.312 151.14C201.261 151.061 201.207 150.979 201.15 150.895L201.063 150.767L200.772 150.358L200.611 150.14L200.257 149.678L199.862 149.181L199.649 148.92L199.192 148.37L198.693 147.785L198.153 147.165L197.571 146.51L196.62 145.461L195.024 143.733C190.946 139.218 187.774 133.976 185.679 128.285L185.516 127.835L184.24 124.26L180.247 111.15C186.033 113.869 191.833 117.624 197.648 122.416L198.162 122.842L189.438 79.2123C188.935 77.6328 188.84 76.5249 189.151 75.8885C189.766 74.6332 191.416 74.7161 194.101 76.1369L194.271 76.2275L194.823 76.5366L195.11 76.7043L195.703 77.0657L196.323 77.4619L196.643 77.673L197.303 78.1215L197.643 78.3587L198.344 78.8594L198.584 79.034L199.072 79.3949C204.195 76.3977 208.635 67.5983 211.846 59.6664L212.212 58.7555C212.331 58.4533 212.449 58.1529 212.565 57.8544L212.908 56.9657L213.239 56.0915L213.559 55.234C213.611 55.0927 213.663 54.9521 213.714 54.8123L214.016 53.9844L214.306 53.179L214.717 52.018L215.1 50.9204L216.417 47.0847L216.639 46.4552L216.769 46.0974L216.884 45.7916C217.01 45.4662 217.105 45.2517 217.17 45.1646Z" fill="black" fill-opacity="0.2"/>
<path fill-rule="evenodd" clip-rule="evenodd" d="M40.527 51.8401C40.5781 51.8983 40.6509 52.0199 40.7442 52.1992L40.866 52.4415C40.888 52.4864 40.9107 52.5335 40.9342 52.5827L41.1674 53.0831L41.5433 53.9187L43.087 57.4092L43.4009 58.1107L43.9 59.2151L44.2511 59.9829L44.6163 60.7732L44.9954 61.5838L45.3879 62.4125C45.4544 62.552 45.5215 62.6921 45.5891 62.8329L46.001 63.6843C46.0707 63.8273 46.1409 63.9709 46.2116 64.1148L46.6421 64.984C46.7148 65.1297 46.788 65.2758 46.8618 65.4222L47.3099 66.304C51.1677 73.827 56.251 81.9587 61.4969 84.46L61.7246 84.2566L62.1723 83.8623L62.824 83.3018L63.141 83.0354L63.7571 82.5305L64.0563 82.292L64.6369 81.8427L65.1938 81.4305L65.4634 81.2384L65.9848 80.8819L66.1448 80.7768L66.4576 80.5779C68.8199 79.1095 70.3461 78.9505 71.0365 80.101C71.4018 80.7096 71.4043 81.8242 71.0441 83.445L66.215 127.769C72.9929 120.989 79.8932 115.874 86.916 112.425C87.5193 113.866 90.6439 112.833 93.0907 109.833L93.5117 109.687L89.8498 121.949L89.4416 121.949L89.2355 122.56L89.0271 123.175L88.1715 125.675L86.0953 130.62C85.3114 132.487 84.3818 134.289 83.315 136.012L82.9374 136.62L81.837 138.379L80.7853 140.038L79.7823 141.596L78.5207 143.519L78.2189 143.972L77.3457 145.264L76.5212 146.456L75.9986 147.195L75.4976 147.89L75.0183 148.54L74.5606 149.146L74.1245 149.708L73.7101 150.225L73.3173 150.697L72.9461 151.125L72.3333 151.797L72.1056 152.063L71.9135 152.305L71.757 152.524L71.6921 152.625L71.589 152.81C71.3877 153.218 71.4842 153.434 71.8784 153.457L71.9511 153.459L72.1508 153.447L72.2062 153.441L72.2639 153.433L72.517 153.387L72.8057 153.317L73.1299 153.225L73.4898 153.11L73.8853 152.971L74.3165 152.81L74.7832 152.625L75.2855 152.417L76.1058 152.063L77.3242 151.509L67.1716 175.688L64.4151 181.764L63.3458 184.162L62.6174 185.823L62.1697 186.86L61.5587 188.307L61.194 189.195L60.8652 190.02L60.5738 190.778L60.4426 191.132L60.2101 191.788L60.1093 192.089L59.9391 192.636L59.8703 192.882L59.8125 193.109L59.7659 193.317C59.657 193.845 59.67 194.165 59.8212 194.253C60.3348 194.554 61.2962 194.356 62.4522 193.896L62.7451 193.776C62.844 193.734 62.9441 193.691 63.0452 193.646L63.3517 193.506L63.5071 193.433L64.1199 193.132L64.9028 192.722L65.6928 192.286L66.6324 191.745L67.8356 191.025L69.1881 190.197L70.279 189.534L70.6197 189.336L70.8961 189.186L71.0228 189.124C71.0993 189.089 71.1596 189.066 71.2021 189.056L71.2306 189.052L71.1255 189.467L70.9802 189.68L70.7876 189.943L70.4056 190.434L69.5746 191.458C69.4961 191.558 69.4167 191.661 69.3365 191.769L69.2156 191.932L68.8457 192.454L68.657 192.732L68.2728 193.319C68.1864 193.454 68.0995 193.593 68.0119 193.734L67.8802 193.948L67.4805 194.614L66.8694 195.681L66.456 196.432L66.0388 197.212L65.6189 198.019L64.9863 199.274L64.5641 200.137L64.1428 201.017L63.7234 201.913L63.1001 203.279L62.4868 204.665L62.0851 205.595L61.6904 206.528L61.1136 207.927L60.7408 208.854L60.3785 209.775L59.857 211.139L59.365 212.473L59.055 213.343L58.7606 214.192L58.3505 215.425L58.0996 216.215L57.8679 216.976L57.6067 217.884L57.3791 218.739L57.2225 219.381L57.0896 219.983L56.9815 220.543L56.9312 220.842C56.9159 220.94 56.902 221.035 56.8896 221.127L56.8567 221.396C56.7526 222.353 56.8298 222.984 57.1302 223.183C57.2096 223.236 57.3802 223.261 57.6205 223.26L57.8135 223.255L57.9192 223.25L58.2879 223.217L58.4913 223.193L58.9312 223.13L59.4088 223.049L59.6593 223.002L60.3119 222.865L60.6487 222.788L60.99 222.705L61.7545 222.501C59.8706 225.132 58.2697 227.656 56.9516 230.071L56.5991 230.727C53.7204 236.171 52.3028 241.057 52.3466 245.384C49.1876 245.713 47.151 243.873 45.8704 241.287L45.726 240.986L45.5881 240.678C45.5208 240.523 45.4559 240.365 45.3934 240.206C44.2986 241.084 42.9272 241.591 41.3076 241.488C37.4326 241.241 34.9555 237.449 34.8021 233.77C33.4228 233.756 32.0674 233.624 30.7299 233.398C18.9145 231.885 5.88001 218.706 2.54754 186.408C-0.834166 153.632 8.04321 121.053 29.1797 88.6685L29.6844 87.5595L30.0494 86.7729L30.3799 86.0758L30.6052 85.6117L30.8111 85.1979L30.9976 84.8345L31.1111 84.6201L30.9255 83.8394L30.4824 81.9406L30.1493 80.4758L29.9119 79.4089L29.6121 78.0286L29.3997 77.025L29.1331 75.7292L28.9457 74.7891L28.7125 73.5778L28.55 72.701L28.4476 72.1315L28.303 71.3L28.1691 70.4956L28.0857 69.9745L27.9696 69.2154L27.8982 68.7244L27.7999 68.0105L27.7123 67.3238L27.6599 66.8811L27.5901 66.2397L27.5496 65.8272L27.5138 65.4267L27.4828 65.0383L27.4565 64.662L27.4349 64.2978L27.4182 63.9456L27.4062 63.6055L27.3989 63.2775C27.3981 63.2238 27.3975 63.1706 27.397 63.118L27.3969 62.808C27.3973 62.7574 27.3979 62.7073 27.3986 62.6576L27.4056 62.3658L27.4174 62.086L27.4339 61.8184C27.437 61.7747 27.4404 61.7316 27.4439 61.689L27.4676 61.4395L27.496 61.202C27.5011 61.1634 27.5064 61.1253 27.512 61.0877L27.6399 60.3075L27.7479 59.6846L27.8531 59.1063L27.9218 58.7447L28.0227 58.2372L28.1209 57.7699L28.1851 57.48L28.2792 57.0765L28.371 56.7091L28.4308 56.4835L28.4897 56.2728L28.5475 56.0765L28.6043 55.8941L28.6602 55.7252L28.7151 55.5694L28.7957 55.359L28.8483 55.2337L28.9001 55.1197L28.9509 55.0167L29.0009 54.9241L29.05 54.8415L29.0984 54.7684C29.1063 54.757 29.1143 54.746 29.1222 54.7353L29.1693 54.6756L29.2157 54.6243C29.2234 54.6164 29.231 54.6088 29.2386 54.6016L29.2838 54.5619L29.3283 54.5294C29.3357 54.5246 29.343 54.52 29.3503 54.5157L29.3937 54.4931C29.4009 54.4898 29.408 54.4868 29.4151 54.484L29.4364 54.4765C30.6289 54.0895 31.9518 54.9311 33.4051 57.0012L33.6136 57.3053C33.8578 57.6698 34.1058 58.0685 34.3573 58.5012L34.5738 58.8805C34.6824 59.0744 34.7918 59.2745 34.9018 59.4808L35.1227 59.9019L35.1809 58.5006L35.2284 57.6107L35.2591 57.1279L35.2934 56.6572L35.3316 56.1991L35.3741 55.7538C35.3816 55.6807 35.3893 55.6081 35.3972 55.5361L35.4472 55.1108C35.7102 53.0184 36.1779 51.4407 37.093 50.5697C37.9315 49.7717 39.5041 50.6765 40.527 51.8401Z" fill="black" fill-opacity="0.2"/>
<path fill-rule="evenodd" clip-rule="evenodd" d="M209.423 124.111C211.42 110.94 224.728 105.248 239.148 111.398C253.568 117.549 263.639 133.213 261.642 146.383C259.646 159.555 246.337 165.246 231.917 159.096C217.497 152.946 207.426 137.281 209.423 124.111ZM222.766 193.932C228.077 184.968 239.389 184.732 248.033 193.405C256.677 202.078 259.38 216.376 254.07 225.339C248.76 234.303 237.447 234.538 228.803 225.865C220.159 217.193 217.456 202.895 222.766 193.932Z" fill="black" fill-opacity="0.1"/>
<path fill-rule="evenodd" clip-rule="evenodd" d="M30.7763 118.684C44.6058 111.3 58.3593 115.81 61.4969 128.758C64.6339 141.704 55.9664 158.186 42.1369 165.569C28.308 172.953 14.5539 168.444 11.417 155.496C8.27992 142.55 16.9473 126.068 30.7763 118.684Z" fill="black" fill-opacity="0.1"/>
<path fill-rule="evenodd" clip-rule="evenodd" d="M13.0972 199.903C21.9813 193.425 31.9736 195.215 35.4164 203.9C38.8589 212.586 34.4479 224.879 25.5637 231.357C16.68 237.834 6.68735 236.045 3.24492 227.359C-0.1975 218.674 4.21346 206.381 13.0972 199.903Z" fill="black" fill-opacity="0.1"/>
<path fill-rule="evenodd" clip-rule="evenodd" d="M127.105 160.051C128.786 155.702 131.743 151.448 133.132 151.809C134.521 152.169 133.494 155.493 133.132 156.875L132.651 158.729C127.624 178.317 125.759 191.921 126.995 199.306L127.105 199.914C128.172 205.318 130.743 206.202 136.752 202.868L137.421 202.488C137.421 202.488 142.179 198.956 142.755 199.387C143.331 199.818 141.253 205.35 141.253 205.35C135.876 226.688 133.641 241.421 134.506 249.318L134.579 249.938C135.294 255.438 137.063 256.137 142.132 252.754L142.698 252.369C142.698 252.369 146.422 249.111 146.97 249.409C147.519 249.707 146.78 254.586 146.78 254.586C146.433 264.003 147.245 270.278 149.003 273.192C150.234 275.234 152.801 277.199 156.236 274.972C157.439 274.192 159.557 273.322 160.341 274.519C161.124 275.716 159.359 276.69 158.157 277.469C152.493 281.141 147.501 280.751 144.547 275.856C142.577 272.59 141.602 267.309 141.51 259.896L141.503 258.941L141.323 259.016C133.132 265.039 128.556 258.185 127.53 249.938C126.505 241.69 130.178 229.602 134.338 211.794L134.937 209.263L134.741 209.324C128.033 211.309 123.37 208.319 121.936 200.542L121.868 200.156C120.437 191.605 120.456 177.258 127.105 160.051Z" fill="black" fill-opacity="0.1"/>
<rect width="65.0517" height="59.1379" transform="translate(102.382 54.2097)" fill="#2876D0"/>
<path fill-rule="evenodd" clip-rule="evenodd" d="M149.885 95.566C148.81 109.041 136.315 119.389 136.315 119.389C136.315 119.389 121.261 108.255 119.982 95.2521C119.982 95.2521 125.905 85.4028 126.784 85.3672C132.094 85.1518 134.313 86.0781 144.612 86.6226C145.322 86.6601 149.885 95.566 149.885 95.566Z" fill="#AF6303"/>
<path fill-rule="evenodd" clip-rule="evenodd" d="M147.787 95.7672C147.403 105.45 135.698 115.876 135.698 115.876C135.698 115.876 124.488 105.848 122.358 95.7672C122.358 95.7672 126.537 84.5614 127.42 84.5257C131.383 84.3657 136.237 84.3735 143.705 85.4104C144.579 85.5318 147.787 95.7672 147.787 95.7672Z" fill="black" fill-opacity="0.8"/>
<path fill-rule="evenodd" clip-rule="evenodd" d="M146.31 101.747L146.168 102.073C145.599 103.352 144.914 104.6 144.172 105.79L143.72 106.497L143.256 107.188C143.178 107.302 143.1 107.416 143.021 107.528L142.546 108.194L142.066 108.842C141.986 108.948 141.906 109.054 141.826 109.159L141.344 109.776L140.865 110.371L140.391 110.944L139.695 111.756L139.026 112.509L138.392 113.198L137.994 113.619L137.44 114.191L136.946 114.688L136.281 115.334L135.698 115.876L134.904 115.131L134.49 114.728L133.463 113.691L133.069 113.281L132.439 112.609L131.77 111.873L131.068 111.078L130.586 110.515L130.095 109.93L129.599 109.321L129.099 108.691C129.016 108.584 128.932 108.477 128.849 108.369L128.348 107.709L127.85 107.03C127.767 106.916 127.685 106.8 127.603 106.684L127.112 105.98L126.631 105.261C126.075 104.413 125.54 103.535 125.045 102.636C128.593 99.8458 132.127 99.9879 135.648 103.061C140.914 99.7006 144.468 99.2626 146.31 101.747Z" fill="#9E292B"/>
<path fill-rule="evenodd" clip-rule="evenodd" d="M134.887 73.8223C138.592 73.8223 142.071 75.3625 142.071 79.2845C142.071 83.2865 150.171 88.2101 149.877 95.566C149.852 96.1936 148.346 96.4357 148.067 96.1247C146.465 94.3366 144.893 83.4417 142.071 90.0463C138.971 97.2997 135.698 103.51 135.698 103.51C135.698 103.51 131.723 95.1884 128.593 88.9217C125.01 81.7494 124.026 96.0982 121.841 95.566C121.275 95.4284 119.95 95.8342 119.983 95.2521C120.311 89.3779 127.427 83.7438 127.427 80.4499C127.427 77.7153 130.083 73.8223 134.887 73.8223Z" fill="#F7A600"/>
<path fill-rule="evenodd" clip-rule="evenodd" d="M102.389 76.6376C102.666 72.3462 106.475 62.192 115.335 63.4067C124.194 64.6214 127.042 72.3742 126.766 76.6663C126.489 80.9584 119.537 88.9454 114.879 87.9356C110.22 86.9258 102.112 80.9297 102.389 76.6376ZM169.007 76.8933C168.731 72.6019 164.921 62.4477 156.062 63.6624C147.202 64.8771 144.354 72.6299 144.631 76.922C144.907 81.2141 151.86 89.201 156.517 88.1912C161.176 87.1815 169.284 81.1854 169.007 76.8933Z" fill="white"/>
<path fill-rule="evenodd" clip-rule="evenodd" d="M152.604 75.0345C152.529 77.1633 154.079 78.9445 156.067 79.0131C158.055 79.0817 159.727 77.4116 159.802 75.2828C159.877 73.154 158.327 71.3728 156.339 71.3042C154.352 71.2356 152.68 72.9056 152.604 75.0345ZM114.977 79.1142C112.963 79.1837 111.27 77.5143 111.195 75.3855C111.119 73.2567 112.691 71.4747 114.705 71.4052C116.718 71.3357 118.411 73.0051 118.487 75.1339C118.562 77.2627 116.991 79.0447 114.977 79.1142Z" fill="#9E292B"/>
<path fill-rule="evenodd" clip-rule="evenodd" d="M114.704 71.4052C116.718 71.3357 118.411 73.0051 118.487 75.1339C118.562 77.2627 116.991 79.0447 114.977 79.1142C112.963 79.1837 111.27 77.5143 111.194 75.3855C111.119 73.2567 112.69 71.4747 114.704 71.4052ZM156.339 71.3042C158.327 71.3728 159.877 73.154 159.802 75.2828C159.726 77.4116 158.054 79.0817 156.067 79.0131C154.079 78.9445 152.529 77.1633 152.604 75.0345C152.679 72.9056 154.351 71.2356 156.339 71.3042ZM126.534 57.2394C126.604 57.3583 126.637 57.4674 126.634 57.5652L126.644 57.5946C126.839 58.2262 126.045 59.096 124.581 60.0144L124.122 60.2912C123.803 60.4764 123.459 60.6629 123.092 60.8489L122.524 61.1276C122.426 61.174 122.328 61.2203 122.228 61.2664L121.612 61.5422L120.966 61.8147C120.857 61.8598 120.745 61.9047 120.633 61.9493L119.947 62.2146C119.714 62.3021 119.477 62.3886 119.236 62.4738L118.502 62.7256L117.748 62.9689C117.62 63.0087 117.492 63.0481 117.363 63.087L116.977 63.2016L116.214 63.4169C116.088 63.4513 115.962 63.4848 115.837 63.5176L115.093 63.705C114.725 63.794 114.363 63.876 114.008 63.9509L113.308 64.0911C113.193 64.1129 113.079 64.1339 112.966 64.1541L112.3 64.2657L111.658 64.3581C111.553 64.3719 111.45 64.3848 111.347 64.397L110.747 64.4603C110.552 64.4782 110.362 64.4927 110.177 64.5041L109.64 64.5282C107.907 64.5756 106.756 64.2934 106.561 63.6618C106.375 63.0617 107.083 62.2467 108.409 61.3793L108.848 61.1038C109.077 60.9654 109.322 60.8261 109.579 60.6866L110.113 60.4074C110.205 60.3609 110.298 60.3144 110.393 60.2679L110.977 59.9899C111.177 59.8976 111.382 59.8056 111.593 59.7141L112.238 59.4416C112.348 59.3966 112.459 59.3517 112.571 59.307L113.257 59.0417L113.968 58.7826C114.089 58.74 114.21 58.6977 114.332 58.6557L115.077 58.408C115.203 58.3674 115.329 58.3272 115.457 58.2874L116.218 58.0573L116.467 57.9861L116.042 57.9414L115.675 57.888C114.263 57.6471 114.346 57.1771 115.925 56.4782C119.622 54.842 125.59 55.6412 126.534 57.2394ZM151.14 54.7667C152.27 55.3073 152.196 55.7943 150.919 56.2279C151.41 56.1847 151.958 56.1735 152.525 56.188L153.097 56.2109L153.673 56.2495C153.865 56.2648 154.056 56.2825 154.244 56.3024L154.803 56.3682C154.894 56.3802 154.985 56.3927 155.074 56.4056L155.597 56.4882L156.085 56.5802L156.529 56.6803C157.3 56.8703 157.809 57.0937 157.82 57.3118C157.834 57.5809 157.472 57.8453 156.734 58.1048C160.835 59.8481 163.347 62.7516 163.032 63.9129C162.902 64.3914 162.31 64.511 161.361 64.4022L160.962 64.3469L160.527 64.269C160.452 64.2543 160.375 64.2386 160.296 64.2222L159.81 64.1141L159.29 63.9881L158.452 63.7697L154.134 62.5605L152.627 62.1535L151.881 61.9408C151.758 61.9045 151.636 61.8679 151.515 61.8309L150.8 61.6046L150.108 61.3707L149.441 61.1301L148.801 60.884C148.697 60.8426 148.594 60.801 148.492 60.7592L147.896 60.5067L147.332 60.2512L146.802 59.9939L146.307 59.7358C144.639 58.8322 143.661 57.9331 143.741 57.2429L143.761 57.1394C143.76 57.0368 143.79 56.9177 143.85 56.782C144.597 55.1061 148.721 53.6097 151.14 54.7667Z" fill="black" fill-opacity="0.8"/>
<path fill-rule="evenodd" clip-rule="evenodd" d="M67.7275 41.4881L67.8189 41.4973L87.4025 43.9566C88.4409 44.087 89.1693 45.0407 89.0295 46.0868C88.8938 47.1021 87.99 47.8313 86.9876 47.7541L86.8962 47.7448L67.3125 45.2856C66.2742 45.1552 65.5458 44.2014 65.6856 43.1553C65.8213 42.14 66.7251 41.4109 67.7275 41.4881Z" fill="#ECEEF0"/>
<path fill-rule="evenodd" clip-rule="evenodd" d="M112.592 2.83228C113.601 2.95133 114.323 3.84809 114.244 4.85808L114.235 4.95019L111.471 26.8494C111.339 27.8964 110.389 28.6458 109.35 28.5231C108.341 28.4041 107.619 27.5073 107.698 26.4973L107.707 26.4052L110.471 4.50601C110.603 3.45898 111.553 2.70963 112.592 2.83228Z" fill="#ECEEF0"/>
<path fill-rule="evenodd" clip-rule="evenodd" d="M80.5248 14.6182C81.3229 13.9762 82.4702 14.0791 83.1306 14.8363L83.1893 14.9069L95.5053 30.4775C96.1546 31.2984 96.0143 32.5 95.1921 33.1614C94.394 33.8034 93.2467 33.7005 92.5862 32.9433L92.5275 32.8727L80.2116 17.3021C79.5623 16.4813 79.7025 15.2796 80.5248 14.6182Z" fill="#ECEEF0"/>
<path fill-rule="evenodd" clip-rule="evenodd" d="M210.857 41.4881L210.766 41.4973L191.182 43.9566C190.144 44.087 189.415 45.0407 189.555 46.0868C189.691 47.1021 190.594 47.8313 191.597 47.7541L191.688 47.7448L211.272 45.2856C212.31 45.1552 213.039 44.2014 212.899 43.1553C212.763 42.14 211.859 41.4109 210.857 41.4881Z" fill="#ECEEF0"/>
<path fill-rule="evenodd" clip-rule="evenodd" d="M172.305 0.768359C171.294 0.675069 170.401 1.40202 170.268 2.4064L170.258 2.49845L168.409 24.4937C168.32 25.5454 169.093 26.4758 170.136 26.5719C171.147 26.6652 172.04 25.9382 172.173 24.9339L172.183 24.8418L174.032 2.84653C174.121 1.79491 173.348 0.864477 172.305 0.768359Z" fill="#ECEEF0"/>
<path fill-rule="evenodd" clip-rule="evenodd" d="M198.059 14.6182C197.261 13.9762 196.114 14.0791 195.454 14.8363L195.395 14.9069L183.079 30.4775C182.43 31.2984 182.57 32.5 183.392 33.1614C184.19 33.8034 185.338 33.7005 185.998 32.9433L186.057 32.8727L198.373 17.3021C199.022 16.4813 198.882 15.2796 198.059 14.6182Z" fill="#ECEEF0"/>
</svg>
