<svg width="421" height="320" viewBox="0 0 421 320" fill="none" xmlns="http://www.w3.org/2000/svg">
<path fill-rule="evenodd" clip-rule="evenodd" d="M280.189 280C361.651 280 421 291.236 421 299.812C421 308.388 354.962 320 273.5 320C192.038 320 126 308.388 126 299.812C126 291.236 198.727 280 280.189 280Z" fill="#EEEEEE"/>
<path d="M193.972 277.414L89.972 255.584V163.224L193.972 185.055V277.414Z" fill="#C49165"/>
<g style="mix-blend-mode:multiply" opacity="0.45">
<path d="M193.972 277.414L89.972 255.584V163.224L193.972 185.055V277.414Z" fill="#D7A478"/>
</g>
<path d="M0.229185 289.168L89.9719 255.584V163.224L0.229185 196.81C0.229185 196.81 -0.205595 289.605 0.229185 289.17V289.168Z" fill="#D79E6E"/>
<path d="M104.23 310.998L193.973 277.412V185.055L104.23 218.641C104.23 218.641 103.795 311.435 104.23 311V310.998Z" fill="#D79E6E"/>
<path d="M104.23 310.998L0.22937 289.168V196.81L104.23 218.639V310.998Z" fill="#EDBB7D"/>
<path d="M104.023 218.712L194 184.867L89.9793 163L0 196.843L104.023 218.712Z" fill="#D7A478"/>
<g style="mix-blend-mode:multiply">
<path d="M104.023 218.712L194 184.867L104.542 217.671L0 196.843L104.023 218.712Z" fill="#D7A478"/>
</g>
<path d="M131.847 171.591L45.7693 206.217L61.6324 209.599L145.371 174.715L131.847 171.591Z" fill="#875B40"/>
<path d="M45.8113 206.178L45.9563 229.369L46.7616 228.506L47.4514 229.801L48.2274 228.765L48.919 230.148L49.9298 229.092L50.515 230.536L51.491 229.612L52.3257 231.053L53.5713 230.133L54.3547 231.529L55.2169 230.58L56.2516 232.133L56.9854 230.925L57.7632 232.35L58.6254 231.529L59.4455 232.912L60.3077 232.047L61.3717 233.472L61.5441 209.546L45.8113 206.178Z" fill="#AC7454"/>
<path d="M252.339 256.363L248.078 292.46L263.299 294.204C264.29 294.226 265.092 295.032 265.127 296.044L244.376 296.977L204.986 301.877C204.986 301.877 204.574 300.361 204.732 299.878C204.765 299.778 206.022 299.225 207.481 299.059C208.939 298.893 236.286 294.858 236.286 294.858L203 296.044C203 296.044 203.108 294.226 203.967 293.539C205.094 292.64 232.605 292.46 232.605 292.46L209.017 291.046C209.017 291.046 209.103 289.645 209.717 289.275C212.623 287.516 243.088 291.046 243.088 291.046L248.078 256L252.339 256.363Z" fill="#E98404"/>
<path d="M299.747 256.363L305.249 291.713L289.28 294.009C288.288 294.031 287.486 294.837 287.451 295.849H306.966L333.854 303C333.854 303 334.828 302.157 334.673 301.249C334.52 300.351 333.897 300.147 333.772 300.106L333.768 300.105L333.793 300.102L315.174 296.223L342 300.297C342 300.297 341.892 298.479 341.033 297.793C339.906 296.893 316.611 294.04 316.611 294.04L337.281 294.447C337.281 294.447 337.196 293.046 336.582 292.676C333.675 290.916 308.761 291.046 308.761 291.046L304.008 256L299.747 256.363Z" fill="#E98404"/>
<path fill-rule="evenodd" clip-rule="evenodd" d="M261.475 126.61C263.009 122.606 265.71 118.688 266.978 119.02C268.246 119.351 267.308 122.413 266.978 123.686L266.539 125.393C261.949 143.432 260.246 155.96 261.374 162.761L261.475 163.321C262.449 168.298 264.797 169.112 270.284 166.042L270.895 165.691C270.895 165.691 275.239 162.439 275.765 162.836C276.291 163.232 274.393 168.328 274.393 168.328C269.484 187.978 267.443 201.546 268.232 208.819L268.3 209.389C268.952 214.455 270.568 215.099 275.196 211.983L275.713 211.628C275.713 211.628 279.114 208.628 279.614 208.902C280.115 209.176 279.44 213.67 279.44 213.67C279.123 222.343 279.865 228.121 281.47 230.805C282.595 232.685 284.938 234.495 288.075 232.443C289.173 231.725 291.108 230.924 291.823 232.027C292.538 233.129 290.927 234.026 289.828 234.744C284.657 238.125 280.099 237.766 277.401 233.258C275.602 230.25 274.713 225.387 274.628 218.56L274.622 217.68L274.457 217.749C266.978 223.296 262.799 216.984 261.863 209.389C260.927 201.794 264.281 190.661 268.08 174.262L268.626 171.931L268.447 171.987C262.322 173.815 258.064 171.062 256.755 163.9L256.693 163.544C255.386 155.669 255.404 142.457 261.475 126.61Z" fill="black" fill-opacity="0.1"/>
<path fill-rule="evenodd" clip-rule="evenodd" d="M275.695 11.4736L276.024 11.4618C277.772 11.4194 279.403 11.6032 280.915 12.013L281.499 12.1758L282.043 12.3373C286.716 13.7739 285.417 14.7393 282.111 15.9973C303.552 17.2696 309.94 52.2219 311.104 59.5779C311.177 60.0577 310.849 60.5063 310.371 60.5799C310.29 60.5924 310.208 60.5934 310.126 60.5829L307.675 60.2668L307.708 60.3962L307.87 60.9237L308.045 61.4549L308.252 62.0576C309.602 65.9421 312.846 74.457 313.337 77.014C313.885 79.8631 313.471 80.8888 312.645 81.0059C312.093 81.0839 310.735 79.2548 308.571 75.5184L346.047 200.299C357.789 231.413 332.359 262.722 307.675 269.738C282.991 276.754 257.14 276.754 234.481 269.738C211.821 262.722 194.395 227.422 200.087 199.474L204.466 183.088C203.362 184.401 202.519 184.862 201.936 184.472C199.932 183.13 205.807 161.645 210.723 155.658L211.086 155.212C211.53 154.66 211.82 154.274 211.982 154.022L212.079 153.636V153.636C211.425 153.683 205.772 158.661 203.94 157.581C201.775 156.303 222.992 104.435 229.874 80.4322L231.659 73.1126V73.1126L229.175 75.5184C227.21 77.39 226.58 75.5508 226.762 73.1126L226.835 72.3634L226.973 71.1068C227.488 66.777 228.025 66.0955 230.306 55.622L231.15 51.7127L231.565 49.8304C234.472 36.8146 239.004 20.8894 251.345 16.2838L252.545 15.8424L254.934 14.9737C257.692 13.9572 260.297 12.8979 262.216 11.4558C264.874 9.45822 269.13 3.82146 270.354 0.996917L270.46 0.740552C271.721 -2.49535 278.364 5.5699 275.695 11.4736Z" fill="#2876D0"/>
<path fill-rule="evenodd" clip-rule="evenodd" d="M240.668 43.346C240.873 40.0812 243.705 32.3562 250.292 33.2803C256.878 34.2044 258.995 40.1026 258.79 43.3679C258.584 46.6332 253.416 52.7095 249.953 51.9413C246.49 51.1731 240.462 46.6114 240.668 43.346ZM297.53 43.346C297.324 40.0812 294.492 32.3562 287.906 33.2803C281.32 34.2044 279.202 40.1026 279.408 43.3679C279.613 46.6332 284.782 52.7095 288.245 51.9413C291.708 51.1731 297.736 46.6114 297.53 43.346Z" fill="white"/>
<path fill-rule="evenodd" clip-rule="evenodd" d="M251.4 47.6471C248.864 47.7367 246.731 45.5563 246.635 42.7771C246.539 39.9978 248.516 37.6723 251.053 37.5827C253.588 37.4932 255.721 39.6735 255.817 42.4528C255.913 45.2321 253.936 47.5576 251.4 47.6471ZM286.797 47.6471C289.334 47.7367 291.467 45.5563 291.563 42.7771C291.658 39.9978 289.681 37.6723 287.145 37.5827C284.609 37.4932 282.476 39.6735 282.38 42.4528C282.284 45.2321 284.262 47.5576 286.797 47.6471Z" fill="#9E292B"/>
<path fill-rule="evenodd" clip-rule="evenodd" d="M279.394 50.5388C278.948 68.9285 268.039 77.9882 268.039 77.9882C268.039 77.9882 257.147 63.2025 257.147 49.408L279.394 50.5388Z" fill="#AF6303"/>
<path fill-rule="evenodd" clip-rule="evenodd" d="M278.769 51.4107C279.384 60.2234 268.205 73.3322 268.205 73.3322C268.205 73.3322 260.504 62.3204 259.989 56.7867L278.769 51.4107Z" fill="#501D2C"/>
<path fill-rule="evenodd" clip-rule="evenodd" d="M268.852 38.0642C272.382 38.0642 274.41 39.1172 275.186 43.7621C275.899 48.0353 278.857 45.8016 279.394 49.6777C279.58 51.0159 279.462 53.7256 275.186 59.9408C270.661 66.5176 265.965 69.7472 265.965 69.7472C265.965 69.7472 261.574 64.3774 259.989 60.6501C257.783 55.4653 257.245 51.7425 257.137 49.6777C256.98 46.6902 260.929 46.5981 262.126 43.7621C263.02 41.6473 264.542 38.0642 268.852 38.0642Z" fill="#F7A600"/>
<path fill-rule="evenodd" clip-rule="evenodd" d="M282.25 27.8346C282.462 26.1301 285.158 23.7754 287.138 24.2454C288.192 24.4955 287.719 25.1627 287.046 25.7324C288.853 24.8223 292.328 24.3594 292.482 24.9517C292.541 25.1788 292.278 25.5073 291.893 25.8491C295.156 26.1297 297.558 27.0849 297.558 28.2202C297.558 29.5758 294.132 30.6747 289.907 30.6747C285.681 30.6747 282.256 29.5758 282.256 28.2202C282.256 28.1901 282.257 28.1602 282.261 28.1303C282.239 28.053 282.235 27.9553 282.25 27.8346ZM258.378 27.9037C258.062 26.2073 254.046 23.8638 251.096 24.3316C249.5 24.5845 250.254 25.2662 251.283 25.839C251.081 25.834 250.876 25.8315 250.669 25.8315C246.412 25.8315 242.961 26.9157 242.961 28.2531C242.961 29.5905 246.412 30.6747 250.669 30.6747C254.927 30.6747 258.378 29.5905 258.378 28.2531C258.378 28.2242 258.376 28.1954 258.373 28.1668C258.395 28.0952 258.397 28.0081 258.378 27.9037Z" fill="#9E292B"/>
<path fill-rule="evenodd" clip-rule="evenodd" d="M279 54C278.683 56.3884 277.702 58.9631 276.462 61.4225L276.083 62.1566C276.019 62.2783 275.954 62.3996 275.888 62.5205L275.49 63.2408V63.2408L275.083 63.9497C274.946 64.1839 274.808 64.4159 274.669 64.6454L274.25 65.326V65.326L273.829 65.9897V65.9897L273.408 66.6348V66.6348L272.99 67.2594V67.2594L272.577 67.8618V67.8618L271.973 68.7195V68.7195L271.394 69.517V69.517L270.675 70.4759V70.4759L270.187 71.109V71.109L269.494 71.9818V71.9818L268.649 73V73L268.068 72.1613V72.1613L267.296 71.0104V71.0104L266.608 69.9543V69.9543L266 68.9947V68.9947L266.436 69.5221V69.5221C269.529 67.4332 272.565 64.2618 275.546 60.008C277.343 57.4431 278.397 55.4935 279 54Z" fill="#1B1B1B"/>
<path fill-rule="evenodd" clip-rule="evenodd" d="M251.33 38.0026C253.814 37.9137 255.903 40.079 255.997 42.839C256.091 45.599 254.154 47.9084 251.67 47.9974C249.186 48.0863 247.097 45.921 247.003 43.161C246.909 40.401 248.846 38.0916 251.33 38.0026Z" fill="#1B1B1B"/>
<path fill-rule="evenodd" clip-rule="evenodd" d="M286.939 38L287.189 38.0019C289.949 38.0909 292.101 40.4004 291.996 43.1607C291.892 45.9209 289.571 48.0863 286.811 47.9974C284.051 47.9084 281.899 45.5989 282.004 42.8386C282.105 40.162 284.291 38.0448 286.939 38V38Z" fill="#1B1B1B"/>
<path fill-rule="evenodd" clip-rule="evenodd" d="M257.983 27.9707C258.006 28.1094 258.006 28.2271 257.981 28.3239L257.983 28.353V28.353C257.983 29.8149 254.629 31 250.492 31C246.354 31 243 29.8149 243 28.353C243 27.2862 244.786 26.3669 247.359 25.9478L247.944 25.8631C248.043 25.8504 248.144 25.8384 248.245 25.8272L248.864 25.7687C249.283 25.7359 249.715 25.7155 250.158 25.7086L250.492 25.7061C250.649 25.7061 250.805 25.7078 250.959 25.7111L250.649 25.5218C249.508 24.7855 249.594 24.3001 250.906 24.0662C253.774 23.5549 257.677 26.1165 257.983 27.9707Z" fill="#1B1B1B"/>
<path fill-rule="evenodd" clip-rule="evenodd" d="M287.118 24.0656C288.085 24.3027 288.129 24.8004 287.248 25.5587C287.848 25.2771 288.585 25.0406 289.322 24.8668L289.812 24.7604V24.7604L290.292 24.6737C291.551 24.4698 292.613 24.4883 292.699 24.8273C292.764 25.0879 292.544 25.4414 292.038 25.8879C295.502 26.5329 298 28.7292 298 29.9505C298 30.5743 297.348 30.8416 296.249 30.9441L295.816 30.9751C295.741 30.9792 295.664 30.9826 295.585 30.9856L295.094 30.9977V30.9977L294.567 31V31L293.713 30.9899V30.9899L291.813 30.9488V30.9488L290.781 30.9329V30.9329L290.069 30.9292C289.108 30.9292 288.186 30.8745 287.331 30.7743L286.703 30.6906C284.04 30.2925 282.161 29.4365 282.026 28.4337L282.018 28.3068C281.996 28.2079 281.994 28.0843 282.012 27.9368C282.233 26.0984 285.049 23.5587 287.118 24.0656Z" fill="#1B1B1B"/>
<path d="M385.845 107.106L179.943 88.6567L170 199.618L375.902 218.068L385.845 107.106Z" fill="#EDBB7D"/>
<g style="mix-blend-mode:multiply" opacity="0.51">
<path d="M375.902 218.067L380.014 109.796L179.943 88.6562L385.845 107.106L375.902 218.067Z" fill="#D7A478"/>
</g>
<path d="M376.068 84.4001L194.226 68.1063L179.943 88.6568L385.845 107.106L376.068 84.4001Z" fill="#D7A478"/>
<path d="M292.579 76.9188L275.656 75.4024C275.542 75.8452 271.694 90.067 269.733 96.7021L294.022 98.8785C293.775 95.8506 292.774 81.2105 292.579 76.9188Z" fill="#875B40"/>
<path d="M269.735 96.7022L268.082 115.152L270.742 114.384L272.672 115.978L275.637 114.527L277.937 116.626L280.136 115.224L282.035 117.169L283.88 115.856L285.721 117.678L288 116.165L289.22 117.991L291.292 116.46L291.989 117.943L294.024 98.877C294.024 98.877 269.747 96.5658 269.735 96.7006L269.735 96.7022Z" fill="#9C6A4B"/>
<path d="M387.302 114.944C386.735 109.622 387.166 105.823 388.595 103.548C389.25 102.504 390.737 103.491 393.055 106.508L406.011 127.736C410.894 134.906 418.551 151.246 411.16 169.548C407.838 177.777 404.404 183.752 400.97 188.135C391.644 202.453 374.522 221.536 347 228L348.666 216.209C361.103 214.469 371.743 205.923 376.354 194.065L377.193 162.016L377.196 161.734L377.196 161.181L377.192 160.898C377.114 155.956 375.1 154.753 372.784 153.369C372.335 153.101 371.874 152.826 371.415 152.515C371.415 152.515 357.915 143.958 358.541 141.116C359.167 138.275 370.879 137.759 370.879 137.759L371.467 137.712L372.532 137.639L372.699 137.63C372.699 137.63 357.164 130.865 358.053 127.146C358.828 123.907 362.816 124.042 366.878 124.18C367.48 124.2 368.083 124.221 368.678 124.23L369.136 124.243L369.37 124.252L369.914 124.283L370.472 124.326L370.929 124.369L371.513 124.432L372.111 124.506L372.601 124.573L373.099 124.646L373.352 124.684C372.163 122.578 370.395 121.718 368.559 121.16L368.191 121.052L368.006 121.001L367.587 120.888L366.132 120.517L365.726 120.406L365.534 120.351C364.067 119.922 362.751 119.339 361.885 118.05C361.169 116.985 361.877 116.189 363.016 115.158C368.131 111.216 377.25 112.424 378.039 112.546C381.423 113.068 384.522 113.924 387.302 114.944Z" fill="#2876D0"/>
<path opacity="0.2" d="M387.302 114.945C386.735 109.622 387.166 105.823 388.595 103.548C389.25 102.504 390.737 103.491 393.055 106.509L406.011 127.736C410.894 134.906 418.551 151.246 411.16 169.549C407.838 177.777 404.404 183.752 400.97 188.135C391.644 202.453 374.522 221.536 347 228L348.666 216.209C361.103 214.47 371.743 205.923 376.354 194.066L377.193 162.016L377.196 161.734L377.196 161.182L377.192 160.899C377.114 155.956 375.1 154.753 372.784 153.369C372.335 153.101 371.874 152.826 371.415 152.516C371.415 152.516 357.915 143.958 358.541 141.116C359.167 138.275 370.879 137.759 370.879 137.759L371.467 137.712L372.532 137.639L372.699 137.63C372.699 137.63 357.164 130.865 358.053 127.146C358.828 123.907 362.816 124.042 366.878 124.18C367.48 124.201 368.083 124.221 368.678 124.231L369.136 124.243L369.37 124.253L369.914 124.284L370.472 124.326L370.929 124.369L371.513 124.432L372.111 124.506L372.601 124.573L373.099 124.646L373.352 124.684C372.163 122.578 370.395 121.718 368.559 121.16L368.191 121.052L368.006 121.001L367.587 120.889L366.132 120.517L365.726 120.406L365.534 120.351C364.067 119.922 362.751 119.339 361.885 118.05C361.169 116.985 361.877 116.189 363.016 115.158C368.131 111.216 377.25 112.425 378.039 112.546C381.423 113.068 384.522 113.925 387.302 114.945Z" fill="#1B1B1B"/>
<path d="M178.615 100.677C180.192 95.2324 180.443 91.1927 179.366 88.5578C178.872 87.3491 177.133 88.1047 174.147 90.8244L156.656 110.573C152.143 115.183 145.337 126.809 143.482 141.033C143.421 140.941 143.389 140.894 143.389 140.894C143.389 140.894 143.371 141.279 143.364 141.997C142.705 147.794 142.883 153.999 144.374 160.321C145.885 166.725 147.958 172.457 150.398 177.557C157.443 194.467 171.485 212.268 199.407 219L200.204 202.486C200.189 202.48 200.173 202.475 200.158 202.473C199.496 202.272 191.807 199.829 182.789 192.158C180.711 190.171 178.675 187.833 176.828 185.094C170.51 175.723 174.147 156.523 174.147 156.523C175.334 150.389 184.998 144.239 188.317 142.767C188.317 142.767 204.037 136.326 203.906 133.249C203.775 130.171 191.603 127.481 191.603 127.481L190.997 127.324L189.894 127.052L189.721 127.012C189.721 127.012 207.242 122.815 206.997 118.774C206.785 115.255 202.582 114.663 198.302 114.06C197.668 113.971 197.033 113.881 196.408 113.782L195.925 113.71L195.679 113.677L195.103 113.61L194.511 113.552L194.024 113.512L193.401 113.471L192.76 113.438L192.236 113.417L191.7 113.402L191.428 113.396C193.062 111.418 195.073 110.846 197.099 110.602L197.505 110.557L197.707 110.538L198.168 110.498L199.76 110.378L200.206 110.337L200.417 110.315C202.033 110.138 203.519 109.772 204.664 108.587C205.611 107.608 205.016 106.648 204.014 105.364C199.384 100.314 189.609 99.8976 188.761 99.8794C185.12 99.801 181.716 100.125 178.615 100.677Z" fill="#2876D0"/>
<path opacity="0.2" d="M178.615 100.677C180.192 95.2324 180.443 91.1927 179.366 88.5578C178.872 87.3491 177.133 88.1047 174.147 90.8244L156.656 110.573C152.143 115.183 145.337 126.809 143.482 141.033C143.421 140.941 143.389 140.894 143.389 140.894C143.389 140.894 143.371 141.279 143.364 141.997C142.705 147.794 142.883 153.999 144.374 160.321C145.885 166.725 147.958 172.457 150.398 177.557C157.443 194.467 171.485 212.268 199.407 219L200.204 202.486C200.189 202.48 200.173 202.475 200.158 202.473C199.496 202.272 191.807 199.829 182.789 192.158C180.711 190.171 178.675 187.833 176.828 185.094C170.51 175.723 174.147 156.523 174.147 156.523C175.334 150.389 184.998 144.239 188.317 142.767C188.317 142.767 204.037 136.326 203.906 133.249C203.775 130.171 191.603 127.481 191.603 127.481L190.997 127.324L189.894 127.052L189.721 127.012C189.721 127.012 207.242 122.815 206.997 118.774C206.785 115.255 202.582 114.663 198.302 114.06C197.668 113.971 197.033 113.881 196.408 113.782L195.925 113.71L195.679 113.677L195.103 113.61L194.511 113.552L194.024 113.512L193.401 113.471L192.76 113.438L192.236 113.417L191.7 113.402L191.428 113.396C193.062 111.418 195.073 110.846 197.099 110.602L197.505 110.557L197.707 110.538L198.168 110.498L199.76 110.378L200.206 110.337L200.417 110.315C202.033 110.138 203.519 109.772 204.664 108.587C205.611 107.608 205.016 106.648 204.014 105.364C199.384 100.314 189.609 99.8976 188.761 99.8794C185.12 99.801 181.716 100.125 178.615 100.677Z" fill="#1B1B1B"/>
<path d="M377 169L173.496 160.598L172 200L375.902 218.067L377 169Z" fill="#EDBB7D"/>
</svg>
