<svg width="48" height="48" viewBox="0 0 48 48" xmlns="http://www.w3.org/2000/svg"><g fill="none" fill-rule="evenodd"><path d="M0 48h48V0H0z"/><path d="M12.187 33.95l17.978-.014c.636.006.896.006 1.228-.002 1.15 0 2.208-.394 3.078-1.046L36 34.474c-1.188.932-2.646 1.502-4.24 1.502-.35.008-.628.008-1.304.002l-18.56.012c-3.442.07-4.742-.184-6.212-1.762-3.862-4.144-.664-10.208 5.362-9.394.4-3 2.608-4.928 5.248-4.83l2.86 1.978c-.208.34-.638.498-1.02.302-2.696-1.378-5.21.358-5.2 3.532.002.538-.48.936-.984.812-4.876-1.196-7.374 3.128-4.584 6.124 1.002 1.074 1.928 1.256 4.822 1.198zM20 12h8.33l5.438 6.832 3.134-.412 1.69 1.084v1.05L38 19.956h-1.098l-.834.734L44 25.02V32l-4.124-4.922-9.128-4.31-3.47 2.388-4.902-1.252 1.546-1.26 5.854-.86-3.526-5.866L20 12z" fill="#FFF"/></g></svg>