<svg xmlns="http://www.w3.org/2000/svg" width="358.189" height="136.624" overflow="visible"><path fill="#58819b" d="M60.4 75L47 51.5 60.4 28h26.802l13.4 23.5-13.4 23.5z"/><path fill="#9ac4d8" d="M13.4 47L0 23.5 13.4 0h26.802l13.4 23.5-13.4 23.5z"/><path fill="#2f5775" d="M13.4 103L0 79.5 13.4 56h26.802l13.4 23.5-13.4 23.5z"/><path d="M91.773 111.1c0 .9-.2 1.563-.6 1.993s-.952.646-1.654.646h-15.9c0 1.116.132 2.13.396 3.04s.684 1.684 1.26 2.32 1.32 1.12 2.227 1.453 1.998.5 3.268.5c1.3 0 2.422-.093 3.4-.277l2.535-.613 1.773-.613c.47-.184.85-.277 1.143-.277.176 0 .322.034.44.103s.215.2.293.365.132.424.16.746.044.727.044 1.213l-.03 1.098-.088.774a1.85 1.85 0 01-.176.54 2.05 2.05 0 01-.308.425c-.127.137-.474.32-1.04.556s-1.3.464-2.168.688a29.77 29.77 0 01-3.018.586c-1.133.166-2.344.25-3.633.25-2.325 0-4.362-.294-6.1-.88s-3.208-1.476-4.38-2.668-2.046-2.697-2.623-4.516-.864-3.95-.864-6.393c0-2.326.302-4.424.908-6.3s1.484-3.45 2.636-4.75 2.553-2.292 4.203-2.977 3.5-1.026 5.58-1.026c2.187 0 4.056.323 5.608.968s2.826 1.54 3.822 2.683 1.728 2.497 2.196 4.062.703 3.264.703 5.102v1.17zm-7.156-2.1c.06-2.072-.356-3.7-1.244-4.882s-2.257-1.774-4.1-1.774c-.937 0-1.75.177-2.443.528s-1.268.826-1.726 1.422-.8 1.3-1.053 2.1-.385 1.676-.424 2.595h11zm38.017 15.952c0 .215-.05.396-.146.542s-.263.27-.497.366-.55.166-.95.205-.892.06-1.477.06c-.624 0-1.13-.02-1.52-.06s-.707-.108-.95-.205-.42-.22-.527-.366a.89.89 0 01-.161-.543v-2.902c-1.35 1.447-2.76 2.57-4.236 3.373s-3.112 1.202-4.9 1.202c-1.994 0-3.68-.386-5.057-1.158a9.65 9.65 0 01-3.371-3.123c-.87-1.3-1.5-2.84-1.9-4.6s-.586-3.592-.586-5.527c0-2.326.25-4.418.748-6.275s1.226-3.44 2.184-4.75 2.15-2.316 3.577-3.02 3.07-1.056 4.926-1.056c1.466 0 2.794.298 3.987.895s2.375 1.472 3.548 2.624V86.508c0-.195.053-.37.16-.527s.302-.287.585-.395.658-.2 1.126-.25 1.063-.088 1.784-.088l1.784.088c.468.06.838.142 1.1.25s.468.24.585.396a.86.86 0 01.176.527v38.443zm-7.312-17.476c-1.056-1.328-2.068-2.344-3.036-3.047s-1.98-1.055-3.036-1.055c-.958 0-1.784.24-2.48.718s-1.25 1.12-1.672 1.92-.733 1.695-.938 2.682a14.88 14.88 0 00-.308 3.034c0 1.095.088 2.16.264 3.194s.464 1.96.865 2.77.934 1.46 1.6 1.95 1.506.732 2.523.732a5.02 5.02 0 001.481-.22c.48-.147.968-.386 1.467-.718a9.85 9.85 0 001.54-1.304 26.182 26.182 0 001.73-1.978v-8.678zm39.5 17.474a.92.92 0 01-.146.514c-.096.147-.268.27-.512.366s-.566.17-.965.22-.902.073-1.506.073c-.644 0-1.165-.024-1.564-.073s-.717-.122-.95-.22-.4-.22-.498-.366a.9.9 0 01-.146-.514v-3.02c-1.447 1.564-2.918 2.736-4.413 3.52s-3.045 1.173-4.647 1.173c-1.8 0-3.3-.294-4.53-.88s-2.2-1.388-2.96-2.404-1.3-2.194-1.613-3.533-.484-3.006-.484-5v-16c0-.195.053-.366.16-.513s.302-.27.585-.366.663-.172 1.14-.22a17.83 17.83 0 011.77-.073l1.785.073c.468.05.843.123 1.126.22s.482.22.6.366a.8.8 0 01.176.514v14.788c0 1.37.088 2.416.264 3.14s.446 1.344.808 1.863a3.7 3.7 0 001.38 1.203c.558.283 1.2.425 1.954.425.94 0 1.885-.343 2.834-1.03s1.963-1.688 3.04-3.004V98.797a.85.85 0 01.16-.514c.107-.147.302-.268.585-.365a5.2 5.2 0 011.126-.22 18.035 18.035 0 011.784-.073l1.784.073c.468.05.838.123 1.1.22s.468.22.585.365a.8.8 0 01.176.514v26.154zm20.353-13.746c0 1.132-.107 1.923-.322 2.372s-.556.673-1.025.673h-12.183c-.488 0-.84-.23-1.055-.688s-.322-1.244-.322-2.356c0-1.093.107-1.864.322-2.313a1.09 1.09 0 011.055-.673h12.183a1.17 1.17 0 01.6.146c.166.097.308.264.425.498s.2.546.25.937a11.3 11.3 0 01.073 1.404zm23.807 6.36c0 1.486-.28 2.796-.835 3.93s-1.343 2.082-2.356 2.845-2.216 1.335-3.602 1.716-2.9.57-4.508.57a17.11 17.11 0 01-2.796-.22c-.888-.147-1.684-.334-2.386-.56s-1.288-.455-1.756-.7-.8-.455-1.025-.66-.38-.528-.498-.97-.176-1.1-.176-1.952l.06-1.365c.04-.342.097-.615.175-.82s.175-.343.292-.4a.86.86 0 01.438-.103c.214 0 .53.122.95.366s.94.514 1.564.807a16.41 16.41 0 002.18.82c.83.253 1.77.38 2.822.38.663 0 1.252-.067 1.77-.204s.965-.332 1.345-.585.667-.575.863-.966.292-.838.292-1.345c0-.587-.18-1.1-.54-1.5s-.838-.786-1.432-1.1a16.42 16.42 0 00-2.016-.88l-2.308-.9a21 21 0 01-2.31-1.144c-.75-.43-1.422-.958-2.016-1.584s-1.07-1.377-1.432-2.258-.54-1.936-.54-3.167c0-1.25.244-2.4.73-3.445a7.48 7.48 0 012.106-2.683c.917-.744 2.033-1.32 3.35-1.73s2.793-.616 4.432-.616c.82 0 1.613.06 2.384.177s1.468.264 2.1.44a10.12 10.12 0 011.58.572c.43.205.736.383.922.53s.316.293.395.44a1.84 1.84 0 01.176.528c.04.205.072.46.102.763a11.78 11.78 0 01.045 1.128l-.045 1.3c-.03.332-.078.597-.146.792s-.16.327-.277.396a.79.79 0 01-.409.103c-.176 0-.448-.103-.82-.308s-.832-.426-1.4-.66a16.58 16.58 0 00-1.93-.66c-.73-.206-1.564-.3-2.5-.3-.663 0-1.238.07-1.725.206s-.887.332-1.2.586-.546.553-.702.895-.234.7-.234 1.1c0 .607.185 1.115.556 1.525s.858.772 1.463 1.085a16.52 16.52 0 002.063.88l2.34.895c.8.322 1.57.7 2.34 1.13a8.86 8.86 0 012.063 1.584c.604.625 1.092 1.373 1.463 2.242s.557 1.902.557 3.094zm30.528 7.387a.81.81 0 01-.176.514c-.116.147-.313.27-.586.366s-.648.17-1.126.22-1.067.073-1.77.073a18.2 18.2 0 01-1.799-.073c-.48-.05-.854-.122-1.127-.22s-.468-.22-.585-.367a.8.8 0 01-.175-.514v-14.935c0-1.27-.094-2.27-.28-2.993s-.455-1.345-.8-1.863a3.59 3.59 0 00-1.365-1.203c-.558-.284-1.2-.426-1.953-.426-.94 0-1.9.343-2.85 1.027s-1.958 1.683-2.995 2.993v17.4a.8.8 0 01-.176.514c-.117.147-.317.27-.6.367s-.66.17-1.127.22-1.064.073-1.785.073-1.318-.024-1.786-.073-.844-.122-1.126-.22-.483-.22-.6-.366-.175-.318-.175-.514V86.416a.86.86 0 01.175-.527c.117-.157.317-.3.6-.396s.658-.2 1.126-.25 1.063-.088 1.786-.088l1.785.088c.468.06.844.142 1.127.25s.482.238.6.395.176.332.176.527v14.434c1.27-1.25 2.564-2.184 3.885-2.8a9.63 9.63 0 014.12-.924c1.778 0 3.278.294 4.5.88s2.2 1.388 2.96 2.404 1.295 2.205 1.628 3.563.5 3.006.5 4.94v16.038zm29.5.1c0 .273-.1.5-.294.646s-.504.27-.925.337-1.042.103-1.863.103c-.88 0-1.52-.034-1.924-.103s-.685-.18-.85-.337-.25-.37-.25-.645v-2.08a11.9 11.9 0 01-3.674 2.696c-1.374.644-2.904.968-4.582.968-1.386 0-2.66-.18-3.82-.542s-2.166-.898-3.016-1.6-1.508-1.598-1.976-2.652-.702-2.285-.702-3.692c0-1.523.297-2.847.893-3.97s1.482-2.052 2.663-2.784 2.65-1.274 4.405-1.626 3.795-.527 6.117-.527h2.547v-1.6c0-.822-.084-1.543-.25-2.16s-.438-1.132-.818-1.544-.9-.715-1.52-.912-1.42-.294-2.355-.294c-1.23 0-2.327.138-3.293.413s-1.82.58-2.56.915l-1.857.915c-.498.275-.902.413-1.215.413a.87.87 0 01-.57-.205 1.387 1.387 0 01-.4-.587 4.61 4.61 0 01-.248-.94 8.025 8.025 0 01-.088-1.232c0-.606.05-1.086.146-1.438s.283-.67.557-.954.75-.597 1.435-.94 1.483-.66 2.4-.955a22.12 22.12 0 013.003-.72 19.7 19.7 0 013.354-.279c2.05 0 3.803.2 5.258.6s2.65 1.018 3.588 1.848 1.62 1.902 2.05 3.2.645 2.864.645 4.662v17.6zm-7.25-11.196h-2.805c-1.188 0-2.2.1-3.04.265s-1.52.44-2.044.8-.9.777-1.153 1.275-.365 1.07-.365 1.714c0 1.095.346 1.954 1.037 2.58s1.65.938 2.877.938a5.38 5.38 0 002.848-.792c.868-.528 1.748-1.3 2.645-2.314v-4.456zm31.37-12.624l-.06 1.727c-.04.45-.098.8-.176 1.055s-.182.43-.3.526a.77.77 0 01-.482.146c-.156 0-.332-.034-.527-.103l-.66-.22-.806-.22a4.172 4.172 0 00-.968-.103c-.4 0-.82.083-1.23.25s-.835.427-1.274.78-.9.823-1.378 1.412-1 1.313-1.537 2.176v16.303a.81.81 0 01-.176.514c-.116.147-.317.27-.6.366s-.66.17-1.127.22-1.064.073-1.785.073-1.318-.024-1.786-.073-.844-.122-1.126-.22-.483-.22-.6-.366-.175-.318-.175-.514V98.797c0-.195.048-.367.146-.514s.272-.268.526-.365.58-.172.98-.22.902-.073 1.508-.073l1.55.073c.4.05.727.123.95.22s.385.22.482.365a.91.91 0 01.146.514v3.254c.684-.977 1.328-1.783 1.934-2.42s1.183-1.14 1.73-1.5 1.094-.63 1.64-.777a6.34 6.34 0 011.641-.22 8.36 8.36 0 01.82.044c.293.03.597.078.9.146a5.95 5.95 0 01.82.234c.234.088.404.18.512.277s.186.205.234.322.094.277.133.482.068.513.088.922l.03 1.67zm12.485-11.28c0 1.487-.303 2.515-.908 3.083s-1.73.85-3.37.85c-1.662 0-2.78-.274-3.355-.82s-.865-1.537-.865-2.966c0-1.487.297-2.52.895-3.097s1.723-.866 3.385-.866c1.64 0 2.754.28 3.342.837s.877 1.55.877 2.98zm-.563 35a.81.81 0 01-.176.514c-.116.147-.316.27-.6.366s-.658.17-1.127.22-1.064.073-1.785.073a17.74 17.74 0 01-1.785-.073c-.467-.05-.844-.122-1.127-.22s-.482-.22-.6-.366-.176-.318-.176-.514V98.855a.8.8 0 01.176-.513c.117-.147.316-.274.6-.382s.658-.2 1.127-.25 1.063-.088 1.785-.088l1.785.088c.47.06.844.142 1.127.25s.482.235.6.382.176.317.176.513v26.096zm32.33 0a.81.81 0 01-.176.514c-.116.147-.313.27-.586.366s-.648.17-1.125.22-1.068.073-1.77.073c-.72 0-1.32-.024-1.8-.073s-.854-.122-1.127-.22-.467-.22-.584-.367a.8.8 0 01-.176-.514v-14.935c0-1.27-.094-2.27-.28-2.993s-.455-1.345-.8-1.863a3.59 3.59 0 00-1.365-1.203c-.558-.284-1.2-.426-1.953-.426-.94 0-1.9.343-2.848 1.027s-1.96 1.683-2.996 2.993v17.4a.8.8 0 01-.176.514c-.117.147-.316.27-.6.367s-.658.17-1.127.22-1.064.073-1.785.073a17.74 17.74 0 01-1.785-.073c-.467-.05-.844-.122-1.127-.22s-.482-.22-.6-.366-.176-.318-.176-.514V98.797a.92.92 0 01.146-.514c.096-.147.27-.268.525-.365a4.26 4.26 0 01.98-.221c.4-.05.902-.073 1.508-.073l1.55.073c.4.05.727.123.95.22s.385.22.482.365a.91.91 0 01.146.514v3.02c1.447-1.564 2.918-2.736 4.414-3.52s3.053-1.173 4.676-1.173c1.78 0 3.28.294 4.5.88s2.2 1.383 2.96 2.4 1.295 2.185 1.63 3.534.498 2.97.498 4.867v16.156zm30.788-24.328c0 .937-.107 1.63-.322 2.08s-.48.673-.8.673H354a4.16 4.16 0 01.922 1.595c.186.594.28 1.213.28 1.856 0 1.522-.254 2.875-.762 4.056a8.04 8.04 0 01-2.184 2.987c-.947.8-2.1 1.425-3.428 1.845s-2.826.63-4.467.63a9.2 9.2 0 01-2.402-.308c-.76-.205-1.348-.443-1.758-.717a4.31 4.31 0 00-.631.911 2.48 2.48 0 00-.277 1.177c0 .568.248 1.033.746 1.396s1.197.563 2.096.603l6.357.234c1.484.06 2.807.27 3.97.63s2.14.87 2.93 1.522a6.58 6.58 0 011.816 2.357c.42.917.63 1.962.63 3.134 0 1.287-.283 2.503-.85 3.646s-1.416 2.132-2.55 2.972-2.555 1.503-4.264 1.992-3.705.73-6 .73c-2.227 0-4.127-.176-5.7-.527s-2.86-.84-3.867-1.465-1.738-1.372-2.197-2.24-.688-1.82-.688-2.856a6.74 6.74 0 01.248-1.846c.166-.586.4-1.147.732-1.685s.72-1.05 1.188-1.538a12.84 12.84 0 011.611-1.406c-.84-.45-1.5-1.06-1.95-1.832a4.87 4.87 0 01-.688-2.536c0-1.152.264-2.203.8-3.15s1.2-1.803 2.05-2.565c-.684-.683-1.23-1.502-1.64-2.46s-.615-2.148-.615-3.573c0-1.522.268-2.884.805-4.085s1.285-2.216 2.242-3.046 2.1-1.464 3.428-1.903 2.793-.66 4.395-.66a18.41 18.41 0 012.357.147c.752.1 1.45.237 2.096.415h8.3c.332 0 .6.215.805.644s.3 1.15.3 2.166zm-7.734 27.052c0-.878-.352-1.55-1.055-2.018s-1.67-.723-2.9-.762l-5.244-.146c-.508.37-.914.727-1.217 1.067s-.547.668-.732.98-.307.613-.365.906-.088.594-.088.906c0 .975.492 1.716 1.48 2.223s2.38.76 4.176.76c1.113 0 2.05-.112 2.813-.337s1.377-.52 1.846-.892.8-.785.996-1.243.3-.938.3-1.445zm-1.728-20.88c0-1.406-.4-2.5-1.172-3.28s-1.885-1.172-3.3-1.172c-.723 0-1.357.122-1.904.366s-1.002.576-1.363.996a4.11 4.11 0 00-.805 1.465 5.775 5.775 0 00-.264 1.742c0 1.328.4 2.377 1.172 3.148s1.865 1.157 3.252 1.157c.742 0 1.387-.117 1.934-.352s1-.556 1.36-.966.635-.884.82-1.42a5.13 5.13 0 00.28-1.683z" fill="#1e1e1e"/></svg>