<svg xmlns="http://www.w3.org/2000/svg" viewBox="0 0 340 60"><path fill="none" d="M23.8-16h290.7v84.7H23.8z"/><path d="M144.1 18.2c0-.6-.2-1.1-.7-1.5-.4-.4-1-.7-1.7-1-.7-.3-1.4-.6-2.2-1-.8-.3-1.5-.7-2.2-1.2-.7-.5-1.2-1.1-1.7-1.8-.4-.7-.7-1.6-.7-2.7 0-1 .2-1.8.5-2.5s.8-1.3 1.4-1.8c.6-.5 1.3-.8 2.1-1s1.7-.3 2.7-.3c1.1 0 2.2.1 3.2.3 1 .2 1.9.5 2.5.9l-1.2 3.2c-.4-.3-1-.5-1.9-.7s-1.7-.3-2.7-.3c-.9 0-1.6.2-2.1.5-.5.4-.7.8-.7 1.4 0 .6.2 1 .7 1.4.4.4 1 .7 1.7 1s1.4.6 2.2 1c.8.3 1.5.7 2.2 1.2s1.2 1.1 1.7 1.8.7 1.6.7 2.6c0 1.1-.2 2-.5 2.7-.3.8-.8 1.4-1.5 1.9-.6.5-1.4.9-2.3 1.1-.9.2-1.9.4-2.9.4-1.4 0-2.7-.1-3.7-.4-1.1-.3-1.9-.5-2.4-.8l1.2-3.3c.2.1.5.2.8.4.3.1.7.3 1.1.4.4.1.9.2 1.3.3.5.1.9.1 1.4.1 1.1 0 2-.2 2.6-.6s1.1-.9 1.1-1.7zm17 4.4c-.6.4-1.2.7-2 .9-.8.2-1.6.3-2.5.3-1.1 0-2.1-.2-2.9-.5-.8-.4-1.4-.9-1.9-1.5s-.8-1.4-1.1-2.4c-.2-.9-.3-1.9-.3-3 0-2.4.5-4.2 1.6-5.5s2.6-1.9 4.7-1.9c1 0 1.9.1 2.5.3.6.2 1.2.4 1.7.6l-.9 3c-.4-.2-.9-.4-1.3-.5-.4-.1-.9-.2-1.5-.2-1 0-1.8.3-2.3 1s-.8 1.7-.8 3.2c0 .6.1 1.2.2 1.7s.3 1 .6 1.3c.3.4.6.7 1 .9.4.2.9.3 1.5.3s1.1-.1 1.6-.2l1.2-.6.9 2.8zm11.6.9v-8c0-1.1-.2-2-.5-2.5s-.9-.8-1.7-.8c-.6 0-1.2.2-1.7.6-.5.4-.9 1-1 1.6v9h-3.7V3.8h3.7V11h.1c.5-.6 1-1.1 1.7-1.4S171 9 172 9c.7 0 1.3.1 1.9.3.5.2 1 .5 1.4.9.4.4.6 1 .8 1.8.2.7.3 1.7.3 2.8v8.8h-3.7zm11-14.1v8c0 1.1.1 2 .4 2.5.3.5.8.8 1.6.8.7 0 1.3-.2 1.7-.6.5-.4.8-.9 1-1.5V9.4h3.7v9.8c0 .8 0 1.5.1 2.3s.2 1.4.3 2h-2.8l-.6-2.1h-.1c-.4.7-1 1.3-1.8 1.8s-1.7.7-2.7.7c-.7 0-1.4-.1-1.9-.3-.6-.2-1-.5-1.4-.9-.4-.4-.7-1-.9-1.7-.2-.7-.3-1.7-.3-2.8V9.4h3.7zm16.1 9.4c0 .7.1 1.1.3 1.4.2.3.4.5.8.5.2 0 .4 0 .7-.1.2 0 .5-.1.8-.3l.4 2.9c-.3.2-.8.3-1.4.5-.6.2-1.3.2-1.9.2-1.1 0-1.9-.2-2.5-.7-.6-.5-.8-1.3-.8-2.5V3.8h3.7v15zm5.2-5h7.1V17H205v-3.2zm24.4 8.9c-.6.4-1.4.7-2.3.9-.9.2-1.9.3-2.9.3-1.2 0-2.3-.2-3.4-.6-1.1-.4-2-1-2.8-1.8-.8-.8-1.5-1.9-1.9-3.2-.5-1.3-.7-2.9-.7-4.8s.3-3.6.8-4.9c.5-1.3 1.2-2.4 2.1-3.2s1.8-1.4 2.9-1.7 2.1-.5 3.2-.5 2.1.1 2.9.2 1.4.3 1.9.5l-.8 3.3c-.4-.2-.9-.4-1.5-.5-.6-.1-1.3-.1-2.2-.1-1.6 0-2.8.6-3.8 1.7s-1.4 2.8-1.4 5.2c0 1 .1 1.9.3 2.8.2.8.6 1.6 1 2.1.5.6 1 1.1 1.7 1.4.7.3 1.5.5 2.4.5.8 0 1.6-.1 2.1-.3.6-.2 1.1-.4 1.5-.6l.9 3.3zm6.8-3.9c0 .7.1 1.1.3 1.4.2.3.4.5.8.5.2 0 .4 0 .7-.1.2 0 .5-.1.8-.3l.4 2.9c-.3.2-.8.3-1.4.5-.6.2-1.3.2-1.9.2-1.1 0-1.9-.2-2.5-.7-.6-.5-.8-1.3-.8-2.5V3.8h3.7v15zm4.5-2.3c0-2.4.6-4.2 1.7-5.5 1.2-1.3 2.8-1.9 4.9-1.9 1.1 0 2.1.2 2.9.5.8.4 1.5.9 2.1 1.5.5.6 1 1.4 1.2 2.4.3.9.4 1.9.4 3 0 2.4-.6 4.2-1.7 5.5s-2.8 1.9-4.9 1.9c-1.1 0-2.1-.2-2.9-.5-.8-.4-1.5-.9-2.1-1.5s-1-1.4-1.2-2.4c-.2-.9-.4-1.9-.4-3zm3.8 0c0 .6.1 1.2.2 1.7s.3 1 .5 1.4c.2.4.5.7.9.9.4.2.8.3 1.3.3 1 0 1.7-.3 2.1-1 .5-.7.7-1.8.7-3.3 0-1.3-.2-2.3-.6-3.1-.4-.8-1.2-1.2-2.2-1.2-.9 0-1.6.3-2.1 1-.5.6-.8 1.7-.8 3.3zm16.3-7.1v8c0 1.1.1 2 .4 2.5.3.5.8.8 1.6.8.7 0 1.3-.2 1.7-.6.5-.4.8-.9 1-1.5V9.4h3.7v9.8c0 .8 0 1.5.1 2.3s.2 1.4.3 2h-2.8l-.6-2.1h-.1c-.4.7-1 1.3-1.8 1.8s-1.7.7-2.7.7c-.7 0-1.4-.1-1.9-.3-.6-.2-1-.5-1.4-.9-.4-.4-.7-1-.9-1.7-.2-.7-.3-1.7-.3-2.8V9.4h3.7zm24.3 9.1v2.4c0 .8.1 1.7.3 2.6h-2.6l-.5-1.8h-.1c-.4.7-.9 1.2-1.6 1.6-.7.4-1.5.6-2.5.6-1.8 0-3.1-.6-4.1-1.7-1-1.2-1.5-3-1.5-5.5 0-2.4.5-4.3 1.6-5.6 1.1-1.3 2.7-2 4.8-2 .6 0 1.1 0 1.4.1.4.1.8.2 1.1.3V3.8h3.7v14.7zm-6.2 2.3c.7 0 1.3-.2 1.7-.5.4-.3.7-.9.9-1.5v-6c-.3-.2-.6-.4-.9-.5-.3-.1-.7-.2-1.2-.2-1 0-1.8.3-2.3 1-.5.7-.8 1.9-.8 3.6 0 1.2.2 2.2.6 2.9.4.8 1.1 1.2 2 1.2zM148.2 36.5c0 .5-.1 1-.2 1.4-.2.5-.4.9-.7 1.4-.3.4-.7.8-1.2 1.1-.5.3-1 .6-1.7.7v.1c.6.1 1.1.3 1.6.5s1 .5 1.4.9c.4.4.7.9 1 1.4.2.6.4 1.2.4 2 0 1-.2 1.9-.6 2.6s-1 1.4-1.7 1.8c-.7.5-1.5.8-2.4 1-.9.2-1.8.3-2.7.3h-2.5c-.5 0-.9-.1-1.4-.1-.5 0-.9-.1-1.2-.2V32.2c.7-.1 1.5-.2 2.4-.3.9-.1 1.9-.1 3-.1.7 0 1.5.1 2.2.2.8.1 1.5.4 2.1.7.6.3 1.1.8 1.5 1.5.5.5.7 1.3.7 2.3zm-6.6 13.4c.6 0 1.2-.1 1.7-.2.6-.1 1.1-.4 1.5-.7s.8-.7 1-1.1c.3-.5.4-1 .4-1.6 0-.8-.2-1.4-.5-1.9s-.7-.8-1.2-1.1-1.1-.4-1.7-.5c-.6-.1-1.2-.1-1.9-.1h-2.5v7.1c.1 0 .3.1.6.1.2 0 .5 0 .8.1h.9c.4-.1.7-.1.9-.1zm-1.5-9.2h1.2c.5 0 .8 0 1.1-.1.5-.2.9-.3 1.3-.6.4-.2.7-.5 1.1-.8.3-.3.6-.6.7-1 .2-.4.3-.8.3-1.3 0-.6-.1-1.1-.4-1.5-.2-.4-.6-.7-.9-1-.4-.2-.8-.4-1.4-.5s-1-.2-1.6-.2h-1.7c-.5 0-.9.1-1.2.1v6.7h1.5zm18.9-.9c-.6-.2-1.1-.3-1.6-.3-.8 0-1.4.2-1.9.7s-.8 1-.9 1.7v9.9h-2.3V37.6h1.6l.4 1.7h.1c.4-.6.8-1.1 1.3-1.5.5-.3 1.1-.5 1.9-.5.5 0 1.2.1 1.8.3l-.4 2.2zm2.6-1.1c.7-.4 1.5-.8 2.5-1 1-.2 1.9-.3 3-.3 1 0 1.8.1 2.4.4s1 .6 1.4 1c.3.4.5.9.6 1.4.1.5.2 1 .2 1.5 0 1.1 0 2.2-.1 3.3-.1 1.1-.1 2.1-.1 3 0 .7 0 1.4.1 2 .1.6.2 1.2.3 1.7h-1.7l-.6-2h-.1c-.2.3-.4.5-.6.8-.3.3-.6.5-.9.7-.4.2-.8.4-1.2.5-.5.1-1 .2-1.6.2-.6 0-1.2-.1-1.7-.3-.5-.2-1-.5-1.3-.8-.4-.3-.7-.8-.9-1.3s-.3-1-.3-1.7c0-.8.2-1.5.5-2.1.3-.6.8-1 1.4-1.3.6-.3 1.3-.6 2.2-.7.9-.1 1.8-.2 2.8-.2h.8c.3 0 .5 0 .8.1.1-.6.1-1.1.1-1.5 0-1-.2-1.8-.6-2.2-.4-.4-1.2-.6-2.3-.6-.3 0-.7 0-1 .1-.4 0-.7.1-1.1.2-.4.1-.8.2-1.1.3-.3.1-.7.3-.9.4l-1-1.6zm4 11.3c.5 0 1-.1 1.4-.2.4-.1.8-.3 1.1-.5.3-.2.6-.5.7-.7.2-.3.3-.5.4-.8v-2.3h-1.6c-.6 0-1.2 0-1.7.1-.6.1-1 .2-1.5.4-.4.2-.8.4-1 .7-.3.3-.4.7-.4 1.2 0 .7.2 1.2.7 1.6.6.3 1.2.5 1.9.5zm19.2 1.7v-8c0-1.5-.2-2.6-.6-3.3s-1.2-1.1-2.3-1.1c-1 0-1.8.3-2.5.8-.6.5-1.1 1.2-1.4 2v9.7h-2.3V37.6h1.6l.4 1.7h.1c.5-.6 1.1-1.1 1.8-1.5.8-.4 1.7-.6 2.7-.6.8 0 1.4.1 2 .3s1.1.5 1.5.9c.4.5.7 1.1.9 1.8.2.8.3 1.7.3 2.9v8.5h-2.2zm17-4.8v2.6c0 .8.1 1.5.3 2.3h-1.5l-.6-2h-.1c-.4.7-.9 1.2-1.6 1.6-.7.4-1.6.6-2.5.6-1.9 0-3.3-.6-4.2-1.8s-1.4-3-1.4-5.6c0-2.4.6-4.2 1.7-5.5 1.1-1.3 2.7-1.9 4.7-1.9.7 0 1.2 0 1.7.1.4.1.8.2 1.3.4V32h2.3v14.9zm-5.7 3.2c1 0 1.7-.2 2.3-.7.6-.5 1-1.3 1.2-2.3v-7c-.3-.3-.7-.5-1.2-.6-.4-.1-1-.2-1.7-.2-1.3 0-2.3.4-3 1.3s-1.1 2.2-1.1 4.1c0 .8.1 1.5.2 2.1.1.7.3 1.2.6 1.7s.7.8 1.1 1.1c.4.4 1 .5 1.6.5zm20.2.5c-.6.5-1.3.8-2.1 1.1-.9.3-1.8.4-2.7.4-1.1 0-2-.2-2.8-.5-.8-.3-1.4-.8-1.9-1.5-.5-.6-.9-1.4-1.1-2.3-.2-.9-.4-1.9-.4-3 0-2.4.5-4.2 1.6-5.5 1.1-1.3 2.6-1.9 4.6-1.9.6 0 1.3.1 1.9.2.6.1 1.2.4 1.7.8s.9 1 1.2 1.7c.3.7.5 1.7.5 2.9 0 .6-.1 1.3-.2 2.1h-9.1c0 .8.1 1.6.3 2.2.2.6.4 1.2.8 1.6.4.4.8.8 1.4 1 .6.2 1.3.4 2.1.4.6 0 1.3-.1 1.9-.3.6-.2 1.1-.5 1.4-.8l.9 1.4zm-4.8-11.3c-1.1 0-2 .3-2.7.9-.7.6-1.1 1.6-1.2 3h7c0-1.4-.3-2.4-.8-3s-1.3-.9-2.3-.9zm17.8 12.4v-8c0-1.5-.2-2.6-.6-3.3s-1.2-1.1-2.3-1.1c-1 0-1.8.3-2.5.8-.6.5-1.1 1.2-1.4 2v9.7h-2.3V37.6h1.6l.4 1.7h.1c.5-.6 1.1-1.1 1.8-1.5.8-.4 1.7-.6 2.7-.6.8 0 1.4.1 2 .3s1.1.5 1.5.9c.4.5.7 1.1.9 1.8.2.8.3 1.7.3 2.9v8.5h-2.2zm6.2-19.7h2.3v7h.1c.4-.5 1-1 1.7-1.3.7-.3 1.4-.5 2.2-.5 1.8 0 3.2.6 4.1 1.7.9 1.2 1.4 3 1.4 5.4 0 2.5-.6 4.3-1.8 5.6-1.2 1.3-2.9 1.9-5.1 1.9-1.1 0-2-.1-2.9-.3-.9-.2-1.5-.5-1.9-.7V32zm5.8 7.3c-.9 0-1.7.3-2.3.8-.6.5-1 1.3-1.3 2.2v7.1c.4.2.8.4 1.3.5.5.1 1 .2 1.6.2 1.3 0 2.3-.5 3.1-1.4.8-.9 1.1-2.3 1.1-4.2 0-.7-.1-1.4-.2-2.1-.1-.6-.3-1.2-.6-1.6-.3-.5-.6-.8-1.1-1.1-.4-.3-.9-.4-1.6-.4zm11.4-1.7v8c0 .7 0 1.4.1 1.9.1.6.2 1 .4 1.4.2.4.5.6.8.8.4.2.8.3 1.4.3.5 0 1-.1 1.4-.2.4-.2.7-.4 1.1-.7.3-.3.6-.6.8-1l.6-1.2v-9.4h2.3v10.1c0 .7 0 1.4.1 2.1 0 .7.1 1.4.2 1.9h-1.6l-.6-2.2h-.1c-.4.7-1 1.3-1.7 1.8s-1.7.7-2.8.7c-.8 0-1.4-.1-2-.3-.6-.2-1.1-.5-1.4-.9-.4-.5-.7-1.1-.9-1.8-.2-.8-.3-1.7-.3-2.9v-8.5h2.2zm19.7 2.2c-.6-.2-1.1-.3-1.6-.3-.8 0-1.4.2-1.9.7-.5.4-.8 1-.9 1.7v9.9h-2.3V37.6h1.6l.4 1.7h.1c.4-.6.8-1.1 1.3-1.5.5-.3 1.1-.5 1.9-.5.5 0 1.2.1 1.8.3l-.4 2.2zM286 52.4c0 1.8-.5 3.2-1.5 4-1 .9-2.4 1.3-4.3 1.3-1.1 0-2-.1-2.7-.2-.7-.1-1.3-.3-1.8-.6l.6-1.9c.4.2.9.3 1.4.5.5.2 1.2.2 2.1.2.8 0 1.4-.1 1.9-.2s.9-.4 1.2-.7c.3-.3.5-.8.6-1.3.1-.5.2-1.1.2-1.8v-1.4h-.1c-.4.5-.9 1-1.4 1.3-.6.3-1.3.4-2.3.4-1.9 0-3.3-.6-4.2-1.8-.9-1.2-1.3-3-1.3-5.5 0-2.4.6-4.2 1.7-5.5 1.1-1.3 2.8-1.9 5.1-1.9 1.1 0 2 .1 2.8.3.8.2 1.4.4 2 .6v14.2zm-5.7-2.3c1 0 1.7-.2 2.3-.7.5-.5.9-1.2 1.2-2.2V40c-.8-.4-1.7-.5-2.9-.5-1.3 0-2.3.4-3 1.3-.7.9-1.1 2.2-1.1 4.1 0 .8.1 1.5.2 2.2.1.7.3 1.2.6 1.7s.6.8 1.1 1.1c.4 0 .9.2 1.6.2z" fill="#fff"/><path d="M58 46.7h33.9c2 0 3.9-.7 5.4-1.8l2.7 2.8c-2.1 1.6-4.7 2.6-7.5 2.6h-35c-6.1.1-8.4-.3-11-3.1-6.8-7.3-1.2-18 9.5-16.6.7-5.3 4.6-8.7 9.3-8.5l5 3.5c-.4.6-1.1.9-1.8.5-4.8-2.4-9.2.6-9.2 6.2 0 .9-.8 1.7-1.7 1.4-8.6-2.1-13 5.5-8.1 10.8 1.8 2 3.4 2.3 8.5 2.2zM71.8 8h14.7l9.6 12 5.5-.7 3 1.9v1.9l-1-1.1h-1.9l-1.5 1.3 14 7.6v12.3l-7.3-8.7L90.7 27l-6.1 4.2L76 29l2.7-2.2L89 25.3 82.8 15l-11-7z" fill-rule="evenodd" clip-rule="evenodd" fill="#fff"/></svg>