<svg width="204" height="60" viewBox="0 0 204 60" xmlns="http://www.w3.org/2000/svg"><g fill="none" fill-rule="evenodd"><path d="M0 0h206v60H0z"/><path d="M85.24 24.24c0-.427-.157-.773-.47-1.04a5.186 5.186 0 00-1.18-.73c-.473-.22-.987-.447-1.54-.68a7.873 7.873 0 01-1.54-.86 4.386 4.386 0 01-1.18-1.27c-.313-.507-.47-1.153-.47-1.94 0-.68.113-1.27.34-1.77.227-.5.55-.917.97-1.25.42-.333.917-.58 1.49-.74a7.139 7.139 0 011.92-.24c.813 0 1.58.07 2.3.21.72.14 1.313.343 1.78.61l-.86 2.3c-.293-.187-.733-.357-1.32-.51a7.495 7.495 0 00-1.9-.23c-.64 0-1.13.127-1.47.38-.34.253-.51.593-.51 1.02 0 .4.157.733.47 1a5.44 5.44 0 001.18.74c.473.227.987.46 1.54.7.553.24 1.067.53 1.54.87.473.34.867.76 1.18 1.26.313.5.47 1.123.47 1.87 0 .747-.123 1.39-.37 1.93s-.593.99-1.04 1.35c-.447.36-.987.627-1.62.8-.633.173-1.33.26-2.09.26-1 0-1.88-.093-2.64-.28-.76-.187-1.32-.373-1.68-.56l.88-2.34c.147.08.337.167.57.26.233.093.497.18.79.26.293.08.603.147.93.2.327.053.663.08 1.01.08.813 0 1.437-.137 1.87-.41.433-.273.65-.69.65-1.25zm12.08 3.14c-.4.293-.883.517-1.45.67a6.67 6.67 0 01-1.75.23c-.8 0-1.477-.127-2.03-.38a3.46 3.46 0 01-1.35-1.07c-.347-.46-.597-1.017-.75-1.67a9.457 9.457 0 01-.23-2.16c0-1.693.38-2.997 1.14-3.91.76-.913 1.867-1.37 3.32-1.37.733 0 1.323.06 1.77.18.447.12.85.273 1.21.46l-.62 2.12a5.241 5.241 0 00-.91-.34 4.01 4.01 0 00-1.03-.12c-.72 0-1.267.237-1.64.71s-.56 1.23-.56 2.27c0 .427.047.82.14 1.18.093.36.233.673.42.94.187.267.43.477.73.63.3.153.65.23 1.05.23.44 0 .813-.057 1.12-.17a3.9 3.9 0 00.82-.41l.6 1.98zm8.2.62v-5.68c0-.813-.113-1.4-.34-1.76-.227-.36-.64-.54-1.24-.54-.44 0-.843.15-1.21.45-.367.3-.61.683-.73 1.15V28h-2.6V14h2.6v5.12h.08c.32-.427.713-.767 1.18-1.02.467-.253 1.06-.38 1.78-.38.507 0 .953.067 1.34.2.387.133.71.353.97.66.26.307.453.723.58 1.25.127.527.19 1.177.19 1.95V28h-2.6zm7.78-10v5.68c0 .813.097 1.4.29 1.76.193.36.57.54 1.13.54.493 0 .903-.147 1.23-.44.327-.293.57-.653.73-1.08V18h2.6v6.96c0 .547.027 1.083.08 1.61.053.527.133 1.003.24 1.43h-1.96l-.46-1.48h-.08a3.737 3.737 0 01-1.28 1.26c-.547.333-1.193.5-1.94.5a4.29 4.29 0 01-1.36-.2 2.235 2.235 0 01-1-.66c-.267-.307-.47-.72-.61-1.24s-.21-1.173-.21-1.96V18h2.6zm11.44 6.64c0 .467.06.807.18 1.02.12.213.313.32.58.32.16 0 .317-.013.47-.04a2.9 2.9 0 00.57-.18l.28 2.04c-.213.107-.54.213-.98.32-.44.107-.893.16-1.36.16-.76 0-1.34-.177-1.74-.53-.4-.353-.6-.937-.6-1.75V14h2.6v10.64zm3.64-3.54h5.02v2.3h-5.02v-2.3zm17.3 6.32c-.427.307-.97.527-1.63.66-.66.133-1.337.2-2.03.2-.84 0-1.637-.13-2.39-.39a5.112 5.112 0 01-1.99-1.26c-.573-.58-1.03-1.333-1.37-2.26-.34-.927-.51-2.05-.51-3.37 0-1.373.19-2.523.57-3.45.38-.927.873-1.673 1.48-2.24a5.462 5.462 0 012.03-1.22 7.104 7.104 0 012.24-.37c.8 0 1.477.053 2.03.16.553.107 1.01.233 1.37.38l-.54 2.32a3.966 3.966 0 00-1.09-.32c-.42-.067-.93-.1-1.53-.1-1.107 0-1.997.393-2.67 1.18-.673.787-1.01 2.007-1.01 3.66 0 .72.08 1.377.24 1.97.16.593.403 1.1.73 1.52.327.42.733.747 1.22.98.487.233 1.05.35 1.69.35.6 0 1.107-.06 1.52-.18.413-.12.773-.273 1.08-.46l.56 2.24zm4.82-2.78c0 .467.06.807.18 1.02.12.213.313.32.58.32.16 0 .317-.013.47-.04a2.9 2.9 0 00.57-.18l.28 2.04c-.213.107-.54.213-.98.32-.44.107-.893.16-1.36.16-.76 0-1.34-.177-1.74-.53-.4-.353-.6-.937-.6-1.75V14h2.6v10.64zm3.22-1.64c0-1.693.413-2.997 1.24-3.91.827-.913 1.987-1.37 3.48-1.37.8 0 1.493.127 2.08.38s1.073.61 1.46 1.07c.387.46.677 1.017.87 1.67a7.6 7.6 0 01.29 2.16c0 1.693-.41 2.997-1.23 3.91-.82.913-1.977 1.37-3.47 1.37-.8 0-1.493-.127-2.08-.38a3.975 3.975 0 01-1.47-1.07 4.496 4.496 0 01-.88-1.67 7.592 7.592 0 01-.29-2.16zm2.68 0c0 .44.04.847.12 1.22.08.373.2.7.36.98.16.28.37.497.63.65.26.153.57.23.93.23.68 0 1.187-.247 1.52-.74.333-.493.5-1.273.5-2.34 0-.92-.153-1.663-.46-2.23-.307-.567-.827-.85-1.56-.85-.64 0-1.14.24-1.5.72-.36.48-.54 1.267-.54 2.36zm11.54-5v5.68c0 .813.097 1.4.29 1.76.193.36.57.54 1.13.54.493 0 .903-.147 1.23-.44.327-.293.57-.653.73-1.08V18h2.6v6.96c0 .547.027 1.083.08 1.61.053.527.133 1.003.24 1.43h-1.96l-.46-1.48h-.08a3.737 3.737 0 01-1.28 1.26c-.547.333-1.193.5-1.94.5a4.29 4.29 0 01-1.36-.2 2.235 2.235 0 01-1-.66c-.267-.307-.47-.72-.61-1.24s-.21-1.173-.21-1.96V18h2.6zm17.26 6.48c0 .56.007 1.12.02 1.68.013.56.073 1.18.18 1.86h-1.86l-.36-1.3h-.08c-.267.467-.65.843-1.15 1.13-.5.287-1.09.43-1.77.43-1.253 0-2.227-.413-2.92-1.24-.693-.827-1.04-2.12-1.04-3.88 0-1.707.387-3.033 1.16-3.98.773-.947 1.907-1.42 3.4-1.42a6.1 6.1 0 011.02.07c.267.047.533.123.8.23V14h2.6v10.48zm-4.42 1.6c.507 0 .907-.123 1.2-.37.293-.247.5-.603.62-1.07V20.4a1.984 1.984 0 00-.62-.33c-.227-.073-.52-.11-.88-.11-.733 0-1.283.247-1.65.74s-.55 1.34-.55 2.54c0 .853.15 1.54.45 2.06.3.52.777.78 1.43.78zM88.14 37.2c0 .333-.053.673-.16 1.02-.107.347-.267.67-.48.97a3.2 3.2 0 01-.82.79 3.81 3.81 0 01-1.18.52v.08c.4.067.783.18 1.15.34a3.125 3.125 0 011.65 1.68c.173.4.26.873.26 1.42 0 .72-.15 1.343-.45 1.87-.3.527-.693.957-1.18 1.29a5.206 5.206 0 01-1.67.74 7.73 7.73 0 01-1.92.24h-.8c-.307 0-.627-.01-.96-.03a25.89 25.89 0 01-1-.08 5.724 5.724 0 01-.88-.15V34.12c.493-.08 1.067-.147 1.72-.2.653-.053 1.367-.08 2.14-.08.52 0 1.05.043 1.59.13.54.087 1.03.253 1.47.5.44.247.803.59 1.09 1.03.287.44.43 1.007.43 1.7zm-4.64 9.52c.427 0 .84-.05 1.24-.15.4-.1.753-.26 1.06-.48.307-.22.55-.49.73-.81.18-.32.27-.7.27-1.14 0-.547-.11-.987-.33-1.32a2.304 2.304 0 00-.86-.78 3.721 3.721 0 00-1.19-.38 8.8 8.8 0 00-1.32-.1h-1.74v5.02c.093.027.227.047.4.06.173.013.36.027.56.04a17.583 17.583 0 001.18.04zm-1.1-6.56c.227 0 .5-.007.82-.02a9.99 9.99 0 00.8-.06c.32-.107.62-.237.9-.39.28-.153.53-.333.75-.54.22-.207.393-.447.52-.72.127-.273.19-.57.19-.89 0-.44-.083-.803-.25-1.09a1.954 1.954 0 00-.67-.69 2.91 2.91 0 00-.96-.37 5.497 5.497 0 00-1.1-.11c-.44 0-.843.01-1.21.03-.367.02-.643.05-.83.09v4.76h1.04zm13.44-.62c-.4-.133-.78-.2-1.14-.2-.573 0-1.027.157-1.36.47-.333.313-.54.71-.62 1.19v7h-1.6V38h1.12l.3 1.22h.08c.253-.453.557-.803.91-1.05s.803-.37 1.35-.37c.387 0 .82.067 1.3.2l-.34 1.54zm1.82-.8a5.761 5.761 0 011.77-.68 9.89 9.89 0 012.11-.22c.693 0 1.25.093 1.67.28.42.187.74.43.96.73.22.3.367.63.44.99.073.36.11.72.11 1.08 0 .8-.02 1.58-.06 2.34-.04.76-.06 1.48-.06 2.16 0 .493.02.96.06 1.4.04.44.113.847.22 1.22h-1.18l-.42-1.4h-.1c-.12.187-.27.37-.45.55-.18.18-.397.34-.65.48a4.088 4.088 0 01-2.02.49c-.427 0-.823-.067-1.19-.2a2.665 2.665 0 01-1.58-1.46 2.889 2.889 0 01-.23-1.18c0-.587.12-1.077.36-1.47s.577-.707 1.01-.94c.433-.233.953-.4 1.56-.5.607-.1 1.277-.15 2.01-.15h.55c.18 0 .363.013.55.04.04-.4.06-.76.06-1.08 0-.733-.147-1.247-.44-1.54-.293-.293-.827-.44-1.6-.44-.227 0-.47.017-.73.05s-.527.08-.8.14a6.63 6.63 0 00-.78.22 3.952 3.952 0 00-.65.29l-.5-1.2zm2.84 8.02c.373 0 .707-.05 1-.15.293-.1.547-.227.76-.38a2.42 2.42 0 00.84-1.05v-1.66a15.497 15.497 0 00-1.14-.04c-.413 0-.817.023-1.21.07a3.83 3.83 0 00-1.04.26c-.3.127-.54.3-.72.52-.18.22-.27.497-.27.83 0 .467.167.85.5 1.15.333.3.76.45 1.28.45zM114.06 48v-5.7c0-1.04-.15-1.823-.45-2.35-.3-.527-.85-.79-1.65-.79-.707 0-1.29.19-1.75.57a3.04 3.04 0 00-.97 1.43V48h-1.6V38h1.12l.3 1.22h.08c.32-.427.75-.777 1.29-1.05s1.183-.41 1.93-.41c.547 0 1.027.063 1.44.19.413.127.757.35 1.03.67.273.32.48.75.62 1.29s.21 1.223.21 2.05V48h-1.6zm12.1-3.44c0 .68.007 1.297.02 1.85.013.553.073 1.097.18 1.63h-1.08l-.4-1.42h-.08a3.223 3.223 0 01-1.16 1.16c-.507.307-1.1.46-1.78.46-1.333 0-2.323-.42-2.97-1.26-.647-.84-.97-2.153-.97-3.94 0-1.707.403-3.003 1.21-3.89.807-.887 1.917-1.33 3.33-1.33.493 0 .883.027 1.17.08.287.053.597.14.93.26V34h1.6v10.56zm-4.04 2.28c.68 0 1.22-.177 1.62-.53.4-.353.673-.89.82-1.61v-4.96a2.241 2.241 0 00-.82-.4c-.307-.08-.713-.12-1.22-.12-.92 0-1.64.303-2.16.91-.52.607-.78 1.577-.78 2.91 0 .547.043 1.053.13 1.52.087.467.23.867.43 1.2.2.333.463.597.79.79.327.193.723.29 1.19.29zm14.32.36c-.4.32-.903.573-1.51.76-.607.187-1.25.28-1.93.28-.76 0-1.42-.123-1.98-.37s-1.02-.6-1.38-1.06a4.588 4.588 0 01-.8-1.65c-.173-.64-.26-1.36-.26-2.16 0-1.707.38-3.007 1.14-3.9.76-.893 1.847-1.34 3.26-1.34.453 0 .907.05 1.36.15.453.1.86.29 1.22.57.36.28.653.677.88 1.19.227.513.34 1.19.34 2.03 0 .44-.04.927-.12 1.46h-6.42c0 .587.06 1.107.18 1.56.12.453.307.837.56 1.15.253.313.583.553.99.72.407.167.903.25 1.49.25.453 0 .907-.08 1.36-.24.453-.16.793-.347 1.02-.56l.6 1.16zM133 39.16c-.787 0-1.417.207-1.89.62-.473.413-.757 1.12-.85 2.12h4.96c0-1.013-.193-1.723-.58-2.13-.387-.407-.933-.61-1.64-.61zM145.62 48v-5.7c0-1.04-.15-1.823-.45-2.35-.3-.527-.85-.79-1.65-.79-.707 0-1.29.19-1.75.57a3.04 3.04 0 00-.97 1.43V48h-1.6V38h1.12l.3 1.22h.08c.32-.427.75-.777 1.29-1.05s1.183-.41 1.93-.41c.547 0 1.027.063 1.44.19.413.127.757.35 1.03.67.273.32.48.75.62 1.29s.21 1.223.21 2.05V48h-1.6zm4.42-14h1.6v4.98h.08a3.083 3.083 0 011.17-.9c.473-.213.99-.32 1.55-.32 1.293 0 2.263.413 2.91 1.24.647.827.97 2.107.97 3.84 0 1.747-.427 3.073-1.28 3.98s-2.053 1.36-3.6 1.36c-.747 0-1.423-.08-2.03-.24-.607-.16-1.063-.333-1.37-.52V34zm4.12 5.16c-.667 0-1.207.187-1.62.56-.413.373-.713.9-.9 1.58v5.04c.253.147.56.257.92.33.36.073.733.11 1.12.11.907 0 1.63-.32 2.17-.96.54-.64.81-1.64.81-3 0-.52-.047-1.007-.14-1.46a3.508 3.508 0 00-.44-1.16c-.2-.32-.457-.573-.77-.76-.313-.187-.697-.28-1.15-.28zm8.02-1.16v5.7c0 .52.03.977.09 1.37.06.393.163.72.31.98s.347.457.6.59c.253.133.573.2.96.2.36 0 .68-.057.96-.17a2.5 2.5 0 00.75-.47c.22-.2.413-.43.58-.69a4.18 4.18 0 00.41-.83V38h1.6v7.16c0 .48.017.977.05 1.49s.09.963.17 1.35h-1.1l-.4-1.58h-.1c-.307.52-.72.953-1.24 1.3-.52.347-1.18.52-1.98.52a4.748 4.748 0 01-1.41-.19 2.158 2.158 0 01-1.02-.67c-.273-.32-.48-.75-.62-1.29s-.21-1.223-.21-2.05V38h1.6zm13.96 1.54c-.4-.133-.78-.2-1.14-.2-.573 0-1.027.157-1.36.47-.333.313-.54.71-.62 1.19v7h-1.6V38h1.12l.3 1.22h.08c.253-.453.557-.803.91-1.05s.803-.37 1.35-.37c.387 0 .82.067 1.3.2l-.34 1.54zm9.64 8.92c0 1.293-.343 2.247-1.03 2.86s-1.703.92-3.05.92c-.8 0-1.443-.05-1.93-.15-.487-.1-.903-.23-1.25-.39l.42-1.36c.307.12.647.233 1.02.34.373.107.86.16 1.46.16.56 0 1.017-.05 1.37-.15.353-.1.637-.267.85-.5.213-.233.36-.533.44-.9.08-.367.12-.803.12-1.31v-.96h-.08a2.676 2.676 0 01-1.02.89c-.413.207-.953.31-1.62.31-1.347 0-2.337-.42-2.97-1.26-.633-.84-.95-2.147-.95-3.92 0-1.707.407-3.003 1.22-3.89s2.013-1.33 3.6-1.33c.76 0 1.41.06 1.95.18s1.023.26 1.45.42v10.04zm-4.02-1.64c.68 0 1.213-.17 1.6-.51.387-.34.66-.87.82-1.59V39.6c-.533-.253-1.213-.38-2.04-.38-.907 0-1.62.307-2.14.92s-.78 1.573-.78 2.88c0 .56.047 1.073.14 1.54.093.467.24.867.44 1.2.2.333.46.593.78.78.32.187.713.28 1.18.28z" fill="#FFF" fill-rule="nonzero"/><path d="M24.235 44.438l22.472-.018c.795.008 1.12.008 1.535-.002 1.438 0 2.76-.493 3.848-1.308L54 45.093c-1.485 1.165-3.308 1.877-5.3 1.877-.438.01-.785.01-1.63.003l-23.2.015c-4.303.087-5.928-.23-7.765-2.203-4.828-5.18-.83-12.76 6.702-11.742.5-3.75 3.26-6.16 6.56-6.038l3.575 2.473c-.26.425-.797.622-1.275.377-3.37-1.722-6.512.448-6.5 4.415.003.673-.6 1.17-1.23 1.015-6.095-1.495-9.217 3.91-5.73 7.655 1.253 1.343 2.41 1.57 6.028 1.498zM34 17h10.412l6.798 8.54 3.917-.515 2.113 1.355v1.313l-.74-.748h-1.373l-1.042.918L64 33.275V42l-5.155-6.153-11.41-5.387-4.338 2.985-6.127-1.565 1.932-1.575 7.318-1.075-4.408-7.332L34.001 17z" fill="#FFF"/></g></svg>