<svg version="1.1" id="Layer_1" xmlns="http://www.w3.org/2000/svg" x="0" y="0" viewBox="0 0 239 60" xml:space="preserve"><style>.st0{fill:#fff}</style><g id="Artboard-Copy-2"><g id="Logo"><text transform="translate(100.677 39.83)" class="st0" letter-spacing="1" font-size="22" font-family="PTSans-Narrow">Schul-Cloud</text><path d="M33.9 3.8C29.3.2 24.3-.3 19.1 2.2c-5.4 2.7-8.1 7.3-7.8 13.4C5.4 15.5.5 20.9 1.2 26.7c.6 4.7 3.8 8 8.5 8.7h28.6c5.8-.7 7.9-3.3 8.8-7.2" fill="#fff" stroke="#fff" stroke-miterlimit="10" transform="translate(22 11)"/><path class="st0" d="M34.3 21.3h.3c.1 0 .3.1.3.3v.3c0 .1-.1.3-.3.3h-.3c-.1 0-.3-.1-.3-.3v-.3c.1-.2.2-.3.3-.3zm1.1 0h.3c.1 0 .3.1.3.3v.3c0 .1-.1.3-.3.3h-.3c-.1 0-.3-.1-.3-.3v-.3c.1-.2.2-.3.3-.3zm3.3-16.5h.3c.1 0 .3.1.3.3v.3c0 .1-.1.3-.3.3h-.3c-.1 0-.3-.1-.3-.3V5c.1-.1.2-.2.3-.2zm-1.1 0h.3c.1 0 .3.1.3.3v.3c0 .1-.1.3-.3.3h-.3c-.1 0-.3-.1-.3-.3V5c.1-.1.2-.2.3-.2zm2.2 0h.3c.1 0 .3.1.3.3v.3c0 .1-.1.3-.3.3h-.3c-.1 0-.3-.1-.3-.3V5c.1-.1.2-.2.3-.2zm2.2 0h.3c.1 0 .3.1.3.3v.3c0 .1-.1.3-.3.3H42c-.1 0-.3-.1-.3-.3V5c.1-.1.2-.2.3-.2zm-1.1 0h.3c.1 0 .3.1.3.3v.3c0 .1-.1.3-.3.3h-.3c-.1 0-.3-.1-.3-.3V5c.1-.1.2-.2.3-.2zm-3.3 1.1h.3c.1 0 .3.1.3.3v.3c0 .1-.1.3-.3.3h-.3c-.1 0-.3-.1-.3-.3v-.4c.1-.1.2-.2.3-.2zm-1.1 0h.3c.1 0 .3.1.3.3v.3c0 .1-.1.3-.3.3h-.3c-.1 0-.3-.1-.3-.3v-.4c.1-.1.2-.2.3-.2zm2.2 0h.3c.1 0 .3.1.3.3v.3c0 .1-.1.3-.3.3h-.3c-.1 0-.3-.1-.3-.3v-.4c.1-.1.2-.2.3-.2zm2.2 0h.3c.1 0 .3.1.3.3v.3c0 .1-.1.3-.3.3h-.3c-.1 0-.3-.1-.3-.3v-.4c.1-.1.2-.2.3-.2zm-1.1 0h.3c.1 0 .3.1.3.3v.3c0 .1-.1.3-.3.3h-.3c-.1 0-.3-.1-.3-.3v-.4c.1-.1.2-.2.3-.2zm2.2 0h.3c.1 0 .3.1.3.3v.3c0 .1-.1.3-.3.3H42c-.1 0-.3-.1-.3-.3v-.4c.1-.1.2-.2.3-.2zm1.1 0h.3c.1 0 .3.1.3.3v.3c0 .1-.1.3-.3.3h-.3c-.1 0-.3-.1-.3-.3v-.4c.1-.1.2-.2.3-.2zM36.5 7h.3c.1 0 .3.1.3.3v.3c0 .1-.1.3-.3.3h-.3c-.1 0-.3-.1-.3-.3v-.4c.1-.1.2-.2.3-.2zm-1.1 0h.3c.2 0 .3.1.3.2v.3c0 .1-.1.3-.3.3h-.3c-.1 0-.3-.1-.3-.3v-.3c.1-.1.2-.2.3-.2zm2.2 0h.3c.1 0 .3.1.3.3v.3c0 .1-.1.3-.3.3h-.3c-.1 0-.3-.1-.3-.3v-.4c.1-.1.2-.2.3-.2zm2.2 0h.3c.1 0 .3.1.3.3v.3c0 .1-.1.3-.3.3h-.3c-.1 0-.3-.1-.3-.3v-.4c.1-.1.2-.2.3-.2zm-1.1 0h.3c.1 0 .3.1.3.3v.3c0 .1-.1.3-.3.3h-.3c-.1 0-.3-.1-.3-.3v-.4c.1-.1.2-.2.3-.2zm2.2 0h.3c.1 0 .3.1.3.3v.3c0 .1-.1.3-.3.3h-.3c-.1 0-.3-.1-.3-.3v-.4c.1-.1.2-.2.3-.2zM42 7h.3c.1 0 .3.1.3.3v.3c0 .1-.1.3-.3.3H42c-.1 0-.3-.1-.3-.3v-.4c.1-.1.2-.2.3-.2zm2.2 0h.3c.1 0 .3.1.3.3v.3c0 .1-.1.3-.3.3h-.3c-.1 0-.3-.1-.3-.3v-.4c.1-.1.2-.2.3-.2zm-1.1 0h.3c.1 0 .3.1.3.3v.3c0 .1-.1.3-.3.3h-.3c-.1 0-.3-.1-.3-.3v-.4c.1-.1.2-.2.3-.2zm-7.7 1.1h.3c.1 0 .3.1.3.3v.3c0 .1-.1.3-.3.3h-.3c-.1 0-.3-.1-.3-.3v-.4c.1-.1.2-.2.3-.2zm-1.1 0h.3c.1 0 .3.1.3.3v.3c0 .1-.1.3-.3.3h-.3c-.1 0-.3-.1-.3-.3v-.4c.1-.1.2-.2.3-.2zm2.2 0h.3c.1 0 .3.1.3.3v.3c0 .1-.1.3-.3.3h-.3c-.1 0-.3-.1-.3-.3v-.4c.1-.1.2-.2.3-.2zm2.2 0h.3c.1 0 .3.1.3.3v.3c0 .1-.1.3-.3.3h-.3c-.1 0-.3-.1-.3-.3v-.4c.1-.1.2-.2.3-.2zm-1.1 0h.3c.1 0 .3.1.3.3v.3c0 .1-.1.3-.3.3h-.3c-.1 0-.3-.1-.3-.3v-.4c.1-.1.2-.2.3-.2zm2.2 0h.3c.1 0 .3.1.3.3v.3c0 .1-.1.3-.3.3h-.3c-.1 0-.3-.1-.3-.3v-.4c.1-.1.2-.2.3-.2zm1.1 0h.3c.1 0 .3.1.3.3v.3c0 .1-.1.3-.3.3h-.3c-.1 0-.3-.1-.3-.3v-.4c.1-.1.2-.2.3-.2zm2.2 0h.3c.1 0 .3.1.3.3v.3c0 .1-.1.3-.3.3h-.3c-.1 0-.3-.1-.3-.3v-.4c.1-.1.2-.2.3-.2zm-1.1 0h.3c.1 0 .3.1.3.3v.3c0 .1-.1.3-.3.3H42c-.1 0-.3-.1-.3-.3v-.4c.1-.1.2-.2.3-.2zm2.2 0h.3c.1 0 .3.1.3.3v.3c0 .1-.1.3-.3.3h-.3c-.1 0-.3-.1-.3-.3v-.4c.1-.1.2-.2.3-.2zm1.2 0h.3c.1 0 .3.1.3.3v.3c0 .1-.1.3-.3.3h-.3c-.1 0-.3-.1-.3-.3v-.4c0-.1.1-.2.3-.2zM34.3 9.2h.3c.1 0 .3.1.3.3v.3c0 .1-.1.3-.3.3h-.3c-.1 0-.3-.1-.3-.3v-.4c.1-.1.2-.2.3-.2zm-1.1 0h.3c.1 0 .3.1.3.3v.3c0 .1-.1.3-.3.3h-.3c-.1-.1-.2-.2-.2-.4v-.3c0-.1.1-.2.2-.2zm2.2 0h.3c.1 0 .3.1.3.3v.3c0 .1-.1.3-.3.3h-.3c-.1 0-.3-.1-.3-.3v-.4c.1-.1.2-.2.3-.2zm2.2 0h.3c.1 0 .3.1.3.3v.3c0 .1-.1.3-.3.3h-.3c-.1 0-.3-.1-.3-.3v-.4c.1-.1.2-.2.3-.2zm-1.1 0h.3c.1 0 .3.1.3.3v.3c0 .1-.1.3-.3.3h-.3c-.1 0-.3-.1-.3-.3v-.4c.1-.1.2-.2.3-.2zm2.2 0h.3c.1 0 .3.1.3.3v.3c0 .1-.1.3-.3.3h-.3c-.1 0-.3-.1-.3-.3v-.4c.1-.1.2-.2.3-.2zm1.1 0h.3c.1 0 .3.1.3.3v.3c0 .1-.1.3-.3.3h-.3c-.1 0-.3-.1-.3-.3v-.4c.1-.1.2-.2.3-.2zm2.2 0h.3c.1 0 .3.1.3.3v.3c0 .1-.1.3-.3.3H42c-.1 0-.3-.1-.3-.3v-.4c.1-.1.2-.2.3-.2zm-1.1 0h.3c.1 0 .3.1.3.3v.3c0 .1-.1.3-.3.3h-.3c-.1 0-.3-.1-.3-.3v-.4c.1-.1.2-.2.3-.2zm2.2 0h.3c.1 0 .3.1.3.3v.3c0 .1-.1.3-.3.3h-.3c-.1 0-.3-.1-.3-.3v-.4c.1-.1.2-.2.3-.2zm1.1 0h.3c.1 0 .3.1.3.3v.3c0 .1-.1.3-.3.3h-.3c-.1-.1-.2-.2-.2-.4v-.3c0-.1.1-.2.2-.2zm1.2 0h.3c.1 0 .3.1.3.3v.3c0 .1-.1.3-.3.3h-.3c-.1 0-.3-.1-.3-.3v-.4c0-.1.1-.2.3-.2zm1.1 0h.3c.1 0 .3.1.3.3v.3c0 .1-.1.3-.3.3h-.3c-.1 0-.3-.1-.3-.3v-.4c0-.1.1-.2.3-.2zm-12.2 1.1h.3c.1 0 .3.1.3.3v.3c0 .1-.1.3-.3.3h-.3c-.1 0-.3-.1-.3-.3v-.3c.1-.2.2-.3.3-.3zm1.1 0h.3c.1 0 .3.1.3.3v.3c0 .1-.1.3-.3.3h-.3c-.1 0-.3-.1-.3-.3v-.3c.1-.2.2-.3.3-.3zm4.4 0h.3c.1 0 .3.1.3.3v.3c0 .1-.1.3-.3.3h-.3c-.1 0-.3-.1-.3-.3v-.3c.1-.2.2-.3.3-.3zm1.1 0h.3c.1 0 .3.1.3.3v.3c0 .1-.1.3-.3.3h-.3c-.1 0-.3-.1-.3-.3v-.3c.1-.2.2-.3.3-.3zm1.1 0h.3c.1 0 .3.1.3.3v.3c0 .1-.1.3-.3.3H42c-.1 0-.3-.1-.3-.3v-.3c.1-.2.2-.3.3-.3zm1.1 0h.3c.1 0 .3.1.3.3v.3c0 .1-.1.3-.3.3h-.3c-.1 0-.3-.1-.3-.3v-.3c.1-.2.2-.3.3-.3zm1.1 0h.3c.1 0 .3.1.3.3v.3c0 .1-.1.3-.3.3h-.3c-.1 0-.3-.1-.3-.3v-.3c.1-.2.2-.3.3-.3zm1.2 0h.3c.1 0 .3.1.3.3v.3c0 .1-.1.3-.3.3h-.3c-.1 0-.3-.1-.3-.3v-.3c0-.2.1-.3.3-.3zm1.1 0h.3c.1 0 .3.1.3.3v.3c0 .1-.1.3-.3.3h-.3c-.1 0-.3-.1-.3-.3v-.3c0-.2.1-.3.3-.3zm-6.7 1.1h.3c.1 0 .3.1.3.3v.3c0 .1-.1.3-.3.3h-.3c-.1 0-.3-.1-.3-.3v-.3c.1-.2.2-.3.3-.3zm1.1 0h.3c.1 0 .3.1.3.3v.3c0 .1-.1.3-.3.3h-.3c-.1 0-.3-.1-.3-.3v-.3c.1-.2.2-.3.3-.3zm1.1 0h.3c.1 0 .3.1.3.3v.3c0 .1-.1.3-.3.3H42c-.1 0-.3-.1-.3-.3v-.3c.1-.2.2-.3.3-.3zm1.1 0h.3c.1 0 .3.1.3.3v.3c0 .1-.1.3-.3.3h-.3c-.1 0-.3-.1-.3-.3v-.3c.1-.2.2-.3.3-.3zm1.1 0h.3c.1 0 .3.1.3.3v.3c0 .1-.1.3-.3.3h-.3c-.1 0-.3-.1-.3-.3v-.3c.1-.2.2-.3.3-.3zm1.2 0h.3c.1 0 .3.1.3.3v.3c0 .1-.1.3-.3.3h-.3c-.1 0-.3-.1-.3-.3v-.3c0-.2.1-.3.3-.3zm1.1 0h.3c.1 0 .3.1.3.3v.3c0 .1-.1.3-.3.3h-.3c-.1 0-.3-.1-.3-.3v-.3c0-.2.1-.3.3-.3zm-6.7 1.1h.3c.1 0 .3.1.3.3v.2c0 .1-.1.3-.3.3h-.3c-.1 0-.3-.1-.3-.3v-.3c.1-.1.2-.2.3-.2zm1.1 0h.3c.1 0 .3.1.3.3v.2c0 .1-.1.3-.3.3h-.3c-.1 0-.3-.1-.3-.3v-.3c.1-.1.2-.2.3-.2zm1.1 0h.3c.1 0 .3.1.3.3v.2c0 .1-.1.3-.3.3H42c-.1 0-.3-.1-.3-.3v-.3c.1-.1.2-.2.3-.2zm1.1 0h.3c.1 0 .3.1.3.3v.2c0 .1-.1.3-.3.3h-.3c-.1 0-.3-.1-.3-.3v-.3c.1-.1.2-.2.3-.2zm1.1 0h.3c.1 0 .3.1.3.3v.2c0 .1-.1.3-.3.3h-.3c-.1 0-.3-.1-.3-.3v-.3c.1-.1.2-.2.3-.2zm1.2 0h.3c.1 0 .3.1.3.3v.2c0 .1-.1.3-.3.3h-.3c-.1 0-.3-.1-.3-.3v-.3c0-.1.1-.2.3-.2zm1.1 0h.3c.1 0 .3.1.3.3v.2c0 .1-.1.3-.3.3h-.3c-.1 0-.3-.1-.3-.3v-.3c0-.1.1-.2.3-.2zm2.2 3.3h.3c.1 0 .3.1.3.3v.3c0 .1-.1.3-.3.3h-.3c-.1 0-.3-.1-.3-.3v-.3c0-.2.1-.3.3-.3zm-8.9-2.2h.3c.1 0 .3.1.3.3v.3c0 .1-.1.3-.3.3h-.3c-.1 0-.3-.1-.3-.3v-.3c.1-.2.2-.3.3-.3zm1.1 0h.3c.1 0 .3.1.3.3v.3c0 .1-.1.3-.3.3h-.3c-.1 0-.3-.1-.3-.3v-.3c.1-.2.2-.3.3-.3zm1.1 0h.3c.1 0 .3.1.3.3v.3c0 .1-.1.3-.3.3H42c-.1 0-.3-.1-.3-.3v-.3c.1-.2.2-.3.3-.3zm1.1 0h.3c.1 0 .3.1.3.3v.3c0 .1-.1.3-.3.3h-.3c-.1 0-.3-.1-.3-.3v-.3c.1-.2.2-.3.3-.3zm1.1 0h.3c.1 0 .3.1.3.3v.3c0 .1-.1.3-.3.3h-.3c-.1 0-.3-.1-.3-.3v-.3c.1-.2.2-.3.3-.3zm1.2 0h.3c.1 0 .3.1.3.3v.3c0 .1-.1.3-.3.3h-.3c-.1 0-.3-.1-.3-.3v-.3c0-.2.1-.3.3-.3zm-7.8-9.9h.3c.1 0 .3.1.3.3v.3c0 .1-.1.3-.3.3h-.3c-.1 0-.3-.1-.3-.3v-.4c.1-.1.2-.2.3-.2zm1.1 0h.3c.1 0 .3.1.3.3v.3c0 .1-.1.3-.3.3h-.3c-.1 0-.3-.1-.3-.3v-.4c.1-.1.2-.2.3-.2zm7.8 9.9h.3c.1 0 .3.1.3.3v.3c0 .1-.1.3-.3.3h-.3c-.1 0-.3-.1-.3-.3v-.3c0-.2.1-.3.3-.3zm1.1 0h.3c.1 0 .3.1.3.3v.3c0 .1-.1.3-.3.3h-.3c-.1 0-.3-.1-.3-.3v-.3c0-.2.1-.3.3-.3zm-7.8 1.1h.3c.1 0 .3.1.3.3v.3c0 .1-.1.3-.3.3h-.3c-.1 0-.3-.1-.3-.3V15c.1-.2.2-.3.3-.3zm1.1 0h.3c.1 0 .3.1.3.3v.3c0 .1-.1.3-.3.3h-.3c-.1 0-.3-.1-.3-.3V15c.1-.2.2-.3.3-.3zm1.1 0h.3c.1 0 .3.1.3.3v.3c0 .1-.1.3-.3.3H42c-.1 0-.3-.1-.3-.3V15c.1-.2.2-.3.3-.3zm1.1 0h.3c.1 0 .3.1.3.3v.3c0 .1-.1.3-.3.3h-.3c-.1 0-.3-.1-.3-.3V15c.1-.2.2-.3.3-.3zm1.1 0h.3c.1 0 .3.1.3.3v.3c0 .1-.1.3-.3.3h-.3c-.1 0-.3-.1-.3-.3V15c.1-.2.2-.3.3-.3zm1.2 0h.3c.1 0 .3.1.3.3v.3c0 .1-.1.3-.3.3h-.3c-.1 0-.3-.1-.3-.3V15c0-.2.1-.3.3-.3zm1.1 0h.3c.1 0 .3.1.3.3v.3c0 .1-.1.3-.3.3h-.3c-.1 0-.3-.1-.3-.3V15c0-.2.1-.3.3-.3zm1.1 0h.3c.1 0 .3.1.3.3v.3c0 .1-.1.3-.3.3h-.3c-.1 0-.3-.1-.3-.3V15c0-.2.1-.3.3-.3zm-8.9 1.1h.3c.1 0 .3.1.3.3v.3c0 .1-.1.3-.3.3h-.3c-.1 0-.3-.1-.3-.3v-.3c.1-.2.2-.3.3-.3zm1.1 0h.3c.1 0 .3.1.3.3v.3c0 .1-.1.3-.3.3h-.3c-.1 0-.3-.1-.3-.3v-.3c.1-.2.2-.3.3-.3zm1.1 0h.3c.1 0 .3.1.3.3v.3c0 .1-.1.3-.3.3h-.3c-.1 0-.3-.1-.3-.3v-.3c.1-.2.2-.3.3-.3zm1.1 0h.3c.1 0 .3.1.3.3v.3c0 .1-.1.3-.3.3H42c-.1 0-.3-.1-.3-.3v-.3c.1-.2.2-.3.3-.3zm1.1 0h.3c.1 0 .3.1.3.3v.3c0 .1-.1.3-.3.3h-.3c-.1 0-.3-.1-.3-.3v-.3c.1-.2.2-.3.3-.3zm1.1 0h.3c.1 0 .3.1.3.3v.3c0 .1-.1.3-.3.3h-.3c-.1 0-.3-.1-.3-.3v-.3c.1-.2.2-.3.3-.3zm1.2 0h.3c.1 0 .3.1.3.3v.3c0 .1-.1.3-.3.3h-.3c-.1 0-.3-.1-.3-.3v-.3c0-.2.1-.3.3-.3zm1.1 0h.3c.1 0 .3.1.3.3v.3c0 .1-.1.3-.3.3h-.3c-.1 0-.3-.1-.3-.3v-.3c0-.2.1-.3.3-.3zm1.1 0h.3c.1 0 .3.1.3.3v.3c0 .1-.1.3-.3.3h-.3c-.1 0-.3-.1-.3-.3v-.3c0-.2.1-.3.3-.3zm-8.9 1.1h.3c.1 0 .3.1.3.3v.3c0 .1-.1.3-.3.3h-.3c-.1 0-.3-.1-.3-.3v-.3c.1-.2.2-.3.3-.3zm1.1 0h.3c.1 0 .3.1.3.3v.3c0 .1-.1.3-.3.3h-.3c-.1 0-.3-.1-.3-.3v-.3c.1-.2.2-.3.3-.3zm1.1 0h.3c.1 0 .3.1.3.3v.3c0 .1-.1.3-.3.3h-.3c-.1 0-.3-.1-.3-.3v-.3c.1-.2.2-.3.3-.3zm1.1 0h.3c.1 0 .3.1.3.3v.3c0 .1-.1.3-.3.3H42c-.1 0-.3-.1-.3-.3v-.3c.1-.2.2-.3.3-.3zm1.1 0h.3c.1 0 .3.1.3.3v.3c0 .1-.1.3-.3.3h-.3c-.1 0-.3-.1-.3-.3v-.3c.1-.2.2-.3.3-.3zm1.1 0h.3c.1 0 .3.1.3.3v.3c0 .1-.1.3-.3.3h-.3c-.1 0-.3-.1-.3-.3v-.3c.1-.2.2-.3.3-.3zm1.2 0h.3c.1 0 .3.1.3.3v.3c0 .1-.1.3-.3.3h-.3c-.1 0-.3-.1-.3-.3v-.3c0-.2.1-.3.3-.3zm1.1 0h.3c.1 0 .3.1.3.3v.3c0 .1-.1.3-.3.3h-.3c-.1 0-.3-.1-.3-.3v-.3c0-.2.1-.3.3-.3zm1.1 0h.3c.1 0 .3.1.3.3v.3c0 .1-.1.3-.3.3h-.3c-.1 0-.3-.1-.3-.3v-.3c0-.2.1-.3.3-.3zm4.4 0h.3c.1 0 .3.1.3.3v.3c0 .1-.1.3-.3.3H52c-.1 0-.3-.1-.3-.3v-.3c0-.2.1-.3.3-.3zm-3.3 0h.3c.1 0 .3.1.3.3v.3c0 .1-.1.3-.3.3h-.3c-.1 0-.3-.1-.3-.3v-.3c0-.2.1-.3.3-.3zm1.1 0h.3c.1 0 .3.1.3.3v.3c0 .1-.1.3-.3.3h-.3c-.1 0-.3-.1-.3-.3v-.3c0-.2.1-.3.3-.3zm1.1 0h.3c.1 0 .3.1.3.3v.3c0 .1-.1.3-.3.3h-.3c-.1 0-.3-.1-.3-.3v-.3c0-.2.1-.3.3-.3zM38.7 18h.3c.1 0 .3.1.3.3v.3c0 .1-.1.3-.3.3h-.3c-.1 0-.3-.1-.3-.3v-.3c.1-.2.2-.3.3-.3zm1.1 0h.3c.1 0 .3.1.3.3v.3c0 .1-.1.3-.3.3h-.3c-.1 0-.3-.1-.3-.3v-.3c.1-.2.2-.3.3-.3zm1.1 0h.3c.1 0 .3.1.3.3v.3c0 .1-.1.3-.3.3h-.3c-.1 0-.3-.1-.3-.3v-.3c.1-.2.2-.3.3-.3zm1.1 0h.3c.1 0 .3.1.3.3v.3c0 .1-.1.3-.3.3H42c-.1 0-.3-.1-.3-.3v-.3c.1-.2.2-.3.3-.3zm1.1 0h.3c.1 0 .3.1.3.3v.3c0 .1-.1.3-.3.3h-.3c-.1 0-.3-.1-.3-.3v-.3c.1-.2.2-.3.3-.3zm1.1 0h.3c.1 0 .3.1.3.3v.3c0 .1-.1.3-.3.3h-.3c-.1 0-.3-.1-.3-.3v-.3c.1-.2.2-.3.3-.3zm1.2 0h.3c.1 0 .3.1.3.3v.3c0 .1-.1.3-.3.3h-.3c-.1 0-.3-.1-.3-.3v-.3c0-.2.1-.3.3-.3zm1.1 0h.3c.1 0 .3.1.3.3v.3c0 .1-.1.3-.3.3h-.3c-.1 0-.3-.1-.3-.3v-.3c0-.2.1-.3.3-.3zm1.1 0h.3c.1 0 .3.1.3.3v.3c0 .1-.1.3-.3.3h-.3c-.1 0-.3-.1-.3-.3v-.3c0-.2.1-.3.3-.3zm4.4 0h.3c.1 0 .3.1.3.3v.3c0 .1-.1.3-.3.3H52c-.1 0-.3-.1-.3-.3v-.3c0-.2.1-.3.3-.3zm-3.3 0h.3c.1 0 .3.1.3.3v.3c0 .1-.1.3-.3.3h-.3c-.1 0-.3-.1-.3-.3v-.3c0-.2.1-.3.3-.3zm1.1 0h.3c.1 0 .3.1.3.3v.3c0 .1-.1.3-.3.3h-.3c-.1 0-.3-.1-.3-.3v-.3c0-.2.1-.3.3-.3zm1.1 0h.3c.1 0 .3.1.3.3v.3c0 .1-.1.3-.3.3h-.3c-.1 0-.3-.1-.3-.3v-.3c0-.2.1-.3.3-.3zm2.2 0h.3c.1 0 .3.1.3.3v.3c0 .1-.1.3-.3.3h-.3c-.1 0-.3-.1-.3-.3v-.3c0-.2.1-.3.3-.3zm1.1 0h.3c.1 0 .3.1.3.3v.3c0 .1-.1.3-.3.3h-.3c-.1 0-.3-.1-.3-.3v-.3c0-.2.1-.3.3-.3zm1.1 0h.3c.1 0 .3.1.3.3v.3c0 .1-.1.3-.3.3h-.3c-.1 0-.3-.1-.3-.3v-.3c0-.2.1-.3.3-.3zm-19.9 1.1h.3c.1 0 .3.1.3.3v.3c0 .1-.1.3-.3.3h-.3c-.1 0-.3-.1-.3-.3v-.3c.1-.2.2-.3.3-.3zm1.1 0h.3c.1 0 .3.1.3.3v.3c0 .1-.1.3-.3.3h-.3c-.1 0-.3-.1-.3-.3v-.3c.1-.2.2-.3.3-.3zm1.1 0h.3c.1 0 .3.1.3.3v.3c0 .1-.1.3-.3.3h-.3c-.1 0-.3-.1-.3-.3v-.3c.1-.2.2-.3.3-.3zm1.1 0h.3c.1 0 .3.1.3.3v.3c0 .1-.1.3-.3.3h-.3c-.1 0-.3-.1-.3-.3v-.3c.1-.2.2-.3.3-.3zm1.1 0h.3c.1 0 .3.1.3.3v.3c0 .1-.1.3-.3.3h-.3c-.1 0-.3-.1-.3-.3v-.3c.1-.2.2-.3.3-.3zm1.1 0h.3c.1 0 .3.1.3.3v.3c0 .1-.1.3-.3.3h-.3c-.1 0-.3-.1-.3-.3v-.3c.1-.2.2-.3.3-.3zm1.1 0h.3c.1 0 .3.1.3.3v.3c0 .1-.1.3-.3.3H42c-.1 0-.3-.1-.3-.3v-.3c.1-.2.2-.3.3-.3zm1.1 0h.3c.1 0 .3.1.3.3v.3c0 .1-.1.3-.3.3h-.3c-.1 0-.3-.1-.3-.3v-.3c.1-.2.2-.3.3-.3zm1.1 0h.3c.1 0 .3.1.3.3v.3c0 .1-.1.3-.3.3h-.3c-.1 0-.3-.1-.3-.3v-.3c.1-.2.2-.3.3-.3zm4.5 0h.3c.1 0 .3.1.3.3v.3c0 .1-.1.3-.3.3h-.3c-.1 0-.3-.1-.3-.3v-.3c0-.2.1-.3.3-.3zm-3.3 0h.3c.1 0 .3.1.3.3v.3c0 .1-.1.3-.3.3h-.3c-.1 0-.3-.1-.3-.3v-.3c0-.2.1-.3.3-.3zm1.1 0h.3c.1 0 .3.1.3.3v.3c0 .1-.1.3-.3.3h-.3c-.1 0-.3-.1-.3-.3v-.3c0-.2.1-.3.3-.3zm1.1 0h.3c.1 0 .3.1.3.3v.3c0 .1-.1.3-.3.3h-.3c-.1 0-.3-.1-.3-.3v-.3c0-.2.1-.3.3-.3zm2.2 0h.3c.1 0 .3.1.3.3v.3c0 .1-.1.3-.3.3h-.3c-.1 0-.3-.1-.3-.3v-.3c0-.2.1-.3.3-.3zm1.1 0h.3c.1 0 .3.1.3.3v.3c0 .1-.1.3-.3.3h-.3c-.1 0-.3-.1-.3-.3v-.3c0-.2.1-.3.3-.3zm1.1 0h.3c.1 0 .3.1.3.3v.3c0 .1-.1.3-.3.3H52c-.1 0-.3-.1-.3-.3v-.3c0-.2.1-.3.3-.3zm3.3 0h.3c.1 0 .3.1.3.3v.3c0 .1-.1.3-.3.3h-.3c-.1 0-.3-.1-.3-.3v-.3c0-.2.1-.3.3-.3zm-2.2 0h.3c.1 0 .3.1.3.3v.3c0 .1-.1.3-.3.3h-.3c-.1 0-.3-.1-.3-.3v-.3c0-.2.1-.3.3-.3zm1.1 0h.3c.1 0 .3.1.3.3v.3c0 .1-.1.3-.3.3h-.3c-.1 0-.3-.1-.3-.3v-.3c0-.2.1-.3.3-.3zm2.2 0h.3c.1 0 .3.1.3.3v.3c0 .1-.1.3-.3.3h-.3c-.1 0-.3-.1-.3-.3v-.3c0-.2.1-.3.3-.3zm1.1 0h.3c.1 0 .3.1.3.3v.3c0 .1-.1.3-.3.3h-.3c-.1 0-.3-.1-.3-.3v-.3c0-.2.2-.3.3-.3zm-22.1 1.1h.3c.1 0 .3.1.3.3v.3c0 .1-.1.3-.3.3h-.3c-.1 0-.3-.1-.3-.3v-.3c.1-.2.2-.3.3-.3zm1.1 3.3h.3c.1 0 .3.1.3.3v.3c0 .1-.1.3-.3.3h-.3c-.1 0-.3-.1-.3-.3v-.3c.1-.2.2-.3.3-.3zm1.1 0h.3c.1 0 .3.1.3.3v.3c0 .1-.1.3-.3.3h-.3c-.1 0-.3-.1-.3-.3v-.3c.1-.2.2-.3.3-.3zm1.1 2.2h.3c.1 0 .3.1.3.3v.3c0 .1-.1.3-.3.3h-.3c-.1 0-.3-.1-.3-.3V26c.1-.2.2-.3.3-.3zm1.1 0h.3c.1 0 .3.1.3.3v.3c0 .1-.1.3-.3.3h-.3c-.1 0-.3-.1-.3-.3V26c.1-.2.2-.3.3-.3z" transform="translate(22 11)"/><path class="st0" d="M34.3 21.3h.3c.1 0 .3.1.3.3v.3c0 .1-.1.3-.3.3h-.3c-.1 0-.3-.1-.3-.3v-.3c.1-.2.2-.3.3-.3zm1.1 0h.3c.1 0 .3.1.3.3v.3c0 .1-.1.3-.3.3h-.3c-.1 0-.3-.1-.3-.3v-.3c.1-.2.2-.3.3-.3zm0 1.1h.3c.1 0 .3.1.3.3v.3c0 .1-.1.3-.3.3h-.3c-.1 0-.3-.1-.3-.3v-.3c.1-.2.2-.3.3-.3zm1.1 0h.3c.1 0 .3.1.3.3v.3c0 .1-.1.3-.3.3h-.3c-.1 0-.3-.1-.3-.3v-.3c.1-.2.2-.3.3-.3zm1.1 0h.3c.1 0 .3.1.3.3v.3c0 .1-.1.3-.3.3h-.3c-.1 0-.3-.1-.3-.3v-.3c.1-.2.2-.3.3-.3zm-1.1 2.2h.3c.1 0 .3.1.3.3v.3c0 .1-.1.3-.3.3h-.3c-.1 0-.3-.1-.3-.3v-.3c.1-.2.2-.3.3-.3zm1.1 0h.3c.1 0 .3.1.3.3v.3c0 .1-.1.3-.3.3h-.3c-.1 0-.3-.1-.3-.3v-.3c.1-.2.2-.3.3-.3zm1.1 0h.3c.1 0 .3.1.3.3v.3c0 .1-.1.3-.3.3h-.3c-.1 0-.3-.1-.3-.3v-.3c.1-.2.2-.3.3-.3zm-1.1-3.3h.3c.1 0 .3.1.3.3v.3c0 .1-.1.3-.3.3h-.3c-.1 0-.3-.1-.3-.3v-.3c.1-.2.2-.3.3-.3zm1.1 0h.3c.1 0 .3.1.3.3v.3c0 .1-.1.3-.3.3h-.3c-.1 0-.3-.1-.3-.3v-.3c.1-.2.2-.3.3-.3zm1.1 0h.3c.1 0 .3.1.3.3v.3c0 .1-.1.3-.3.3h-.3c-.1 0-.3-.1-.3-.3v-.3c.1-.2.2-.3.3-.3zm-2.2-1.1h.3c.1 0 .3.1.3.3v.3c0 .1-.1.3-.3.3h-.3c-.1 0-.3-.1-.3-.3v-.3c.1-.2.2-.3.3-.3zm1.1 0h.3c.1 0 .3.1.3.3v.3c0 .1-.1.3-.3.3h-.3c-.1 0-.3-.1-.3-.3v-.3c.1-.2.2-.3.3-.3zm1.1 0h.3c.1 0 .3.1.3.3v.3c0 .1-.1.3-.3.3h-.3c-.1 0-.3-.1-.3-.3v-.3c.1-.2.2-.3.3-.3zm1.1 0h.3c.1 0 .3.1.3.3v.3c0 .1-.1.3-.3.3h-.3c-.1 0-.3-.1-.3-.3v-.3c.1-.2.2-.3.3-.3zm1.1 0h.3c.1 0 .3.1.3.3v.3c0 .1-.1.3-.3.3H42c-.1 0-.3-.1-.3-.3v-.3c.1-.2.2-.3.3-.3zm1.1 0h.3c.1 0 .3.1.3.3v.3c0 .1-.1.3-.3.3h-.3c-.1 0-.3-.1-.3-.3v-.3c.1-.2.2-.3.3-.3zm1.1 0h.3c.1 0 .3.1.3.3v.3c0 .1-.1.3-.3.3h-.3c-.1 0-.3-.1-.3-.3v-.3c.1-.2.2-.3.3-.3zm1.2 0h.3c.1 0 .3.1.3.3v.3c0 .1-.1.3-.3.3h-.3c-.1 0-.3-.1-.3-.3v-.3c0-.2.1-.3.3-.3zm1.1 0h.3c.1 0 .3.1.3.3v.3c0 .1-.1.3-.3.3h-.3c-.1 0-.3-.1-.3-.3v-.3c0-.2.1-.3.3-.3zm4.4 0h.3c.1 0 .3.1.3.3v.3c0 .1-.1.3-.3.3h-.3c-.1 0-.3-.1-.3-.3v-.3c0-.2.1-.3.3-.3zm-3.3 0h.3c.1 0 .3.1.3.3v.3c0 .1-.1.3-.3.3h-.3c-.1 0-.3-.1-.3-.3v-.3c0-.2.1-.3.3-.3zm1.1 0h.3c.1 0 .3.1.3.3v.3c0 .1-.1.3-.3.3h-.3c-.1 0-.3-.1-.3-.3v-.3c0-.2.1-.3.3-.3zm1.1 0h.3c.1 0 .3.1.3.3v.3c0 .1-.1.3-.3.3h-.3c-.1 0-.3-.1-.3-.3v-.3c0-.2.1-.3.3-.3zm2.2 0h.3c.1 0 .3.1.3.3v.3c0 .1-.1.3-.3.3H52c-.1 0-.3-.1-.3-.3v-.3c0-.2.1-.3.3-.3zm1.1 0h.3c.1 0 .3.1.3.3v.3c0 .1-.1.3-.3.3h-.3c-.1 0-.3-.1-.3-.3v-.3c0-.2.1-.3.3-.3zm1.1 0h.3c.1 0 .3.1.3.3v.3c0 .1-.1.3-.3.3h-.3c-.1 0-.3-.1-.3-.3v-.3c0-.2.1-.3.3-.3zm3.3 0h.3c.1 0 .3.1.3.3v.3c0 .1-.1.3-.3.3h-.3c-.1 0-.3-.1-.3-.3v-.3c0-.2.2-.3.3-.3zm-2.2 0h.3c.1 0 .3.1.3.3v.3c0 .1-.1.3-.3.3h-.3c-.1 0-.3-.1-.3-.3v-.3c0-.2.1-.3.3-.3zm1.1 0h.3c.1 0 .3.1.3.3v.3c0 .1-.1.3-.3.3h-.3c-.1 0-.3-.1-.3-.3v-.3c0-.2.1-.3.3-.3zm2.2 0h.3c.1 0 .3.1.3.3v.3c0 .1-.1.3-.3.3h-.3c-.1 0-.3-.1-.3-.3v-.3c0-.2.2-.3.3-.3zm1.1 0h.3c.1 0 .3.1.3.3v.3c0 .1-.1.3-.3.3h-.3c-.1 0-.3-.1-.3-.3v-.3c0-.2.2-.3.3-.3zm1.1 0h.3c.1 0 .3.1.3.3v.3c0 .1-.1.3-.3.3h-.3c-.1 0-.3-.1-.3-.3v-.3c0-.2.2-.3.3-.3zM42 21.3h.3c.1 0 .3.1.3.3v.3c0 .1-.1.3-.3.3H42c-.1 0-.3-.1-.3-.3v-.3c.1-.2.2-.3.3-.3zm1.1 0h.3c.1 0 .3.1.3.3v.3c0 .1-.1.3-.3.3h-.3c-.1 0-.3-.1-.3-.3v-.3c.1-.2.2-.3.3-.3zm1.1 0h.3c.1 0 .3.1.3.3v.3c0 .1-.1.3-.3.3h-.3c-.1 0-.3-.1-.3-.3v-.3c.1-.2.2-.3.3-.3zm1.2 0h.3c.1 0 .3.1.3.3v.3c0 .1-.1.3-.3.3h-.3c-.1 0-.3-.1-.3-.3v-.3c0-.2.1-.3.3-.3zm1.1 0h.3c.1 0 .3.1.3.3v.3c0 .1-.1.3-.3.3h-.3c-.1 0-.3-.1-.3-.3v-.3c0-.2.1-.3.3-.3zm1.1 0h.3c.1 0 .3.1.3.3v.3c0 .1-.1.3-.3.3h-.3c-.1 0-.3-.1-.3-.3v-.3c0-.2.1-.3.3-.3zm1.1 0h.3c.1 0 .3.1.3.3v.3c0 .1-.1.3-.3.3h-.3c-.1 0-.3-.1-.3-.3v-.3c0-.2.1-.3.3-.3zm1.1 0h.3c.1 0 .3.1.3.3v.3c0 .1-.1.3-.3.3h-.3c-.1 0-.3-.1-.3-.3v-.3c0-.2.1-.3.3-.3zm1.1 0h.3c.1 0 .3.1.3.3v.3c0 .1-.1.3-.3.3h-.3c-.1 0-.3-.1-.3-.3v-.3c0-.2.1-.3.3-.3zm4.4 0h.3c.1 0 .3.1.3.3v.3c0 .1-.1.3-.3.3h-.3c-.1 0-.3-.1-.3-.3v-.3c0-.2.1-.3.3-.3zm-3.3 0h.3c.1 0 .3.1.3.3v.3c0 .1-.1.3-.3.3H52c-.1 0-.3-.1-.3-.3v-.3c0-.2.1-.3.3-.3zm1.1 0h.3c.1 0 .3.1.3.3v.3c0 .1-.1.3-.3.3h-.3c-.1 0-.3-.1-.3-.3v-.3c0-.2.1-.3.3-.3zm1.1 0h.3c.1 0 .3.1.3.3v.3c0 .1-.1.3-.3.3h-.3c-.1 0-.3-.1-.3-.3v-.3c0-.2.1-.3.3-.3zm2.2 0h.3c.1 0 .3.1.3.3v.3c0 .1-.1.3-.3.3h-.3c-.1 0-.3-.1-.3-.3v-.3c0-.2.1-.3.3-.3zm1.1 0h.3c.1 0 .3.1.3.3v.3c0 .1-.1.3-.3.3h-.3c-.1 0-.3-.1-.3-.3v-.3c0-.2.2-.3.3-.3zm1.1 0h.3c.1 0 .3.1.3.3v.3c0 .1-.1.3-.3.3h-.3c-.1 0-.3-.1-.3-.3v-.3c0-.2.2-.3.3-.3zm-13.2 1.1h.3c.1 0 .3.1.3.3v.3c0 .1-.1.3-.3.3h-.3c-.1 0-.3-.1-.3-.3v-.3c0-.2.1-.3.3-.3zm1.1 0h.3c.1 0 .3.1.3.3v.3c0 .1-.1.3-.3.3h-.3c-.1 0-.3-.1-.3-.3v-.3c0-.2.1-.3.3-.3zm1.1 0h.3c.1 0 .3.1.3.3v.3c0 .1-.1.3-.3.3h-.3c-.1 0-.3-.1-.3-.3v-.3c0-.2.1-.3.3-.3zm1.1 0h.3c.1 0 .3.1.3.3v.3c0 .1-.1.3-.3.3h-.3c-.1 0-.3-.1-.3-.3v-.3c0-.2.1-.3.3-.3zm1.1 0h.3c.1 0 .3.1.3.3v.3c0 .1-.1.3-.3.3h-.3c-.1 0-.3-.1-.3-.3v-.3c0-.2.1-.3.3-.3zm1.1 0h.3c.1 0 .3.1.3.3v.3c0 .1-.1.3-.3.3h-.3c-.1 0-.3-.1-.3-.3v-.3c0-.2.1-.3.3-.3zm1.1 0h.3c.1 0 .3.1.3.3v.3c0 .1-.1.3-.3.3H52c-.1 0-.3-.1-.3-.3v-.3c0-.2.1-.3.3-.3zm1.1 0h.3c.1 0 .3.1.3.3v.3c0 .1-.1.3-.3.3h-.3c-.1 0-.3-.1-.3-.3v-.3c0-.2.1-.3.3-.3zm1.1 0h.3c.1 0 .3.1.3.3v.3c0 .1-.1.3-.3.3h-.3c-.1 0-.3-.1-.3-.3v-.3c0-.2.1-.3.3-.3zm4.4 0h.3c.1 0 .3.1.3.3v.3c0 .1-.1.3-.3.3h-.3c-.1 0-.3-.1-.3-.3v-.3c0-.2.2-.3.3-.3zm-3.3 0h.3c.1 0 .3.1.3.3v.3c0 .1-.1.3-.3.3h-.3c-.1 0-.3-.1-.3-.3v-.3c0-.2.1-.3.3-.3zm1.1 0h.3c.1 0 .3.1.3.3v.3c0 .1-.1.3-.3.3h-.3c-.1 0-.3-.1-.3-.3v-.3c0-.2.1-.3.3-.3zm1.1 0h.3c.1 0 .3.1.3.3v.3c0 .1-.1.3-.3.3h-.3c-.1 0-.3-.1-.3-.3v-.3c0-.2.2-.3.3-.3zm3.3 0h.3c.1 0 .3.1.3.3v.3c0 .1-.1.3-.3.3h-.3c-.1 0-.3-.1-.3-.3v-.3c0-.2.2-.3.3-.3zm1.1 0h.3c.1 0 .3.1.3.3v.3c0 .1-.1.3-.3.3h-.3c-.1 0-.3-.1-.3-.3v-.3c.1-.2.2-.3.3-.3zm-12.1 1.1h.3c.1 0 .3.1.3.3v.3c0 .1-.1.3-.3.3h-.3c-.1 0-.3-.1-.3-.3v-.3c0-.2.1-.3.3-.3zm1.1 0h.3c.1 0 .3.1.3.3v.3c0 .1-.1.3-.3.3h-.3c-.1 0-.3-.1-.3-.3v-.3c0-.2.1-.3.3-.3zm1.1 0h.3c.1 0 .3.1.3.3v.3c0 .1-.1.3-.3.3H52c-.1 0-.3-.1-.3-.3v-.3c0-.2.1-.3.3-.3zm1.1 0h.3c.1 0 .3.1.3.3v.3c0 .1-.1.3-.3.3h-.3c-.1 0-.3-.1-.3-.3v-.3c0-.2.1-.3.3-.3zm1.1 0h.3c.1 0 .3.1.3.3v.3c0 .1-.1.3-.3.3h-.3c-.1 0-.3-.1-.3-.3v-.3c0-.2.1-.3.3-.3zm1.1 0h.3c.1 0 .3.1.3.3v.3c0 .1-.1.3-.3.3h-.3c-.1 0-.3-.1-.3-.3v-.3c0-.2.1-.3.3-.3zm1.1 0h.3c.1 0 .3.1.3.3v.3c0 .1-.1.3-.3.3h-.3c-.1 0-.3-.1-.3-.3v-.3c0-.2.1-.3.3-.3zm1.1 0h.3c.1 0 .3.1.3.3v.3c0 .1-.1.3-.3.3h-.3c-.1 0-.3-.1-.3-.3v-.3c0-.2.2-.3.3-.3zm1.1 0h.3c.1 0 .3.1.3.3v.3c0 .1-.1.3-.3.3h-.3c-.1 0-.3-.1-.3-.3v-.3c0-.2.2-.3.3-.3zm4.4 0h.3c.1 0 .3.1.3.3v.3c0 .1-.1.3-.3.3H63c-.1 0-.3-.1-.3-.3v-.3c.1-.2.2-.3.3-.3zm-2.2 0h.3c.1 0 .3.1.3.3v.3c0 .1-.1.3-.3.3h-.3c-.1 0-.3-.1-.3-.3v-.3c0-.2.2-.3.3-.3zm1.1 0h.3c.1 0 .3.1.3.3v.3c0 .1-.1.3-.3.3h-.3c-.1 0-.3-.1-.3-.3v-.3c.1-.2.2-.3.3-.3zm-1.1 1.1h.3c.1 0 .3.1.3.3v.3c0 .1-.1.3-.3.3h-.3c-.1 0-.3-.1-.3-.3v-.3c0-.2.2-.3.3-.3zm0-3.3h.3c.1 0 .3.1.3.3v.3c0 .1-.1.3-.3.3h-.3c-.1 0-.3-.1-.3-.3v-.3c0-.2.2-.3.3-.3zm1.1 0h.3c.1 0 .3.1.3.3v.3c0 .1-.1.3-.3.3h-.3c-.1 0-.3-.1-.3-.3v-.3c.1-.2.2-.3.3-.3zM52 24.6h.3c.1 0 .3.1.3.3v.3c0 .1-.1.3-.3.3H52c-.1 0-.3-.1-.3-.3v-.3c0-.2.1-.3.3-.3zm1.1 0h.3c.1 0 .3.1.3.3v.3c0 .1-.1.3-.3.3h-.3c-.1 0-.3-.1-.3-.3v-.3c0-.2.1-.3.3-.3zm1.1 0h.3c.1 0 .3.1.3.3v.3c0 .1-.1.3-.3.3h-.3c-.1 0-.3-.1-.3-.3v-.3c0-.2.1-.3.3-.3zm1.1 0h.3c.1 0 .3.1.3.3v.3c0 .1-.1.3-.3.3h-.3c-.1 0-.3-.1-.3-.3v-.3c0-.2.1-.3.3-.3zm1.1 0h.3c.1 0 .3.1.3.3v.3c0 .1-.1.3-.3.3h-.3c-.1 0-.3-.1-.3-.3v-.3c0-.2.1-.3.3-.3zm1.1 0h.3c.1 0 .3.1.3.3v.3c0 .1-.1.3-.3.3h-.3c-.1 0-.3-.1-.3-.3v-.3c0-.2.2-.3.3-.3zm1.1 0h.3c.1 0 .3.1.3.3v.3c0 .1-.1.3-.3.3h-.3c-.1 0-.3-.1-.3-.3v-.3c0-.2.2-.3.3-.3zm3.3 1.1h.3c.1 0 .3.1.3.3v.3c0 .1-.1.3-.3.3h-.3c-.1 0-.3-.1-.3-.3V26c.1-.2.2-.3.3-.3zm0-1.1h.3c.1 0 .3.1.3.3v.3c0 .1-.1.3-.3.3h-.3c-.1 0-.3-.1-.3-.3v-.3c.1-.2.2-.3.3-.3zm1.1 0h.3c.1 0 .3.1.3.3v.3c0 .1-.1.3-.3.3H63c-.1 0-.3-.1-.3-.3v-.3c.1-.2.2-.3.3-.3zm-2.2 1.1h.3c.1 0 .3.1.3.3v.3c0 .1-.1.3-.3.3h-.3c-.1 0-.3-.1-.3-.3V26c0-.2.2-.3.3-.3zm2.2 0h.3c.1 0 .3.1.3.3v.3c0 .1-.1.3-.3.3H63c-.1 0-.3-.1-.3-.3V26c.1-.2.2-.3.3-.3zm1.1 0h.3c.1 0 .3.1.3.3v.3c0 .1-.1.3-.3.3h-.3c-.1 0-.3-.1-.3-.3V26c.1-.2.2-.3.3-.3zm0 3.3h.3c.1 0 .3.1.3.3v.3c0 .1-.1.3-.3.3h-.3c-.1 0-.3-.1-.3-.3v-.3c.1-.1.2-.3.3-.3zM63 26.8h.3c.1 0 .3.1.3.3v.3c0 .1-.1.3-.3.3H63c-.1 0-.3-.1-.3-.3v-.3c.1-.1.2-.3.3-.3zm-1.1 0h.3c.1 0 .3.1.3.3v.3c0 .1-.1.3-.3.3h-.3c-.1 0-.3-.1-.3-.3v-.3c.1-.1.2-.3.3-.3zm2.2 0h.3c.1 0 .3.1.3.3v.3c0 .1-.1.3-.3.3h-.3c-.1 0-.3-.1-.3-.3v-.3c.1-.1.2-.3.3-.3zm0 1.1h.3c.1 0 .3.1.3.3v.3c0 .1-.1.3-.3.3h-.3c-.1 0-.3-.1-.3-.3v-.3c.1-.1.2-.3.3-.3zm-1.1 0h.3c.1 0 .3.1.3.3v.3c0 .1-.1.3-.3.3H63c-.1 0-.3-.1-.3-.3v-.3c.1-.1.2-.3.3-.3zm2.2 0h.3c.1 0 .3.1.3.3v.3c0 .1-.1.3-.3.3h-.3c-.1 0-.3-.1-.3-.3v-.3c.1-.1.2-.3.3-.3zM52 25.7h.3c.1 0 .3.1.3.3v.3c0 .1-.1.3-.3.3H52c-.1 0-.3-.1-.3-.3V26c0-.2.1-.3.3-.3zm1.1 0h.3c.1 0 .3.1.3.3v.3c0 .1-.1.3-.3.3h-.3c-.1 0-.3-.1-.3-.3V26c0-.2.1-.3.3-.3zm1.1 0h.3c.1 0 .3.1.3.3v.3c0 .1-.1.3-.3.3h-.3c-.1 0-.3-.1-.3-.3V26c0-.2.1-.3.3-.3zm1.1 0h.3c.1 0 .3.1.3.3v.3c0 .1-.1.3-.3.3h-.3c-.1 0-.3-.1-.3-.3V26c0-.2.1-.3.3-.3zm1.1 0h.3c.1 0 .3.1.3.3v.3c0 .1-.1.3-.3.3h-.3c-.1 0-.3-.1-.3-.3V26c0-.2.1-.3.3-.3zm1.1 0h.3c.1 0 .3.1.3.3v.3c0 .1-.1.3-.3.3h-.3c-.1 0-.3-.1-.3-.3V26c0-.2.2-.3.3-.3zm-4.4 1.1h.3c.1 0 .3.1.3.3v.3c0 .1-.1.3-.3.3h-.3c-.1 0-.3-.1-.3-.3v-.3c0-.1.1-.3.3-.3zm1.1 0h.3c.1 0 .3.1.3.3v.3c0 .1-.1.3-.3.3h-.3c-.1 0-.3-.1-.3-.3v-.3c0-.1.1-.3.3-.3zm1.1 0h.3c.1 0 .3.1.3.3v.3c0 .1-.1.3-.3.3h-.3c-.1 0-.3-.1-.3-.3v-.3c0-.1.1-.3.3-.3zm1.1 0h.3c.1 0 .3.1.3.3v.3c0 .1-.1.3-.3.3h-.3c-.1 0-.3-.1-.3-.3v-.3c0-.1.1-.3.3-.3zm1.1 0h.3c.1 0 .3.1.3.3v.3c0 .1-.1.3-.3.3h-.3c-.1 0-.3-.1-.3-.3v-.3c0-.1.2-.3.3-.3zm-3.3 1.1h.3c.1 0 .3.1.3.3v.3c0 .1-.1.3-.3.3h-.3c-.1 0-.3-.1-.3-.3v-.3c0-.1.1-.3.3-.3zm1.1 0h.3c.1 0 .3.1.3.3v.3c0 .1-.1.3-.3.3h-.3c-.1 0-.3-.1-.3-.3v-.3c0-.1.1-.3.3-.3zm1.1 0h.3c.1 0 .3.1.3.3v.3c0 .1-.1.3-.3.3h-.3c-.1 0-.3-.1-.3-.3v-.3c0-.1.1-.3.3-.3zm1.1 0h.3c.1 0 .3.1.3.3v.3c0 .1-.1.3-.3.3h-.3c-.1 0-.3-.1-.3-.3v-.3c0-.1.2-.3.3-.3zm1.1 0h.3c.1 0 .3.1.3.3v.3c0 .1-.1.3-.3.3h-.3c-.1 0-.3-.1-.3-.3v-.3c0-.1.2-.3.3-.3zM54.2 29h.3c.1 0 .3.1.3.3v.3c0 .1-.1.3-.3.3h-.3c-.1 0-.3-.1-.3-.3v-.3c0-.1.1-.3.3-.3zm1.1 0h.3c.1 0 .3.1.3.3v.3c0 .1-.1.3-.3.3h-.3c-.1 0-.3-.1-.3-.3v-.3c0-.1.1-.3.3-.3zm3.3 4.5h.3c.1 0 .3.1.3.3v.2c0 .1-.1.3-.3.3h-.3c-.1 0-.3-.1-.3-.3v-.3c0-.1.2-.2.3-.2zm0-1.1h.3c.1 0 .3.1.3.3v.3c0 .1-.1.3-.3.3h-.3c-.1 0-.3-.1-.3-.3v-.3c0-.2.2-.3.3-.3zm0-3.4h.3c.1 0 .3.1.3.3v.3c0 .1-.1.3-.3.3h-.3c-.1 0-.3-.1-.3-.3v-.3c0-.1.2-.3.3-.3zm-4.4 1.1h.3c.1 0 .3.1.3.3v.3c0 .1-.1.3-.3.3h-.3c-.1 0-.3-.1-.3-.3v-.3c0-.1.1-.3.3-.3zm1.1 0h.3c.1 0 .3.1.3.3v.3c0 .1-.1.3-.3.3h-.3c-.1 0-.3-.1-.3-.3v-.3c0-.1.1-.3.3-.3zm2.2 5.6h.3c.1 0 .3.1.3.3v.3c0 .1-.1.3-.3.3h-.3c-.1 0-.3-.1-.3-.3V36c0-.2.2-.3.3-.3zm0-1.1h.3c.1 0 .3.1.3.3v.3c0 .1-.1.3-.3.3h-.3c-.1 0-.3-.1-.3-.3v-.3c0-.2.2-.3.3-.3zm1.1-4.5h.3c.1 0 .3.1.3.3v.3c0 .1-.1.3-.3.3h-.3c-.1 0-.3-.1-.3-.3v-.3c0-.1.2-.3.3-.3zm-5.5 1.2h.3c.1 0 .3.1.3.3v.3c0 .1-.1.3-.3.3h-.3c-.1 0-.3-.1-.3-.3v-.3c0-.2.1-.3.3-.3zm1.1 0h.3c.1 0 .3.1.3.3v.3c0 .1-.1.3-.3.3h-.3c-.1 0-.3-.1-.3-.3v-.3c0-.2.1-.3.3-.3zm3.3-1.2h.3c.1 0 .3.1.3.3v.3c0 .1-.1.3-.3.3h-.3c-.1 0-.3-.1-.3-.3v-.3c0-.1.2-.3.3-.3zm0-1.1h.3c.1 0 .3.1.3.3v.3c0 .1-.1.3-.3.3h-.3c-.1 0-.3-.1-.3-.3v-.3c0-.1.2-.3.3-.3zm1.1 2.3h.3c.1 0 .3.1.3.3v.3c0 .1-.1.3-.3.3h-.3c-.1 0-.3-.1-.3-.3v-.3c0-.2.2-.3.3-.3zM52 32.4h.3c.1 0 .3.1.3.3v.3c0 .1-.1.3-.3.3H52c-.1 0-.3-.1-.3-.3v-.3c0-.2.1-.3.3-.3zm1.1 0h.3c.1 0 .3.1.3.3v.3c0 .1-.1.3-.3.3h-.3c-.1 0-.3-.1-.3-.3v-.3c0-.2.1-.3.3-.3zm3.3 2.2h.3c.1 0 .3.1.3.3v.3c0 .1-.1.3-.3.3h-.3c-.1 0-.3-.1-.3-.3v-.3c0-.2.1-.3.3-.3zm1.1-2.2h.3c.1 0 .3.1.3.3v.3c0 .1-.1.3-.3.3h-.3c-.1 0-.3-.1-.3-.3v-.3c0-.2.2-.3.3-.3zm0-1.1h.3c.1 0 .3.1.3.3v.3c0 .1-.1.3-.3.3h-.3c-.1 0-.3-.1-.3-.3v-.3c0-.2.2-.3.3-.3zm0 2.2h.3c.1 0 .3.1.3.3v.2c0 .1-.1.3-.3.3h-.3c-.1 0-.3-.1-.3-.3v-.3c0-.1.2-.2.3-.2zm-6.6 0h.3c.1 0 .3.1.3.3v.2c0 .1-.1.3-.3.3h-.3c-.1 0-.3-.1-.3-.3v-.3c0-.1.1-.2.3-.2zm1.1 0h.3c.1 0 .3.1.3.3v.2c0 .1-.1.3-.3.3H52c-.1 0-.3-.1-.3-.3v-.3c0-.1.1-.2.3-.2zm-1.1 1.1h.3c.1 0 .3.1.3.3v.3c0 .1-.1.3-.3.3h-.3c-.1 0-.3-.1-.3-.3v-.3c0-.2.1-.3.3-.3zm1.1 0h.3c.1 0 .3.1.3.3v.3c0 .1-.1.3-.3.3H52c-.1 0-.3-.1-.3-.3v-.3c0-.2.1-.3.3-.3zm-2.2 1.1h.3c.1 0 .3.1.3.3v.3c0 .1-.1.3-.3.3h-.3c-.1 0-.3-.1-.3-.3V36c0-.2.1-.3.3-.3zm1.1 0h.3c.1 0 .3.1.3.3v.3c0 .1-.1.3-.3.3h-.3c-.1 0-.3-.1-.3-.3V36c0-.2.1-.3.3-.3zm5.5 0h.3c.1 0 .3.1.3.3v.3c0 .1-.1.3-.3.3h-.3c-.1 0-.3-.1-.3-.3V36c0-.2.1-.3.3-.3zm-8.8-23.2h.3c.1 0 .3.1.3.3v.2c0 .1-.1.3-.3.3h-.3c-.1 0-.3-.1-.3-.3v-.3c0-.1.1-.2.3-.2zm1.1 2.2h.3c.1 0 .3.1.3.3v.3c0 .1-.1.3-.3.3h-.3c-.1 0-.3-.1-.3-.3V15c0-.2.1-.3.3-.3zm1.1 1.1h.3c.1 0 .3.1.3.3v.3c0 .1-.1.3-.3.3h-.3c-.1 0-.3-.1-.3-.3v-.3c0-.2.1-.3.3-.3zM37.6 18h.3c.1 0 .3.1.3.3v.3c0 .1-.1.3-.3.3h-.3c-.1 0-.3-.1-.3-.3v-.3c.1-.2.2-.3.3-.3zm-3.3 2.2h.3c.1 0 .3.1.3.3v.3c0 .1-.1.3-.3.3h-.3c-.1 0-.3-.1-.3-.3v-.3c.1-.2.2-.3.3-.3zm2.2-2.2h.3c.1 0 .3.1.3.3v.3c0 .1-.1.3-.3.3h-.3c-.1 0-.3-.1-.3-.3v-.3c.1-.2.2-.3.3-.3z" transform="translate(22 11)"/></g></g></svg>