<svg xmlns="http://www.w3.org/2000/svg" width="147" height="147" fill-rule="evenodd"><rect fill="#f60" width="147" height="147" rx="24.5"/><g fill="#fff" fill-rule="nonzero"><circle cx="37.853" cy="109.148" r="13.353"/><path d="M34.24 62.66c-5.145-.857-9.74 3.37-9.74 8.575 0 4.35 3.246 7.84 7.534 8.575 17.886 3.123 31.972 17.27 35.156 35.156.735 4.287 4.226 7.534 8.575 7.534 5.206 0 9.433-4.594 8.636-9.74-4.165-25.725-24.44-46-50.164-50.103zm-.184-34.974c-5.084-.55-9.555 3.553-9.555 8.636a8.59 8.59 0 007.779 8.575c36.81 3.675 66.09 32.952 69.764 69.764.43 4.47 4.104 7.84 8.575 7.84a8.76 8.76 0 008.697-9.555c-4.47-44.957-40.24-80.79-85.26-85.26z"/></g></svg>