<svg width="49" height="49" viewBox="0 0 49 49" xmlns="http://www.w3.org/2000/svg"><defs><linearGradient x1="61.358%" y1="100%" x2="100%" y2="0%" id="a"><stop stop-color="#007F60" offset="0%"/><stop stop-color="#1C876C" stop-opacity=".489" offset="51.138%"/><stop stop-color="#FFF" stop-opacity="0" offset="100%"/></linearGradient></defs><g fill="none" fill-rule="evenodd"><path d="M0 30h49v15.295A3.705 3.705 0 0145.295 49H3.705A3.705 3.705 0 010 45.295V30z" fill="#19C298"/><path fill="#33E49A" d="M0 16h49v16H0z"/><path d="M3.705 0h41.59A3.705 3.705 0 0149 3.705V16H0V3.705A3.705 3.705 0 013.705 0z" fill="#8AF6C4"/><rect fill="url(#a)" width="49" height="49" rx="3.705"/><g fill="#FFF"><g transform="translate(27 5)"><circle cx="3" cy="3" r="3"/><circle cx="13.116" cy="3" r="3"/></g><g transform="translate(26.937 20.305)"><circle cx="3" cy="3.695" r="3"/><circle cx="13.116" cy="3.695" r="3"/></g></g><path d="M8.306 44.217h4.873v2.153H5.507V34.758h2.8v9.46zm6.053 2.153V34.758h3.74c1.027 0 1.95.233 2.768.698a4.905 4.905 0 011.918 1.97c.46.848.693 1.799.698 2.851v.535c0 1.063-.224 2.016-.674 2.859a4.926 4.926 0 01-1.898 1.978c-.816.475-1.727.716-2.731.721h-3.82zm2.8-9.45v7.297h.973c.803 0 1.42-.286 1.85-.857.43-.572.646-1.421.646-2.548v-.503c0-1.122-.215-1.967-.646-2.536-.43-.569-1.058-.853-1.882-.853h-.941zm14.355 7.28h-3.836l-.67 2.17h-2.99l4.258-11.613h2.632l4.29 11.612h-3.006l-.678-2.169zm-3.166-2.161h2.496l-1.252-4.028-1.244 4.028zm10.495.39v3.94h-2.799V34.758h4.634c.888 0 1.673.164 2.356.49.684.328 1.213.793 1.588 1.397.374.603.562 1.288.562 2.053 0 1.133-.406 2.038-1.216 2.716-.811.678-1.924 1.017-3.338 1.017h-1.787zm0-2.16h1.835c.542 0 .956-.136 1.24-.407.284-.272.427-.654.427-1.149 0-.542-.147-.976-.439-1.3-.292-.324-.691-.489-1.196-.494h-1.867v3.35z" fill="#FFF" fill-rule="nonzero"/></g></svg>