<svg xmlns="http://www.w3.org/2000/svg" width="147" height="147"><defs><linearGradient x1="61.358%" y1="100%" x2="100%" y2="0%" id="a"><stop stop-color="#007f60" offset="0%"/><stop stop-color="#1c876c" stop-opacity=".49" offset="51.138%"/><stop stop-color="#fff" stop-opacity="0" offset="100%"/></linearGradient></defs><g fill-rule="evenodd"><path d="M0 90h147v45.884A11.12 11.12 0 01135.884 147H11.116A11.12 11.12 0 010 135.884V90z" fill="#19c298"/><path fill="#33e49a" d="M0 48h147v48H0z"/><path d="M11.116 0h124.77A11.12 11.12 0 01147 11.116V48H0V11.116A11.12 11.12 0 0111.116 0z" fill="#8af6c4"/><rect fill="url(#a)" width="147" height="147" rx="11.116"/><g fill="#fff"><circle cx="90" cy="24" r="9"/><circle cx="120.347" cy="24" r="9"/><circle cx="89.81" cy="72" r="9"/><circle cx="120.157" cy="72" r="9"/><path d="M24.92 132.65h14.62v6.46H16.52v-34.836h8.398v28.376zm18.16 6.46v-34.836H54.3c3.078 0 5.846.698 8.302 2.094s4.374 3.366 5.754 5.9 2.078 5.395 2.094 8.553v1.603c0 3.2-.674 6.05-2.022 8.577s-3.246 4.506-5.694 5.934-5.18 2.15-8.195 2.165h-11.46zm8.398-28.352v21.892h2.92c2.41 0 4.26-.857 5.55-2.572s1.938-4.263 1.938-7.644v-1.507c0-3.366-.646-5.902-1.938-7.608s-3.174-2.56-5.646-2.56h-2.823zm43.066 21.844h-11.51l-2 6.508h-8.972l12.776-34.836h7.896l12.872 34.836h-9.02l-2.034-6.508zm-9.5-6.484h7.49l-3.756-12.083-3.732 12.083zm31.486 1.172v11.82h-8.398v-34.836h13.9c2.664 0 5.02.5 7.07 1.47s3.637 2.377 4.76 4.187 1.687 3.864 1.687 6.16c0 3.397-1.216 6.113-3.65 8.147s-5.77 3.05-10.013 3.05h-5.36zm0-6.484h5.503c1.627 0 2.867-.407 3.72-1.22s1.28-1.962 1.28-3.445c0-1.627-.44-2.927-1.316-3.9s-2.074-1.467-3.59-1.483h-5.6v10.05z" fill-rule="nonzero"/></g></g></svg>