<svg xmlns="http://www.w3.org/2000/svg" xmlns:xlink="http://www.w3.org/1999/xlink" viewBox="0 0 185.18 410.14"><defs><linearGradient id="linear-gradient" x1="-1666.4" y1="2127.9" x2="-1666.4" y2="2021.64" gradientTransform="matrix(1.36 0 0 1.36 2383.14 -2538.61)" gradientUnits="userSpaceOnUse"><stop offset="0" stop-color="#4d7ba6"/><stop offset=".79" stop-color="#026293"/></linearGradient><linearGradient id="linear-gradient-2" x1="1133.62" y1="2127.95" x2="1133.62" y2="2021.7" gradientTransform="matrix(-1.36 -.01 -.01 1.36 1620.39 -2542.14)" xlink:href="#linear-gradient"/><linearGradient id="linear-gradient-3" x1="856.43" y1="88.42" x2="856.43" y2="198.97" gradientTransform="matrix(-1 0 0 1 940.36 -3.46)" gradientUnits="userSpaceOnUse"><stop offset="0" stop-color="#447481"/><stop offset="1" stop-color="#201f1d"/></linearGradient><linearGradient id="linear-gradient-4" x1="4144.01" y1="113.18" x2="4144.01" y2="71.93" gradientTransform="translate(-4059.88 -7.43)" gradientUnits="userSpaceOnUse"><stop offset="0" stop-color="#fbd7ca"/><stop offset=".81" stop-color="#f29478"/></linearGradient><linearGradient id="linear-gradient-5" x1="4144.21" y1="45.26" x2="4144.21" y2="194.99" gradientTransform="translate(-4059.37 -26.6)" gradientUnits="userSpaceOnUse"><stop offset=".01" stop-color="#fcdfd5"/><stop offset=".35" stop-color="#f8c0ae"/><stop offset=".76" stop-color="#f4a087"/><stop offset=".97" stop-color="#f29478"/></linearGradient><linearGradient id="linear-gradient-6" x1="849.3" y1="85.04" x2="863.93" y2="85.04" gradientTransform="matrix(-1 0 0 1 940.36 -3.46)" gradientUnits="userSpaceOnUse"><stop offset="0" stop-color="#e83d4b"/><stop offset="1" stop-color="#87283d"/></linearGradient><style>.cls-2{fill:#71402d}.cls-3{fill:#94533d}.cls-7{fill:none;stroke:#447481;stroke-linecap:round;stroke-linejoin:round;stroke-width:19.14px}.cls-11{fill:#fbd8ca}.cls-12{fill:#87283d}.cls-16{fill:#facab8}.cls-17{fill:#4e6878}.cls-19{fill:#2f5363}.cls-20{fill:#003f4f}</style></defs><g id="Layer_2" data-name="Layer 2"><g id="Layer_1-2" data-name="Layer 1"><rect x="114.33" y="59.97" width="23.13" height="7.63" rx="3.82" ry="3.82" transform="rotate(14.17 125.904 63.804)" fill="#f6b097"/><g id="Lehrer_1" data-name="Lehrer 1"><path class="cls-2" d="M82.51 408.61l17.51.08.02-3.62-17.5-3.55-.03 7.09z"/><path class="cls-3" d="M102.75 385.3c.85-.31 18.43 11.88 27.64 15.78a9 9 0 015.48 8.32v.74l-23-.48-30.29-6.33v-9.61z"/><path fill="#026293" d="M48.17 230.3l65.14.3 3.03-24.94-69.51-.32 1.34 24.96z"/><path d="M115.8 207.63l-12.27 177.7s-21 14.38-21 12.87l.81-174.93z" fill="url(#linear-gradient)"/><path class="cls-2" d="M78.15 408.59l-17.51-.08.02-3.62 17.53-3.39-.04 7.09z"/><path class="cls-3" d="M58.12 385.1c-.85-.33-18.54 11.71-27.78 15.52a9 9 0 00-5.56 8.27v.74l23-.27 30.35-6.05v-9.61z"/><path d="M46.72 207.31l10.62 177.81s20.82 14.57 20.83 13.06L79 223.25z" fill="url(#linear-gradient-2)"/><path class="cls-7" d="M111.67 109.11c47.69 10.8 94.75-27.11 37.88-44.43"/><path d="M117.37 211.1l-71.44-.33-2.75-94.29a21.52 21.52 0 0121.61-21.41l37.34.17a21.52 21.52 0 0121.41 21.61z" fill="url(#linear-gradient-3)"/><path d="M67.76 75.12h32.73v19.06a16.37 16.37 0 01-16.37 16.37 16.37 16.37 0 01-16.36-16.37V75.12z" transform="rotate(.27 82.975 91.054)" fill="url(#linear-gradient-4)"/><path d="M67.83 89.11C69.1 91.05 81 110.54 81 110.54l-10.29 12.23-10-27.1zm33.36.66l-13.76 20.56 10.18 12.33 10.22-26.93-6.64-5.96z" fill="#447481"/><rect class="cls-11" x="54.49" y="50.96" width="6.16" height="17.61" rx="3.08" ry="3.08" transform="rotate(-15.17 57.58 59.753)"/><rect class="cls-11" x="106.87" y="51.42" width="6.16" height="17.61" rx="3.08" ry="3.08" transform="rotate(8.1 110.98 60.716)"/><path class="cls-12" d="M113.23 18c0-3.3-1.74-8.38-4.39-10.27a13 13 0 00-9.12-3.79l-31.86-.15a13 13 0 00-9.7 4.28c-2.34 2.12-3.89 6.6-3.91 9.66l4.46 43.49.42-34.13a13 13 0 008.61 3.32l31.86.15a13 13 0 008.79-3.38L108.7 62z"/><path d="M58.45 26.91l-.16 34.66c-.06 12.88 8.91 24.92 19.94 25h10.39c11 0 20.11-11.9 20.17-24.79l2-34.69c0-5-5.27-9-9.52-9L66.19 18c-4.25-.06-7.72 4-7.74 8.91z" fill="url(#linear-gradient-5)"/><path d="M54.19 18.45l4.52 42.77.27-37.84-4.79-4.93zm54.21 5.44l.3 38.08 4.51-43.67-4.81 5.59z" fill="#9d4f5a"/><rect class="cls-12" x="88.23" y="35.56" width="15.41" height="4.08" rx="1.75" ry="1.75" transform="rotate(14.17 95.935 37.627)"/><rect class="cls-12" x="63.88" y="35.59" width="13.2" height="3.49" rx="1.75" ry="1.75" transform="rotate(-12.08 70.497 37.324)"/><path class="cls-12" d="M101.1 65.15c-6.21-2.91-6.71-9-11.38-9.79a6.54 6.54 0 01-10.34 0c-4.18.69-4.73 5.83-11 9.89 6.28.23 13 0 16.17-3.61 2.39 3.07 10.56 4.36 16.55 3.51zm-21.71-50.5L93.65 25.2s-3.65-7.51-3.24-7.37 9.24 4.67 9.24 4.67l-5.82-7.38L79.26 14M72.74 3.81l43.81.2-9.76 6-34.05-6.2z"/><path class="cls-12" d="M68.61 3.79S109.35-.59 108.69.07s-6.61 8.72-6.61 8.72zm19.81 45.86a5.34 5.34 0 01-.22-1.5c0-3.44 3.37-6.21 7.48-6.19s7.43 2.82 7.42 6.26a5.35 5.35 0 01-.24 1.5zm-20.59-1.32a3.57 3.57 0 01-.14-1c0-2.25 2.2-4.06 4.88-4.05s4.86 1.85 4.85 4.09a3.52 3.52 0 01-.15 1zm28.43 22.59a1.27 1.27 0 010 .2c0 4.54-5.31 8.2-11.81 8.17S72.71 75.55 72.73 71a1.27 1.27 0 010-.2z"/><path d="M82.94 76a25.08 25.08 0 016 1.33 16.28 16.28 0 011.73.73 15.61 15.61 0 01-6.22 1.21 14.55 14.55 0 01-8.41-2.52 16.46 16.46 0 016.9-.75z" fill="url(#linear-gradient-6)"/><ellipse class="cls-16" cx="38.56" cy="210.48" rx="14.74" ry="9.91" transform="rotate(-46.36 38.557 210.46)"/><path class="cls-7" d="M50.22 110.29c-39.75 17.15-62.15 64.14-10.77 91.62"/></g><path class="cls-17" transform="rotate(112.49 119.43 55.519)" d="M117.81 49.29h3.23v12.46h-3.23z"/><path transform="rotate(112.49 118.208 58.471)" fill="#82909c" d="M116.59 52.24h3.23V64.7h-3.23z"/><path class="cls-19" transform="matrix(.38 -.92 .92 .38 21.38 139.25)" d="M113.26 52.66h3.23v1.95h-3.23z"/><path class="cls-17" transform="rotate(-67.51 113.655 56.583)" d="M112.04 55.6h3.23v1.95h-3.23z"/><path class="cls-20" d="M139.39 49.45v26.08h-1.25a3.15 3.15 0 01-3.14-3.14V53.85a4.39 4.39 0 014.39-4.39z" transform="rotate(112.49 137.196 62.496)"/><path d="M133.42 53.26a4.39 4.39 0 014.39 4.39V75a4.39 4.39 0 01-4.39 4.39V53.26z" transform="rotate(112.49 135.618 66.309)" fill="#365767"/><path class="cls-19" d="M125.75 60.13l-1.45-.6 1.21-2.9a1.25 1.25 0 011.63-.68l.29.12z"/><path d="M148.21 64.68l.26.11a1.73 1.73 0 01.94 2.27l-1 2.45-1.87-.77z" fill="#385969"/><path d="M124.17 63.94l-.29-.12a1.25 1.25 0 01-.68-1.63l1.21-2.9 1.44.59zm22.47 4.55l1.86.77-1 2.45a1.74 1.74 0 01-2.28.94l-.26-.1z" fill="#6d7f8c"/><path class="cls-20" d="M88.32 65.54A19.61 19.61 0 1077.7 39.93a19.6 19.6 0 0010.62 25.61zm1.74-4.2a15.06 15.06 0 1119.67-8.15 15.05 15.05 0 01-19.67 8.15z"/><path d="M77.7 39.94l4.2 1.74a15.06 15.06 0 0027.82 11.52l4.2 1.74a19.6 19.6 0 01-36.22-15z" fill="#1f4a5a"/><path d="M109.79 53.16L82 41.64a15.06 15.06 0 0127.82 11.52z" fill="#fff" opacity=".34"/><path class="cls-16" d="M140.93 50.9l-9.08-2.1c-3.08-.71-7.83 1.86-8.74 5.82l-1 6a7.65 7.65 0 005.2 8.68l8.89 2.06c4.4 1 9-2.74 10.33-8.39 1.3-5.65-1.21-11.05-5.6-12.07z"/></g></g></svg>