<svg xmlns="http://www.w3.org/2000/svg" xmlns:xlink="http://www.w3.org/1999/xlink" viewBox="0 0 96 96"><defs><path id="a" d="M51.159 0c-.214.002-.428.006-.642.014-8.595.3-17.09 5.291-18.39 13.377-8.295-3.294-16.091 1.099-16.091 8.586C.745 18.981-3.352 32.558 2.643 37.051c4.198 3.593 9.595 2.894 16.492 2.894h45.473c8.495 0 15.392-5.69 15.392-12.778 0-3.516-1.774-6.806-4.747-9.149l-8.959 8.948c-.212.213-.707.565-1.062.634l-10.06 4.07c-.243.12-.486.152-.723.145-1.247 1.098-3.935 2.18-4.635 2.284-2.665.395-4.317-1.311-6.068-3.121-1.125-1.162-2.29-2.365-3.743-2.944a3.495 3.495 0 0 0-1.305-.261c-1.903 0-3.503 1.648-4.945 3.132-.55.566-1.069 1.099-1.571 1.507-1.521 1.238-3.031 1.806-4.463 1.707-1.665-.12-2.879-1.258-3.888-2.314l-.183-.194c-1.099-1.159-2.342-2.472-4.118-1.808-.895.337-1.688.996-2.195 1.49-.14.136-.27.282-.402.43-.322.36-.627.7-1.054.892-.329.146-.735.135-1.029-.032a.814.814 0 0 1-.421-.639c-.066-.551.389-.919.826-1.275.073-.059.143-.116.21-.174l.362-.312c1.045-.905 2.126-1.841 3.49-2.228 1.871-.525 3.48.421 4.501 1.311.328.285.649.627.988.991.897.962 1.826 1.955 3.098 2.106 1.899.226 3.528-1.447 4.605-2.552l.118-.122c1.271-1.304 2.47-2.537 4.188-3.214 1.619-.637 3.362-.434 5.035.59 1.022.628 1.854 1.503 2.659 2.349.514.542 1.046 1.103 1.629 1.6 1.702 1.451 3.307 1.694 5.051.765.227-.121.507-.334.834-.581.29-.219.614-.461.943-.67a1.502 1.502 0 0 1 .139-.923l4.075-10.048c.069-.355.422-.849.633-1.061l9.781-9.769C64.13 2.7 57.841.048 51.503 0h-.344zM60.5 19.344a2.477 2.477 0 0 1-1.979.705l-1.836 5.225 2.825 2.822 5.23-1.835a2.467 2.467 0 0 1 .705-1.977l7.681-7.671a16.243 16.243 0 0 0-1.864-.856l-7.177 7.168c-.508.507-1.099.847-1.667.958-.494.095-.901.005-1.16-.251-.584-.584-.267-1.852.707-2.825l7.513-7.505a20.272 20.272 0 0 0-.73-2.197L60.5 19.344z"/><linearGradient id="b" x1="4.987%" x2="95.077%" y1="61.253%" y2="38.731%"><stop offset="0%" stop-color="#B1063A"/><stop offset="100%" stop-color="#F6A800"/></linearGradient><linearGradient id="d" x1="4.987%" x2="95.077%" y1="51.01%" y2="48.989%"><stop offset="0%" stop-color="#B1063A"/><stop offset="100%" stop-color="#F6A800"/></linearGradient></defs><g fill="none" fill-rule="evenodd"><path fill="#FFF" d="M58.517 19.014c-8.596.3-17.091 5.291-18.39 13.377-8.296-3.294-16.09 1.098-16.09 8.585C8.745 37.981 4.647 51.557 10.644 56.05c4.197 3.593 9.595 2.895 16.49 2.895h45.475c8.495 0 15.39-5.69 15.39-12.778 0-5.29-3.997-10.083-10.093-11.88v-.099c-2-11.08-10.794-15.474-19.39-15.174"/><g transform="translate(8 19)"><mask id="c" fill="#fff"><use xlink:href="#a"/></mask><path fill="url(#b)" d="M51.159 0c-.214.002-.428.006-.642.014-8.595.3-17.09 5.291-18.39 13.377-8.295-3.294-16.091 1.099-16.091 8.586C.745 18.981-3.352 32.558 2.643 37.051c4.198 3.593 9.595 2.894 16.492 2.894h45.473c8.495 0 15.392-5.69 15.392-12.778 0-3.516-1.774-6.806-4.747-9.149l-8.959 8.948c-.212.213-.707.565-1.062.634l-10.06 4.07c-.243.12-.486.152-.723.145-1.247 1.098-3.935 2.18-4.635 2.284-2.665.395-4.317-1.311-6.068-3.121-1.125-1.162-2.29-2.365-3.743-2.944a3.495 3.495 0 0 0-1.305-.261c-1.903 0-3.503 1.648-4.945 3.132-.55.566-1.069 1.099-1.571 1.507-1.521 1.238-3.031 1.806-4.463 1.707-1.665-.12-2.879-1.258-3.888-2.314l-.183-.194c-1.099-1.159-2.342-2.472-4.118-1.808-.895.337-1.688.996-2.195 1.49-.14.136-.27.282-.402.43-.322.36-.627.7-1.054.892-.329.146-.735.135-1.029-.032a.814.814 0 0 1-.421-.639c-.066-.551.389-.919.826-1.275.073-.059.143-.116.21-.174l.362-.312c1.045-.905 2.126-1.841 3.49-2.228 1.871-.525 3.48.421 4.501 1.311.328.285.649.627.988.991.897.962 1.826 1.955 3.098 2.106 1.899.226 3.528-1.447 4.605-2.552l.118-.122c1.271-1.304 2.47-2.537 4.188-3.214 1.619-.637 3.362-.434 5.035.59 1.022.628 1.854 1.503 2.659 2.349.514.542 1.046 1.103 1.629 1.6 1.702 1.451 3.307 1.694 5.051.765.227-.121.507-.334.834-.581.29-.219.614-.461.943-.67a1.502 1.502 0 0 1 .139-.923l4.075-10.048c.069-.355.422-.849.633-1.061l9.781-9.769C64.13 2.7 57.841.048 51.503 0h-.344zM60.5 19.344a2.477 2.477 0 0 1-1.979.705l-1.836 5.225 2.825 2.822 5.23-1.835a2.467 2.467 0 0 1 .705-1.977l7.681-7.671a16.243 16.243 0 0 0-1.864-.856l-7.177 7.168c-.508.507-1.099.847-1.667.958-.494.095-.901.005-1.16-.251-.584-.584-.267-1.852.707-2.825l7.513-7.505a20.272 20.272 0 0 0-.73-2.197L60.5 19.344z" mask="url(#c)"/></g><g fill-rule="nonzero"><path fill="#B1063A" d="M16.006 76.366a.22.22 0 0 1-.22.22h-1.088a.22.22 0 0 1-.22-.22V73h-3.125v3.366a.22.22 0 0 1-.22.22h-1.089a.22.22 0 0 1-.22-.22v-7.744c0-.121.1-.21.22-.21h1.09c.12 0 .22.089.22.21v3.036h3.123v-3.036c0-.121.1-.21.22-.21h1.09c.12 0 .22.089.22.21v7.744zm7.34-5.401c0 1.947-1.474 2.574-3.168 2.574-.286 0-.726-.033-.979-.044v2.87c0 .122-.088.22-.209.22h-1.1a.22.22 0 0 1-.22-.22v-7.567c0-.22.132-.297.352-.33a15.023 15.023 0 0 1 2.157-.143c1.694 0 3.168.594 3.168 2.54v.1zm-1.518 0v-.1c0-.923-.55-1.275-1.65-1.275-.23 0-.78.022-.979.044v2.618c.176.01.792.033.98.033 1.188 0 1.65-.44 1.65-1.32zm4.332 5.4a.22.22 0 0 1-.22.22h-1.089a.22.22 0 0 1-.22-.22v-7.743c0-.121.099-.21.22-.21h1.089c.121 0 .22.089.22.21v7.744z"/><path fill="url(#d)" d="M26.654 6.463c0 1.056-.55 2.2-2.716 2.2-.77 0-1.342-.077-1.826-.154-.188-.033-.21-.077-.21-.198v-.44c0-.121.088-.176.188-.176h.032c.506.044 1.31.066 1.816.066 1.32 0 1.672-.528 1.672-1.298 0-.55-.32-.858-1.32-1.474l-1.067-.65c-1.012-.615-1.518-1.176-1.518-2.056 0-1.331.957-1.947 2.629-1.947.649 0 1.495.066 1.913.132.11.022.188.077.188.187v.473c0 .11-.077.176-.188.176h-.021a31.046 31.046 0 0 0-1.892-.066c-1.133 0-1.617.242-1.617 1.045 0 .517.363.825 1.199 1.33l1.011.606c1.276.759 1.727 1.364 1.727 2.244zM31.828 8.3c0 .143-.044.209-.22.242a7.978 7.978 0 0 1-1.375.12c-1.496 0-2.343-1.055-2.343-2.672v-.858c0-1.617.836-2.673 2.343-2.673.506 0 1.012.055 1.375.12.176.034.22.089.22.243v.396c0 .11-.088.165-.187.165h-.044a10.726 10.726 0 0 0-1.364-.077c-.88 0-1.375.583-1.375 1.826v.858c0 1.232.484 1.826 1.375 1.826.539 0 .88-.022 1.364-.077h.044c.099 0 .187.055.187.165V8.3zm5.876.066a.22.22 0 0 1-.22.22h-.528a.22.22 0 0 1-.22-.22v-3.62c0-1.1-.462-1.44-1.177-1.44-.341 0-1.034.088-1.518.308v4.752c0 .11-.1.22-.22.22h-.54c-.11 0-.208-.1-.208-.22V.534c0-.121.088-.22.209-.22h.55c.12 0 .209.099.209.22V2.8c.528-.231 1.21-.341 1.683-.341 1.166 0 1.98.67 1.98 2.288v3.619zm6.14 0c0 .12-.088.22-.21.22h-.55c-.12 0-.208-.1-.208-.22v-.21c-.605.342-1.1.507-1.75.507-1.32 0-1.913-.825-1.913-2.288v-3.62a.22.22 0 0 1 .22-.22h.528a.22.22 0 0 1 .22.22v3.62c0 1.11.374 1.452 1.21 1.452.462 0 .979-.176 1.485-.43v-4.64c0-.11.099-.22.22-.22h.539c.11 0 .209.099.209.22v5.61zm2.587 0c0 .11-.077.22-.198.22h-.572c-.11 0-.198-.1-.198-.22V.523c0-.11.077-.21.198-.21h.572c.11 0 .198.089.198.21v7.843zm4.075-2.783c0 .11-.088.187-.21.187h-2.188c-.121 0-.21-.066-.21-.187v-.43c0-.11.089-.197.21-.197h2.189c.12 0 .209.077.209.198v.429zM56.847 8.3c0 .132-.099.198-.22.22-.462.088-.89.143-1.826.143-1.353 0-2.904-.726-2.904-3.4V3.736c0-2.695 1.551-3.4 2.904-3.4.693 0 1.364.1 1.848.177.1.01.176.044.176.143v.56c0 .067-.022.122-.132.122h-.033a24.647 24.647 0 0 0-1.848-.1c-1.078 0-1.914.628-1.914 2.498v1.529c0 1.848.836 2.497 1.914 2.497.627 0 1.42-.055 1.815-.088h.044c.121 0 .176.055.176.176v.45zm2.277.066c0 .11-.077.22-.198.22h-.572c-.11 0-.198-.1-.198-.22V.523c0-.11.077-.21.198-.21h.572c.11 0 .198.089.198.21v7.843zm6.306-2.387c0 1.617-.836 2.684-2.453 2.684s-2.442-1.067-2.442-2.684v-.836c0-1.617.825-2.684 2.442-2.684 1.617 0 2.453 1.067 2.453 2.684v.836zm-.968 0v-.836c0-1.122-.45-1.837-1.485-1.837-1.023 0-1.474.704-1.474 1.837v.836c0 1.122.44 1.837 1.474 1.837 1.023 0 1.485-.704 1.485-1.837zm6.952 2.387c0 .12-.088.22-.21.22h-.55c-.12 0-.208-.1-.208-.22v-.21c-.605.342-1.1.507-1.75.507-1.32 0-1.913-.825-1.913-2.288v-3.62a.22.22 0 0 1 .22-.22h.528a.22.22 0 0 1 .22.22v3.62c0 1.11.374 1.452 1.21 1.452.462 0 .979-.176 1.485-.43v-4.64c0-.11.099-.22.22-.22h.539c.11 0 .209.099.209.22v5.61zm6.034-.143c0 .143-.033.22-.23.253a10.6 10.6 0 0 1-2.025.187c-1.639 0-2.398-1.067-2.398-2.717v-.792c0-1.727.792-2.695 2.398-2.695.341 0 .858.033 1.287.11V.523c0-.11.088-.21.21-.21h.56c.11 0 .198.089.198.21v7.7zm-.968-.473V3.383c-.363-.066-.935-.077-1.287-.077-1.078 0-1.43.67-1.43 1.848v.792c0 1.199.341 1.87 1.43 1.87.374 0 .913-.033 1.287-.066z" transform="translate(9 68)"/></g></g></svg>