<svg xmlns="http://www.w3.org/2000/svg" viewBox="0 0 48 48"><g fill="#FFF" fill-rule="evenodd"><path d="M38.657 18.38a9.99 9.99 0 00-.283-.827l-4.124 4.119a1.238 1.238 0 01-.99.352l-.918 2.613 1.412 1.41 2.616-.917a1.23 1.23 0 01.353-.988l3.84-3.835a7.923 7.923 0 00-.682-.326L36.22 23.64c-.6.6-1.378.741-1.766.353-.39-.388-.248-1.164.353-1.765l3.85-3.846z"/><path d="M41.627 21.01l-4.48 4.473c-.106.106-.353.283-.53.317l-5.03 2.035a.769.769 0 01-.277.075c-.62.58-2.025 1.147-2.393 1.201-2.258.338-3.134-2.317-4.938-3.036-1.592-.635-2.792 1.32-3.848 2.18-.643.523-1.423.93-2.276.867-.83-.06-1.437-.602-1.985-1.176-.56-.588-1.187-1.322-2.083-.986-.395.149-.776.44-1.076.732-.24.233-.429.53-.746.672-.324.146-.766.013-.812-.384-.043-.36.303-.578.539-.78.594-.508 1.176-1.063 1.949-1.282.865-.245 1.66.103 2.309.668.599.52 1.16 1.433 2.01 1.534.905.107 1.677-.67 2.25-1.258.658-.676 1.277-1.328 2.175-1.682.883-.348 1.777-.187 2.573.3.846.518 1.407 1.344 2.152 1.98.762.65 1.548.858 2.456.374.217-.115.563-.426.915-.645a.74.74 0 01.072-.386l2.037-5.025c.035-.176.211-.424.317-.53l4.89-4.884c-1.822-3.17-5.206-4.473-8.538-4.357-4.298.15-8.546 2.646-9.195 6.689-4.148-1.648-8.046.549-8.046 4.292-7.646-1.497-9.694 5.291-6.696 7.537 2.099 1.797 4.797 1.448 8.245 1.448h22.737c4.248 0 7.696-2.846 7.696-6.39 0-1.757-.886-3.402-2.373-4.574"/></g></svg>