<svg xmlns="http://www.w3.org/2000/svg" viewBox="0 0 96 96"><defs><linearGradient id="a" x1="4.987%" x2="95.077%" y1="95.013%" y2="4.922%"><stop offset="0%" stop-color="#B1063A"/><stop offset="100%" stop-color="#F6A800"/></linearGradient></defs><g fill="none" fill-rule="evenodd"><rect width="96" height="96" fill="url(#a)" rx="8"/><g fill="#FFF"><path d="M77.314 36.761a19.981 19.981 0 0 0-.566-1.656L68.5 43.343a2.476 2.476 0 0 1-1.98.705l-1.836 5.226 2.824 2.821 5.23-1.835a2.464 2.464 0 0 1 .707-1.977l7.68-7.67a15.846 15.846 0 0 0-1.363-.65l-7.324 7.315c-1.201 1.2-2.756 1.482-3.533.706-.778-.777-.495-2.329.707-3.53l7.7-7.693z"/><path d="M83.253 42.018l-8.959 8.948c-.212.212-.707.565-1.062.634l-10.06 4.07c-.185.091-.37.133-.553.15-1.24 1.16-4.05 2.293-4.786 2.402-4.515.675-6.267-4.634-9.876-6.073-3.184-1.269-5.583 2.641-7.695 4.36-1.286 1.046-2.846 1.86-4.552 1.735-1.66-.12-2.875-1.205-3.97-2.353-1.121-1.175-2.374-2.644-4.167-1.97-.79.296-1.551.878-2.151 1.462-.479.466-.858 1.061-1.492 1.345-.649.291-1.532.025-1.625-.769-.085-.719.607-1.155 1.079-1.558 1.187-1.017 2.351-2.127 3.898-2.566 1.73-.49 3.32.206 4.618 1.336 1.197 1.04 2.319 2.867 4.019 3.07 1.81.213 3.355-1.342 4.5-2.518 1.316-1.35 2.554-2.656 4.351-3.364 1.765-.695 3.553-.373 5.145.6 1.693 1.037 2.814 2.688 4.304 3.96 1.524 1.3 3.096 1.717 4.913.748.433-.23 1.126-.85 1.829-1.289a1.48 1.48 0 0 1 .145-.773l4.073-10.049c.07-.353.423-.849.635-1.06l9.78-9.769c-3.644-6.34-10.413-8.945-17.077-8.713-8.596.3-17.091 5.291-18.39 13.377-8.296-3.295-16.091 1.098-16.091 8.585C8.744 42.981 4.647 56.558 10.644 61.05c4.197 3.594 9.594 2.895 16.49 2.895h45.474c8.496 0 15.392-5.69 15.392-12.778 0-3.516-1.773-6.806-4.747-9.149"/></g></g></svg>