<svg width="239" height="60" viewBox="0 0 239 60" xmlns="http://www.w3.org/2000/svg"><g fill="#FFF" fill-rule="evenodd"><path d="M89.187 17.009c4.21-.147 8.486 1.5 10.788 5.504l-6.178 6.172c-.134.133-.357.447-.401.67l-2.573 6.348a.935.935 0 00-.092.488c-.444.277-.882.67-1.155.815-1.148.612-2.141.348-3.104-.474-.942-.802-1.65-1.846-2.72-2.5-1.005-.615-2.135-.819-3.25-.38-1.135.448-1.917 1.272-2.748 2.126-.724.742-1.7 1.725-2.843 1.59-1.074-.128-1.783-1.282-2.54-1.94-.82-.713-1.824-1.153-2.917-.843-.977.277-1.712.978-2.462 1.62-.298.255-.735.53-.682.985.059.502.617.67 1.027.486.4-.18.64-.555.942-.85.38-.369.86-.736 1.36-.924 1.132-.425 1.924.503 2.632 1.245.691.725 1.46 1.41 2.508 1.487 1.078.078 2.063-.436 2.875-1.096 1.335-1.086 2.85-3.557 4.862-2.755 2.28.91 3.387 4.263 6.239 3.837.465-.07 2.24-.786 3.023-1.518a.971.971 0 00.35-.095l6.355-2.57c.224-.044.537-.267.671-.401l5.66-5.653c1.879 1.48 2.999 3.559 2.999 5.78 0 4.477-4.357 8.072-9.724 8.072H69.36c-4.357 0-7.766.442-10.418-1.829-3.788-2.837-1.2-11.415 8.46-9.523 0-4.73 4.925-7.505 10.166-5.423.82-5.108 6.188-8.262 11.618-8.451zm11.517 7.007c.133.335.25.685.358 1.046l-4.865 4.86c-.76.759-.939 1.74-.447 2.23.49.49 1.473.312 2.232-.446l4.627-4.622c.296.127.585.261.862.411l-4.853 4.846a1.556 1.556 0 00-.446 1.249l-3.305 1.16-1.784-1.783 1.16-3.302c.402.045.894-.088 1.251-.445z"/><path d="M31.716 37.925c0 .23-.187.417-.417.417h-2.064a.418.418 0 01-.416-.417v-6.379h-5.921v6.38a.418.418 0 01-.417.416h-2.064a.418.418 0 01-.417-.417V23.25c0-.23.188-.397.417-.397h2.064c.23 0 .417.167.417.397v5.754h5.92V23.25c0-.23.188-.397.417-.397H31.3c.23 0 .417.167.417.397v14.676zM45.627 27.69c0 3.69-2.793 4.878-6.004 4.878-.542 0-1.376-.062-1.855-.083v5.441c0 .23-.167.417-.396.417h-2.085a.418.418 0 01-.417-.417V23.582c0-.417.25-.563.667-.625 1.084-.167 2.564-.271 4.086-.271 3.21 0 6.004 1.125 6.004 4.816v.187zm-2.877 0v-.187c0-1.752-1.042-2.419-3.127-2.419-.438 0-1.48.042-1.855.084v4.961c.333.021 1.5.063 1.855.063 2.252 0 3.127-.834 3.127-2.502zm8.21 10.236c0 .23-.188.417-.417.417h-2.064a.418.418 0 01-.417-.417V23.25c0-.23.187-.397.417-.397h2.064c.229 0 .417.167.417.397v14.676zm71.676-3.586c0 2-1.043 4.17-5.15 4.17-1.459 0-2.543-.147-3.46-.293-.355-.062-.397-.146-.397-.375v-.834c0-.23.167-.334.355-.334h.062c.96.084 2.481.126 3.44.126 2.502 0 3.17-1.001 3.17-2.46 0-1.043-.605-1.627-2.503-2.794l-2.022-1.23c-1.918-1.168-2.877-2.23-2.877-3.899 0-2.522 1.814-3.69 4.983-3.69 1.23 0 2.835.125 3.627.25.209.042.355.147.355.355v.896c0 .209-.146.334-.355.334h-.041a58.84 58.84 0 00-3.586-.125c-2.147 0-3.065.459-3.065 1.98 0 .98.688 1.564 2.273 2.523l1.918 1.147c2.418 1.438 3.273 2.585 3.273 4.253zm9.804 3.481c0 .271-.083.396-.417.459a15.12 15.12 0 01-2.606.23c-2.835 0-4.44-2.002-4.44-5.067v-1.626c0-3.065 1.584-5.066 4.44-5.066.959 0 1.918.104 2.606.23.334.062.417.166.417.458v.75c0 .209-.167.313-.354.313h-.084a20.33 20.33 0 00-2.585-.146c-1.668 0-2.606 1.105-2.606 3.461v1.626c0 2.335.917 3.46 2.606 3.46a20.33 20.33 0 002.585-.145h.084c.187 0 .354.104.354.313v.75zm11.136.125c0 .23-.187.417-.417.417h-1a.418.418 0 01-.417-.417v-6.859c0-2.084-.876-2.73-2.23-2.73-.647 0-1.96.166-2.878.583v9.006a.432.432 0 01-.417.417h-1.021c-.209 0-.397-.188-.397-.417V23.103c0-.23.167-.417.397-.417h1.042c.23 0 .396.187.396.417v4.294c1-.438 2.293-.646 3.19-.646 2.21 0 3.752 1.272 3.752 4.336v6.86zm11.637 0c0 .23-.167.417-.396.417h-1.042c-.23 0-.396-.188-.396-.417v-.396c-1.147.646-2.085.96-3.315.96-2.502 0-3.628-1.565-3.628-4.337v-6.86c0-.228.188-.416.417-.416h1c.23 0 .418.188.418.417v6.859c0 2.105.709 2.752 2.293 2.752.876 0 1.856-.334 2.815-.813v-8.798c0-.209.187-.417.416-.417h1.022c.208 0 .396.188.396.417v10.632zm4.903 0c0 .209-.146.417-.375.417h-1.084c-.209 0-.376-.188-.376-.417V23.082c0-.209.146-.396.376-.396h1.084c.208 0 .375.166.375.396v14.864zm7.724-5.274c0 .208-.167.354-.396.354h-4.149c-.23 0-.396-.125-.396-.354v-.813c0-.209.167-.376.396-.376h4.149c.229 0 .396.146.396.376v.813zm12.018 5.15c0 .25-.188.374-.417.416-.876.167-1.689.271-3.46.271-2.565 0-5.504-1.376-5.504-6.442V29.17c0-5.107 2.94-6.442 5.503-6.442 1.314 0 2.585.188 3.503.334.187.02.333.083.333.271v1.063c0 .125-.041.23-.25.23h-.062c-.75-.063-2.294-.188-3.503-.188-2.043 0-3.627 1.188-3.627 4.732v2.898c0 3.503 1.584 4.733 3.627 4.733 1.189 0 2.69-.105 3.44-.167h.083c.23 0 .334.104.334.333v.855zm4.315.124c0 .209-.146.417-.375.417h-1.084c-.209 0-.375-.188-.375-.417V23.082c0-.209.145-.396.375-.396h1.084c.208 0 .375.166.375.396v14.864zm11.952-4.524c0 3.065-1.585 5.087-4.65 5.087-3.064 0-4.628-2.022-4.628-5.087v-1.584c0-3.065 1.564-5.087 4.629-5.087 3.064 0 4.649 2.022 4.649 5.087v1.584zm-1.835 0v-1.584c0-2.127-.855-3.482-2.814-3.482-1.94 0-2.794 1.335-2.794 3.482v1.584c0 2.127.834 3.482 2.794 3.482 1.938 0 2.814-1.334 2.814-3.482zm13.175 4.524c0 .23-.166.417-.396.417h-1.042c-.23 0-.396-.188-.396-.417v-.396c-1.147.646-2.085.96-3.315.96-2.502 0-3.627-1.565-3.627-4.337v-6.86c0-.228.187-.416.416-.416h1.001c.23 0 .417.188.417.417v6.859c0 2.105.709 2.752 2.293 2.752.876 0 1.856-.334 2.815-.813v-8.798c0-.209.187-.417.417-.417h1.021c.209 0 .396.188.396.417v10.632zm11.437-.27c0 .27-.063.416-.438.479-1.292.25-2.564.354-3.836.354-3.106 0-4.545-2.022-4.545-5.15v-1.5c0-3.273 1.502-5.108 4.545-5.108.647 0 1.626.063 2.44.208v-3.877c0-.209.166-.396.396-.396h1.063c.208 0 .375.166.375.396v14.593zm-1.835-.897v-8.277c-.688-.125-1.772-.146-2.439-.146-2.043 0-2.71 1.272-2.71 3.503v1.5c0 2.273.646 3.545 2.71 3.545.71 0 1.73-.063 2.44-.125z" fill-rule="nonzero"/></g></svg>