<svg width="160" height="23" viewBox="0 0 160 23" fill="none" xmlns="http://www.w3.org/2000/svg">
<mask id="mask0_416_6849" style="mask-type:alpha" maskUnits="userSpaceOnUse" x="124" y="0" width="29" height="19">
<path d="M124.5 0.810059H152.554V18.578H124.5V0.810059Z" fill="white"/>
</mask>
<g mask="url(#mask0_416_6849)">
<path fill-rule="evenodd" clip-rule="evenodd" d="M141.509 18.5246C141.333 18.0966 141.034 17.7305 140.65 17.4727C140.266 17.2149 139.814 17.0771 139.351 17.0766H133.054L131.041 17.0968C129.422 17.0968 128.074 16.9628 126.957 16.0044C124.957 14.5046 125.994 10.2669 130.369 10.2669C130.842 10.2669 131.356 10.3173 131.908 10.425C131.908 8.29143 133.617 6.8373 135.803 6.8373C136.456 6.8373 137.152 6.96745 137.857 7.24789C138.338 4.25442 141.478 2.40751 144.656 2.29595C144.757 2.29285 144.858 2.2913 144.958 2.2913C146.996 2.2913 149.027 3.01721 150.376 4.65727C150.634 4.96853 150.978 5.1971 151.365 5.31458C151.752 5.43206 152.165 5.43328 152.553 5.31809H152.554C151.011 2.03952 147.794 0.810059 144.958 0.810059C144.841 0.810188 144.723 0.812254 144.605 0.816256C141.516 0.923941 138.156 2.53069 136.861 5.44127C136.511 5.38488 136.157 5.35638 135.803 5.35605H135.802C134.363 5.35605 133.029 5.84412 132.045 6.73039C131.422 7.28847 130.955 7.99921 130.69 8.79267C130.583 8.7883 130.476 8.78623 130.369 8.78647H130.368C127.115 8.78647 125.331 10.6628 124.745 12.4191C124.149 14.2094 124.664 16.1067 126.028 17.1588C127.581 18.4672 129.429 18.578 131.041 18.578L132.007 18.568L133.054 18.5571H141.523L141.509 18.5246Z" fill="#3B424B"/>
</g>
<mask id="mask1_416_6849" style="mask-type:alpha" maskUnits="userSpaceOnUse" x="0" y="4" width="8" height="15">
<path d="M0 4.29248H7.91753V18.871H0V4.29248Z" fill="white"/>
</mask>
<g mask="url(#mask1_416_6849)">
<path fill-rule="evenodd" clip-rule="evenodd" d="M2.66113 13.9709C2.66113 14.9703 2.76726 15.6683 2.97953 16.065C3.1918 16.4616 3.55127 16.6599 4.05715 16.6599C4.58163 16.6599 4.97828 16.426 5.24711 15.9573V11.3284C4.98526 10.8287 4.59093 10.5792 4.06645 10.5792C3.57916 10.5792 3.22357 10.776 2.9989 11.1696C2.77424 11.5631 2.66113 12.2619 2.66113 13.2675V13.9709ZM0 13.3055C0 11.6437 0.28122 10.4042 0.843659 9.58607C1.4061 8.76798 2.22419 8.35816 3.29794 8.35816C4.07885 8.35816 4.72883 8.69593 5.24711 9.3707V4.29248H7.91753V18.6835H5.50973L5.38733 17.6531C4.84426 18.465 4.1447 18.871 3.28942 18.871C2.22652 18.871 1.41617 18.465 0.857603 17.6531C0.299038 16.8412 0.0123954 15.6482 0 14.074V13.3055Z" fill="#9E292B"/>
</g>
<path fill-rule="evenodd" clip-rule="evenodd" d="M12.5882 12.052V17.2991H14.9301C15.5801 17.2991 16.0953 17.0705 16.4764 16.6127C16.8576 16.1548 17.0482 15.5134 17.0482 14.686C17.0482 12.9297 16.3548 12.052 14.9681 12.052H12.5882ZM12.5882 10.5103H14.7899C15.3833 10.5103 15.8628 10.2965 16.2277 9.86807C16.5926 9.43965 16.7762 8.87101 16.7762 8.16215C16.7762 7.35956 16.6104 6.77542 16.2796 6.41131C15.9488 6.0472 15.443 5.86437 14.762 5.86437H12.5882V10.5103ZM10.8737 18.871V4.29248H14.762C16.0046 4.29248 16.9405 4.61631 17.568 5.26319C18.1955 5.91007 18.51 6.88233 18.51 8.17687C18.51 8.85784 18.3504 9.45902 18.032 9.97962C17.7136 10.5002 17.2821 10.9046 16.739 11.1913C17.3635 11.3911 17.8585 11.8017 18.2242 12.4223C18.5898 13.0428 18.7719 13.7912 18.7719 14.6651C18.7719 15.9743 18.4364 17.0016 17.7648 17.7492C17.0931 18.4968 16.1363 18.871 14.8929 18.871H10.8737Z" fill="#3B424B"/>
<mask id="mask2_416_6849" style="mask-type:alpha" maskUnits="userSpaceOnUse" x="0" y="0" width="160" height="23">
<path d="M0 22.6747H160V0.810059H0V22.6747Z" fill="white"/>
</mask>
<g mask="url(#mask2_416_6849)">
<path fill-rule="evenodd" clip-rule="evenodd" d="M21.6197 18.6833H23.2784V7.98377H21.6197V18.6833ZM23.4093 5.29475C23.4093 5.5752 23.3311 5.80993 23.1746 5.99741C23.0181 6.18489 22.7818 6.27786 22.4634 6.27786C22.1504 6.27786 21.9165 6.18412 21.76 5.99741C21.6035 5.81071 21.526 5.5752 21.526 5.29475C21.526 5.01431 21.6042 4.7757 21.76 4.58202C21.9157 4.38834 22.1504 4.2915 22.4634 4.2915C22.7764 4.2915 23.0111 4.38989 23.1699 4.58667C23.3305 4.7872 23.4153 5.03792 23.4093 5.29475ZM26.3974 18.6833H28.056V4.29228H26.3974V18.6833ZM32.3557 14.0962C32.3557 15.232 32.5246 16.0663 32.8616 16.5993C33.1986 17.1323 33.7486 17.3996 34.5109 17.3996C35.3352 17.3996 35.9503 16.9851 36.3563 16.1546V11.0454C35.9317 10.2343 35.3197 9.82913 34.5202 9.82913C33.7579 9.82913 33.2086 10.0956 32.8708 10.6294C32.5331 11.1632 32.3619 11.9813 32.3557 13.0852V14.0962ZM30.697 13.155C30.697 11.5939 30.9891 10.404 31.5732 9.58509C32.1573 8.76623 32.9964 8.35795 34.0895 8.35795C35.0571 8.35795 35.8132 8.75151 36.3563 9.53861V4.2915H38.0149V18.6833H36.4973L36.4128 17.5964C35.8697 18.4454 35.0919 18.87 34.0794 18.87C33.0304 18.87 32.2077 18.4633 31.6112 17.6475C31.0146 16.8317 30.7094 15.6821 30.697 14.1954V13.155ZM46.1192 17.7931C45.5691 18.5113 44.7665 18.87 43.7114 18.87C42.7933 18.87 42.0992 18.5539 41.6313 17.9194C41.1633 17.2849 40.9255 16.3623 40.9185 15.1506V8.54543H42.5679V15.029C42.5679 16.6094 43.0428 17.3996 43.9926 17.3996C44.9982 17.3996 45.6907 16.9495 46.0719 16.05V8.54543H47.7306V18.6833H46.1563L46.1192 17.7931ZM52.1712 8.54621L52.2184 9.64242C52.8615 8.78637 53.6826 8.35873 54.682 8.35873C56.4747 8.35873 57.3834 9.55488 57.4082 11.9472V18.6841H55.7596V12.0223C55.7596 11.229 55.6264 10.665 55.3614 10.3311C55.0965 9.99724 54.6975 9.8299 54.1668 9.8299C53.759 9.82809 53.3645 9.97457 53.0567 10.242C52.729 10.5171 52.4648 10.8758 52.2649 11.3197V18.6841H50.6063V8.54621H52.1712ZM61.6064 14.0962C61.6064 15.232 61.7737 16.0663 62.1076 16.5993C62.4415 17.1323 62.99 17.3996 63.7515 17.3996C64.5766 17.3996 65.1948 16.9781 65.607 16.136V11.0733C65.1762 10.2436 64.5634 9.82913 63.7709 9.82913C63.0086 9.82913 62.4586 10.0956 62.1216 10.6294C61.7846 11.1632 61.6126 11.9813 61.6064 13.0852V14.0962ZM59.9477 13.155C59.9477 11.5745 60.2351 10.3807 60.81 9.57115C61.3848 8.76158 62.2246 8.35795 63.3301 8.35795C64.3605 8.35795 65.1445 8.79799 65.6821 9.67961L65.7658 8.54543H67.2656V18.777C67.2656 20.0321 66.9434 20.9958 66.3003 21.6675C65.6573 22.3391 64.7602 22.6746 63.6113 22.6746C63.1116 22.6746 62.5508 22.5514 61.9294 22.3043C61.3081 22.0571 60.841 21.7527 60.5288 21.3909L61.2035 20.2482C61.8907 20.9222 62.6491 21.2592 63.4804 21.2592C64.8609 21.2592 65.5698 20.507 65.607 19.0017V17.6808C65.0701 18.4741 64.3078 18.87 63.3208 18.87C62.2719 18.87 61.453 18.4757 60.8665 17.6855C60.2801 16.8953 59.9725 15.7595 59.9477 14.2791V13.155ZM75.0414 16.088C75.0414 15.7324 74.9074 15.4256 74.6385 15.17C74.3697 14.9143 73.8514 14.6137 73.0829 14.2705C72.1905 13.9018 71.5606 13.5865 71.1957 13.3238C70.8308 13.0612 70.5566 12.7637 70.3753 12.4291C70.194 12.0944 70.1042 11.697 70.1042 11.2345C70.1042 10.4102 70.4048 9.72532 71.0083 9.17837C71.6117 8.63143 72.3803 8.35795 73.3177 8.35795C74.3039 8.35795 75.0979 8.64615 75.6976 9.22021C76.2972 9.79427 76.5962 10.5318 76.5962 11.432H74.9477C74.9521 11.2168 74.9137 11.0029 74.8349 10.8026C74.756 10.6023 74.6382 10.4197 74.4882 10.2653C74.1822 9.94379 73.7918 9.78265 73.3177 9.78265C72.8304 9.78265 72.4477 9.90892 72.1695 10.1607C71.8914 10.4125 71.7528 10.751 71.7528 11.174C71.7528 11.5102 71.8542 11.7814 72.0572 11.9867C72.2602 12.192 72.749 12.4631 73.5237 12.7994C74.754 13.2812 75.5907 13.7523 76.0346 14.2117C76.4785 14.6711 76.7 15.2544 76.7 15.9617C76.7 16.8433 76.3971 17.5491 75.7913 18.0782C75.1855 18.6074 74.3728 18.8708 73.3548 18.8708C72.2997 18.8708 71.4436 18.5679 70.7875 17.962C70.1313 17.3562 69.8044 16.5877 69.8044 15.6573H71.4715C71.4909 16.2197 71.6621 16.6597 71.9875 16.9781C72.3129 17.2966 72.7676 17.4561 73.3548 17.4561C73.9041 17.4561 74.3232 17.333 74.6107 17.0858C74.8981 16.8387 75.0414 16.5064 75.0414 16.088ZM82.7614 17.4561C83.3106 17.4561 83.7514 17.2865 84.0823 16.9456C84.4131 16.6047 84.5943 16.1198 84.6261 15.4884H86.191C86.1531 16.463 85.8075 17.2702 85.1552 17.9109C84.5029 18.5516 83.7042 18.8708 82.7614 18.8708C81.5056 18.8708 80.5488 18.4757 79.8895 17.6855C79.2302 16.8953 78.901 15.72 78.901 14.1582V13.0434C78.901 11.5126 79.2295 10.3497 79.8849 9.55333C80.5403 8.75693 81.4963 8.35795 82.7521 8.35795C83.7886 8.35795 84.6122 8.68643 85.2211 9.34261C85.83 9.99879 86.1531 10.8944 86.191 12.0309H84.6261C84.5889 11.2817 84.4092 10.7193 84.0869 10.3443C83.7646 9.96935 83.3199 9.78265 82.7521 9.78265C82.0146 9.78265 81.4684 10.0251 81.1128 10.5085C80.7572 10.992 80.572 11.7876 80.5597 12.8931V14.1861C80.5597 15.3791 80.7363 16.2228 81.0888 16.7163C81.4413 17.2098 81.9991 17.4561 82.7614 17.4561ZM88.6166 18.6833H90.2753V4.29228H88.6166V18.6833ZM94.5757 14.1017C94.5757 15.1452 94.7802 15.9648 95.1893 16.5614C95.5983 17.1579 96.1499 17.4561 96.8433 17.4561C98.3051 17.4561 99.0574 16.4002 99.1008 14.2891V13.1457C99.1008 12.1091 98.8947 11.2895 98.4826 10.6867C98.0704 10.084 97.518 9.78265 96.8247 9.78265C96.1437 9.78265 95.5983 10.084 95.1893 10.6867C94.7802 11.2895 94.5757 12.106 94.5757 13.1364V14.1017ZM92.917 13.1457C92.917 11.6722 93.275 10.5054 93.99 9.6463C94.7051 8.78714 95.6502 8.35795 96.8247 8.35795C97.9991 8.35795 98.9435 8.77707 99.6586 9.61376C100.374 10.4504 100.741 11.5908 100.759 13.0333V14.1017C100.759 15.5697 100.404 16.7318 99.6919 17.5871C98.9799 18.4423 98.0301 18.8708 96.8433 18.8708C95.6688 18.8708 94.7268 18.4555 94.0187 17.625C93.3106 16.7945 92.9418 15.6697 92.917 14.2512V13.1457ZM108.452 17.7931C107.901 18.5113 107.099 18.87 106.044 18.87C105.126 18.87 104.432 18.5539 103.964 17.9194C103.496 17.2849 103.258 16.3623 103.251 15.1506V8.54543H104.9V15.029C104.9 16.6094 105.375 17.3996 106.325 17.3996C107.331 17.3996 108.023 16.9495 108.404 16.05V8.54543H110.063V18.6833H108.489L108.452 17.7931ZM114.25 14.0962C114.25 15.232 114.419 16.0663 114.756 16.5993C115.093 17.1323 115.643 17.3996 116.405 17.3996C117.23 17.3996 117.845 16.9851 118.251 16.1546V11.0454C117.826 10.2343 117.214 9.82913 116.415 9.82913C115.652 9.82913 115.103 10.0956 114.765 10.6294C114.428 11.1632 114.256 11.9813 114.25 13.0852V14.0962ZM112.592 13.155C112.592 11.5939 112.884 10.404 113.468 9.58509C114.052 8.76623 114.891 8.35795 115.984 8.35795C116.952 8.35795 117.708 8.75151 118.251 9.53861V4.2915H119.909V18.6833H118.392L118.307 17.5964C117.764 18.4454 116.986 18.87 115.974 18.87C114.925 18.87 114.102 18.4633 113.506 17.6475C112.909 16.8317 112.604 15.6821 112.592 14.1954V13.155ZM149.084 16.1546L147.543 16.4219C147.434 16.441 147.321 16.4286 147.219 16.3861C147.117 16.3435 147.029 16.2726 146.965 16.1817L146.442 15.4342C146.379 15.3439 146.343 15.2377 146.337 15.1278C146.332 15.0179 146.358 14.9088 146.412 14.8128L147.184 13.447C147.269 13.2955 147.388 13.1651 147.53 13.0651L154.903 7.9032C154.61 7.71543 154.301 7.55417 153.979 7.42133C153.8 7.34974 153.606 7.32428 153.414 7.34729C153.223 7.37031 153.04 7.44105 152.883 7.55303L146.7 11.8837C146.601 11.9526 146.427 12.1238 146.374 12.2594L143.864 17.0719C143.514 17.5468 143.971 18.2006 144.537 18.0341L149.919 17.3213C150.064 17.3182 150.284 17.2137 150.383 17.1439L156.572 12.811C156.843 12.6212 157.029 12.326 157.063 11.9975C157.077 11.8651 157.084 11.7318 157.084 11.5962C157.083 11.3134 157.051 11.0315 156.988 10.7557L149.554 15.961C149.413 16.0592 149.253 16.1254 149.084 16.1546ZM159.976 9.55023C159.643 7.9032 158.574 6.4483 157.026 5.49463C156.833 5.37788 156.61 5.32014 156.384 5.32854C156.159 5.33694 155.941 5.4111 155.757 5.54189L155.294 5.86494L155.003 6.06946L154.725 6.26391C156.965 6.93481 158.432 8.70193 158.432 10.6526C158.432 10.9677 158.394 11.2816 158.32 11.5877L159.504 10.758C159.891 10.4876 160.07 10.0127 159.976 9.55023ZM148 14.9298C148.253 15.2916 148.887 15.2885 149.447 14.8965L156.67 9.83842C156.429 9.35583 156.106 8.91883 155.716 8.54698L148.526 13.5818C147.966 13.9731 147.746 14.568 148 14.9298Z" fill="#3B424B"/>
</g>
</svg>
