<svg xmlns="http://www.w3.org/2000/svg" viewBox="0 0 96 96"><defs><linearGradient id="a" x1="4.987%" x2="95.077%" y1="95.013%" y2="4.922%"><stop offset="0%" stop-color="#B1063A"/><stop offset="100%" stop-color="#F6A800"/></linearGradient></defs><g fill="none" fill-rule="evenodd"><rect width="96" height="96" fill="url(#a)" rx="8"/><g fill="#FFF"><path d="M77.314 32.761a19.981 19.981 0 00-.566-1.656L68.5 39.343a2.476 2.476 0 01-1.98.705l-1.836 5.226 2.824 2.821 5.23-1.835a2.464 2.464 0 01.707-1.977l7.68-7.67a15.846 15.846 0 00-1.363-.65l-7.324 7.315c-1.201 1.2-2.756 1.482-3.533.706-.778-.777-.495-2.329.707-3.53l7.7-7.693z"/><path d="M83.253 38.018l-8.959 8.948c-.212.212-.707.565-1.062.634l-10.06 4.07c-.185.091-.37.133-.553.15-1.24 1.16-4.05 2.293-4.786 2.402-4.515.675-6.267-4.634-9.876-6.073-3.184-1.269-5.583 2.641-7.695 4.36-1.286 1.046-2.846 1.86-4.552 1.735-1.66-.12-2.875-1.205-3.97-2.353-1.121-1.175-2.374-2.644-4.167-1.97-.79.296-1.551.878-2.151 1.462-.479.466-.858 1.061-1.492 1.345-.649.291-1.532.025-1.625-.769-.085-.719.607-1.155 1.079-1.558 1.187-1.017 2.351-2.127 3.898-2.566 1.73-.49 3.32.206 4.618 1.336 1.197 1.04 2.319 2.867 4.019 3.07 1.81.213 3.355-1.342 4.5-2.518 1.316-1.35 2.554-2.656 4.351-3.364 1.765-.695 3.553-.373 5.145.6 1.693 1.037 2.814 2.688 4.304 3.96 1.524 1.3 3.096 1.717 4.913.748.433-.23 1.126-.85 1.829-1.289a1.48 1.48 0 01.145-.773l4.073-10.049c.07-.353.423-.849.635-1.06l9.78-9.769c-3.644-6.34-10.413-8.945-17.077-8.713-8.596.3-17.091 5.291-18.39 13.377-8.296-3.295-16.091 1.098-16.091 8.585C8.744 38.981 4.647 52.558 10.644 57.05c4.197 3.594 9.594 2.895 16.49 2.895h45.474c8.496 0 15.392-5.69 15.392-12.778 0-3.516-1.773-6.806-4.747-9.149"/></g><path d="M16.006 76.366a.22.22 0 01-.22.22h-1.088a.22.22 0 01-.22-.22V73h-3.125v3.366a.22.22 0 01-.22.22h-1.089a.22.22 0 01-.22-.22v-7.744c0-.121.1-.21.22-.21h1.09c.12 0 .22.089.22.21v3.036h3.123v-3.036c0-.121.1-.21.22-.21h1.09c.12 0 .22.089.22.21v7.744zm7.34-5.401c0 1.947-1.474 2.574-3.168 2.574-.286 0-.726-.033-.979-.044v2.87c0 .122-.088.22-.209.22h-1.1a.22.22 0 01-.22-.22v-7.567c0-.22.132-.297.352-.33a15.023 15.023 0 012.157-.143c1.694 0 3.168.594 3.168 2.54v.1zm-1.518 0v-.1c0-.923-.55-1.275-1.65-1.275-.23 0-.78.022-.979.044v2.618c.176.01.792.033.98.033 1.188 0 1.65-.44 1.65-1.32zm4.332 5.4a.22.22 0 01-.22.22h-1.089a.22.22 0 01-.22-.22v-7.743c0-.121.099-.21.22-.21h1.089c.121 0 .22.089.22.21v7.744zm9.494-1.902c0 1.056-.55 2.2-2.717 2.2-.77 0-1.341-.077-1.825-.154-.188-.033-.21-.077-.21-.198v-.44c0-.121.088-.176.188-.176h.032c.506.044 1.31.066 1.816.066 1.32 0 1.671-.528 1.671-1.298 0-.55-.319-.858-1.32-1.474l-1.067-.65c-1.012-.615-1.518-1.176-1.518-2.056 0-1.331.957-1.947 2.63-1.947.648 0 1.495.066 1.913.132.11.022.188.077.188.187v.473c0 .11-.078.176-.188.176h-.021a31.046 31.046 0 00-1.892-.066c-1.134 0-1.618.242-1.618 1.045 0 .517.363.825 1.2 1.33l1.012.606c1.275.759 1.726 1.364 1.726 2.244zm5.174 1.837c0 .143-.044.209-.22.242a7.978 7.978 0 01-1.375.12c-1.496 0-2.343-1.055-2.343-2.672v-.858c0-1.617.836-2.673 2.343-2.673.506 0 1.012.055 1.375.12.176.034.22.089.22.243v.396c0 .11-.088.165-.187.165h-.044a10.726 10.726 0 00-1.364-.077c-.88 0-1.375.583-1.375 1.826v.858c0 1.232.484 1.826 1.375 1.826.539 0 .88-.022 1.364-.077h.044c.099 0 .187.055.187.165v.396zm5.876.066a.22.22 0 01-.22.22h-.528a.22.22 0 01-.22-.22v-3.62c0-1.1-.462-1.44-1.177-1.44-.341 0-1.034.088-1.518.308v4.752c0 .11-.1.22-.22.22h-.54c-.11 0-.208-.1-.208-.22v-7.832c0-.121.088-.22.209-.22h.55c.12 0 .209.099.209.22V70.8c.528-.231 1.21-.341 1.683-.341 1.166 0 1.98.67 1.98 2.288v3.619zm6.14 0c0 .12-.088.22-.21.22h-.55c-.12 0-.208-.1-.208-.22v-.21c-.605.342-1.1.507-1.75.507-1.32 0-1.913-.825-1.913-2.288v-3.62a.22.22 0 01.22-.22h.528a.22.22 0 01.22.22v3.62c0 1.11.374 1.452 1.21 1.452.462 0 .979-.176 1.485-.43v-4.641c0-.11.099-.22.22-.22h.539c.11 0 .209.099.209.22v5.61zm2.587 0c0 .11-.077.22-.198.22h-.572c-.11 0-.198-.1-.198-.22v-7.843c0-.11.077-.21.198-.21h.572c.11 0 .198.089.198.21v7.843zm4.075-2.783c0 .11-.088.187-.21.187h-2.188c-.121 0-.21-.066-.21-.187v-.43c0-.11.089-.197.21-.197h2.189c.12 0 .209.077.209.198v.429zm6.341 2.717c0 .132-.099.198-.22.22-.462.088-.89.143-1.826.143-1.353 0-2.904-.726-2.904-3.4v-1.528c0-2.695 1.551-3.4 2.904-3.4.693 0 1.364.1 1.848.177.1.01.176.044.176.143v.56c0 .067-.022.122-.132.122h-.033a24.647 24.647 0 00-1.848-.1c-1.078 0-1.914.628-1.914 2.498v1.529c0 1.848.836 2.497 1.914 2.497.627 0 1.42-.055 1.815-.088h.044c.121 0 .176.055.176.176v.45zm2.277.066c0 .11-.077.22-.198.22h-.572c-.11 0-.198-.1-.198-.22v-7.843c0-.11.077-.21.198-.21h.572c.11 0 .198.089.198.21v7.843zm6.306-2.387c0 1.617-.836 2.684-2.453 2.684s-2.442-1.067-2.442-2.684v-.836c0-1.617.825-2.684 2.442-2.684 1.617 0 2.453 1.067 2.453 2.684v.836zm-.968 0v-.836c0-1.122-.45-1.837-1.485-1.837-1.023 0-1.474.704-1.474 1.837v.836c0 1.122.44 1.837 1.474 1.837 1.023 0 1.485-.704 1.485-1.837zm6.952 2.387c0 .12-.088.22-.21.22h-.55c-.12 0-.208-.1-.208-.22v-.21c-.605.342-1.1.507-1.75.507-1.32 0-1.913-.825-1.913-2.288v-3.62a.22.22 0 01.22-.22h.528a.22.22 0 01.22.22v3.62c0 1.11.374 1.452 1.21 1.452.462 0 .979-.176 1.485-.43v-4.641c0-.11.099-.22.22-.22h.539c.11 0 .209.099.209.22v5.61zm6.034-.143c0 .143-.033.22-.23.253a10.6 10.6 0 01-2.025.187c-1.639 0-2.398-1.067-2.398-2.717v-.792c0-1.727.792-2.695 2.398-2.695.341 0 .858.033 1.287.11v-2.046c0-.11.088-.21.21-.21h.56c.11 0 .198.089.198.21v7.7zm-.968-.473v-4.367c-.363-.066-.935-.077-1.287-.077-1.078 0-1.43.67-1.43 1.848v.792c0 1.199.341 1.87 1.43 1.87.374 0 .913-.033 1.287-.066z" fill="#FFF" fill-rule="nonzero"/></g></svg>