<svg width="59" height="60" viewBox="0 0 59 60" xmlns="http://www.w3.org/2000/svg"><g fill="#FFF" fill-rule="evenodd"><path d="M20.784 17.524c4.032-1.978 7.98-1.558 11.507 1.223a.703.703 0 11-.87 1.103c-3.102-2.446-6.472-2.804-10.019-1.065-3.682 1.806-5.513 4.943-5.275 9.037a.703.703 0 01-.72.744c-3.84-.099-7.11 3.483-6.663 7.298.354 3.032 2.37 5.165 5.348 5.679l.16.025H34.97l.596-.079c3.109-.44 3.819-1.02 4.417-3.316l.077-.306a.703.703 0 011.366.331c-.776 3.2-1.892 4.158-5.859 4.71l-.461.06-.088.005H14.195l-.1-.007c-3.72-.542-6.31-3.206-6.747-6.939-.508-4.337 2.87-8.379 7.12-8.827l.233-.021v-.042c-.004-4.21 2.042-7.54 5.852-9.498l.23-.115z" fill-rule="nonzero"/><path d="M47.493 44.164c.104 0 .187.084.187.187v.214a.187.187 0 01-.187.187h-.214a.187.187 0 01-.187-.187v-.214c0-.103.084-.187.187-.187h.214zm-5.617 0c.103 0 .187.084.187.187v.214a.187.187 0 01-.187.187h-.215a.187.187 0 01-.187-.187v-.214c0-.103.084-.187.187-.187h.215zm.802 0c.104 0 .187.084.187.187v.214a.187.187 0 01-.187.187h-.214a.187.187 0 01-.187-.187v-.214c0-.103.084-.187.187-.187h.214zm4.013 0c.103 0 .187.084.187.187v.214a.187.187 0 01-.187.187h-.214a.187.187 0 01-.188-.187v-.214c0-.103.084-.187.188-.187h.214zm-3.21-.803c.103 0 .187.084.187.187v.215a.187.187 0 01-.187.187h-.215a.187.187 0 01-.187-.187v-.215c0-.103.084-.187.187-.187h.215zm4.012 0c.104 0 .187.084.187.187v.215a.187.187 0 01-.187.187h-.214a.187.187 0 01-.187-.187v-.215c0-.103.084-.187.187-.187h.214zm-.802 0c.103 0 .187.084.187.187v.215a.187.187 0 01-.187.187h-.214a.187.187 0 01-.188-.187v-.215c0-.103.084-.187.188-.187h.214zm-4.013 0c.104 0 .187.084.187.187v.215a.187.187 0 01-.187.187h-.214a.187.187 0 01-.187-.187v-.215c0-.103.084-.187.187-.187h.214zm.803-.802c.103 0 .187.083.187.187v.214a.187.187 0 01-.187.187h-.215a.187.187 0 01-.187-.187v-.214c0-.104.084-.187.187-.187h.215zm4.815 0c.103 0 .187.083.187.187v.214a.187.187 0 01-.187.187h-.214a.187.187 0 01-.188-.187v-.214c0-.104.084-.187.188-.187h.214zm-.803 0c.104 0 .187.083.187.187v.214a.187.187 0 01-.187.187h-.214a.187.187 0 01-.187-.187v-.214c0-.104.084-.187.187-.187h.214zm-4.815 0c.104 0 .187.083.187.187v.214a.187.187 0 01-.187.187h-.214a.187.187 0 01-.187-.187v-.214c0-.104.084-.187.187-.187h.214zm5.618-.803c.103 0 .187.084.187.187v.215a.187.187 0 01-.187.187h-.214a.187.187 0 01-.188-.187v-.215c0-.103.084-.187.188-.187h.214zm-.803 0c.104 0 .187.084.187.187v.215a.187.187 0 01-.187.187h-.214a.187.187 0 01-.187-.187v-.215c0-.103.084-.187.187-.187h.214zm-4.012 0c.103 0 .187.084.187.187v.215a.187.187 0 01-.187.187h-.215a.187.187 0 01-.187-.187v-.215c0-.103.084-.187.187-.187h.215zm.802 0c.104 0 .187.084.187.187v.215a.187.187 0 01-.187.187h-.214a.187.187 0 01-.187-.187v-.215c0-.103.084-.187.187-.187h.214zm3.21-.802c.104 0 .187.084.187.187v.214a.187.187 0 01-.187.187h-.214a.187.187 0 01-.187-.187v-.214c0-.103.084-.187.187-.187h.214zm-2.407 0c.103 0 .187.084.187.187v.214a.187.187 0 01-.187.187h-.214a.187.187 0 01-.188-.187v-.214c0-.103.084-.187.188-.187h.214zm3.21 0c.103 0 .187.084.187.187v.214a.187.187 0 01-.187.187h-.214a.187.187 0 01-.188-.187v-.214c0-.103.084-.187.188-.187h.214zm-4.013 0c.104 0 .187.084.187.187v.214a.187.187 0 01-.187.187h-.214a.187.187 0 01-.187-.187v-.214c0-.103.084-.187.187-.187h.214zm.803-.803c.103 0 .187.084.187.187v.214a.187.187 0 01-.187.188h-.214a.187.187 0 01-.188-.188v-.214c0-.103.084-.187.188-.187h.214zm.802 0c.104 0 .187.084.187.187v.214a.187.187 0 01-.187.188h-.214a.187.187 0 01-.187-.188v-.214c0-.103.084-.187.187-.187h.214zm1.605 0c.104 0 .187.084.187.187v.214a.187.187 0 01-.187.188h-.214a.187.187 0 01-.187-.188v-.214c0-.103.084-.187.187-.187h.214zm.803 0c.103 0 .187.084.187.187v.214a.187.187 0 01-.187.188h-.214a.187.187 0 01-.188-.188v-.214c0-.103.084-.187.188-.187h.214zm4.012-.802c.104 0 .188.083.188.187v.214a.187.187 0 01-.188.187h-.214a.187.187 0 01-.187-.187v-.214c0-.104.084-.187.187-.187h.214zm-7.222 0c.103 0 .187.083.187.187v.214a.187.187 0 01-.187.187h-.214a.187.187 0 01-.188-.187v-.214c0-.104.084-.187.188-.187h.214zm3.21 0c.103 0 .187.083.187.187v.214a.187.187 0 01-.187.187h-.214a.187.187 0 01-.188-.187v-.214c0-.104.084-.187.188-.187h.214zm-.803 0c.104 0 .187.083.187.187v.214a.187.187 0 01-.187.187h-.214a.187.187 0 01-.187-.187v-.214c0-.104.084-.187.187-.187h.214zm-1.605 0c.104 0 .187.083.187.187v.214a.187.187 0 01-.187.187h-.214a.187.187 0 01-.187-.187v-.214c0-.104.084-.187.187-.187h.214zm-.802-.803c.103 0 .187.084.187.187v.214a.187.187 0 01-.187.188h-.214a.187.187 0 01-.188-.188v-.214c0-.103.084-.187.188-.187h.214zm.802 0c.104 0 .187.084.187.187v.214a.187.187 0 01-.187.188h-.214a.187.187 0 01-.187-.188v-.214c0-.103.084-.187.187-.187h.214zm.803 0c.103 0 .187.084.187.187v.214a.187.187 0 01-.187.188h-.214a.187.187 0 01-.188-.188v-.214c0-.103.084-.187.188-.187h.214zm.802 0c.104 0 .187.084.187.187v.214a.187.187 0 01-.187.188h-.214a.187.187 0 01-.187-.188v-.214c0-.103.084-.187.187-.187h.214zm.803 0c.103 0 .187.084.187.187v.214a.187.187 0 01-.187.188h-.214a.187.187 0 01-.188-.188v-.214c0-.103.084-.187.188-.187h.214zm4.012 0c.104 0 .188.084.188.187v.214a.187.187 0 01-.188.188h-.214a.187.187 0 01-.187-.188v-.214c0-.103.084-.187.187-.187h.214zm-.802 0c.103 0 .187.084.187.187v.214a.187.187 0 01-.187.188h-.214a.187.187 0 01-.187-.188v-.214c0-.103.083-.187.187-.187h.214zm1.605 0c.103 0 .187.084.187.187v.214a.187.187 0 01-.187.188h-.214a.187.187 0 01-.187-.188v-.214c0-.103.084-.187.187-.187h.214zm-.803-.802c.104 0 .188.083.188.187v.214a.187.187 0 01-.188.187h-.214a.187.187 0 01-.187-.187v-.214c0-.104.084-.187.187-.187h.214zm-6.42 0c.104 0 .187.083.187.187v.214a.187.187 0 01-.187.187h-.214a.187.187 0 01-.187-.187v-.214c0-.104.084-.187.187-.187h.214zm1.605 0c.104 0 .187.083.187.187v.214a.187.187 0 01-.187.187h-.214a.187.187 0 01-.187-.187v-.214c0-.104.084-.187.187-.187h.214zm-.802 0c.103 0 .187.083.187.187v.214a.187.187 0 01-.187.187h-.214a.187.187 0 01-.188-.187v-.214c0-.104.084-.187.188-.187h.214zm-1.605 0c.103 0 .187.083.187.187v.214a.187.187 0 01-.187.187h-.214a.187.187 0 01-.188-.187v-.214c0-.104.084-.187.188-.187h.214zm6.42 0c.103 0 .187.083.187.187v.214a.187.187 0 01-.187.187h-.214a.187.187 0 01-.187-.187v-.214c0-.104.083-.187.187-.187h.214zm-.803 0c.104 0 .188.083.188.187v.214a.187.187 0 01-.188.187h-.214a.187.187 0 01-.187-.187v-.214c0-.104.084-.187.187-.187h.214zm-6.42 0c.104 0 .187.083.187.187v.214a.187.187 0 01-.187.187h-.214a.187.187 0 01-.187-.187v-.214c0-.104.084-.187.187-.187h.214zm6.42-.803c.104 0 .188.084.188.187v.214a.187.187 0 01-.188.188h-.214a.187.187 0 01-.187-.188v-.214c0-.103.084-.187.187-.187h.214zm-5.617 0c.103 0 .187.084.187.187v.214a.187.187 0 01-.187.188h-.214a.187.187 0 01-.188-.188v-.214c0-.103.084-.187.188-.187h.214zm.802 0c.104 0 .187.084.187.187v.214a.187.187 0 01-.187.188h-.214a.187.187 0 01-.187-.188v-.214c0-.103.084-.187.187-.187h.214zm-1.605 0c.104 0 .187.084.187.187v.214a.187.187 0 01-.187.188h-.214a.187.187 0 01-.187-.188v-.214c0-.103.084-.187.187-.187h.214zm2.408 0c.103 0 .187.084.187.187v.214a.187.187 0 01-.187.188h-.214a.187.187 0 01-.188-.188v-.214c0-.103.084-.187.188-.187h.214zm4.815 0c.103 0 .187.084.187.187v.214a.187.187 0 01-.187.188h-.214a.187.187 0 01-.187-.188v-.214c0-.103.083-.187.187-.187h.214zm-17.656 0c.104 0 .187.084.187.187v.214a.187.187 0 01-.187.188h-.214a.187.187 0 01-.187-.188v-.214c0-.103.084-.187.187-.187h.214zm.803 0c.103 0 .187.084.187.187v.214a.187.187 0 01-.187.188h-.214a.187.187 0 01-.187-.188v-.214c0-.103.083-.187.187-.187h.214zm8.828 0c.103 0 .187.084.187.187v.214a.187.187 0 01-.187.188h-.215a.187.187 0 01-.187-.188v-.214c0-.103.084-.187.187-.187h.215zm8.827 0c.104 0 .188.084.188.187v.214a.187.187 0 01-.188.188h-.214a.187.187 0 01-.187-.188v-.214c0-.103.084-.187.187-.187h.214zm-2.407 0c.103 0 .187.084.187.187v.214a.187.187 0 01-.187.188h-.214a.187.187 0 01-.187-.188v-.214c0-.103.083-.187.187-.187h.214zm-2.408 0c.104 0 .187.084.187.187v.214a.187.187 0 01-.187.188h-.214a.187.187 0 01-.187-.188v-.214c0-.103.084-.187.187-.187h.214zm.803-.803c.103 0 .187.084.187.188v.214a.187.187 0 01-.187.187h-.214a.187.187 0 01-.188-.187v-.214c0-.104.084-.188.188-.188h.214zm3.21 0c.103 0 .187.084.187.188v.214a.187.187 0 01-.187.187h-.214a.187.187 0 01-.187-.187v-.214c0-.104.083-.188.187-.188h.214zm-.803 0c.104 0 .188.084.188.188v.214a.187.187 0 01-.188.187h-.214a.187.187 0 01-.187-.187v-.214c0-.104.084-.188.187-.188h.214zm-17.655 0c.103 0 .187.084.187.188v.214a.187.187 0 01-.187.187h-.214a.187.187 0 01-.188-.187v-.214c0-.104.084-.188.188-.188h.214zm12.84 0c.104 0 .187.084.187.188v.214a.187.187 0 01-.187.187h-.214a.187.187 0 01-.187-.187v-.214c0-.104.084-.188.187-.188h.214zm-13.643 0c.104 0 .187.084.187.188v.214a.187.187 0 01-.187.187h-.214a.187.187 0 01-.187-.187v-.214c0-.104.084-.188.187-.188h.214zm11.236 0c.103 0 .187.084.187.188v.214a.187.187 0 01-.187.187h-.215a.187.187 0 01-.187-.187v-.214c0-.104.084-.188.187-.188h.215zm1.605 0c.103 0 .187.084.187.188v.214a.187.187 0 01-.187.187h-.214a.187.187 0 01-.188-.187v-.214c0-.104.084-.188.188-.188h.214zm-11.236 0c.104 0 .187.084.187.188v.214a.187.187 0 01-.187.187h-.214a.187.187 0 01-.187-.187v-.214c0-.104.084-.188.187-.188h.214zm16.05 0c.104 0 .188.084.188.188v.214a.187.187 0 01-.187.187h-.214a.187.187 0 01-.187-.187v-.214c0-.104.083-.188.187-.188h.214zm-5.617 0c.104 0 .187.084.187.188v.214a.187.187 0 01-.187.187h-.214a.187.187 0 01-.187-.187v-.214c0-.104.084-.188.187-.188h.214zm2.408 0c.103 0 .187.084.187.188v.214a.187.187 0 01-.187.187h-.214a.187.187 0 01-.188-.187v-.214c0-.104.084-.188.188-.188h.214zm.802 0c.104 0 .187.084.187.188v.214a.187.187 0 01-.187.187h-.214a.187.187 0 01-.187-.187v-.214c0-.104.084-.188.187-.188h.214zm-14.445-.802c.103 0 .187.084.187.187v.214a.187.187 0 01-.187.187h-.214a.187.187 0 01-.188-.187v-.214c0-.103.084-.187.188-.187h.214zm10.433 0c.103 0 .187.084.187.187v.214a.187.187 0 01-.187.187h-.215a.187.187 0 01-.187-.187v-.214c0-.103.084-.187.187-.187h.215zm4.012 0c.104 0 .187.084.187.187v.214a.187.187 0 01-.187.187h-.214a.187.187 0 01-.187-.187v-.214c0-.103.084-.187.187-.187h.214zm2.408 0c.103 0 .187.084.187.187v.214a.187.187 0 01-.187.187h-.214a.187.187 0 01-.187-.187v-.214c0-.103.083-.187.187-.187h.214zm-4.815 0c.103 0 .187.084.187.187v.214a.187.187 0 01-.187.187h-.214a.187.187 0 01-.188-.187v-.214c0-.103.084-.187.188-.187h.214zm-12.84 0c.103 0 .186.084.186.187v.214a.187.187 0 01-.187.187h-.214a.187.187 0 01-.187-.187v-.214c0-.103.084-.187.187-.187h.214zm9.63 0c.103 0 .187.084.187.187v.214a.187.187 0 01-.187.187h-.215a.187.187 0 01-.187-.187v-.214c0-.103.084-.187.187-.187h.215zm4.012 0c.104 0 .187.084.187.187v.214a.187.187 0 01-.187.187h-.214a.187.187 0 01-.187-.187v-.214c0-.103.084-.187.187-.187h.214zm-3.21 0c.104 0 .187.084.187.187v.214a.187.187 0 01-.187.187h-.214a.187.187 0 01-.187-.187v-.214c0-.103.084-.187.187-.187h.214zm4.013 0c.103 0 .187.084.187.187v.214a.187.187 0 01-.187.187h-.214a.187.187 0 01-.188-.187v-.214c0-.103.084-.187.188-.187h.214zm4.012 0c.104 0 .188.084.188.187v.214a.187.187 0 01-.188.187h-.214a.187.187 0 01-.187-.187v-.214c0-.103.084-.187.187-.187h.214zm-2.407 0c.103 0 .187.084.187.187v.214a.187.187 0 01-.187.187h-.214a.187.187 0 01-.188-.187v-.214c0-.103.084-.187.188-.187h.214zm3.21 0c.103 0 .187.084.187.187v.214a.187.187 0 01-.187.187h-.214a.187.187 0 01-.187-.187v-.214c0-.103.083-.187.187-.187h.214zm-7.223 0c.104 0 .187.084.187.187v.214a.187.187 0 01-.187.187h-.214a.187.187 0 01-.187-.187v-.214c0-.103.084-.187.187-.187h.214zm-1.605-.803c.104 0 .187.084.187.188v.214a.187.187 0 01-.187.187h-.214a.187.187 0 01-.187-.187v-.214c0-.104.084-.188.187-.188h.214zm-3.21 0c.104 0 .187.084.187.188v.214a.187.187 0 01-.187.187h-.214a.187.187 0 01-.187-.187v-.214c0-.104.084-.188.187-.188h.214zm10.433 0c.103 0 .187.084.187.188v.214a.187.187 0 01-.187.187h-.214a.187.187 0 01-.187-.187v-.214c0-.104.083-.188.187-.188h.214zm-17.656 0c.104 0 .187.084.187.188v.214a.187.187 0 01-.187.187h-.214a.187.187 0 01-.187-.187v-.214c0-.104.084-.188.187-.188h.214zm9.63 0c.104 0 .188.084.188.188v.214a.187.187 0 01-.187.187h-.215a.187.187 0 01-.187-.187v-.214c0-.104.084-.188.187-.188h.215zm1.606 0c.103 0 .187.084.187.188v.214a.187.187 0 01-.187.187h-.215a.187.187 0 01-.187-.187v-.214c0-.104.084-.188.187-.188h.215zm4.012 0c.104 0 .187.084.187.188v.214a.187.187 0 01-.187.187h-.214a.187.187 0 01-.187-.187v-.214c0-.104.084-.188.187-.188h.214zm-6.42 0c.103 0 .187.084.187.188v.214a.187.187 0 01-.187.187h-.214a.187.187 0 01-.187-.187v-.214c0-.104.084-.188.187-.188h.214zm-.802 0c.103 0 .187.084.187.188v.214a.187.187 0 01-.187.187h-.215a.187.187 0 01-.187-.187v-.214c0-.104.084-.188.187-.188h.215zm10.432 0c.104 0 .188.084.188.188v.214a.187.187 0 01-.188.187h-.214a.187.187 0 01-.187-.187v-.214c0-.104.084-.188.187-.188h.214zm-4.012 0c.103 0 .187.084.187.188v.214a.187.187 0 01-.187.187h-.214a.187.187 0 01-.188-.187v-.214c0-.104.084-.188.188-.188h.214zm-2.408 0c.104 0 .187.084.187.188v.214a.187.187 0 01-.187.187h-.214a.187.187 0 01-.187-.187v-.214c0-.104.084-.188.187-.188h.214zm.803 0c.103 0 .187.084.187.188v.214a.187.187 0 01-.187.187h-.214a.187.187 0 01-.188-.187v-.214c0-.104.084-.188.188-.188h.214zm-13.643 0c.103 0 .187.084.187.188v.214a.187.187 0 01-.187.187h-.214a.187.187 0 01-.187-.187v-.214c0-.104.083-.188.187-.188h.214zm16.853 0c.103 0 .187.084.187.188v.214a.187.187 0 01-.187.187h-.214a.187.187 0 01-.188-.187v-.214c0-.104.084-.188.188-.188h.214zm-2.408 0c.104 0 .187.084.187.188v.214a.187.187 0 01-.187.187h-.214a.187.187 0 01-.187-.187v-.214c0-.104.084-.188.187-.188h.214zm-12.84 0c.103 0 .187.084.187.188v.214a.187.187 0 01-.187.187h-.214a.187.187 0 01-.188-.187v-.214c0-.104.084-.188.188-.188h.214zm5.618 0c.103 0 .187.084.187.188v.214a.187.187 0 01-.187.187h-.215a.187.187 0 01-.187-.187v-.214c0-.104.084-.188.187-.188h.215zm7.222-.802c.104 0 .187.084.187.187v.214a.187.187 0 01-.187.188h-.214a.187.187 0 01-.187-.188v-.214c0-.103.084-.187.187-.187h.214zm-.802 0c.103 0 .187.084.187.187v.214a.187.187 0 01-.187.188h-.214a.187.187 0 01-.188-.188v-.214c0-.103.084-.187.188-.187h.214zm3.21 0c.103 0 .187.084.187.187v.214a.187.187 0 01-.187.188h-.214a.187.187 0 01-.188-.188v-.214c0-.103.084-.187.188-.187h.214zm-7.223 0c.103 0 .187.084.187.187v.214a.187.187 0 01-.187.188h-.214a.187.187 0 01-.187-.188v-.214c0-.103.084-.187.187-.187h.214zm-.802 0c.103 0 .187.084.187.187v.214a.187.187 0 01-.187.188h-.215a.187.187 0 01-.187-.188v-.214c0-.103.084-.187.187-.187h.215zm10.432 0c.104 0 .188.084.188.187v.214a.187.187 0 01-.188.188h-.214a.187.187 0 01-.187-.188v-.214c0-.103.084-.187.187-.187h.214zm-17.655 0c.103 0 .187.084.187.187v.214a.187.187 0 01-.187.188h-.214a.187.187 0 01-.188-.188v-.214c0-.103.084-.187.188-.187h.214zm14.445 0c.104 0 .187.084.187.187v.214a.187.187 0 01-.187.188h-.214a.187.187 0 01-.187-.188v-.214c0-.103.084-.187.187-.187h.214zm-4.815 0c.104 0 .187.084.187.187v.214a.187.187 0 01-.187.188h-.214a.187.187 0 01-.187-.188v-.214c0-.103.084-.187.187-.187h.214zm1.605 0c.104 0 .187.084.187.187v.214a.187.187 0 01-.187.188h-.214a.187.187 0 01-.187-.188v-.214c0-.103.084-.187.187-.187h.214zm-10.433 0c.104 0 .187.084.187.187v.214a.187.187 0 01-.187.188h-.214a.187.187 0 01-.187-.188v-.214c0-.103.084-.187.187-.187h.214zm3.21 0c.104 0 .188.084.188.187v.214a.187.187 0 01-.188.188h-.214a.187.187 0 01-.187-.188v-.214c0-.103.084-.187.187-.187h.214zm-5.617 0c.103 0 .187.084.187.187v.214c0 .095-.07.173-.162.186l-.025.002h-.214a.187.187 0 01-.187-.188v-.214c0-.103.083-.187.187-.187h.214zm6.42 0c.103 0 .187.084.187.187v.214a.187.187 0 01-.187.188h-.214a.187.187 0 01-.187-.188v-.214c0-.103.083-.187.187-.187h.214zm5.618 0c.103 0 .187.084.187.187v.214a.187.187 0 01-.187.188h-.215a.187.187 0 01-.187-.188v-.214c0-.103.084-.187.187-.187h.215zm-4.013 0c.104 0 .187.084.187.187v.214a.187.187 0 01-.187.188h-.214a.187.187 0 01-.187-.188v-.214c0-.103.084-.187.187-.187h.214zm-8.828 0c.104 0 .187.084.187.187v.214c0 .095-.07.173-.161.186l-.026.002h-.214a.187.187 0 01-.187-.188v-.214c0-.103.084-.187.187-.187h.214zm19.26 0c.104 0 .188.084.188.187v.214a.187.187 0 01-.187.188h-.214a.187.187 0 01-.187-.188v-.214c0-.103.083-.187.187-.187h.214zm-8.024 0c.103 0 .187.084.187.187v.214a.187.187 0 01-.187.188h-.215a.187.187 0 01-.187-.188v-.214c0-.103.084-.187.187-.187h.215zm4.815 0c.103 0 .187.084.187.187v.214a.187.187 0 01-.187.188h-.214a.187.187 0 01-.188-.188v-.214c0-.103.084-.187.188-.187h.214zm-12.038 0c.103 0 .187.084.187.187v.214a.187.187 0 01-.187.188h-.214a.187.187 0 01-.187-.188v-.214c0-.103.083-.187.187-.187h.214zm1.605 0c.103 0 .187.084.187.187v.214a.187.187 0 01-.187.188h-.214a.187.187 0 01-.187-.188v-.214c0-.103.083-.187.187-.187h.214zm2.408 0c.103 0 .187.084.187.187v.214a.187.187 0 01-.187.188h-.215a.187.187 0 01-.187-.188v-.214c0-.103.084-.187.187-.187h.215zm-4.013-.803c.103 0 .187.084.187.188v.214a.187.187 0 01-.187.187h-.214a.187.187 0 01-.187-.187v-.214c0-.104.083-.188.187-.188h.214zm-.803 0c.104 0 .187.084.187.188v.214a.187.187 0 01-.187.187h-.214a.187.187 0 01-.187-.187v-.214c0-.104.084-.188.187-.188h.214zm3.21 0c.104 0 .188.084.188.188v.214a.187.187 0 01-.188.187h-.214a.187.187 0 01-.187-.187v-.214c0-.104.084-.188.187-.188h.214zm1.606 0c.103 0 .187.084.187.188v.214a.187.187 0 01-.187.187h-.215a.187.187 0 01-.187-.187v-.214c0-.104.084-.188.187-.188h.215zm1.605 0c.103 0 .187.084.187.188v.214a.187.187 0 01-.187.187h-.215a.187.187 0 01-.187-.187v-.214c0-.104.084-.188.187-.188h.215zm-4.815 0c.103 0 .187.084.187.188v.214a.187.187 0 01-.187.187h-.215a.187.187 0 01-.187-.187v-.214c0-.104.084-.188.187-.188h.215zm9.63 0c.103 0 .187.084.187.188v.214a.187.187 0 01-.187.187h-.214a.187.187 0 01-.188-.187v-.214c0-.104.084-.188.188-.188h.214zm2.407 0c.104 0 .187.084.187.188v.214a.187.187 0 01-.187.187h-.214a.187.187 0 01-.187-.187v-.214c0-.104.084-.188.187-.188h.214zm-.802 0c.103 0 .187.084.187.188v.214a.187.187 0 01-.187.187h-.214a.187.187 0 01-.188-.187v-.214c0-.104.084-.188.188-.188h.214zm-.803 0c.104 0 .187.084.187.188v.214a.187.187 0 01-.187.187h-.214a.187.187 0 01-.187-.187v-.214c0-.104.084-.188.187-.188h.214zm-6.42 0c.104 0 .187.084.187.188v.214a.187.187 0 01-.187.187h-.214a.187.187 0 01-.187-.187v-.214c0-.104.084-.188.187-.188h.214zm8.828 0c.103 0 .187.084.187.188v.214a.187.187 0 01-.187.187h-.214a.187.187 0 01-.188-.187v-.214c0-.104.084-.188.188-.188h.214zm-7.223 0c.103 0 .187.084.187.188v.214a.187.187 0 01-.187.187h-.214a.187.187 0 01-.187-.187v-.214c0-.104.084-.188.187-.188h.214zm8.828 0c.103 0 .187.084.187.188v.214a.187.187 0 01-.187.187h-.214a.187.187 0 01-.187-.187v-.214c0-.104.083-.188.187-.188h.214zm-6.42 0c.103 0 .187.084.187.188v.214a.187.187 0 01-.187.187h-.215a.187.187 0 01-.187-.187v-.214c0-.104.084-.188.187-.188h.215zm-10.433 0c.103 0 .187.084.187.188v.214a.187.187 0 01-.187.187h-.214a.187.187 0 01-.188-.187v-.214c0-.104.084-.188.188-.188h.214zm8.828 0c.103 0 .187.084.187.188v.214a.187.187 0 01-.187.187h-.215a.187.187 0 01-.187-.187v-.214c0-.104.084-.188.187-.188h.215zm2.407 0c.104 0 .187.084.187.188v.214a.187.187 0 01-.187.187h-.214a.187.187 0 01-.187-.187v-.214c0-.104.084-.188.187-.188h.214zm-8.025 0c.103 0 .187.084.187.188v.214a.187.187 0 01-.187.187h-.214a.187.187 0 01-.187-.187v-.214c0-.104.083-.188.187-.188h.214zm1.605 0c.103 0 .187.084.187.188v.214a.187.187 0 01-.187.187h-.214a.187.187 0 01-.187-.187v-.214c0-.104.083-.188.187-.188h.214zm4.815 0c.104 0 .187.084.187.188v.214a.187.187 0 01-.187.187h-.214a.187.187 0 01-.187-.187v-.214c0-.104.084-.188.187-.188h.214zm6.42 0c.104 0 .188.084.188.188v.214a.187.187 0 01-.188.187h-.214a.187.187 0 01-.187-.187v-.214c0-.104.084-.188.187-.188h.214zm-17.655 0c.103 0 .187.084.187.188v.214a.187.187 0 01-.187.187h-.214a.187.187 0 01-.187-.187v-.214c0-.104.083-.188.187-.188h.214zm-.803 0c.104 0 .187.084.187.188v.214a.187.187 0 01-.187.187h-.214a.187.187 0 01-.187-.187v-.214c0-.104.084-.188.187-.188h.214zm1.605-.802c.104 0 .187.084.187.187v.214a.187.187 0 01-.187.187h-.214a.187.187 0 01-.187-.187v-.214c0-.103.084-.187.187-.187h.214zm8.828 0c.103 0 .187.084.187.187v.214a.187.187 0 01-.187.187h-.214a.187.187 0 01-.187-.187v-.214c0-.103.084-.187.187-.187h.214zm-.803 0c.104 0 .188.084.188.187v.214a.187.187 0 01-.188.187h-.214a.187.187 0 01-.187-.187v-.214c0-.103.084-.187.187-.187h.214zm-7.222 0c.103 0 .187.084.187.187v.214a.187.187 0 01-.187.187h-.214a.187.187 0 01-.188-.187v-.214c0-.103.084-.187.188-.187h.214zm2.408 0c.103 0 .187.084.187.187v.214a.187.187 0 01-.187.187h-.215a.187.187 0 01-.187-.187v-.214c0-.103.084-.187.187-.187h.215zm-4.013 0c.103 0 .187.084.187.187v.214a.187.187 0 01-.187.187h-.214a.187.187 0 01-.187-.187v-.214c0-.103.083-.187.187-.187h.214zm15.248 0c.103 0 .187.084.187.187v.214a.187.187 0 01-.187.187h-.214a.187.187 0 01-.188-.187v-.214c0-.103.084-.187.188-.187h.214zm-4.815 0c.103 0 .187.084.187.187v.214a.187.187 0 01-.187.187h-.215a.187.187 0 01-.187-.187v-.214c0-.103.084-.187.187-.187h.215zm-5.618 0c.103 0 .187.084.187.187v.214a.187.187 0 01-.187.187h-.214a.187.187 0 01-.187-.187v-.214c0-.103.083-.187.187-.187h.214zm2.408 0c.103 0 .187.084.187.187v.214a.187.187 0 01-.187.187h-.215a.187.187 0 01-.187-.187v-.214c0-.103.084-.187.187-.187h.215zm4.815 0c.103 0 .187.084.187.187v.214a.187.187 0 01-.187.187h-.215a.187.187 0 01-.187-.187v-.214c0-.103.084-.187.187-.187h.215zm2.407 0c.104 0 .187.084.187.187v.214a.187.187 0 01-.187.187h-.214a.187.187 0 01-.187-.187v-.214c0-.103.084-.187.187-.187h.214zm-8.828 0c.104 0 .188.084.188.187v.214a.187.187 0 01-.188.187h-.214a.187.187 0 01-.187-.187v-.214c0-.103.084-.187.187-.187h.214zm10.433 0c.104 0 .187.084.187.187v.214a.187.187 0 01-.187.187h-.214a.187.187 0 01-.187-.187v-.214c0-.103.084-.187.187-.187h.214zm-3.21 0c.104 0 .187.084.187.187v.214a.187.187 0 01-.187.187h-.214a.187.187 0 01-.187-.187v-.214c0-.103.084-.187.187-.187h.214zm-9.63 0c.103 0 .187.084.187.187v.214a.187.187 0 01-.187.187h-.214a.187.187 0 01-.187-.187v-.214c0-.103.083-.187.187-.187h.214zm10.433 0c.103 0 .187.084.187.187v.214a.187.187 0 01-.187.187h-.214a.187.187 0 01-.188-.187v-.214c0-.103.084-.187.188-.187h.214zm-2.408 0c.104 0 .187.084.187.187v.214a.187.187 0 01-.187.187h-.214a.187.187 0 01-.187-.187v-.214c0-.103.084-.187.187-.187h.214zm-8.828 0c.104 0 .187.084.187.187v.214a.187.187 0 01-.187.187h-.214a.187.187 0 01-.187-.187v-.214c0-.103.084-.187.187-.187h.214zm4.013 0c.103 0 .187.084.187.187v.214a.187.187 0 01-.187.187h-.214a.187.187 0 01-.187-.187v-.214c0-.103.083-.187.187-.187h.214zm1.605 0c.103 0 .187.084.187.187v.214a.187.187 0 01-.187.187h-.214a.187.187 0 01-.187-.187v-.214c0-.103.084-.187.187-.187h.214zm-4.815-.803c.103 0 .187.084.187.187v.215a.187.187 0 01-.187.187h-.214a.187.187 0 01-.187-.187v-.215c0-.103.083-.187.187-.187h.214zm8.828 0c.103 0 .187.084.187.187v.215a.187.187 0 01-.187.187h-.215a.187.187 0 01-.187-.187v-.215c0-.103.084-.187.187-.187h.215zm-1.605 0c.103 0 .187.084.187.187v.215a.187.187 0 01-.187.187h-.215a.187.187 0 01-.187-.187v-.215c0-.103.084-.187.187-.187h.215zm-1.605 0c.103 0 .187.084.187.187v.215a.187.187 0 01-.187.187h-.215a.187.187 0 01-.187-.187v-.215c0-.103.084-.187.187-.187h.215zm-3.21 0c.103 0 .187.084.187.187v.215a.187.187 0 01-.188.187h-.214a.187.187 0 01-.187-.187v-.215c0-.103.084-.187.187-.187h.214zm8.827 0c.104 0 .187.084.187.187v.215a.187.187 0 01-.187.187h-.214a.187.187 0 01-.187-.187v-.215c0-.103.084-.187.187-.187h.214zm-9.63 0c.103 0 .187.084.187.187v.215a.187.187 0 01-.187.187h-.214a.187.187 0 01-.187-.187v-.215c0-.103.083-.187.187-.187h.214zm2.408 0c.103 0 .187.084.187.187v.215a.187.187 0 01-.187.187h-.215a.187.187 0 01-.187-.187v-.215c0-.103.084-.187.187-.187h.215zm6.42 0c.103 0 .187.084.187.187v.215a.187.187 0 01-.187.187h-.214a.187.187 0 01-.188-.187v-.215c0-.103.084-.187.188-.187h.214zm-5.618 0c.104 0 .187.084.187.187v.215a.187.187 0 01-.187.187h-.214a.187.187 0 01-.187-.187v-.215c0-.103.084-.187.187-.187h.214zm-5.618 0c.104 0 .187.084.187.187v.215a.187.187 0 01-.187.187h-.214a.187.187 0 01-.187-.187v-.215c0-.103.084-.187.187-.187h.214zm10.433 0c.104 0 .187.084.187.187v.215a.187.187 0 01-.187.187h-.214a.187.187 0 01-.187-.187v-.215c0-.103.084-.187.187-.187h.214zm-1.605 0c.104 0 .187.084.187.187v.215a.187.187 0 01-.187.187h-.214a.187.187 0 01-.187-.187v-.215c0-.103.084-.187.187-.187h.214zm-7.222 0c.103 0 .187.084.187.187v.215a.187.187 0 01-.187.187h-.215a.187.187 0 01-.187-.187v-.215c0-.103.084-.187.187-.187h.215zm2.407 0c.103 0 .187.084.187.187v.215a.187.187 0 01-.187.187h-.214a.187.187 0 01-.187-.187v-.215c0-.103.083-.187.187-.187h.214zm-4.815 0c.103 0 .187.084.187.187v.215a.187.187 0 01-.187.187h-.214a.187.187 0 01-.188-.187v-.215c0-.103.084-.187.188-.187h.214zm8.025 0c.103 0 .187.084.187.187v.215a.187.187 0 01-.187.187h-.214a.187.187 0 01-.187-.187v-.215c0-.103.084-.187.187-.187h.214zm-8.828 0c.104 0 .187.084.187.187v.215a.187.187 0 01-.187.187h-.214a.187.187 0 01-.187-.187v-.215c0-.103.084-.187.187-.187h.214zm8.026-.802c.103 0 .187.084.187.187v.214a.187.187 0 01-.187.187h-.215a.187.187 0 01-.187-.187v-.214c0-.103.084-.187.187-.187h.215zm-3.21 0c.103 0 .187.084.187.187v.214a.187.187 0 01-.188.187h-.214a.187.187 0 01-.187-.187v-.214c0-.103.084-.187.187-.187h.214zm6.42 0c.103 0 .187.084.187.187v.214a.187.187 0 01-.187.187h-.215a.187.187 0 01-.187-.187v-.214c0-.103.084-.187.187-.187h.215zm-8.025 0c.103 0 .187.084.187.187v.214a.187.187 0 01-.187.187h-.215a.187.187 0 01-.187-.187v-.214c0-.103.084-.187.187-.187h.215zm7.222 0c.104 0 .187.084.187.187v.214a.187.187 0 01-.187.187h-.214a.187.187 0 01-.187-.187v-.214c0-.103.084-.187.187-.187h.214zm-1.605 0c.103 0 .187.084.187.187v.214a.187.187 0 01-.187.187h-.214a.187.187 0 01-.187-.187v-.214c0-.103.084-.187.187-.187h.214zm-2.407 0c.103 0 .187.084.187.187v.214a.187.187 0 01-.187.187h-.215a.187.187 0 01-.187-.187v-.214c0-.103.084-.187.187-.187h.215zm.802 0c.104 0 .187.084.187.187v.214a.187.187 0 01-.187.187h-.214a.187.187 0 01-.187-.187v-.214c0-.103.084-.187.187-.187h.214zm-4.815 0c.103 0 .187.084.187.187v.214a.187.187 0 01-.187.187h-.214a.187.187 0 01-.187-.187v-.214c0-.103.083-.187.187-.187h.214zm-.803 0c.104 0 .187.084.187.187v.214a.187.187 0 01-.187.187h-.214a.187.187 0 01-.187-.187v-.214c0-.103.084-.187.187-.187h.214zm8.026 0c.103 0 .187.084.187.187v.214a.187.187 0 01-.187.187h-.215a.187.187 0 01-.187-.187v-.214c0-.103.084-.187.187-.187h.215zm-4.013 0c.103 0 .187.084.187.187v.214a.187.187 0 01-.187.187h-.214a.187.187 0 01-.187-.187v-.214c0-.103.083-.187.187-.187h.214zm-1.605 0c.103 0 .187.084.187.187v.214a.187.187 0 01-.187.187h-.214a.187.187 0 01-.187-.187v-.214c0-.103.083-.187.187-.187h.214zm3.21-.803c.104 0 .187.084.187.188v.214a.187.187 0 01-.187.187h-.214a.187.187 0 01-.187-.187v-.214c0-.104.084-.188.187-.188h.214zm-3.21 0c.103 0 .187.084.187.188v.214a.187.187 0 01-.187.187h-.214a.187.187 0 01-.187-.187v-.214c0-.104.083-.188.187-.188h.214zm2.408 0c.103 0 .187.084.187.188v.214a.187.187 0 01-.187.187h-.215a.187.187 0 01-.187-.187v-.214c0-.104.084-.188.187-.188h.215zm-.803 0c.103 0 .187.084.187.188v.214a.187.187 0 01-.187.187h-.214a.187.187 0 01-.187-.187v-.214c0-.104.083-.188.187-.188h.214zm-3.21 0c.103 0 .187.084.187.188v.214a.187.187 0 01-.187.187h-.214a.187.187 0 01-.187-.187v-.214c0-.104.083-.188.187-.188h.214zm-.803 0c.104 0 .187.084.187.188v.214a.187.187 0 01-.187.187h-.214a.187.187 0 01-.187-.187v-.214c0-.104.084-.188.187-.188h.214zm6.42 0c.104 0 .188.084.188.188v.214a.187.187 0 01-.187.187h-.215a.187.187 0 01-.187-.187v-.214c0-.104.084-.188.187-.188h.215zm-3.21 0c.104 0 .188.084.188.188v.214a.187.187 0 01-.188.187h-.214a.187.187 0 01-.187-.187v-.214c0-.104.084-.188.187-.188h.214zm4.013 0c.103 0 .187.084.187.188v.214a.187.187 0 01-.187.187h-.214a.187.187 0 01-.187-.187v-.214c0-.104.084-.188.187-.188h.214zm-5.617 0c.103 0 .187.084.187.188v.214a.187.187 0 01-.187.187h-.215a.187.187 0 01-.187-.187v-.214c0-.104.084-.188.187-.188h.215zm6.42 0c.103 0 .187.084.187.188v.214a.187.187 0 01-.187.187h-.215a.187.187 0 01-.187-.187v-.214c0-.104.084-.188.187-.188h.215zm-3.21-.802c.103 0 .187.084.187.187v.214a.187.187 0 01-.187.187h-.215a.187.187 0 01-.187-.187v-.214c0-.103.084-.187.187-.187h.215zm-2.408 0c.103 0 .187.084.187.187v.214a.187.187 0 01-.187.187h-.214a.187.187 0 01-.187-.187v-.214c0-.103.083-.187.187-.187h.214zm.802 0c.104 0 .188.084.188.187v.214a.187.187 0 01-.188.187h-.214a.187.187 0 01-.187-.187v-.214c0-.103.084-.187.187-.187h.214zm-2.407 0c.103 0 .187.084.187.187v.214a.187.187 0 01-.187.187h-.214a.187.187 0 01-.187-.187v-.214c0-.103.083-.187.187-.187h.214zm.803 0c.103 0 .187.084.187.187v.214a.187.187 0 01-.187.187h-.215a.187.187 0 01-.187-.187v-.214c0-.103.084-.187.187-.187h.215zm2.407 0c.103 0 .187.084.187.187v.214a.187.187 0 01-.187.187h-.214a.187.187 0 01-.187-.187v-.214c0-.103.083-.187.187-.187h.214zm2.408 0c.103 0 .187.084.187.187v.214a.187.187 0 01-.187.187h-.215a.187.187 0 01-.187-.187v-.214c0-.103.084-.187.187-.187h.215zm.802 0c.103 0 .187.084.187.187v.214a.187.187 0 01-.187.187h-.214a.187.187 0 01-.187-.187v-.214c0-.103.084-.187.187-.187h.214zm-1.605 0c.104 0 .187.084.187.187v.214a.187.187 0 01-.187.187h-.214a.187.187 0 01-.187-.187v-.214c0-.103.084-.187.187-.187h.214zm.803-.803c.103 0 .187.084.187.187v.215a.187.187 0 01-.187.187h-.215a.187.187 0 01-.187-.187V28.3c0-.103.084-.187.187-.187h.215zm-.803 0c.104 0 .187.084.187.187v.215a.187.187 0 01-.187.187h-.214a.187.187 0 01-.187-.187V28.3c0-.103.084-.187.187-.187h.214zm-.802 0c.103 0 .187.084.187.187v.215a.187.187 0 01-.187.187h-.215a.187.187 0 01-.187-.187V28.3c0-.103.084-.187.187-.187h.215zm-2.408 0c.103 0 .187.084.187.187v.215a.187.187 0 01-.187.187h-.214a.187.187 0 01-.187-.187V28.3c0-.103.083-.187.187-.187h.214zm.802 0c.104 0 .188.084.188.187v.215a.187.187 0 01-.188.187h-.214a.187.187 0 01-.187-.187V28.3c0-.103.084-.187.187-.187h.214zm-1.604 0c.103 0 .187.084.187.187v.215a.187.187 0 01-.187.187h-.215a.187.187 0 01-.187-.187V28.3c0-.103.084-.187.187-.187h.215zm-.803 0c.103 0 .187.084.187.187v.215a.187.187 0 01-.187.187h-.214a.187.187 0 01-.187-.187V28.3c0-.103.083-.187.187-.187h.214zm3.21 0c.103 0 .187.084.187.187v.215a.187.187 0 01-.187.187h-.214a.187.187 0 01-.187-.187V28.3c0-.103.083-.187.187-.187h.214zm.803-.802c.103 0 .187.083.187.187v.214a.187.187 0 01-.187.187h-.215a.187.187 0 01-.187-.187v-.214c0-.104.084-.187.187-.187h.215zm-3.21 0c.103 0 .187.083.187.187v.214a.187.187 0 01-.188.187h-.214a.187.187 0 01-.187-.187v-.214c0-.104.084-.187.187-.187h.214zm2.407 0c.103 0 .187.083.187.187v.214a.187.187 0 01-.187.187h-.214a.187.187 0 01-.187-.187v-.214c0-.104.083-.187.187-.187h.214zm-.803 0c.104 0 .188.083.188.187v.214a.187.187 0 01-.188.187h-.214a.187.187 0 01-.187-.187v-.214c0-.104.084-.187.187-.187h.214zm2.408 0c.104 0 .187.083.187.187v.214a.187.187 0 01-.187.187h-.214a.187.187 0 01-.187-.187v-.214c0-.104.084-.187.187-.187h.214zm-3.21 0c.103 0 .187.083.187.187v.214a.187.187 0 01-.187.187h-.214a.187.187 0 01-.187-.187v-.214c0-.104.083-.187.187-.187h.214zm4.013 0c.103 0 .187.083.187.187v.214a.187.187 0 01-.187.187h-.215a.187.187 0 01-.187-.187v-.214c0-.104.084-.187.187-.187h.215zm-5.618 0c.103 0 .187.083.187.187v.214a.187.187 0 01-.187.187h-.214a.187.187 0 01-.187-.187v-.214c0-.104.083-.187.187-.187h.214zm1.605-.803c.103 0 .187.084.187.187v.215a.187.187 0 01-.187.187h-.214a.187.187 0 01-.187-.187v-.215c0-.103.083-.187.187-.187h.214zm-1.605 0c.103 0 .187.084.187.187v.215a.187.187 0 01-.187.187h-.214a.187.187 0 01-.187-.187v-.215c0-.103.083-.187.187-.187h.214zm3.21 0c.103 0 .187.084.187.187v.215a.187.187 0 01-.187.187h-.214a.187.187 0 01-.187-.187v-.215c0-.103.083-.187.187-.187h.214zm-.803 0c.104 0 .188.084.188.187v.215a.187.187 0 01-.188.187h-.214a.187.187 0 01-.187-.187v-.215c0-.103.084-.187.187-.187h.214zm2.408 0c.104 0 .187.084.187.187v.215a.187.187 0 01-.187.187h-.214a.187.187 0 01-.187-.187v-.215c0-.103.084-.187.187-.187h.214zm-.802 0c.103 0 .187.084.187.187v.215a.187.187 0 01-.187.187h-.215a.187.187 0 01-.187-.187v-.215c0-.103.084-.187.187-.187h.215zm-3.21 0c.103 0 .187.084.187.187v.215a.187.187 0 01-.188.187h-.214a.187.187 0 01-.187-.187v-.215c0-.103.084-.187.187-.187h.214zm3.21-.802c.103 0 .187.084.187.187v.214a.187.187 0 01-.187.187h-.215a.187.187 0 01-.187-.187v-.214c0-.103.084-.187.187-.187h.215zm-.803 0c.103 0 .187.084.187.187v.214a.187.187 0 01-.187.187h-.214a.187.187 0 01-.187-.187v-.214c0-.103.083-.187.187-.187h.214zm-7.223 0c.104 0 .187.084.187.187v.214a.187.187 0 01-.187.187h-.214a.187.187 0 01-.187-.187v-.214c0-.103.084-.187.187-.187h.214zm.803 0c.103 0 .187.084.187.187v.214a.187.187 0 01-.187.187h-.214a.187.187 0 01-.187-.187v-.214c0-.103.083-.187.187-.187h.214zm8.025 0c.104 0 .187.084.187.187v.214a.187.187 0 01-.187.187h-.214a.187.187 0 01-.187-.187v-.214c0-.103.084-.187.187-.187h.214zm-4.013 0c.104 0 .188.084.188.187v.214a.187.187 0 01-.188.187h-.214a.187.187 0 01-.187-.187v-.214c0-.103.084-.187.187-.187h.214zm.803 0c.103 0 .187.084.187.187v.214a.187.187 0 01-.187.187h-.214a.187.187 0 01-.187-.187v-.214c0-.103.083-.187.187-.187h.214zm-1.605 0c.103 0 .187.084.187.187v.214a.187.187 0 01-.187.187h-.214a.187.187 0 01-.187-.187v-.214c0-.103.083-.187.187-.187h.214zm2.407 0c.104 0 .188.084.188.187v.214a.187.187 0 01-.188.187h-.214a.187.187 0 01-.187-.187v-.214c0-.103.084-.187.187-.187h.214zm-.802-.803c.103 0 .187.084.187.187v.214a.187.187 0 01-.187.188h-.214a.187.187 0 01-.187-.188v-.214c0-.103.083-.187.187-.187h.214zm-.803 0c.104 0 .188.084.188.187v.214a.187.187 0 01-.188.188h-.214a.187.187 0 01-.187-.188v-.214c0-.103.084-.187.187-.187h.214zm-3.21 0c.104 0 .187.084.187.187v.214a.187.187 0 01-.187.188h-.214a.187.187 0 01-.187-.188v-.214c0-.103.084-.187.187-.187h.214zm.803 0c.103 0 .187.084.187.187v.214a.187.187 0 01-.187.188h-.214a.187.187 0 01-.188-.188v-.214c0-.103.084-.187.188-.187h.214zm1.605 0c.103 0 .187.084.187.187v.214a.187.187 0 01-.187.188h-.214a.187.187 0 01-.187-.188v-.214c0-.103.083-.187.187-.187h.214zm2.407 0c.104 0 .188.084.188.187v.214a.187.187 0 01-.188.188h-.214a.187.187 0 01-.187-.188v-.214c0-.103.084-.187.187-.187h.214zm2.408 0c.104 0 .187.084.187.187v.214a.187.187 0 01-.187.188h-.214a.187.187 0 01-.187-.188v-.214c0-.103.084-.187.187-.187h.214zm-5.618 0c.104 0 .187.084.187.187v.214a.187.187 0 01-.187.188h-.214a.187.187 0 01-.187-.188v-.214c0-.103.084-.187.187-.187h.214zm4.816 0c.103 0 .187.084.187.187v.214a.187.187 0 01-.187.188h-.215a.187.187 0 01-.187-.188v-.214c0-.103.084-.187.187-.187h.215zm-.803 0c.103 0 .187.084.187.187v.214a.187.187 0 01-.187.188h-.214a.187.187 0 01-.187-.188v-.214c0-.103.083-.187.187-.187h.214zm-8.025 0c.103 0 .187.084.187.187v.214a.187.187 0 01-.187.188h-.215a.187.187 0 01-.187-.188v-.214c0-.103.084-.187.187-.187h.215zm.802 0c.104 0 .187.084.187.187v.214a.187.187 0 01-.187.188h-.214a.187.187 0 01-.187-.188v-.214c0-.103.084-.187.187-.187h.214zm.803 0c.103 0 .187.084.187.187v.214a.187.187 0 01-.187.188h-.214a.187.187 0 01-.187-.188v-.214c0-.103.083-.187.187-.187h.214zm7.223-.803c.103 0 .187.084.187.188v.214a.187.187 0 01-.187.187h-.215a.187.187 0 01-.187-.187v-.214c0-.104.084-.188.187-.188h.215zm-4.013 0c.103 0 .187.084.187.188v.214a.187.187 0 01-.187.187h-.214a.187.187 0 01-.187-.187v-.214c0-.104.083-.188.187-.188h.214zm.803 0c.103 0 .187.084.187.188v.214a.187.187 0 01-.187.187h-.215a.187.187 0 01-.187-.187v-.214c0-.104.084-.188.187-.188h.215zm.802 0c.103 0 .187.084.187.188v.214a.187.187 0 01-.187.187h-.214a.187.187 0 01-.187-.187v-.214c0-.104.083-.188.187-.188h.214zm1.605 0c.103 0 .187.084.187.188v.214a.187.187 0 01-.187.187h-.214a.187.187 0 01-.187-.187v-.214c0-.104.083-.188.187-.188h.214zm-4.815 0c.103 0 .187.084.187.188v.214a.187.187 0 01-.187.187h-.214a.187.187 0 01-.188-.187v-.214c0-.104.084-.188.188-.188h.214zm-1.605 0c.103 0 .187.084.187.188v.214a.187.187 0 01-.187.187h-.214a.187.187 0 01-.187-.187v-.214c0-.104.083-.188.187-.188h.214zm-.803 0c.104 0 .187.084.187.188v.214a.187.187 0 01-.187.187h-.214a.187.187 0 01-.187-.187v-.214c0-.104.084-.188.187-.188h.214zm3.21 0c.104 0 .187.084.187.188v.214a.187.187 0 01-.187.187h-.214a.187.187 0 01-.187-.187v-.214c0-.104.084-.188.187-.188h.214zm-1.605 0c.104 0 .187.084.187.188v.214a.187.187 0 01-.187.187h-.214a.187.187 0 01-.187-.187v-.214c0-.104.084-.188.187-.188h.214zm4.815 0c.104 0 .188.084.188.188v.214a.187.187 0 01-.188.187h-.214a.187.187 0 01-.187-.187v-.214c0-.104.084-.188.187-.188h.214zm-4.012-.802c.103 0 .187.084.187.187v.215a.187.187 0 01-.187.187h-.214a.187.187 0 01-.188-.187v-.215c0-.103.084-.187.188-.187h.214zm.802 0c.104 0 .187.084.187.187v.215a.187.187 0 01-.187.187h-.214a.187.187 0 01-.187-.187v-.215c0-.103.084-.187.187-.187h.214zm.803 0c.103 0 .187.084.187.187v.215a.187.187 0 01-.187.187h-.214a.187.187 0 01-.187-.187v-.215c0-.103.083-.187.187-.187h.214zm2.407 0c.104 0 .188.084.188.187v.215a.187.187 0 01-.188.187h-.214a.187.187 0 01-.187-.187v-.215c0-.103.084-.187.187-.187h.214zm-1.605 0c.104 0 .188.084.188.187v.215a.187.187 0 01-.188.187h-.214a.187.187 0 01-.187-.187v-.215c0-.103.084-.187.187-.187h.214zm2.408 0c.103 0 .187.084.187.187v.215a.187.187 0 01-.187.187h-.214a.187.187 0 01-.187-.187v-.215c0-.103.083-.187.187-.187h.214zm-1.605 0c.103 0 .187.084.187.187v.215a.187.187 0 01-.187.187h-.214a.187.187 0 01-.187-.187v-.215c0-.103.083-.187.187-.187h.214zm-4.013 0c.104 0 .187.084.187.187v.215a.187.187 0 01-.187.187h-.214a.187.187 0 01-.187-.187v-.215c0-.103.084-.187.187-.187h.214zm-.802 0c.103 0 .187.084.187.187v.215a.187.187 0 01-.187.187h-.214a.187.187 0 01-.187-.187v-.215c0-.103.083-.187.187-.187h.214zm1.605-.802c.103 0 .187.083.187.187v.214a.187.187 0 01-.187.187h-.214a.187.187 0 01-.188-.187v-.214c0-.104.084-.187.188-.187h.214zm-.803 0c.104 0 .187.083.187.187v.214a.187.187 0 01-.187.187h-.214a.187.187 0 01-.187-.187v-.214c0-.104.084-.187.187-.187h.214zm1.605 0c.104 0 .187.083.187.187v.214a.187.187 0 01-.187.187h-.214a.187.187 0 01-.187-.187v-.214c0-.104.084-.187.187-.187h.214zm1.605 0c.104 0 .188.083.188.187v.214a.187.187 0 01-.188.187h-.214a.187.187 0 01-.187-.187v-.214c0-.104.084-.187.187-.187h.214zm-.802 0c.103 0 .187.083.187.187v.214a.187.187 0 01-.187.187h-.214a.187.187 0 01-.187-.187v-.214c0-.104.083-.187.187-.187h.214zm1.605 0c.103 0 .187.083.187.187v.214a.187.187 0 01-.187.187h-.214a.187.187 0 01-.187-.187v-.214c0-.104.083-.187.187-.187h.214zm.802 0c.104 0 .188.083.188.187v.214a.187.187 0 01-.188.187h-.214a.187.187 0 01-.187-.187v-.214c0-.104.084-.187.187-.187h.214zm-3.21-.803c.104 0 .187.084.187.187v.214a.187.187 0 01-.187.188h-.214a.187.187 0 01-.187-.188v-.214c0-.103.084-.187.187-.187h.214zm-.802 0c.103 0 .187.084.187.187v.214a.187.187 0 01-.187.188h-.214a.187.187 0 01-.188-.188v-.214c0-.103.084-.187.188-.187h.214zm1.605 0c.103 0 .187.084.187.187v.214a.187.187 0 01-.187.188h-.214a.187.187 0 01-.187-.188v-.214c0-.103.083-.187.187-.187h.214zm1.605 0c.103 0 .187.084.187.187v.214a.187.187 0 01-.187.188h-.214a.187.187 0 01-.187-.188v-.214c0-.103.083-.187.187-.187h.214zm-.802 0c.103 0 .187.084.187.187v.214a.187.187 0 01-.187.188h-.215a.187.187 0 01-.187-.188v-.214c0-.103.084-.187.187-.187h.215zm-2.408-.803c.103 0 .187.084.187.188v.214a.187.187 0 01-.187.187h-.214a.187.187 0 01-.188-.187v-.214c0-.104.084-.188.188-.188h.214zm.802 0c.104 0 .187.084.187.188v.214a.187.187 0 01-.187.187h-.214a.187.187 0 01-.187-.187v-.214c0-.104.084-.188.187-.188h.214z"/></g></svg>