<svg id="Layer_1" data-name="Layer 1" xmlns="http://www.w3.org/2000/svg" viewBox="0 0 46.5 25.97"><defs><style>.cls-2{fill:#fff}</style></defs><path d="M24.66 12a9.43 9.43 0 00-10.53-1.12 9.44 9.44 0 00-5.54 9.51 7.28 7.28 0 00-7.23 7.91 6.84 6.84 0 006 6.22h20.4c4.13-.54 5.58-2.33 6.26-5.15" transform="translate(-.82 -9.22)" fill="none" stroke="#fff" stroke-linecap="round" stroke-linejoin="round"/><path class="cls-2" d="M25 24.42h.19a.21.21 0 01.2.19v.2a.21.21 0 01-.2.19H25a.21.21 0 01-.2-.19v-.2a.18.18 0 01.2-.19zm.72 0h.2a.2.2 0 01.19.19v.2a.2.2 0 01-.19.19h-.2a.2.2 0 01-.19-.19v-.2a.18.18 0 01.19-.19zm2.38-11.79h.2a.21.21 0 01.19.19V13a.21.21 0 01-.19.19h-.2a.21.21 0 01-.19-.19v-.2a.21.21 0 01.19-.19zm-.77 0h.19a.2.2 0 01.19.19V13a.2.2 0 01-.19.19h-.19a.21.21 0 01-.2-.19v-.2a.21.21 0 01.2-.19zm1.55 0h.19a.21.21 0 01.2.19V13a.21.21 0 01-.2.19h-.19a.21.21 0 01-.2-.19v-.2a.21.21 0 01.2-.19zm1.55 0h.2a.21.21 0 01.19.19V13a.21.21 0 01-.19.19h-.2a.2.2 0 01-.19-.19v-.2c.05-.09.09-.19.19-.19zm-.77 0h.19a.2.2 0 01.19.19V13a.2.2 0 01-.19.19h-.19a.21.21 0 01-.2-.19v-.2a.21.21 0 01.2-.19zm-2.33.77h.19a.21.21 0 01.19.2v.19a.21.21 0 01-.19.2h-.19a.22.22 0 01-.2-.2v-.19a.22.22 0 01.2-.2zm-.83 0h.2a.21.21 0 01.19.2v.19a.21.21 0 01-.19.2h-.2a.21.21 0 01-.19-.2v-.19c.05-.1.09-.2.19-.2zm1.6 0h.2a.21.21 0 01.19.2v.19a.21.21 0 01-.19.2h-.2a.21.21 0 01-.19-.2v-.19a.21.21 0 01.19-.2zm1.56 0h.19a.21.21 0 01.19.2v.19a.21.21 0 01-.19.2h-.19a.22.22 0 01-.2-.2v-.19a.22.22 0 01.2-.2zm-.78 0h.19a.22.22 0 01.2.2v.19a.22.22 0 01-.2.2h-.19a.22.22 0 01-.2-.2v-.19a.22.22 0 01.2-.2zm1.55 0h.2a.21.21 0 01.19.2v.19a.21.21 0 01-.19.2h-.2a.21.21 0 01-.19-.2v-.19c.05-.1.09-.2.19-.2zm.78 0h.24a.22.22 0 01.2.2v.19a.22.22 0 01-.2.2h-.19a.22.22 0 01-.2-.2v-.19c0-.1.05-.2.15-.2zm-4.71.78h.2a.21.21 0 01.19.2v.19a.2.2 0 01-.19.19h-.2a.2.2 0 01-.19-.19v-.19c.05-.1.09-.2.19-.2zm-.78 0h.2a.21.21 0 01.19.2v.19a.2.2 0 01-.19.19h-.2a.2.2 0 01-.19-.19v-.19a.21.21 0 01.19-.2zm1.61 0h.19a.21.21 0 01.19.2v.19a.2.2 0 01-.19.19h-.19a.21.21 0 01-.2-.19v-.19a.22.22 0 01.2-.2zm1.55 0h.19a.22.22 0 01.2.2v.19a.21.21 0 01-.2.19h-.19a.21.21 0 01-.2-.19v-.19a.22.22 0 01.2-.2zm-.78 0h.2a.21.21 0 01.19.2v.19a.2.2 0 01-.19.19h-.2a.2.2 0 01-.19-.19v-.19a.21.21 0 01.19-.2zm1.56 0h.19a.21.21 0 01.19.2v.19a.2.2 0 01-.19.19h-.19a.21.21 0 01-.2-.19v-.19a.22.22 0 01.2-.2zm.77 0h.2a.21.21 0 01.19.2v.19a.2.2 0 01-.19.19h-.2a.2.2 0 01-.19-.19v-.19c.05-.1.09-.2.19-.2zm1.57 0h.2a.21.21 0 01.19.2v.19a.2.2 0 01-.19.19H32a.2.2 0 01-.19-.19v-.19a.21.21 0 01.19-.2zm-.79 0h.24a.22.22 0 01.2.2v.19a.21.21 0 01-.2.19h-.19a.21.21 0 01-.2-.19v-.19c0-.1.05-.2.15-.2zm-5.49.82h.2a.2.2 0 01.19.19v.2a.2.2 0 01-.19.19h-.2a.21.21 0 01-.19-.19v-.2a.2.2 0 01.19-.19zM25 15h.19a.21.21 0 01.2.19v.2a.21.21 0 01-.2.19H25a.21.21 0 01-.2-.19v-.2A.21.21 0 0125 15zm1.5 0h.2a.2.2 0 01.19.19v.2a.21.21 0 01-.19.19h-.2a.2.2 0 01-.19-.19v-.2c.05-.1.09-.19.19-.19zm1.6 0h.2a.2.2 0 01.19.19v.2a.21.21 0 01-.19.19h-.2a.21.21 0 01-.19-.19v-.2a.2.2 0 01.19-.19zm-.77 0h.19a.2.2 0 01.19.19v.2a.2.2 0 01-.19.19h-.19a.21.21 0 01-.2-.19v-.2a.21.21 0 01.2-.19zm1.55 0h.19a.21.21 0 01.2.19v.2a.21.21 0 01-.2.19h-.19a.21.21 0 01-.2-.19v-.2a.21.21 0 01.2-.19zm.78 0h.19a.2.2 0 01.19.19v.2a.2.2 0 01-.19.19h-.19a.21.21 0 01-.2-.19v-.2a.21.21 0 01.2-.19zm1.55 0h.24a.21.21 0 01.2.19v.2a.21.21 0 01-.2.19h-.19a.21.21 0 01-.2-.19v-.2c0-.1.05-.19.15-.19zm-.78 0h.2a.2.2 0 01.19.19v.2a.21.21 0 01-.19.19h-.2a.2.2 0 01-.19-.19v-.2c.05-.1.09-.19.19-.19zM32 15h.2a.2.2 0 01.19.19v.2a.21.21 0 01-.19.19H32a.21.21 0 01-.19-.19v-.2A.2.2 0 0132 15zm.81 0H33a.21.21 0 01.2.19v.2a.21.21 0 01-.2.19h-.19a.2.2 0 01-.19-.19v-.2a.2.2 0 01.19-.19zm-7.81.78h.19a.22.22 0 01.2.2v.19a.21.21 0 01-.2.19H25a.21.21 0 01-.2-.19V16a.18.18 0 01.2-.2zm-.83 0h.2a.21.21 0 01.19.2v.19a.2.2 0 01-.19.19h-.2a.2.2 0 01-.19-.19V16a.18.18 0 01.19-.2zm1.55 0h.2a.21.21 0 01.19.2v.19a.2.2 0 01-.19.19h-.2a.2.2 0 01-.19-.19V16a.18.18 0 01.19-.2zm1.61 0h.19a.21.21 0 01.19.2v.19a.2.2 0 01-.19.19h-.19a.21.21 0 01-.2-.19V16a.18.18 0 01.2-.2zm-.83 0h.2a.21.21 0 01.19.2v.19a.2.2 0 01-.19.19h-.2a.2.2 0 01-.19-.19V16c.05-.15.09-.2.19-.2zm1.6 0h.2a.21.21 0 01.19.2v.19a.2.2 0 01-.19.19h-.2a.2.2 0 01-.19-.19V16a.18.18 0 01.19-.2zm.78 0h.19a.22.22 0 01.2.2v.19a.21.21 0 01-.2.19h-.19a.21.21 0 01-.2-.19V16a.18.18 0 01.2-.2zm1.55 0h.2a.21.21 0 01.19.2v.19a.2.2 0 01-.19.19h-.2a.2.2 0 01-.19-.19V16c.05-.15.09-.2.19-.2zm-.77 0h.19A.21.21 0 0130 16v.19a.2.2 0 01-.19.19h-.19a.21.21 0 01-.2-.19V16a.18.18 0 01.2-.2zm1.55 0h.24a.22.22 0 01.2.2v.19a.21.21 0 01-.2.19h-.19a.21.21 0 01-.2-.19V16c0-.15.05-.2.15-.2zm.79 0h.2a.21.21 0 01.19.2v.19a.2.2 0 01-.19.19H32a.2.2 0 01-.19-.19V16a.18.18 0 01.19-.2zm.81 0H33a.22.22 0 01.2.2v.19a.21.21 0 01-.2.19h-.19a.2.2 0 01-.19-.19V16a.18.18 0 01.19-.2zm.78 0h.19A.21.21 0 0134 16v.19a.2.2 0 01-.19.19h-.19a.21.21 0 01-.2-.19V16a.18.18 0 01.2-.2zm-8.59.78h.19a.21.21 0 01.2.19V17a.21.21 0 01-.2.19H25a.21.21 0 01-.2-.19v-.2a.21.21 0 01.2-.19zm.72 0h.2a.2.2 0 01.19.19V17a.2.2 0 01-.19.19h-.2a.21.21 0 01-.19-.19v-.2a.21.21 0 01.19-.19zm3.16 0h.19a.21.21 0 01.2.19V17a.21.21 0 01-.2.19h-.19a.21.21 0 01-.2-.19v-.2a.21.21 0 01.2-.19zm.78 0h.19a.2.2 0 01.19.19V17a.2.2 0 01-.19.19h-.19a.21.21 0 01-.2-.19v-.2a.21.21 0 01.2-.19zm.77 0h.2a.21.21 0 01.19.19V17a.21.21 0 01-.19.19h-.2a.2.2 0 01-.19-.19v-.2c.05-.09.09-.19.19-.19zm.78 0h.24a.21.21 0 01.2.19V17a.21.21 0 01-.2.19h-.19a.21.21 0 01-.2-.19v-.2c0-.09.05-.19.15-.19zm.79 0h.2a.21.21 0 01.19.19V17a.21.21 0 01-.19.19H32a.21.21 0 01-.19-.19v-.2a.21.21 0 01.19-.19zm.81 0H33a.21.21 0 01.2.19V17a.21.21 0 01-.2.19h-.19a.2.2 0 01-.19-.19v-.2a.2.2 0 01.19-.19zm.78 0h.19a.2.2 0 01.19.19V17a.2.2 0 01-.19.19h-.19a.21.21 0 01-.2-.19v-.2a.21.21 0 01.2-.19zm-4.71.78h.19a.21.21 0 01.2.19v.19a.22.22 0 01-.2.2h-.19a.22.22 0 01-.2-.2v-.19a.21.21 0 01.2-.19zm.78 0h.19a.2.2 0 01.19.19v.19a.21.21 0 01-.19.2h-.19a.22.22 0 01-.2-.2v-.19a.21.21 0 01.2-.19zm.77 0h.2a.2.2 0 01.19.19v.19a.21.21 0 01-.19.2h-.2a.21.21 0 01-.19-.2v-.19c.05-.1.09-.19.19-.19zm.78 0h.24a.21.21 0 01.2.19v.19a.22.22 0 01-.2.2h-.19a.22.22 0 01-.2-.2v-.19c0-.1.05-.19.15-.19zm.79 0h.2a.2.2 0 01.19.19v.19a.21.21 0 01-.19.2H32a.21.21 0 01-.19-.2v-.19a.2.2 0 01.19-.19zm.81 0H33a.21.21 0 01.2.19v.19a.22.22 0 01-.2.2h-.19a.21.21 0 01-.19-.2v-.19a.2.2 0 01.19-.19zm.78 0h.19a.2.2 0 01.19.19v.19a.21.21 0 01-.19.2h-.19a.22.22 0 01-.2-.2v-.19a.21.21 0 01.2-.19zm-4.71.77h.19a.22.22 0 01.2.2v.19a.21.21 0 01-.2.19h-.19a.21.21 0 01-.2-.19v-.19a.22.22 0 01.2-.2zm.78 0h.19a.21.21 0 01.19.2v.19a.2.2 0 01-.19.19h-.19a.21.21 0 01-.2-.19v-.19a.22.22 0 01.2-.2zm.77 0h.2a.21.21 0 01.19.2v.19a.2.2 0 01-.19.19h-.2a.2.2 0 01-.19-.19v-.19c.05-.1.09-.2.19-.2zm.78 0h.24a.22.22 0 01.2.2v.19a.21.21 0 01-.2.19h-.19a.21.21 0 01-.2-.19v-.19c0-.1.05-.2.15-.2zm.79 0h.2a.21.21 0 01.19.2v.19a.2.2 0 01-.19.19H32a.2.2 0 01-.19-.19v-.19a.21.21 0 01.19-.2zm.81 0H33a.22.22 0 01.2.2v.19a.21.21 0 01-.2.19h-.19a.2.2 0 01-.19-.19v-.19a.21.21 0 01.19-.2zm.78 0h.19a.21.21 0 01.19.2v.19a.2.2 0 01-.19.19h-.19a.21.21 0 01-.2-.19v-.19a.22.22 0 01.2-.2zm1.55 2.38h.19a.21.21 0 01.2.19v.2a.21.21 0 01-.2.19h-.19a.21.21 0 01-.2-.19v-.2c.05-.14.1-.19.2-.19zm-6.26-1.6h.19a.21.21 0 01.2.19v.2a.21.21 0 01-.2.19h-.19a.21.21 0 01-.2-.19v-.2a.21.21 0 01.2-.19zm.78 0h.19a.2.2 0 01.19.19v.2a.2.2 0 01-.19.19h-.19a.21.21 0 01-.2-.19v-.2a.21.21 0 01.2-.19zm.77 0h.2a.21.21 0 01.19.19v.2a.21.21 0 01-.19.19h-.2a.2.2 0 01-.19-.19v-.2c.05-.09.09-.19.19-.19zm.78 0h.24a.21.21 0 01.2.19v.2a.21.21 0 01-.2.19h-.19a.21.21 0 01-.2-.19v-.2c0-.09.05-.19.15-.19zm.79 0h.2a.21.21 0 01.19.19v.2a.21.21 0 01-.19.19H32a.21.21 0 01-.19-.19v-.2a.21.21 0 01.19-.19zm.81 0H33a.21.21 0 01.2.19v.2a.21.21 0 01-.2.19h-.19a.2.2 0 01-.19-.19v-.2a.2.2 0 01.19-.19zm-5.48-7.04h.19a.21.21 0 01.19.2v.19a.2.2 0 01-.19.19h-.19a.21.21 0 01-.2-.19v-.19a.18.18 0 01.2-.2zm.77 0h.2a.21.21 0 01.19.2v.19a.2.2 0 01-.19.19h-.2a.2.2 0 01-.19-.19v-.19a.18.18 0 01.19-.2zm5.49 7.04h.19a.2.2 0 01.19.19v.2a.2.2 0 01-.19.19h-.19a.21.21 0 01-.2-.19v-.2a.21.21 0 01.2-.19zm.77 0h.2a.21.21 0 01.19.19v.2a.21.21 0 01-.19.19h-.2a.21.21 0 01-.19-.19v-.2a.21.21 0 01.19-.19zm-5.48.82h.19a.22.22 0 01.2.2v.19a.22.22 0 01-.2.2h-.19a.22.22 0 01-.2-.2v-.19a.18.18 0 01.2-.2zm.78 0h.19a.21.21 0 01.19.2v.19a.21.21 0 01-.19.2h-.19a.22.22 0 01-.2-.2v-.19a.18.18 0 01.2-.2zm.77 0h.2a.21.21 0 01.19.2v.19a.21.21 0 01-.19.2h-.2a.21.21 0 01-.19-.2v-.19c.05-.15.09-.2.19-.2zm.78 0h.24a.22.22 0 01.2.2v.19a.22.22 0 01-.2.2h-.19a.22.22 0 01-.2-.2v-.19c0-.15.05-.2.15-.2zm.79 0h.2a.21.21 0 01.19.2v.19a.21.21 0 01-.19.2H32a.21.21 0 01-.19-.2v-.19a.18.18 0 01.19-.2zm.81 0H33a.22.22 0 01.2.2v.19a.22.22 0 01-.2.2h-.19a.21.21 0 01-.19-.2v-.19a.18.18 0 01.19-.2zm.78 0h.19a.21.21 0 01.19.2v.19a.21.21 0 01-.19.2h-.19a.22.22 0 01-.2-.2v-.19a.18.18 0 01.2-.2zm.77 0h.2a.21.21 0 01.19.2v.19a.21.21 0 01-.19.2h-.2a.21.21 0 01-.19-.2v-.19a.18.18 0 01.19-.2zm-6.26.78h.2a.21.21 0 01.19.19v.2a.21.21 0 01-.19.19h-.2a.21.21 0 01-.19-.19v-.2a.18.18 0 01.19-.19zm.78 0h.19a.21.21 0 01.2.19v.2a.21.21 0 01-.2.19h-.19a.21.21 0 01-.2-.19v-.2a.18.18 0 01.2-.19zm.78 0h.19a.2.2 0 01.19.19v.2a.2.2 0 01-.19.19h-.19a.21.21 0 01-.2-.19v-.2a.18.18 0 01.2-.19zm.77 0h.2a.21.21 0 01.19.19v.2a.21.21 0 01-.19.19h-.2a.2.2 0 01-.19-.19v-.2c.05-.14.09-.19.19-.19zm.78 0h.24a.21.21 0 01.2.19v.2a.21.21 0 01-.2.19h-.19a.21.21 0 01-.2-.19v-.2c0-.14.05-.19.15-.19zm.79 0h.2a.21.21 0 01.19.19v.2a.21.21 0 01-.19.19H32a.21.21 0 01-.19-.19v-.2a.18.18 0 01.19-.19zm.81 0H33a.21.21 0 01.2.19v.2a.21.21 0 01-.2.19h-.19a.2.2 0 01-.19-.19v-.2a.17.17 0 01.19-.19zm.78 0h.19a.2.2 0 01.19.19v.2a.2.2 0 01-.19.19h-.19a.21.21 0 01-.2-.19v-.2a.18.18 0 01.2-.19zm.77 0h.2a.21.21 0 01.19.19v.2a.21.21 0 01-.19.19h-.2a.21.21 0 01-.19-.19v-.2a.18.18 0 01.19-.19zm-6.26.78h.2a.2.2 0 01.19.19v.19a.21.21 0 01-.19.2h-.2a.21.21 0 01-.19-.2v-.19a.2.2 0 01.19-.19zm.78 0h.19a.21.21 0 01.2.19v.19a.22.22 0 01-.2.2h-.19a.22.22 0 01-.2-.2v-.19a.21.21 0 01.2-.19zm.78 0h.19a.2.2 0 01.19.19v.19a.21.21 0 01-.19.2h-.19a.22.22 0 01-.2-.2v-.19a.21.21 0 01.2-.19zm.77 0h.2a.2.2 0 01.19.19v.19a.21.21 0 01-.19.2h-.2a.21.21 0 01-.19-.2v-.19c.05-.1.09-.19.19-.19zm.78 0h.24a.21.21 0 01.2.19v.19a.22.22 0 01-.2.2h-.19a.22.22 0 01-.2-.2v-.19c0-.1.05-.19.15-.19zm.79 0h.2a.2.2 0 01.19.19v.19a.21.21 0 01-.19.2H32a.21.21 0 01-.19-.2v-.19a.2.2 0 01.19-.19zm.81 0H33a.21.21 0 01.2.19v.19a.22.22 0 01-.2.2h-.19a.21.21 0 01-.19-.2v-.19a.2.2 0 01.19-.19zm.78 0h.19a.2.2 0 01.19.19v.19a.21.21 0 01-.19.2h-.19a.22.22 0 01-.2-.2v-.19a.21.21 0 01.2-.19zm.77 0h.2a.2.2 0 01.19.19v.19a.21.21 0 01-.19.2h-.2a.21.21 0 01-.19-.2v-.19a.2.2 0 01.19-.19zm3.16 0h.19a.21.21 0 01.2.19v.19a.22.22 0 01-.2.2h-.19a.22.22 0 01-.2-.2v-.19a.21.21 0 01.2-.19zm-2.38 0h.19a.21.21 0 01.2.19v.19a.22.22 0 01-.2.2h-.19a.22.22 0 01-.2-.2v-.19c.05-.1.1-.19.2-.19zm.86 0h.2a.2.2 0 01.19.19v.19a.21.21 0 01-.19.2H36a.21.21 0 01-.19-.2v-.19a.17.17 0 01.19-.19zm.74 0h.19a.21.21 0 01.2.19v.19a.22.22 0 01-.2.2h-.19a.21.21 0 01-.19-.2v-.19a.2.2 0 01.19-.19zM28.1 22h.2a.21.21 0 01.19.2v.19a.2.2 0 01-.19.19h-.2a.2.2 0 01-.19-.19v-.19a.21.21 0 01.19-.2zm.78 0h.19a.22.22 0 01.2.2v.19a.21.21 0 01-.2.19h-.19a.21.21 0 01-.2-.19v-.19a.22.22 0 01.2-.2zm.78 0h.19a.21.21 0 01.19.2v.19a.2.2 0 01-.19.19h-.19a.21.21 0 01-.2-.19v-.19a.22.22 0 01.2-.2zm.77 0h.2a.21.21 0 01.19.2v.19a.2.2 0 01-.19.19h-.2a.2.2 0 01-.19-.19v-.19c.05-.1.09-.2.19-.2zm.78 0h.24a.22.22 0 01.2.2v.19a.21.21 0 01-.2.19h-.19a.21.21 0 01-.2-.19v-.19c0-.1.05-.2.15-.2zm.79 0h.2a.21.21 0 01.19.2v.19a.2.2 0 01-.19.19H32a.2.2 0 01-.19-.19v-.19A.21.21 0 0132 22zm.81 0H33a.22.22 0 01.2.2v.19a.21.21 0 01-.2.19h-.19a.2.2 0 01-.19-.19v-.19a.21.21 0 01.19-.2zm.78 0h.19a.21.21 0 01.19.2v.19a.2.2 0 01-.19.19h-.19a.21.21 0 01-.2-.19v-.19a.22.22 0 01.2-.2zm.77 0h.2a.21.21 0 01.19.2v.19a.2.2 0 01-.19.19h-.2a.2.2 0 01-.19-.19v-.19a.21.21 0 01.19-.2zm3.16 0h.19a.22.22 0 01.2.2v.19a.21.21 0 01-.2.19h-.19a.21.21 0 01-.2-.19v-.19a.22.22 0 01.2-.2zm-2.38 0h.19a.22.22 0 01.2.2v.19a.21.21 0 01-.2.19h-.19a.21.21 0 01-.2-.19v-.19c.05-.1.1-.2.2-.2zm.86 0h.2a.21.21 0 01.19.2v.19a.2.2 0 01-.19.19H36a.2.2 0 01-.19-.19v-.19A.18.18 0 0136 22zm.74 0h.19a.22.22 0 01.2.2v.19a.21.21 0 01-.2.19h-.19a.2.2 0 01-.19-.19v-.19a.21.21 0 01.19-.2zm1.55 0h.2a.21.21 0 01.19.2v.19a.2.2 0 01-.19.19h-.2a.2.2 0 01-.19-.19v-.19a.21.21 0 01.19-.2zm.78 0h.19a.22.22 0 01.2.2v.19a.21.21 0 01-.2.19h-.19a.2.2 0 01-.19-.19v-.19c0-.1.09-.2.19-.2zm.78 0H40a.21.21 0 01.19.2v.19a.2.2 0 01-.19.19h-.19a.21.21 0 01-.2-.19v-.19c.05-.1.1-.2.2-.2zm-14.13.82h.2a.2.2 0 01.19.19v.2a.2.2 0 01-.19.19h-.2a.21.21 0 01-.19-.19V23a.21.21 0 01.19-.19zm.78 0h.2a.21.21 0 01.19.19v.2a.21.21 0 01-.19.19h-.2a.2.2 0 01-.19-.19V23c.05-.09.09-.19.19-.19zm.83 0h.19a.2.2 0 01.19.19v.2a.2.2 0 01-.19.19h-.19a.21.21 0 01-.2-.19V23a.21.21 0 01.2-.19zm.77 0h.2a.21.21 0 01.19.19v.2a.21.21 0 01-.19.19h-.2a.21.21 0 01-.19-.19V23a.21.21 0 01.19-.19zm.78 0h.19a.21.21 0 01.2.19v.2a.21.21 0 01-.2.19h-.19a.21.21 0 01-.2-.19V23a.21.21 0 01.2-.19zm.78 0h.19A.2.2 0 0130 23v.2a.2.2 0 01-.19.19h-.19a.21.21 0 01-.2-.19V23a.21.21 0 01.2-.19zm.77 0h.2a.21.21 0 01.19.19v.2a.21.21 0 01-.19.19h-.2a.2.2 0 01-.19-.19V23c.05-.09.09-.19.19-.19zm.78 0h.24a.21.21 0 01.2.19v.2a.21.21 0 01-.2.19h-.19a.21.21 0 01-.2-.19V23c0-.09.05-.19.15-.19zm.79 0h.2a.21.21 0 01.19.19v.2a.21.21 0 01-.19.19H32a.21.21 0 01-.19-.19V23a.21.21 0 01.19-.19zm3.14 0h.19a.21.21 0 01.2.19v.2a.21.21 0 01-.2.19h-.19a.21.21 0 01-.2-.19V23c.05-.09.1-.19.2-.19zm-2.33 0H33a.21.21 0 01.2.19v.2a.21.21 0 01-.2.19h-.19a.2.2 0 01-.19-.19V23a.2.2 0 01.19-.19zm.78 0h.19A.2.2 0 0134 23v.2a.2.2 0 01-.19.19h-.19a.21.21 0 01-.2-.19V23a.21.21 0 01.2-.19zm.77 0h.2a.21.21 0 01.19.19v.2a.21.21 0 01-.19.19h-.2a.21.21 0 01-.19-.19V23a.21.21 0 01.19-.19zm1.64 0h.2a.2.2 0 01.19.19v.2a.2.2 0 01-.19.19H36a.21.21 0 01-.19-.19V23a.18.18 0 01.19-.19zm.74 0h.19a.21.21 0 01.2.19v.2a.21.21 0 01-.2.19h-.19a.2.2 0 01-.19-.19V23a.2.2 0 01.19-.19zm.78 0h.19a.21.21 0 01.2.19v.2a.21.21 0 01-.2.19h-.19a.21.21 0 01-.2-.19V23a.21.21 0 01.2-.19zm2.33 0H40a.2.2 0 01.19.19v.2a.2.2 0 01-.19.19h-.19a.21.21 0 01-.2-.19V23c.05-.09.1-.19.2-.19zm-1.56 0h.2a.21.21 0 01.19.19v.2a.21.21 0 01-.19.19h-.2a.21.21 0 01-.19-.19V23a.21.21 0 01.19-.19zm.78 0h.19a.21.21 0 01.2.19v.2a.21.21 0 01-.2.19h-.19a.2.2 0 01-.19-.19V23c0-.09.09-.19.19-.19zm1.6 0h.2a.21.21 0 01.19.19v.2a.21.21 0 01-.19.19h-.2a.2.2 0 01-.19-.19V23a.2.2 0 01.19-.19zm.78 0h.19a.21.21 0 01.2.19v.2a.21.21 0 01-.2.19h-.19a.21.21 0 01-.2-.19V23a.21.21 0 01.2-.19zm-15.73.78h.2a.2.2 0 01.19.19V24a.21.21 0 01-.19.2h-.2a.21.21 0 01-.19-.2v-.19a.2.2 0 01.19-.19zm.78 2.4h.2a.21.21 0 01.19.2v.19a.21.21 0 01-.19.2h-.2a.21.21 0 01-.19-.2v-.19c.05-.1.09-.2.19-.2zm.83 0h.19a.21.21 0 01.19.2v.19a.21.21 0 01-.19.2h-.19a.22.22 0 01-.2-.2v-.19a.22.22 0 01.2-.2zm.77 1.53h.2a.2.2 0 01.19.19v.19a.21.21 0 01-.19.2h-.2a.21.21 0 01-.19-.2v-.19a.2.2 0 01.19-.19zm.78 0h.19a.21.21 0 01.2.19v.19a.22.22 0 01-.2.2h-.19a.22.22 0 01-.2-.2v-.19a.21.21 0 01.2-.19z" transform="translate(-.82 -9.22)"/><path class="cls-2" d="M25 24.42h.19a.21.21 0 01.2.19v.2a.21.21 0 01-.2.19H25a.21.21 0 01-.2-.19v-.2a.18.18 0 01.2-.19zm.72 0h.2a.2.2 0 01.19.19v.2a.2.2 0 01-.19.19h-.2a.2.2 0 01-.19-.19v-.2a.18.18 0 01.19-.19zm0 .78h.2a.2.2 0 01.19.19v.2a.2.2 0 01-.19.19h-.2a.21.21 0 01-.19-.19v-.2a.18.18 0 01.19-.19zm.78 0h.2a.2.2 0 01.19.19v.2a.21.21 0 01-.19.19h-.2a.2.2 0 01-.19-.19v-.2c.05-.14.09-.19.19-.19zm.83 0h.19a.2.2 0 01.19.19v.2a.2.2 0 01-.19.19h-.19a.21.21 0 01-.2-.19v-.2a.18.18 0 01.2-.19zm-.83 1.55h.2a.21.21 0 01.19.19v.2a.2.2 0 01-.19.19h-.2a.2.2 0 01-.19-.19v-.2c.05-.09.09-.19.19-.19zm.83 0h.19a.2.2 0 01.19.19v.2a.2.2 0 01-.19.19h-.19a.21.21 0 01-.2-.19v-.2a.21.21 0 01.2-.19zm.77 0h.2a.21.21 0 01.19.19v.2a.2.2 0 01-.19.19h-.2a.2.2 0 01-.19-.19v-.2a.21.21 0 01.19-.19zm-.77-2.33h.19a.2.2 0 01.19.19v.2a.2.2 0 01-.19.19h-.19a.21.21 0 01-.2-.19v-.2a.18.18 0 01.2-.19zm.77 0h.2a.21.21 0 01.19.19v.2a.2.2 0 01-.19.19h-.2a.2.2 0 01-.19-.19v-.2a.18.18 0 01.19-.19zm.78 0h.19a.21.21 0 01.2.19v.2a.21.21 0 01-.2.19h-.19a.21.21 0 01-.2-.19v-.2a.18.18 0 01.2-.19zm-1.55-.82h.19a.2.2 0 01.19.19V24a.21.21 0 01-.19.2h-.19a.22.22 0 01-.2-.2v-.19a.21.21 0 01.2-.19zm.77 0h.2a.2.2 0 01.19.19V24a.21.21 0 01-.19.2h-.2a.21.21 0 01-.19-.2v-.19a.2.2 0 01.19-.19zm.78 0h.19a.21.21 0 01.2.19V24a.22.22 0 01-.2.2h-.19a.22.22 0 01-.2-.2v-.19a.21.21 0 01.2-.19zm.78 0h.19a.2.2 0 01.19.19V24a.21.21 0 01-.19.2h-.19a.22.22 0 01-.2-.2v-.19a.21.21 0 01.2-.19zm.77 0h.2a.2.2 0 01.19.19V24a.21.21 0 01-.19.2h-.2a.21.21 0 01-.19-.2v-.19c.05-.1.09-.19.19-.19zm.78 0h.24a.21.21 0 01.2.19V24a.22.22 0 01-.2.2h-.19a.22.22 0 01-.2-.2v-.19c0-.1.05-.19.15-.19zm.79 0h.2a.2.2 0 01.19.19V24a.21.21 0 01-.19.2H32a.21.21 0 01-.19-.2v-.19a.2.2 0 01.19-.21zm.81 0H33a.21.21 0 01.2.19V24a.22.22 0 01-.2.2h-.19a.21.21 0 01-.19-.2v-.19a.2.2 0 01.19-.19zm.78 0h.19a.2.2 0 01.19.19V24a.21.21 0 01-.19.2h-.19a.22.22 0 01-.2-.2v-.19a.21.21 0 01.2-.19zm3.15 0h.19a.21.21 0 01.2.19V24a.22.22 0 01-.2.2h-.19a.21.21 0 01-.19-.2v-.19a.2.2 0 01.19-.19zm-2.38 0h.2a.2.2 0 01.19.19V24a.21.21 0 01-.19.2h-.2a.21.21 0 01-.19-.2v-.19a.2.2 0 01.19-.19zm.78 0h.19a.21.21 0 01.2.19V24a.22.22 0 01-.2.2h-.19a.22.22 0 01-.2-.2v-.19c.05-.1.1-.19.2-.19zm.86 0h.2a.2.2 0 01.19.19V24a.21.21 0 01-.19.2H36a.21.21 0 01-.19-.2v-.19a.17.17 0 01.19-.21zm1.52 0h.19a.21.21 0 01.2.19V24a.22.22 0 01-.2.2h-.19a.22.22 0 01-.2-.2v-.19a.21.21 0 01.2-.19zm.77 0h.2a.2.2 0 01.19.19V24a.21.21 0 01-.19.2h-.2a.21.21 0 01-.19-.2v-.19a.2.2 0 01.19-.19zm.78 0h.19a.21.21 0 01.2.19V24a.22.22 0 01-.2.2h-.19a.21.21 0 01-.19-.2v-.19c0-.1.09-.19.19-.19zm2.38 0h.19a.21.21 0 01.2.19V24a.22.22 0 01-.2.2h-.19a.22.22 0 01-.2-.2v-.19a.21.21 0 01.2-.19zm-1.6 0H40a.2.2 0 01.19.19V24a.21.21 0 01-.19.2h-.19a.22.22 0 01-.2-.2v-.19c.05-.1.1-.19.2-.19zm.82 0h.2a.2.2 0 01.19.19V24a.21.21 0 01-.19.2h-.2a.21.21 0 01-.19-.2v-.19a.2.2 0 01.19-.19zm1.55 0h.2a.2.2 0 01.19.19V24a.21.21 0 01-.19.2h-.2A.21.21 0 0142 24v-.19a.2.2 0 01.19-.19zm.78 0h.19a.21.21 0 01.2.19V24a.22.22 0 01-.2.2H43a.21.21 0 01-.19-.2v-.19a.2.2 0 01.19-.21zm.78 0H44a.21.21 0 01.2.19V24a.22.22 0 01-.2.2h-.19a.22.22 0 01-.2-.2v-.19c.05-.1.1-.19.2-.19zm-13.35.82h.2a.21.21 0 01.19.19v.2a.2.2 0 01-.19.19h-.2a.2.2 0 01-.19-.19v-.2c.05-.14.09-.19.19-.19zm.78 0h.24a.21.21 0 01.2.19v.2a.21.21 0 01-.2.19h-.19a.21.21 0 01-.2-.19v-.2c0-.14.05-.19.15-.19zm.79 0h.2a.21.21 0 01.19.19v.2a.2.2 0 01-.19.19H32a.2.2 0 01-.19-.19v-.2a.18.18 0 01.19-.19zm.81 0H33a.21.21 0 01.2.19v.2a.21.21 0 01-.2.19h-.19a.2.2 0 01-.19-.19v-.2a.17.17 0 01.19-.19zm.78 0h.19a.2.2 0 01.19.19v.2a.2.2 0 01-.19.19h-.19a.21.21 0 01-.2-.19v-.2a.18.18 0 01.2-.19zm.77 0h.2a.21.21 0 01.19.19v.2a.2.2 0 01-.19.19h-.2a.2.2 0 01-.19-.19v-.2a.18.18 0 01.19-.19zm.78 0h.19a.21.21 0 01.2.19v.2a.21.21 0 01-.2.19h-.19a.21.21 0 01-.2-.19v-.2c.05-.14.1-.19.2-.19zm.86 0h.2a.2.2 0 01.19.19v.2a.2.2 0 01-.19.19H36a.2.2 0 01-.19-.19v-.2c0-.14 0-.19.19-.19zm.74 0h.19a.21.21 0 01.2.19v.2a.21.21 0 01-.2.19h-.19a.2.2 0 01-.19-.19v-.2a.17.17 0 01.19-.19zm3.11 0H40a.2.2 0 01.19.19v.2A.2.2 0 0140 25h-.19a.21.21 0 01-.2-.19v-.2c.05-.14.1-.19.2-.19zm-2.33 0h.19a.21.21 0 01.2.19v.2a.21.21 0 01-.2.19h-.19a.21.21 0 01-.2-.19v-.2a.18.18 0 01.2-.19zm.77 0h.2a.21.21 0 01.19.19v.2a.2.2 0 01-.19.19h-.2a.2.2 0 01-.19-.19v-.2a.18.18 0 01.19-.19zm.78 0h.19a.21.21 0 01.2.19v.2a.21.21 0 01-.2.19h-.19a.2.2 0 01-.19-.19v-.2c0-.14.09-.19.19-.19zm1.6 0h.2a.21.21 0 01.19.19v.2a.2.2 0 01-.19.19h-.2a.2.2 0 01-.19-.19v-.2a.17.17 0 01.19-.19zm.78 0h.19a.21.21 0 01.2.19v.2a.21.21 0 01-.2.19h-.19a.21.21 0 01-.2-.19v-.2a.18.18 0 01.2-.19zm.77 0h.2a.2.2 0 01.19.19v.2a.2.2 0 01-.19.19h-.2a.2.2 0 01-.19-.19v-.2a.18.18 0 01.19-.19zm-9.41.78H33a.21.21 0 01.2.19v.2a.21.21 0 01-.2.19h-.19a.2.2 0 01-.19-.19v-.2a.17.17 0 01.19-.19zm.78 0h.19a.2.2 0 01.19.19v.2a.2.2 0 01-.19.19h-.19a.21.21 0 01-.2-.19v-.2a.18.18 0 01.2-.19zm.77 0h.2a.2.2 0 01.19.19v.2a.21.21 0 01-.19.19h-.2a.21.21 0 01-.19-.19v-.2a.18.18 0 01.19-.19zm.78 0h.19a.21.21 0 01.2.19v.2a.21.21 0 01-.2.19h-.19a.21.21 0 01-.2-.19v-.2c.05-.14.1-.19.2-.19zm.86 0h.2a.2.2 0 01.19.19v.2a.2.2 0 01-.19.19H36a.21.21 0 01-.19-.19v-.2c0-.14 0-.19.19-.19zm.74 0h.19a.21.21 0 01.2.19v.2a.21.21 0 01-.2.19h-.19a.2.2 0 01-.19-.19v-.2a.17.17 0 01.19-.19zm.78 0h.19a.21.21 0 01.2.19v.2a.21.21 0 01-.2.19h-.19a.21.21 0 01-.2-.19v-.2a.18.18 0 01.2-.19zm.77 0h.2a.2.2 0 01.19.19v.2a.21.21 0 01-.19.19h-.2a.21.21 0 01-.19-.19v-.2a.18.18 0 01.19-.19zm.78 0h.19a.21.21 0 01.2.19v.2a.21.21 0 01-.2.19h-.19a.2.2 0 01-.19-.19v-.2c0-.14.09-.19.19-.19zm3.15 0h.2a.2.2 0 01.19.19v.2a.2.2 0 01-.19.19h-.2a.21.21 0 01-.19-.19v-.2a.18.18 0 01.19-.19zm-2.37 0H40a.2.2 0 01.19.19v.2a.2.2 0 01-.19.19h-.19a.21.21 0 01-.2-.19v-.2c.05-.14.1-.19.2-.19zm.82 0h.2a.2.2 0 01.19.19v.2a.21.21 0 01-.19.19h-.2a.2.2 0 01-.19-.19v-.2a.17.17 0 01.19-.19zm.78 0h.19a.21.21 0 01.2.19v.2a.21.21 0 01-.2.19h-.19a.21.21 0 01-.2-.19v-.2a.18.18 0 01.2-.19zm2.33 0H44a.21.21 0 01.2.19v.2a.21.21 0 01-.2.19h-.19a.21.21 0 01-.2-.19v-.2c.05-.14.1-.19.2-.19zm.82 0h.2a.2.2 0 01.19.19v.2a.21.21 0 01-.19.19h-.2a.2.2 0 01-.19-.19v-.2c0-.14.05-.19.19-.19zM36 26h.2a.21.21 0 01.19.2v.19a.21.21 0 01-.19.2H36a.21.21 0 01-.19-.2v-.19A.18.18 0 0136 26zm.74 0h.19a.22.22 0 01.2.2v.19a.22.22 0 01-.2.2h-.19a.21.21 0 01-.19-.2v-.19a.21.21 0 01.19-.2zm.78 0h.19a.22.22 0 01.2.2v.19a.22.22 0 01-.2.2h-.19a.22.22 0 01-.2-.2v-.19a.22.22 0 01.2-.2zm.77 0h.2a.21.21 0 01.19.2v.19a.21.21 0 01-.19.2h-.2a.21.21 0 01-.19-.2v-.19a.21.21 0 01.19-.2zm.78 0h.19a.22.22 0 01.2.2v.19a.22.22 0 01-.2.2h-.19a.21.21 0 01-.19-.2v-.19c0-.1.09-.2.19-.2zm.78 0H40a.21.21 0 01.19.2v.19a.21.21 0 01-.19.2h-.19a.22.22 0 01-.2-.2v-.19c.05-.1.1-.2.2-.2zm.82 0h.2a.21.21 0 01.19.2v.19a.21.21 0 01-.19.2h-.2a.21.21 0 01-.19-.2v-.19a.21.21 0 01.19-.2zm.78 0h.19a.22.22 0 01.2.2v.19a.22.22 0 01-.2.2h-.19a.22.22 0 01-.2-.2v-.19a.22.22 0 01.2-.2zm.77 0h.2a.21.21 0 01.19.2v.19a.21.21 0 01-.19.2h-.2a.21.21 0 01-.19-.2v-.19a.21.21 0 01.19-.2zm3.16 0h.19a.22.22 0 01.2.2v.19a.22.22 0 01-.2.2h-.19a.22.22 0 01-.2-.2v-.19a.22.22 0 01.2-.2zm-1.6 0H44a.22.22 0 01.2.2v.19a.22.22 0 01-.2.2h-.19a.22.22 0 01-.2-.2v-.19c.05-.1.1-.2.2-.2zm.82 0h.2a.21.21 0 01.19.2v.19a.21.21 0 01-.19.2h-.2a.21.21 0 01-.19-.2v-.19a.18.18 0 01.19-.2zm-.82.75H44a.21.21 0 01.2.19v.2a.21.21 0 01-.2.19h-.19a.21.21 0 01-.2-.19v-.2c.05-.09.1-.19.2-.19zm0-2.33H44a.21.21 0 01.2.19v.2a.21.21 0 01-.2.19h-.19a.21.21 0 01-.2-.19v-.2c.05-.14.1-.19.2-.19zm.82 0h.2a.21.21 0 01.19.19v.2a.2.2 0 01-.19.19h-.2a.2.2 0 01-.19-.19v-.2c0-.14.05-.19.19-.19zm-7.08 2.33h.19a.21.21 0 01.2.19v.2a.21.21 0 01-.2.19h-.19a.21.21 0 01-.2-.19v-.2a.21.21 0 01.2-.19zm.77 0h.2a.21.21 0 01.19.19v.2a.2.2 0 01-.19.19h-.2a.2.2 0 01-.19-.19v-.2a.21.21 0 01.19-.19zm.78 0h.19a.21.21 0 01.2.19v.2a.21.21 0 01-.2.19h-.19a.2.2 0 01-.19-.19v-.2c0-.09.09-.19.19-.19zm.78 0H40a.2.2 0 01.19.19v.2a.2.2 0 01-.19.19h-.19a.21.21 0 01-.2-.19v-.2c.05-.09.1-.19.2-.19zm.82 0h.2a.21.21 0 01.19.19v.2a.2.2 0 01-.19.19h-.2a.2.2 0 01-.19-.19v-.2a.2.2 0 01.19-.19zm.78 0h.19a.21.21 0 01.2.19v.2a.21.21 0 01-.2.19h-.19a.21.21 0 01-.2-.19v-.2a.21.21 0 01.2-.19zm.77 0h.2a.2.2 0 01.19.19v.2a.2.2 0 01-.19.19h-.2a.2.2 0 01-.19-.19v-.2a.21.21 0 01.19-.19zm2.38.78h.2a.2.2 0 01.19.19v.19a.21.21 0 01-.19.2h-.2a.21.21 0 01-.19-.2v-.19a.17.17 0 01.19-.19zm0-.78h.2a.21.21 0 01.19.19v.2a.2.2 0 01-.19.19h-.2a.2.2 0 01-.19-.19v-.2a.18.18 0 01.19-.19zm.78 0h.19a.21.21 0 01.2.19v.2a.21.21 0 01-.2.19h-.19a.21.21 0 01-.2-.19v-.2a.21.21 0 01.2-.19zm-1.6.78H44a.21.21 0 01.2.19v.19a.22.22 0 01-.2.2h-.19a.22.22 0 01-.2-.2v-.19c.05-.1.1-.19.2-.19zm1.6 0h.19a.21.21 0 01.2.19v.19a.22.22 0 01-.2.2h-.19a.22.22 0 01-.2-.2v-.19a.21.21 0 01.2-.19zm.77 0h.2a.2.2 0 01.19.19v.19a.21.21 0 01-.19.2h-.2a.21.21 0 01-.19-.2v-.19a.2.2 0 01.19-.19zm0 2.37h.2a.21.21 0 01.19.2v.19a.21.21 0 01-.19.2h-.2a.21.21 0 01-.19-.2v-.19a.21.21 0 01.19-.2zm-.77-1.55h.19a.22.22 0 01.2.2v.19a.21.21 0 01-.2.19h-.19a.21.21 0 01-.2-.19v-.19a.18.18 0 01.2-.2zm-.78 0h.2a.21.21 0 01.19.2v.19a.2.2 0 01-.19.19h-.2a.2.2 0 01-.19-.19v-.19c0-.15.05-.2.19-.2zm1.55 0h.2a.21.21 0 01.19.2v.19a.2.2 0 01-.19.19h-.2a.2.2 0 01-.19-.19v-.19a.18.18 0 01.19-.2zm0 .78h.2a.2.2 0 01.19.19v.2a.2.2 0 01-.19.19h-.2a.21.21 0 01-.19-.19v-.2a.18.18 0 01.19-.19zm-.77 0h.19a.21.21 0 01.2.19v.2a.21.21 0 01-.2.19h-.19a.21.21 0 01-.2-.19v-.2a.18.18 0 01.2-.19zm1.55 0h.2a.2.2 0 01.19.19v.2a.21.21 0 01-.19.19h-.2a.2.2 0 01-.19-.19v-.2a.17.17 0 01.19-.19zm-9.41-1.6h.19a.21.21 0 01.2.19v.19a.22.22 0 01-.2.2h-.19a.22.22 0 01-.2-.2v-.19a.21.21 0 01.2-.19zm.77 0h.2a.2.2 0 01.19.19v.19a.21.21 0 01-.19.2h-.2a.21.21 0 01-.19-.2v-.19a.2.2 0 01.19-.19zm.78 0h.19a.21.21 0 01.2.19v.19a.22.22 0 01-.2.2h-.19a.21.21 0 01-.19-.2v-.19c0-.1.09-.19.19-.19zm.78 0H40a.2.2 0 01.19.19v.19a.21.21 0 01-.19.2h-.19a.22.22 0 01-.2-.2v-.19c.05-.1.1-.19.2-.19zm.82 0h.2a.2.2 0 01.19.19v.19a.21.21 0 01-.19.2h-.2a.21.21 0 01-.19-.2v-.19a.2.2 0 01.19-.19zm.78 0h.19a.21.21 0 01.2.19v.19a.22.22 0 01-.2.2h-.19a.22.22 0 01-.2-.2v-.19a.21.21 0 01.2-.19zm-3.16.82h.2a.21.21 0 01.19.2v.19a.2.2 0 01-.19.19h-.2a.2.2 0 01-.19-.19v-.19a.18.18 0 01.19-.2zm.78 0h.19a.22.22 0 01.2.2v.19a.21.21 0 01-.2.19h-.19a.2.2 0 01-.19-.19v-.19c0-.15.09-.2.19-.2zm.78 0H40a.21.21 0 01.19.2v.19a.2.2 0 01-.19.19h-.19a.21.21 0 01-.2-.19v-.19c.05-.15.1-.2.2-.2zm.82 0h.2a.21.21 0 01.19.2v.19a.2.2 0 01-.19.19h-.2a.2.2 0 01-.19-.19v-.19a.18.18 0 01.19-.2zm.78 0h.19a.22.22 0 01.2.2v.19a.21.21 0 01-.2.19h-.19a.21.21 0 01-.2-.19v-.19a.18.18 0 01.2-.2zm-2.38.78h.19a.21.21 0 01.2.19v.2a.21.21 0 01-.2.19h-.19a.2.2 0 01-.19-.19v-.2c0-.14.09-.19.19-.19zm.78 0H40a.2.2 0 01.19.19v.2a.2.2 0 01-.19.19h-.19a.21.21 0 01-.2-.19v-.2c.05-.14.1-.19.2-.19zm.82 0h.2a.2.2 0 01.19.19v.2a.21.21 0 01-.19.19h-.2a.2.2 0 01-.19-.19v-.2a.17.17 0 01.19-.19zm.78 0h.19a.21.21 0 01.2.19v.2a.21.21 0 01-.2.19h-.19a.21.21 0 01-.2-.19v-.2a.18.18 0 01.2-.19zm.77 0h.2a.2.2 0 01.19.19v.2a.2.2 0 01-.19.19h-.2a.21.21 0 01-.19-.19v-.2a.18.18 0 01.19-.19zm-3.15.77h.19a.22.22 0 01.2.2v.19a.22.22 0 01-.2.2h-.19a.21.21 0 01-.19-.2v-.19c0-.1.09-.2.19-.2zm.78 0H40a.21.21 0 01.19.2v.19a.21.21 0 01-.19.2h-.19a.22.22 0 01-.2-.2v-.19c.05-.1.1-.2.2-.2zm2.37 3.16h.2a.2.2 0 01.19.19v.2a.2.2 0 01-.19.19h-.2a.21.21 0 01-.19-.19v-.2a.18.18 0 01.19-.19zm0-.83h.2a.21.21 0 01.19.2v.19a.21.21 0 01-.19.2h-.2a.21.21 0 01-.19-.2v-.19a.21.21 0 01.19-.2zm0-2.33h.2a.21.21 0 01.19.2v.19a.21.21 0 01-.19.2h-.2a.21.21 0 01-.19-.2v-.19a.21.21 0 01.19-.2zm-3.15.78h.19a.21.21 0 01.2.19v.2a.21.21 0 01-.2.19h-.19a.2.2 0 01-.19-.19v-.2c0-.09.09-.19.19-.19zm.78 0H40a.2.2 0 01.19.19v.2a.2.2 0 01-.19.19h-.19a.21.21 0 01-.2-.19v-.2c.05-.09.1-.19.2-.19zm1.6 3.93h.19a.22.22 0 01.2.2V35a.21.21 0 01-.2.19h-.19a.21.21 0 01-.2-.19v-.19a.22.22 0 01.2-.2zm0-.78h.19a.22.22 0 01.2.2v.19a.22.22 0 01-.2.2h-.19a.22.22 0 01-.2-.2V34a.18.18 0 01.2-.2zm.77-3.15h.2a.2.2 0 01.19.19v.2a.2.2 0 01-.19.19h-.2a.2.2 0 01-.19-.19v-.2a.21.21 0 01.19-.19zm-3.93.78h.2a.2.2 0 01.19.19v.2a.21.21 0 01-.19.19h-.2a.21.21 0 01-.19-.19v-.2a.2.2 0 01.19-.19zm.78 0h.19a.21.21 0 01.2.19v.2a.21.21 0 01-.2.19h-.19a.2.2 0 01-.19-.19v-.2c0-.1.09-.19.19-.19zm2.38-.78h.19a.21.21 0 01.2.19v.2a.21.21 0 01-.2.19h-.19a.21.21 0 01-.2-.19v-.2a.21.21 0 01.2-.19zm0-.78h.19a.22.22 0 01.2.2v.19a.22.22 0 01-.2.2h-.19a.22.22 0 01-.2-.2v-.19a.22.22 0 01.2-.2zm.77 1.56h.2a.2.2 0 01.19.19v.2a.2.2 0 01-.19.19h-.2a.21.21 0 01-.19-.19v-.2a.2.2 0 01.19-.19zm-4.7.77h.19a.22.22 0 01.2.2v.19a.22.22 0 01-.2.2h-.19a.22.22 0 01-.2-.2v-.19a.22.22 0 01.2-.2zm.77 0h.2a.21.21 0 01.19.2v.19a.21.21 0 01-.19.2h-.2a.21.21 0 01-.19-.2v-.19a.21.21 0 01.19-.2zm2.38 1.6h.2a.21.21 0 01.19.2v.19a.21.21 0 01-.19.2h-.2a.21.21 0 01-.19-.2V34a.18.18 0 01.19-.2zm.78-1.6h.19a.22.22 0 01.2.2v.19a.22.22 0 01-.2.2h-.19a.22.22 0 01-.2-.2v-.19a.22.22 0 01.2-.2zm0-.77h.19a.21.21 0 01.2.19v.2a.21.21 0 01-.2.19h-.19a.21.21 0 01-.2-.19v-.2a.21.21 0 01.2-.19zm0 1.6h.19a.21.21 0 01.2.19v.2a.21.21 0 01-.2.19h-.19a.21.21 0 01-.2-.19v-.2a.18.18 0 01.2-.19zm-4.71 0h.19a.21.21 0 01.2.19v.2a.21.21 0 01-.2.19h-.19a.2.2 0 01-.19-.19v-.2a.17.17 0 01.19-.19zm.78 0h.19a.21.21 0 01.2.19v.2a.21.21 0 01-.2.19h-.19a.21.21 0 01-.2-.19v-.2a.18.18 0 01.2-.19zm-.78.77h.19a.22.22 0 01.2.2v.19a.22.22 0 01-.2.2h-.19a.21.21 0 01-.19-.2V34a.18.18 0 01.19-.2zm.78 0h.19a.22.22 0 01.2.2v.19a.22.22 0 01-.2.2h-.19a.22.22 0 01-.2-.2V34a.18.18 0 01.2-.2zm-1.52.78h.2a.21.21 0 01.19.2V35a.2.2 0 01-.19.19H36a.2.2 0 01-.19-.19v-.19a.18.18 0 01.19-.2zm.74 0h.19a.22.22 0 01.2.2V35a.21.21 0 01-.2.19h-.19a.2.2 0 01-.19-.19v-.19a.21.21 0 01.19-.2zm3.93 0h.2a.21.21 0 01.19.2V35a.2.2 0 01-.19.19h-.2a.2.2 0 01-.19-.19v-.19a.21.21 0 01.19-.2zm-6.31-16.5h.2a.21.21 0 01.19.2v.19a.2.2 0 01-.19.19h-.2a.2.2 0 01-.19-.19v-.19a.21.21 0 01.19-.2zm.78 1.6h.19a.22.22 0 01.2.2v.19a.22.22 0 01-.2.2h-.19a.22.22 0 01-.2-.2v-.19c.05-.15.1-.2.2-.2zm.86.78h.2a.2.2 0 01.19.19v.2a.2.2 0 01-.19.19H36a.21.21 0 01-.19-.19v-.2c0-.14 0-.19.19-.19zM27.33 22h.19a.21.21 0 01.19.2v.19a.2.2 0 01-.19.19h-.19a.21.21 0 01-.2-.19v-.19a.22.22 0 01.2-.2zM25 23.6h.19a.21.21 0 01.2.19V24a.22.22 0 01-.2.2H25a.22.22 0 01-.2-.2v-.19a.21.21 0 01.2-.19zm1.5-1.6h.2a.21.21 0 01.19.2v.19a.2.2 0 01-.19.19h-.2a.2.2 0 01-.19-.19v-.19c.05-.1.09-.2.19-.2z" transform="translate(-.82 -9.22)"/></svg>