<svg version="1.1" id="Layer_1" xmlns="http://www.w3.org/2000/svg" x="0" y="0" viewBox="0 0 239 60" xml:space="preserve"><style>.st1{fill:#fff}</style><path d="M50.1 11.1c-5.8-4.6-12.2-5.3-18.9-2-6.9 3.4-10.4 9.3-9.9 17-7.5-.2-13.8 6.7-12.9 14.2.7 6 4.8 10.2 10.8 11.1h36.5c7.4-.9 10-4.2 11.2-9.2" fill="none" stroke="#fff" stroke-width="2" stroke-linecap="round" stroke-linejoin="round" stroke-miterlimit="3.864"/><path class="st1" d="M50.6 33.4h.4c.2 0 .3.1.3.3v.4c0 .2-.1.3-.3.3h-.4c-.2 0-.3-.1-.3-.3v-.4c0-.2.2-.3.3-.3zm1.5 0h.4c.2 0 .3.1.3.3v.4c0 .2-.1.3-.3.3h-.4c-.2 0-.3-.1-.3-.3v-.4c-.1-.2.1-.3.3-.3zm4.2-21.1h.4c.2 0 .3.1.3.3v.4c0 .2-.1.3-.3.3h-.4c-.2 0-.3-.1-.3-.3v-.4c-.1-.2.1-.3.3-.3zm-1.4 0h.4c.2 0 .3.1.3.3v.4c0 .2-.1.3-.3.3h-.4c-.2 0-.3-.1-.3-.3v-.4c-.1-.2.1-.3.3-.3zm2.8 0h.4c.2 0 .3.1.3.3v.4c0 .2-.1.3-.3.3h-.4c-.2 0-.3-.1-.3-.3v-.4c0-.2.1-.3.3-.3zm2.8 0h.4c.2 0 .3.1.3.3v.4c0 .2-.1.3-.3.3h-.4c-.2 0-.3-.1-.3-.3v-.4c0-.2.1-.3.3-.3zm-1.4 0h.4c.2 0 .3.1.3.3v.4c0 .2-.1.3-.3.3h-.4c-.2 0-.3-.1-.3-.3v-.4c0-.2.1-.3.3-.3zm-4.2 1.4h.4c.2 0 .3.1.3.3v.4c0 .2-.1.3-.3.3h-.4c-.2 0-.3-.1-.3-.3V14c-.1-.2.1-.3.3-.3zm-1.4 0h.4c.2 0 .3.1.3.3v.4c0 .2-.1.3-.3.3h-.4c-.2 0-.3-.1-.3-.3V14c-.1-.2.1-.3.3-.3zm2.8 0h.4c.2 0 .3.1.3.3v.4c0 .2-.1.3-.3.3h-.4c-.2 0-.3-.1-.3-.3V14c-.1-.2.1-.3.3-.3zm2.8 0h.4c.2 0 .3.1.3.3v.4c0 .2-.1.3-.3.3h-.4c-.2 0-.3-.1-.3-.3V14c0-.2.1-.3.3-.3zm-1.4 0h.4c.2 0 .3.1.3.3v.4c0 .2-.1.3-.3.3h-.4c-.2 0-.3-.1-.3-.3V14c0-.2.1-.3.3-.3zm2.8 0h.4c.2 0 .3.1.3.3v.4c0 .2-.1.3-.3.3h-.4c-.2 0-.3-.1-.3-.3V14c0-.2.1-.3.3-.3zm1.4 0h.4c.2 0 .3.1.3.3v.4c0 .2-.1.3-.3.3h-.4c-.2 0-.3-.1-.3-.3V14c0-.2.1-.3.3-.3zm-8.4 1.4h.4c.2 0 .3.1.3.3v.4c0 .2-.1.3-.3.3h-.4c-.2 0-.3-.1-.3-.3v-.4c-.1-.2.1-.3.3-.3zm-1.4 0h.4c.2 0 .3.1.3.3v.4c0 .2-.1.3-.3.3h-.4c-.2 0-.3-.1-.3-.3v-.4c-.1-.2.1-.3.3-.3zm2.8 0h.4c.2 0 .3.1.3.3v.4c0 .2-.1.3-.3.3h-.4c-.2 0-.3-.1-.3-.3v-.4c-.1-.2.1-.3.3-.3zm2.8 0h.4c.2 0 .3.1.3.3v.4c0 .2-.1.3-.3.3h-.4c-.2 0-.3-.1-.3-.3v-.4c0-.2.1-.3.3-.3zm-1.4 0h.4c.2 0 .3.1.3.3v.4c0 .2-.1.3-.3.3h-.4c-.2 0-.3-.1-.3-.3v-.4c-.1-.2.1-.3.3-.3zm2.8 0h.4c.2 0 .3.1.3.3v.4c0 .2-.1.3-.3.3h-.4c-.2 0-.3-.1-.3-.3v-.4c0-.2.1-.3.3-.3zm1.4 0h.4c.2 0 .3.1.3.3v.4c0 .2-.1.3-.3.3h-.4c-.2 0-.3-.1-.3-.3v-.4c0-.2.1-.3.3-.3zm2.8 0h.4c.2 0 .3.1.3.3v.4c0 .2-.1.3-.3.3h-.4c-.2 0-.3-.1-.3-.3v-.4c0-.2.1-.3.3-.3zm-1.4 0h.4c.2 0 .3.1.3.3v.4c0 .2-.1.3-.3.3h-.4c-.2 0-.3-.1-.3-.3v-.4c0-.2.1-.3.3-.3zm-9.8 1.4h.4c.2 0 .3.1.3.3v.4c0 .2-.1.3-.3.3h-.4c-.2 0-.3-.1-.3-.3v-.4c-.1-.2.1-.3.3-.3zm-1.5 0h.4c.2 0 .3.1.3.3v.4c0 .2-.1.3-.3.3h-.4c-.2 0-.3-.1-.3-.3v-.4c0-.2.2-.3.3-.3zm2.9 0h.4c.2 0 .3.1.3.3v.4c0 .2-.1.3-.3.3h-.4c-.2 0-.3-.1-.3-.3v-.4c-.1-.2.1-.3.3-.3zm2.8 0h.4c.2 0 .3.1.3.3v.4c0 .2-.1.3-.3.3h-.4c-.2 0-.3-.1-.3-.3v-.4c-.1-.2.1-.3.3-.3zm-1.4 0h.4c.2 0 .3.1.3.3v.4c0 .2-.1.3-.3.3h-.4c-.2 0-.3-.1-.3-.3v-.4c-.1-.2.1-.3.3-.3zm2.8 0h.4c.2 0 .3.1.3.3v.4c0 .2-.1.3-.3.3h-.4c-.2 0-.3-.1-.3-.3v-.4c0-.2.1-.3.3-.3zm1.4 0h.4c.2 0 .3.1.3.3v.4c0 .2-.1.3-.3.3h-.4c-.2 0-.3-.1-.3-.3v-.4c0-.2.1-.3.3-.3zm2.8 0h.4c.2 0 .3.1.3.3v.4c0 .2-.1.3-.3.3h-.4c-.2 0-.3-.1-.3-.3v-.4c0-.2.1-.3.3-.3zm-1.4 0h.4c.2 0 .3.1.3.3v.4c0 .2-.1.3-.3.3h-.4c-.2 0-.3-.1-.3-.3v-.4c0-.2.1-.3.3-.3zm2.8 0h.4c.2 0 .3.1.3.3v.4c0 .2-.1.3-.3.3h-.4c-.2 0-.3-.1-.3-.3v-.4c0-.2.1-.3.3-.3zm1.4 0h.4c.2 0 .3.1.3.3v.4c0 .2-.1.3-.3.3h-.4c-.2 0-.3-.1-.3-.3v-.4c0-.2.1-.3.3-.3zm-14.1 1.4h.4c.2 0 .3.1.3.3v.4c0 .2-.1.3-.3.3h-.4c-.2 0-.3-.1-.3-.3v-.4c0-.2.2-.3.3-.3zm-1.4 0h.4c.2 0 .3.1.3.3v.4c0 .2-.1.3-.3.3h-.4c-.2 0-.3-.1-.3-.3v-.4c0-.2.2-.3.3-.3zm2.9 0h.4c.2 0 .3.1.3.3v.4c0 .2-.1.3-.3.3h-.4c-.2 0-.3-.1-.3-.3v-.4c-.1-.2.1-.3.3-.3zm2.8 0h.4c.2 0 .3.1.3.3v.4c0 .2-.1.3-.3.3h-.4c-.2 0-.3-.1-.3-.3v-.4c-.1-.2.1-.3.3-.3zm-1.4 0h.4c.2 0 .3.1.3.3v.4c0 .2-.1.3-.3.3h-.4c-.2 0-.3-.1-.3-.3v-.4c-.1-.2.1-.3.3-.3zm2.8 0h.4c.2 0 .3.1.3.3v.4c0 .2-.1.3-.3.3h-.4c-.2 0-.3-.1-.3-.3v-.4c-.1-.2.1-.3.3-.3zm1.4 0h.4c.2 0 .3.1.3.3v.4c0 .2-.1.3-.3.3h-.4c-.2 0-.3-.1-.3-.3v-.4c0-.2.1-.3.3-.3zm2.8 0h.4c.2 0 .3.1.3.3v.4c0 .2-.1.3-.3.3h-.4c-.2 0-.3-.1-.3-.3v-.4c0-.2.1-.3.3-.3zm-1.4 0h.4c.2 0 .3.1.3.3v.4c0 .2-.1.3-.3.3h-.4c-.2 0-.3-.1-.3-.3v-.4c0-.2.1-.3.3-.3zm2.8 0h.4c.2 0 .3.1.3.3v.4c0 .2-.1.3-.3.3h-.4c-.2 0-.3-.1-.3-.3v-.4c0-.2.1-.3.3-.3zm1.4 0h.4c.2 0 .3.1.3.3v.4c0 .2-.1.3-.3.3h-.4c-.2 0-.3-.1-.3-.3v-.4c0-.2.1-.3.3-.3zm1.4 0h.4c.2 0 .3.1.3.3v.4c0 .2-.1.3-.3.3h-.4c-.2 0-.3-.1-.3-.3v-.4c0-.2.1-.3.3-.3zm1.4 0h.4c.2 0 .3.1.3.3v.4c0 .2-.1.3-.3.3h-.4c-.2 0-.3-.1-.3-.3v-.4c0-.2.1-.3.3-.3zm-15.5 1.4h.4c.2 0 .3.1.3.3v.4c0 .2-.1.3-.3.3h-.4c-.2 0-.3-.1-.3-.3v-.4c0-.2.2-.3.3-.3zm1.5 0h.4c.2 0 .3.1.3.3v.4c0 .2-.1.3-.3.3h-.4c-.2 0-.3-.1-.3-.3v-.4c-.1-.2.1-.3.3-.3zm5.6 0h.4c.2 0 .3.1.3.3v.4c0 .2-.1.3-.3.3h-.4c-.2 0-.3-.1-.3-.3v-.4c0-.2.1-.3.3-.3zm1.4 0h.4c.2 0 .3.1.3.3v.4c0 .2-.1.3-.3.3h-.4c-.2 0-.3-.1-.3-.3v-.4c0-.2.1-.3.3-.3zm1.4 0h.4c.2 0 .3.1.3.3v.4c0 .2-.1.3-.3.3h-.4c-.2 0-.3-.1-.3-.3v-.4c0-.2.1-.3.3-.3zm1.4 0h.4c.2 0 .3.1.3.3v.4c0 .2-.1.3-.3.3h-.4c-.2 0-.3-.1-.3-.3v-.4c0-.2.1-.3.3-.3zm1.4 0h.4c.2 0 .3.1.3.3v.4c0 .2-.1.3-.3.3h-.4c-.2 0-.3-.1-.3-.3v-.4c0-.2.1-.3.3-.3zm1.4 0h.4c.2 0 .3.1.3.3v.4c0 .2-.1.3-.3.3h-.4c-.2 0-.3-.1-.3-.3v-.4c0-.2.1-.3.3-.3zm1.4 0h.4c.2 0 .3.1.3.3v.4c0 .2-.1.3-.3.3h-.4c-.2 0-.3-.1-.3-.3v-.4c0-.2.1-.3.3-.3zm-8.4 1.4h.4c.2 0 .3.1.3.3v.4c0 .2-.1.3-.3.3h-.4c-.2 0-.3-.1-.3-.3V21c0-.2.1-.3.3-.3zm1.4 0h.4c.2 0 .3.1.3.3v.4c0 .2-.1.3-.3.3h-.4c-.2 0-.3-.1-.3-.3V21c0-.2.1-.3.3-.3zm1.4 0h.4c.2 0 .3.1.3.3v.4c0 .2-.1.3-.3.3h-.4c-.2 0-.3-.1-.3-.3V21c0-.2.1-.3.3-.3zm1.4 0h.4c.2 0 .3.1.3.3v.4c0 .2-.1.3-.3.3h-.4c-.2 0-.3-.1-.3-.3V21c0-.2.1-.3.3-.3zm1.4 0h.4c.2 0 .3.1.3.3v.4c0 .2-.1.3-.3.3h-.4c-.2 0-.3-.1-.3-.3V21c0-.2.1-.3.3-.3zm1.4 0h.4c.2 0 .3.1.3.3v.4c0 .2-.1.3-.3.3h-.4c-.2 0-.3-.1-.3-.3V21c0-.2.1-.3.3-.3zm1.4 0h.4c.2 0 .3.1.3.3v.4c0 .2-.1.3-.3.3h-.4c-.2 0-.3-.1-.3-.3V21c0-.2.1-.3.3-.3zm-8.4 1.4h.4c.2 0 .3.1.3.3v.4c0 .2-.1.3-.3.3h-.4c-.2 0-.3-.1-.3-.3v-.4c0-.1.1-.3.3-.3zm1.4 0h.4c.2 0 .3.1.3.3v.4c0 .2-.1.3-.3.3h-.4c-.2 0-.3-.1-.3-.3v-.4c0-.1.1-.3.3-.3zm1.4 0h.4c.2 0 .3.1.3.3v.4c0 .2-.1.3-.3.3h-.4c-.2 0-.3-.1-.3-.3v-.4c0-.1.1-.3.3-.3zm1.4 0h.4c.2 0 .3.1.3.3v.4c0 .2-.1.3-.3.3h-.4c-.2 0-.3-.1-.3-.3v-.4c0-.1.1-.3.3-.3zm1.4 0h.4c.2 0 .3.1.3.3v.4c0 .2-.1.3-.3.3h-.4c-.2 0-.3-.1-.3-.3v-.4c0-.1.1-.3.3-.3zm1.4 0h.4c.2 0 .3.1.3.3v.4c0 .2-.1.3-.3.3h-.4c-.2 0-.3-.1-.3-.3v-.4c0-.1.1-.3.3-.3zm1.4 0h.4c.2 0 .3.1.3.3v.4c0 .2-.1.3-.3.3h-.4c-.2 0-.3-.1-.3-.3v-.4c0-.1.1-.3.3-.3zm2.8 4.2h.4c.2 0 .3.1.3.3v.4c0 .2-.1.3-.3.3h-.4c-.2 0-.3-.1-.3-.3v-.4c0-.1.2-.3.3-.3zm-11.2-2.8h.4c.2 0 .3.1.3.3v.4c0 .2-.1.3-.3.3h-.4c-.2 0-.3-.1-.3-.3v-.4c0-.1.1-.3.3-.3zm1.4 0h.4c.2 0 .3.1.3.3v.4c0 .2-.1.3-.3.3h-.4c-.2 0-.3-.1-.3-.3v-.4c0-.1.1-.3.3-.3zm1.4 0h.4c.2 0 .3.1.3.3v.4c0 .2-.1.3-.3.3h-.4c-.2 0-.3-.1-.3-.3v-.4c0-.1.1-.3.3-.3zm1.4 0h.4c.2 0 .3.1.3.3v.4c0 .2-.1.3-.3.3h-.4c-.2 0-.3-.1-.3-.3v-.4c0-.1.1-.3.3-.3zm1.4 0h.4c.2 0 .3.1.3.3v.4c0 .2-.1.3-.3.3h-.4c-.2 0-.3-.1-.3-.3v-.4c0-.1.1-.3.3-.3zm1.4 0h.4c.2 0 .3.1.3.3v.4c0 .2-.1.3-.3.3h-.4c-.2 0-.3-.1-.3-.3v-.4c0-.1.1-.3.3-.3zm-9.8-12.7h.4c.2 0 .3.1.3.3v.4c0 .2-.1.3-.3.3h-.4c-.2 0-.3-.1-.3-.3v-.4c-.1-.1.1-.3.3-.3zm1.4 0h.4c.2 0 .3.1.3.3v.4c0 .2-.1.3-.3.3h-.4c-.2 0-.3-.1-.3-.3v-.4c-.1-.1.1-.3.3-.3zm9.8 12.7h.4c.2 0 .3.1.3.3v.4c0 .2-.1.3-.3.3h-.4c-.2 0-.3-.1-.3-.3v-.4c0-.1.1-.3.3-.3zm1.4 0h.4c.2 0 .3.1.3.3v.4c0 .2-.1.3-.3.3h-.4c-.2 0-.3-.1-.3-.3v-.4c0-.1.2-.3.3-.3zm-9.8 1.4h.4c.2 0 .3.1.3.3v.4c0 .2-.1.3-.3.3h-.4c-.2 0-.3-.1-.3-.3v-.4c0-.1.1-.3.3-.3zm1.4 0h.4c.2 0 .3.1.3.3v.4c0 .2-.1.3-.3.3h-.4c-.2 0-.3-.1-.3-.3v-.4c0-.1.1-.3.3-.3zm1.4 0h.4c.2 0 .3.1.3.3v.4c0 .2-.1.3-.3.3h-.4c-.2 0-.3-.1-.3-.3v-.4c0-.1.1-.3.3-.3zm1.4 0h.4c.2 0 .3.1.3.3v.4c0 .2-.1.3-.3.3h-.4c-.2 0-.3-.1-.3-.3v-.4c0-.1.1-.3.3-.3zm1.4 0h.4c.2 0 .3.1.3.3v.4c0 .2-.1.3-.3.3h-.4c-.2 0-.3-.1-.3-.3v-.4c0-.1.1-.3.3-.3zm1.4 0h.4c.2 0 .3.1.3.3v.4c0 .2-.1.3-.3.3h-.4c-.2 0-.3-.1-.3-.3v-.4c0-.1.1-.3.3-.3zm1.4 0h.4c.2 0 .3.1.3.3v.4c0 .2-.1.3-.3.3h-.4c-.2 0-.3-.1-.3-.3v-.4c0-.1.1-.3.3-.3zm1.4 0h.4c.2 0 .3.1.3.3v.4c0 .2-.1.3-.3.3h-.4c-.2 0-.3-.1-.3-.3v-.4c0-.1.2-.3.3-.3zm-11.2 1.4h.4c.2 0 .3.1.3.3v.4c0 .2-.1.3-.3.3h-.4c-.2 0-.3-.1-.3-.3v-.4c-.1-.1.1-.3.3-.3zm1.4 0h.4c.2 0 .3.1.3.3v.4c0 .2-.1.3-.3.3h-.4c-.2 0-.3-.1-.3-.3v-.4c0-.1.1-.3.3-.3zm1.4 0h.4c.2 0 .3.1.3.3v.4c0 .2-.1.3-.3.3h-.4c-.2 0-.3-.1-.3-.3v-.4c0-.1.1-.3.3-.3zm1.4 0h.4c.2 0 .3.1.3.3v.4c0 .2-.1.3-.3.3h-.4c-.2 0-.3-.1-.3-.3v-.4c0-.1.1-.3.3-.3zm1.4 0h.4c.2 0 .3.1.3.3v.4c0 .2-.1.3-.3.3h-.4c-.2 0-.3-.1-.3-.3v-.4c0-.1.1-.3.3-.3zm1.4 0h.4c.2 0 .3.1.3.3v.4c0 .2-.1.3-.3.3h-.4c-.2 0-.3-.1-.3-.3v-.4c0-.1.1-.3.3-.3zm1.4 0h.4c.2 0 .3.1.3.3v.4c0 .2-.1.3-.3.3h-.4c-.2 0-.3-.1-.3-.3v-.4c0-.1.1-.3.3-.3zm1.4 0h.4c.2 0 .3.1.3.3v.4c0 .2-.1.3-.3.3h-.4c-.2 0-.3-.1-.3-.3v-.4c0-.1.1-.3.3-.3zm1.4 0h.4c.2 0 .3.1.3.3v.4c0 .2-.1.3-.3.3h-.4c-.2 0-.3-.1-.3-.3v-.4c0-.1.2-.3.3-.3zm-11.2 1.4h.4c.2 0 .3.1.3.3v.4c0 .2-.1.3-.3.3h-.4c-.2 0-.3-.1-.3-.3V28c-.1-.1.1-.3.3-.3zm1.4 0h.4c.2 0 .3.1.3.3v.4c0 .2-.1.3-.3.3h-.4c-.2 0-.3-.1-.3-.3V28c0-.1.1-.3.3-.3zm1.4 0h.4c.2 0 .3.1.3.3v.4c0 .2-.1.3-.3.3h-.4c-.2 0-.3-.1-.3-.3V28c0-.1.1-.3.3-.3zm1.4 0h.4c.2 0 .3.1.3.3v.4c0 .2-.1.3-.3.3h-.4c-.2 0-.3-.1-.3-.3V28c0-.1.1-.3.3-.3zm1.4 0h.4c.2 0 .3.1.3.3v.4c0 .2-.1.3-.3.3h-.4c-.2 0-.3-.1-.3-.3V28c0-.1.1-.3.3-.3zm1.4 0h.4c.2 0 .3.1.3.3v.4c0 .2-.1.3-.3.3h-.4c-.2 0-.3-.1-.3-.3V28c0-.1.1-.3.3-.3zm1.4 0h.4c.2 0 .3.1.3.3v.4c0 .2-.1.3-.3.3h-.4c-.2 0-.3-.1-.3-.3V28c0-.1.1-.3.3-.3zm1.4 0h.4c.2 0 .3.1.3.3v.4c0 .2-.1.3-.3.3h-.4c-.2 0-.3-.1-.3-.3V28c0-.1.1-.3.3-.3zm1.4 0h.4c.2 0 .3.1.3.3v.4c0 .2-.1.3-.3.3h-.4c-.2 0-.3-.1-.3-.3V28c0-.1.2-.3.3-.3zm5.7 0h.4c.2 0 .3.1.3.3v.4c0 .2-.1.3-.3.3h-.4c-.2 0-.3-.1-.3-.3V28c-.1-.1.1-.3.3-.3zm-4.3 0h.4c.2 0 .3.1.3.3v.4c0 .2-.1.3-.3.3h-.4c-.2 0-.3-.1-.3-.3V28c0-.1.2-.3.3-.3zm1.4 0h.4c.2 0 .3.1.3.3v.4c0 .2-.1.3-.3.3h-.4c-.2 0-.3-.1-.3-.3V28c0-.1.2-.3.3-.3zm1.5 0h.4c.2 0 .3.1.3.3v.4c0 .2-.1.3-.3.3h-.4c-.2 0-.3-.1-.3-.3V28c-.1-.1.1-.3.3-.3zm-15.5 1.4h.4c.2 0 .3.1.3.3v.4c0 .2-.1.3-.3.3h-.4c-.2 0-.3-.1-.3-.3v-.4c-.1-.1.1-.3.3-.3zm1.4 0h.4c.2 0 .3.1.3.3v.4c0 .2-.1.3-.3.3h-.4c-.2 0-.3-.1-.3-.3v-.4c0-.1.1-.3.3-.3zm1.4 0h.4c.2 0 .3.1.3.3v.4c0 .2-.1.3-.3.3h-.4c-.2 0-.3-.1-.3-.3v-.4c0-.1.1-.3.3-.3zm1.4 0h.4c.2 0 .3.1.3.3v.4c0 .2-.1.3-.3.3h-.4c-.2 0-.3-.1-.3-.3v-.4c0-.1.1-.3.3-.3zm1.4 0h.4c.2 0 .3.1.3.3v.4c0 .2-.1.3-.3.3h-.4c-.2 0-.3-.1-.3-.3v-.4c0-.1.1-.3.3-.3zm1.4 0h.4c.2 0 .3.1.3.3v.4c0 .2-.1.3-.3.3h-.4c-.2 0-.3-.1-.3-.3v-.4c0-.1.1-.3.3-.3zm1.4 0h.4c.2 0 .3.1.3.3v.4c0 .2-.1.3-.3.3h-.4c-.2 0-.3-.1-.3-.3v-.4c0-.1.1-.3.3-.3zm1.4 0h.4c.2 0 .3.1.3.3v.4c0 .2-.1.3-.3.3h-.4c-.2 0-.3-.1-.3-.3v-.4c0-.1.1-.3.3-.3zm1.4 0h.4c.2 0 .3.1.3.3v.4c0 .2-.1.3-.3.3h-.4c-.2 0-.3-.1-.3-.3v-.4c0-.1.2-.3.3-.3zm5.7 0h.4c.2 0 .3.1.3.3v.4c0 .2-.1.3-.3.3h-.4c-.2 0-.3-.1-.3-.3v-.4c-.1-.1.1-.3.3-.3zm-4.3 0h.4c.2 0 .3.1.3.3v.4c0 .2-.1.3-.3.3h-.4c-.2 0-.3-.1-.3-.3v-.4c0-.1.2-.3.3-.3zm1.4 0h.4c.2 0 .3.1.3.3v.4c0 .2-.1.3-.3.3h-.4c-.2 0-.3-.1-.3-.3v-.4c0-.1.2-.3.3-.3zm1.5 0h.4c.2 0 .3.1.3.3v.4c0 .2-.1.3-.3.3h-.4c-.2 0-.3-.1-.3-.3v-.4c-.1-.1.1-.3.3-.3zm2.8 0h.4c.2 0 .3.1.3.3v.4c0 .2-.1.3-.3.3h-.4c-.2 0-.3-.1-.3-.3v-.4c-.1-.1.1-.3.3-.3zm1.4 0h.4c.2 0 .3.1.3.3v.4c0 .2-.1.3-.3.3H76c-.2 0-.3-.1-.3-.3v-.4c-.1-.1.1-.3.3-.3zm1.4 0h.4c.2 0 .3.1.3.3v.4c0 .2-.1.3-.3.3h-.4c-.2 0-.3-.1-.3-.3v-.4c0-.1.1-.3.3-.3zm-25.3 1.4h.4c.2 0 .3.1.3.3v.4c0 .2-.1.3-.3.3h-.4c-.2 0-.3-.1-.3-.3v-.4c-.1-.1.1-.3.3-.3zm1.4 0h.4c.2 0 .3.1.3.3v.4c0 .2-.1.3-.3.3h-.4c-.2 0-.3-.1-.3-.3v-.4c-.1-.1.1-.3.3-.3zm1.4 0h.4c.2 0 .3.1.3.3v.4c0 .2-.1.3-.3.3h-.4c-.2 0-.3-.1-.3-.3v-.4c-.1-.1.1-.3.3-.3zm1.4 0h.4c.2 0 .3.1.3.3v.4c0 .2-.1.3-.3.3h-.4c-.2 0-.3-.1-.3-.3v-.4c-.1-.1.1-.3.3-.3zm1.4 0h.4c.2 0 .3.1.3.3v.4c0 .2-.1.3-.3.3h-.4c-.2 0-.3-.1-.3-.3v-.4c0-.1.1-.3.3-.3zm1.4 0h.4c.2 0 .3.1.3.3v.4c0 .2-.1.3-.3.3h-.4c-.2 0-.3-.1-.3-.3v-.4c0-.1.1-.3.3-.3zm1.4 0h.4c.2 0 .3.1.3.3v.4c0 .2-.1.3-.3.3h-.4c-.2 0-.3-.1-.3-.3v-.4c0-.1.1-.3.3-.3zm1.4 0h.4c.2 0 .3.1.3.3v.4c0 .2-.1.3-.3.3h-.4c-.2 0-.3-.1-.3-.3v-.4c0-.1.1-.3.3-.3zm1.4 0h.4c.2 0 .3.1.3.3v.4c0 .2-.1.3-.3.3h-.4c-.2 0-.3-.1-.3-.3v-.4c0-.1.1-.3.3-.3zm5.6 0h.4c.2 0 .3.1.3.3v.4c0 .2-.1.3-.3.3h-.4c-.2 0-.3-.1-.3-.3v-.4c0-.1.2-.3.3-.3zm-4.2 0h.4c.2 0 .3.1.3.3v.4c0 .2-.1.3-.3.3h-.4c-.2 0-.3-.1-.3-.3v-.4c0-.1.1-.3.3-.3zm1.4 0h.4c.2 0 .3.1.3.3v.4c0 .2-.1.3-.3.3h-.4c-.2 0-.3-.1-.3-.3v-.4c0-.1.1-.3.3-.3zm1.4 0h.4c.2 0 .3.1.3.3v.4c0 .2-.1.3-.3.3h-.4c-.2 0-.3-.1-.3-.3v-.4c0-.1.2-.3.3-.3zm2.8 0h.4c.2 0 .3.1.3.3v.4c0 .2-.1.3-.3.3h-.4c-.2 0-.3-.1-.3-.3v-.4c0-.1.2-.3.3-.3zm1.5 0h.4c.2 0 .3.1.3.3v.4c0 .2-.1.3-.3.3h-.4c-.2 0-.3-.1-.3-.3v-.4c-.1-.1.1-.3.3-.3zm1.4 0h.4c.2 0 .3.1.3.3v.4c0 .2-.1.3-.3.3h-.4c-.2 0-.3-.1-.3-.3v-.4c-.1-.1.1-.3.3-.3zm4.2 0h.4c.2 0 .3.1.3.3v.4c0 .2-.1.3-.3.3h-.4c-.2 0-.3-.1-.3-.3v-.4c0-.1.1-.3.3-.3zm-2.8 0h.4c.2 0 .3.1.3.3v.4c0 .2-.1.3-.3.3h-.4c-.2 0-.3-.1-.3-.3v-.4c-.1-.1.1-.3.3-.3zm1.4 0h.4c.2 0 .3.1.3.3v.4c0 .2-.1.3-.3.3H76c-.2 0-.3-.1-.3-.3v-.4c-.1-.1.1-.3.3-.3zm2.8 0h.4c.2 0 .3.1.3.3v.4c0 .2-.1.3-.3.3h-.4c-.2 0-.3-.1-.3-.3v-.4c0-.1.1-.3.3-.3zm1.4 0h.4c.2 0 .3.1.3.3v.4c0 .2-.1.3-.3.3h-.4c-.2 0-.3-.1-.3-.3v-.4c0-.1.1-.3.3-.3zM52.1 32h.4c.2 0 .3.1.3.3v.4c0 .2-.1.3-.3.3h-.4c-.2 0-.3-.1-.3-.3v-.4c-.1-.2.1-.3.3-.3zm1.4 4.2h.4c.2 0 .3.1.3.3v.4c0 .2-.1.3-.3.3h-.4c-.2 0-.3-.1-.3-.3v-.4c-.1-.2.1-.3.3-.3zm1.4 0h.4c.2 0 .3.1.3.3v.4c0 .2-.1.3-.3.3h-.4c-.2 0-.3-.1-.3-.3v-.4c-.1-.2.1-.3.3-.3zm1.4 2.8h.4c.2 0 .3.1.3.3v.4c0 .2-.1.3-.3.3h-.4c-.2 0-.3-.1-.3-.3v-.4c-.1-.2.1-.3.3-.3zm1.4 0h.4c.2 0 .3.1.3.3v.4c0 .2-.1.3-.3.3h-.4c-.2 0-.3-.1-.3-.3v-.4c0-.2.1-.3.3-.3z"/><path class="st1" d="M50.6 33.4h.4c.2 0 .3.1.3.3v.4c0 .2-.1.3-.3.3h-.4c-.2 0-.3-.1-.3-.3v-.4c0-.2.2-.3.3-.3zm1.5 0h.4c.2 0 .3.1.3.3v.4c0 .2-.1.3-.3.3h-.4c-.2 0-.3-.1-.3-.3v-.4c-.1-.2.1-.3.3-.3zm0 1.4h.4c.2 0 .3.1.3.3v.4c0 .2-.1.3-.3.3h-.4c-.2 0-.3-.1-.3-.3v-.4c-.1-.2.1-.3.3-.3zm1.4 0h.4c.2 0 .3.1.3.3v.4c0 .2-.1.3-.3.3h-.4c-.2 0-.3-.1-.3-.3v-.4c-.1-.2.1-.3.3-.3zm1.4 0h.4c.2 0 .3.1.3.3v.4c0 .2-.1.3-.3.3h-.4c-.2 0-.3-.1-.3-.3v-.4c-.1-.2.1-.3.3-.3zm-1.4 2.8h.4c.2 0 .3.1.3.3v.4c0 .2-.1.3-.3.3h-.4c-.2 0-.3-.1-.3-.3v-.4c-.1-.2.1-.3.3-.3zm1.4 0h.4c.2 0 .3.1.3.3v.4c0 .2-.1.3-.3.3h-.4c-.2 0-.3-.1-.3-.3v-.4c-.1-.2.1-.3.3-.3zm1.4 0h.4c.2 0 .3.1.3.3v.4c0 .2-.1.3-.3.3h-.4c-.2 0-.3-.1-.3-.3v-.4c-.1-.2.1-.3.3-.3zm-1.4-4.2h.4c.2 0 .3.1.3.3v.4c0 .2-.1.3-.3.3h-.4c-.2 0-.3-.1-.3-.3v-.4c-.1-.2.1-.3.3-.3zm1.4 0h.4c.2 0 .3.1.3.3v.4c0 .2-.1.3-.3.3h-.4c-.2 0-.3-.1-.3-.3v-.4c-.1-.2.1-.3.3-.3zm1.4 0h.4c.2 0 .3.1.3.3v.4c0 .2-.1.3-.3.3h-.4c-.2 0-.3-.1-.3-.3v-.4c0-.2.1-.3.3-.3zM54.9 32h.4c.2 0 .3.1.3.3v.4c0 .2-.1.3-.3.3h-.4c-.2 0-.3-.1-.3-.3v-.4c-.1-.2.1-.3.3-.3zm1.4 0h.4c.2 0 .3.1.3.3v.4c0 .2-.1.3-.3.3h-.4c-.2 0-.3-.1-.3-.3v-.4c-.1-.2.1-.3.3-.3zm1.4 0h.4c.2 0 .3.1.3.3v.4c0 .2-.1.3-.3.3h-.4c-.2 0-.3-.1-.3-.3v-.4c0-.2.1-.3.3-.3zm1.4 0h.4c.2 0 .3.1.3.3v.4c0 .2-.1.3-.3.3h-.4c-.2 0-.3-.1-.3-.3v-.4c0-.2.1-.3.3-.3zm1.4 0h.4c.2 0 .3.1.3.3v.4c0 .2-.1.3-.3.3h-.4c-.2 0-.3-.1-.3-.3v-.4c0-.2.1-.3.3-.3zm1.4 0h.4c.2 0 .3.1.3.3v.4c0 .2-.1.3-.3.3h-.4c-.2 0-.3-.1-.3-.3v-.4c0-.2.1-.3.3-.3zm1.4 0h.4c.2 0 .3.1.3.3v.4c0 .2-.1.3-.3.3h-.4c-.2 0-.3-.1-.3-.3v-.4c0-.2.1-.3.3-.3zm1.4 0h.4c.2 0 .3.1.3.3v.4c0 .2-.1.3-.3.3h-.4c-.2 0-.3-.1-.3-.3v-.4c0-.2.1-.3.3-.3zm1.4 0h.4c.2 0 .3.1.3.3v.4c0 .2-.1.3-.3.3h-.4c-.2 0-.3-.1-.3-.3v-.4c0-.2.1-.3.3-.3zm5.7 0h.4c.2 0 .3.1.3.3v.4c0 .2-.1.3-.3.3h-.4c-.2 0-.3-.1-.3-.3v-.4c-.1-.2.1-.3.3-.3zm-4.3 0h.4c.2 0 .3.1.3.3v.4c0 .2-.1.3-.3.3h-.4c-.2 0-.3-.1-.3-.3v-.4c0-.2.2-.3.3-.3zm1.4 0h.4c.2 0 .3.1.3.3v.4c0 .2-.1.3-.3.3h-.4c-.2 0-.3-.1-.3-.3v-.4c0-.2.2-.3.3-.3zm1.4 0h.4c.2 0 .3.1.3.3v.4c0 .2-.1.3-.3.3h-.4c-.2 0-.3-.1-.3-.3v-.4c0-.2.2-.3.3-.3zm2.9 0h.4c.2 0 .3.1.3.3v.4c0 .2-.1.3-.3.3h-.4c-.2 0-.3-.1-.3-.3v-.4c-.1-.2.1-.3.3-.3zm1.4 0h.4c.2 0 .3.1.3.3v.4c0 .2-.1.3-.3.3h-.4c-.2 0-.3-.1-.3-.3v-.4c-.1-.2.1-.3.3-.3zm1.4 0h.4c.2 0 .3.1.3.3v.4c0 .2-.1.3-.3.3H76c-.2 0-.3-.1-.3-.3v-.4c-.1-.2.1-.3.3-.3zm4.2 0h.4c.2 0 .3.1.3.3v.4c0 .2-.1.3-.3.3h-.4c-.2 0-.3-.1-.3-.3v-.4c0-.2.1-.3.3-.3zm-2.8 0h.4c.2 0 .3.1.3.3v.4c0 .2-.1.3-.3.3h-.4c-.2 0-.3-.1-.3-.3v-.4c0-.2.1-.3.3-.3zm1.4 0h.4c.2 0 .3.1.3.3v.4c0 .2-.1.3-.3.3h-.4c-.2 0-.3-.1-.3-.3v-.4c0-.2.1-.3.3-.3zm2.8 0h.4c.2 0 .3.1.3.3v.4c0 .2-.1.3-.3.3h-.4c-.2 0-.3-.1-.3-.3v-.4c0-.2.1-.3.3-.3zm1.4 0h.4c.2 0 .3.1.3.3v.4c0 .2-.1.3-.3.3H83c-.2 0-.3-.1-.3-.3v-.4c0-.2.1-.3.3-.3zm1.4 0h.4c.2 0 .3.1.3.3v.4c0 .2-.1.3-.3.3h-.4c-.2 0-.3-.1-.3-.3v-.4c0-.2.1-.3.3-.3zm-23.9 1.4h.4c.2 0 .3.1.3.3v.4c0 .2-.1.3-.3.3h-.4c-.2 0-.3-.1-.3-.3v-.4c0-.2.1-.3.3-.3zm1.4 0h.4c.2 0 .3.1.3.3v.4c0 .2-.1.3-.3.3h-.4c-.2 0-.3-.1-.3-.3v-.4c0-.2.1-.3.3-.3zm1.4 0h.4c.2 0 .3.1.3.3v.4c0 .2-.1.3-.3.3h-.4c-.2 0-.3-.1-.3-.3v-.4c0-.2.1-.3.3-.3zm1.4 0h.4c.2 0 .3.1.3.3v.4c0 .2-.1.3-.3.3h-.4c-.2 0-.3-.1-.3-.3v-.4c0-.2.1-.3.3-.3zm1.4 0h.4c.2 0 .3.1.3.3v.4c0 .2-.1.3-.3.3h-.4c-.2 0-.3-.1-.3-.3v-.4c0-.2.1-.3.3-.3zm1.4 0h.4c.2 0 .3.1.3.3v.4c0 .2-.1.3-.3.3h-.4c-.2 0-.3-.1-.3-.3v-.4c0-.2.2-.3.3-.3zm1.4 0h.4c.2 0 .3.1.3.3v.4c0 .2-.1.3-.3.3h-.4c-.2 0-.3-.1-.3-.3v-.4c0-.2.2-.3.3-.3zm1.4 0h.4c.2 0 .3.1.3.3v.4c0 .2-.1.3-.3.3h-.4c-.2 0-.3-.1-.3-.3v-.4c0-.2.2-.3.3-.3zm1.5 0h.4c.2 0 .3.1.3.3v.4c0 .2-.1.3-.3.3h-.4c-.2 0-.3-.1-.3-.3v-.4c-.1-.2.1-.3.3-.3zm5.6 0h.4c.2 0 .3.1.3.3v.4c0 .2-.1.3-.3.3h-.4c-.2 0-.3-.1-.3-.3v-.4c0-.2.1-.3.3-.3zm-4.2 0h.4c.2 0 .3.1.3.3v.4c0 .2-.1.3-.3.3h-.4c-.2 0-.3-.1-.3-.3v-.4c-.1-.2.1-.3.3-.3zm1.4 0h.4c.2 0 .3.1.3.3v.4c0 .2-.1.3-.3.3h-.4c-.2 0-.3-.1-.3-.3v-.4c-.1-.2.1-.3.3-.3zm1.4 0h.4c.2 0 .3.1.3.3v.4c0 .2-.1.3-.3.3H76c-.2 0-.3-.1-.3-.3v-.4c-.1-.2.1-.3.3-.3zm2.8 0h.4c.2 0 .3.1.3.3v.4c0 .2-.1.3-.3.3h-.4c-.2 0-.3-.1-.3-.3v-.4c0-.2.1-.3.3-.3zm1.4 0h.4c.2 0 .3.1.3.3v.4c0 .2-.1.3-.3.3h-.4c-.2 0-.3-.1-.3-.3v-.4c0-.2.1-.3.3-.3zm1.4 0h.4c.2 0 .3.1.3.3v.4c0 .2-.1.3-.3.3h-.4c-.2 0-.3-.1-.3-.3v-.4c0-.2.1-.3.3-.3zm-16.9 1.4h.4c.2 0 .3.1.3.3v.4c0 .2-.1.3-.3.3h-.4c-.2 0-.3-.1-.3-.3v-.4c0-.2.1-.3.3-.3zm1.4 0h.4c.2 0 .3.1.3.3v.4c0 .2-.1.3-.3.3h-.4c-.2 0-.3-.1-.3-.3v-.4c0-.2.1-.3.3-.3zm1.4 0h.4c.2 0 .3.1.3.3v.4c0 .2-.1.3-.3.3h-.4c-.2 0-.3-.1-.3-.3v-.4c0-.2.2-.3.3-.3zm1.4 0h.4c.2 0 .3.1.3.3v.4c0 .2-.1.3-.3.3h-.4c-.2 0-.3-.1-.3-.3v-.4c0-.2.2-.3.3-.3zm1.4 0h.4c.2 0 .3.1.3.3v.4c0 .2-.1.3-.3.3h-.4c-.2 0-.3-.1-.3-.3v-.4c0-.2.2-.3.3-.3zm1.5 0h.4c.2 0 .3.1.3.3v.4c0 .2-.1.3-.3.3h-.4c-.2 0-.3-.1-.3-.3v-.4c-.1-.2.1-.3.3-.3zm1.4 0h.4c.2 0 .3.1.3.3v.4c0 .2-.1.3-.3.3h-.4c-.2 0-.3-.1-.3-.3v-.4c-.1-.2.1-.3.3-.3zm1.4 0h.4c.2 0 .3.1.3.3v.4c0 .2-.1.3-.3.3h-.4c-.2 0-.3-.1-.3-.3v-.4c-.1-.2.1-.3.3-.3zm1.4 0h.4c.2 0 .3.1.3.3v.4c0 .2-.1.3-.3.3H76c-.2 0-.3-.1-.3-.3v-.4c-.1-.2.1-.3.3-.3zm5.6 0h.4c.2 0 .3.1.3.3v.4c0 .2-.1.3-.3.3h-.4c-.2 0-.3-.1-.3-.3v-.4c0-.2.1-.3.3-.3zm-4.2 0h.4c.2 0 .3.1.3.3v.4c0 .2-.1.3-.3.3h-.4c-.2 0-.3-.1-.3-.3v-.4c0-.2.1-.3.3-.3zm1.4 0h.4c.2 0 .3.1.3.3v.4c0 .2-.1.3-.3.3h-.4c-.2 0-.3-.1-.3-.3v-.4c0-.2.1-.3.3-.3zm1.4 0h.4c.2 0 .3.1.3.3v.4c0 .2-.1.3-.3.3h-.4c-.2 0-.3-.1-.3-.3v-.4c0-.2.1-.3.3-.3zm4.2 0h.4c.2 0 .3.1.3.3v.4c0 .2-.1.3-.3.3h-.4c-.2 0-.3-.1-.3-.3v-.4c0-.2.1-.3.3-.3zm1.4 0h.4c.2 0 .3.1.3.3v.4c0 .2-.1.3-.3.3h-.4c-.2 0-.3-.1-.3-.3v-.4c0-.2.1-.3.3-.3zm-15.5 1.4h.4c.2 0 .3.1.3.3v.4c0 .2-.1.3-.3.3h-.4c-.2 0-.3-.1-.3-.3v-.4c0-.2.2-.3.3-.3zm1.5 0h.4c.2 0 .3.1.3.3v.4c0 .2-.1.3-.3.3h-.4c-.2 0-.3-.1-.3-.3v-.4c-.1-.2.1-.3.3-.3zm1.4 0h.4c.2 0 .3.1.3.3v.4c0 .2-.1.3-.3.3h-.4c-.2 0-.3-.1-.3-.3v-.4c-.1-.2.1-.3.3-.3zm1.4 0h.4c.2 0 .3.1.3.3v.4c0 .2-.1.3-.3.3h-.4c-.2 0-.3-.1-.3-.3v-.4c-.1-.2.1-.3.3-.3zm1.4 0h.4c.2 0 .3.1.3.3v.4c0 .2-.1.3-.3.3H76c-.2 0-.3-.1-.3-.3v-.4c-.1-.2.1-.3.3-.3zm1.4 0h.4c.2 0 .3.1.3.3v.4c0 .2-.1.3-.3.3h-.4c-.2 0-.3-.1-.3-.3v-.4c0-.2.1-.3.3-.3zm1.4 0h.4c.2 0 .3.1.3.3v.4c0 .2-.1.3-.3.3h-.4c-.2 0-.3-.1-.3-.3v-.4c0-.2.1-.3.3-.3zm1.4 0h.4c.2 0 .3.1.3.3v.4c0 .2-.1.3-.3.3h-.4c-.2 0-.3-.1-.3-.3v-.4c0-.2.1-.3.3-.3zm1.4 0h.4c.2 0 .3.1.3.3v.4c0 .2-.1.3-.3.3h-.4c-.2 0-.3-.1-.3-.3v-.4c0-.2.1-.3.3-.3zm5.6 0h.4c.2 0 .3.1.3.3v.4c0 .2-.1.3-.3.3h-.4c-.2 0-.3-.1-.3-.3v-.4c0-.2.2-.3.3-.3zm-2.8 0h.4c.2 0 .3.1.3.3v.4c0 .2-.1.3-.3.3h-.4c-.2 0-.3-.1-.3-.3v-.4c0-.2.1-.3.3-.3zm1.4 0h.4c.2 0 .3.1.3.3v.4c0 .2-.1.3-.3.3h-.4c-.2 0-.3-.1-.3-.3v-.4c0-.2.1-.3.3-.3zm-1.4 1.4h.4c.2 0 .3.1.3.3v.4c0 .2-.1.3-.3.3h-.4c-.2 0-.3-.1-.3-.3v-.4c0-.2.1-.3.3-.3zm0-4.2h.4c.2 0 .3.1.3.3v.4c0 .2-.1.3-.3.3h-.4c-.2 0-.3-.1-.3-.3v-.4c0-.2.1-.3.3-.3zm1.4 0h.4c.2 0 .3.1.3.3v.4c0 .2-.1.3-.3.3h-.4c-.2 0-.3-.1-.3-.3v-.4c0-.2.1-.3.3-.3zm-12.6 4.2h.4c.2 0 .3.1.3.3v.4c0 .2-.1.3-.3.3h-.4c-.2 0-.3-.1-.3-.3v-.4c-.1-.2.1-.3.3-.3zm1.4 0h.4c.2 0 .3.1.3.3v.4c0 .2-.1.3-.3.3h-.4c-.2 0-.3-.1-.3-.3v-.4c-.1-.2.1-.3.3-.3zm1.4 0h.4c.2 0 .3.1.3.3v.4c0 .2-.1.3-.3.3H76c-.2 0-.3-.1-.3-.3v-.4c-.1-.2.1-.3.3-.3zm1.4 0h.4c.2 0 .3.1.3.3v.4c0 .2-.1.3-.3.3h-.4c-.2 0-.3-.1-.3-.3v-.4c0-.2.1-.3.3-.3zm1.4 0h.4c.2 0 .3.1.3.3v.4c0 .2-.1.3-.3.3h-.4c-.2 0-.3-.1-.3-.3v-.4c0-.2.1-.3.3-.3zm1.4 0h.4c.2 0 .3.1.3.3v.4c0 .2-.1.3-.3.3h-.4c-.2 0-.3-.1-.3-.3v-.4c0-.2.1-.3.3-.3zm1.4 0h.4c.2 0 .3.1.3.3v.4c0 .2-.1.3-.3.3h-.4c-.2 0-.3-.1-.3-.3v-.4c0-.2.1-.3.3-.3zm4.2 1.4h.4c.2 0 .3.1.3.3v.4c0 .2-.1.3-.3.3h-.4c-.2 0-.3-.1-.3-.3v-.4c0-.2.1-.3.3-.3zm0-1.4h.4c.2 0 .3.1.3.3v.4c0 .2-.1.3-.3.3h-.4c-.2 0-.3-.1-.3-.3v-.4c0-.2.1-.3.3-.3zm1.4 0h.4c.2 0 .3.1.3.3v.4c0 .2-.1.3-.3.3h-.4c-.2 0-.3-.1-.3-.3v-.4c0-.2.2-.3.3-.3zM84.4 39h.4c.2 0 .3.1.3.3v.4c0 .2-.1.3-.3.3h-.4c-.2 0-.3-.1-.3-.3v-.4c0-.2.1-.3.3-.3zm2.8 0h.4c.2 0 .3.1.3.3v.4c0 .2-.1.3-.3.3h-.4c-.2 0-.3-.1-.3-.3v-.4c0-.2.2-.3.3-.3zm1.4 0h.4c.2 0 .3.1.3.3v.4c0 .2-.1.3-.3.3h-.4c-.2 0-.3-.1-.3-.3v-.4c0-.2.2-.3.3-.3zm0 4.2h.4c.2 0 .3.1.3.3v.4c0 .2-.1.3-.3.3h-.4c-.2 0-.3-.1-.3-.3v-.4c0-.1.2-.3.3-.3zm-1.4-2.8h.4c.2 0 .3.1.3.3v.4c0 .2-.1.3-.3.3h-.4c-.2 0-.3-.1-.3-.3v-.4c0-.2.2-.3.3-.3zm-1.4 0h.4c.2 0 .3.1.3.3v.4c0 .2-.1.3-.3.3h-.4c-.2 0-.3-.1-.3-.3v-.4c0-.2.1-.3.3-.3zm2.8 0h.4c.2 0 .3.1.3.3v.4c0 .2-.1.3-.3.3h-.4c-.2 0-.3-.1-.3-.3v-.4c0-.2.2-.3.3-.3zm0 1.4h.4c.2 0 .3.1.3.3v.4c0 .2-.1.3-.3.3h-.4c-.2 0-.3-.1-.3-.3v-.4c0-.1.2-.3.3-.3zm-1.4 0h.4c.2 0 .3.1.3.3v.4c0 .2-.1.3-.3.3h-.4c-.2 0-.3-.1-.3-.3v-.4c0-.1.2-.3.3-.3zm2.8 0h.4c.2 0 .3.1.3.3v.4c0 .2-.1.3-.3.3H90c-.2 0-.3-.1-.3-.3v-.4c0-.1.2-.3.3-.3zM73.2 39h.4c.2 0 .3.1.3.3v.4c0 .2-.1.3-.3.3h-.4c-.2 0-.3-.1-.3-.3v-.4c-.1-.2.1-.3.3-.3zm1.4 0h.4c.2 0 .3.1.3.3v.4c0 .2-.1.3-.3.3h-.4c-.2 0-.3-.1-.3-.3v-.4c-.1-.2.1-.3.3-.3zm1.4 0h.4c.2 0 .3.1.3.3v.4c0 .2-.1.3-.3.3H76c-.2 0-.3-.1-.3-.3v-.4c-.1-.2.1-.3.3-.3zm1.4 0h.4c.2 0 .3.1.3.3v.4c0 .2-.1.3-.3.3h-.4c-.2 0-.3-.1-.3-.3v-.4c0-.2.1-.3.3-.3zm1.4 0h.4c.2 0 .3.1.3.3v.4c0 .2-.1.3-.3.3h-.4c-.2 0-.3-.1-.3-.3v-.4c0-.2.1-.3.3-.3zm1.4 0h.4c.2 0 .3.1.3.3v.4c0 .2-.1.3-.3.3h-.4c-.2 0-.3-.1-.3-.3v-.4c0-.2.1-.3.3-.3zm-5.6 1.4h.4c.2 0 .3.1.3.3v.4c0 .2-.1.3-.3.3h-.4c-.2 0-.3-.1-.3-.3v-.4c-.1-.2.1-.3.3-.3zm1.4 0h.4c.2 0 .3.1.3.3v.4c0 .2-.1.3-.3.3H76c-.2 0-.3-.1-.3-.3v-.4c-.1-.2.1-.3.3-.3zm1.4 0h.4c.2 0 .3.1.3.3v.4c0 .2-.1.3-.3.3h-.4c-.2 0-.3-.1-.3-.3v-.4c0-.2.1-.3.3-.3zm1.4 0h.4c.2 0 .3.1.3.3v.4c0 .2-.1.3-.3.3h-.4c-.2 0-.3-.1-.3-.3v-.4c0-.2.1-.3.3-.3zm1.4 0h.4c.2 0 .3.1.3.3v.4c0 .2-.1.3-.3.3h-.4c-.2 0-.3-.1-.3-.3v-.4c0-.2.1-.3.3-.3zM76 41.8h.4c.2 0 .3.1.3.3v.4c0 .2-.1.3-.3.3H76c-.2 0-.3-.1-.3-.3v-.4c-.1-.1.1-.3.3-.3zm1.4 0h.4c.2 0 .3.1.3.3v.4c0 .2-.1.3-.3.3h-.4c-.2 0-.3-.1-.3-.3v-.4c0-.1.1-.3.3-.3zm1.4 0h.4c.2 0 .3.1.3.3v.4c0 .2-.1.3-.3.3h-.4c-.2 0-.3-.1-.3-.3v-.4c0-.1.1-.3.3-.3zm1.4 0h.4c.2 0 .3.1.3.3v.4c0 .2-.1.3-.3.3h-.4c-.2 0-.3-.1-.3-.3v-.4c0-.1.1-.3.3-.3zm1.4 0h.4c.2 0 .3.1.3.3v.4c0 .2-.1.3-.3.3h-.4c-.2 0-.3-.1-.3-.3v-.4c0-.1.1-.3.3-.3zM76 43.2h.4c.2 0 .3.1.3.3v.4c0 .2-.1.3-.3.3H76c-.2 0-.3-.1-.3-.3v-.4c-.1-.1.1-.3.3-.3zm1.4 0h.4c.2 0 .3.1.3.3v.4c0 .2-.1.3-.3.3h-.4c-.2 0-.3-.1-.3-.3v-.4c0-.1.1-.3.3-.3zm4.2 5.6h.4c.2 0 .3.1.3.3v.4c0 .2-.1.3-.3.3h-.4c-.2 0-.3-.1-.3-.3v-.4c0-.1.1-.3.3-.3zm0-1.4h.4c.2 0 .3.1.3.3v.4c0 .2-.1.3-.3.3h-.4c-.2 0-.3-.1-.3-.3v-.4c0-.1.1-.3.3-.3zm0-4.2h.4c.2 0 .3.1.3.3v.4c0 .2-.1.3-.3.3h-.4c-.2 0-.3-.1-.3-.3v-.4c0-.1.1-.3.3-.3zM76 44.6h.4c.2 0 .3.1.3.3v.4c0 .2-.1.3-.3.3H76c-.2 0-.3-.1-.3-.3v-.4c-.1-.1.1-.3.3-.3zm1.4 0h.4c.2 0 .3.1.3.3v.4c0 .2-.1.3-.3.3h-.4c-.2 0-.3-.1-.3-.3v-.4c0-.1.1-.3.3-.3zm2.8 7.1h.4c.2 0 .3.1.3.3v.4c0 .2-.1.3-.3.3h-.4c-.2 0-.3-.1-.3-.3V52c0-.2.1-.3.3-.3zm0-1.5h.4c.2 0 .3.1.3.3v.5c0 .2-.1.3-.3.3h-.4c-.2 0-.3-.1-.3-.3v-.4c0-.2.1-.4.3-.4zm1.4-5.6h.4c.2 0 .3.1.3.3v.4c0 .2-.1.3-.3.3h-.4c-.2 0-.3-.1-.3-.3v-.4c0-.1.1-.3.3-.3zm-7 1.4h.4c.2 0 .3.1.3.3v.4c0 .2-.1.3-.3.3h-.4c-.2 0-.3-.1-.3-.3v-.4c-.1-.1.1-.3.3-.3zm1.4 0h.4c.2 0 .3.1.3.3v.4c0 .2-.1.3-.3.3H76c-.2 0-.3-.1-.3-.3v-.4c-.1-.1.1-.3.3-.3zm4.2-1.4h.4c.2 0 .3.1.3.3v.4c0 .2-.1.3-.3.3h-.4c-.2 0-.3-.1-.3-.3v-.4c0-.1.1-.3.3-.3zm0-1.4h.4c.2 0 .3.1.3.3v.4c0 .2-.1.3-.3.3h-.4c-.2 0-.3-.1-.3-.3v-.4c0-.1.1-.3.3-.3zm1.4 2.8h.4c.2 0 .3.1.3.3v.4c0 .2-.1.3-.3.3h-.4c-.2 0-.3-.1-.3-.3v-.4c0-.1.1-.3.3-.3zm-8.4 1.4h.4c.2 0 .3.1.3.3v.4c0 .2-.1.3-.3.3h-.4c-.2 0-.3-.1-.3-.3v-.4c-.1-.1.1-.3.3-.3zm1.4 0h.4c.2 0 .3.1.3.3v.4c0 .2-.1.3-.3.3h-.4c-.2 0-.3-.1-.3-.3v-.4c-.1-.1.1-.3.3-.3zm4.2 2.8h.4c.2 0 .3.1.3.3v.5c0 .2-.1.3-.3.3h-.4c-.2 0-.3-.1-.3-.3v-.4c0-.2.1-.4.3-.4zm1.4-2.8h.4c.2 0 .3.1.3.3v.4c0 .2-.1.3-.3.3h-.4c-.2 0-.3-.1-.3-.3v-.4c0-.1.1-.3.3-.3zm0-1.4h.4c.2 0 .3.1.3.3v.4c0 .2-.1.3-.3.3h-.4c-.2 0-.3-.1-.3-.3v-.4c0-.1.1-.3.3-.3zm0 2.8h.4c.2 0 .3.1.3.3v.4c0 .2-.1.3-.3.3h-.4c-.2 0-.3-.1-.3-.3v-.4c0-.1.1-.3.3-.3zm-8.4 0h.4c.2 0 .3.1.3.3v.4c0 .2-.1.3-.3.3h-.4c-.2 0-.3-.1-.3-.3v-.4c-.1-.1.1-.3.3-.3zm1.4 0h.4c.2 0 .3.1.3.3v.4c0 .2-.1.3-.3.3h-.4c-.2 0-.3-.1-.3-.3v-.4c-.1-.1.1-.3.3-.3zm-1.4 1.4h.4c.2 0 .3.1.3.3v.5c0 .2-.1.3-.3.3h-.4c-.2 0-.3-.1-.3-.3v-.4c-.1-.2.1-.4.3-.4zm1.4 0h.4c.2 0 .3.1.3.3v.5c0 .2-.1.3-.3.3h-.4c-.2 0-.3-.1-.3-.3v-.4c-.1-.2.1-.4.3-.4zm-2.9 1.5h.4c.2 0 .3.1.3.3v.4c0 .2-.1.3-.3.3h-.4c-.2 0-.3-.1-.3-.3V52c0-.2.2-.3.3-.3zm1.5 0h.4c.2 0 .3.1.3.3v.4c0 .2-.1.3-.3.3h-.4c-.2 0-.3-.1-.3-.3V52c-.1-.2.1-.3.3-.3zm7 0h.4c.2 0 .3.1.3.3v.4c0 .2-.1.3-.3.3h-.4c-.2 0-.3-.1-.3-.3V52c0-.2.1-.3.3-.3zM67.5 22.1h.4c.2 0 .3.1.3.3v.4c0 .2-.1.3-.3.3h-.4c-.2 0-.3-.1-.3-.3v-.4c0-.1.2-.3.3-.3zm1.4 2.8h.4c.2 0 .3.1.3.3v.4c0 .2-.1.3-.3.3h-.4c-.2 0-.3-.1-.3-.3v-.4c0-.1.2-.3.3-.3zm1.4 1.4h.4c.2 0 .3.1.3.3v.4c0 .2-.1.3-.3.3h-.4c-.2 0-.3-.1-.3-.3v-.4c0-.1.2-.3.3-.3zm-15.4 2.8h.4c.2 0 .3.1.3.3v.4c0 .2-.1.3-.3.3h-.4c-.2 0-.3-.1-.3-.3v-.4c-.1-.1.1-.3.3-.3zM50.6 32h.4c.2 0 .3.1.3.3v.4c0 .2-.1.3-.3.3h-.4c-.2 0-.3-.1-.3-.3v-.4c0-.2.2-.3.3-.3zm2.9-2.9h.4c.2 0 .3.1.3.3v.4c0 .2-.1.3-.3.3h-.4c-.2 0-.3-.1-.3-.3v-.4c-.1-.1.1-.3.3-.3z"/><text transform="translate(99.743 38.681)" class="st1" letter-spacing="2" font-size="25" font-family="PTSans-Narrow">Schul-Cloud</text></svg>