<svg xmlns="http://www.w3.org/2000/svg" width="239" height="60" fill-rule="evenodd"><path d="M81.936 31.161c0 .537-.225.805-.674.805-.342 0-.626-.167-.852-.5l-6.51-9.61v9.305c0 .513-.254.77-.763.77-.498 0-.746-.268-.746-.805V19.804c0-.557.213-.836.64-.836.336 0 .626.178.869.536l6.492 9.573h.017V19.84c0-.235.069-.433.206-.594s.318-.241.541-.241c.521 0 .781.279.781.836v11.321m3.694-11.18a.97.97 0 01-.278.687c-.185.197-.405.296-.66.296s-.481-.098-.67-.294a.96.96 0 01-.284-.689.95.95 0 01.282-.689.905.905 0 01.672-.289.88.88 0 01.662.292.964.964 0 01.275.687zm-.174 11.142c0 .538-.254.806-.763.806a.69.69 0 01-.539-.231.83.83 0 01-.208-.575v-8.087c0-.561.249-.841.746-.841.509 0 .763.269.763.806v8.122zm9.559-4.205c0 .512-.283.768-.848.768h-5.763c.023 1.238.491 2.088 1.407 2.55a3.06 3.06 0 001.402.32c.87 0 1.698-.322 2.483-.966.229-.189.42-.284.572-.284.359 0 .538.22.538.661a.844.844 0 01-.225.57c-.319.362-.799.687-1.441.974a4.873 4.873 0 01-2.012.418c-1.452 0-2.552-.533-3.301-1.6-.638-.91-.968-1.997-.987-3.261a.546.546 0 00.034-.087c.076-1.814.725-3.177 1.945-4.089.613-.459 1.325-.692 2.136-.698a3.545 3.545 0 012.123.664c.613.431 1.09 1.018 1.432 1.763a5.45 5.45 0 01.504 2.296zm-1.527-.426c-.017-.871-.243-1.573-.678-2.105-.443-.538-1.039-.811-1.788-.819-.763-.009-1.381.245-1.855.763s-.729 1.238-.763 2.161h5.084zm10.555 4.633c0 .536-.26.804-.781.804a.71.71 0 01-.53-.224.755.755 0 01-.216-.545v-.513h-.034c-.164.342-.431.636-.8.882-.39.258-.892.391-1.508.4a3.66 3.66 0 01-2.139-.614c-.616-.41-1.091-.981-1.428-1.714-.344-.744-.521-1.575-.53-2.493a6.12 6.12 0 01.284-1.901c.389-1.241 1.07-2.119 2.042-2.633a3.34 3.34 0 011.58-.379c1.036 0 1.87.433 2.499 1.301h.034V18.84c0-.521.249-.781.746-.781.521 0 .781.273.781.817v12.25zm-1.354-4.057a4.705 4.705 0 00-.322-1.833c-.452-1.112-1.189-1.668-2.212-1.668-1.099 0-1.853.608-2.263 1.825a5.225 5.225 0 00-.288 1.642c-.008.947.194 1.766.606 2.458s1.014 1.047 1.805 1.064c.622.014 1.138-.156 1.551-.513a2.79 2.79 0 00.847-1.294 5.59 5.59 0 00.275-1.681zm11.004-.15c0 .512-.283.768-.848.768h-5.763c.023 1.238.491 2.088 1.407 2.55a3.06 3.06 0 001.402.32c.87 0 1.698-.322 2.483-.966.229-.189.42-.284.572-.284.359 0 .538.22.538.661a.844.844 0 01-.225.57c-.319.362-.799.687-1.441.974a4.873 4.873 0 01-2.012.418c-1.452 0-2.552-.533-3.301-1.6-.638-.91-.968-1.997-.987-3.261a.66.66 0 00.034-.087c.076-1.814.725-3.177 1.945-4.089.613-.459 1.325-.692 2.136-.698a3.55 3.55 0 012.123.664c.613.431 1.091 1.018 1.432 1.763a5.45 5.45 0 01.504 2.296zm-1.527-.426c-.017-.871-.243-1.573-.678-2.105-.443-.538-1.039-.811-1.788-.819-.762-.009-1.381.245-1.855.763s-.729 1.238-.763 2.161h5.084zm7.448-3.491c0 .424-.35.73-1.051.916-.339.093-.561.169-.666.227-.822.462-1.233 1.253-1.233 2.371v4.608c0 .538-.243.806-.73.806-.52 0-.78-.28-.78-.84v-8.037c0-.537.249-.805.746-.805.509 0 .763.268.763.804v.8h.034c.226-.416.526-.794.899-1.132s.758-.514 1.153-.526c.22-.006.42.07.597.227a.74.74 0 01.267.58m7.236 6.148a2.643 2.643 0 01-.398 1.354c-.254.418-.635.757-1.144 1.018-.523.27-1.148.406-1.877.409-1.2.006-2.206-.345-3.016-1.053-.238-.168-.377-.423-.42-.766a.69.69 0 01.191-.493.62.62 0 01.47-.202c.218 0 .548.162.992.485.215.16.37.262.466.305.373.217.801.335 1.284.352a2.5 2.5 0 001.318-.313c.381-.209.572-.538.572-.988 0-.421-.236-.776-.708-1.067-.299-.183-.745-.396-1.336-.64l-1.31-.57c-.475-.252-.847-.547-1.117-.883s-.405-.758-.405-1.263c0-1.001.482-1.75 1.446-2.246a3.54 3.54 0 011.572-.392 4.455 4.455 0 011.645.294c.548.205.938.424 1.17.658.243.245.364.491.364.736a.64.64 0 01-.204.476.77.77 0 01-.477.226c-.201-.052-.484-.183-.846-.392l-.842-.48a1.555 1.555 0 00-.664-.144c-.539-.009-.95.104-1.234.337s-.435.519-.455.855c.093.519.48.936 1.161 1.25.283.133.628.27 1.033.409l.834.322c.698.299 1.192.633 1.484 1.001.309.392.459.86.451 1.406m9.093 1.974c0 .538-.237.806-.712.806s-.711-.243-.711-.73v-.696h-.052c-.659.936-1.462 1.411-2.408 1.426a3.81 3.81 0 01-2.116-.597c-1.357-.846-2.036-2.254-2.036-4.224 0-2.087.704-3.544 2.112-4.373.611-.36 1.228-.54 1.85-.54 1.008 0 1.874.433 2.598 1.301h.052v-.525a.8.8 0 01.199-.553.657.657 0 01.512-.223c.474 0 .712.269.712.806v8.122zm-1.455-4.054c0-1.462-.398-2.489-1.195-3.08a2.146 2.146 0 00-1.306-.421h-.034c-.806 0-1.427.336-1.865 1.008-.424.652-.641 1.483-.653 2.493a5.053 5.053 0 00.275 1.712c.407 1.184 1.13 1.777 2.17 1.777.916 0 1.598-.362 2.048-1.086.373-.602.559-1.403.559-2.402zm.188-6.978a.9.9 0 01-.282.671.93.93 0 01-.672.274c-.263 0-.485-.091-.666-.272s-.271-.406-.271-.673a.98.98 0 01.265-.7.886.886 0 01.672-.281.91.91 0 01.681.281c.182.187.273.42.273.7zm-3.245 0c0 .264-.089.488-.267.671s-.396.274-.653.274a.93.93 0 01-.674-.272.9.9 0 01-.28-.673c0-.282.09-.516.271-.702s.409-.279.683-.279a.85.85 0 01.659.286.994.994 0 01.261.695zm12.758 3.329c0 .404-.226.625-.678.663l-.89-.321c-.353-.118-.659-.177-.916-.177-1.077 0-1.842.579-2.297 1.738a4.6 4.6 0 00-.339 1.624 5.127 5.127 0 00.538 2.384c.359.731.972 1.145 1.84 1.244a.72.72 0 01.258.035 2.7 2.7 0 00.767-.157l.356-.153.335-.153a.915.915 0 01.386-.109c.381 0 .572.221.572.661 0 .467-.308.806-.923 1.017-.415.142-.912.213-1.492.213-1.695 0-2.908-.772-3.64-2.315a5.506 5.506 0 01-.525-2.328 7.17 7.17 0 01.241-1.909c.339-1.288 1.013-2.2 2.021-2.738a3.97 3.97 0 011.835-.444c.607-.009 1.145.079 1.614.264.446.179.736.385.869.619.045.146.068.26.068.342m8.779 7.703c0 .538-.254.806-.763.806a.69.69 0 01-.539-.231.825.825 0 01-.208-.575v-5.189c0-.679-.191-1.24-.572-1.685s-.897-.672-1.546-.683a2.15 2.15 0 00-1.072.266c-.731.392-1.097 1.081-1.097 2.068v5.223c0 .537-.254.805-.763.805a.69.69 0 01-.539-.23.824.824 0 01-.208-.574v-12.25c0-.545.249-.817.746-.817.509 0 .763.272.763.816l.034 4.587a2.88 2.88 0 012.483-1.266c1.282 0 2.233.587 2.852 1.761a3.71 3.71 0 01.428 1.757v5.41m8.242-1.974a2.643 2.643 0 01-.398 1.354c-.254.418-.636.757-1.144 1.018-.523.27-1.148.406-1.877.409-1.2.006-2.206-.345-3.016-1.053-.238-.168-.377-.423-.42-.766a.69.69 0 01.191-.493.62.62 0 01.47-.202c.218 0 .548.162.992.485.215.16.37.262.466.305.373.217.801.335 1.284.352a2.5 2.5 0 001.318-.313c.381-.209.572-.538.572-.988 0-.421-.236-.776-.708-1.067-.299-.183-.745-.396-1.336-.64l-1.31-.57c-.475-.252-.847-.547-1.117-.883s-.405-.758-.405-1.263c0-1.001.482-1.75 1.446-2.246a3.54 3.54 0 011.572-.392 4.455 4.455 0 011.645.294c.548.205.938.424 1.17.658.243.245.364.491.364.736a.64.64 0 01-.204.476.77.77 0 01-.476.226c-.202-.052-.484-.183-.847-.392l-.842-.48a1.555 1.555 0 00-.664-.144c-.539-.009-.95.104-1.234.337s-.435.519-.455.855c.094.519.481.936 1.161 1.25.284.133.628.27 1.033.409l.834.322c.698.299 1.192.633 1.484 1.001.309.392.459.86.451 1.406m3.14-9.168c0 .261-.093.49-.278.687s-.405.296-.66.296-.48-.098-.67-.294a.96.96 0 01-.284-.689.95.95 0 01.282-.689.905.905 0 01.672-.289.88.88 0 01.662.292.965.965 0 01.276.687zm-.174 11.142c0 .538-.254.806-.763.806a.69.69 0 01-.539-.231.826.826 0 01-.208-.575v-8.087c0-.561.249-.841.746-.841.509 0 .763.269.763.806v8.122zm8.241-1.975a2.652 2.652 0 01-.398 1.354c-.254.418-.635.757-1.144 1.018-.523.27-1.148.406-1.877.409-1.2.006-2.206-.345-3.016-1.053-.238-.168-.377-.423-.42-.766a.69.69 0 01.191-.493.62.62 0 01.471-.202c.217 0 .548.162.992.485.215.16.37.262.466.305a2.7 2.7 0 001.284.352 2.5 2.5 0 001.318-.313c.381-.209.572-.538.572-.988 0-.421-.236-.776-.708-1.067-.299-.183-.745-.396-1.336-.64l-1.31-.57c-.475-.252-.847-.547-1.117-.883s-.405-.758-.405-1.263c0-1.001.482-1.75 1.445-2.246a3.54 3.54 0 011.572-.392 4.452 4.452 0 011.645.294c.548.205.938.424 1.17.658.243.245.364.491.364.736a.64.64 0 01-.204.476.77.77 0 01-.476.226c-.201-.052-.484-.183-.847-.392l-.842-.48a1.55 1.55 0 00-.664-.144c-.539-.009-.95.104-1.234.337s-.435.519-.455.855c.094.519.481.936 1.161 1.25.284.133.628.27 1.033.409l.834.322c.698.299 1.192.633 1.484 1.001.309.392.459.86.451 1.406m7.688-5.729c0 .404-.226.625-.678.663l-.89-.321c-.353-.118-.659-.177-.916-.177-1.077 0-1.842.579-2.297 1.738a4.6 4.6 0 00-.339 1.624 5.127 5.127 0 00.538 2.384c.359.731.972 1.145 1.84 1.244a.72.72 0 01.258.035 2.7 2.7 0 00.767-.157l.356-.153.335-.153a.915.915 0 01.386-.109c.382 0 .572.221.572.661 0 .467-.308.806-.923 1.017-.415.142-.912.213-1.492.213-1.695 0-2.908-.772-3.64-2.315a5.506 5.506 0 01-.525-2.328 7.17 7.17 0 01.241-1.909c.339-1.288 1.013-2.2 2.021-2.738a3.97 3.97 0 011.835-.444c.607-.009 1.145.079 1.614.264.446.179.736.385.869.619.045.146.068.26.068.342m8.779 7.703c0 .538-.254.806-.763.806a.69.69 0 01-.539-.231.825.825 0 01-.208-.575v-5.189c0-.679-.191-1.24-.572-1.685s-.897-.672-1.546-.683a2.15 2.15 0 00-1.072.266c-.731.392-1.097 1.081-1.097 2.068v5.223c0 .537-.254.805-.763.805-.221 0-.4-.077-.539-.23s-.208-.345-.208-.574v-12.25c0-.545.249-.817.746-.817.509 0 .763.272.763.816l.034 4.587a2.88 2.88 0 012.483-1.266c1.282 0 2.233.587 2.851 1.761a3.7 3.7 0 01.428 1.757v5.41m9.563-4.204c0 .512-.283.768-.848.768h-5.763c.023 1.238.491 2.088 1.407 2.55a3.06 3.06 0 001.402.32c.87 0 1.698-.322 2.483-.966.229-.189.42-.284.572-.284.359 0 .538.22.538.661a.844.844 0 01-.225.57c-.319.362-.799.687-1.441.974a4.873 4.873 0 01-2.012.418c-1.452 0-2.552-.533-3.301-1.6-.638-.91-.968-1.997-.987-3.261a.61.61 0 00.034-.087c.076-1.814.725-3.177 1.945-4.089.613-.459 1.325-.692 2.136-.698a3.545 3.545 0 012.123.664c.613.431 1.09 1.018 1.432 1.763a5.45 5.45 0 01.504 2.296zm-1.527-.426c-.017-.871-.243-1.573-.678-2.105-.443-.538-1.039-.811-1.788-.819-.762-.009-1.381.245-1.855.763s-.729 1.238-.763 2.161h5.084zM99.871 45.78c0 1.389-.624 2.443-1.871 3.161-.615.355-1.335.532-2.16.532h-3.152c-.571 0-.857-.283-.857-.848V37.48c0-.562.268-.844.804-.844H95.5c1.295 0 2.264.502 2.909 1.508.306.481.465.986.477 1.517.009.349-.048.724-.171 1.125-.266.882-.8 1.455-1.603 1.719v.035c1.344.269 2.192.94 2.545 2.013a3.92 3.92 0 01.214 1.226zm-2.561-5.756c0-.584-.174-1.063-.52-1.438-.356-.387-.821-.581-1.395-.581h-2.007v4.051h1.827c.88 0 1.498-.348 1.854-1.042a2.15 2.15 0 00.24-.989zm.985 5.722a2.4 2.4 0 00-.293-1.177c-.431-.811-1.211-1.217-2.34-1.217h-2.274v4.753H95.5c1.204 0 2.028-.389 2.471-1.168a2.42 2.42 0 00.324-1.19zm5.235-8.23a.97.97 0 01-.287.694.91.91 0 01-.681.299.94.94 0 01-.691-.297.955.955 0 01-.293-.696.95.95 0 01.291-.696.944.944 0 01.694-.292.91.91 0 01.683.294.96.96 0 01.284.694zm-.179 11.25c0 .543-.263.814-.788.814a.72.72 0 01-.556-.233.826.826 0 01-.214-.581V40.6c0-.566.257-.849.77-.849.525 0 .788.271.788.814v8.201zm3.939-.035c0 .566-.262.849-.787.849-.513 0-.77-.283-.77-.849v-12.33c0-.551.257-.827.77-.827.525 0 .787.264.787.792v12.365m10.19.037c0 .541-.269.812-.806.812a.74.74 0 01-.547-.226.754.754 0 01-.223-.551v-.518h-.035c-.169.345-.444.642-.826.891-.402.26-.921.395-1.556.404-.822.012-1.558-.195-2.207-.62-.635-.414-1.126-.991-1.473-1.73-.356-.751-.538-1.591-.547-2.518a6.05 6.05 0 01.293-1.919c.402-1.253 1.104-2.139 2.107-2.659a3.509 3.509 0 011.63-.383c1.069 0 1.929.438 2.579 1.313h.035v-4.701c0-.526.257-.789.77-.789.537 0 .806.275.806.825v12.369zm-1.397-4.096a4.637 4.637 0 00-.333-1.851c-.466-1.123-1.227-1.684-2.282-1.684-1.134 0-1.912.614-2.335 1.842a5.21 5.21 0 00-.297 1.658c-.009.956.2 1.783.625 2.482s1.046 1.057 1.863 1.075c.641.015 1.175-.158 1.6-.518.408-.342.7-.778.874-1.307a5.497 5.497 0 00.284-1.698zm11.412 1.176c0 1.476-.55 2.546-1.649 3.209-.574.349-1.302.524-2.182.524-1.624 0-2.727-.622-3.311-1.866a4.346 4.346 0 01-.398-1.866v-5.282c0-.543.257-.814.77-.814.525 0 .788.271.788.813v5.239c0 1.594.728 2.391 2.185 2.391 1.492 0 2.238-.797 2.238-2.391v-5.239c0-.542.257-.813.77-.813.525 0 .788.271.788.814v5.282m9.923 2.92c0 .517-.263.775-.788.775-.513 0-.77-.258-.77-.776v-5.323c0-.664-.201-1.21-.603-1.639-.411-.435-.944-.652-1.6-.652-.856 0-1.492.352-1.906 1.057-.21.355-.315.778-.315 1.268v5.286c0 .567-.251.85-.753.85a.75.75 0 01-.578-.247.856.856 0 01-.228-.603V40.6c0-.566.257-.849.771-.849.525 0 .787.286.787.86v.383l.035.036c.635-.852 1.501-1.278 2.597-1.278 1.311 0 2.273.546 2.886 1.638.309.552.463 1.227.463 2.025v5.355m10.193.035c0 1.842-.647 3.165-1.941 3.968-.65.398-1.41.601-2.282.607a5.54 5.54 0 01-2.973-.848c-.472-.29-.729-.62-.77-.989.07-.375.279-.597.625-.668.353.046.705.189 1.058.428.682.461 1.392.691 2.129.691.88 0 1.55-.368 2.011-1.102.39-.618.586-1.397.586-2.336a2.58 2.58 0 00-.009-.18l-.009-.18h-.035c-.507.933-1.355 1.395-2.544 1.386a3.597 3.597 0 01-2.137-.7c-.606-.437-1.077-1.032-1.412-1.783a5.876 5.876 0 01-.516-2.496c.009-.924.191-1.762.546-2.513.347-.737.838-1.31 1.473-1.721.653-.423 1.389-.628 2.207-.616 1.165.018 1.96.467 2.382 1.348h.035l.002-.518c0-.518.256-.776.769-.776.536 0 .805.271.805.813v8.187zm-1.397-4.014c0-1.392-.401-2.433-1.202-3.121-.429-.366-.947-.544-1.557-.532a2.04 2.04 0 00-1.391.541c-.376.34-.653.776-.831 1.31a5.18 5.18 0 00-.267 1.693c.009.651.112 1.247.31 1.79.189.525.474.941.853 1.249.39.32.844.484 1.36.492a2.38 2.38 0 001.967-.923c.504-.612.756-1.445.756-2.497zm10.32 1.981a2.628 2.628 0 01-.411 1.367c-.262.422-.656.765-1.18 1.028-.539.273-1.185.41-1.937.413-1.238.006-2.276-.348-3.113-1.063-.245-.17-.389-.428-.433-.773a.69.69 0 01.197-.499.647.647 0 01.485-.204c.225 0 .566.163 1.023.489.222.162.382.264.481.308.385.22.827.338 1.325.355a2.63 2.63 0 001.36-.317 1.05 1.05 0 00.59-.998c0-.425-.243-.784-.731-1.077-.309-.185-.769-.4-1.378-.646l-1.352-.576c-.49-.255-.874-.552-1.153-.892s-.418-.765-.418-1.275c0-1.011.497-1.767 1.492-2.268a3.72 3.72 0 011.622-.395 4.7 4.7 0 011.697.296c.566.207.968.428 1.207.664.251.248.376.496.376.743 0 .186-.07.346-.211.481s-.305.21-.492.228c-.208-.053-.499-.185-.873-.396l-.869-.484a1.63 1.63 0 00-.685-.146c-.556-.009-.981.105-1.273.341s-.449.524-.469.864c.096.525.496.945 1.198 1.262a10.97 10.97 0 001.066.413l.86.325c.72.302 1.23.639 1.532 1.011.319.396.474.869.465 1.42" fill="#1b1b1b"/><g fill="#78aae5"><path d="M164.79 40.988c0 .408-.233.631-.7.67l-.919-.324c-.364-.119-.679-.178-.945-.178-1.111 0-1.901.585-2.37 1.755a4.549 4.549 0 00-.35 1.64 5.1 5.1 0 00.555 2.407c.371.738 1.004 1.156 1.899 1.256.119 0 .208.012.266.035.298-.021.562-.074.792-.159l.367-.155.346-.154a.957.957 0 01.398-.11c.393 0 .59.223.59.668 0 .471-.318.814-.953 1.027-.428.144-.941.215-1.539.215-1.749 0-3.001-.779-3.755-2.338a5.47 5.47 0 01-.542-2.351 7.08 7.08 0 01.249-1.928c.35-1.3 1.045-2.222 2.085-2.765.563-.291 1.194-.44 1.893-.449.627-.009 1.182.08 1.666.266.461.18.759.389.896.625.047.148.07.263.07.346m3.405 7.744c0 .566-.263.849-.788.849-.513 0-.77-.283-.77-.849v-12.33c0-.551.257-.827.77-.827.525 0 .788.264.788.792v12.365m10.351-4.059c0 1.919-.656 3.334-1.967 4.244-.636.443-1.376.665-2.221.665-1.725 0-2.958-.823-3.698-2.469a5.83 5.83 0 01-.512-2.439c0-1.96.681-3.389 2.042-4.287a3.8 3.8 0 012.168-.634 3.84 3.84 0 012.208.687c.632.437 1.123 1.039 1.473 1.805a5.83 5.83 0 01.507 2.43zm-1.576 0a4.983 4.983 0 00-.297-1.772c-.434-1.175-1.207-1.763-2.317-1.763-1.119 0-1.895.575-2.326 1.724-.204.538-.306 1.142-.306 1.811 0 .942.195 1.733.586 2.373.464.766 1.134 1.149 2.011 1.149 1.151 0 1.934-.583 2.348-1.75a5.446 5.446 0 00.302-1.772zm11.068 1.176c0 1.476-.549 2.546-1.648 3.209-.574.349-1.302.524-2.182.524-1.624 0-2.727-.622-3.311-1.866a4.346 4.346 0 01-.398-1.866v-5.282c0-.543.257-.814.77-.814.525 0 .788.271.788.813v5.239c0 1.594.728 2.391 2.185 2.391 1.492 0 2.238-.797 2.238-2.391v-5.239c0-.542.257-.813.771-.813.525 0 .787.271.787.814v5.282m10.191 2.919c0 .541-.269.812-.806.812a.74.74 0 01-.547-.226.754.754 0 01-.223-.551v-.518h-.035c-.169.345-.444.642-.826.891-.402.26-.921.395-1.556.404-.822.012-1.558-.195-2.207-.62-.635-.414-1.126-.991-1.473-1.73-.355-.751-.538-1.591-.546-2.518a6.05 6.05 0 01.293-1.919c.402-1.253 1.104-2.139 2.107-2.659a3.509 3.509 0 011.63-.383c1.069 0 1.929.438 2.579 1.313h.035v-4.701c0-.526.257-.789.771-.789.537 0 .806.275.806.825v12.369zm-1.397-4.096a4.637 4.637 0 00-.333-1.851c-.466-1.123-1.227-1.684-2.282-1.684-1.134 0-1.912.614-2.335 1.842a5.195 5.195 0 00-.297 1.658c-.009.956.2 1.783.625 2.482s1.046 1.057 1.863 1.075c.641.015 1.174-.158 1.6-.518a2.82 2.82 0 00.874-1.307 5.497 5.497 0 00.284-1.698z"/><path d="M32.608 13.762c5.87-2.879 11.617-2.268 16.751 1.781a1.024 1.024 0 01-1.266 1.606c-4.516-3.561-9.42-4.083-14.583-1.551-5.36 2.629-8.026 7.195-7.679 13.155a1.023 1.023 0 01-1.047 1.082c-5.589-.143-10.35 5.071-9.7 10.624.517 4.416 3.454 7.521 7.792 8.268l.228.035h30.161l.247-.031c5.157-.668 6.18-1.453 7.103-5.136l.054-.22a1.023 1.023 0 111.988.482c-1.15 4.745-2.816 6.104-8.86 6.899l-.34.044-.127.008H23.018l-.147-.011c-5.414-.789-9.184-4.666-9.82-10.1-.74-6.32 4.188-12.209 10.384-12.852l.319-.029v-.061c-.005-6.128 2.973-10.975 8.518-13.824l.336-.169z" fill-rule="nonzero"/><path d="M71.488 52.54c.15 0 .272.122.272.272v.312c0 .15-.122.273-.272.273h-.312a.272.272 0 01-.272-.273v-.312c0-.15.122-.272.272-.272h.312zm-8.177 0c.151 0 .273.122.273.272v.312c0 .15-.122.273-.273.273h-.312a.273.273 0 01-.273-.273v-.312c0-.15.122-.272.273-.272h.312zm1.168 0c.15 0 .272.122.272.272v.312c0 .15-.122.273-.272.273h-.312a.272.272 0 01-.272-.273v-.312c0-.15.122-.272.272-.272h.312zm5.841 0c.15 0 .272.122.272.272v.312c0 .15-.122.273-.272.273h-.312a.273.273 0 01-.273-.273v-.312c0-.15.122-.272.273-.272h.312zm-4.673-1.168c.15 0 .272.122.272.272v.312c0 .15-.122.272-.272.272h-.312a.272.272 0 01-.272-.272v-.312c0-.15.122-.272.272-.272h.312zm5.841 0c.15 0 .272.122.272.272v.312c0 .15-.122.272-.272.272h-.312a.272.272 0 01-.272-.272v-.312c0-.15.122-.272.272-.272h.312zm-1.168 0c.15 0 .272.122.272.272v.312c0 .15-.122.272-.272.272h-.312a.273.273 0 01-.273-.272v-.312c0-.15.122-.272.273-.272h.312zm-5.841 0c.15 0 .272.122.272.272v.312c0 .15-.122.272-.272.272h-.312a.272.272 0 01-.272-.272v-.312c0-.15.122-.272.272-.272h.312zm1.168-1.168c.15 0 .272.122.272.272v.312c0 .15-.122.273-.272.273h-.312a.272.272 0 01-.272-.273v-.312c0-.15.122-.272.272-.272h.312zm7.009 0c.15 0 .273.122.273.272v.312c0 .15-.122.273-.273.273h-.312a.273.273 0 01-.273-.273v-.312c0-.15.122-.272.273-.272h.312zm-1.168 0c.15 0 .272.122.272.272v.312c0 .15-.122.273-.272.273h-.312a.272.272 0 01-.272-.273v-.312c0-.15.122-.272.272-.272h.312zm-7.009 0c.15 0 .272.122.272.272v.312c0 .15-.122.273-.272.273h-.312a.272.272 0 01-.272-.273v-.312c0-.15.122-.272.272-.272h.312zm8.177-1.168c.15 0 .273.122.273.272v.312c0 .15-.122.272-.273.272h-.312a.272.272 0 01-.273-.272v-.312c0-.15.122-.272.273-.272h.312zm-1.168 0c.15 0 .272.122.272.272v.312c0 .15-.122.272-.272.272h-.312a.272.272 0 01-.272-.272v-.312c0-.15.122-.272.272-.272h.312zm-5.841 0c.15 0 .272.122.272.272v.312c0 .15-.122.272-.272.272h-.312a.272.272 0 01-.272-.272v-.312c0-.15.122-.272.272-.272h.312zm1.168 0c.15 0 .272.122.272.272v.312c0 .15-.122.272-.272.272h-.312a.273.273 0 01-.273-.272v-.312c0-.15.122-.272.273-.272h.312zm4.673-1.168c.15 0 .272.122.272.273v.312a.272.272 0 01-.272.273h-.312a.272.272 0 01-.272-.273v-.312c0-.15.122-.273.272-.273h.312zm-3.505 0c.15 0 .272.122.272.273v.312a.272.272 0 01-.272.273h-.312a.272.272 0 01-.272-.273v-.312c0-.15.122-.273.272-.273h.312zm4.673 0c.15 0 .273.122.273.273v.312a.273.273 0 01-.273.273h-.312a.273.273 0 01-.273-.273v-.312c0-.15.122-.273.273-.273h.312zm-5.841 0c.15 0 .272.122.272.273v.312a.272.272 0 01-.272.273h-.312a.273.273 0 01-.273-.273v-.312c0-.15.122-.273.273-.273h.312zm1.168-1.168c.15 0 .272.122.272.273v.312c0 .15-.122.273-.272.273h-.312a.272.272 0 01-.272-.273v-.312c0-.151.122-.273.272-.273h.312zm1.168 0c.15 0 .273.122.273.273v.312c0 .15-.122.273-.273.273h-.312a.272.272 0 01-.272-.273v-.312c0-.151.122-.273.272-.273h.312zm2.336 0c.15 0 .272.122.272.273v.312c0 .15-.122.273-.272.273h-.312a.272.272 0 01-.272-.273v-.312c0-.151.122-.273.272-.273h.312zm1.168 0c.15 0 .273.122.273.273v.312c0 .15-.122.273-.273.273h-.312a.273.273 0 01-.273-.273v-.312c0-.151.122-.273.273-.273h.312zm5.841-1.168c.15 0 .273.122.273.272v.312c0 .15-.122.272-.273.272h-.312a.272.272 0 01-.272-.272v-.312c0-.15.122-.272.272-.272h.312zm-10.514 0c.15 0 .272.122.272.272v.312c0 .15-.122.272-.272.272h-.312a.272.272 0 01-.272-.272v-.312c0-.15.122-.272.272-.272h.312zm4.673 0c.15 0 .273.122.273.272v.312c0 .15-.122.272-.273.272h-.312a.273.273 0 01-.273-.272v-.312c0-.15.122-.272.273-.272h.312zm-1.168 0c.15 0 .272.122.272.272v.312c0 .15-.122.272-.272.272h-.312a.272.272 0 01-.272-.272v-.312c0-.15.122-.272.272-.272h.312zm-2.336 0c.15 0 .273.122.273.272v.312c0 .15-.122.272-.273.272h-.312a.272.272 0 01-.272-.272v-.312c0-.15.122-.272.272-.272h.312zm-1.168-1.168c.15 0 .272.122.272.273v.312c0 .15-.122.273-.272.273h-.312a.272.272 0 01-.272-.273v-.312c0-.15.122-.273.272-.273h.312zm1.168 0c.15 0 .273.122.273.273v.312c0 .15-.122.273-.273.273h-.312a.272.272 0 01-.272-.273v-.312c0-.15.122-.273.272-.273h.312zm1.168 0c.15 0 .272.122.272.273v.312c0 .15-.122.273-.272.273h-.312a.273.273 0 01-.273-.273v-.312c0-.15.122-.273.273-.273h.312zm1.168 0c.15 0 .272.122.272.273v.312c0 .15-.122.273-.272.273h-.312a.272.272 0 01-.272-.273v-.312c0-.15.122-.273.272-.273h.312zm1.168 0c.15 0 .273.122.273.273v.312c0 .15-.122.273-.273.273h-.312a.273.273 0 01-.273-.273v-.312c0-.15.122-.273.273-.273h.312zm5.841 0c.15 0 .273.122.273.273v.312c0 .15-.122.273-.273.273h-.312a.272.272 0 01-.272-.273v-.312c0-.15.122-.273.272-.273h.312zm-1.168 0c.15 0 .272.122.272.273v.312c0 .15-.122.273-.272.273h-.312a.272.272 0 01-.272-.273v-.312c0-.15.122-.273.272-.273h.312zm2.336 0c.15 0 .272.122.272.273v.312c0 .15-.122.273-.272.273h-.312a.273.273 0 01-.273-.273v-.312c0-.15.122-.273.273-.273h.312zm-1.168-1.168c.15 0 .273.122.273.272v.312c0 .15-.122.273-.273.273h-.312a.272.272 0 01-.272-.273v-.312c0-.15.122-.272.272-.272h.312zm-9.345 0c.15 0 .273.122.273.272v.312c0 .15-.122.273-.273.273h-.312a.273.273 0 01-.273-.273v-.312c0-.15.122-.272.273-.272h.312zm2.336 0c.15 0 .272.122.272.272v.312c0 .15-.122.273-.272.273h-.312a.272.272 0 01-.272-.273v-.312c0-.15.122-.272.272-.272h.312zm-1.168 0c.15 0 .272.122.272.272v.312c0 .15-.122.273-.272.273h-.312a.273.273 0 01-.273-.273v-.312c0-.15.122-.272.273-.272h.312zm-2.336 0c.15 0 .272.122.272.272v.312c0 .15-.122.273-.272.273h-.312a.272.272 0 01-.272-.273v-.312c0-.15.122-.272.272-.272h.312zm9.345 0c.15 0 .272.122.272.272v.312c0 .15-.122.273-.272.273h-.312a.272.272 0 01-.272-.273v-.312c0-.15.122-.272.272-.272h.312zm-1.168 0c.151 0 .273.122.273.272v.312c0 .15-.122.273-.273.273h-.312a.273.273 0 01-.273-.273v-.312c0-.15.122-.272.273-.272h.312zm-9.345 0c.15 0 .272.122.272.272v.312c0 .15-.122.273-.272.273h-.312a.273.273 0 01-.273-.273v-.312c0-.15.122-.272.273-.272h.312zm9.345-1.168c.151 0 .273.122.273.273v.312c0 .15-.122.272-.273.272h-.312a.272.272 0 01-.273-.272v-.312c0-.15.122-.273.273-.273h.312zm-8.177 0c.15 0 .272.122.272.273v.312c0 .15-.122.272-.272.272h-.312a.272.272 0 01-.272-.272v-.312c0-.15.122-.273.272-.273h.312zm1.168 0c.15 0 .273.122.273.273v.312c0 .15-.122.272-.273.272h-.312a.272.272 0 01-.273-.272v-.312c0-.15.122-.273.273-.273h.312zm-2.336 0c.15 0 .272.122.272.273v.312c0 .15-.122.272-.272.272h-.312a.273.273 0 01-.273-.272v-.312c0-.15.122-.273.273-.273h.312zm3.505 0c.15 0 .272.122.272.273v.312c0 .15-.122.272-.272.272h-.312a.273.273 0 01-.273-.272v-.312c0-.15.122-.273.273-.273h.312zm7.009 0c.15 0 .272.122.272.273v.312c0 .15-.122.272-.272.272h-.312a.272.272 0 01-.272-.272v-.312c0-.15.122-.273.272-.273h.312zm-25.7 0c.15 0 .272.122.272.273v.312c0 .15-.122.272-.272.272h-.312a.272.272 0 01-.272-.272v-.312c0-.15.122-.273.272-.273h.312zm1.168 0c.15 0 .273.122.273.273v.312c0 .15-.122.272-.273.272h-.312a.272.272 0 01-.272-.272v-.312c0-.15.122-.273.272-.273h.312zm12.85 0c.15 0 .272.122.272.273v.312c0 .15-.122.272-.272.272h-.312a.272.272 0 01-.272-.272v-.312c0-.15.122-.273.272-.273h.312zm12.85 0c.15 0 .273.122.273.273v.312c0 .15-.122.272-.273.272h-.312a.272.272 0 01-.272-.272v-.312c0-.15.122-.273.272-.273h.312zm-3.505 0c.15 0 .273.122.273.273v.312c0 .15-.122.272-.273.272h-.312a.272.272 0 01-.272-.272v-.312c0-.15.122-.273.272-.273h.312zm-3.505 0c.15 0 .272.122.272.273v.312c0 .15-.122.272-.272.272h-.312a.272.272 0 01-.272-.272v-.312c0-.15.122-.273.272-.273h.312zm1.168-1.168c.15 0 .273.122.273.273v.312c0 .15-.122.273-.273.273h-.312a.273.273 0 01-.273-.273v-.312c0-.151.122-.273.273-.273h.312zm4.673 0c.15 0 .272.122.272.273v.312c0 .15-.122.273-.272.273h-.312a.272.272 0 01-.272-.273v-.312c0-.151.122-.273.272-.273h.312zm-1.168 0c.151 0 .273.122.273.273v.312c0 .15-.122.273-.273.273h-.312a.273.273 0 01-.273-.273v-.312c0-.151.122-.273.273-.273h.312zm-25.7 0c.15 0 .273.122.273.273v.312c0 .15-.122.273-.273.273h-.312a.272.272 0 01-.272-.273v-.312c0-.151.122-.273.272-.273h.312zm18.691 0c.15 0 .273.122.273.273v.312c0 .15-.122.273-.273.273h-.312a.273.273 0 01-.273-.273v-.312c0-.151.122-.273.273-.273h.312zm-19.859 0c.15 0 .272.122.272.273v.312c0 .15-.122.273-.272.273h-.312a.272.272 0 01-.272-.273v-.312c0-.151.122-.273.272-.273h.312zm16.354 0c.15 0 .272.122.272.273v.312c0 .15-.122.273-.272.273h-.312a.272.272 0 01-.272-.273v-.312c0-.151.122-.273.272-.273h.312zm2.336 0c.15 0 .272.122.272.273v.312c0 .15-.122.273-.272.273h-.312a.272.272 0 01-.272-.273v-.312c0-.151.122-.273.272-.273h.312zm-16.354 0c.15 0 .272.122.272.273v.312c0 .15-.122.273-.272.273h-.312a.272.272 0 01-.272-.273v-.312c0-.151.122-.273.272-.273h.312zm23.363 0c.15 0 .273.122.273.273v.312c0 .15-.122.273-.273.273h-.312a.272.272 0 01-.272-.273v-.312c0-.151.122-.273.272-.273h.312zm-8.177 0c.15 0 .272.122.272.273v.312c0 .15-.122.273-.272.273h-.312a.273.273 0 01-.273-.273v-.312c0-.151.122-.273.273-.273h.312zm3.505 0c.15 0 .272.122.272.273v.312c0 .15-.122.273-.272.273h-.312a.273.273 0 01-.273-.273v-.312c0-.151.122-.273.273-.273h.312zm1.168 0c.15 0 .272.122.272.273v.312c0 .15-.122.273-.272.273h-.312a.272.272 0 01-.272-.273v-.312c0-.151.122-.273.272-.273h.312zM50.46 39.69c.15 0 .273.122.273.272v.312c0 .15-.122.272-.273.272h-.312a.272.272 0 01-.272-.272v-.312c0-.15.122-.272.272-.272h.312zm15.186 0c.15 0 .273.122.273.272v.312c0 .15-.122.272-.273.272h-.312a.272.272 0 01-.272-.272v-.312c0-.15.122-.272.272-.272h.312zm5.841 0c.15 0 .272.122.272.272v.312c0 .15-.122.272-.272.272h-.312a.272.272 0 01-.272-.272v-.312c0-.15.122-.272.272-.272h.312zm3.505 0c.15 0 .273.122.273.272v.312c0 .15-.122.272-.273.272h-.312a.272.272 0 01-.272-.272v-.312c0-.15.122-.272.272-.272h.312zm-7.009 0c.15 0 .272.122.272.272v.312c0 .15-.122.272-.272.272h-.312a.272.272 0 01-.272-.272v-.312c0-.15.122-.272.272-.272h.312zm-18.691 0c.15 0 .272.122.272.272v.312c0 .15-.122.272-.272.272h-.312a.272.272 0 01-.272-.272v-.312c0-.15.122-.272.272-.272h.312zm14.018 0c.151 0 .273.122.273.272v.312c0 .15-.122.272-.273.272h-.312a.273.273 0 01-.273-.272v-.312c0-.15.122-.272.273-.272h.312zm5.841 0c.15 0 .273.122.273.272v.312c0 .15-.122.272-.273.272h-.312a.272.272 0 01-.273-.272v-.312c0-.15.122-.272.273-.272h.312zm-4.673 0c.15 0 .272.122.272.272v.312c0 .15-.122.272-.272.272h-.312a.272.272 0 01-.272-.272v-.312c0-.15.122-.272.272-.272h.312zm5.841 0c.15 0 .272.122.272.272v.312c0 .15-.122.272-.272.272h-.312a.273.273 0 01-.273-.272v-.312c0-.15.122-.272.273-.272h.312zm5.841 0c.151 0 .273.122.273.272v.312c0 .15-.122.272-.273.272h-.312a.272.272 0 01-.273-.272v-.312c0-.15.122-.272.273-.272h.312zm-3.505 0c.15 0 .273.122.273.272v.312c0 .15-.122.272-.273.272h-.312a.272.272 0 01-.272-.272v-.312c0-.15.122-.272.272-.272h.312zm4.673 0c.15 0 .272.122.272.272v.312c0 .15-.122.272-.272.272h-.312a.272.272 0 01-.272-.272v-.312c0-.15.122-.272.272-.272h.312zm-10.514 0c.15 0 .272.122.272.272v.312c0 .15-.122.272-.272.272h-.312a.273.273 0 01-.273-.272v-.312c0-.15.122-.272.273-.272h.312zm-2.336-1.168c.15 0 .272.122.272.273v.312c0 .15-.122.272-.272.272h-.312a.272.272 0 01-.272-.272v-.312c0-.15.122-.273.272-.273h.312zm-4.673 0c.151 0 .273.122.273.273v.312c0 .15-.122.272-.273.272h-.312a.273.273 0 01-.273-.272v-.312c0-.15.122-.273.273-.273h.312zm15.186 0c.15 0 .273.122.273.273v.312c0 .15-.122.272-.273.272h-.312a.272.272 0 01-.273-.272v-.312c0-.15.122-.273.273-.273h.312zm-25.7 0c.15 0 .272.122.272.273v.312c0 .15-.122.272-.272.272h-.312a.272.272 0 01-.272-.272v-.312c0-.15.122-.273.272-.273h.312zm14.018 0c.151 0 .273.122.273.273v.312c0 .15-.122.272-.273.272h-.312a.273.273 0 01-.273-.272v-.312c0-.15.122-.273.273-.273h.312zm2.336 0c.15 0 .273.122.273.273v.312c0 .15-.122.272-.273.272h-.312a.272.272 0 01-.272-.272v-.312c0-.15.122-.273.272-.273h.312zm5.841 0c.15 0 .272.122.272.273v.312c0 .15-.122.272-.272.272h-.312a.272.272 0 01-.272-.272v-.312c0-.15.122-.273.272-.273h.312zm-9.345 0c.15 0 .273.122.273.273v.312c0 .15-.122.272-.273.272h-.312a.272.272 0 01-.272-.272v-.312c0-.15.122-.273.272-.273h.312zm-1.168 0c.15 0 .272.122.272.273v.312c0 .15-.122.272-.272.272h-.312a.272.272 0 01-.272-.272v-.312c0-.15.122-.273.272-.273h.312zm15.186 0c.151 0 .273.122.273.273v.312c0 .15-.122.272-.273.272h-.312a.272.272 0 01-.273-.272v-.312c0-.15.122-.273.273-.273h.312zm-5.841 0c.15 0 .272.122.272.273v.312c0 .15-.122.272-.272.272h-.312a.273.273 0 01-.273-.272v-.312c0-.15.122-.273.273-.273h.312zm-3.505 0c.15 0 .272.122.272.273v.312c0 .15-.122.272-.272.272h-.312a.273.273 0 01-.273-.272v-.312c0-.15.122-.273.273-.273h.312zm1.168 0c.15 0 .272.122.272.273v.312c0 .15-.122.272-.272.272h-.312a.272.272 0 01-.272-.272v-.312c0-.15.122-.273.272-.273h.312zm-19.859 0c.15 0 .272.122.272.273v.312c0 .15-.122.272-.272.272h-.312a.272.272 0 01-.272-.272v-.312c0-.15.122-.273.272-.273h.312zm24.532 0c.15 0 .273.122.273.273v.312c0 .15-.122.272-.273.272h-.312a.272.272 0 01-.273-.272v-.312c0-.15.122-.273.273-.273h.312zm-3.505 0c.15 0 .273.122.273.273v.312c0 .15-.122.272-.273.272h-.312a.272.272 0 01-.273-.272v-.312c0-.15.122-.273.273-.273h.312zm-18.691 0c.15 0 .273.122.273.273v.312c0 .15-.122.272-.273.272h-.312a.272.272 0 01-.273-.272v-.312c0-.15.122-.273.273-.273h.312zm8.177 0c.15 0 .272.122.272.273v.312c0 .15-.122.272-.272.272h-.312a.272.272 0 01-.272-.272v-.312c0-.15.122-.273.272-.273h.312zm10.514-1.168c.15 0 .273.122.273.272v.312c0 .15-.122.273-.273.273h-.312a.273.273 0 01-.273-.273v-.312c0-.15.122-.272.273-.272h.312zm-1.168 0c.15 0 .272.122.272.272v.312c0 .15-.122.273-.272.273h-.312a.272.272 0 01-.272-.273v-.312c0-.15.122-.272.272-.272h.312zm4.673 0c.15 0 .273.122.273.272v.312c0 .15-.122.273-.273.273h-.312a.273.273 0 01-.273-.273v-.312c0-.15.122-.272.273-.272h.312zm-10.514 0c.15 0 .273.122.273.272v.312c0 .15-.122.273-.273.273h-.312a.272.272 0 01-.272-.273v-.312c0-.15.122-.272.272-.272h.312zm-1.168 0c.15 0 .272.122.272.272v.312c0 .15-.122.273-.272.273h-.312a.272.272 0 01-.272-.273v-.312c0-.15.122-.272.272-.272h.312zm15.186 0c.151 0 .273.122.273.272v.312c0 .15-.122.273-.273.273h-.312a.273.273 0 01-.273-.273v-.312c0-.15.122-.272.273-.272h.312zm-25.7 0c.15 0 .273.122.273.272v.312c0 .15-.122.273-.273.273h-.312a.273.273 0 01-.273-.273v-.312c0-.15.122-.272.273-.272h.312zm21.027 0c.15 0 .272.122.272.272v.312c0 .15-.122.273-.272.273h-.312a.272.272 0 01-.272-.273v-.312c0-.15.122-.272.272-.272h.312zm-7.009 0c.15 0 .272.122.272.272v.312c0 .15-.122.273-.272.273h-.312a.272.272 0 01-.272-.273v-.312c0-.15.122-.272.272-.272h.312zm2.336 0c.15 0 .272.122.272.272v.312c0 .15-.122.273-.272.273H66.5a.273.273 0 01-.273-.273v-.312c0-.15.122-.272.273-.272h.312zm-15.186 0c.15 0 .272.122.272.272v.312c0 .15-.122.273-.272.273h-.312a.272.272 0 01-.272-.273v-.312c0-.15.122-.272.272-.272h.312zm4.673 0c.15 0 .273.122.273.272v.312c0 .15-.122.273-.273.273h-.312a.273.273 0 01-.273-.273v-.312c0-.15.122-.272.273-.272h.312zm-8.177 0c.15 0 .272.122.272.272v.312c0 .129-.09.237-.21.265l-.062.007h-.312a.272.272 0 01-.272-.273v-.312c0-.15.122-.272.272-.272h.312zm9.345 0c.15 0 .272.122.272.272v.312c0 .15-.122.273-.272.273h-.312a.273.273 0 01-.273-.273v-.312c0-.15.122-.272.273-.272h.312zm8.177 0c.15 0 .273.122.273.272v.312c0 .15-.122.273-.273.273h-.312a.272.272 0 01-.272-.273v-.312c0-.15.122-.272.272-.272h.312zm-5.841 0c.151 0 .273.122.273.272v.312c0 .15-.122.273-.273.273h-.312a.273.273 0 01-.273-.273v-.312c0-.15.122-.272.273-.272h.312zm-12.85 0c.15 0 .273.122.273.272v.312c0 .129-.09.237-.21.265l-.062.007h-.312a.272.272 0 01-.272-.273v-.312c0-.15.122-.272.272-.272h.312zm28.036 0c.15 0 .273.122.273.272v.312c0 .15-.122.273-.273.273h-.312a.272.272 0 01-.272-.273v-.312c0-.15.122-.272.272-.272h.312zm-11.682 0c.15 0 .273.122.273.272v.312c0 .15-.122.273-.273.273h-.312a.273.273 0 01-.273-.273v-.312c0-.15.122-.272.273-.272h.312zm7.009 0c.15 0 .272.122.272.272v.312c0 .15-.122.273-.272.273h-.312a.273.273 0 01-.273-.273v-.312c0-.15.122-.272.273-.272h.312zm-17.523 0c.15 0 .273.122.273.272v.312c0 .15-.122.273-.273.273h-.312a.272.272 0 01-.272-.273v-.312c0-.15.122-.272.272-.272h.312zm2.336 0c.15 0 .272.122.272.272v.312c0 .15-.122.273-.272.273h-.312a.272.272 0 01-.272-.273v-.312c0-.15.122-.272.272-.272h.312zm3.505 0c.15 0 .272.122.272.272v.312c0 .15-.122.273-.272.273h-.312a.272.272 0 01-.272-.273v-.312c0-.15.122-.272.272-.272h.312zm-5.841-1.168c.15 0 .273.122.273.272v.312c0 .15-.122.272-.273.272h-.312a.272.272 0 01-.272-.272v-.312c0-.15.122-.272.272-.272h.312zm-1.168 0c.15 0 .272.122.272.272v.312c0 .15-.122.272-.272.272h-.312a.272.272 0 01-.272-.272v-.312c0-.15.122-.272.272-.272h.312zm4.673 0c.151 0 .273.122.273.272v.312c0 .15-.122.272-.273.272h-.312a.272.272 0 01-.273-.272v-.312c0-.15.122-.272.273-.272h.312zm2.336 0c.15 0 .272.122.272.272v.312c0 .15-.122.272-.272.272h-.312a.272.272 0 01-.272-.272v-.312c0-.15.122-.272.272-.272h.312zm2.336 0c.15 0 .272.122.272.272v.312c0 .15-.122.272-.272.272h-.312a.272.272 0 01-.272-.272v-.312c0-.15.122-.272.272-.272h.312zm-7.009 0c.15 0 .272.122.272.272v.312c0 .15-.122.272-.272.272h-.312a.273.273 0 01-.273-.272v-.312c0-.15.122-.272.273-.272h.312zm14.018 0c.15 0 .272.122.272.272v.312c0 .15-.122.272-.272.272h-.312a.272.272 0 01-.272-.272v-.312c0-.15.122-.272.272-.272h.312zm3.505 0c.15 0 .272.122.272.272v.312c0 .15-.122.272-.272.272h-.312a.272.272 0 01-.272-.272v-.312c0-.15.122-.272.272-.272h.312zm-1.168 0c.15 0 .272.122.272.272v.312c0 .15-.122.272-.272.272h-.312a.273.273 0 01-.273-.272v-.312c0-.15.122-.272.273-.272h.312zm-1.168 0c.15 0 .273.122.273.272v.312c0 .15-.122.272-.273.272h-.312a.272.272 0 01-.273-.272v-.312c0-.15.122-.272.273-.272h.312zm-9.345 0c.151 0 .273.122.273.272v.312c0 .15-.122.272-.273.272h-.312a.273.273 0 01-.273-.272v-.312c0-.15.122-.272.273-.272h.312zm12.85 0c.15 0 .273.122.273.272v.312c0 .15-.122.272-.273.272h-.312a.273.273 0 01-.273-.272v-.312c0-.15.122-.272.273-.272h.312zm-10.514 0c.15 0 .272.122.272.272v.312c0 .15-.122.272-.272.272h-.312a.272.272 0 01-.272-.272v-.312c0-.15.122-.272.272-.272h.312zm12.85 0c.15 0 .273.122.273.272v.312c0 .15-.122.272-.273.272h-.312a.272.272 0 01-.272-.272v-.312c0-.15.122-.272.272-.272h.312zm-9.345 0c.15 0 .272.122.272.272v.312c0 .15-.122.272-.272.272h-.312a.272.272 0 01-.272-.272v-.312c0-.15.122-.272.272-.272h.312zm-15.186 0c.15 0 .273.122.273.272v.312c0 .15-.122.272-.273.272h-.312a.272.272 0 01-.273-.272v-.312c0-.15.122-.272.273-.272h.312zm12.85 0c.15 0 .273.122.273.272v.312c0 .15-.122.272-.273.272h-.312a.273.273 0 01-.273-.272v-.312c0-.15.122-.272.273-.272h.312zm3.505 0c.15 0 .272.122.272.272v.312c0 .15-.122.272-.272.272h-.312a.273.273 0 01-.273-.272v-.312c0-.15.122-.272.273-.272h.312zm-11.682 0c.15 0 .272.122.272.272v.312c0 .15-.122.272-.272.272h-.312a.272.272 0 01-.272-.272v-.312c0-.15.122-.272.272-.272h.312zm2.336 0c.15 0 .272.122.272.272v.312c0 .15-.122.272-.272.272h-.312a.273.273 0 01-.273-.272v-.312c0-.15.122-.272.273-.272h.312zm7.009 0c.15 0 .272.122.272.272v.312c0 .15-.122.272-.272.272h-.312a.272.272 0 01-.272-.272v-.312c0-.15.122-.272.272-.272h.312zm9.345 0c.15 0 .272.122.272.272v.312c0 .15-.122.272-.272.272h-.312a.272.272 0 01-.272-.272v-.312c0-.15.122-.272.272-.272h.312zm-25.7 0c.15 0 .272.122.272.272v.312c0 .15-.122.272-.272.272h-.312a.272.272 0 01-.272-.272v-.312c0-.15.122-.272.272-.272h.312zm-1.168 0c.15 0 .273.122.273.272v.312c0 .15-.122.272-.273.272h-.312a.272.272 0 01-.272-.272v-.312c0-.15.122-.272.272-.272h.312zm2.336-1.168c.15 0 .272.122.272.273v.312a.272.272 0 01-.272.273h-.312a.272.272 0 01-.272-.273v-.312c0-.15.122-.273.272-.273h.312zm12.85 0c.15 0 .272.122.272.273v.312a.272.272 0 01-.272.273h-.312a.272.272 0 01-.272-.273v-.312c0-.15.122-.273.272-.273h.312zm-1.168 0c.151 0 .273.122.273.273v.312a.273.273 0 01-.273.273h-.312a.273.273 0 01-.273-.273v-.312c0-.15.122-.273.273-.273h.312zm-10.514 0c.15 0 .273.122.273.273v.312a.273.273 0 01-.273.273h-.312a.273.273 0 01-.273-.273v-.312c0-.15.122-.273.273-.273h.312zm3.505 0c.15 0 .272.122.272.273v.312a.272.272 0 01-.272.273h-.312a.273.273 0 01-.273-.273v-.312c0-.15.122-.273.273-.273h.312zm-5.841 0c.15 0 .272.122.272.273v.312a.272.272 0 01-.272.273h-.312a.272.272 0 01-.272-.273v-.312c0-.15.122-.273.272-.273h.312zm22.195 0c.15 0 .272.122.272.273v.312a.272.272 0 01-.272.273h-.312a.273.273 0 01-.273-.273v-.312c0-.15.122-.273.273-.273h.312zm-7.009 0c.15 0 .273.122.273.273v.312a.273.273 0 01-.273.273h-.312a.273.273 0 01-.273-.273v-.312c0-.15.122-.273.273-.273h.312zm-8.177 0c.15 0 .272.122.272.273v.312a.272.272 0 01-.272.273h-.312a.272.272 0 01-.272-.273v-.312c0-.15.122-.273.272-.273h.312zm3.505 0c.15 0 .272.122.272.273v.312a.272.272 0 01-.272.273h-.312a.273.273 0 01-.273-.273v-.312c0-.15.122-.273.273-.273h.312zm7.009 0c.15 0 .272.122.272.273v.312a.272.272 0 01-.272.273h-.312a.272.272 0 01-.272-.273v-.312c0-.15.122-.273.272-.273h.312zm3.505 0c.15 0 .273.122.273.273v.312a.273.273 0 01-.273.273h-.312a.272.272 0 01-.272-.273v-.312c0-.15.122-.273.272-.273h.312zm-12.85 0c.15 0 .273.122.273.273v.312a.273.273 0 01-.273.273h-.312a.273.273 0 01-.273-.273v-.312c0-.15.122-.273.273-.273h.312zm15.186 0c.15 0 .272.122.272.273v.312a.272.272 0 01-.272.273h-.312a.272.272 0 01-.272-.273v-.312c0-.15.122-.273.272-.273h.312zm-4.673 0c.15 0 .272.122.272.273v.312a.272.272 0 01-.272.273H66.5a.273.273 0 01-.273-.273v-.312c0-.15.122-.273.273-.273h.312zm-14.018 0c.15 0 .273.122.273.273v.312a.273.273 0 01-.273.273h-.312a.272.272 0 01-.272-.273v-.312c0-.15.122-.273.272-.273h.312zm15.186 0c.15 0 .272.122.272.273v.312a.272.272 0 01-.272.273h-.312a.272.272 0 01-.272-.273v-.312c0-.15.122-.273.272-.273h.312zm-3.505 0c.15 0 .272.122.272.273v.312a.272.272 0 01-.272.273h-.312a.272.272 0 01-.272-.273v-.312c0-.15.122-.273.272-.273h.312zm-12.85 0c.15 0 .272.122.272.273v.312a.272.272 0 01-.272.273h-.312a.272.272 0 01-.272-.273v-.312c0-.15.122-.273.272-.273h.312zm5.841 0c.15 0 .272.122.272.273v.312a.272.272 0 01-.272.273h-.312a.273.273 0 01-.273-.273v-.312c0-.15.122-.273.273-.273h.312zm2.336 0c.15 0 .273.122.273.273v.312a.273.273 0 01-.273.273h-.312a.273.273 0 01-.273-.273v-.312c0-.15.122-.273.273-.273h.312zm-7.009-1.168c.15 0 .273.122.273.272v.312c0 .15-.122.273-.273.273h-.312a.272.272 0 01-.272-.273v-.312c0-.15.122-.272.272-.272h.312zm12.85 0c.15 0 .272.122.272.272v.312c0 .15-.122.273-.272.273h-.312a.272.272 0 01-.272-.273v-.312c0-.15.122-.272.272-.272h.312zm-2.336 0c.15 0 .273.122.273.272v.312c0 .15-.122.273-.273.273h-.312a.273.273 0 01-.273-.273v-.312c0-.15.122-.272.273-.272h.312zm-2.336 0c.15 0 .272.122.272.272v.312c0 .15-.122.273-.272.273h-.312a.272.272 0 01-.272-.273v-.312c0-.15.122-.272.272-.272h.312zm-4.673 0c.15 0 .273.122.273.272v.312c0 .15-.122.273-.273.273h-.312a.273.273 0 01-.273-.273v-.312c0-.15.122-.272.273-.272h.312zm12.85 0c.15 0 .273.122.273.272v.312c0 .15-.122.273-.273.273h-.312a.273.273 0 01-.273-.273v-.312c0-.15.122-.272.273-.272h.312zm-14.018 0c.15 0 .272.122.272.272v.312c0 .15-.122.273-.272.273h-.312a.272.272 0 01-.272-.273v-.312c0-.15.122-.272.272-.272h.312zm3.505 0c.15 0 .272.122.272.272v.312c0 .15-.122.273-.272.273h-.312a.272.272 0 01-.272-.273v-.312c0-.15.122-.272.272-.272h.312zm9.345 0c.15 0 .272.122.272.272v.312c0 .15-.122.273-.272.273h-.312a.272.272 0 01-.272-.273v-.312c0-.15.122-.272.272-.272h.312zm-8.177 0c.151 0 .273.122.273.272v.312c0 .15-.122.273-.273.273h-.312a.273.273 0 01-.273-.273v-.312c0-.15.122-.272.273-.272h.312zm-8.177 0c.15 0 .272.122.272.272v.312c0 .15-.122.273-.272.273h-.312a.272.272 0 01-.272-.273v-.312c0-.15.122-.272.272-.272h.312zm15.186 0c.15 0 .272.122.272.272v.312c0 .15-.122.273-.272.273H66.5a.273.273 0 01-.273-.273v-.312c0-.15.122-.272.273-.272h.312zm-2.336 0c.15 0 .272.122.272.272v.312c0 .15-.122.273-.272.273h-.312a.272.272 0 01-.272-.273v-.312c0-.15.122-.272.272-.272h.312zm-10.514 0c.15 0 .272.122.272.272v.312c0 .15-.122.273-.272.273h-.312a.273.273 0 01-.273-.273v-.312c0-.15.122-.272.273-.272h.312zm3.505 0c.15 0 .272.122.272.272v.312c0 .15-.122.273-.272.273h-.312a.273.273 0 01-.273-.273v-.312c0-.15.122-.272.273-.272h.312zm-7.009 0c.15 0 .273.122.273.272v.312c0 .15-.122.273-.273.273h-.312a.273.273 0 01-.273-.273v-.312c0-.15.122-.272.273-.272h.312zm11.682 0c.15 0 .273.122.273.272v.312c0 .15-.122.273-.273.273h-.312a.272.272 0 01-.272-.273v-.312c0-.15.122-.272.272-.272h.312zm-12.85 0c.15 0 .272.122.272.272v.312c0 .15-.122.273-.272.273h-.312a.272.272 0 01-.272-.273v-.312c0-.15.122-.272.272-.272h.312zm11.682-1.168c.15 0 .272.122.272.272v.312c0 .15-.122.272-.272.272h-.312a.272.272 0 01-.272-.272v-.312c0-.15.122-.272.272-.272h.312zm-4.673 0c.15 0 .273.122.273.272v.312c0 .15-.122.272-.273.272h-.312a.273.273 0 01-.273-.272v-.312c0-.15.122-.272.273-.272h.312zm9.345 0c.15 0 .272.122.272.272v.312c0 .15-.122.272-.272.272h-.312a.272.272 0 01-.272-.272v-.312c0-.15.122-.272.272-.272h.312zm-11.682 0c.15 0 .272.122.272.272v.312c0 .15-.122.272-.272.272h-.312a.273.273 0 01-.273-.272v-.312c0-.15.122-.272.273-.272h.312zm10.514 0c.15 0 .272.122.272.272v.312c0 .15-.122.272-.272.272h-.312a.272.272 0 01-.272-.272v-.312c0-.15.122-.272.272-.272h.312zm-2.336 0c.15 0 .273.122.273.272v.312c0 .15-.122.272-.273.272h-.312a.272.272 0 01-.272-.272v-.312c0-.15.122-.272.272-.272h.312zm-3.505 0c.15 0 .272.122.272.272v.312c0 .15-.122.272-.272.272h-.312a.272.272 0 01-.272-.272v-.312c0-.15.122-.272.272-.272h.312zm1.168 0c.151 0 .273.122.273.272v.312c0 .15-.122.272-.273.272h-.312a.273.273 0 01-.273-.272v-.312c0-.15.122-.272.273-.272h.312zm-7.009 0c.15 0 .273.122.273.272v.312c0 .15-.122.272-.273.272h-.312a.272.272 0 01-.272-.272v-.312c0-.15.122-.272.272-.272h.312zm-1.168 0c.15 0 .272.122.272.272v.312c0 .15-.122.272-.272.272h-.312a.272.272 0 01-.272-.272v-.312c0-.15.122-.272.272-.272h.312zm11.682 0c.15 0 .273.122.273.272v.312c0 .15-.122.272-.273.272h-.312a.273.273 0 01-.273-.272v-.312c0-.15.122-.272.273-.272h.312zm-5.841 0c.15 0 .272.122.272.272v.312c0 .15-.122.272-.272.272h-.312a.273.273 0 01-.273-.272v-.312c0-.15.122-.272.273-.272h.312zm-2.336 0c.15 0 .272.122.272.272v.312c0 .15-.122.272-.272.272h-.312a.272.272 0 01-.272-.272v-.312c0-.15.122-.272.272-.272h.312zm4.673-1.168c.151 0 .273.122.273.273v.312c0 .15-.122.272-.273.272h-.312a.273.273 0 01-.273-.272v-.312c0-.15.122-.273.273-.273h.312zm-4.673 0c.15 0 .272.122.272.273v.312c0 .15-.122.272-.272.272h-.312a.272.272 0 01-.272-.272v-.312c0-.15.122-.273.272-.273h.312zm3.505 0c.15 0 .272.122.272.273v.312c0 .15-.122.272-.272.272h-.312a.272.272 0 01-.272-.272v-.312c0-.15.122-.273.272-.273h.312zm-1.168 0c.15 0 .272.122.272.273v.312c0 .15-.122.272-.272.272h-.312a.273.273 0 01-.273-.272v-.312c0-.15.122-.273.273-.273h.312zm-4.673 0c.15 0 .273.122.273.273v.312c0 .15-.122.272-.273.272h-.312a.272.272 0 01-.272-.272v-.312c0-.15.122-.273.272-.273h.312zm-1.168 0c.15 0 .272.122.272.273v.312c0 .15-.122.272-.272.272h-.312a.272.272 0 01-.272-.272v-.312c0-.15.122-.273.272-.273h.312zm9.345 0c.15 0 .272.122.272.273v.312c0 .15-.122.272-.272.272h-.312a.272.272 0 01-.272-.272v-.312c0-.15.122-.273.272-.273h.312zm-4.673 0c.15 0 .273.122.273.273v.312c0 .15-.122.272-.273.272h-.312a.273.273 0 01-.273-.272v-.312c0-.15.122-.273.273-.273h.312zm5.841 0c.15 0 .273.122.273.273v.312c0 .15-.122.272-.273.272h-.312a.272.272 0 01-.272-.272v-.312c0-.15.122-.273.272-.273h.312zm-8.177 0c.15 0 .272.122.272.273v.312c0 .15-.122.272-.272.272h-.312a.273.273 0 01-.273-.272v-.312c0-.15.122-.273.273-.273h.312zm9.345 0c.151 0 .273.122.273.273v.312c0 .15-.122.272-.273.272h-.312a.273.273 0 01-.273-.272v-.312c0-.15.122-.273.273-.273h.312zm-4.673-1.168c.15 0 .272.122.272.272v.312c0 .15-.122.273-.272.273h-.312a.272.272 0 01-.272-.273v-.312c0-.15.122-.272.272-.272h.312zm-3.505 0c.15 0 .272.122.272.272v.312c0 .15-.122.273-.272.273h-.312a.272.272 0 01-.272-.273v-.312c0-.15.122-.272.272-.272h.312zm1.168 0c.15 0 .273.122.273.272v.312c0 .15-.122.273-.273.273h-.312a.273.273 0 01-.273-.273v-.312c0-.15.122-.272.273-.272h.312zm-3.505 0c.15 0 .273.122.273.272v.312c0 .15-.122.273-.273.273h-.312a.272.272 0 01-.272-.273v-.312c0-.15.122-.272.272-.272h.312zm1.168 0c.15 0 .272.122.272.272v.312c0 .15-.122.273-.272.273h-.312a.273.273 0 01-.273-.273v-.312c0-.15.122-.272.273-.272h.312zm3.505 0c.15 0 .272.122.272.272v.312c0 .15-.122.273-.272.273h-.312a.273.273 0 01-.273-.273v-.312c0-.15.122-.272.273-.272h.312zm3.505 0c.15 0 .272.122.272.272v.312c0 .15-.122.273-.272.273h-.312a.272.272 0 01-.272-.273v-.312c0-.15.122-.272.272-.272h.312zm1.168 0c.15 0 .273.122.273.272v.312c0 .15-.122.273-.273.273h-.312a.272.272 0 01-.272-.273v-.312c0-.15.122-.272.272-.272h.312zm-2.336 0c.151 0 .273.122.273.272v.312c0 .15-.122.273-.273.273h-.312a.273.273 0 01-.273-.273v-.312c0-.15.122-.272.273-.272h.312zm1.168-1.168c.15 0 .272.122.272.273v.312c0 .15-.122.272-.272.272h-.312a.272.272 0 01-.272-.272v-.312c0-.15.122-.273.272-.273h.312zm-1.168 0c.151 0 .273.122.273.273v.312c0 .15-.122.272-.273.272h-.312a.273.273 0 01-.273-.272v-.312c0-.15.122-.273.273-.273h.312zm-1.168 0c.15 0 .272.122.272.273v.312c0 .15-.122.272-.272.272h-.312a.272.272 0 01-.272-.272v-.312c0-.15.122-.273.272-.273h.312zm-3.505 0c.15 0 .272.122.272.273v.312c0 .15-.122.272-.272.272h-.312a.272.272 0 01-.272-.272v-.312c0-.15.122-.273.272-.273h.312zm1.168 0c.15 0 .273.122.273.273v.312c0 .15-.122.272-.273.272h-.312a.273.273 0 01-.273-.272v-.312c0-.15.122-.273.273-.273h.312zm-2.336 0c.15 0 .272.122.272.273v.312c0 .15-.122.272-.272.272h-.312a.273.273 0 01-.273-.272v-.312c0-.15.122-.273.273-.273h.312zm-1.168 0c.15 0 .273.122.273.273v.312c0 .15-.122.272-.273.272h-.312a.272.272 0 01-.272-.272v-.312c0-.15.122-.273.272-.273h.312zm4.673 0c.15 0 .272.122.272.273v.312c0 .15-.122.272-.272.272h-.312a.273.273 0 01-.273-.272v-.312c0-.15.122-.273.273-.273h.312zm1.168-1.168c.15 0 .272.122.272.272v.312c0 .15-.122.273-.272.273h-.312a.272.272 0 01-.272-.273v-.312c0-.15.122-.272.272-.272h.312zm-4.673 0c.15 0 .273.122.273.272v.312c0 .15-.122.273-.273.273h-.312a.273.273 0 01-.273-.273v-.312c0-.15.122-.272.273-.272h.312zm3.505 0c.15 0 .272.122.272.272v.312c0 .15-.122.273-.272.273h-.312a.273.273 0 01-.273-.273v-.312c0-.15.122-.272.273-.272h.312zm-1.168 0c.15 0 .273.122.273.272v.312c0 .15-.122.273-.273.273h-.312a.273.273 0 01-.273-.273v-.312c0-.15.122-.272.273-.272h.312zm3.505 0c.151 0 .273.122.273.272v.312c0 .15-.122.273-.273.273h-.312a.273.273 0 01-.273-.273v-.312c0-.15.122-.272.273-.272h.312zm-4.673 0c.15 0 .272.122.272.272v.312c0 .15-.122.273-.272.273h-.312a.272.272 0 01-.272-.273v-.312c0-.15.122-.272.272-.272h.312zm5.841 0c.15 0 .272.122.272.272v.312c0 .15-.122.273-.272.273h-.312a.272.272 0 01-.272-.273v-.312c0-.15.122-.272.272-.272h.312zm-8.177 0c.15 0 .273.122.273.272v.312c0 .15-.122.273-.273.273h-.312a.272.272 0 01-.272-.273v-.312c0-.15.122-.272.272-.272h.312zm2.336-1.168c.15 0 .272.122.272.272v.312c0 .15-.122.272-.272.272h-.312a.272.272 0 01-.272-.272v-.312c0-.15.122-.272.272-.272h.312zm-2.336 0c.15 0 .273.122.273.272v.312c0 .15-.122.272-.273.272h-.312a.272.272 0 01-.272-.272v-.312c0-.15.122-.272.272-.272h.312zm4.673 0c.15 0 .272.122.272.272v.312c0 .15-.122.272-.272.272h-.312a.273.273 0 01-.273-.272v-.312c0-.15.122-.272.273-.272h.312zm-1.168 0c.15 0 .273.122.273.272v.312c0 .15-.122.272-.273.272h-.312a.272.272 0 01-.273-.272v-.312c0-.15.122-.272.273-.272h.312zm3.505 0c.151 0 .273.122.273.272v.312c0 .15-.122.272-.273.272h-.312a.273.273 0 01-.273-.272v-.312c0-.15.122-.272.273-.272h.312zm-1.168 0c.15 0 .272.122.272.272v.312c0 .15-.122.272-.272.272h-.312a.272.272 0 01-.272-.272v-.312c0-.15.122-.272.272-.272h.312zm-4.673 0c.15 0 .273.122.273.272v.312c0 .15-.122.272-.273.272h-.312a.273.273 0 01-.273-.272v-.312c0-.15.122-.272.273-.272h.312zm4.673-1.168c.15 0 .272.122.272.273v.312c0 .15-.122.272-.272.272h-.312a.272.272 0 01-.272-.272v-.312c0-.15.122-.273.272-.273h.312zm-1.168 0c.15 0 .272.122.272.273v.312c0 .15-.122.272-.272.272h-.312a.273.273 0 01-.273-.272v-.312c0-.15.122-.273.273-.273h.312zm-10.514 0c.15 0 .273.122.273.273v.312c0 .15-.122.272-.273.272h-.312a.272.272 0 01-.272-.272v-.312c0-.15.122-.273.272-.273h.312zm1.168 0c.15 0 .272.122.272.273v.312c0 .15-.122.272-.272.272h-.312a.272.272 0 01-.272-.272v-.312c0-.15.122-.273.272-.273h.312zm11.682 0c.151 0 .273.122.273.273v.312c0 .15-.122.272-.273.272h-.312a.273.273 0 01-.273-.272v-.312c0-.15.122-.273.273-.273h.312zm-5.841 0c.15 0 .273.122.273.273v.312c0 .15-.122.272-.273.272h-.312a.273.273 0 01-.273-.272v-.312c0-.15.122-.273.273-.273h.312zm1.168 0c.15 0 .272.122.272.273v.312c0 .15-.122.272-.272.272h-.312a.272.272 0 01-.272-.272v-.312c0-.15.122-.273.272-.273h.312zm-2.336 0c.15 0 .273.122.273.273v.312c0 .15-.122.272-.273.272h-.312a.272.272 0 01-.272-.272v-.312c0-.15.122-.273.272-.273h.312zm3.505 0c.15 0 .273.122.273.273v.312c0 .15-.122.272-.273.272h-.312a.272.272 0 01-.273-.272v-.312c0-.15.122-.273.273-.273h.312zm-1.168-1.168c.15 0 .272.122.272.272v.312c0 .15-.122.273-.272.273h-.312a.272.272 0 01-.272-.273v-.312c0-.15.122-.272.272-.272h.312zm-1.168 0c.15 0 .273.122.273.272v.312c0 .15-.122.273-.273.273h-.312a.273.273 0 01-.273-.273v-.312c0-.15.122-.272.273-.272h.312zm-4.673 0c.15 0 .272.122.272.272v.312c0 .15-.122.273-.272.273h-.312a.272.272 0 01-.272-.273v-.312c0-.15.122-.272.272-.272h.312zm1.168 0c.15 0 .273.122.273.272v.312c0 .15-.122.273-.273.273h-.312a.272.272 0 01-.272-.273v-.312c0-.15.122-.272.272-.272h.312zm2.336 0c.15 0 .273.122.273.272v.312c0 .15-.122.273-.273.273h-.312a.272.272 0 01-.272-.273v-.312c0-.15.122-.272.272-.272h.312zm3.505 0c.15 0 .273.122.273.272v.312c0 .15-.122.273-.273.273h-.312a.273.273 0 01-.273-.273v-.312c0-.15.122-.272.273-.272h.312zm3.505 0c.151 0 .273.122.273.272v.312c0 .15-.122.273-.273.273h-.312a.273.273 0 01-.273-.273v-.312c0-.15.122-.272.273-.272h.312zm-8.177 0c.15 0 .272.122.272.272v.312c0 .15-.122.273-.272.273h-.312a.272.272 0 01-.272-.273v-.312c0-.15.122-.272.272-.272h.312zm7.009 0c.15 0 .272.122.272.272v.312c0 .15-.122.273-.272.273h-.312a.272.272 0 01-.272-.273v-.312c0-.15.122-.272.272-.272h.312zm-1.168 0c.15 0 .272.122.272.272v.312c0 .15-.122.273-.272.273h-.312a.273.273 0 01-.273-.273v-.312c0-.15.122-.272.273-.272h.312zm-11.682 0c.15 0 .272.122.272.272v.312c0 .15-.122.273-.272.273h-.312a.273.273 0 01-.273-.273v-.312c0-.15.122-.272.273-.272h.312zm1.168 0c.15 0 .273.122.273.272v.312c0 .15-.122.273-.273.273h-.312a.272.272 0 01-.272-.273v-.312c0-.15.122-.272.272-.272h.312zm1.168 0c.15 0 .272.122.272.272v.312c0 .15-.122.273-.272.273h-.312a.272.272 0 01-.272-.273v-.312c0-.15.122-.272.272-.272h.312zm10.514-1.168c.15 0 .272.122.272.273v.312c0 .15-.122.272-.272.272h-.312a.272.272 0 01-.272-.272v-.312c0-.15.122-.273.272-.273h.312zm-5.841 0c.15 0 .273.122.273.273v.312c0 .15-.122.272-.273.272h-.312a.272.272 0 01-.272-.272v-.312c0-.15.122-.273.272-.273h.312zm1.168 0c.15 0 .272.122.272.273v.312c0 .15-.122.272-.272.272h-.312a.273.273 0 01-.273-.272v-.312c0-.15.122-.273.273-.273h.312zm1.168 0c.15 0 .272.122.272.273v.312c0 .15-.122.272-.272.272h-.312a.272.272 0 01-.272-.272v-.312c0-.15.122-.273.272-.273h.312zm2.336 0c.15 0 .272.122.272.273v.312c0 .15-.122.272-.272.272h-.312a.273.273 0 01-.273-.272v-.312c0-.15.122-.273.273-.273h.312zm-7.009 0c.15 0 .273.122.273.273v.312c0 .15-.122.272-.273.272h-.312a.272.272 0 01-.273-.272v-.312c0-.15.122-.273.273-.273h.312zm-2.336 0c.15 0 .272.122.272.273v.312c0 .15-.122.272-.272.272h-.312a.272.272 0 01-.272-.272v-.312c0-.15.122-.273.272-.273h.312zm-1.168 0c.15 0 .273.122.273.273v.312c0 .15-.122.272-.273.272h-.312a.272.272 0 01-.272-.272v-.312c0-.15.122-.273.272-.273h.312zm4.673 0c.15 0 .272.122.272.273v.312c0 .15-.122.272-.272.272h-.312a.272.272 0 01-.272-.272v-.312c0-.15.122-.273.272-.273h.312zm-2.336 0c.15 0 .272.122.272.273v.312c0 .15-.122.272-.272.272h-.312a.272.272 0 01-.272-.272v-.312c0-.15.122-.273.272-.273h.312zm7.009 0c.15 0 .273.122.273.273v.312c0 .15-.122.272-.273.272h-.312a.272.272 0 01-.273-.272v-.312c0-.15.122-.273.273-.273h.312zm-5.841-1.168c.15 0 .273.122.273.273v.312c0 .15-.122.272-.273.272h-.312a.272.272 0 01-.272-.272v-.312c0-.15.122-.273.272-.273h.312zm1.168 0c.15 0 .272.122.272.273v.312c0 .15-.122.272-.272.272h-.312a.272.272 0 01-.272-.272v-.312c0-.15.122-.273.272-.273h.312zm1.168 0c.15 0 .273.122.273.273v.312c0 .15-.122.272-.273.272h-.312a.272.272 0 01-.272-.272v-.312c0-.15.122-.273.272-.273h.312zm3.505 0c.15 0 .273.122.273.273v.312c0 .15-.122.272-.273.272h-.312a.272.272 0 01-.273-.272v-.312c0-.15.122-.273.273-.273h.312zm-2.336 0c.15 0 .273.122.273.273v.312c0 .15-.122.272-.273.272h-.312a.273.273 0 01-.273-.272v-.312c0-.15.122-.273.273-.273h.312zm3.505 0c.15 0 .272.122.272.273v.312c0 .15-.122.272-.272.272h-.312a.273.273 0 01-.273-.272v-.312c0-.15.122-.273.273-.273h.312zm-2.336 0c.15 0 .272.122.272.273v.312c0 .15-.122.272-.272.272h-.312a.272.272 0 01-.272-.272v-.312c0-.15.122-.273.272-.273h.312zm-5.841 0c.15 0 .272.122.272.273v.312c0 .15-.122.272-.272.272h-.312a.272.272 0 01-.272-.272v-.312c0-.15.122-.273.272-.273h.312zm-1.168 0c.15 0 .272.122.272.273v.312c0 .15-.122.272-.272.272h-.312a.272.272 0 01-.272-.272v-.312c0-.15.122-.273.272-.273h.312zm2.336-1.168c.15 0 .273.122.273.272v.312c0 .15-.122.272-.273.272h-.312a.272.272 0 01-.272-.272v-.312c0-.15.122-.272.272-.272h.312zm-1.168 0c.15 0 .272.122.272.272v.312c0 .15-.122.272-.272.272h-.312a.272.272 0 01-.272-.272v-.312c0-.15.122-.272.272-.272h.312zm2.336 0c.15 0 .272.122.272.272v.312c0 .15-.122.272-.272.272h-.312a.272.272 0 01-.272-.272v-.312c0-.15.122-.272.272-.272h.312zm2.336 0c.15 0 .273.122.273.272v.312c0 .15-.122.272-.273.272h-.312a.273.273 0 01-.273-.272v-.312c0-.15.122-.272.273-.272h.312zm-1.168 0c.15 0 .273.122.273.272v.312c0 .15-.122.272-.273.272h-.312a.272.272 0 01-.272-.272v-.312c0-.15.122-.272.272-.272h.312zm2.336 0c.15 0 .272.122.272.272v.312c0 .15-.122.272-.272.272h-.312a.272.272 0 01-.272-.272v-.312c0-.15.122-.272.272-.272h.312zm1.168 0c.15 0 .273.122.273.272v.312c0 .15-.122.272-.273.272h-.312a.272.272 0 01-.273-.272v-.312c0-.15.122-.272.273-.272h.312zm-4.673-1.168c.15 0 .272.122.272.273v.312c0 .15-.122.273-.272.273h-.312a.272.272 0 01-.272-.273v-.312c0-.151.122-.273.272-.273h.312zm-1.168 0c.15 0 .273.122.273.273v.312c0 .15-.122.273-.273.273h-.312a.273.273 0 01-.273-.273v-.312c0-.151.122-.273.273-.273h.312zm2.336 0c.15 0 .273.122.273.273v.312c0 .15-.122.273-.273.273h-.312a.272.272 0 01-.272-.273v-.312c0-.151.122-.273.272-.273h.312zm2.336 0c.15 0 .272.122.272.273v.312c0 .15-.122.273-.272.273h-.312a.272.272 0 01-.272-.273v-.312c0-.151.122-.273.272-.273h.312zm-1.168 0c.15 0 .272.122.272.273v.312c0 .15-.122.273-.272.273h-.312a.273.273 0 01-.273-.273v-.312c0-.151.122-.273.273-.273h.312zm-3.505-1.168c.15 0 .273.122.273.272v.312c0 .15-.122.272-.273.272h-.312a.272.272 0 01-.273-.272v-.312c0-.15.122-.272.273-.272h.312zm1.168 0c.15 0 .272.122.272.272v.312c0 .15-.122.272-.272.272h-.312a.272.272 0 01-.272-.272v-.312c0-.15.122-.272.272-.272h.312z"/></g></svg>