<svg version="1.1" id="Layer_1" xmlns="http://www.w3.org/2000/svg" x="0" y="0" viewBox="0 0 340 60" xml:space="preserve"><style>.st1{fill:#fff}</style><path d="M74 8.5c-6.7-5.2-14-6-21.7-2.3-7.9 3.9-11.9 10.8-11.4 19.6-8.6-.2-15.9 7.8-14.9 16.3.8 6.9 5.5 11.8 12.4 12.8h42c8.5-1.1 11.5-4.8 12.9-10.6" fill="none" stroke="#fff" stroke-width="2" stroke-linecap="round" stroke-linejoin="round" stroke-miterlimit="3.864"/><path class="st1" d="M74.6 34.2h.4c.2 0 .4.2.4.4v.4c0 .2-.2.4-.4.4h-.4c-.2 0-.4-.2-.4-.4v-.4c0-.3.2-.4.4-.4zm1.6 0h.4c.2 0 .4.2.4.4v.4c0 .2-.2.4-.4.4h-.4c-.2 0-.4-.2-.4-.4v-.4c0-.3.2-.4.4-.4zm4.9-24.3h.4c.2 0 .4.2.4.4v.4c0 .2-.2.4-.4.4h-.4c-.2 0-.4-.2-.4-.4v-.4c0-.2.2-.4.4-.4zm-1.6 0h.4c.2 0 .4.2.4.4v.4c0 .2-.2.4-.4.4h-.4c-.2 0-.4-.2-.4-.4v-.4c0-.2.2-.4.4-.4zm3.2 0h.4c.2 0 .4.2.4.4v.4c0 .2-.2.4-.4.4h-.4c-.2 0-.4-.2-.4-.4v-.4c0-.2.2-.4.4-.4zm3.2 0h.4c.2 0 .4.2.4.4v.4c0 .2-.2.4-.4.4h-.4c-.2 0-.4-.2-.4-.4v-.4c.1-.2.2-.4.4-.4zm-1.6 0h.4c.2 0 .4.2.4.4v.4c0 .2-.2.4-.4.4h-.4c-.2 0-.4-.2-.4-.4v-.4c0-.2.2-.4.4-.4zm-4.8 1.6h.4c.2 0 .4.2.4.4v.4c0 .2-.2.4-.4.4h-.4c-.2 0-.4-.2-.4-.4v-.4c0-.2.2-.4.4-.4zm-1.7 0h.4c.2 0 .4.2.4.4v.4c0 .2-.2.4-.4.4h-.4c-.2 0-.4-.2-.4-.4v-.4c.1-.2.2-.4.4-.4zm3.3 0h.4c.2 0 .4.2.4.4v.4c0 .2-.2.4-.4.4h-.4c-.2 0-.4-.2-.4-.4v-.4c0-.2.2-.4.4-.4zm3.2 0h.4c.2 0 .4.2.4.4v.4c0 .2-.2.4-.4.4h-.4c-.2 0-.4-.2-.4-.4v-.4c0-.2.2-.4.4-.4zm-1.6 0h.4c.2 0 .4.2.4.4v.4c0 .2-.2.4-.4.4h-.4c-.2 0-.4-.2-.4-.4v-.4c0-.2.2-.4.4-.4zm3.2 0h.4c.2 0 .4.2.4.4v.4c0 .2-.2.4-.4.4h-.4c-.2 0-.4-.2-.4-.4v-.4c.1-.2.2-.4.4-.4zm1.6 0h.5c.2 0 .4.2.4.4v.4c0 .2-.2.4-.4.4h-.4c-.2 0-.4-.2-.4-.4v-.4c0-.2.1-.4.3-.4zm-9.7 1.6h.4c.2 0 .4.2.4.4v.4c0 .2-.2.4-.4.4h-.4c-.2 0-.4-.2-.4-.4v-.4c.1-.2.2-.4.4-.4zm-1.6 0h.4c.2 0 .4.2.4.4v.4c0 .2-.2.4-.4.4h-.4c-.2 0-.4-.2-.4-.4v-.4c0-.2.2-.4.4-.4zm3.3 0h.4c.2 0 .4.2.4.4v.4c0 .2-.2.4-.4.4h-.4c-.2 0-.4-.2-.4-.4v-.4c0-.2.2-.4.4-.4zm3.2 0h.4c.2 0 .4.2.4.4v.4c0 .2-.2.4-.4.4h-.4c-.2 0-.4-.2-.4-.4v-.4c0-.2.2-.4.4-.4zm-1.6 0h.4c.2 0 .4.2.4.4v.4c0 .2-.2.4-.4.4h-.4c-.2 0-.4-.2-.4-.4v-.4c0-.2.2-.4.4-.4zm3.2 0h.4c.2 0 .4.2.4.4v.4c0 .2-.2.4-.4.4h-.4c-.2 0-.4-.2-.4-.4v-.4c0-.2.2-.4.4-.4zm1.6 0h.4c.2 0 .4.2.4.4v.4c0 .2-.2.4-.4.4h-.4c-.2 0-.4-.2-.4-.4v-.4c.1-.2.2-.4.4-.4zm3.3 0h.4c.2 0 .4.2.4.4v.4c0 .2-.2.4-.4.4h-.4c-.2 0-.4-.2-.4-.4v-.4c0-.2.2-.4.4-.4zm-1.7 0h.5c.2 0 .4.2.4.4v.4c0 .2-.2.4-.4.4h-.4c-.2 0-.4-.2-.4-.4v-.4c0-.2.1-.4.3-.4zm-11.3 1.6h.4c.2 0 .4.2.4.4v.4c0 .2-.2.4-.4.4h-.4c-.2 0-.4-.2-.4-.4v-.4c0-.2.2-.4.4-.4zm-1.6 0h.4c.2 0 .4.2.4.4v.4c0 .2-.2.4-.4.4h-.4c-.2 0-.4-.2-.4-.4v-.4c0-.2.2-.4.4-.4zm3.2 0h.4c.2 0 .4.2.4.4v.4c0 .2-.2.4-.4.4h-.4c-.2 0-.4-.2-.4-.4v-.4c.1-.2.2-.4.4-.4zm3.3 0h.4c.2 0 .4.2.4.4v.4c0 .2-.2.4-.4.4h-.4c-.2 0-.4-.2-.4-.4v-.4c0-.2.2-.4.4-.4zm-1.6 0h.4c.2 0 .4.2.4.4v.4c0 .2-.2.4-.4.4h-.4c-.2 0-.4-.2-.4-.4v-.4c0-.2.2-.4.4-.4zm3.2 0h.4c.2 0 .4.2.4.4v.4c0 .2-.2.4-.4.4h-.4c-.2 0-.4-.2-.4-.4v-.4c0-.2.2-.4.4-.4zm1.6 0h.4c.2 0 .4.2.4.4v.4c0 .2-.2.4-.4.4h-.4c-.2 0-.4-.2-.4-.4v-.4c0-.2.2-.4.4-.4zm3.2 0h.5c.2 0 .4.2.4.4v.4c0 .2-.2.4-.4.4h-.4c-.2 0-.4-.2-.4-.4v-.4c0-.2.1-.4.3-.4zm-1.6 0h.4c.2 0 .4.2.4.4v.4c0 .2-.2.4-.4.4h-.4c-.2 0-.4-.2-.4-.4v-.4c.1-.2.2-.4.4-.4zm3.3 0h.4c.2 0 .4.2.4.4v.4c0 .2-.2.4-.4.4h-.4c-.2 0-.4-.2-.4-.4v-.4c0-.2.2-.4.4-.4zm1.6 0h.4c.2 0 .4.2.4.4v.4c0 .2-.2.4-.4.4h-.4c-.2 0-.4-.2-.4-.4v-.4c0-.2.2-.4.4-.4zm-16.2 1.7h.4c.2 0 .4.2.4.4v.4c0 .2-.2.4-.4.4h-.4c-.2 0-.4-.2-.4-.4v-.4c0-.3.2-.4.4-.4zm-1.6 0h.4c.2 0 .4.2.4.4v.4c0 .2-.2.4-.4.4H73c-.2 0-.4-.2-.4-.4v-.4c0-.3.2-.4.4-.4zm3.2 0h.4c.2 0 .4.2.4.4v.4c0 .2-.2.4-.4.4h-.4c-.2 0-.4-.2-.4-.4v-.4c0-.3.2-.4.4-.4zm3.3 0h.4c.2 0 .4.2.4.4v.4c0 .2-.2.4-.4.4h-.4c-.2 0-.4-.2-.4-.4v-.4c0-.3.2-.4.4-.4zm-1.7 0h.4c.2 0 .4.2.4.4v.4c0 .2-.2.4-.4.4h-.4c-.2 0-.4-.2-.4-.4v-.4c.1-.3.2-.4.4-.4zm3.3 0h.4c.2 0 .4.2.4.4v.4c0 .2-.2.4-.4.4h-.4c-.2 0-.4-.2-.4-.4v-.4c0-.3.2-.4.4-.4zm1.6 0h.4c.2 0 .4.2.4.4v.4c0 .2-.2.4-.4.4h-.4c-.2 0-.4-.2-.4-.4v-.4c0-.3.2-.4.4-.4zm3.2 0h.4c.2 0 .4.2.4.4v.4c0 .2-.2.4-.4.4h-.4c-.2 0-.4-.2-.4-.4v-.4c.1-.3.2-.4.4-.4zm-1.6 0h.4c.2 0 .4.2.4.4v.4c0 .2-.2.4-.4.4h-.4c-.2 0-.4-.2-.4-.4v-.4c0-.3.2-.4.4-.4zm3.2 0h.5c.2 0 .4.2.4.4v.4c0 .2-.2.4-.4.4h-.4c-.2 0-.4-.2-.4-.4v-.4c0-.3.1-.4.3-.4zm1.7 0h.4c.2 0 .4.2.4.4v.4c0 .2-.2.4-.4.4h-.4c-.2 0-.4-.2-.4-.4v-.4c0-.3.2-.4.4-.4zm1.6 0h.4c.2 0 .4.2.4.4v.4c0 .2-.2.4-.4.4h-.4c-.2 0-.4-.2-.4-.4v-.4c0-.3.2-.4.4-.4zm1.6 0h.4c.2 0 .4.2.4.4v.4c0 .2-.2.4-.4.4h-.4c-.2 0-.4-.2-.4-.4v-.4c0-.3.2-.4.4-.4zM74.6 18h.4c.2 0 .4.2.4.4v.4c0 .2-.2.4-.4.4h-.4c-.2 0-.4-.2-.4-.4v-.4c0-.2.2-.4.4-.4zm1.6 0h.4c.2 0 .4.2.4.4v.4c0 .2-.2.4-.4.4h-.4c-.2 0-.4-.2-.4-.4v-.4c0-.2.2-.4.4-.4zm6.5 0h.4c.2 0 .4.2.4.4v.4c0 .2-.2.4-.4.4h-.4c-.2 0-.4-.2-.4-.4v-.4c0-.2.2-.4.4-.4zm1.6 0h.4c.2 0 .4.2.4.4v.4c0 .2-.2.4-.4.4h-.4c-.2 0-.4-.2-.4-.4v-.4c0-.2.2-.4.4-.4zm1.6 0h.4c.2 0 .4.2.4.4v.4c0 .2-.2.4-.4.4h-.4c-.2 0-.4-.2-.4-.4v-.4c.1-.2.2-.4.4-.4zm1.6 0h.5c.2 0 .4.2.4.4v.4c0 .2-.2.4-.4.4h-.4c-.2 0-.4-.2-.4-.4v-.4c0-.2.1-.4.3-.4zm1.7 0h.4c.2 0 .4.2.4.4v.4c0 .2-.2.4-.4.4h-.4c-.2 0-.4-.2-.4-.4v-.4c0-.2.2-.4.4-.4zm1.6 0h.4c.2 0 .4.2.4.4v.4c0 .2-.2.4-.4.4h-.4c-.2 0-.4-.2-.4-.4v-.4c0-.2.2-.4.4-.4zm1.6 0h.4c.2 0 .4.2.4.4v.4c0 .2-.2.4-.4.4h-.4c-.2 0-.4-.2-.4-.4v-.4c0-.2.2-.4.4-.4zm-9.7 1.6h.4c.2 0 .4.2.4.4v.4c0 .2-.2.4-.4.4h-.4c-.2 0-.4-.2-.4-.4V20c0-.2.2-.4.4-.4zm1.6 0h.4c.2 0 .4.2.4.4v.4c0 .2-.2.4-.4.4h-.4c-.2 0-.4-.2-.4-.4V20c0-.2.2-.4.4-.4zm1.6 0h.4c.2 0 .4.2.4.4v.4c0 .2-.2.4-.4.4h-.4c-.2 0-.4-.2-.4-.4V20c.1-.2.2-.4.4-.4zm1.6 0h.5c.2 0 .4.2.4.4v.4c0 .2-.2.4-.4.4h-.4c-.2 0-.4-.2-.4-.4V20c0-.2.1-.4.3-.4zm1.7 0h.4c.2 0 .4.2.4.4v.4c0 .2-.2.4-.4.4h-.4c-.2 0-.4-.2-.4-.4V20c0-.2.2-.4.4-.4zm1.6 0h.4c.2 0 .4.2.4.4v.4c0 .2-.2.4-.4.4h-.4c-.2 0-.4-.2-.4-.4V20c0-.2.2-.4.4-.4zm1.6 0h.4c.2 0 .4.2.4.4v.4c0 .2-.2.4-.4.4h-.4c-.2 0-.4-.2-.4-.4V20c0-.2.2-.4.4-.4zm-9.7 1.6h.4c.2 0 .4.2.4.4v.4c0 .2-.2.4-.4.4h-.4c-.2 0-.4-.2-.4-.4v-.4c0-.2.2-.4.4-.4zm1.6 0h.4c.2 0 .4.2.4.4v.4c0 .2-.2.4-.4.4h-.4c-.2 0-.4-.2-.4-.4v-.4c0-.2.2-.4.4-.4zm1.6 0h.4c.2 0 .4.2.4.4v.4c0 .2-.2.4-.4.4h-.4c-.2 0-.4-.2-.4-.4v-.4c.1-.2.2-.4.4-.4zm1.6 0h.5c.2 0 .4.2.4.4v.4c0 .2-.2.4-.4.4h-.4c-.2 0-.4-.2-.4-.4v-.4c0-.2.1-.4.3-.4zm1.7 0h.4c.2 0 .4.2.4.4v.4c0 .2-.2.4-.4.4h-.4c-.2 0-.4-.2-.4-.4v-.4c0-.2.2-.4.4-.4zm1.6 0h.4c.2 0 .4.2.4.4v.4c0 .2-.2.4-.4.4h-.4c-.2 0-.4-.2-.4-.4v-.4c0-.2.2-.4.4-.4zm1.6 0h.4c.2 0 .4.2.4.4v.4c0 .2-.2.4-.4.4h-.4c-.2 0-.4-.2-.4-.4v-.4c0-.2.2-.4.4-.4zm3.2 4.9h.4c.2 0 .4.2.4.4v.4c0 .2-.2.4-.4.4h-.4c-.2 0-.4-.2-.4-.4v-.4c.1-.3.2-.4.4-.4zm-12.9-3.3h.4c.2 0 .4.2.4.4v.4c0 .2-.2.4-.4.4h-.4c-.2 0-.4-.2-.4-.4v-.4c0-.2.2-.4.4-.4zm1.6 0h.4c.2 0 .4.2.4.4v.4c0 .2-.2.4-.4.4h-.4c-.2 0-.4-.2-.4-.4v-.4c0-.2.2-.4.4-.4zm1.6 0h.4c.2 0 .4.2.4.4v.4c0 .2-.2.4-.4.4h-.4c-.2 0-.4-.2-.4-.4v-.4c.1-.2.2-.4.4-.4zm1.6 0h.5c.2 0 .4.2.4.4v.4c0 .2-.2.4-.4.4h-.4c-.2 0-.4-.2-.4-.4v-.4c0-.2.1-.4.3-.4zm1.7 0h.4c.2 0 .4.2.4.4v.4c0 .2-.2.4-.4.4h-.4c-.2 0-.4-.2-.4-.4v-.4c0-.2.2-.4.4-.4zm1.6 0h.4c.2 0 .4.2.4.4v.4c0 .2-.2.4-.4.4h-.4c-.2 0-.4-.2-.4-.4v-.4c0-.2.2-.4.4-.4zM79.5 8.3h.4c.2 0 .4.2.4.4v.4c0 .2-.2.4-.4.4h-.4c-.2 0-.4-.2-.4-.4v-.4c0-.3.2-.4.4-.4zm1.6 0h.4c.2 0 .4.2.4.4v.4c0 .2-.2.4-.4.4h-.4c-.2 0-.4-.2-.4-.4v-.4c0-.3.2-.4.4-.4zm11.3 14.5h.4c.2 0 .4.2.4.4v.4c0 .2-.2.4-.4.4h-.4c-.2 0-.4-.2-.4-.4v-.4c0-.2.2-.4.4-.4zm1.6 0h.4c.2 0 .4.2.4.4v.4c0 .2-.2.4-.4.4H94c-.2 0-.4-.2-.4-.4v-.4c0-.2.2-.4.4-.4zm-11.3 1.7h.4c.2 0 .4.2.4.4v.4c0 .2-.2.4-.4.4h-.4c-.2 0-.4-.2-.4-.4v-.4c0-.3.2-.4.4-.4zm1.6 0h.4c.2 0 .4.2.4.4v.4c0 .2-.2.4-.4.4h-.4c-.2 0-.4-.2-.4-.4v-.4c0-.3.2-.4.4-.4zm1.6 0h.4c.2 0 .4.2.4.4v.4c0 .2-.2.4-.4.4h-.4c-.2 0-.4-.2-.4-.4v-.4c.1-.3.2-.4.4-.4zm1.6 0h.5c.2 0 .4.2.4.4v.4c0 .2-.2.4-.4.4h-.4c-.2 0-.4-.2-.4-.4v-.4c0-.3.1-.4.3-.4zm1.7 0h.4c.2 0 .4.2.4.4v.4c0 .2-.2.4-.4.4h-.4c-.2 0-.4-.2-.4-.4v-.4c0-.3.2-.4.4-.4zm1.6 0h.4c.2 0 .4.2.4.4v.4c0 .2-.2.4-.4.4h-.4c-.2 0-.4-.2-.4-.4v-.4c0-.3.2-.4.4-.4zm1.6 0h.4c.2 0 .4.2.4.4v.4c0 .2-.2.4-.4.4h-.4c-.2 0-.4-.2-.4-.4v-.4c0-.3.2-.4.4-.4zm1.6 0h.4c.2 0 .4.2.4.4v.4c0 .2-.2.4-.4.4H94c-.2 0-.4-.2-.4-.4v-.4c0-.3.2-.4.4-.4zm-12.9 1.6h.4c.2 0 .4.2.4.4v.4c0 .2-.2.4-.4.4h-.4c-.2 0-.4-.2-.4-.4v-.4c0-.3.2-.4.4-.4zm1.6 0h.4c.2 0 .4.2.4.4v.4c0 .2-.2.4-.4.4h-.4c-.2 0-.4-.2-.4-.4v-.4c0-.3.2-.4.4-.4zm1.6 0h.4c.2 0 .4.2.4.4v.4c0 .2-.2.4-.4.4h-.4c-.2 0-.4-.2-.4-.4v-.4c0-.3.2-.4.4-.4zm1.6 0h.4c.2 0 .4.2.4.4v.4c0 .2-.2.4-.4.4h-.4c-.2 0-.4-.2-.4-.4v-.4c.1-.3.2-.4.4-.4zm1.6 0h.5c.2 0 .4.2.4.4v.4c0 .2-.2.4-.4.4h-.4c-.2 0-.4-.2-.4-.4v-.4c0-.3.1-.4.3-.4zm1.7 0h.4c.2 0 .4.2.4.4v.4c0 .2-.2.4-.4.4h-.4c-.2 0-.4-.2-.4-.4v-.4c0-.3.2-.4.4-.4zm1.6 0h.4c.2 0 .4.2.4.4v.4c0 .2-.2.4-.4.4h-.4c-.2 0-.4-.2-.4-.4v-.4c0-.3.2-.4.4-.4zm1.6 0h.4c.2 0 .4.2.4.4v.4c0 .2-.2.4-.4.4h-.4c-.2 0-.4-.2-.4-.4v-.4c0-.3.2-.4.4-.4zm1.6 0h.4c.2 0 .4.2.4.4v.4c0 .2-.2.4-.4.4H94c-.2 0-.4-.2-.4-.4v-.4c0-.3.2-.4.4-.4zm-12.9 1.6h.4c.2 0 .4.2.4.4v.4c0 .2-.2.4-.4.4h-.4c-.2 0-.4-.2-.4-.4v-.4c0-.2.2-.4.4-.4zm1.6 0h.4c.2 0 .4.2.4.4v.4c0 .2-.2.4-.4.4h-.4c-.2 0-.4-.2-.4-.4v-.4c0-.2.2-.4.4-.4zm1.6 0h.4c.2 0 .4.2.4.4v.4c0 .2-.2.4-.4.4h-.4c-.2 0-.4-.2-.4-.4v-.4c0-.2.2-.4.4-.4zm1.6 0h.4c.2 0 .4.2.4.4v.4c0 .2-.2.4-.4.4h-.4c-.2 0-.4-.2-.4-.4v-.4c.1-.2.2-.4.4-.4zm1.6 0h.5c.2 0 .4.2.4.4v.4c0 .2-.2.4-.4.4h-.4c-.2 0-.4-.2-.4-.4v-.4c0-.2.1-.4.3-.4zm1.7 0h.4c.2 0 .4.2.4.4v.4c0 .2-.2.4-.4.4h-.4c-.2 0-.4-.2-.4-.4v-.4c0-.2.2-.4.4-.4zm1.6 0h.4c.2 0 .4.2.4.4v.4c0 .2-.2.4-.4.4h-.4c-.2 0-.4-.2-.4-.4v-.4c0-.2.2-.4.4-.4zm1.6 0h.4c.2 0 .4.2.4.4v.4c0 .2-.2.4-.4.4h-.4c-.2 0-.4-.2-.4-.4v-.4c0-.2.2-.4.4-.4zm1.6 0h.4c.2 0 .4.2.4.4v.4c0 .2-.2.4-.4.4H94c-.2 0-.4-.2-.4-.4v-.4c0-.2.2-.4.4-.4zm6.5 0h.4c.2 0 .4.2.4.4v.4c0 .2-.2.4-.4.4h-.4c-.2 0-.4-.2-.4-.4v-.4c0-.2.2-.4.4-.4zm-4.9 0h.4c.2 0 .4.2.4.4v.4c0 .2-.2.4-.4.4h-.4c-.2 0-.4-.2-.4-.4v-.4c.1-.2.2-.4.4-.4zm1.7 0h.4c.2 0 .4.2.4.4v.4c0 .2-.2.4-.4.4h-.4c-.2 0-.4-.2-.4-.4v-.4c0-.2.1-.4.4-.4zm1.6 0h.4c.2 0 .4.2.4.4v.4c0 .2-.2.4-.4.4h-.4c-.2 0-.4-.2-.4-.4v-.4c0-.2.2-.4.4-.4zm-17.8 1.6h.4c.2 0 .4.2.4.4v.4c0 .2-.2.4-.4.4h-.4c-.2 0-.4-.2-.4-.4v-.4c0-.2.2-.4.4-.4zm1.6 0h.4c.2 0 .4.2.4.4v.4c0 .2-.2.4-.4.4h-.4c-.2 0-.4-.2-.4-.4v-.4c0-.2.2-.4.4-.4zm1.6 0h.4c.2 0 .4.2.4.4v.4c0 .2-.2.4-.4.4h-.4c-.2 0-.4-.2-.4-.4v-.4c0-.2.2-.4.4-.4zm1.6 0h.4c.2 0 .4.2.4.4v.4c0 .2-.2.4-.4.4h-.4c-.2 0-.4-.2-.4-.4v-.4c.1-.2.2-.4.4-.4zm1.6 0h.5c.2 0 .4.2.4.4v.4c0 .2-.2.4-.4.4h-.4c-.2 0-.4-.2-.4-.4v-.4c0-.2.1-.4.3-.4zm1.7 0h.4c.2 0 .4.2.4.4v.4c0 .2-.2.4-.4.4h-.4c-.2 0-.4-.2-.4-.4v-.4c0-.2.2-.4.4-.4zm1.6 0h.4c.2 0 .4.2.4.4v.4c0 .2-.2.4-.4.4h-.4c-.2 0-.4-.2-.4-.4v-.4c0-.2.2-.4.4-.4zm1.6 0h.4c.2 0 .4.2.4.4v.4c0 .2-.2.4-.4.4h-.4c-.2 0-.4-.2-.4-.4v-.4c0-.2.2-.4.4-.4zm1.6 0h.4c.2 0 .4.2.4.4v.4c0 .2-.2.4-.4.4H94c-.2 0-.4-.2-.4-.4v-.4c0-.2.2-.4.4-.4zm6.5 0h.4c.2 0 .4.2.4.4v.4c0 .2-.2.4-.4.4h-.4c-.2 0-.4-.2-.4-.4v-.4c0-.2.2-.4.4-.4zm-4.9 0h.4c.2 0 .4.2.4.4v.4c0 .2-.2.4-.4.4h-.4c-.2 0-.4-.2-.4-.4v-.4c.1-.2.2-.4.4-.4zm1.7 0h.4c.2 0 .4.2.4.4v.4c0 .2-.2.4-.4.4h-.4c-.2 0-.4-.2-.4-.4v-.4c0-.2.1-.4.4-.4zm1.6 0h.4c.2 0 .4.2.4.4v.4c0 .2-.2.4-.4.4h-.4c-.2 0-.4-.2-.4-.4v-.4c0-.2.2-.4.4-.4zm3.2 0h.4c.2 0 .4.2.4.4v.4c0 .2-.2.4-.4.4h-.4c-.2 0-.4-.2-.4-.4v-.4c0-.2.2-.4.4-.4zm1.6 0h.4c.2 0 .4.2.4.4v.4c0 .2-.2.4-.4.4h-.4c-.2 0-.4-.2-.4-.4v-.4c.1-.2.2-.4.4-.4zm1.6 0h.4c.2 0 .4.2.4.4v.4c0 .2-.2.4-.4.4h-.4c-.2 0-.4-.2-.4-.4v-.4c.1-.2.2-.4.4-.4zm-29.1 1.6h.4c.2 0 .4.2.4.4v.4c0 .2-.2.4-.4.4h-.4c-.2 0-.4-.2-.4-.4v-.4c0-.2.2-.4.4-.4zm1.6 0h.4c.2 0 .4.2.4.4v.4c0 .2-.2.4-.4.4h-.4c-.2 0-.4-.2-.4-.4v-.4c.1-.2.2-.4.4-.4zm1.7 0h.4c.2 0 .4.2.4.4v.4c0 .2-.2.4-.4.4h-.4c-.2 0-.4-.2-.4-.4v-.4c0-.2.2-.4.4-.4zm1.6 0h.4c.2 0 .4.2.4.4v.4c0 .2-.2.4-.4.4h-.4c-.2 0-.4-.2-.4-.4v-.4c0-.2.2-.4.4-.4zm1.6 0h.4c.2 0 .4.2.4.4v.4c0 .2-.2.4-.4.4h-.4c-.2 0-.4-.2-.4-.4v-.4c0-.2.2-.4.4-.4zm1.6 0h.4c.2 0 .4.2.4.4v.4c0 .2-.2.4-.4.4h-.4c-.2 0-.4-.2-.4-.4v-.4c0-.2.2-.4.4-.4zm1.6 0h.4c.2 0 .4.2.4.4v.4c0 .2-.2.4-.4.4h-.4c-.2 0-.4-.2-.4-.4v-.4c.1-.2.2-.4.4-.4zm1.6 0h.5c.2 0 .4.2.4.4v.4c0 .2-.2.4-.4.4h-.4c-.2 0-.4-.2-.4-.4v-.4c0-.2.1-.4.3-.4zm1.7 0h.4c.2 0 .4.2.4.4v.4c0 .2-.2.4-.4.4h-.4c-.2 0-.4-.2-.4-.4v-.4c0-.2.2-.4.4-.4zm6.4 0h.4c.2 0 .4.2.4.4v.4c0 .2-.2.4-.4.4h-.4c-.2 0-.4-.2-.4-.4v-.4c.1-.2.2-.4.4-.4zm-4.8 0h.4c.2 0 .4.2.4.4v.4c0 .2-.2.4-.4.4h-.4c-.2 0-.4-.2-.4-.4v-.4c0-.2.2-.4.4-.4zm1.6 0h.4c.2 0 .4.2.4.4v.4c0 .2-.2.4-.4.4h-.4c-.2 0-.4-.2-.4-.4v-.4c0-.2.2-.4.4-.4zm1.6 0h.4c.2 0 .4.2.4.4v.4c0 .2-.2.4-.4.4H94c-.2 0-.4-.2-.4-.4v-.4c0-.2.2-.4.4-.4zm3.3 0h.4c.2 0 .4.2.4.4v.4c0 .2-.2.4-.4.4h-.4c-.2 0-.4-.2-.4-.4v-.4c0-.2.1-.4.4-.4zm1.6 0h.4c.2 0 .4.2.4.4v.4c0 .2-.2.4-.4.4h-.4c-.2 0-.4-.2-.4-.4v-.4c0-.2.2-.4.4-.4zm1.6 0h.4c.2 0 .4.2.4.4v.4c0 .2-.2.4-.4.4h-.4c-.2 0-.4-.2-.4-.4v-.4c0-.2.2-.4.4-.4zm4.8 0h.4c.2 0 .4.2.4.4v.4c0 .2-.2.4-.4.4h-.4c-.2 0-.4-.2-.4-.4v-.4c.1-.2.2-.4.4-.4zm-3.2 0h.4c.2 0 .4.2.4.4v.4c0 .2-.2.4-.4.4h-.4c-.2 0-.4-.2-.4-.4v-.4c0-.2.2-.4.4-.4zm1.6 0h.4c.2 0 .4.2.4.4v.4c0 .2-.2.4-.4.4h-.4c-.2 0-.4-.2-.4-.4v-.4c.1-.2.2-.4.4-.4zm3.3 0h.4c.2 0 .4.2.4.4v.4c0 .2-.2.4-.4.4h-.4c-.2 0-.4-.2-.4-.4v-.4c0-.2.2-.4.4-.4zm1.6 0h.4c.2 0 .4.2.4.4v.4c0 .2-.2.4-.4.4h-.4c-.2 0-.4-.2-.4-.4v-.4c0-.2.2-.4.4-.4zm-32.4 1.6h.4c.2 0 .4.2.4.4v.4c0 .2-.2.4-.4.4h-.4c-.2 0-.4-.2-.4-.4v-.4c0-.2.2-.4.4-.4zm1.6 4.9h.4c.2 0 .4.2.4.4v.4c0 .2-.2.4-.4.4h-.4c-.2 0-.4-.2-.4-.4v-.4c.1-.2.2-.4.4-.4zm1.7 0h.4c.2 0 .4.2.4.4v.4c0 .2-.2.4-.4.4h-.4c-.2 0-.4-.2-.4-.4v-.4c0-.2.2-.4.4-.4zm1.6 3.2h.4c.2 0 .4.2.4.4v.4c0 .2-.2.4-.4.4h-.4c-.2 0-.4-.2-.4-.4V41c0-.2.2-.4.4-.4zm1.6 0h.4c.2 0 .4.2.4.4v.4c0 .2-.2.4-.4.4h-.4c-.2 0-.4-.2-.4-.4V41c0-.2.2-.4.4-.4z"/><path class="st1" d="M74.6 34.2h.4c.2 0 .4.2.4.4v.4c0 .2-.2.4-.4.4h-.4c-.2 0-.4-.2-.4-.4v-.4c0-.3.2-.4.4-.4zm1.6 0h.4c.2 0 .4.2.4.4v.4c0 .2-.2.4-.4.4h-.4c-.2 0-.4-.2-.4-.4v-.4c0-.3.2-.4.4-.4zm0 1.6h.4c.2 0 .4.2.4.4v.4c0 .2-.2.4-.4.4h-.4c-.2 0-.4-.2-.4-.4v-.4c0-.3.2-.4.4-.4zm1.6 0h.4c.2 0 .4.2.4.4v.4c0 .2-.2.4-.4.4h-.4c-.2 0-.4-.2-.4-.4v-.4c.1-.3.2-.4.4-.4zm1.7 0h.4c.2 0 .4.2.4.4v.4c0 .2-.2.4-.4.4h-.4c-.2 0-.4-.2-.4-.4v-.4c0-.3.2-.4.4-.4zM77.8 39h.4c.2 0 .4.2.4.4v.4c0 .2-.2.4-.4.4h-.4c-.2 0-.4-.2-.4-.4v-.4c.1-.2.2-.4.4-.4zm1.7 0h.4c.2 0 .4.2.4.4v.4c0 .2-.2.4-.4.4h-.4c-.2 0-.4-.2-.4-.4v-.4c0-.2.2-.4.4-.4zm1.6 0h.4c.2 0 .4.2.4.4v.4c0 .2-.2.4-.4.4h-.4c-.2 0-.4-.2-.4-.4v-.4c0-.2.2-.4.4-.4zm-1.6-4.8h.4c.2 0 .4.2.4.4v.4c0 .2-.2.4-.4.4h-.4c-.2 0-.4-.2-.4-.4v-.4c0-.3.2-.4.4-.4zm1.6 0h.4c.2 0 .4.2.4.4v.4c0 .2-.2.4-.4.4h-.4c-.2 0-.4-.2-.4-.4v-.4c0-.3.2-.4.4-.4zm1.6 0h.4c.2 0 .4.2.4.4v.4c0 .2-.2.4-.4.4h-.4c-.2 0-.4-.2-.4-.4v-.4c0-.3.2-.4.4-.4zm-3.2-1.7h.4c.2 0 .4.2.4.4v.4c0 .2-.2.4-.4.4h-.4c-.2 0-.4-.2-.4-.4v-.4c0-.2.2-.4.4-.4zm1.6 0h.4c.2 0 .4.2.4.4v.4c0 .2-.2.4-.4.4h-.4c-.2 0-.4-.2-.4-.4v-.4c0-.2.2-.4.4-.4zm1.6 0h.4c.2 0 .4.2.4.4v.4c0 .2-.2.4-.4.4h-.4c-.2 0-.4-.2-.4-.4v-.4c0-.2.2-.4.4-.4zm1.6 0h.4c.2 0 .4.2.4.4v.4c0 .2-.2.4-.4.4h-.4c-.2 0-.4-.2-.4-.4v-.4c0-.2.2-.4.4-.4zm1.6 0h.4c.2 0 .4.2.4.4v.4c0 .2-.2.4-.4.4h-.4c-.2 0-.4-.2-.4-.4v-.4c.1-.2.2-.4.4-.4zm1.6 0h.5c.2 0 .4.2.4.4v.4c0 .2-.2.4-.4.4h-.4c-.2 0-.4-.2-.4-.4v-.4c0-.2.1-.4.3-.4zm1.7 0h.4c.2 0 .4.2.4.4v.4c0 .2-.2.4-.4.4h-.4c-.2 0-.4-.2-.4-.4v-.4c0-.2.2-.4.4-.4zm1.6 0h.4c.2 0 .4.2.4.4v.4c0 .2-.2.4-.4.4h-.4c-.2 0-.4-.2-.4-.4v-.4c0-.2.2-.4.4-.4zm1.6 0h.4c.2 0 .4.2.4.4v.4c0 .2-.2.4-.4.4h-.4c-.2 0-.4-.2-.4-.4v-.4c0-.2.2-.4.4-.4zm6.5 0h.4c.2 0 .4.2.4.4v.4c0 .2-.2.4-.4.4h-.4c-.2 0-.4-.2-.4-.4v-.4c0-.2.2-.4.4-.4zm-4.9 0h.4c.2 0 .4.2.4.4v.4c0 .2-.2.4-.4.4H94c-.2 0-.4-.2-.4-.4v-.4c0-.2.2-.4.4-.4zm1.6 0h.4c.2 0 .4.2.4.4v.4c0 .2-.2.4-.4.4h-.4c-.2 0-.4-.2-.4-.4v-.4c.1-.2.2-.4.4-.4zm1.7 0h.4c.2 0 .4.2.4.4v.4c0 .2-.2.4-.4.4h-.4c-.2 0-.4-.2-.4-.4v-.4c0-.2.1-.4.4-.4zm3.2 0h.4c.2 0 .4.2.4.4v.4c0 .2-.2.4-.4.4h-.4c-.2 0-.4-.2-.4-.4v-.4c0-.2.2-.4.4-.4zm1.6 0h.4c.2 0 .4.2.4.4v.4c0 .2-.2.4-.4.4h-.4c-.2 0-.4-.2-.4-.4v-.4c0-.2.2-.4.4-.4zm1.6 0h.4c.2 0 .4.2.4.4v.4c0 .2-.2.4-.4.4h-.4c-.2 0-.4-.2-.4-.4v-.4c.1-.2.2-.4.4-.4zm4.9 0h.4c.2 0 .4.2.4.4v.4c0 .2-.2.4-.4.4h-.4c-.2 0-.4-.2-.4-.4v-.4c0-.2.2-.4.4-.4zm-3.3 0h.4c.2 0 .4.2.4.4v.4c0 .2-.2.4-.4.4h-.4c-.2 0-.4-.2-.4-.4v-.4c.1-.2.2-.4.4-.4zm1.7 0h.4c.2 0 .4.2.4.4v.4c0 .2-.2.4-.4.4h-.4c-.2 0-.4-.2-.4-.4v-.4c0-.2.2-.4.4-.4zm3.2 0h.4c.2 0 .4.2.4.4v.4c0 .2-.2.4-.4.4h-.4c-.2 0-.4-.2-.4-.4v-.4c0-.2.2-.4.4-.4zm1.6 0h.4c.2 0 .4.2.4.4v.4c0 .2-.2.4-.4.4h-.4c-.2 0-.4-.2-.4-.4v-.4c0-.2.2-.4.4-.4zm1.6 0h.4c.2 0 .4.2.4.4v.4c0 .2-.2.4-.4.4h-.4c-.2 0-.4-.2-.4-.4v-.4c.1-.2.2-.4.4-.4zm-27.5 1.7h.4c.2 0 .4.2.4.4v.4c0 .2-.2.4-.4.4h-.4c-.2 0-.4-.2-.4-.4v-.4c.1-.3.2-.4.4-.4zm1.6 0h.5c.2 0 .4.2.4.4v.4c0 .2-.2.4-.4.4h-.4c-.2 0-.4-.2-.4-.4v-.4c0-.3.1-.4.3-.4zm1.7 0h.4c.2 0 .4.2.4.4v.4c0 .2-.2.4-.4.4h-.4c-.2 0-.4-.2-.4-.4v-.4c0-.3.2-.4.4-.4zm1.6 0h.4c.2 0 .4.2.4.4v.4c0 .2-.2.4-.4.4h-.4c-.2 0-.4-.2-.4-.4v-.4c0-.3.2-.4.4-.4zm1.6 0h.4c.2 0 .4.2.4.4v.4c0 .2-.2.4-.4.4h-.4c-.2 0-.4-.2-.4-.4v-.4c0-.3.2-.4.4-.4zm1.6 0h.4c.2 0 .4.2.4.4v.4c0 .2-.2.4-.4.4H94c-.2 0-.4-.2-.4-.4v-.4c0-.3.2-.4.4-.4zm1.6 0h.4c.2 0 .4.2.4.4v.4c0 .2-.2.4-.4.4h-.4c-.2 0-.4-.2-.4-.4v-.4c.1-.3.2-.4.4-.4zm1.7 0h.4c.2 0 .4.2.4.4v.4c0 .2-.2.4-.4.4h-.4c-.2 0-.4-.2-.4-.4v-.4c0-.3.1-.4.4-.4zm1.6 0h.4c.2 0 .4.2.4.4v.4c0 .2-.2.4-.4.4h-.4c-.2 0-.4-.2-.4-.4v-.4c0-.3.2-.4.4-.4zm6.4 0h.4c.2 0 .4.2.4.4v.4c0 .2-.2.4-.4.4h-.4c-.2 0-.4-.2-.4-.4v-.4c.1-.3.2-.4.4-.4zm-4.8 0h.4c.2 0 .4.2.4.4v.4c0 .2-.2.4-.4.4h-.4c-.2 0-.4-.2-.4-.4v-.4c0-.3.2-.4.4-.4zm1.6 0h.4c.2 0 .4.2.4.4v.4c0 .2-.2.4-.4.4h-.4c-.2 0-.4-.2-.4-.4v-.4c0-.3.2-.4.4-.4zm1.6 0h.4c.2 0 .4.2.4.4v.4c0 .2-.2.4-.4.4h-.4c-.2 0-.4-.2-.4-.4v-.4c.1-.3.2-.4.4-.4zm3.3 0h.4c.2 0 .4.2.4.4v.4c0 .2-.2.4-.4.4h-.4c-.2 0-.4-.2-.4-.4v-.4c0-.3.2-.4.4-.4zm1.6 0h.4c.2 0 .4.2.4.4v.4c0 .2-.2.4-.4.4h-.4c-.2 0-.4-.2-.4-.4v-.4c0-.3.2-.4.4-.4zm1.6 0h.4c.2 0 .4.2.4.4v.4c0 .2-.2.4-.4.4h-.4c-.2 0-.4-.2-.4-.4v-.4c0-.3.2-.4.4-.4zm-19.4 1.6h.4c.2 0 .4.2.4.4v.4c0 .2-.2.4-.4.4h-.4c-.2 0-.4-.2-.4-.4v-.4c0-.3.2-.4.4-.4zm1.6 0h.4c.2 0 .4.2.4.4v.4c0 .2-.2.4-.4.4h-.4c-.2 0-.4-.2-.4-.4v-.4c0-.3.2-.4.4-.4zm1.6 0h.4c.2 0 .4.2.4.4v.4c0 .2-.2.4-.4.4H94c-.2 0-.4-.2-.4-.4v-.4c0-.3.2-.4.4-.4zm1.6 0h.4c.2 0 .4.2.4.4v.4c0 .2-.2.4-.4.4h-.4c-.2 0-.4-.2-.4-.4v-.4c.1-.3.2-.4.4-.4zm1.7 0h.4c.2 0 .4.2.4.4v.4c0 .2-.2.4-.4.4h-.4c-.2 0-.4-.2-.4-.4v-.4c0-.3.1-.4.4-.4zm1.6 0h.4c.2 0 .4.2.4.4v.4c0 .2-.2.4-.4.4h-.4c-.2 0-.4-.2-.4-.4v-.4c0-.3.2-.4.4-.4zm1.6 0h.4c.2 0 .4.2.4.4v.4c0 .2-.2.4-.4.4h-.4c-.2 0-.4-.2-.4-.4v-.4c0-.3.2-.4.4-.4zm1.6 0h.4c.2 0 .4.2.4.4v.4c0 .2-.2.4-.4.4h-.4c-.2 0-.4-.2-.4-.4v-.4c0-.3.2-.4.4-.4zm1.6 0h.4c.2 0 .4.2.4.4v.4c0 .2-.2.4-.4.4h-.4c-.2 0-.4-.2-.4-.4v-.4c.1-.3.2-.4.4-.4zm6.5 0h.4c.2 0 .4.2.4.4v.4c0 .2-.2.4-.4.4h-.4c-.2 0-.4-.2-.4-.4v-.4c0-.3.2-.4.4-.4zm-4.9 0h.4c.2 0 .4.2.4.4v.4c0 .2-.2.4-.4.4h-.4c-.2 0-.4-.2-.4-.4v-.4c.1-.3.2-.4.4-.4zm1.7 0h.4c.2 0 .4.2.4.4v.4c0 .2-.2.4-.4.4h-.4c-.2 0-.4-.2-.4-.4v-.4c0-.3.2-.4.4-.4zm1.6 0h.4c.2 0 .4.2.4.4v.4c0 .2-.2.4-.4.4h-.4c-.2 0-.4-.2-.4-.4v-.4c0-.3.2-.4.4-.4zm4.8 0h.4c.2 0 .4.2.4.4v.4c0 .2-.2.4-.4.4h-.4c-.2 0-.4-.2-.4-.4v-.4c.1-.3.2-.4.4-.4zm1.7 0h.4c.2 0 .4.2.4.4v.4c0 .2-.2.4-.4.4h-.4c-.2 0-.4-.2-.4-.4v-.4c0-.3.1-.4.4-.4zm-17.8 1.6h.4c.2 0 .4.2.4.4v.4c0 .2-.2.4-.4.4h-.4c-.2 0-.4-.2-.4-.4v-.4c0-.2.1-.4.4-.4zm1.6 0h.4c.2 0 .4.2.4.4v.4c0 .2-.2.4-.4.4h-.4c-.2 0-.4-.2-.4-.4v-.4c0-.2.2-.4.4-.4zm1.6 0h.4c.2 0 .4.2.4.4v.4c0 .2-.2.4-.4.4h-.4c-.2 0-.4-.2-.4-.4v-.4c0-.2.2-.4.4-.4zm1.6 0h.4c.2 0 .4.2.4.4v.4c0 .2-.2.4-.4.4h-.4c-.2 0-.4-.2-.4-.4v-.4c0-.2.2-.4.4-.4zm1.6 0h.4c.2 0 .4.2.4.4v.4c0 .2-.2.4-.4.4h-.4c-.2 0-.4-.2-.4-.4v-.4c.1-.2.2-.4.4-.4zm1.6 0h.4c.2 0 .4.2.4.4v.4c0 .2-.2.4-.4.4h-.4c-.2 0-.4-.2-.4-.4v-.4c.1-.2.2-.4.4-.4zm1.7 0h.4c.2 0 .4.2.4.4v.4c0 .2-.2.4-.4.4h-.4c-.2 0-.4-.2-.4-.4v-.4c0-.2.2-.4.4-.4zm1.6 0h.4c.2 0 .4.2.4.4v.4c0 .2-.2.4-.4.4h-.4c-.2 0-.4-.2-.4-.4v-.4c0-.2.2-.4.4-.4zm1.6 0h.4c.2 0 .4.2.4.4v.4c0 .2-.2.4-.4.4h-.4c-.2 0-.4-.2-.4-.4v-.4c0-.2.2-.4.4-.4zm6.5 0h.4c.2 0 .4.2.4.4v.4c0 .2-.2.4-.4.4h-.4c-.2 0-.4-.2-.4-.4v-.4c0-.2.2-.4.4-.4zm-3.3 0h.4c.2 0 .4.2.4.4v.4c0 .2-.2.4-.4.4h-.4c-.2 0-.4-.2-.4-.4v-.4c.1-.2.2-.4.4-.4zm1.7 0h.4c.2 0 .4.2.4.4v.4c0 .2-.2.4-.4.4h-.4c-.2 0-.4-.2-.4-.4v-.4c0-.2.1-.4.4-.4zm-1.7 1.6h.4c.2 0 .4.2.4.4v.4c0 .2-.2.4-.4.4h-.4c-.2 0-.4-.2-.4-.4v-.4c.1-.2.2-.4.4-.4zm0-4.8h.4c.2 0 .4.2.4.4v.4c0 .2-.2.4-.4.4h-.4c-.2 0-.4-.2-.4-.4v-.4c.1-.3.2-.4.4-.4zm1.7 0h.4c.2 0 .4.2.4.4v.4c0 .2-.2.4-.4.4h-.4c-.2 0-.4-.2-.4-.4v-.4c0-.3.1-.4.4-.4zM100.5 39h.4c.2 0 .4.2.4.4v.4c0 .2-.2.4-.4.4h-.4c-.2 0-.4-.2-.4-.4v-.4c0-.2.2-.4.4-.4zm1.6 0h.4c.2 0 .4.2.4.4v.4c0 .2-.2.4-.4.4h-.4c-.2 0-.4-.2-.4-.4v-.4c0-.2.2-.4.4-.4zm1.6 0h.4c.2 0 .4.2.4.4v.4c0 .2-.2.4-.4.4h-.4c-.2 0-.4-.2-.4-.4v-.4c.1-.2.2-.4.4-.4zm1.6 0h.4c.2 0 .4.2.4.4v.4c0 .2-.2.4-.4.4h-.4c-.2 0-.4-.2-.4-.4v-.4c.1-.2.2-.4.4-.4zm1.7 0h.4c.2 0 .4.2.4.4v.4c0 .2-.2.4-.4.4h-.4c-.2 0-.4-.2-.4-.4v-.4c0-.2.2-.4.4-.4zm1.6 0h.4c.2 0 .4.2.4.4v.4c0 .2-.2.4-.4.4h-.4c-.2 0-.4-.2-.4-.4v-.4c0-.2.2-.4.4-.4zm1.6 0h.4c.2 0 .4.2.4.4v.4c0 .2-.2.4-.4.4h-.4c-.2 0-.4-.2-.4-.4v-.4c0-.2.2-.4.4-.4zm4.9 1.6h.4c.2 0 .4.2.4.4v.4c0 .2-.2.4-.4.4h-.4c-.2 0-.4-.2-.4-.4V41c0-.2.1-.4.4-.4zm0-1.6h.4c.2 0 .4.2.4.4v.4c0 .2-.2.4-.4.4h-.4c-.2 0-.4-.2-.4-.4v-.4c0-.2.1-.4.4-.4zm1.6 0h.4c.2 0 .4.2.4.4v.4c0 .2-.2.4-.4.4h-.4c-.2 0-.4-.2-.4-.4v-.4c0-.2.2-.4.4-.4zm-3.3 1.6h.4c.2 0 .4.2.4.4v.4c0 .2-.2.4-.4.4h-.4c-.2 0-.4-.2-.4-.4V41c.1-.2.2-.4.4-.4zm3.3 0h.4c.2 0 .4.2.4.4v.4c0 .2-.2.4-.4.4h-.4c-.2 0-.4-.2-.4-.4V41c0-.2.2-.4.4-.4zm1.6 0h.4c.2 0 .4.2.4.4v.4c0 .2-.2.4-.4.4h-.4c-.2 0-.4-.2-.4-.4V41c0-.2.2-.4.4-.4zm0 4.9h.4c.2 0 .4.2.4.4v.4c0 .2-.2.4-.4.4h-.4c-.2 0-.4-.2-.4-.4v-.4c0-.2.2-.4.4-.4zm-1.6-3.2h.4c.2 0 .4.2.4.4v.4c0 .2-.2.4-.4.4h-.4c-.2 0-.4-.2-.4-.4v-.4c0-.3.2-.4.4-.4zm-1.6 0h.4c.2 0 .4.2.4.4v.4c0 .2-.2.4-.4.4h-.4c-.2 0-.4-.2-.4-.4v-.4c0-.3.1-.4.4-.4zm3.2 0h.4c.2 0 .4.2.4.4v.4c0 .2-.2.4-.4.4h-.4c-.2 0-.4-.2-.4-.4v-.4c0-.3.2-.4.4-.4zm0 1.6h.4c.2 0 .4.2.4.4v.4c0 .2-.2.4-.4.4h-.4c-.2 0-.4-.2-.4-.4v-.4c0-.3.2-.4.4-.4zm-1.6 0h.4c.2 0 .4.2.4.4v.4c0 .2-.2.4-.4.4h-.4c-.2 0-.4-.2-.4-.4v-.4c0-.3.2-.4.4-.4zm3.2 0h.4c.2 0 .4.2.4.4v.4c0 .2-.2.4-.4.4h-.4c-.2 0-.4-.2-.4-.4v-.4c0-.3.2-.4.4-.4zm-19.4-3.3h.4c.2 0 .4.2.4.4v.4c0 .2-.2.4-.4.4h-.4c-.2 0-.4-.2-.4-.4V41c0-.2.2-.4.4-.4zm1.6 0h.4c.2 0 .4.2.4.4v.4c0 .2-.2.4-.4.4h-.4c-.2 0-.4-.2-.4-.4V41c0-.2.2-.4.4-.4zm1.6 0h.4c.2 0 .4.2.4.4v.4c0 .2-.2.4-.4.4h-.4c-.2 0-.4-.2-.4-.4V41c.1-.2.2-.4.4-.4zm1.6 0h.4c.2 0 .4.2.4.4v.4c0 .2-.2.4-.4.4h-.4c-.2 0-.4-.2-.4-.4V41c.1-.2.2-.4.4-.4zm1.7 0h.4c.2 0 .4.2.4.4v.4c0 .2-.2.4-.4.4h-.4c-.2 0-.4-.2-.4-.4V41c0-.2.2-.4.4-.4zm1.6 0h.4c.2 0 .4.2.4.4v.4c0 .2-.2.4-.4.4h-.4c-.2 0-.4-.2-.4-.4V41c0-.2.2-.4.4-.4zm-6.5 1.7h.4c.2 0 .4.2.4.4v.4c0 .2-.2.4-.4.4h-.4c-.2 0-.4-.2-.4-.4v-.4c0-.3.2-.4.4-.4zm1.6 0h.4c.2 0 .4.2.4.4v.4c0 .2-.2.4-.4.4h-.4c-.2 0-.4-.2-.4-.4v-.4c.1-.3.2-.4.4-.4zm1.6 0h.4c.2 0 .4.2.4.4v.4c0 .2-.2.4-.4.4h-.4c-.2 0-.4-.2-.4-.4v-.4c.1-.3.2-.4.4-.4zm1.7 0h.4c.2 0 .4.2.4.4v.4c0 .2-.2.4-.4.4h-.4c-.2 0-.4-.2-.4-.4v-.4c0-.3.2-.4.4-.4zm1.6 0h.4c.2 0 .4.2.4.4v.4c0 .2-.2.4-.4.4h-.4c-.2 0-.4-.2-.4-.4v-.4c0-.3.2-.4.4-.4zm-4.9 1.6h.4c.2 0 .4.2.4.4v.4c0 .2-.2.4-.4.4h-.4c-.2 0-.4-.2-.4-.4v-.4c.1-.3.2-.4.4-.4zm1.6 0h.4c.2 0 .4.2.4.4v.4c0 .2-.2.4-.4.4h-.4c-.2 0-.4-.2-.4-.4v-.4c.1-.3.2-.4.4-.4zm1.7 0h.4c.2 0 .4.2.4.4v.4c0 .2-.2.4-.4.4h-.4c-.2 0-.4-.2-.4-.4v-.4c0-.3.2-.4.4-.4zm1.6 0h.4c.2 0 .4.2.4.4v.4c0 .2-.2.4-.4.4h-.4c-.2 0-.4-.2-.4-.4v-.4c0-.3.2-.4.4-.4zm1.6 0h.4c.2 0 .4.2.4.4v.4c0 .2-.2.4-.4.4h-.4c-.2 0-.4-.2-.4-.4v-.4c0-.3.2-.4.4-.4zm-6.5 1.6h.4c.2 0 .4.2.4.4v.4c0 .2-.2.4-.4.4h-.4c-.2 0-.4-.2-.4-.4v-.4c.1-.2.2-.4.4-.4zm1.6 0h.4c.2 0 .4.2.4.4v.4c0 .2-.2.4-.4.4h-.4c-.2 0-.4-.2-.4-.4v-.4c.1-.2.2-.4.4-.4zm4.9 6.5h.4c.2 0 .4.2.4.4v.4c0 .2-.2.4-.4.4h-.4c-.2 0-.4-.2-.4-.4v-.4c0-.3.2-.4.4-.4zm0-1.7h.4c.2 0 .4.2.4.4v.4c0 .2-.2.4-.4.4h-.4c-.2 0-.4-.2-.4-.4v-.4c0-.2.2-.4.4-.4zm0-4.8h.4c.2 0 .4.2.4.4v.4c0 .2-.2.4-.4.4h-.4c-.2 0-.4-.2-.4-.4v-.4c0-.2.2-.4.4-.4zm-6.5 1.6h.4c.2 0 .4.2.4.4v.4c0 .2-.2.4-.4.4h-.4c-.2 0-.4-.2-.4-.4v-.4c.1-.2.2-.4.4-.4zm1.6 0h.4c.2 0 .4.2.4.4v.4c0 .2-.2.4-.4.4h-.4c-.2 0-.4-.2-.4-.4v-.4c.1-.2.2-.4.4-.4zm3.3 8.1h.4c.2 0 .4.2.4.4v.4c0 .2-.2.4-.4.4h-.4c-.2 0-.4-.2-.4-.4v-.4c0-.2.2-.4.4-.4zm0-1.6h.4c.2 0 .4.2.4.4v.4c0 .2-.2.4-.4.4h-.4c-.2 0-.4-.2-.4-.4V54c0-.3.2-.4.4-.4zm1.6-6.5h.4c.2 0 .4.2.4.4v.4c0 .2-.2.4-.4.4h-.4c-.2 0-.4-.2-.4-.4v-.4c0-.2.2-.4.4-.4zm-8.1 1.6h.4c.2 0 .4.2.4.4v.4c0 .2-.2.4-.4.4h-.4c-.2 0-.4-.2-.4-.4v-.4c0-.2.2-.4.4-.4zm1.6 0h.4c.2 0 .4.2.4.4v.4c0 .2-.2.4-.4.4h-.4c-.2 0-.4-.2-.4-.4v-.4c.1-.2.2-.4.4-.4zm4.9-1.6h.4c.2 0 .4.2.4.4v.4c0 .2-.2.4-.4.4h-.4c-.2 0-.4-.2-.4-.4v-.4c0-.2.2-.4.4-.4zm0-1.6h.4c.2 0 .4.2.4.4v.4c0 .2-.2.4-.4.4h-.4c-.2 0-.4-.2-.4-.4v-.4c0-.2.2-.4.4-.4zm1.6 3.2h.4c.2 0 .4.2.4.4v.4c0 .2-.2.4-.4.4h-.4c-.2 0-.4-.2-.4-.4v-.4c0-.2.2-.4.4-.4zm-9.7 1.6h.4c.2 0 .4.2.4.4v.4c0 .2-.2.4-.4.4h-.4c-.2 0-.4-.2-.4-.4v-.4c0-.2.2-.4.4-.4zm1.6 0h.4c.2 0 .4.2.4.4v.4c0 .2-.2.4-.4.4h-.4c-.2 0-.4-.2-.4-.4v-.4c0-.2.2-.4.4-.4zm4.9 3.3h.4c.2 0 .4.2.4.4v.4c0 .2-.2.4-.4.4h-.4c-.2 0-.4-.2-.4-.4V54c0-.3.2-.4.4-.4zm1.6-3.3h.4c.2 0 .4.2.4.4v.4c0 .2-.2.4-.4.4h-.4c-.2 0-.4-.2-.4-.4v-.4c0-.2.2-.4.4-.4zm0-1.6h.4c.2 0 .4.2.4.4v.4c0 .2-.2.4-.4.4h-.4c-.2 0-.4-.2-.4-.4v-.4c0-.2.2-.4.4-.4zm0 3.3h.4c.2 0 .4.2.4.4v.4c0 .2-.2.4-.4.4h-.4c-.2 0-.4-.2-.4-.4v-.4c0-.3.2-.4.4-.4zm-9.7 0h.4c.2 0 .4.2.4.4v.4c0 .2-.2.4-.4.4h-.4c-.2 0-.4-.2-.4-.4v-.4c0-.3.2-.4.4-.4zm1.6 0h.4c.2 0 .4.2.4.4v.4c0 .2-.2.4-.4.4h-.4c-.2 0-.4-.2-.4-.4v-.4c0-.3.2-.4.4-.4zm-1.6 1.6h.4c.2 0 .4.2.4.4v.4c0 .2-.2.4-.4.4h-.4c-.2 0-.4-.2-.4-.4V54c0-.3.2-.4.4-.4zm1.6 0h.4c.2 0 .4.2.4.4v.4c0 .2-.2.4-.4.4h-.4c-.2 0-.4-.2-.4-.4V54c0-.3.2-.4.4-.4zm-3.2 1.6h.4c.2 0 .4.2.4.4v.4c0 .2-.2.4-.4.4h-.4c-.2 0-.4-.2-.4-.4v-.4c0-.2.1-.4.4-.4zm1.6 0h.4c.2 0 .4.2.4.4v.4c0 .2-.2.4-.4.4h-.4c-.2 0-.4-.2-.4-.4v-.4c0-.2.2-.4.4-.4zm8.1 0h.4c.2 0 .4.2.4.4v.4c0 .2-.2.4-.4.4h-.4c-.2 0-.4-.2-.4-.4v-.4c0-.2.2-.4.4-.4zm-13-34h.4c.2 0 .4.2.4.4v.4c0 .2-.2.4-.4.4H94c-.2 0-.4-.2-.4-.4v-.4c0-.2.2-.4.4-.4zm1.6 3.3h.4c.2 0 .4.2.4.4v.4c0 .2-.2.4-.4.4h-.4c-.2 0-.4-.2-.4-.4v-.4c.1-.3.2-.4.4-.4zm1.7 1.6h.4c.2 0 .4.2.4.4v.4c0 .2-.2.4-.4.4h-.4c-.2 0-.4-.2-.4-.4v-.4c0-.3.1-.4.4-.4zm-17.8 3.2h.4c.2 0 .4.2.4.4v.4c0 .2-.2.4-.4.4h-.4c-.2 0-.4-.2-.4-.4v-.4c0-.2.2-.4.4-.4zm-4.9 3.2h.4c.2 0 .4.2.4.4v.4c0 .2-.2.4-.4.4h-.4c-.2 0-.4-.2-.4-.4v-.4c0-.2.2-.4.4-.4zm3.2-3.2h.4c.2 0 .4.2.4.4v.4c0 .2-.2.4-.4.4h-.4c-.2 0-.4-.2-.4-.4v-.4c.1-.2.2-.4.4-.4z"/><text transform="translate(134.528 43.858)" class="st1" font-size="33" font-family="NeoSansW1G-Regular">Schul-Cloud</text></svg>