<svg width="239" height="60" viewBox="0 0 239 60" xmlns="http://www.w3.org/2000/svg"><g fill="none" fill-rule="evenodd"><path d="M87.936 28.16c0 .537-.224.806-.673.806-.342 0-.626-.167-.852-.5l-6.51-9.61v9.304c0 .513-.254.77-.763.77-.498 0-.747-.268-.747-.805V16.804c0-.557.214-.836.64-.836.337 0 .626.179.869.536l6.492 9.572h.017V16.84c0-.236.069-.434.206-.595a.676.676 0 01.54-.241c.521 0 .781.278.781.836v11.32m3.695-11.178c0 .261-.092.49-.277.687a.875.875 0 01-.66.296.903.903 0 01-.67-.294.959.959 0 01-.284-.689c0-.267.094-.496.282-.689a.906.906 0 01.672-.29.88.88 0 01.662.292.967.967 0 01.275.687zm-.173 11.142c0 .537-.254.806-.763.806a.7.7 0 01-.54-.23.83.83 0 01-.207-.576v-8.088c0-.56.249-.84.747-.84.509 0 .763.268.763.806v8.122zm9.559-4.206c0 .513-.283.769-.848.769h-5.763c.022 1.238.491 2.088 1.407 2.55.42.213.888.32 1.402.32.87 0 1.698-.322 2.483-.966.229-.19.42-.284.572-.284.359 0 .538.22.538.661a.845.845 0 01-.224.57c-.32.363-.8.687-1.441.974a4.882 4.882 0 01-2.013.418c-1.451 0-2.552-.533-3.3-1.6-.639-.91-.968-1.997-.988-3.26a.647.647 0 00.034-.088c.077-1.814.725-3.176 1.945-4.09.614-.458 1.325-.691 2.136-.697a3.554 3.554 0 012.123.664c.613.43 1.09 1.018 1.432 1.763a5.45 5.45 0 01.505 2.296zm-1.527-.426c-.017-.871-.244-1.573-.679-2.104-.443-.538-1.039-.811-1.787-.82-.763-.009-1.381.246-1.856.763-.474.517-.729 1.237-.762 2.161h5.084zm10.554 4.634c0 .536-.26.804-.78.804a.71.71 0 01-.53-.224.755.755 0 01-.217-.545v-.513h-.034c-.164.342-.43.636-.8.882-.39.258-.893.391-1.508.4a3.66 3.66 0 01-2.14-.614c-.615-.41-1.091-.982-1.427-1.714-.345-.744-.521-1.575-.53-2.494a6.118 6.118 0 01.284-1.9c.39-1.241 1.07-2.12 2.042-2.634a3.34 3.34 0 011.58-.379c1.036 0 1.87.434 2.499 1.301h.034V15.84c0-.52.249-.781.746-.781.52 0 .781.272.781.817v12.25zm-1.353-4.057a4.697 4.697 0 00-.323-1.833c-.452-1.112-1.189-1.668-2.212-1.668-1.098 0-1.853.608-2.262 1.825a5.257 5.257 0 00-.289 1.642c-.008.946.194 1.766.607 2.458.412.692 1.014 1.047 1.805 1.064.621.015 1.138-.156 1.55-.512.396-.34.679-.77.848-1.295.178-.547.27-1.107.276-1.68zm11.003-.151c0 .513-.282.769-.847.769h-5.764c.023 1.238.492 2.088 1.407 2.55.421.213.889.32 1.403.32.87 0 1.697-.322 2.483-.966.228-.19.42-.284.572-.284.358 0 .538.22.538.661a.845.845 0 01-.225.57c-.32.363-.8.687-1.44.974a4.882 4.882 0 01-2.013.418c-1.452 0-2.552-.533-3.3-1.6-.639-.91-.968-1.997-.988-3.26a.647.647 0 00.034-.088c.076-1.814.725-3.176 1.945-4.09.613-.458 1.325-.691 2.136-.697a3.552 3.552 0 012.123.664c.613.43 1.09 1.018 1.432 1.763a5.45 5.45 0 01.504 2.296zm-1.527-.426c-.017-.871-.243-1.573-.678-2.104-.443-.538-1.039-.811-1.787-.82-.763-.009-1.381.246-1.856.763-.474.517-.729 1.237-.763 2.161h5.084zm7.448-3.49c0 .424-.35.73-1.051.915-.34.093-.561.169-.666.227-.822.462-1.233 1.253-1.233 2.372v4.608c0 .537-.243.806-.73.806-.52 0-.78-.28-.78-.84v-8.036c0-.537.249-.805.747-.805.509 0 .763.268.763.804v.8h.034c.226-.416.526-.794.899-1.132.373-.339.757-.514 1.153-.526.22-.005.42.07.597.227.178.157.267.35.267.58m7.235 6.147a2.636 2.636 0 01-.398 1.353c-.254.418-.636.758-1.144 1.019-.522.27-1.148.406-1.877.41-1.2.005-2.206-.346-3.016-1.054-.238-.168-.378-.423-.42-.765 0-.195.064-.36.19-.494a.62.62 0 01.471-.202c.218 0 .548.162.992.485.215.16.37.262.466.305a2.7 2.7 0 001.284.351c.466.018.906-.087 1.318-.313.382-.209.572-.538.572-.988 0-.421-.236-.777-.708-1.067-.3-.182-.745-.396-1.336-.64-.664-.27-1.1-.46-1.31-.57-.475-.252-.847-.547-1.117-.883-.27-.337-.405-.758-.405-1.263 0-1.001.481-1.75 1.445-2.246a3.54 3.54 0 011.573-.392 4.477 4.477 0 011.645.294c.548.205.938.424 1.17.658.242.245.364.49.364.736a.642.642 0 01-.204.476.77.77 0 01-.477.225c-.201-.052-.483-.183-.846-.392-.5-.288-.78-.448-.842-.48a1.552 1.552 0 00-.664-.144c-.54-.009-.95.104-1.234.337-.284.234-.435.52-.455.856.093.52.48.936 1.161 1.25.283.132.628.269 1.033.408.312.11.59.218.834.322.698.3 1.192.633 1.484 1.002.31.391.46.86.451 1.406m9.093 1.975c0 .537-.237.806-.711.806-.475 0-.712-.243-.712-.73v-.696h-.052c-.659.936-1.462 1.412-2.408 1.426a3.81 3.81 0 01-2.116-.597c-1.357-.846-2.036-2.254-2.036-4.225 0-2.086.704-3.544 2.112-4.372.611-.36 1.228-.54 1.85-.54 1.008 0 1.874.433 2.598 1.3h.052v-.525a.8.8 0 01.2-.553.656.656 0 01.512-.223c.474 0 .711.27.711.807v8.122zm-1.455-4.055c0-1.462-.398-2.489-1.195-3.08a2.147 2.147 0 00-1.306-.42h-.034c-.805 0-1.427.335-1.865 1.007-.424.652-.641 1.483-.653 2.493a5.053 5.053 0 00.276 1.712c.407 1.184 1.13 1.776 2.17 1.776.916 0 1.598-.362 2.048-1.086.373-.602.56-1.403.56-2.402zm.188-6.978a.9.9 0 01-.282.671.93.93 0 01-.672.274.905.905 0 01-.666-.272.915.915 0 01-.271-.673.98.98 0 01.265-.7.885.885 0 01.672-.28c.271 0 .498.094.68.28a.963.963 0 01.274.7zm-3.245 0a.93.93 0 01-.267.671.876.876 0 01-.653.274.932.932 0 01-.675-.272.901.901 0 01-.28-.673c0-.282.091-.515.272-.701a.913.913 0 01.683-.28c.266 0 .485.096.66.286.173.19.26.422.26.695zm12.758 3.329c0 .405-.226.626-.679.664l-.89-.321c-.353-.118-.658-.177-.916-.177-1.076 0-1.842.58-2.297 1.737a4.6 4.6 0 00-.339 1.625 5.128 5.128 0 00.538 2.384c.36.73.972 1.145 1.84 1.244a.72.72 0 01.258.035 2.7 2.7 0 00.768-.157 6.9 6.9 0 00.356-.153l.335-.153a.915.915 0 01.386-.11c.381 0 .572.221.572.662 0 .466-.308.805-.924 1.017-.415.142-.912.213-1.491.213-1.695 0-2.908-.772-3.64-2.315a5.516 5.516 0 01-.525-2.328 7.157 7.157 0 01.241-1.91c.34-1.287 1.013-2.2 2.021-2.737a3.985 3.985 0 011.835-.445c.607-.008 1.145.08 1.614.264.447.179.736.385.869.62.045.146.068.26.068.341m8.779 7.704c0 .537-.254.806-.763.806-.22 0-.4-.077-.539-.23a.826.826 0 01-.208-.575v-5.189c0-.679-.19-1.24-.572-1.684-.381-.444-.896-.672-1.546-.684a2.156 2.156 0 00-1.071.266c-.732.391-1.097 1.08-1.097 2.067v5.224c0 .537-.255.805-.764.805-.22 0-.4-.077-.539-.23a.824.824 0 01-.207-.574v-12.25c0-.545.248-.817.746-.817.51 0 .764.272.764.816l.033 4.586c.602-.844 1.43-1.266 2.484-1.266 1.282 0 2.233.587 2.851 1.762.286.54.428 1.126.428 1.757v5.41m8.242-1.975a2.639 2.639 0 01-.399 1.353c-.254.418-.635.758-1.144 1.019-.522.27-1.148.406-1.877.41-1.2.005-2.206-.346-3.016-1.054-.238-.168-.377-.423-.42-.765 0-.195.064-.36.191-.494a.62.62 0 01.47-.202c.218 0 .549.162.992.485.215.16.37.262.466.305a2.7 2.7 0 001.284.351c.466.018.906-.087 1.318-.313.382-.209.572-.538.572-.988 0-.421-.236-.777-.708-1.067-.3-.182-.745-.396-1.336-.64-.664-.27-1.1-.46-1.31-.57-.475-.252-.847-.547-1.117-.883-.27-.337-.405-.758-.405-1.263 0-1.001.482-1.75 1.445-2.246a3.54 3.54 0 011.573-.392 4.477 4.477 0 011.645.294c.548.205.938.424 1.17.658.243.245.364.49.364.736a.642.642 0 01-.204.476.769.769 0 01-.476.225c-.202-.052-.484-.183-.847-.392-.5-.288-.78-.448-.842-.48a1.552 1.552 0 00-.664-.144c-.54-.009-.95.104-1.234.337-.284.234-.435.52-.455.856.094.52.48.936 1.161 1.25.284.132.628.269 1.034.408.312.11.59.218.833.322.698.3 1.193.633 1.484 1.002.31.391.46.86.451 1.406m3.141-9.167c0 .261-.093.49-.278.687a.874.874 0 01-.66.296.902.902 0 01-.67-.294.959.959 0 01-.284-.689c0-.267.094-.496.282-.689a.907.907 0 01.672-.29.88.88 0 01.662.292.967.967 0 01.276.687zm-.174 11.142c0 .537-.254.806-.763.806a.69.69 0 01-.539-.23.829.829 0 01-.208-.576v-8.088c0-.56.249-.84.747-.84.509 0 .763.268.763.806v8.122zm8.24-1.975a2.639 2.639 0 01-.398 1.353c-.255.418-.636.758-1.144 1.019-.523.27-1.148.406-1.877.41-1.2.005-2.206-.346-3.017-1.054-.237-.168-.377-.423-.42-.765 0-.195.064-.36.191-.494a.622.622 0 01.47-.202c.218 0 .549.162.992.485.215.16.37.262.466.305a2.7 2.7 0 001.285.351 2.5 2.5 0 001.318-.313c.381-.209.572-.538.572-.988 0-.421-.236-.777-.708-1.067-.3-.182-.745-.396-1.336-.64-.665-.27-1.101-.46-1.31-.57-.475-.252-.848-.547-1.118-.883-.27-.337-.405-.758-.405-1.263 0-1.001.482-1.75 1.446-2.246a3.54 3.54 0 011.572-.392 4.474 4.474 0 011.645.294c.548.205.938.424 1.17.658.243.245.364.49.364.736a.642.642 0 01-.204.476.769.769 0 01-.476.225c-.201-.052-.484-.183-.847-.392-.499-.288-.78-.448-.842-.48a1.551 1.551 0 00-.664-.144c-.539-.009-.95.104-1.233.337-.284.234-.436.52-.456.856.094.52.481.936 1.161 1.25.284.132.628.269 1.034.408.312.11.59.218.833.322.698.3 1.193.633 1.485 1.002.309.391.46.86.451 1.406m7.688-5.729c0 .405-.226.626-.678.664-.297-.106-.594-.213-.89-.321-.354-.118-.659-.177-.916-.177-1.077 0-1.843.58-2.298 1.737a4.6 4.6 0 00-.339 1.625 5.124 5.124 0 00.539 2.384c.359.73.972 1.145 1.84 1.244a.72.72 0 01.258.035 2.7 2.7 0 00.767-.157 6.9 6.9 0 00.356-.153l.335-.153a.915.915 0 01.386-.11c.382 0 .572.221.572.662 0 .466-.308.805-.923 1.017-.416.142-.913.213-1.492.213-1.695 0-2.908-.772-3.64-2.315a5.516 5.516 0 01-.525-2.328 7.168 7.168 0 01.242-1.91c.339-1.287 1.012-2.2 2.02-2.737a3.985 3.985 0 011.835-.445c.608-.008 1.146.08 1.615.264.446.179.736.385.868.62.046.146.068.26.068.341m8.78 7.704c0 .537-.255.806-.764.806-.22 0-.4-.077-.539-.23a.826.826 0 01-.207-.575v-5.189c0-.679-.191-1.24-.572-1.684-.382-.444-.897-.672-1.546-.684a2.156 2.156 0 00-1.072.266c-.731.391-1.097 1.08-1.097 2.067v5.224c0 .537-.254.805-.763.805a.698.698 0 01-.54-.23.824.824 0 01-.207-.574v-12.25c0-.545.249-.817.747-.817.509 0 .763.272.763.816l.034 4.586c.602-.844 1.43-1.266 2.483-1.266 1.282 0 2.233.587 2.851 1.762.286.54.429 1.126.429 1.757v5.41m9.56-4.206c0 .513-.283.769-.848.769h-5.763c.023 1.238.491 2.088 1.407 2.55.42.213.888.32 1.402.32.87 0 1.698-.322 2.483-.966.23-.19.42-.284.572-.284.359 0 .538.22.538.661a.845.845 0 01-.224.57c-.32.363-.8.687-1.44.974a4.882 4.882 0 01-2.013.418c-1.452 0-2.553-.533-3.301-1.6-.638-.91-.968-1.997-.987-3.26a.611.611 0 00.034-.088c.076-1.814.724-3.176 1.945-4.09.613-.458 1.325-.691 2.135-.697a3.554 3.554 0 012.124.664c.613.43 1.09 1.018 1.431 1.763a5.45 5.45 0 01.505 2.296zm-1.527-.426c-.017-.871-.243-1.573-.678-2.104-.444-.538-1.04-.811-1.788-.82-.762-.009-1.38.246-1.855.763-.475.517-.73 1.237-.763 2.161h5.084zM105.871 42.78c0 1.389-.624 2.442-1.871 3.16-.615.355-1.335.532-2.16.532h-3.152c-.572 0-.857-.283-.857-.848V34.48c0-.563.268-.844.804-.844h2.866c1.294 0 2.264.503 2.909 1.508.305.48.464.986.476 1.516.009.35-.048.724-.17 1.126-.266.882-.8 1.455-1.604 1.719v.035c1.344.27 2.192.94 2.545 2.013.143.434.214.843.214 1.227zm-2.56-5.757c0-.583-.174-1.063-.52-1.438-.357-.387-.821-.58-1.396-.58H99.39v4.05h1.827c.88 0 1.498-.348 1.854-1.042.16-.314.24-.644.24-.99zm.984 5.722a2.4 2.4 0 00-.293-1.177c-.431-.811-1.211-1.217-2.34-1.217H99.39v4.753h2.112c1.204 0 2.027-.39 2.47-1.168.21-.367.319-.763.324-1.19zm5.235-8.229a.97.97 0 01-.286.694.94.94 0 01-1.372.002.956.956 0 01-.294-.696c0-.27.097-.501.291-.696a.945.945 0 01.694-.292c.266 0 .493.098.683.294.19.196.284.428.284.694zm-.179 11.25c0 .543-.262.814-.787.814a.72.72 0 01-.556-.233.825.825 0 01-.215-.581V37.6c0-.566.257-.85.77-.85.526 0 .788.272.788.815v8.2zm3.939-.035c0 .566-.262.85-.787.85-.513 0-.77-.284-.77-.85v-12.33c0-.551.257-.827.77-.827.525 0 .788.264.788.792v12.365m10.189.037c0 .542-.268.812-.805.812a.74.74 0 01-.548-.226.755.755 0 01-.223-.55v-.519h-.035c-.169.346-.444.643-.826.891-.402.26-.92.395-1.556.404-.822.012-1.557-.195-2.207-.62-.635-.414-1.126-.991-1.473-1.73-.355-.752-.538-1.591-.546-2.518a6.051 6.051 0 01.293-1.92c.401-1.253 1.104-2.14 2.106-2.659a3.506 3.506 0 011.63-.382c1.07 0 1.93.437 2.58 1.313h.034v-4.701c0-.526.257-.79.77-.79.538 0 .806.276.806.826v12.37zm-1.397-4.096a4.648 4.648 0 00-.332-1.851c-.466-1.123-1.227-1.684-2.282-1.684-1.134 0-1.913.614-2.335 1.842a5.209 5.209 0 00-.297 1.658c-.01.956.2 1.783.625 2.482.425.699 1.046 1.058 1.863 1.075.64.015 1.174-.158 1.6-.518.408-.341.7-.777.874-1.307a5.527 5.527 0 00.284-1.697zm11.412 1.175c0 1.476-.55 2.546-1.649 3.21-.574.349-1.301.523-2.182.523-1.623 0-2.727-.622-3.31-1.866a4.344 4.344 0 01-.398-1.867v-5.282c0-.543.257-.814.77-.814.525 0 .788.27.788.813v5.24c0 1.593.728 2.39 2.185 2.39 1.492 0 2.238-.797 2.238-2.39v-5.24c0-.542.257-.813.77-.813.526 0 .788.271.788.814v5.282m9.923 2.923c0 .516-.263.774-.788.774-.514 0-.77-.258-.77-.775v-5.323c0-.664-.202-1.21-.604-1.64-.41-.434-.944-.651-1.6-.651-.856 0-1.491.352-1.905 1.057-.21.355-.315.778-.315 1.269v5.285c0 .567-.25.85-.752.85a.753.753 0 01-.578-.246.857.857 0 01-.228-.603V37.6c0-.566.257-.85.77-.85.526 0 .788.287.788.86v.383l.035.036c.636-.852 1.501-1.278 2.598-1.278 1.311 0 2.273.546 2.885 1.638.309.552.464 1.227.464 2.025v5.355m10.19.036c0 1.842-.647 3.165-1.941 3.968-.65.398-1.41.6-2.282.606-1.05.006-2.04-.277-2.973-.848-.472-.29-.728-.62-.77-.99.07-.374.28-.597.626-.667.352.046.705.189 1.057.428.682.46 1.392.69 2.13.69.88 0 1.55-.367 2.01-1.102.39-.617.585-1.396.585-2.336 0-.041-.003-.1-.009-.18a2.593 2.593 0 01-.008-.18h-.035c-.507.933-1.355 1.395-2.544 1.386a3.597 3.597 0 01-2.138-.7c-.605-.437-1.076-1.031-1.411-1.782a5.879 5.879 0 01-.516-2.496c.009-.925.19-1.763.546-2.514.347-.736.838-1.31 1.473-1.721.653-.423 1.389-.628 2.208-.616 1.165.017 1.96.467 2.382 1.348h.035l.001-.518c0-.518.257-.776.77-.776.536 0 .804.27.804.813v8.187zm-1.396-4.015c0-1.392-.401-2.432-1.203-3.121-.428-.367-.947-.544-1.556-.532a2.042 2.042 0 00-1.39.54c-.377.34-.654.777-.832 1.31a5.178 5.178 0 00-.266 1.693 5.4 5.4 0 00.31 1.79c.19.524.474.94.853 1.248.39.32.844.484 1.36.493.798.012 1.454-.296 1.967-.923.504-.613.757-1.445.757-2.498zm10.318 1.982a2.622 2.622 0 01-.41 1.367c-.262.422-.656.764-1.18 1.028-.54.273-1.185.41-1.937.413-1.239.006-2.276-.348-3.113-1.063-.245-.17-.389-.427-.432-.773a.69.69 0 01.196-.498.648.648 0 01.486-.204c.224 0 .565.163 1.023.489.222.162.382.264.481.308.385.22.826.338 1.325.355.48.017.934-.088 1.36-.317.394-.21.59-.543.59-.997 0-.425-.243-.784-.73-1.077-.31-.185-.769-.4-1.379-.646-.685-.273-1.136-.465-1.352-.576-.49-.255-.874-.552-1.153-.892-.278-.34-.418-.765-.418-1.275 0-1.01.498-1.767 1.492-2.268a3.721 3.721 0 011.622-.395 4.7 4.7 0 011.698.296c.565.207.968.428 1.207.664.25.248.376.496.376.744 0 .186-.07.346-.21.48a.803.803 0 01-.492.228c-.208-.053-.5-.185-.874-.396a50.883 50.883 0 00-.869-.485 1.63 1.63 0 00-.685-.145c-.556-.01-.98.105-1.273.34-.292.236-.45.524-.47.864.097.525.497.945 1.199 1.262.292.134.647.272 1.066.413.322.111.609.22.86.325.72.302 1.23.639 1.532 1.011.319.396.474.869.465 1.42" fill="#1B1B1B"/><path d="M170.79 37.988c0 .408-.233.631-.7.67-.306-.107-.612-.215-.918-.325-.365-.119-.68-.178-.945-.178-1.11 0-1.901.585-2.37 1.754a4.557 4.557 0 00-.35 1.64c-.015.84.17 1.643.555 2.407.37.738 1.003 1.157 1.898 1.257.12 0 .209.012.267.035a2.8 2.8 0 00.792-.159 7.62 7.62 0 00.367-.154l.346-.155a.962.962 0 01.398-.11c.393 0 .59.223.59.668 0 .471-.317.814-.953 1.027-.428.144-.941.215-1.539.215-1.749 0-3-.779-3.755-2.337a5.469 5.469 0 01-.542-2.351 7.094 7.094 0 01.249-1.928c.35-1.3 1.045-2.222 2.085-2.764.563-.291 1.194-.44 1.893-.45.627-.008 1.182.08 1.666.267.46.18.76.389.896.625.047.148.07.263.07.346m3.404 7.743c0 .566-.262.85-.787.85-.514 0-.77-.284-.77-.85v-12.33c0-.551.256-.827.77-.827.525 0 .787.264.787.792v12.365m10.351-4.059c0 1.92-.656 3.334-1.967 4.243-.636.444-1.376.665-2.222.665-1.725 0-2.958-.823-3.698-2.47a5.831 5.831 0 01-.512-2.438c0-1.96.68-3.39 2.042-4.288a3.802 3.802 0 012.168-.633 3.83 3.83 0 012.208.686c.633.438 1.124 1.039 1.473 1.805.339.748.508 1.558.508 2.43zm-1.576 0a4.986 4.986 0 00-.298-1.772c-.434-1.175-1.206-1.763-2.317-1.763-1.12 0-1.894.574-2.326 1.724-.204.538-.306 1.141-.306 1.81 0 .942.195 1.734.586 2.374.464.766 1.134 1.15 2.011 1.15 1.152 0 1.934-.584 2.348-1.75a5.428 5.428 0 00.302-1.773zm11.068 1.175c0 1.476-.55 2.546-1.648 3.21-.575.349-1.302.523-2.182.523-1.624 0-2.728-.622-3.31-1.866a4.344 4.344 0 01-.399-1.867v-5.282c0-.543.257-.814.77-.814.526 0 .788.27.788.813v5.24c0 1.593.729 2.39 2.185 2.39 1.492 0 2.238-.797 2.238-2.39v-5.24c0-.542.257-.813.77-.813.526 0 .788.271.788.814v5.282m10.191 2.921c0 .542-.268.812-.805.812a.739.739 0 01-.547-.226.754.754 0 01-.224-.55v-.519h-.034c-.17.346-.445.643-.827.891-.402.26-.92.395-1.555.404-.822.012-1.558-.195-2.208-.62-.635-.414-1.126-.991-1.473-1.73-.355-.752-.538-1.591-.546-2.518a6.051 6.051 0 01.293-1.92c.402-1.253 1.104-2.14 2.106-2.659a3.506 3.506 0 011.63-.382c1.07 0 1.93.437 2.58 1.313h.034v-4.701c0-.526.257-.79.77-.79.538 0 .806.276.806.826v12.37zm-1.396-4.096a4.648 4.648 0 00-.333-1.851c-.466-1.123-1.227-1.684-2.282-1.684-1.134 0-1.912.614-2.335 1.842a5.208 5.208 0 00-.297 1.658c-.009.956.2 1.783.625 2.482.425.699 1.046 1.058 1.863 1.075.64.015 1.174-.158 1.6-.518.408-.341.7-.777.874-1.307a5.527 5.527 0 00.285-1.697z" fill="#FFF"/><g fill="#FFF"><path d="M38.608 10.762c5.87-2.879 11.617-2.268 16.75 1.781a1.023 1.023 0 01-1.266 1.606c-4.516-3.561-9.42-4.083-14.583-1.55-5.36 2.628-8.026 7.194-7.68 13.154a1.023 1.023 0 01-1.047 1.082c-5.588-.143-10.35 5.071-9.7 10.624.517 4.416 3.454 7.521 7.792 8.268l.228.035h30.161l.247-.031c5.157-.669 6.18-1.454 7.104-5.136l.054-.22a1.023 1.023 0 011.988.482c-1.15 4.745-2.816 6.103-8.86 6.9l-.34.043-.127.008h-30.31l-.148-.011c-5.414-.789-9.184-4.666-9.82-10.1-.74-6.32 4.187-12.21 10.384-12.852l.319-.029v-.06c-.005-6.13 2.973-10.975 8.518-13.825l.336-.169z" fill-rule="nonzero"/><path d="M77.488 49.54c.15 0 .272.122.272.273v.312c0 .15-.122.272-.272.272h-.312a.272.272 0 01-.273-.272v-.312c0-.15.122-.273.273-.273h.312zm-8.178 0c.15 0 .273.122.273.273v.312c0 .15-.122.272-.273.272H69a.273.273 0 01-.273-.272v-.312c0-.15.122-.273.273-.273h.311zm1.169 0c.15 0 .272.122.272.273v.312c0 .15-.122.272-.272.272h-.312a.272.272 0 01-.273-.272v-.312c0-.15.122-.273.273-.273h.312zm5.84 0c.15 0 .273.122.273.273v.312c0 .15-.122.272-.273.272h-.311a.273.273 0 01-.273-.272v-.312c0-.15.122-.273.273-.273h.311zm-4.672-1.168c.15 0 .272.122.272.273v.311c0 .15-.122.273-.272.273h-.312a.272.272 0 01-.273-.273v-.311c0-.15.122-.273.273-.273h.312zm5.84 0c.151 0 .273.122.273.273v.311c0 .15-.122.273-.272.273h-.312a.272.272 0 01-.273-.273v-.311c0-.15.122-.273.273-.273h.312zm-1.168 0c.15 0 .273.122.273.273v.311c0 .15-.122.273-.273.273h-.311a.272.272 0 01-.273-.273v-.311c0-.15.122-.273.273-.273h.311zm-5.84 0c.15 0 .272.122.272.273v.311c0 .15-.122.273-.272.273h-.312a.272.272 0 01-.273-.273v-.311c0-.15.122-.273.273-.273h.312zm1.168-1.168c.15 0 .272.122.272.272v.312c0 .15-.122.273-.272.273h-.312a.272.272 0 01-.273-.273v-.312c0-.15.122-.272.273-.272h.312zm7.009 0c.15 0 .272.122.272.272v.312c0 .15-.122.273-.272.273h-.312a.273.273 0 01-.273-.273v-.312c0-.15.122-.272.273-.272h.312zm-1.168 0c.15 0 .272.122.272.272v.312c0 .15-.122.273-.272.273h-.312a.272.272 0 01-.273-.273v-.312c0-.15.122-.272.273-.272h.312zm-7.01 0c.15 0 .273.122.273.272v.312c0 .15-.122.273-.272.273h-.312a.272.272 0 01-.273-.273v-.312c0-.15.122-.272.273-.272h.312zm8.178-1.168c.15 0 .272.122.272.272v.312c0 .15-.122.272-.272.272h-.312a.272.272 0 01-.273-.272v-.312c0-.15.122-.272.273-.272h.312zm-1.168 0c.15 0 .272.122.272.272v.312c0 .15-.122.272-.272.272h-.312a.272.272 0 01-.273-.272v-.312c0-.15.122-.272.273-.272h.312zm-5.841 0c.15 0 .272.122.272.272v.312c0 .15-.122.272-.272.272h-.312a.272.272 0 01-.273-.272v-.312c0-.15.122-.272.273-.272h.312zm1.168 0c.15 0 .272.122.272.272v.312c0 .15-.122.272-.272.272h-.312a.272.272 0 01-.273-.272v-.312c0-.15.123-.272.273-.272h.312zm4.673-1.168c.15 0 .272.122.272.272v.312c0 .15-.122.272-.272.272h-.312a.272.272 0 01-.273-.272v-.312c0-.15.122-.272.273-.272h.312zm-3.505 0c.15 0 .272.122.272.272v.312c0 .15-.122.272-.272.272h-.312a.272.272 0 01-.272-.272v-.312c0-.15.122-.272.272-.272h.312zm4.673 0c.15 0 .272.122.272.272v.312c0 .15-.122.272-.272.272h-.312a.273.273 0 01-.273-.272v-.312c0-.15.123-.272.273-.272h.312zm-5.841 0c.15 0 .272.122.272.272v.312c0 .15-.122.272-.272.272h-.312a.273.273 0 01-.273-.272v-.312c0-.15.123-.272.273-.272h.312zm1.168-1.169c.15 0 .272.122.272.273v.312c0 .15-.122.272-.272.272h-.312a.272.272 0 01-.272-.272v-.312c0-.15.122-.273.272-.273h.312zm1.168 0c.15 0 .273.122.273.273v.312c0 .15-.122.272-.273.272h-.312a.272.272 0 01-.272-.272v-.312c0-.15.122-.273.272-.273h.312zm2.337 0c.15 0 .272.122.272.273v.312c0 .15-.122.272-.272.272h-.312a.272.272 0 01-.273-.272v-.312c0-.15.122-.273.273-.273h.312zm1.168 0c.15 0 .272.122.272.273v.312c0 .15-.122.272-.272.272h-.312a.273.273 0 01-.273-.272v-.312c0-.15.123-.273.273-.273h.312zm5.84-1.168c.151 0 .273.122.273.273v.312c0 .15-.122.272-.272.272h-.312a.272.272 0 01-.273-.272v-.312c0-.15.122-.273.273-.273h.312zm-10.513 0c.15 0 .272.122.272.273v.312c0 .15-.122.272-.272.272h-.312a.272.272 0 01-.272-.272v-.312c0-.15.122-.273.272-.273h.312zm4.673 0c.15 0 .272.122.272.273v.312c0 .15-.122.272-.272.272h-.312a.272.272 0 01-.273-.272v-.312c0-.15.123-.273.273-.273h.312zm-1.168 0c.15 0 .272.122.272.273v.312c0 .15-.122.272-.272.272h-.312a.272.272 0 01-.273-.272v-.312c0-.15.122-.273.273-.273h.312zm-2.337 0c.15 0 .273.122.273.273v.312c0 .15-.122.272-.273.272h-.312a.272.272 0 01-.272-.272v-.312c0-.15.122-.273.272-.273h.312zm-1.168-1.168c.15 0 .272.122.272.273v.311c0 .15-.122.273-.272.273h-.312a.272.272 0 01-.272-.273v-.311c0-.15.122-.273.272-.273h.312zm1.168 0c.15 0 .273.122.273.273v.311c0 .15-.122.273-.273.273h-.312a.272.272 0 01-.272-.273v-.311c0-.15.122-.273.272-.273h.312zm1.168 0c.15 0 .273.122.273.273v.311c0 .15-.122.273-.273.273h-.311a.273.273 0 01-.273-.273v-.311c0-.15.122-.273.273-.273h.311zm1.169 0c.15 0 .272.122.272.273v.311c0 .15-.122.273-.272.273h-.312a.272.272 0 01-.273-.273v-.311c0-.15.122-.273.273-.273h.312zm1.168 0c.15 0 .272.122.272.273v.311c0 .15-.122.273-.272.273h-.312a.273.273 0 01-.273-.273v-.311c0-.15.123-.273.273-.273h.312zm5.84 0c.151 0 .273.122.273.273v.311c0 .15-.122.273-.272.273h-.312a.272.272 0 01-.273-.273v-.311c0-.15.122-.273.273-.273h.312zm-1.168 0c.15 0 .273.122.273.273v.311c0 .15-.122.273-.273.273h-.311a.272.272 0 01-.273-.273v-.311c0-.15.122-.273.273-.273h.311zm2.337 0c.15 0 .272.122.272.273v.311c0 .15-.122.273-.272.273h-.312a.273.273 0 01-.273-.273v-.311c0-.15.123-.273.273-.273h.312zm-1.168-1.168c.15 0 .272.122.272.272v.312c0 .15-.122.273-.272.273h-.312a.272.272 0 01-.273-.273v-.312c0-.15.122-.272.273-.272h.312zm-9.346 0c.15 0 .273.122.273.272v.312c0 .15-.122.273-.273.273h-.311a.273.273 0 01-.273-.273v-.312c0-.15.122-.272.273-.272h.311zm2.337 0c.15 0 .272.122.272.272v.312c0 .15-.122.273-.272.273h-.312a.272.272 0 01-.273-.273v-.312c0-.15.122-.272.273-.272h.312zm-1.169 0c.15 0 .273.122.273.272v.312c0 .15-.122.273-.273.273h-.311a.273.273 0 01-.273-.273v-.312c0-.15.122-.272.273-.272h.311zm-2.336 0c.15 0 .272.122.272.272v.312c0 .15-.122.273-.272.273h-.312a.272.272 0 01-.272-.273v-.312c0-.15.122-.272.272-.272h.312zm9.345 0c.15 0 .273.122.273.272v.312c0 .15-.122.273-.273.273h-.311a.272.272 0 01-.273-.273v-.312c0-.15.122-.272.273-.272h.311zm-1.168 0c.15 0 .273.122.273.272v.312c0 .15-.122.273-.273.273h-.311a.273.273 0 01-.273-.273v-.312c0-.15.122-.272.273-.272h.311zm-9.345 0c.15 0 .272.122.272.272v.312c0 .15-.122.273-.272.273h-.312a.273.273 0 01-.273-.273v-.312c0-.15.123-.272.273-.272h.312zm9.345-1.168c.15 0 .273.122.273.272v.312c0 .15-.122.272-.273.272h-.311a.272.272 0 01-.273-.272v-.312c0-.15.122-.272.273-.272h.311zm-8.177 0c.15 0 .272.122.272.272v.312c0 .15-.122.272-.272.272h-.312a.272.272 0 01-.272-.272v-.312c0-.15.122-.272.272-.272h.312zm1.168 0c.15 0 .273.122.273.272v.312c0 .15-.122.272-.273.272h-.311a.272.272 0 01-.273-.272v-.312c0-.15.122-.272.273-.272h.311zm-2.336 0c.15 0 .272.122.272.272v.312c0 .15-.122.272-.272.272h-.312a.272.272 0 01-.273-.272v-.312c0-.15.123-.272.273-.272h.312zm3.504 0c.15 0 .273.122.273.272v.312c0 .15-.122.272-.273.272h-.311a.272.272 0 01-.273-.272v-.312c0-.15.122-.272.273-.272h.311zm7.01 0c.15 0 .272.122.272.272v.312c0 .15-.122.272-.273.272h-.311a.272.272 0 01-.273-.272v-.312c0-.15.122-.272.273-.272h.311zm-25.7 0c.15 0 .272.122.272.272v.312c0 .15-.122.272-.272.272h-.312a.272.272 0 01-.273-.272v-.312c0-.15.122-.272.273-.272h.312zm1.168 0c.15 0 .272.122.272.272v.312c0 .15-.122.272-.272.272h-.312a.272.272 0 01-.273-.272v-.312c0-.15.122-.272.273-.272h.312zm12.85 0c.15 0 .272.122.272.272v.312c0 .15-.122.272-.272.272h-.312a.272.272 0 01-.273-.272v-.312c0-.15.122-.272.273-.272h.312zm12.85 0c.15 0 .272.122.272.272v.312c0 .15-.122.272-.272.272h-.312a.272.272 0 01-.273-.272v-.312c0-.15.122-.272.273-.272h.312zm-3.505 0c.15 0 .273.122.273.272v.312c0 .15-.123.272-.273.272h-.312a.272.272 0 01-.272-.272v-.312c0-.15.122-.272.272-.272h.312zm-3.504 0c.15 0 .272.122.272.272v.312c0 .15-.122.272-.272.272h-.312a.272.272 0 01-.273-.272v-.312c0-.15.122-.272.273-.272h.312zm1.168-1.169c.15 0 .272.122.272.273v.312c0 .15-.122.272-.272.272h-.312a.273.273 0 01-.273-.272v-.312c0-.15.123-.273.273-.273h.312zm4.672 0c.15 0 .273.122.273.273v.312c0 .15-.122.272-.273.272h-.311a.272.272 0 01-.273-.272v-.312c0-.15.122-.273.273-.273h.311zm-1.168 0c.15 0 .273.122.273.273v.312c0 .15-.122.272-.273.272h-.311a.273.273 0 01-.273-.272v-.312c0-.15.122-.273.273-.273h.311zm-25.7 0c.15 0 .273.122.273.273v.312c0 .15-.122.272-.273.272h-.312a.272.272 0 01-.272-.272v-.312c0-.15.122-.273.272-.273h.312zm18.691 0c.15 0 .273.122.273.273v.312c0 .15-.122.272-.273.272h-.311a.273.273 0 01-.273-.272v-.312c0-.15.122-.273.273-.273h.311zm-19.859 0c.15 0 .272.122.272.273v.312c0 .15-.121.272-.272.272h-.312a.272.272 0 01-.272-.272v-.312c0-.15.122-.273.272-.273h.312zm16.355 0c.15 0 .272.122.272.273v.312c0 .15-.122.272-.272.272h-.312a.272.272 0 01-.273-.272v-.312c0-.15.122-.273.273-.273h.312zm2.336 0c.15 0 .272.122.272.273v.312c0 .15-.122.272-.272.272h-.312a.272.272 0 01-.272-.272v-.312c0-.15.122-.273.272-.273h.312zm-16.354 0c.15 0 .272.122.272.273v.312c0 .15-.122.272-.272.272h-.312a.272.272 0 01-.273-.272v-.312c0-.15.122-.273.273-.273h.312zm23.363 0c.15 0 .273.122.273.273v.312c0 .15-.123.272-.273.272h-.312a.272.272 0 01-.272-.272v-.312c0-.15.122-.273.272-.273h.312zm-8.177 0c.15 0 .272.122.272.273v.312c0 .15-.122.272-.272.272h-.312a.273.273 0 01-.273-.272v-.312c0-.15.123-.273.273-.273h.312zm3.504 0c.15 0 .273.122.273.273v.312c0 .15-.122.272-.273.272h-.311a.273.273 0 01-.273-.272v-.312c0-.15.122-.273.273-.273h.311zm1.169 0c.15 0 .272.122.272.273v.312c0 .15-.122.272-.272.272h-.312a.272.272 0 01-.273-.272v-.312c0-.15.122-.273.273-.273h.312zM56.46 36.69c.15 0 .273.122.273.273v.312c0 .15-.122.272-.273.272h-.312a.272.272 0 01-.272-.272v-.312c0-.15.122-.273.272-.273h.312zm15.187 0c.15 0 .272.122.272.273v.312c0 .15-.122.272-.272.272h-.312a.272.272 0 01-.273-.272v-.312c0-.15.122-.273.273-.273h.312zm5.84 0c.151 0 .273.122.273.273v.312c0 .15-.122.272-.272.272h-.312a.272.272 0 01-.273-.272v-.312c0-.15.122-.273.273-.273h.312zm3.505 0c.15 0 .273.122.273.273v.312c0 .15-.123.272-.273.272h-.312a.272.272 0 01-.272-.272v-.312c0-.15.122-.273.272-.273h.312zm-7.009 0c.15 0 .272.122.272.273v.312c0 .15-.122.272-.272.272h-.312a.272.272 0 01-.272-.272v-.312c0-.15.122-.273.272-.273h.312zm-18.69 0c.15 0 .271.122.271.273v.312c0 .15-.121.272-.272.272h-.312a.272.272 0 01-.272-.272v-.312c0-.15.122-.273.272-.273h.312zm14.017 0c.15 0 .273.122.273.273v.312c0 .15-.122.272-.273.272H69a.272.272 0 01-.273-.272v-.312c0-.15.122-.273.273-.273h.311zm5.841 0c.15 0 .273.122.273.273v.312c0 .15-.122.272-.273.272h-.311a.272.272 0 01-.273-.272v-.312c0-.15.122-.273.273-.273h.311zm-4.672 0c.15 0 .272.122.272.273v.312c0 .15-.122.272-.272.272h-.312a.272.272 0 01-.273-.272v-.312c0-.15.122-.273.273-.273h.312zm5.84 0c.15 0 .273.122.273.273v.312c0 .15-.122.272-.273.272h-.311a.272.272 0 01-.273-.272v-.312c0-.15.122-.273.273-.273h.311zm5.841 0c.15 0 .273.122.273.273v.312c0 .15-.122.272-.273.272h-.311a.272.272 0 01-.273-.272v-.312c0-.15.122-.273.273-.273h.311zm-3.504 0c.15 0 .272.122.272.273v.312c0 .15-.122.272-.272.272h-.312a.272.272 0 01-.273-.272v-.312c0-.15.122-.273.273-.273h.312zm4.672 0c.15 0 .273.122.273.273v.312c0 .15-.122.272-.273.272h-.311a.272.272 0 01-.273-.272v-.312c0-.15.122-.273.273-.273h.311zm-10.513 0c.15 0 .272.122.272.273v.312c0 .15-.122.272-.272.272h-.312a.272.272 0 01-.273-.272v-.312c0-.15.123-.273.273-.273h.312zm-2.336-1.168c.15 0 .272.122.272.273v.312c0 .15-.122.272-.272.272h-.312a.272.272 0 01-.273-.272v-.312c0-.15.122-.273.273-.273h.312zm-4.673 0c.15 0 .272.122.272.273v.312c0 .15-.122.272-.272.272h-.312a.272.272 0 01-.273-.272v-.312c0-.15.123-.273.273-.273h.312zm15.186 0c.15 0 .273.122.273.273v.312c0 .15-.123.272-.273.272h-.312a.272.272 0 01-.272-.272v-.312c0-.15.122-.273.272-.273h.312zm-25.7 0c.15 0 .272.122.272.273v.312c0 .15-.121.272-.272.272h-.312a.272.272 0 01-.272-.272v-.312c0-.15.122-.273.272-.273h.312zm14.018 0c.15 0 .273.122.273.273v.312c0 .15-.122.272-.273.272H69a.272.272 0 01-.273-.272v-.312c0-.15.122-.273.273-.273h.311zm2.337 0c.15 0 .272.122.272.273v.312c0 .15-.122.272-.272.272h-.312a.272.272 0 01-.273-.272v-.312c0-.15.122-.273.273-.273h.312zm5.84 0c.151 0 .273.122.273.273v.312c0 .15-.122.272-.272.272h-.312a.272.272 0 01-.273-.272v-.312c0-.15.122-.273.273-.273h.312zm-9.345 0c.15 0 .273.122.273.273v.312c0 .15-.122.272-.273.272h-.312a.272.272 0 01-.272-.272v-.312c0-.15.122-.273.272-.273h.312zm-1.168 0c.15 0 .272.122.272.273v.312c0 .15-.122.272-.272.272h-.312a.272.272 0 01-.272-.272v-.312c0-.15.122-.273.272-.273h.312zm15.186 0c.15 0 .273.122.273.273v.312c0 .15-.122.272-.273.272h-.311a.272.272 0 01-.273-.272v-.312c0-.15.122-.273.273-.273h.311zm-5.84 0c.15 0 .272.122.272.273v.312c0 .15-.122.272-.273.272h-.311a.272.272 0 01-.273-.272v-.312c0-.15.122-.273.273-.273h.311zm-3.505 0c.15 0 .272.122.272.273v.312c0 .15-.122.272-.272.272h-.312a.272.272 0 01-.273-.272v-.312c0-.15.123-.273.273-.273h.312zm1.168 0c.15 0 .272.122.272.273v.312c0 .15-.122.272-.272.272h-.312a.272.272 0 01-.272-.272v-.312c0-.15.122-.273.272-.273h.312zm-19.859 0c.15 0 .272.122.272.273v.312c0 .15-.122.272-.272.272h-.312a.272.272 0 01-.272-.272v-.312c0-.15.122-.273.272-.273h.312zm24.532 0c.15 0 .272.122.272.273v.312c0 .15-.122.272-.272.272h-.312a.272.272 0 01-.273-.272v-.312c0-.15.122-.273.273-.273h.312zm-3.505 0c.15 0 .273.122.273.273v.312c0 .15-.122.272-.273.272h-.311a.272.272 0 01-.273-.272v-.312c0-.15.122-.273.273-.273h.311zm-18.69 0c.15 0 .272.122.272.273v.312c0 .15-.122.272-.273.272h-.311a.272.272 0 01-.273-.272v-.312c0-.15.122-.273.273-.273h.311zm8.177 0c.15 0 .272.122.272.273v.312c0 .15-.122.272-.272.272h-.312a.272.272 0 01-.273-.272v-.312c0-.15.122-.273.273-.273h.312zm10.513-1.168c.15 0 .273.122.273.272v.312c0 .15-.122.273-.273.273h-.311a.273.273 0 01-.273-.273v-.312c0-.15.122-.272.273-.272h.311zm-1.168 0c.15 0 .272.122.272.272v.312c0 .15-.122.273-.272.273h-.312a.272.272 0 01-.272-.273v-.312c0-.15.122-.272.272-.272h.312zm4.673 0c.15 0 .272.122.272.272v.312c0 .15-.122.273-.272.273h-.312a.273.273 0 01-.273-.273v-.312c0-.15.123-.272.273-.272h.312zm-10.514 0c.15 0 .273.122.273.272v.312c0 .15-.122.273-.273.273h-.312a.272.272 0 01-.272-.273v-.312c0-.15.122-.272.272-.272h.312zm-1.168 0c.15 0 .272.122.272.272v.312c0 .15-.122.273-.272.273h-.312a.272.272 0 01-.272-.273v-.312c0-.15.122-.272.272-.272h.312zm15.186 0c.15 0 .273.122.273.272v.312c0 .15-.122.273-.273.273h-.311a.273.273 0 01-.273-.273v-.312c0-.15.122-.272.273-.272h.311zm-25.7 0c.15 0 .273.122.273.272v.312c0 .15-.122.273-.273.273h-.311a.273.273 0 01-.273-.273v-.312c0-.15.122-.272.273-.272h.311zm21.028 0c.15 0 .272.122.272.272v.312c0 .15-.122.273-.272.273h-.312a.272.272 0 01-.273-.273v-.312c0-.15.122-.272.273-.272h.312zm-7.01 0c.15 0 .273.122.273.272v.312c0 .15-.122.273-.272.273h-.312a.272.272 0 01-.273-.273v-.312c0-.15.122-.272.273-.272h.312zm2.337 0c.15 0 .272.122.272.272v.312c0 .15-.122.273-.272.273h-.312a.273.273 0 01-.273-.273v-.312c0-.15.123-.272.273-.272h.312zm-15.186 0c.15 0 .272.122.272.272v.312c0 .15-.122.273-.272.273h-.312a.272.272 0 01-.273-.273v-.312c0-.15.122-.272.273-.272h.312zm4.672 0c.15 0 .273.122.273.272v.312c0 .15-.122.273-.273.273h-.311a.273.273 0 01-.273-.273v-.312c0-.15.122-.272.273-.272h.311zm-8.177 0c.15 0 .272.122.272.272v.312c0 .13-.09.237-.21.266l-.062.007h-.312a.272.272 0 01-.272-.273v-.312c0-.15.122-.272.272-.272h.312zm9.345 0c.15 0 .273.122.273.272v.312c0 .15-.122.273-.273.273h-.311a.273.273 0 01-.273-.273v-.312c0-.15.122-.272.273-.272h.311zm8.178 0c.15 0 .272.122.272.272v.312c0 .15-.122.273-.272.273h-.312a.272.272 0 01-.273-.273v-.312c0-.15.122-.272.273-.272h.312zm-5.841 0c.15 0 .272.122.272.272v.312c0 .15-.122.273-.272.273h-.312a.273.273 0 01-.273-.273v-.312c0-.15.123-.272.273-.272h.312zm-12.85 0c.15 0 .272.122.272.272v.312c0 .13-.09.237-.21.266l-.062.007h-.312a.272.272 0 01-.272-.273v-.312c0-.15.121-.272.272-.272h.312zm28.036 0c.15 0 .273.122.273.272v.312c0 .15-.123.273-.273.273h-.312a.272.272 0 01-.272-.273v-.312c0-.15.122-.272.272-.272h.312zm-11.682 0c.15 0 .273.122.273.272v.312c0 .15-.122.273-.273.273H69a.273.273 0 01-.273-.273v-.312c0-.15.122-.272.273-.272h.311zm7.01 0c.15 0 .272.122.272.272v.312c0 .15-.122.273-.273.273h-.311a.273.273 0 01-.273-.273v-.312c0-.15.122-.272.273-.272h.311zm-17.523 0c.15 0 .272.122.272.272v.312c0 .15-.122.273-.272.273h-.312a.272.272 0 01-.273-.273v-.312c0-.15.122-.272.273-.272h.312zm2.336 0c.15 0 .272.122.272.272v.312c0 .15-.122.273-.272.273h-.312a.272.272 0 01-.272-.273v-.312c0-.15.122-.272.272-.272h.312zm3.505 0c.15 0 .272.122.272.272v.312c0 .15-.122.273-.272.273h-.312a.272.272 0 01-.273-.273v-.312c0-.15.122-.272.273-.272h.312zm-5.841-1.168c.15 0 .272.122.272.272v.312c0 .15-.122.272-.272.272h-.312a.272.272 0 01-.273-.272v-.312c0-.15.122-.272.273-.272h.312zm-1.168 0c.15 0 .272.122.272.272v.312c0 .15-.122.272-.272.272h-.312a.272.272 0 01-.273-.272v-.312c0-.15.122-.272.273-.272h.312zm4.672 0c.15 0 .273.122.273.272v.312c0 .15-.122.272-.273.272h-.311a.272.272 0 01-.273-.272v-.312c0-.15.122-.272.273-.272h.311zm2.337 0c.15 0 .272.122.272.272v.312c0 .15-.122.272-.272.272h-.312a.272.272 0 01-.273-.272v-.312c0-.15.122-.272.273-.272h.312zm2.336 0c.15 0 .272.122.272.272v.312c0 .15-.122.272-.272.272h-.312a.272.272 0 01-.272-.272v-.312c0-.15.122-.272.272-.272h.312zm-7.009 0c.15 0 .272.122.272.272v.312c0 .15-.122.272-.272.272h-.312a.272.272 0 01-.272-.272v-.312c0-.15.122-.272.272-.272h.312zm14.018 0c.15 0 .272.122.272.272v.312c0 .15-.122.272-.272.272h-.312a.272.272 0 01-.272-.272v-.312c0-.15.122-.272.272-.272h.312zm3.505 0c.15 0 .272.122.272.272v.312c0 .15-.122.272-.272.272h-.312a.272.272 0 01-.273-.272v-.312c0-.15.122-.272.273-.272h.312zm-1.169 0c.15 0 .273.122.273.272v.312c0 .15-.122.272-.273.272h-.311a.272.272 0 01-.273-.272v-.312c0-.15.122-.272.273-.272h.311zm-1.168 0c.15 0 .273.122.273.272v.312c0 .15-.122.272-.273.272h-.311a.272.272 0 01-.273-.272v-.312c0-.15.122-.272.273-.272h.311zm-9.345 0c.15 0 .272.122.272.272v.312c0 .15-.122.272-.272.272h-.312a.272.272 0 01-.273-.272v-.312c0-.15.123-.272.273-.272h.312zm12.85 0c.15 0 .272.122.272.272v.312c0 .15-.122.272-.272.272h-.312a.272.272 0 01-.273-.272v-.312c0-.15.123-.272.273-.272h.312zm-10.514 0c.15 0 .272.122.272.272v.312c0 .15-.121.272-.272.272h-.312a.272.272 0 01-.272-.272v-.312c0-.15.122-.272.272-.272h.312zm12.85 0c.15 0 .273.122.273.272v.312c0 .15-.123.272-.273.272h-.312a.272.272 0 01-.272-.272v-.312c0-.15.122-.272.272-.272h.312zm-9.345 0c.15 0 .272.122.272.272v.312c0 .15-.122.272-.272.272h-.312a.272.272 0 01-.273-.272v-.312c0-.15.122-.272.273-.272h.312zm-15.187 0c.15 0 .273.122.273.272v.312c0 .15-.122.272-.273.272h-.311a.272.272 0 01-.273-.272v-.312c0-.15.122-.272.273-.272h.311zm12.85 0c.15 0 .273.122.273.272v.312c0 .15-.122.272-.273.272H69a.272.272 0 01-.273-.272v-.312c0-.15.122-.272.273-.272h.311zm3.505 0c.15 0 .272.122.272.272v.312c0 .15-.122.272-.272.272h-.312a.272.272 0 01-.273-.272v-.312c0-.15.123-.272.273-.272h.312zm-11.682 0c.15 0 .272.122.272.272v.312c0 .15-.122.272-.272.272h-.312a.272.272 0 01-.272-.272v-.312c0-.15.122-.272.272-.272h.312zm2.336 0c.15 0 .273.122.273.272v.312c0 .15-.122.272-.273.272h-.311a.272.272 0 01-.273-.272v-.312c0-.15.122-.272.273-.272h.311zm7.01 0c.15 0 .272.122.272.272v.312c0 .15-.122.272-.272.272h-.312a.272.272 0 01-.273-.272v-.312c0-.15.122-.272.273-.272h.312zm9.345 0c.15 0 .272.122.272.272v.312c0 .15-.122.272-.272.272h-.312a.272.272 0 01-.272-.272v-.312c0-.15.122-.272.272-.272h.312zm-25.7 0c.15 0 .272.122.272.272v.312c0 .15-.122.272-.272.272h-.312a.272.272 0 01-.272-.272v-.312c0-.15.122-.272.272-.272h.312zm-1.168 0c.15 0 .272.122.272.272v.312c0 .15-.122.272-.272.272h-.312a.272.272 0 01-.272-.272v-.312c0-.15.121-.272.272-.272h.312zm2.336-1.168c.15 0 .272.122.272.272v.312c0 .15-.121.272-.272.272h-.312a.272.272 0 01-.272-.272v-.312c0-.15.122-.272.272-.272h.312zm12.85 0c.15 0 .272.122.272.272v.312c0 .15-.121.272-.272.272h-.312a.272.272 0 01-.272-.272v-.312c0-.15.122-.272.272-.272h.312zm-1.168 0c.15 0 .272.122.272.272v.312c0 .15-.122.272-.272.272h-.312a.273.273 0 01-.272-.272v-.312c0-.15.122-.272.272-.272h.312zm-10.514 0c.15 0 .273.122.273.272v.312c0 .15-.122.272-.273.272h-.311a.272.272 0 01-.273-.272v-.312c0-.15.122-.272.273-.272h.311zm3.505 0c.15 0 .272.122.272.272v.312c0 .15-.122.272-.272.272h-.312a.273.273 0 01-.272-.272v-.312c0-.15.122-.272.272-.272h.312zm-5.841 0c.15 0 .272.122.272.272v.312c0 .15-.122.272-.272.272h-.312a.272.272 0 01-.272-.272v-.312c0-.15.122-.272.272-.272h.312zm22.195 0c.15 0 .273.122.273.272v.312c0 .15-.122.272-.273.272h-.311a.273.273 0 01-.273-.272v-.312c0-.15.122-.272.273-.272h.311zm-7.009 0c.15 0 .273.122.273.272v.312c0 .15-.122.272-.273.272H69a.273.273 0 01-.273-.272v-.312c0-.15.122-.272.273-.272h.311zm-8.177 0c.15 0 .272.122.272.272v.312c0 .15-.122.272-.272.272h-.312a.272.272 0 01-.272-.272v-.312c0-.15.122-.272.272-.272h.312zm3.505 0c.15 0 .272.122.272.272v.312c0 .15-.122.272-.272.272h-.312a.273.273 0 01-.273-.272v-.312c0-.15.122-.272.273-.272h.312zm7.009 0c.15 0 .272.122.272.272v.312c0 .15-.122.272-.272.272h-.312a.272.272 0 01-.273-.272v-.312c0-.15.122-.272.273-.272h.312zm3.504 0c.15 0 .273.122.273.272v.312c0 .15-.122.272-.273.272h-.312a.272.272 0 01-.272-.272v-.312c0-.15.122-.272.272-.272h.312zm-12.85 0c.15 0 .273.122.273.272v.312c0 .15-.122.272-.273.272h-.311a.272.272 0 01-.273-.272v-.312c0-.15.122-.272.273-.272h.311zm15.187 0c.15 0 .272.122.272.272v.312c0 .15-.122.272-.272.272h-.312a.272.272 0 01-.273-.272v-.312c0-.15.122-.272.273-.272h.312zm-4.673 0c.15 0 .272.122.272.272v.312c0 .15-.122.272-.272.272h-.312a.273.273 0 01-.273-.272v-.312c0-.15.123-.272.273-.272h.312zm-14.018 0c.15 0 .272.122.272.272v.312c0 .15-.122.272-.272.272h-.312a.272.272 0 01-.273-.272v-.312c0-.15.122-.272.273-.272h.312zm15.186 0c.15 0 .272.122.272.272v.312c0 .15-.122.272-.272.272h-.312a.272.272 0 01-.272-.272v-.312c0-.15.122-.272.272-.272h.312zm-3.504 0c.15 0 .272.122.272.272v.312c0 .15-.122.272-.272.272h-.312a.272.272 0 01-.273-.272v-.312c0-.15.122-.272.273-.272h.312zm-12.85 0c.15 0 .272.122.272.272v.312c0 .15-.122.272-.272.272h-.312a.272.272 0 01-.273-.272v-.312c0-.15.122-.272.273-.272h.312zm5.84 0c.15 0 .273.122.273.272v.312c0 .15-.122.272-.273.272h-.311a.273.273 0 01-.273-.272v-.312c0-.15.122-.272.273-.272h.311zm2.337 0c.15 0 .272.122.272.272v.312c0 .15-.122.272-.272.272h-.312a.273.273 0 01-.273-.272v-.312c0-.15.123-.272.273-.272h.312zm-7.01-1.169c.151 0 .273.122.273.273v.312c0 .15-.122.272-.272.272h-.312a.272.272 0 01-.273-.272v-.312c0-.15.122-.273.273-.273h.312zm12.85 0c.151 0 .273.122.273.273v.312c0 .15-.122.272-.272.272h-.312a.272.272 0 01-.273-.272v-.312c0-.15.122-.273.273-.273h.312zm-2.336 0c.15 0 .273.122.273.273v.312c0 .15-.122.272-.273.272H69a.273.273 0 01-.273-.272v-.312c0-.15.122-.273.273-.273h.311zm-2.336 0c.15 0 .272.122.272.273v.312c0 .15-.122.272-.272.272h-.312a.272.272 0 01-.272-.272v-.312c0-.15.122-.273.272-.273h.312zm-4.673 0c.15 0 .273.122.273.273v.312c0 .15-.122.272-.273.272h-.311a.273.273 0 01-.273-.272v-.312c0-.15.122-.273.273-.273h.311zm12.85 0c.15 0 .273.122.273.273v.312c0 .15-.122.272-.273.272h-.311a.273.273 0 01-.273-.272v-.312c0-.15.122-.273.273-.273h.311zm-14.018 0c.15 0 .272.122.272.273v.312c0 .15-.122.272-.272.272h-.312a.272.272 0 01-.272-.272v-.312c0-.15.122-.273.272-.273h.312zm3.505 0c.15 0 .272.122.272.273v.312c0 .15-.122.272-.272.272h-.312a.272.272 0 01-.273-.272v-.312c0-.15.122-.273.273-.273h.312zm9.345 0c.15 0 .272.122.272.273v.312c0 .15-.122.272-.272.272h-.312a.272.272 0 01-.272-.272v-.312c0-.15.122-.273.272-.273h.312zm-8.177 0c.15 0 .272.122.272.273v.312c0 .15-.122.272-.272.272h-.312a.273.273 0 01-.273-.272v-.312c0-.15.123-.273.273-.273h.312zm-8.177 0c.15 0 .272.122.272.273v.312c0 .15-.122.272-.272.272h-.312a.272.272 0 01-.273-.272v-.312c0-.15.122-.273.273-.273h.312zm15.186 0c.15 0 .272.122.272.273v.312c0 .15-.122.272-.272.272h-.312a.273.273 0 01-.273-.272v-.312c0-.15.123-.273.273-.273h.312zm-2.336 0c.15 0 .272.122.272.273v.312c0 .15-.122.272-.272.272h-.312a.272.272 0 01-.273-.272v-.312c0-.15.122-.273.273-.273h.312zm-10.514 0c.15 0 .272.122.272.273v.312c0 .15-.122.272-.272.272h-.312a.273.273 0 01-.272-.272v-.312c0-.15.122-.273.272-.273h.312zm3.504 0c.15 0 .273.122.273.273v.312c0 .15-.122.272-.273.272h-.311a.273.273 0 01-.273-.272v-.312c0-.15.122-.273.273-.273h.311zm-7.009 0c.15 0 .273.122.273.273v.312c0 .15-.122.272-.273.272h-.311a.273.273 0 01-.273-.272v-.312c0-.15.122-.273.273-.273h.311zm11.682 0c.15 0 .273.122.273.273v.312c0 .15-.122.272-.273.272h-.312a.272.272 0 01-.272-.272v-.312c0-.15.122-.273.272-.273h.312zm-12.85 0c.15 0 .272.122.272.273v.312c0 .15-.121.272-.272.272h-.312a.272.272 0 01-.272-.272v-.312c0-.15.122-.273.272-.273h.312zm11.682-1.168c.15 0 .272.122.272.273v.312c0 .15-.122.272-.272.272h-.312a.272.272 0 01-.272-.272v-.312c0-.15.122-.273.272-.273h.312zm-4.673 0c.15 0 .273.122.273.273v.312c0 .15-.122.272-.273.272h-.311a.272.272 0 01-.273-.272v-.312c0-.15.122-.273.273-.273h.311zm9.346 0c.15 0 .272.122.272.273v.312c0 .15-.122.272-.272.272h-.312a.272.272 0 01-.273-.272v-.312c0-.15.122-.273.273-.273h.312zm-11.682 0c.15 0 .272.122.272.273v.312c0 .15-.122.272-.272.272h-.312a.272.272 0 01-.272-.272v-.312c0-.15.122-.273.272-.273h.312zm10.514 0c.15 0 .272.122.272.273v.312c0 .15-.122.272-.272.272h-.312a.272.272 0 01-.273-.272v-.312c0-.15.122-.273.273-.273h.312zm-2.337 0c.15 0 .273.122.273.273v.312c0 .15-.122.272-.273.272h-.312a.272.272 0 01-.272-.272v-.312c0-.15.122-.273.272-.273h.312zm-3.504 0c.15 0 .272.122.272.273v.312c0 .15-.122.272-.272.272h-.312a.272.272 0 01-.273-.272v-.312c0-.15.122-.273.273-.273h.312zm1.168 0c.15 0 .272.122.272.273v.312c0 .15-.122.272-.272.272h-.312a.272.272 0 01-.273-.272v-.312c0-.15.123-.273.273-.273h.312zm-7.01 0c.151 0 .273.122.273.273v.312c0 .15-.122.272-.272.272h-.312a.272.272 0 01-.273-.272v-.312c0-.15.122-.273.273-.273h.312zm-1.167 0c.15 0 .272.122.272.273v.312c0 .15-.122.272-.272.272h-.312a.272.272 0 01-.273-.272v-.312c0-.15.122-.273.273-.273h.312zm11.681 0c.15 0 .273.122.273.273v.312c0 .15-.122.272-.273.272H69a.272.272 0 01-.273-.272v-.312c0-.15.122-.273.273-.273h.311zm-5.84 0c.15 0 .272.122.272.273v.312c0 .15-.122.272-.273.272h-.311a.272.272 0 01-.273-.272v-.312c0-.15.122-.273.273-.273h.311zm-2.337 0c.15 0 .272.122.272.273v.312c0 .15-.122.272-.272.272h-.312a.272.272 0 01-.272-.272v-.312c0-.15.122-.273.272-.273h.312zm4.673-1.168c.15 0 .272.122.272.273v.311c0 .15-.122.273-.272.273h-.312a.272.272 0 01-.273-.273v-.311c0-.15.123-.273.273-.273h.312zm-4.673 0c.15 0 .272.122.272.273v.311c0 .15-.122.273-.272.273h-.312a.272.272 0 01-.272-.273v-.311c0-.15.122-.273.272-.273h.312zm3.505 0c.15 0 .272.122.272.273v.311c0 .15-.122.273-.272.273h-.312a.272.272 0 01-.273-.273v-.311c0-.15.122-.273.273-.273h.312zm-1.169 0c.15 0 .273.122.273.273v.311c0 .15-.122.273-.273.273h-.311a.272.272 0 01-.273-.273v-.311c0-.15.122-.273.273-.273h.311zm-4.672 0c.15 0 .272.122.272.273v.311c0 .15-.122.273-.272.273h-.312a.272.272 0 01-.273-.273v-.311c0-.15.122-.273.273-.273h.312zm-1.168 0c.15 0 .272.122.272.273v.311c0 .15-.122.273-.272.273h-.312a.272.272 0 01-.273-.273v-.311c0-.15.122-.273.273-.273h.312zm9.345 0c.15 0 .272.122.272.273v.311c0 .15-.122.273-.272.273h-.312a.272.272 0 01-.272-.273v-.311c0-.15.122-.273.272-.273h.312zm-4.673 0c.15 0 .273.122.273.273v.311c0 .15-.122.273-.273.273h-.311a.272.272 0 01-.273-.273v-.311c0-.15.122-.273.273-.273h.311zm5.841 0c.15 0 .273.122.273.273v.311c0 .15-.122.273-.273.273h-.312a.272.272 0 01-.272-.273v-.311c0-.15.122-.273.272-.273h.312zm-8.177 0c.15 0 .272.122.272.273v.311c0 .15-.122.273-.272.273h-.312a.272.272 0 01-.272-.273v-.311c0-.15.122-.273.272-.273h.312zm9.345 0c.15 0 .273.122.273.273v.311c0 .15-.122.273-.273.273H69a.272.272 0 01-.273-.273v-.311c0-.15.122-.273.273-.273h.311zm-4.672-1.168c.15 0 .272.122.272.272v.312c0 .15-.122.273-.272.273h-.312a.272.272 0 01-.273-.273v-.312c0-.15.122-.272.273-.272h.312zm-3.505 0c.15 0 .272.122.272.272v.312c0 .15-.122.273-.272.273h-.312a.272.272 0 01-.272-.273v-.312c0-.15.122-.272.272-.272h.312zm1.168 0c.15 0 .273.122.273.272v.312c0 .15-.122.273-.273.273h-.311a.273.273 0 01-.273-.273v-.312c0-.15.122-.272.273-.272h.311zm-3.504 0c.15 0 .272.122.272.272v.312c0 .15-.122.273-.272.273h-.312a.272.272 0 01-.273-.273v-.312c0-.15.122-.272.273-.272h.312zm1.168 0c.15 0 .272.122.272.272v.312c0 .15-.122.273-.272.273h-.312a.273.273 0 01-.272-.273v-.312c0-.15.122-.272.272-.272h.312zm3.504 0c.15 0 .273.122.273.272v.312c0 .15-.122.273-.273.273h-.311a.273.273 0 01-.273-.273v-.312c0-.15.122-.272.273-.272h.311zm3.505 0c.15 0 .272.122.272.272v.312c0 .15-.122.273-.272.273h-.312a.272.272 0 01-.272-.273v-.312c0-.15.122-.272.272-.272h.312zm1.168 0c.15 0 .273.122.273.272v.312c0 .15-.122.273-.273.273h-.312a.272.272 0 01-.272-.273v-.312c0-.15.122-.272.272-.272h.312zm-2.336 0c.15 0 .272.122.272.272v.312c0 .15-.122.273-.272.273h-.312a.273.273 0 01-.273-.273v-.312c0-.15.123-.272.273-.272h.312zm1.168-1.168c.15 0 .272.122.272.272v.312c0 .15-.122.272-.272.272h-.312a.272.272 0 01-.272-.272v-.312c0-.15.122-.272.272-.272h.312zm-1.168 0c.15 0 .272.122.272.272v.312c0 .15-.122.272-.272.272h-.312a.272.272 0 01-.273-.272v-.312c0-.15.123-.272.273-.272h.312zm-1.168 0c.15 0 .272.122.272.272v.312c0 .15-.122.272-.272.272h-.312a.272.272 0 01-.273-.272v-.312c0-.15.122-.272.273-.272h.312zm-3.505 0c.15 0 .272.122.272.272v.312c0 .15-.122.272-.272.272h-.312a.272.272 0 01-.272-.272v-.312c0-.15.122-.272.272-.272h.312zm1.168 0c.15 0 .273.122.273.272v.312c0 .15-.122.272-.273.272h-.311a.272.272 0 01-.273-.272v-.312c0-.15.122-.272.273-.272h.311zm-2.336 0c.15 0 .272.122.272.272v.312c0 .15-.122.272-.272.272h-.312a.272.272 0 01-.272-.272v-.312c0-.15.122-.272.272-.272h.312zm-1.168 0c.15 0 .272.122.272.272v.312c0 .15-.122.272-.272.272h-.312a.272.272 0 01-.273-.272v-.312c0-.15.122-.272.273-.272h.312zm4.672 0c.15 0 .273.122.273.272v.312c0 .15-.122.272-.273.272h-.311a.272.272 0 01-.273-.272v-.312c0-.15.122-.272.273-.272h.311zm1.169-1.168c.15 0 .272.121.272.272v.312c0 .15-.122.272-.272.272h-.312a.272.272 0 01-.273-.272v-.312c0-.15.122-.272.273-.272h.312zm-4.673 0c.15 0 .272.121.272.272v.312c0 .15-.122.272-.272.272h-.312a.273.273 0 01-.272-.272v-.312c0-.15.122-.272.272-.272h.312zm3.504 0c.15 0 .273.121.273.272v.312c0 .15-.122.272-.273.272h-.311a.273.273 0 01-.273-.272v-.312c0-.15.122-.272.273-.272h.311zm-1.168 0c.15 0 .273.121.273.272v.312c0 .15-.122.272-.273.272h-.311a.273.273 0 01-.273-.272v-.312c0-.15.122-.272.273-.272h.311zm3.505 0c.15 0 .272.121.272.272v.312c0 .15-.122.272-.272.272h-.312a.273.273 0 01-.273-.272v-.312c0-.15.123-.272.273-.272h.312zm-4.673 0c.15 0 .272.121.272.272v.312c0 .15-.122.272-.272.272h-.312a.272.272 0 01-.272-.272v-.312c0-.15.122-.272.272-.272h.312zm5.841 0c.15 0 .272.121.272.272v.312c0 .15-.122.272-.272.272h-.312a.272.272 0 01-.272-.272v-.312c0-.15.122-.272.272-.272h.312zm-8.177 0c.15 0 .272.121.272.272v.312c0 .15-.122.272-.272.272h-.312a.272.272 0 01-.273-.272v-.312c0-.15.122-.272.273-.272h.312zm2.336-1.169c.15 0 .272.122.272.273v.312c0 .15-.122.272-.272.272h-.312a.272.272 0 01-.272-.272v-.312c0-.15.122-.273.272-.273h.312zm-2.336 0c.15 0 .272.122.272.273v.312c0 .15-.122.272-.272.272h-.312a.272.272 0 01-.273-.272v-.312c0-.15.122-.273.273-.273h.312zm4.672 0c.15 0 .273.122.273.273v.312c0 .15-.122.272-.273.272h-.311a.272.272 0 01-.273-.272v-.312c0-.15.122-.273.273-.273h.311zm-1.168 0c.15 0 .273.122.273.273v.312c0 .15-.122.272-.273.272h-.311a.272.272 0 01-.273-.272v-.312c0-.15.122-.273.273-.273h.311zm3.505 0c.15 0 .272.122.272.273v.312c0 .15-.122.272-.272.272h-.312a.272.272 0 01-.273-.272v-.312c0-.15.123-.273.273-.273h.312zm-1.168 0c.15 0 .272.122.272.273v.312c0 .15-.122.272-.272.272h-.312a.272.272 0 01-.273-.272v-.312c0-.15.122-.273.273-.273h.312zm-4.673 0c.15 0 .272.122.272.273v.312c0 .15-.122.272-.272.272h-.312a.272.272 0 01-.272-.272v-.312c0-.15.122-.273.272-.273h.312zm4.673-1.168c.15 0 .272.122.272.273v.312c0 .15-.122.272-.272.272h-.312a.272.272 0 01-.273-.272v-.312c0-.15.122-.273.273-.273h.312zm-1.169 0c.15 0 .273.122.273.273v.312c0 .15-.122.272-.273.272h-.311a.272.272 0 01-.273-.272v-.312c0-.15.122-.273.273-.273h.311zm-10.513 0c.15 0 .272.122.272.273v.312c0 .15-.122.272-.272.272h-.312a.272.272 0 01-.272-.272v-.312c0-.15.121-.273.272-.273h.312zm1.168 0c.15 0 .272.122.272.273v.312c0 .15-.122.272-.272.272h-.312a.272.272 0 01-.272-.272v-.312c0-.15.122-.273.272-.273h.312zm11.682 0c.15 0 .272.122.272.273v.312c0 .15-.122.272-.272.272h-.312a.272.272 0 01-.273-.272v-.312c0-.15.123-.273.273-.273h.312zm-5.841 0c.15 0 .272.122.272.273v.312c0 .15-.122.272-.272.272h-.312a.272.272 0 01-.272-.272v-.312c0-.15.122-.273.272-.273h.312zm1.168 0c.15 0 .272.122.272.273v.312c0 .15-.122.272-.272.272h-.312a.272.272 0 01-.272-.272v-.312c0-.15.122-.273.272-.273h.312zm-2.336 0c.15 0 .272.122.272.273v.312c0 .15-.122.272-.272.272h-.312a.272.272 0 01-.273-.272v-.312c0-.15.122-.273.273-.273h.312zm3.504 0c.15 0 .273.122.273.273v.312c0 .15-.122.272-.273.272h-.311a.272.272 0 01-.273-.272v-.312c0-.15.122-.273.273-.273h.311zm-1.168-1.168c.15 0 .272.122.272.272v.312c0 .15-.122.273-.272.273h-.312a.272.272 0 01-.272-.273v-.312c0-.15.122-.272.272-.272h.312zm-1.168 0c.15 0 .272.122.272.272v.312c0 .15-.122.273-.272.273h-.312a.273.273 0 01-.272-.273v-.312c0-.15.122-.272.272-.272h.312zm-4.673 0c.15 0 .272.122.272.272v.312c0 .15-.121.273-.272.273h-.312a.272.272 0 01-.272-.273v-.312c0-.15.122-.272.272-.272h.312zm1.168 0c.15 0 .273.122.273.272v.312c0 .15-.122.273-.273.273h-.312a.272.272 0 01-.272-.273v-.312c0-.15.122-.272.272-.272h.312zm2.337 0c.15 0 .272.122.272.272v.312c0 .15-.122.273-.272.273h-.312a.272.272 0 01-.273-.273v-.312c0-.15.122-.272.273-.272h.312zm3.504 0c.15 0 .273.122.273.272v.312c0 .15-.122.273-.273.273h-.311a.273.273 0 01-.273-.273v-.312c0-.15.122-.272.273-.272h.311zm3.505 0c.15 0 .272.122.272.272v.312c0 .15-.122.273-.272.273h-.312a.273.273 0 01-.273-.273v-.312c0-.15.123-.272.273-.272h.312zm-8.177 0c.15 0 .272.122.272.272v.312c0 .15-.122.273-.272.273h-.312a.272.272 0 01-.273-.273v-.312c0-.15.122-.272.273-.272h.312zm7.009 0c.15 0 .272.122.272.272v.312c0 .15-.122.273-.272.273h-.312a.272.272 0 01-.273-.273v-.312c0-.15.122-.272.273-.272h.312zm-1.169 0c.15 0 .273.122.273.272v.312c0 .15-.122.273-.273.273h-.311a.273.273 0 01-.273-.273v-.312c0-.15.122-.272.273-.272h.311zm-11.681 0c.15 0 .272.122.272.272v.312c0 .15-.122.273-.272.273h-.312a.273.273 0 01-.273-.273v-.312c0-.15.122-.272.273-.272h.312zm1.168 0c.15 0 .272.122.272.272v.312c0 .15-.122.273-.272.273h-.312a.272.272 0 01-.272-.273v-.312c0-.15.121-.272.272-.272h.312zm1.168 0c.15 0 .272.122.272.272v.312c0 .15-.122.273-.272.273h-.312a.272.272 0 01-.272-.273v-.312c0-.15.122-.272.272-.272h.312zm10.514-1.168c.15 0 .272.122.272.272v.312c0 .15-.122.272-.272.272h-.312a.272.272 0 01-.273-.272v-.312c0-.15.122-.272.273-.272h.312zm-5.841 0c.15 0 .272.122.272.272v.312c0 .15-.122.272-.272.272h-.312a.272.272 0 01-.273-.272v-.312c0-.15.122-.272.273-.272h.312zm1.168 0c.15 0 .272.122.272.272v.312c0 .15-.122.272-.272.272h-.312a.272.272 0 01-.272-.272v-.312c0-.15.122-.272.272-.272h.312zm1.168 0c.15 0 .272.122.272.272v.312c0 .15-.122.272-.272.272h-.312a.272.272 0 01-.272-.272v-.312c0-.15.122-.272.272-.272h.312zm2.336 0c.15 0 .273.122.273.272v.312c0 .15-.122.272-.273.272h-.311a.272.272 0 01-.273-.272v-.312c0-.15.122-.272.273-.272h.311zm-7.009 0c.15 0 .273.122.273.272v.312c0 .15-.122.272-.273.272h-.311a.272.272 0 01-.273-.272v-.312c0-.15.122-.272.273-.272h.311zm-2.336 0c.15 0 .272.122.272.272v.312c0 .15-.122.272-.272.272h-.312a.272.272 0 01-.272-.272v-.312c0-.15.122-.272.272-.272h.312zm-1.168 0c.15 0 .272.122.272.272v.312c0 .15-.122.272-.272.272h-.312a.272.272 0 01-.272-.272v-.312c0-.15.121-.272.272-.272h.312zm4.673 0c.15 0 .272.122.272.272v.312c0 .15-.122.272-.272.272h-.312a.272.272 0 01-.273-.272v-.312c0-.15.122-.272.273-.272h.312zm-2.337 0c.15 0 .272.122.272.272v.312c0 .15-.121.272-.272.272h-.312a.272.272 0 01-.272-.272v-.312c0-.15.122-.272.272-.272h.312zm7.01 0c.15 0 .272.122.272.272v.312c0 .15-.122.272-.273.272h-.311a.272.272 0 01-.273-.272v-.312c0-.15.122-.272.273-.272h.311zm-5.842-1.168c.15 0 .273.122.273.272v.312c0 .15-.122.272-.273.272h-.312a.272.272 0 01-.272-.272v-.312c0-.15.122-.272.272-.272h.312zm1.169 0c.15 0 .272.122.272.272v.312c0 .15-.122.272-.272.272h-.312a.272.272 0 01-.273-.272v-.312c0-.15.122-.272.273-.272h.312zm1.168 0c.15 0 .272.122.272.272v.312c0 .15-.122.272-.272.272h-.312a.272.272 0 01-.273-.272v-.312c0-.15.122-.272.273-.272h.312zm3.504 0c.15 0 .273.122.273.272v.312c0 .15-.122.272-.273.272h-.311a.272.272 0 01-.273-.272v-.312c0-.15.122-.272.273-.272h.311zm-2.336 0c.15 0 .272.122.272.272v.312c0 .15-.122.272-.272.272h-.312a.273.273 0 01-.272-.272v-.312c0-.15.122-.272.272-.272h.312zm3.504 0c.15 0 .273.122.273.272v.312c0 .15-.122.272-.273.272h-.311a.273.273 0 01-.273-.272v-.312c0-.15.122-.272.273-.272h.311zm-2.336 0c.15 0 .272.122.272.272v.312c0 .15-.122.272-.272.272h-.312a.272.272 0 01-.272-.272v-.312c0-.15.122-.272.272-.272h.312zm-5.84 0c.15 0 .271.122.271.272v.312c0 .15-.121.272-.272.272h-.312a.272.272 0 01-.272-.272v-.312c0-.15.122-.272.272-.272h.312zm-1.169 0c.15 0 .272.122.272.272v.312c0 .15-.122.272-.272.272h-.312a.272.272 0 01-.272-.272v-.312c0-.15.122-.272.272-.272h.312zm2.336-1.169c.15 0 .273.122.273.273v.312c0 .15-.122.272-.273.272h-.312a.272.272 0 01-.272-.272v-.312c0-.15.122-.273.272-.273h.312zm-1.168 0c.15 0 .272.122.272.273v.312c0 .15-.121.272-.272.272h-.312a.272.272 0 01-.272-.272v-.312c0-.15.122-.273.272-.273h.312zm2.337 0c.15 0 .272.122.272.273v.312c0 .15-.122.272-.272.272h-.312a.272.272 0 01-.273-.272v-.312c0-.15.122-.273.273-.273h.312zm2.336 0c.15 0 .272.122.272.273v.312c0 .15-.122.272-.272.272h-.312a.272.272 0 01-.272-.272v-.312c0-.15.122-.273.272-.273h.312zm-1.168 0c.15 0 .272.122.272.273v.312c0 .15-.122.272-.272.272h-.312a.272.272 0 01-.273-.272v-.312c0-.15.122-.273.273-.273h.312zm2.336 0c.15 0 .272.122.272.273v.312c0 .15-.122.272-.272.272h-.312a.272.272 0 01-.272-.272v-.312c0-.15.122-.273.272-.273h.312zm1.168 0c.15 0 .273.122.273.273v.312c0 .15-.122.272-.273.272h-.311a.272.272 0 01-.273-.272v-.312c0-.15.122-.273.273-.273h.311zm-4.672-1.168c.15 0 .272.122.272.273v.311c0 .15-.122.273-.272.273h-.312a.272.272 0 01-.273-.273v-.311c0-.151.122-.273.273-.273h.312zm-1.169 0c.15 0 .273.122.273.273v.311c0 .15-.122.273-.273.273h-.311a.273.273 0 01-.273-.273v-.311c0-.151.122-.273.273-.273h.311zm2.337 0c.15 0 .272.122.272.273v.311c0 .15-.122.273-.272.273h-.312a.272.272 0 01-.273-.273v-.311c0-.151.122-.273.273-.273h.312zm2.336 0c.15 0 .272.122.272.273v.311c0 .15-.122.273-.272.273h-.312a.272.272 0 01-.272-.273v-.311c0-.151.122-.273.272-.273h.312zm-1.168 0c.15 0 .272.122.272.273v.311c0 .15-.122.273-.272.273h-.312a.273.273 0 01-.272-.273v-.311c0-.151.122-.273.272-.273h.312zm-3.505-1.168c.15 0 .273.122.273.272v.312c0 .15-.122.273-.273.273h-.311a.272.272 0 01-.273-.273v-.312c0-.15.122-.272.273-.272h.311zm1.169 0c.15 0 .272.122.272.272v.312c0 .15-.122.273-.272.273h-.312a.272.272 0 01-.273-.273v-.312c0-.15.122-.272.273-.272h.312z"/></g></g></svg>