<svg width="22px" height="22px" viewBox="0 0 22 22" version="1.1" xmlns="http://www.w3.org/2000/svg" xmlns:xlink="http://www.w3.org/1999/xlink">
    <g id="Page-1" stroke="none" stroke-width="1" fill="none" fill-rule="evenodd">
        <g id="Course-Card" transform="translate(-253.000000, -633.000000)" fill="#494949" fill-rule="nonzero">
            <g id="course-card-BK-Copy-2" transform="translate(30.000000, 612.000000)">
                <g id="Anzahl-Aufgaben" transform="translate(207.000000, 21.000000)">
                    <g id="calendar-multiple-check" transform="translate(16.000000, 0.000000)">
                        <path d="M20,16 L20,7 L6,7 L6,16 L20,16 Z M20,2 C21.1045695,2 22,2.8954305 22,4 L22,16 C22,17.1045695 21.1045695,18 20,18 L6,18 C4.89,18 4,17.1 4,16 L4,4 C4,2.8954305 4.8954305,2 6,2 L7,2 L7,0 L9,0 L9,2 L17,2 L17,0 L19,0 L19,2 L20,2 Z M16.53,10.06 L12.09,14.5 L9.41,11.82 L10.47,10.76 L12.09,12.38 L15.47,9 L16.53,10.06 Z M2,20 L16,20 L16,22 L2,22 C0.89,22 0,21.1 0,20 L0,8 L2,8 L2,20 Z" id="Shape"></path>
                    </g>
                </g>
            </g>
        </g>
    </g>
</svg>
