
<svg width="20px" height="15px" viewBox="0 0 20 15" version="1.1" xmlns="http://www.w3.org/2000/svg" xmlns:xlink="http://www.w3.org/1999/xlink">
    <g id="Icons" stroke="none" stroke-width="1" fill="none" fill-rule="evenodd">
        <g id="ic-tasks-24px" transform="translate(-2.000000, -5.000000)">
            <g>
                <path d="M3,5 L9,5 L9,11 L3,11 L3,5 L3,5 Z M5,7 L5,9 L7,9 L7,7 L5,7 L5,7 Z M12,7 L22,7 L22,9 L12,9 L12,7 L12,7 Z M12,15 L22,15 L22,17 L12,17 L12,15 L12,15 Z M5.5,20 L2,16.5 L3.41,15.09 L5.5,17.17 L10.09,12.59 L11.5,14 L5.5,20 Z" id="Shape" fill="#000000" fill-rule="nonzero"></path>
                <polygon id="Path" points="0 0 24 0 24 24 0 24"></polygon>
            </g>
        </g>
    </g>
</svg>
