<svg width="1100" height="768" viewBox="0 0 1100 768" xmlns="http://www.w3.org/2000/svg" xmlns:xlink="http://www.w3.org/1999/xlink"><defs><path d="M30.18 4.938c.308.103 0-1.219-.735-1.702-2.256-1.482-8.97-3.675-13.561-2.724-3.076.638-6.912 2.239-9.369 4.279-2.214 1.84-4.23 5.082-5.014 7.93-.823 2.992-1.134 7.154 0 9.764 1.351 3.108 6.137 6.458 6.263 6.903.145.507-1.221 2.23-2.529 4.59C3.927 36.34.363 41.459.588 42.328c.36 1.386 8.634 1.989 9.477 2.09 4.66.554 8.038 6.331 9.444 7.81 4.756 8.861 8.373 12.884 10.85 12.067.652-.215 1.927-11.893 1.275-15.234-.652-3.342-7.046-9.305-7.455-11.27-.241-1.158.357-3.609.331-3.7-.603-4.152-1.137-4.054-2.017-5.746-.88-1.692-1.561-1.791-1.35-2.284 1.033-2.408 4.355-9.775 5.109-12.184.898-2.872.474-1.929 1.4-4.79.41-1.267.932-4.684 2.528-4.148z" id="a"/></defs><g fill="none" fill-rule="evenodd"><path fill="#FFF" d="M0 0h1100v768H0z"/><path d="M383.606 197.395l-.138-.08c-3.943-2.209-10.382.79-10.378 4.126.006 4.34 1.713 15.61 3.695 27.288l.278 1.632c2.564 14.966 5.47 30.102 5.734 31.756.48 3.007 5.633 3.802 5.933.01l.063-.843.066-.99c.247-3.884.542-10.501.667-17.234l.02-1.225c.094-6.124.036-12.212-.339-16.297a504.89 504.89 0 00-1.149-11.182c4.833 8.729 12.31 21.227 22.428 37.496l5.493-2.51c-4.313-14.211-7.85-24.244-10.61-30.098-4.727-10.024-9.159-18.608-11.024-21.632-2.934-4.756-8.04-3.096-10.74-.217z" fill="#BA8B72"/><path d="M417.541 247.313c.67.617 1.132 1.145 1.384 1.582.43.744.933 1.903 1.51 3.475-.864.5-8.63 4.983-23.296 13.45-1.761-1.651-2.036-2.934-.823-3.846a148.983 148.983 0 003-2.31l7.726-10.643a1 1 0 011.419-.204l1.244.958c1.533-.134 2.677-.419 3.432-.855.45-.26.95-.726 1.499-1.4a2 2 0 012.905-.207z" fill="#350211"/><path d="M402.319 258.373c-.528.305-.054 1.124.473.82.528-.306.054-1.125-.473-.82zm1.601-1.885c-.528.305-.054 1.124.473.82.528-.306.054-1.125-.473-.82zm1.517-2.298c-.528.305-.054 1.124.473.82.528-.305.054-1.124-.473-.82zm1.488-2.28c-.528.305-.054 1.124.473.82.528-.306.054-1.125-.473-.82z" fill="#A1ADB4"/><path d="M390.33 260.842c.271.87.407 1.557.407 2.061 0 .86-.143 2.116-.43 3.766h-26.9c-.7-2.311-.296-3.56 1.21-3.743 1.506-.185 2.757-.351 3.754-.5l12.011-5.354a1 1 0 011.332.532l.599 1.452c1.394.65 2.527.976 3.399.976.52 0 1.186-.155 1.997-.463a2 2 0 012.62 1.273z" fill="#350211"/><path d="M371.617 262.809c-.61 0-.61.946 0 .946s.608-.946 0-.946zm2.33-.832c-.61 0-.61.946 0 .946.609 0 .608-.946 0-.946zm2.461-1.231c-.61 0-.608.946 0 .946.61 0 .61-.946 0-.946zm2.43-1.231c-.61 0-.61.946 0 .946s.608-.946 0-.946z" fill="#A1ADB4"/><ellipse fill="#ECEEF0" opacity=".801" cx="917.716" cy="712.629" rx="103.5" ry="9"/><ellipse fill="#ECEEF0" opacity=".607" cx="125.832" cy="441.15" rx="45" ry="5.75"/><ellipse fill="#ECEEF0" opacity=".917" cx="581.614" cy="676.61" rx="51" ry="5.5"/><ellipse fill="#ECEEF0" opacity=".787" cx="371.157" cy="704.022" rx="95.5" ry="9"/><g opacity=".5"><path d="M267.157 180.47c2.028-2.892 5.791-10.236 8.646-11.27 1.838-.665 1.302 6.22 1.325 7.533.088 5.079-.406 10.125-1.017 15.162-1.1 9.083-4.697 17.172-9.63 24.902-2.54 3.978-5.517 8.004-9.642 10.486-1.898 1.143-4.182 1.335-6.057 2.32-2.184 1.146-.995.219-1.979 2.494-1.366 3.16-1.803 7.235-2.436 10.606-2.903 15.474-9.931 97.272-8.713 113.012.108 1.395-1.837 1.729-1.934.026-.516-9.03 3.95-71.567 6.204-92.018 2.253-20.451 4.533-38.519 6.82-45.594 2.774-8.584 7.783-18.907 11.954-26.912 1.937-3.72 4.048-7.31 6.459-10.747z" fill="#A1ADB4"/><path d="M282.21 280.774c5.277-3.874 10.99 3.438 6.214 7.313-2.64 2.142-5.4 1.38-6.954-.405-1.008 1.23-1.952 2.515-2.86 3.601a178.898 178.898 0 00-7.872 10.164c-5.186 7.202-9.63 14.81-14.278 22.28-4.586 7.373-9.135 14.783-13.291 22.342-3.522 6.404-8.215 13.939-9.42 20.96 1.828-14.89 8.77-29.203 17.035-42.33 8.198-13.02 17.606-27.238 30.3-37.513-1.292-1.9-1.328-4.611 1.126-6.412z" fill="#B4BDC3"/><path d="M182.066 244.459c2.954.577 7.78 7.258 10.214 9.803 2.893 3.025 5.517 6.25 7.991 9.627 5.327 7.271 10.09 15.002 14.14 23.064 6.604 13.142 11.894 26.633 15.734 40.944 2.35 8.76 3.871 17.84 4.773 26.856.17 1.7 1.953 14.81-.615 15.164-2.31.318-1.597-9.954-1.709-11.352-1.26-15.765-5.034-31.104-10.284-45.963-1.144-3.237-2.206-7.202-4.035-10.114-1.317-2.099-.01-1.367-2.324-2.16-1.988-.683-4.252-.516-6.287-1.352-4.421-1.813-7.961-5.332-11.064-8.873-6.03-6.88-10.81-14.324-13.3-23.14-1.382-4.888-2.652-9.805-3.357-14.845-.182-1.302-1.779-8.031.123-7.66z" fill="#A1ADB4"/><path d="M193.72 133.305c11.125 19.292 20.266 40.484 26.17 61.949 3.576 13.005 6.077 26.35 8.562 39.599 3.847 20.514 7.486 41.026 8.522 61.904 1.041 21 3.1 45.22-3.775 65.446 3.434-20.535.164-42.392-.415-63.055-.277-9.863-1.078-19.63-2.13-29.437-1.02-9.512-2.688-18.98-4.241-28.417-.756-4.596-1.55-9.185-2.36-13.772-.241-1.369-.343-5.43-1.211-6.365-.874-.94-5.332-1.324-6.731-2.015-2.818-1.39-5.47-3.366-7.816-5.453-4.497-4.001-8.41-9.23-11.498-14.383-7.145-11.925-10.002-26.478-9.857-40.288.027-2.682 4.34-31.556 2.608-31.953.104-.123.203-.249.296-.38a529.227 529.227 0 013.877 6.62z" fill="#54616e"/><path d="M313.789 202.884c.171-.247 1.288-1.969.726-1.859 1.145-.224-1.576 1.899 1.278.596-1.355 1.28-.573 2.943-.555 4.665.03 2.796-.438 5.57-.965 8.306-.832 4.326-2.072 8.531-3.871 12.554-3.923 8.768-10.583 17.208-18.49 22.69-3.903 2.706-7.728 3.627-12.18 4.873-2.812.787-3.035 2.242-4.528 4.97-3.107 5.684-6.16 11.347-8.9 17.222-3.272 7.015-6.449 14.038-9.445 21.177-10.095 24.047-18.31 48.96-22.626 74.742-.105-15.193 3.41-30.841 7.843-45.323 3.23-10.552 7.434-20.723 11.918-30.79 1.087-2.44 2.733-5.577 3.195-8.27.323-1.887-.665-3.702-1.117-5.69-1.763-7.739-1.637-16.41-.089-24.192 1.707-8.58 6.645-12.562 14.997-13.778 3.054-.444 6.937-.281 9.738-1.584 3.051-1.418 4.31-6.08 6.045-9.072 4.66-8.04 10.198-15.749 16.557-22.522a53.708 53.708 0 015.663-5.21c1.266-1.011 3.942-2.258 4.806-3.505z" fill="#54616e"/><path d="M222.552 356.411h24.806a4.5 4.5 0 014.452 5.157l-1.197 8.115a15.54 15.54 0 01-15.373 13.272h-.57a15.54 15.54 0 01-15.373-13.272l-1.197-8.115a4.5 4.5 0 014.452-5.157z" fill="#B4BDC3"/></g><path d="M125.558 258.148c4.27 4.093 7.592 15.392 4.443 17.395-1.816 1.047-4.024 1.58-6.319 1.586l4.909 12.437-11.014 3.579-1.88-18.216c-2.92-1.766-5.298-4.605-6.28-8.547-2.502-10.045 11.872-12.327 16.141-8.234z" fill="#997659"/><path d="M119.454 254.163c-1.654.03-3.89.584-4.774.988a8.335 8.335 0 00-.741-4.19c-.594-1.266-1.549-2.199-2.477-3.2-.428-.46-.889-.908-1.448-1.185a3.453 3.453 0 00-1.828-.33 4.377 4.377 0 00-1.792.58c-.243.14-.438.335-.672.484-.24.153-.42.03-.663-.072-.586-.248-1.32-.226-1.923-.108-.675.133-1.317.45-1.867.864-.536.404-1.006.93-1.282 1.564a2.854 2.854 0 00-.243.9c-.01.129.004.198-.096.276-.091.072-.213.113-.309.184-.925.69-1.553 1.783-1.702 2.971-.087.694.124 1.797.546 2.973.423 1.175 2.502 3.926 3.872 4.73 1.223.718 2.756.957 4.12.835-.53 1.238-.7 2.624-.717 3.983-.018 1.477.152 2.95.506 4.391.337 1.37.788 2.788 1.527 3.995.691 1.13 1.645 1.93 2.9 2.227.574.136 1.162.187 1.746.22.576.03 1.152.056 1.724-.008 1.083-.12 2.24-.535 2.759-1.597.187-.382.378-.849.468-1.271.032-.152.05-.25-.08-.346-.157-.115-.368-.173-.544-.245a4.158 4.158 0 01-2.25-2.165c-.474-1.034-.636-2.515.257-3.324 1.102-.998 2.739-.795 4.087-.548-.072-1.878.425-3.752 1.738-5.05 1.452-1.438 3.41-2.187 4.95-3.515.402-.346.803-.722 1.016-1.23.09-.213.187-.483.172-.721-.018-.314-.283-.495-.5-.673-1.15-.946-4.826-2.417-6.48-2.387z" fill="#350211"/><path d="M135.725 328.902l-2.537 11.074 8.777 98.974h-5.76l-13.707-50.414-.215-.942-.215.942-13.707 50.414h-5.76l8.776-98.974-2.535-11.074h26.883z" fill="#997659"/><path d="M133.303 437.611c-.306.95-.46 1.693-.46 2.23 0 .866.145 2.129.433 3.79h27.075c.703-2.326.297-3.582-1.219-3.768a149.947 149.947 0 01-3.777-.502l-12.154-5.418a.939.939 0 00-1.25.5l-.629 1.526c-1.403.654-2.543.982-3.42.982-.549 0-1.258-.17-2.128-.511a1.877 1.877 0 00-2.471 1.171z" fill="#E3E7E9"/><path d="M152.088 439.746c.614 0 .613.952 0 .952-.614 0-.613-.952 0-.952zm-2.345-.838c.614 0 .613.953 0 .953s-.612-.953 0-.953zm-2.478-1.239c.614 0 .613.953 0 .953-.614 0-.613-.953 0-.953zm-2.445-1.239c.614 0 .613.953 0 .953s-.612-.953 0-.953z" fill="#A1ADB4"/><path d="M107.402 433.32c-2.254 0-4.105 1.388-4.303 3.16a5.923 5.923 0 01-.458-.24c-.396-.231-1.537.827-1.648 1.135a8621.56 8621.56 0 01-2.232 6.24h17.281a360.316 360.316 0 01-2.143-6.388c-.086-.27-1.125-1.039-1.597-.804a7.079 7.079 0 01-.582.257c-.077-1.867-1.98-3.36-4.318-3.36z" fill="#E3E7E9"/><path d="M137.866 328.902c1.444 16.437 2.661 34.065 3.651 52.885.99 18.82 1.62 35.274 1.888 49.363l-11.596-.44c-3.696-9.463-7.046-19.845-10.051-31.146-2.504 12.656-5.113 23.038-7.825 31.147l-11.597.439c.847-14.753 1.27-31.07 1.27-48.95v-53.298z" fill="#344450"/><path d="M137.866 328.902c1.444 16.437 2.661 34.065 3.651 52.885.99 18.82 1.62 35.274 1.888 49.363l-11.596-.44c-3.696-9.463-7.046-19.845-10.051-31.146-2.504 12.656-5.113 23.038-7.825 31.147l-11.597.439c.847-14.753 1.27-31.07 1.27-48.95v-53.298z" fill="#344450"/><path d="M121.728 399.51c3.817-40.652 6.036-59.905 6.66-57.757.622 2.147-.228 26.118-2.553 71.914l-2.49-8.333-1.617-5.824z" fill-opacity=".4" fill="#000"/><path d="M96.938 322.488l9.343-.616c-3.752 15.986-6.063 25.668-6.93 29.047l-.063.244c-.13.503-.222.836-.275.998-.855 2.636 1.607 6.386 2.69 8.419-2.954 1.577-2.982-3.498-6.702-1.44-.637.353-1.24.75-1.83 1.147l-.39.265c-2.398 1.627-4.609 3.104-7.87 1.394-.52-.273-1.147-1.393.11-2.39 3.13-2.486 7.594-6.764 8.144-8.108.75-1.832 2.007-11.486 3.773-28.96zm56.08-5.672l13.525 11.467c3.794 1.314 6.934 2.838 9.42 4.573.574.6 1.235 1.784-1.293 1.41l-.506-.073-.507-.068c-2.188-.286-4.245-.398-4.602.332-.411.842 1.054 1.986.264 3.107-.527.746-2.624-1.365-6.289-6.335l-13.71-6.842 3.698-7.57z" fill="#997659"/><path d="M107.29 331.188l34.417-2.407c-9.33-18.83-14.468-35.02-15.415-48.572l-10.49-.82c-7.242 13.692-8.417 30.01-8.512 51.799z" fill="#E3E7E9"/><path d="M116.263 279.356c.75-.026 1.864-.06 3.34-.098l.376-.01 3.01 6.994c.867 8.628 3.599 25.853 8.194 51.675l.15.845-22.56 1.578c.14 1.369.302 2.746.487 4.131l.192 1.388-16.775 1.173c.524-28.185 8.002-50.552 22.433-67.101l.463-.527.009.008.004-.009.677-.047zm10.49 5.4c7.91 14.425 19.852 27.3 35.83 38.624l-11.465 16.099c-3.47-3.52-6.705-7.079-9.67-10.68l.259-.018c-8.308-16.767-13.292-31.442-14.953-44.024z"/><path fill-opacity=".2" fill="#FFF" d="M112.838 326.308l10.763-5.95.361 5.172z"/><path d="M126.754 284.757c7.908 14.424 19.851 27.298 35.829 38.623l-11.465 16.099c-3.47-3.52-6.705-7.079-9.67-10.68l.259-.018c-8.308-16.767-13.292-31.442-14.953-44.024zm-18.042 31.917c1.44 11.358 3.598 19.106 6.473 23.245l-6.307.44c-.85-8.184-.905-16.08-.166-23.685z" fill-opacity=".1" fill="#000"/><g transform="translate(194.288 341.956)"><rect fill="#D4DADE" y=".501" width="544.394" height="89.917" rx="10"/><path fill="#FFF" opacity=".927" d="M35.196 60.624V25.957h181.92v34.667z"/></g><path d="M298.877 342.353a4.183 4.183 0 010-8.366h16.16v-60.641h-16.365a3.978 3.978 0 010-7.956h327.67c9.39 0 17 7.611 17 17v42.963c0 9.389-7.61 17-17 17H298.878z" fill="#B4BDC3"/><path d="M315.038 273.346h200.231c12.703 0 23 10.297 23 23v14.996c0 12.702-10.297 23-23 23H315.038v-60.996z" fill="#FFF"/><path d="M315.038 281.442c0-1.21.98-2.19 2.19-2.19H520.31a2.5 2.5 0 012.5 2.5 2.493 2.493 0 01-2.5 2.492l-203.082-.606a2.197 2.197 0 01-2.19-2.196zm0 13.5c0-1.21.98-2.19 2.19-2.19H497.43a2.5 2.5 0 012.5 2.5 2.492 2.492 0 01-2.5 2.491l-180.202-.604a2.197 2.197 0 01-2.19-2.197zm-.118 13.5c0-1.21.98-2.19 2.19-2.19h199.372a2.5 2.5 0 012.5 2.5 2.492 2.492 0 01-2.5 2.492l-199.372-.606a2.197 2.197 0 01-2.19-2.196zm0 13.5c0-1.21.98-2.19 2.19-2.19h199.372a2.5 2.5 0 012.5 2.5 2.492 2.492 0 01-2.5 2.492l-199.372-.606a2.197 2.197 0 01-2.19-2.196z" fill="#E3E7E9"/><g transform="translate(418.365 201.19)"><rect fill="#ECEEF0" width="318.496" height="64" rx="5"/><path fill="#B4BDC3" d="M84.749 0h29.668v64H84.749zM53.772 0h11.489v64H53.772z"/></g><path d="M618.571 226.546V587.72c0 7.351 5.96 13.31 13.31 13.31h258.13c7.351 0 13.31-5.959 13.31-13.31V226.546c0-7.351-5.959-13.31-13.31-13.31h-258.13c-7.35 0-13.31 5.959-13.31 13.31z" fill="#A1ADB4"/><path d="M629.431 245.13l.215 298.556c25.84 17.672 45.173 30.926 57.996 39.764l199.396-1.879c-4.51-156.74-6.478-274.316-5.904-352.73l-232.48-2.724c-10.493-.123-19.098 8.284-19.221 18.776l-.002.236z" fill="#FFF"/><path d="M629.418 543.371c20.34 14.474 38.09 25.605 58.224 40.079-2.36-10.282-5.253-23.98-8.679-41.095-1.311-6.553-7.686-10.802-14.239-9.49a12.1 12.1 0 00-1.093.272l-34.213 10.234z" fill="#ECEEF0"/><path d="M727.558 276.16h134.42c.123-3.775.234-7.565.345-11.34H727.916a3474.98 3474.98 0 01-.358 11.34zm0 18.652H832.75c.136-3.79.285-7.565.408-11.34h-105.18l-.42 11.34zm-2.12 52.246h49.41c.198-3.79.408-7.563.593-11.352h-49.41c-.185 3.789-.383 7.562-.593 11.352zm58.026 0h36.329c.198-3.79.408-7.563.593-11.352h-36.329c-.185 3.789-.383 7.562-.593 11.352zm-58.563 18.664h117.633c.222-3.789.432-7.562.655-11.352H725.556c-.223 3.79-.433 7.563-.655 11.352zm-.487 71.601h134.432l-.89 11.34H723.525zm-.074-18.69h105.194c-.272 3.775-.544 7.565-.828 11.34H723.524c.272-3.775.556-7.518.816-11.34zm-2.174 88.222h134.432c.358-3.79.716-7.563 1.062-11.352H723.24c-.358 3.837-.704 7.61-1.074 11.352zm0 18.689h61.194c.383-3.774.754-7.565 1.124-11.34H723.29c-.37 3.775-.741 7.566-1.124 11.34zm73.584 0h26.422c.382-3.774.753-7.565 1.124-11.34h-26.422c-.37 3.775-.79 7.566-1.124 11.34z" fill="#E3E7E9"/><path d="M857.688 218.82c-5.833-15.53-19.31-25.729-33.806-25.729H794.34a11.234 11.234 0 01-10.268-6.902 27.61 27.61 0 00-25.142-16.894 24.452 24.452 0 00-23.504 16.894 9.974 9.974 0 01-9.612 6.902h-29.525c-14.513 0-27.007 10.25-31.321 25.73l-1.726 6.16h196.725l-2.278-6.16z" fill="#B4BDC3"/><path d="M858.74 234.686H665.122a6.454 6.454 0 01-6.367-6.074 5.746 5.746 0 015.78-6.057h193.619a6.454 6.454 0 016.367 6.057 5.746 5.746 0 01-5.78 6.074zm-177.587 17.353c14.825-1.297 27.894 9.669 29.191 24.493 1.297 14.825-9.67 27.894-24.494 29.191-14.824 1.297-27.894-9.67-29.19-24.494-1.298-14.824 9.669-27.893 24.493-29.19z" fill="#E3E7E9"/><path d="M706.599 276.86c-1.116-12.756-12.362-22.192-25.118-21.076-12.756 1.116-22.192 12.362-21.076 25.118 1.116 12.756 12.361 22.192 25.117 21.076 12.756-1.116 22.193-12.362 21.077-25.118z" fill="#E3E7E9"/><path d="M679.318 281.87l-5.457-4.815-.095-.08a4.003 4.003 0 00-5.564.555 4 4 0 00.493 5.637l8.519 7.423.09.074a4.003 4.003 0 005.564-.554l15.286-18.078a4.002 4.002 0 00-6.195-5.065l-12.64 14.904z" fill="#617480"/><path d="M679.112 326.192c14.824-1.297 27.893 9.669 29.19 24.494 1.297 14.824-9.67 27.893-24.494 29.19-14.824 1.297-27.893-9.67-29.19-24.494-1.297-14.824 9.669-27.893 24.494-29.19z" fill="#E3E7E9"/><path d="M704.557 351.013c-1.116-12.756-12.362-22.192-25.118-21.076-12.756 1.116-22.192 12.362-21.076 25.118 1.116 12.756 12.362 22.192 25.118 21.076 12.756-1.116 22.192-12.362 21.076-25.118z" fill="#E3E7E9"/><path d="M677.277 356.025l-5.458-4.817-.095-.08a4.003 4.003 0 00-5.564.555 4 4 0 00.33 5.492l8.682 7.568.09.075a4.003 4.003 0 005.564-.555l15.287-18.078a4.002 4.002 0 00-6.196-5.065l-12.64 14.905z" fill="#617480"/><path d="M705.964 427.204c1.297 14.825-9.67 27.894-24.494 29.191-14.824 1.297-27.894-9.67-29.19-24.494-1.297-14.824 9.669-27.894 24.493-29.19 14.825-1.297 27.894 9.669 29.191 24.493zm-28.863-20.748c-12.756 1.116-22.192 12.361-21.076 25.117 1.116 12.757 12.361 22.193 25.118 21.077 12.756-1.116 22.192-12.362 21.076-25.118-1.116-12.756-12.362-22.192-25.118-21.076zm27.652 93.001c1.297 14.825-9.67 27.894-24.494 29.191-14.825 1.297-27.894-9.67-29.19-24.494-1.298-14.824 9.669-27.893 24.493-29.19 14.825-1.297 27.894 9.669 29.19 24.493zM675.89 478.71c-12.756 1.116-22.192 12.362-21.076 25.118 1.116 12.756 12.361 22.192 25.117 21.076 12.756-1.116 22.192-12.362 21.076-25.118-1.116-12.756-12.361-22.192-25.117-21.076z" fill="#E3E7E9"/><path fill="#ECEEF0" d="M822.561 450.394l-52.368-23.667-22.842-9.642 7.2 23.725 17.887 54.385"/><path fill="#54616e" d="M755.19 442.53l16.6-15.13-24.44-10.315z"/><path fill="#617480" d="M772.365 495.236l151.978 168.79 49.993-45.014-151.979-168.79z"/><ellipse fill="#ECEEF0" transform="scale(-1 1) rotate(42 0 -1631.31)" cx="804.686" cy="464.968" rx="10.652" ry="8.88"/><ellipse fill="#ECEEF0" transform="scale(-1 1) rotate(42 0 -1575.654)" cx="788.809" cy="479.263" rx="10.652" ry="8.88"/><path d="M922.48 661.918l.22.25c6.587 7.307 17.842 8.016 25.297 1.535l23.361-20.308c7.54-6.553 8.338-17.978 1.785-25.517l-50.663 44.04zM782.309 497.065c2.375-2.138 1.935-6.546-.91-10.103l-9.043 8.142c3.24 3.201 7.578 4.1 9.953 1.96zm40.876-36.805c2.375-2.139 1.935-6.546-.91-10.103l-9.042 8.142c3.24 3.2 7.578 4.099 9.952 1.96z" fill="#ECEEF0"/><path d="M783.297 484.289l-.955.326-1.016 2.19-2.295 2.067 151.333 168.095 4.636-4.174L783.297 484.29zm16.107-13.804l-4.642 4.18 151.366 168.108 4.643-4.18-151.367-168.108zm15.531-14.683l-.955.326-1.017 2.192-2.295 2.066 151.335 168.093 4.636-4.174-151.704-168.503z" fill="#ECEEF0" opacity=".285"/><path d="M935.335 489.813c-6.936-1.223-13.58 2.87-15.751 9.352l-.223.48-.228.5-.232.524-.357.824-.243.573-.245.59-.373.917-.25.63-.252.643-.253.656-.379 1.004-.377 1.026-.374 1.043-.369 1.057-.361 1.065-.237.714-.346 1.073-.225.715-.219.712-.212.71-.206.706-.198.701-.19.694-.183.687-.173.678-.164.668-.154.657-.143.644-.133.631-.12.616c-.613 3.246-.71 5.815.072 6.904l18.656 3.29.022-.099c7.05.454 13.462-4.46 14.717-11.579l2.382-13.51c1.347-7.638-3.753-14.922-11.392-16.269l-1.287-.227z" fill="#350211"/><path d="M922.496 496.261c-4.953 6.291-7.278 22.064-2.679 24.156 2.633 1.062 5.694 1.36 8.771.936l-4.238 17.598 15.439 2.722-.912-24.774c3.582-2.918 6.235-7.171 6.808-12.641 1.462-13.937-18.236-14.288-23.19-7.997z" fill="#E7CAB6"/><path d="M936.186 490.627c-7.45-1.314-10.412 1.738-12.933 4.328.591 5.4 6.268 7.187 10.866 11.3a3.593 3.593 0 111.12 6.678l-.16-.033c-2.06 7.516-3.313 16.292-1.558 18.738l18.656 3.29c2.069-8.757.418-11.971-1.452-14.97l-.352-.561-.236-.375-.233-.379c-1.666-2.731-3.1-5.913-1.784-13.374l-.108-.151-.215-.302c-.4-.564-.784-1.11-1.174-1.605l.109-.496c-2.064-7.183-5.58-11.213-10.546-12.088z" fill="#350211"/><path d="M913.267 581.571L885.67 707.282h7.129l18.051-57.59 13.905-35.193c3.845 15.913 7.214 30.068 8.666 32.508 1.654 2.78 20.351 14.589 56.092 35.428l4.91-5.253c-30.292-24.307-45.66-36.957-46.105-37.952-.668-1.492-4.848-33.72-5.134-57.659h-29.917z" fill="#E7CAB6"/><path d="M997.326 676.358c.492.249.88.491 1.161.728.757.635 1.757 1.69 2.998 3.16-.737.88-7.364 8.777-19.88 23.693-2.552-1.092-3.353-2.37-2.402-3.832.95-1.463 1.729-2.688 2.334-3.675l4.048-14.142a1.549 1.549 0 011.957-1.05l1.33.422c1.604-.747 2.728-1.505 3.372-2.272.29-.347.565-.831.823-1.454a3.097 3.097 0 014.259-1.578z" fill="#613702"/><path d="M984.273 693.856c-.45.537.383 1.235.833.699.45-.537-.383-1.235-.833-.7zm.989-2.667c-.451.538.383 1.236.833.7.45-.537-.383-1.236-.833-.7zm.735-3.078c-.45.537.384 1.236.833.7.451-.538-.383-1.236-.833-.7zm.711-3.05c-.45.538.384 1.236.834.7.45-.537-.384-1.235-.834-.7z" fill="#A1ADB4"/><path d="M896.449 706.942c.126.537.189.99.189 1.358 0 .988-.165 2.431-.495 4.329h-30.928c-.804-2.658-.34-4.092 1.392-4.304 1.731-.212 3.17-.403 4.315-.574l13.436-5.99a1.549 1.549 0 012.062.825l.532 1.29c1.603.748 2.905 1.122 3.908 1.122.452 0 1-.101 1.642-.304a3.097 3.097 0 013.947 2.248z" fill="#613702"/><path d="M874.654 708.19c-.7 0-.7 1.089 0 1.089.701 0 .7-1.088 0-1.088zm2.679-.956c-.702 0-.7 1.088 0 1.088s.7-1.088 0-1.088zm2.83-1.415c-.7 0-.7 1.088 0 1.088.702 0 .7-1.088 0-1.088zm2.793-1.415c-.701 0-.7 1.087 0 1.087.701 0 .7-1.087 0-1.087z" fill="#A1ADB4"/><path d="M928.715 652.11c6.516 9.17 18.672 23.473 36.467 42.909l22.23-26.314c-23.454-24.952-35.475-38.134-36.065-39.545-.59-1.41-1.732-17.273-3.426-47.589h-37.026l-25.117 116.101 33.89 3.678 8.907-49.437z" fill="#E98404"/><path d="M928.715 652.11c6.516 9.17 18.672 23.473 36.467 42.909l22.23-26.314c-23.454-24.952-35.475-38.134-36.065-39.545-.59-1.41-1.732-17.273-3.426-47.589h-37.026l-25.117 116.101 33.89 3.678 8.907-49.437z"/><path d="M910.895 581.571l-25.117 116.101 33.89 3.678 8.907-49.437c-1.985-2.807-3.434-5.125-4.346-6.954-3.887-7.8-7.38-28.929-10.482-63.388h-2.852z" fill-opacity=".2" fill="#000"/><path d="M905.16 691.62a5.346 5.346 0 100 10.693 5.346 5.346 0 000-10.693zm16.975-11.207a6.443 6.443 0 100 12.886 6.443 6.443 0 000-12.886zm-31.343 0a5.346 5.346 0 100 10.693 5.346 5.346 0 000-10.693zm70.118-5.38a6.854 6.854 0 100 13.708 6.854 6.854 0 000-13.708zm-55.75-10.265a6.443 6.443 0 100 12.887 6.443 6.443 0 000-12.887zm18.072-3.96a5.346 5.346 0 100 10.694 5.346 5.346 0 000-10.693zm56.128-2.418a6.41 6.41 0 100 12.821 6.41 6.41 0 000-12.82zm-16.257-.049a4.661 4.661 0 100 9.322 4.661 4.661 0 000-9.322zm-15.925-8.225a5.346 5.346 0 100 10.693 5.346 5.346 0 000-10.693zm-49.692-5.62a6.443 6.443 0 100 12.886 6.443 6.443 0 000-12.887zm63.013-8.637a6.443 6.443 0 100 12.886 6.443 6.443 0 000-12.886zm-44.918-1.405a5.21 5.21 0 100 10.419 5.21 5.21 0 000-10.419zm21.798-2.845a6.443 6.443 0 100 12.886 6.443 6.443 0 000-12.886zm-12.201-18.233a6.854 6.854 0 100 13.709 6.854 6.854 0 000-13.709zm23.097-2.468a6.443 6.443 0 100 12.887 6.443 6.443 0 000-12.887zm-42.701-5.62a6.443 6.443 0 100 12.886 6.443 6.443 0 000-12.886zm33.724-10.693a5.346 5.346 0 100 10.693 5.346 5.346 0 000-10.693zm-17.41-8.363a6.306 6.306 0 100 12.613 6.306 6.306 0 000-12.613zm25.224-4.66a4.661 4.661 0 100 9.321 4.661 4.661 0 000-9.322z"/><path d="M913.237 547.959l-15.122-13.478c-2.089-4.083-4.312-7.392-6.67-9.929-.77-.553-2.214-1.114-1.39 1.687.824 2.8 1.565 5.783.677 6.382-.887.6-2.415-.877-3.556.196-.761.715 1.96 2.75 8.165 6.106l4.58 5.801 13.316 3.235zm-30.385 10.788l-8.609-2.272c-2.07-3.777-3.848-5.495-5.332-5.152-1.266-.245 1.984 4.37-.278 4.464-2.262.094-8.488-2.503-9.196-1.484-1.046 1.507 1.046 4.812 2.9 6.253 3.464 2.695 5.926 3.297 11.68 3.456 3.008.083 6.44.897 10.298 2.441l-1.463-7.706z" fill="#E7CAB6"/><path d="M923.36 524.099l14.166.99.05.01c.168.052.41.305.706.733l.185.277.197.317.209.357.22.394.23.43.238.466.247.5.255.532.262.562.404.9.275.635.278.66.282.687.427 1.073.286.742.286.763.428 1.18.283.808.28.824.277.838.273.851.267.863.261.873.255.882.124.444.243.893.234.899.224.903.214.906.203.907.096.454.184.908c.06.302.116.604.17.906l.157.903.141.898c.423 2.837.608 5.587.437 8.06-.255 3.677.566 7.016 1.624 10.406l.323 1.019.895 2.75.316.997.308 1.01.2.681.191.689.184.696.175.704.164.713.152.722c1.02 5.09 1.073 10.917-1.814 18.393-1.341-.363-3.095-.513-5.123-.54l-.885-.003-.917.01-.946.022-.972.033-.995.042-1.534.077-5.906.343-2.26.118-1.216.053-1.211.044-.805.022-1.198.023a92.49 92.49 0 01-.397.004l-.79.004-.782-.005-.774-.012a62.334 62.334 0 01-.766-.022l-.756-.03c-.25-.013-.5-.026-.746-.042l-.734-.051c-5.579-.44-10.048-1.873-11.467-5.535-1.941-5.008-2.249-10.361-1.557-15.914-9.383-.861-20.573-4.758-33.395-12.64-.018-1.113.202-2.452.659-4.02l.195-.638a37.47 37.47 0 011.191-3.176l.335-.773.176-.395.373-.81.397-.833.208-.425.436-.87.46-.894c.158-.302.32-.608.487-.918l.51-.943.537-.966.562-.991.685.297 1.352.579 1.329.558.655.27 1.294.526c.641.257 1.274.506 1.898.747l1.236.472 1.212.45 1.19.43.586.206 1.155.396c.38.129.758.254 1.131.375l1.109.354 1.085.332c7.157 2.144 12.767 2.857 16.83 2.14l.399-1.062c-6.358-1.48-12.874-6.145-17.672-11.496l-.34-.383 4.01-7.493c6.351 4.684 12.56 6.913 17.887 7.943l.441.082.27-.729c2.204-5.977 4.124-11.865 5.058-17.507l.133-.844zM119.98 279.248l3.01 6.994.123 1.174.145 1.272.257 2.09.36 2.716.36 2.566.407 2.785.376 2.488.582 3.74.55 3.443.702 4.295.998 5.96 1.234 7.201 1.802 10.273.448 2.517-22.561 1.578c.14 1.369.302 2.746.487 4.131l.192 1.388-16.775 1.173c.524-28.185 8.002-50.552 22.433-67.101l.463-.527.009.008.004-.009.677-.047 3.716-.108zm6.774 5.509c7.908 14.424 19.851 27.298 35.829 38.623l-11.465 16.099c-3.47-3.52-6.705-7.079-9.67-10.68l.259-.018c-8.308-16.767-13.292-31.442-14.953-44.024zm326.463-97.262l-.016.5-.042.983a57.04 57.04 0 01-.411 4.639l-.124.871c-1.85 12.212-7.946 18.727-20.1 18.727l-.622-.005-.675-.013-.726-.02-.773-.03-1.678-.08-.9-.05-1.417-.087-2.524-.172-2.14-.16-3.36-.27-4.062-.346-5.196-.465-5.724-.526 12.86 30.46-12.17 4.418-.059-.147-.128-.29-.245-.511-.324-.645-.398-.771-.999-1.888-8.401-15.505-1.8-3.354-.601-1.129-1.163-2.196-.573-1.09.146 2.938.202 3.641.284 4.7.386 5.97.612 8.941.381 5.367-12.947-.01-.005-.16-.015-.203-.056-.529-.09-.685-.158-1.062-.342-2.13-1.861-11.07-.52-3.184-.372-2.336-.397-2.567-.173-1.151-.254-1.728-.164-1.148-.278-2.007-.26-1.98-.161-1.3-.152-1.28-.141-1.255-.13-1.229-.06-.603-.108-1.182-.095-1.146c-.147-1.88-.23-3.597-.23-5.083 0-3.49 2.302-8.315 6.022-9.503.333-.107.685-.213 1.056-.32l.765-.215.812-.215.856-.216.897-.216.936-.217.974-.216 1.007-.216 1.039-.215 1.612-.322 1.108-.213 1.13-.212 1.152-.211 1.76-.313 2.395-.41 1.823-.302 2.45-.394 1.84-.287 3.22-.486 3.515-.511 3.37-.472 4.44-.597 4.51-.575 2.367-.287 2.07-.236h28.323z" fill="#9e292b"/><path d="M938.29 552.034c-10.558 17.098-19.907 25.07-28.048 23.913-12.212-1.735 17.127 19.75 23.472-.338 4.23-13.392 5.755-21.25 4.577-23.575zm-38.72-16.88l-4.01 7.493c4.827 5.51 11.503 10.364 18.012 11.879 1.427-3.789 2.927-7.584 4.327-11.346-5.425-.99-11.801-3.212-18.33-8.026z" fill-opacity=".2" fill="#000"/><path d="M591.281 397.58c5.195 7.31 7.213 25.191 2.13 27.343-2.906 1.08-6.252 1.279-9.593.663l4.044 20.022-16.922 2.378 1.805-27.88c-3.81-3.449-6.563-8.36-7.009-14.55-1.137-15.773 20.351-15.288 25.545-7.977z" fill="#915B3C"/><path d="M577.346 391.248c9.074-1.275 13.06 2.116 13.718 5.518-3.733 1.653-10.467 3.034-20.243 4.333l.103.73 8.564-.459 2.026 4.183c-2.269.142-3.648 1.96-4.627 4.274a3.34 3.34 0 00-2.014-.363c-1.947.274-3.273 2.293-3.013 4.146.271 1.927 1.36 3.294 2.703 3.75-.479 1.45-1.014 2.53-1.779 2.82-3.092.11-8.198-7.17-9.103-13.61-.99-7.049 3.57-13.903 13.665-15.322z" fill="#350211"/><path d="M552.46 504.844l-.695 165.828 8.818 1.32 16.636-128.995c1.533 16.507 3.339 35.266 5.101 53.95l.288 3.055.143 1.526.286 3.047c2.187 23.343 4.238 46.069 5.532 63.594h9.853c0-37.51 2.937-116.351 4.64-163.325H552.46z" fill="#865362"/><path d="M552.46 504.844l-.695 165.828 8.818 1.32 16.636-128.995c1.533 16.507 3.339 35.266 5.101 53.95l.288 3.055.143 1.526.286 3.047c2.187 23.343 4.238 46.069 5.532 63.594h9.853c0-37.51 2.937-116.351 4.64-163.325H552.46z" fill-opacity=".4" fill="#000"/><path d="M545.836 676.027h19.328a11.525 11.525 0 00-.689-8.017l-3.316-7.004h-10.724l-3.636 7.102a11.566 11.566 0 00-.963 7.919zm38.968.022l.666-15.043h13.986c6.632 5.014 15.29 9.073 25.975 12.178v2.865h-25.309l-8.658-1.433v1.433h-6.66z" fill="#350211"/><path d="M539.811 493.915l12.947 3.639c-14.925 24.465-22.918 37.426-23.979 38.882-2.388 3.276-.803 9.71-.284 13.076-2.115.35-2.821-.874-3.49-2.24l-.16-.33c-.777-1.6-1.651-3.236-4.759-2.673-1.278.231-2.52.584-3.731.923l-.518.144-.514.14c-3.587.962-6.928 1.457-10.215-2.143-.578-.632-.905-2.502 1.263-3.292 5.402-1.969 13.445-5.805 14.816-7.42 1.87-2.204 8.078-15.106 18.624-38.706zm109.072-27.754c5.978-9.383 9.47-13.418 10.475-12.103 1.508 1.972-.967 4.187-.156 5.686.684 1.266 4.14.932 7.865.253l.59-.11c.493-.094.988-.192 1.48-.293 4.427-.904 3.376 1.31 2.423 2.458-4.217 3.381-9.61 6.438-16.18 9.168l-22.744 22.1-5.53-11.363z" fill="#915B3C"/><path d="M568.557 455.28l-.193 1.383c-1.902 13.553-4.272 27.45-5.928 49.636l-.01.001-.009.144-.025.416-.018.288-.045.613a346.726 346.726 0 01-.88 11.01l-.08.81c-.027.27-.054.54-.083.81l-.092.87-.037.341-.075.679c-.664 5.858-1.545 11.128-2.578 11.325l-.06.006h-9.98c-2.845-.406-2.144-4.205-1.759-6.16a1008.61 1008.61 0 013.12-15.256c-5.144 8.006-10.824 15.863-17.105 23.115l-.997 1.14-11.33-7.342c12.752-18.479 21.064-54.89 27.599-69.537 6.471-14.506 14.357-21.954 22.626-22.692-.523 6.563-1.244 12.474-2.061 18.4zm27.725-17.57c3.867 1.196 8.397 5.585 12.302 12.08 1.598 2.657 3.346 6.24 5.098 9.984l.39.834.583 1.257.388.84.387.837.385.835.356.77.354.763c3 6.464 5.766 12.14 7.513 12.914 1.426.631 6.124-1.975 10.985-5.107l.609-.394.608-.398.672-.445c5.704-3.788 11.08-7.815 11.08-7.675l8.188 7.78c-6.412 12.895-28.917 31.65-39.225 25.182-5.533-3.473-10.006-7.21-13.702-11.159 5.552 15.051 10.087 25.62 13.523 39.855.55 2.28.879 6.945-1.622 7.142l-.167.007h-14.295c-.91 0-2.57-6.001-4.077-12.378l-.2-.851c-.1-.427-.198-.854-.296-1.28l-.193-.85-.152-.676c-.99-4.413-1.82-8.484-2.184-10.292l-.028-.138c-.326-1.79-1.432-8.556-4.741-33.068-1.694-12.547-1.32-26.482-1.055-37.74 2.695-.008 5.534.45 8.516 1.372z" fill="#344450"/><path d="M549.784 512.295c-2.13 3.248-3.733 5.637-4.81 7.167-1.326 1.887-3.329 4.624-6.006 8.21l3.905-23.133c3.076-10.21 9.398-28.513 18.744-44.664-3.268 20.552-7.213 38.026-11.833 52.42z" fill-opacity=".1" fill="#000"/><path d="M562.33 507.761h31.354s-.621-2.257-4.863-33.682c-2.21-16.367-.902-35.098-.902-47.167l-16.695.021c-1.216 28.563-6.13 42.424-8.895 80.828z" fill="#FFF"/><path d="M607.22 497.442c.728 1.93 1.435 3.808 2.122 5.658a188.863 188.863 0 00-9.104 30.281c-.686-.878-1.62-3.863-2.588-7.543a193.512 193.512 0 019.57-28.396zm-80.439 20.179c4.188 3.722 9.46 6.011 14.856 6.402a207.366 207.366 0 01-3.185 4.218c-5.04-.743-9.886-2.864-13.93-6.111a108.253 108.253 0 002.259-4.51zm34.992-3.474a300.022 300.022 0 01-.625 6.714 30.443 30.443 0 01-3.92 3.162 25.924 25.924 0 01-10.765 4.218c.049-.276.097-.532.145-.758.26-1.297.508-2.56.755-3.779 3.556-.666 7.01-2.233 10.085-4.85a25.545 25.545 0 004.325-4.707zm-.062-73.752a50.093 50.093 0 016.034 19.958c-1.228 8.502-2.595 17.421-3.823 28.652-.392-.85-.831-1.68-1.319-2.496-4.304 8.231-11.403 15.216-20.774 16.201-2.849.298-5.766-.148-8.41-1.22a253.32 253.32 0 001.587-4.423c5.76 2.708 12.995.659 17.787-3.794 3.076-2.857 5.417-6.494 7.126-10.45a27.68 27.68 0 00-1.304-1.419c-4.263-4.269-10.12-7.048-16.078-7.105.508-1.53.996-3.005 1.482-4.423 6.577.226 12.893 3.162 17.726 7.799a47.374 47.374 0 001.552-8.033c.968-9.21-.975-18.293-5.197-26.105a27.317 27.317 0 013.611-3.142zm48.461 12.436c1.003 1.908 2.04 4.049 3.09 6.268a47.089 47.089 0 01-3.268 8.536c2.69 3.156 4.826 6.736 6.817 10.43a188.46 188.46 0 013.007-5.104c.824 1.595 1.6 2.963 2.3 3.984a166.582 166.582 0 00-3.062 5.388c1.469 2.83 2.952 5.651 4.627 8.324 1.428 2.29 3.192 4.85 5.32 6.856-1.833.738-3.618 1.247-5.293 1.468-3.027-3.382-5.279-7.36-7.393-11.45a181.562 181.562 0 00-3.577 7.494 73.453 73.453 0 01-3.323-2.546c1.456-3.17 3-6.304 4.634-9.387-1.936-3.786-3.94-7.523-6.515-10.82-.034-.05-.075-.092-.11-.134-3.885 5.913-10.222 12.188-17.183 13.088-.193-1.404-.398-2.893-.618-4.474.165 0 .33 0 .501-.015 5.794-.34 10.408-5.544 13.504-10.13a36.2 36.2 0 001.016-1.589c-3.138-3.083-6.92-5.388-11.348-5.913-1.909-.227-3.817-.057-5.54.51a192.627 192.627 0 01-.193-4.445c6.042-1.71 13.106.248 18.049 4.19.474.376.92.773 1.36 1.17a41.425 41.425 0 003.198-11.699zm28.731 18.278c-.494 5.353 1.222 10.77 4.586 15.173.26.348.535.681.817 1.007a66.294 66.294 0 01-3.707 3.17 28.379 28.379 0 01-1.95-2.645c-2.698-4.141-4.201-8.906-4.27-13.713a165.14 165.14 0 004.524-2.992z" fill="#FFF" fill-opacity=".4"/><path d="M466.887 493.582l45.153 15.548a5.423 5.423 0 013.362 6.893c-12.672 28.556-21.433 49.854-26.284 63.894-3.75 10.855-7.892 26.9-12.423 48.136a5.423 5.423 0 01-6.892 3.362l-76.446-26.323a5.423 5.423 0 01-3.362-6.892c4.243-18.342 7.952-32.102 11.127-41.28 3.031-8.763 8.632-21.914 16.803-39.453l48.962-23.885z" fill="#E3E7E9"/><path d="M418.625 540.781l56.628 18.4c.98-2.84 1.96-5.694 2.935-8.536l-55.9-17.867c-.974 2.842-2.682 5.163-3.663 8.003zm-4.885 13.993l44.315 14.4c.99-2.85 1.98-5.688 2.96-8.528l-44.31-14.397-2.965 8.525zm-12.27 34.688l65.593 21.39c0-.466.067-1.087.19-1.831l.102-.582.122-.624.068-.328.15-.684.166-.721.183-.754.3-1.188.33-1.246.356-1.296.507-1.787.537-1.834.558-1.857.713-2.32.715-2.275.835-2.608 1.259-3.847 1.407-4.194.08-.233-63.905-20.163-.112.305-.157.399-.617 1.476-1.468 3.48-.669 1.62-.702 1.74-.43 1.09-.29.745-.577 1.522-.429 1.164-.281.784-.387 1.107-.377 1.111-.484 1.474-.574 1.81-.43 1.4-.593 1.982-1.472 5.081-.155.507-.061.185z" fill="#FFF" opacity=".927"/><path d="M466.887 493.582L456.11 524.88a5.423 5.423 0 01-6.753 3.408l-.14-.046-31.292-10.775 48.962-23.885z" fill="#B4BDC3"/><path d="M370.175 586.424l39.242 112.537-5.787-.303-24.222-51.883-20.24-38.107c-6.8 15.615-14.455 30.684-16.47 33.342-2.015 2.658-20.528 5.575-55.54 8.75l-.984-5.15c29.63-7.79 44.663-11.949 45.103-12.479.487-.588 4.956-15.232 9.062-31.237l.332-1.3.166-.652.328-1.307a426.724 426.724 0 003.18-13.564l25.83 1.353z" fill="#E7CAB6"/><path d="M399.766 697.24c-.327.874-.504 1.568-.53 2.081-.046.867.033 2.14.235 3.817l27.202 1.426c.829-2.292.486-3.57-1.027-3.836s-2.77-.5-3.769-.702l-11.876-6.04a1 1 0 00-1.356.462l-.688 1.443c-1.444.581-2.607.85-3.488.803-.532-.028-1.205-.222-2.02-.583a2 2 0 00-2.683 1.128z" fill="#E3E7E9"/><path d="M418.575 700.24c.616.031.565.985-.05.953-.617-.033-.566-.986.05-.954zm-2.312-.963c.617.033.566.986-.05.954-.616-.032-.565-.986.05-.954zm-2.424-1.37c.616.032.565.985-.05.953-.617-.032-.566-.986.05-.954zm-2.392-1.37c.617.033.566.986-.05.954-.616-.032-.565-.986.05-.954z" fill="#A1ADB4"/><path d="M372.261 586.534c7.294 16.696 14.03 33.976 20.209 51.84 5.986 17.307 11.009 33.186 15.068 47.637l.39 1.394-11.336 2.78c-10.728-14.447-20.724-30.345-29.988-47.696a429.934 429.934 0 01-8.614-17.054c-4.328 11.932-8.173 19.332-11.535 22.2-6.151 5.248-22.162 6.055-48.034 2.421l-1.773-8.305c21.154-6.331 32.045-10.1 32.67-11.307.626-1.207 4.086-16.413 10.38-45.617l32.563 1.707z" fill="#54616e"/><path d="M372.261 586.534c7.294 16.696 14.03 33.976 20.209 51.84 5.986 17.307 11.009 33.186 15.068 47.637l.39 1.394-11.336 2.78c-10.728-14.447-20.724-30.345-29.988-47.696a429.934 429.934 0 01-8.614-17.054c-4.328 11.932-8.173 19.332-11.535 22.2-6.151 5.248-22.162 6.055-48.034 2.421l-1.773-8.305c21.154-6.331 32.045-10.1 32.67-11.307.626-1.207 4.086-16.413 10.38-45.617l32.563 1.707z"/><path d="M372.261 586.534c7.294 16.696 14.03 33.976 20.209 51.84 6.18 17.865 11.332 34.209 15.458 49.03l-11.336 2.78c-10.728-14.446-20.724-30.344-29.988-47.695a429.936 429.936 0 01-8.614-17.055c3.59-9.895 7.51-22.905 11.763-39.032z" fill-opacity=".2" fill="#000"/><path d="M286.565 643.27c-.917-.17-1.632-.224-2.142-.16-.861.105-2.1.403-3.718.894l3.32 27.036c2.4.418 3.6-.14 3.599-1.677-.001-1.536.01-2.814.037-3.834l3.885-12.745a1 1 0 00-.69-1.255l-1.54-.426c-.824-1.322-1.29-2.42-1.397-3.296-.065-.528.01-1.225.224-2.09a2 2 0 00-1.578-2.447z" fill="#E3E7E9"/><path d="M286.877 662.314c.076.613-.872.728-.947.116-.076-.612.872-.728.947-.116zm.546-2.444c.075.614-.873.729-.948.117-.075-.613.873-.728.948-.117zm.93-2.625c.074.612-.874.728-.949.116-.075-.613.873-.728.948-.116zm.932-2.593c.075.613-.872.728-.948.116-.075-.613.873-.728.948-.116z" fill="#A1ADB4"/><path d="M364.777 604.413l38.097 84.224-2.874.717-36.463-80.806 1.24-4.135zm-6.814-18.629c-5.932 32.49-11.044 49.85-16.057 53.191-4.683 3.121-18.765 6.075-42.635 9.04l-1.258.167-.597-2.84 2.18-.278c22.906-2.87 36.598-5.756 40.699-8.49 3.913-2.607 8.95-19.414 14.525-49.529l.238-1.413 2.905.152z" fill="#FFF" fill-opacity=".2"/><path d="M383.244 552.812l16.783-5.705c1.4-2.66 3.453-4.848 6.16-6.56 1.496-.865 1.963-.74 1.4.376-.844 1.672-1.917 4.147-1.059 4.756.858.61 2.81-2.779 3.908-1.697.733.722-1.656 4.375-7.764 7.567l-12.512 6.283-6.916-5.02zm21.477 13.348l8.133-3.137c1.632-3.929 3.186-5.803 4.661-5.622 1.206-.374-1.488 4.503.719 4.357 2.207-.145 7.993-3.35 8.782-2.424 1.167 1.371-.533 4.839-2.188 6.45-3.094 3.01-5.425 3.861-10.997 4.621-2.913.397-6.166 1.557-9.758 3.48l.648-7.726z" fill="#E7CAB6"/><path d="M373.997 531.832c-.459 7.282.64 15.33 1.897 23.497l.23 1.485.103.661a547.136 547.136 0 01-.922-6.08c5.381.148 11.923-.7 19.141-4.025l2.295 8.063c-5.737 4.344-13.103 7.677-19.627 7.815l-.035-.232.198 1.34c6.158 2.51 17.135 2.114 32.928-1.19 2.631 8.335 3.572 14.146 2.823 17.432-13.855 5.009-25.336 6.496-34.47 5.417-.476 5.51-1.865 10.624-4.743 15.07-5.916 9.14-31.237-3.653-40.43-3.127-1.788-11.4 1.673-18.134 5.13-24.189l.363-.635.362-.63.36-.629c1.966-3.448 3.745-6.81 4.317-10.86 1.805-12.773 14.586-30.956 16.303-31.113h.048l13.729 1.93z" fill="#E98404"/><path d="M373.997 531.832c-.459 7.282.64 15.33 1.897 23.497l.23 1.485.103.661a547.136 547.136 0 01-.922-6.08c5.381.148 11.923-.7 19.141-4.025l2.295 8.063c-5.737 4.344-13.103 7.677-19.627 7.815l-.035-.232.198 1.34c6.158 2.51 17.135 2.114 32.928-1.19 2.631 8.335 3.572 14.146 2.823 17.432-13.855 5.009-25.336 6.496-34.47 5.417-.476 5.51-1.865 10.624-4.743 15.07-5.916 9.14-31.237-3.653-40.43-3.127-1.788-11.4 1.673-18.134 5.13-24.189l.363-.635.362-.63.36-.629c1.966-3.448 3.745-6.81 4.317-10.86 1.805-12.773 14.586-30.956 16.303-31.113h.048l13.729 1.93z" fill-opacity=".1" fill="#FFF"/><path d="M354.024 555.801c6.581 18.685 13.876 28.298 21.885 28.839 12.014.811-20.394 15.607-22.34-5.11-1.298-13.812-1.146-21.721.455-23.729zm40.422-8.43l2.295 8.062c-5.737 4.344-13.103 7.677-19.627 7.815-.588-3.954-1.243-7.93-1.81-11.853 5.382.148 11.924-.7 19.142-4.025z" fill-opacity=".2" fill="#000"/><g transform="rotate(2 -14153.965 10317.648)"><path d="M32.009 7.058c3.333 6.206 2.937 20.223-1.371 21.332-2.446.518-5.147.309-7.75-.529l.984 15.89H10.065l4.58-21.32c-2.66-3.074-4.31-7.162-3.972-11.988.864-12.295 18.002-9.59 21.336-3.385z" fill="#E7CAB6"/><mask id="b" fill="#fff"><use xlink:href="#a"/></mask><use fill="#350211" xlink:href="#a"/><path d="M7.98 27.596c5.526 1.728 4.91 5.298 11.872 8.913l-.582.352c-6.096-2.513-7.52-7.901-11.696-8.774l.405-.491zm4.51-18.723c.853 6.468 1.103 10.163 5.553 17.239l-.474.144c-4.58-6.16-5.305-11.189-5.522-17.348l.442-.035zM4.761 13.51c1.881 4.557 2.738 7.249 7.99 10.936l-.405.284c-5.214-2.95-6.732-6.47-7.98-11.03l.395-.19zm13.54-8.252c-1.01 3.197-1.227 4.904-1.01 9.274h-.495c-.925-4.124-.102-8.005.882-9.274h.622z" fill-opacity=".2" fill="#000" mask="url(#b)"/></g><path d="M416.835 122.8c-2.115 5.45-.37 16.96 3.287 17.438 2.065.18 4.266-.265 6.323-1.219l.798 13.193 11.361-1.395-5.925-17.104c1.878-2.802 2.823-6.338 2.055-10.28-1.954-10.043-15.783-6.083-17.899-.633z" fill="#BA8B72"/><path d="M433.608 135.24c.647-6.52 4.178-11.342 3.21-14.102-.646-1.84-1.893-2.88-3.74-3.12-1.387-3.634-4.57-4.861-9.551-3.682-7.47 1.77-11.707 5.483-8.861 12.158 1.835-.225 3.969-1.16 7.172-.4 1.016.242 1.848 1.275 2.497 3.1l1.385-.17c1.07-2.391 2.294-3.373 3.672-2.943 1.379.43 1.851 1.828 1.419 4.193l1.324 5.147 1.473-.181z" fill="#350211"/><path d="M424.893 187.495c-2.941.315-12.373 1.475-22.319 2.985l-1.172.18c-9.194 1.416-18.624 3.115-23.612 4.709-3.72 1.188-6.021 6.012-6.021 9.503 0 4.308.695 10.568 1.614 17.065l.164 1.148.084.576.17 1.152.173 1.151.176 1.15c1.682 10.899 3.638 21.185 3.64 22.776l12.947.01c-1.217-16.944-1.93-28.504-2.138-34.68.031.922.073 1.963.127 3.123.569 1.086 1.15 2.184 1.736 3.286l.601 1.129.151.282.755 1.41.447.833.447.83.223.413.444.824c4.879 9.033 9.378 17.127 9.887 18.519l12.17-4.419-12.859-30.458-.797-.074c2.76.255 5.756.532 8.78.803l1.174.105.588.052 1.174.104c7.623.666 15.01 1.233 18.877 1.233 14.298 0 20.213-9.017 20.693-25.72h-28.324z" fill-opacity=".4" fill="#000"/><path d="M390.556 209.94c-1.075-.067-1.727-.082-1.835-.026-.25.129-.248 2.939.005 8.43.569 1.085 1.15 2.183 1.736 3.285l.601 1.129.302.564.604 1.128c5.44 10.14 10.885 19.88 11.448 21.419l12.17-4.419-12.859-30.458c-4.9-.452-9.146-.843-11.646-1.016z" fill-opacity=".2" fill="#000"/><path d="M449.393 187.495l.017.337c.08 1.737.038 4.31-.556 7.037-1.403 6.377-5.056 10.536-10.86 12.358-4.342 1.365-12.814.809-21.533.049l-6.69-.596c-10.844-.95-20.604-1.553-23.903 1.233-.749.635-1.164 1.422-1.235 2.347-.337 4.283.287 12.027 1.14 19.671l.145 1.273c.9 7.834 2 15.354 2.506 18.695h1.45l-.316-2.135c-1.246-8.507-4.124-29.43-3.5-37.394.039-.534.282-.978.735-1.364 2.819-2.382 12.362-1.812 22.373-.946l7.217.642c8.846.772 17.458 1.33 22.04-.106 12.01-3.773 12.644-16.13 12.39-21.1h-1.42zm-8.142 0c.363 2.48.482 6.282-1.268 9.401-1.388 2.47-3.75 4.14-7.011 4.955-4.471 1.118-12.064 1.151-19.955 1.017l-1.248-.022-5.129-.103c-15.386-.287-24.757-.05-25.728 3.883-2.136 8.628 3.086 37.211 4.24 43.268h1.456l-.318-1.7c-1.492-8.114-5.894-33.528-3.99-41.225.61-2.463 8.715-2.913 17.517-2.886l.79.004.792.006.794.008.795.01c1.06.014 2.117.033 3.161.053l6.077.12c8.259.15 16.31.152 21.093-1.045 3.664-.915 6.325-2.818 7.913-5.651 1.913-3.41 1.846-7.412 1.483-10.093h-1.464zm-7.445 0c.22 1.546.2 3.334-.52 4.908-.815 1.77-2.428 3.01-4.793 3.682-3.113.888-9.146 1.16-15.857 1.36l-6.464.184c-12.639.375-24.906 1.023-27.968 4.986-4.44 5.752 2.08 39.381 3.686 47.28h1.455l-.238-1.169a366.69 366.69 0 01-3.317-19.13l-.16-1.12c-1.571-11.215-2.404-22.254-.292-24.989 2.302-2.98 12.245-3.866 22.311-4.27l.944-.037a413.4 413.4 0 011.884-.066l.938-.03 6.988-.2c6.916-.206 13.17-.482 16.48-1.42 2.791-.797 4.708-2.3 5.705-4.47.83-1.802.888-3.786.668-5.499h-1.45zm-7.703 0c.096.663.062 1.374-.228 2.037-.677 1.558-2.62 2.586-5.774 3.06l-.217.03c-2.076.288-4.894.495-8.164.704l-5.748.359c-.736.047-1.478.095-2.222.146l-.895.062c-.299.02-.597.042-.897.064l-.897.066-1.347.105c-12.117.976-23.948 2.815-25.774 8.291-2.5 7.502 2.97 38.618 4.612 47.47h1.45l-.378-2.076c-1.897-10.562-6.543-38.283-4.325-44.94 1.519-4.554 12.966-6.33 23.947-7.263l.865-.072c2.161-.176 4.294-.32 6.317-.45l5.763-.36c3.016-.193 5.637-.389 7.65-.656l.238-.033c3.816-.53 6.21-1.855 7.112-3.944.376-.873.448-1.77.353-2.6h-1.44zm-37.327 22.894l-.014.158c-.041.507-.053 1.31-.036 2.408l.007.382 16.989 31.736 1.36-.491-18.306-34.193zm4.159-.31l16.354 33.701 1.35-.486-16.05-33.076-1.654-.139zm4.984.434l14.766 32.037 1.35-.491-14.47-31.398-1.646-.148z" fill="#FFF" fill-opacity=".4"/><path d="M460.927 169.604l-9.745 1.061c13.218 22.933 20.116 34.942 20.693 36.029 1.299 2.444-.473 6.562-1.185 8.75 1.413.461 2.03-.27 2.631-1.102l.18-.252c.698-.97 1.48-1.93 3.533-1.226.688.237 1.35.522 1.999.811l.43.193c2.641 1.185 5.073 2.255 7.984.006.465-.358.888-1.57-.522-2.333-3.512-1.901-8.645-5.336-9.42-6.563-1.054-1.673-6.58-13.465-16.578-35.374zm-83.579.172l.428.289c1.995 1.357 3.886 2.813 3.645 3.665-.26.914-2.125.78-2.287 2.16-.108.92 2.88.753 8.964-.5l14.857 4.156 2.326-8.207-17.83-.55c-3.721-1.586-7.095-2.57-10.121-2.952-.834.063-2.124.504.018 1.939z" fill="#BA8B72"/><path d="M434.513 138.87l-.005.007-11.287 3.864c.053.512.103 1.02.147 1.522l-.001-.014c-.59 16.416-9.833 27.542-32.482 26.35l-.744 22.221c11.534.275 21.988-2.573 29.467-8.843a134.557 134.557 0 00-.928 6.267l-.084.711 31.234-3.282a254.11 254.11 0 012.25 13.725l.238 1.767 23.387-2.458c-8.172-27.336-21.446-47.825-39.82-61.465l-.615-.452-.757.08z" fill="#BB8897"/><path d="M434.513 138.87l-.005.007-11.287 3.864c.053.512.103 1.02.147 1.522l-.001-.014c-.59 16.416-9.833 27.542-32.482 26.35l-.744 22.221c11.534.275 21.988-2.573 29.467-8.843a134.557 134.557 0 00-.928 6.267l-.084.711 31.234-3.282a254.11 254.11 0 012.25 13.725l.238 1.767 23.387-2.458c-8.172-27.336-21.446-47.825-39.82-61.465l-.615-.452-.757.08z" fill-opacity=".2" fill="#FFF"/><path d="M441.92 159.813c2.063 12.054 2.605 21.422 1.626 28.104l-.064.423 6.348-.668c-1.91-9.85-4.42-19.086-7.838-27.677l-.073-.182zm-18.553-15.564c-.59 16.416-9.833 27.542-32.482 26.35l-.744 22.221c11.535.275 21.99-2.573 29.47-8.845.307-1.818.641-3.63.981-5.455l.258-1.38c1.824-9.766 3.666-19.943 2.517-32.891z" fill-opacity=".1" fill="#000"/><path d="M451.723 193.06a6.491 6.491 0 101.357 12.91 6.491 6.491 0 00-1.357-12.91zm.257 2.448a4.029 4.029 0 11.842 8.014 4.029 4.029 0 01-.842-8.014zm17.564-10.285a6.491 6.491 0 101.357 12.911 6.491 6.491 0 00-1.357-12.91zm.258 2.449a4.029 4.029 0 11.842 8.014 4.029 4.029 0 01-.842-8.014zm-37.505-6.731a6.603 6.603 0 101.38 13.133 6.603 6.603 0 00-1.38-13.133zm.28 2.671a3.917 3.917 0 11.82 7.791 3.917 3.917 0 01-.82-7.79zm-28.509-.38a5.148 5.148 0 101.076 10.24 5.148 5.148 0 00-1.076-10.24zm50.41-7.862a5.708 5.708 0 101.193 11.353 5.708 5.708 0 00-1.194-11.353zm-50.143 10.4a2.596 2.596 0 11.543 5.165 2.596 2.596 0 01-.543-5.165zm50.412-7.833a3.127 3.127 0 11.654 6.22 3.127 3.127 0 01-.654-6.22zm-63.655-2.24a5.148 5.148 0 101.076 10.24 5.148 5.148 0 00-1.076-10.24zm.223 2.122a3.015 3.015 0 11.63 5.996 3.015 3.015 0 01-.63-5.996zm32.112-9.538a5.148 5.148 0 101.076 10.24 5.148 5.148 0 00-1.076-10.24zm.276 2.627a2.507 2.507 0 11.524 4.986 2.507 2.507 0 01-.524-4.986zm-15.963-7.346a6.827 6.827 0 101.427 13.579 6.827 6.827 0 00-1.427-13.579zm.257 2.449a4.365 4.365 0 11.912 8.681 4.365 4.365 0 01-.912-8.681zm49.494-7.678a5.148 5.148 0 101.076 10.24 5.148 5.148 0 00-1.076-10.24zm-17.644-.846a6.491 6.491 0 101.357 12.91 6.491 6.491 0 00-1.357-12.91zm.258 2.448a4.029 4.029 0 11.842 8.014 4.029 4.029 0 01-.842-8.014zm17.662 1.025a2.507 2.507 0 11.524 4.986 2.507 2.507 0 01-.524-4.986zm-35.084-14.153a6.827 6.827 0 101.428 13.58 6.827 6.827 0 00-1.428-13.58zm.274 2.605a4.208 4.208 0 11.88 8.37 4.208 4.208 0 01-.88-8.37zm17.318-9.595a5.82 5.82 0 101.217 11.575 5.82 5.82 0 00-1.217-11.575zm.239 2.27a3.536 3.536 0 11.74 7.035 3.536 3.536 0 01-.74-7.035z"/><path d="M93.557 330.127c.733.465 1.447.972 2.145 1.516 4.47 3.483 8.1 8.058 13.003 10.976.12 1.007.253 2.012.395 3.026-.287-.132-.575-.27-.855-.412-4.648-2.37-8.186-6.335-12.02-9.773a35.635 35.635 0 00-3.018-2.434c.103-.973.22-1.942.35-2.9zm1.215-7.487l4.867 1.91 16.778 6.574c3.454 1.353 9.477 2.64 10.127 7.108.025.173.04.345.05.516l.007.171-2.633.184c-.193-2.57-3.234-3.667-5.41-4.522l-8.59-3.37-15.645-6.128c.093-.545.19-1.089.293-1.631l.156-.812zm61.393-3.948c.614.488 1.23.965 1.857 1.438-2.153 5.95-6.328 11.06-10.355 15.964-.5-.535-.996-1.07-1.487-1.607l.898-1.083c3.678-4.454 7.464-9.3 9.087-14.712zm-57.844-9.663c7.218 2.485 13.409 7.333 19.304 12.193l1.992 1.648c2.165 1.794 4.317 3.799 6.729 5.265.83.508 1.925 1.07 2.994 1.133.133.746.262 1.496.396 2.255-2.73.19-5.527-1.683-7.69-3.372l-.14-.11c-7.653-6.023-15.043-13.361-24.327-16.701.238-.776.485-1.547.742-2.31zm50.647 3.605c.552.5 1.112.996 1.686 1.49-.925.648-1.84 1.318-2.76 1.954-3.138 2.168-6.283 4.333-9.424 6.498-.317-.683-.625-1.363-.928-2.038l10.772-7.437.32-.224c.109-.078.22-.159.334-.243zm-8.243-8.178c.496.545 1.005 1.088 1.52 1.631-2.257 3.123-4.64 6.16-6.964 9.229-.335-.804-.66-1.603-.972-2.398.491-.624.978-1.25 1.45-1.88l4.196-5.581c.242-.326.506-.66.77-1.001zm-39.18-3.773c2.747 1.665 6.12 2.667 8.849 3.56l2.437.803c4.556 1.51 9.372 3.203 13.392 5.859l.611 3.73c-.326-.292-.655-.57-.993-.838-4.051-3.211-8.984-4.892-13.833-6.48l-.815-.263c-3.549-1.139-7.333-2.246-10.616-4.098.31-.763.635-1.522.969-2.273zm32.564-4.182c.461.615.935 1.228 1.418 1.837-.837.36-1.566.73-2.069.998-1.13.61-2.22 1.264-3.275 1.972a115.71 115.71 0 01-.657-2.2 42.742 42.742 0 014.034-2.335l.523-.261c.009-.005.017-.01.026-.011zm-23.19-11.943c4.563 2.604 8.47 7.459 12.486 10.4l.389.28.343 2.36.147.992a44.017 44.017 0 01-4.901-3.485c-3.097-2.536-6.145-6.492-9.873-8.602.462-.657.929-1.305 1.41-1.945z" fill="#FFF" fill-opacity=".4"/></g></svg>