<svg xmlns="http://www.w3.org/2000/svg" xmlns:xlink="http://www.w3.org/1999/xlink" viewBox="0 0 215.5 570.23"><defs><linearGradient id="linear-gradient" x1="131.99" y1="132.95" x2="131.99" y2="400.68" gradientTransform="translate(-30.62 -5.41)" gradientUnits="userSpaceOnUse"><stop offset="0" stop-color="#69aa61"/><stop offset=".37" stop-color="#3f6328"/></linearGradient><linearGradient id="linear-gradient-2" x1="-9502.22" y1="837.21" x2="-9502.22" y2="831.7" gradientTransform="matrix(-1.04 0 0 1.04 -9813.9 -271.57)" gradientUnits="userSpaceOnUse"><stop offset="0" stop-color="#fbd7ca"/><stop offset=".97" stop-color="#f29478"/></linearGradient><linearGradient id="linear-gradient-3" x1="-9378.65" y1="837.21" x2="-9378.65" y2="831.7" gradientTransform="matrix(1.04 0 0 1.04 9886.18 -362.75)" xlink:href="#linear-gradient-2"/><linearGradient id="linear-gradient-4" x1="92.27" y1="48.89" x2="92.27" y2="411.71" xlink:href="#linear-gradient"/><linearGradient id="linear-gradient-5" x1="-801.94" y1="47.27" x2="-801.94" y2="410.08" gradientTransform="matrix(-1 0 0 1 -664.84 -2.47)" xlink:href="#linear-gradient"/><linearGradient id="linear-gradient-6" x1="138.57" y1="137.17" x2="138.57" y2="99.7" gradientTransform="matrix(1 0 -.01 1 -35.08 -4.28)" gradientUnits="userSpaceOnUse"><stop offset="0" stop-color="#fbd7ca"/><stop offset=".81" stop-color="#f29478"/></linearGradient><linearGradient id="linear-gradient-7" x1="134.5" y1="31.95" x2="134.5" y2="131.68" gradientTransform="translate(-30.62 -5.41)" xlink:href="#linear-gradient-2"/><linearGradient id="linear-gradient-8" x1="-501.7" y1="93.49" x2="-485.17" y2="93.49" gradientTransform="matrix(-1 0 0 1 -389.89 -3.75)" gradientUnits="userSpaceOnUse"><stop offset="0" stop-color="#e83d4b"/><stop offset="1" stop-color="#87283d"/></linearGradient><style>.cls-1{fill:#f6b097}.cls-2{fill:#facab8}.cls-5{fill:#ba890e}.cls-8{fill:#201f1d}.cls-12{fill:#f29478}.cls-15{fill:#87283d}.cls-16{fill:#fff}.cls-18{fill:#cb465c}.cls-20{fill:#4e6878}.cls-22{fill:#2f5363}.cls-23{fill:#003f4f}</style></defs><g id="Layer_2" data-name="Layer 2"><g id="Layer_1-2" data-name="Layer 1"><rect class="cls-1" x="31.19" y="259.81" width="23.13" height="7.63" rx="3.82" ry="3.82" transform="rotate(2.62 42.773 263.287)"/><ellipse class="cls-2" cx="46.01" cy="264.81" rx="14.74" ry="9.91" transform="rotate(-46.36 46.006 264.804)"/><g id="Lehrerin_1" data-name="Lehrerin 1"><path d="M129.66 132.05l10.82-95.67A36.59 36.59 0 00103.83.07a36.57 36.57 0 00-36.31 36.64l-5.73 96.14z" fill="#c31e48"/><path d="M59 256.17c-61.41-38.91-64.41-84.57 4.39-123m102.52-56.24c60.6 18.08 43.65 99.18-24.66 53.33" fill="none" stroke="#69aa61" stroke-linecap="round" stroke-linejoin="round" stroke-width="24.66"/><path class="cls-5" d="M152 310.61c3.1-19.74-3.26-42.18-8.15-49.18L62 261.08c-11.48 18.48-9.22 31-7.31 49.24z"/><path d="M144.56 261.93c-22.08-44.56-3.64-98.6 5.94-137.39-21.76-23.42-81.5-15.46-97.06.46 13.78 46.62 26.5 92.87 7.21 136.62z" fill="url(#linear-gradient)"/><path d="M92.16 550.22a8.39 8.39 0 008.53-8.25l-.06-12.22-17.6.08-12.93 3.78c-3.78 1.74-25.28 16.83-21.08 16.81z" fill="url(#linear-gradient-2)"/><path class="cls-8" d="M69.85 533.36l-22.22 7.69c-3.78 1.74-2.81 9.39 1.39 9.37l43.14-.2a8.39 8.39 0 008.53-8.25v-6.55c-3.89.68-16.34 10.11-30.84-2.06z"/><path class="cls-5" d="M100.81 535.37l-1.06-227.8-45.44.21 28 222.13 18.5 5.46z"/><path d="M116.69 550.11a8.4 8.4 0 01-8.61-8.17v-12.23l17.6-.08 13 3.66c3.79 1.71 25.43 16.6 21.24 16.62z" fill="url(#linear-gradient-3)"/><path class="cls-8" d="M138.83 533l22.3 7.48c3.79 1.71 2.89 9.37-1.3 9.39l-43.14.2a8.4 8.4 0 01-8.61-8.17v-6.55c3.84.65 16.38 9.99 30.75-2.35z"/><path class="cls-5" d="M107.9 535.34l-1.05-227.8 45.44-.21-25.94 222.38-18.45 5.63z"/><path d="M84.6 314.94l-.94-202.89c-13.25 2.89-32.4 7.65-38 14.13 13.8 52.68 15.27 139.32-4 188.74z" fill="url(#linear-gradient-4)"/><path d="M117.11 313.17l-.94-202.89c13.27 2.77 32.46 7.35 38.13 13.77-13.31 52.82-14 139.46 5.74 188.7z" fill="url(#linear-gradient-5)"/><rect class="cls-12" x="71.93" y="53.89" width="6.3" height="17.14" rx="3.15" ry="3.15" transform="rotate(-6.92 75.072 62.472)"/><rect class="cls-12" x="126.44" y="55.39" width="6.3" height="17.14" rx="3.15" ry="3.15" transform="rotate(6.36 129.573 63.936)"/><path d="M102.56 125.8c-6.69 0-12.08-6.64-12-14.9l.09-17.32 24.29-.11-.09 17.32c-.13 8.26-5.59 14.98-12.29 15.01z" fill="url(#linear-gradient-6)"/><path d="M77 25.19c-.08 1-.12 2-.12 3l.19 41.43c.08 17.26 11.64 31.33 25.68 31.27h.61c14-.06 25.46-14.24 25.37-31.25l2.42-41.38c0-1.3-2.66-2.36-2.74-3.32z" fill="url(#linear-gradient-7)"/><path class="cls-15" d="M99.51 59.2a3.64 3.64 0 00.16-1c0-2.4-2.35-4.33-5.21-4.32s-5.18 2-5.17 4.36a3.59 3.59 0 00.16 1zm26.87 1.74a5.39 5.39 0 00.23-1.55c0-3.57-3.49-6.45-7.76-6.43s-7.71 2.93-7.69 6.5a5.39 5.39 0 00.24 1.54z"/><path class="cls-16" d="M90.63 106.73c1.16 1.65 12.14 18.35 12.14 18.35l-9.26 10.62-9.31-23.27z"/><path class="cls-16" d="M114.81 107.34l-12.34 17.83 9.35 10.53 9.08-23.28-6.09-5.08z"/><path class="cls-15" d="M118.48 79.75v.23c0 5.13-5.91 9.32-13.26 9.36s-13.32-4.1-13.34-9.24a1.77 1.77 0 010-.23z"/><path d="M103.48 85.66a28.52 28.52 0 016.8 1.43 15.3 15.3 0 012 .82 17.71 17.71 0 01-7 1.43 16.41 16.41 0 01-9.52-2.76 18.51 18.51 0 017.72-.92z" fill="url(#linear-gradient-8)"/><path class="cls-18" d="M71.61 40.42c1.14 2.57 8.62 56.21 8.62 56.21l6.17-92c-10.79 6.72-18.98 15.79-14.79 35.79z"/><ellipse class="cls-18" cx="110.12" cy="25.57" rx="23.88" ry="31.52" transform="rotate(-63.59 110.113 25.575)"/><ellipse cx="105.74" cy="556.58" rx="83.84" ry="13.65" fill="#211f1e" opacity=".1"/></g><path class="cls-20" transform="rotate(112.49 147.009 66.775)" d="M145.12 59.5h3.77v14.54h-3.77z"/><path transform="rotate(112.49 145.582 70.22)" fill="#82909c" d="M143.7 62.94h3.77v14.54h-3.77z"/><path class="cls-22" transform="rotate(-67.51 141.694 64.574)" d="M139.81 63.43h3.77v2.28h-3.77z"/><path class="cls-20" transform="rotate(-67.51 140.27 68.016)" d="M138.39 66.87h3.77v2.28h-3.77z"/><path class="cls-23" d="M169.58 59.69h.74v30.45h-2a3.15 3.15 0 01-3.13-3.14V64.08a4.39 4.39 0 014.39-4.39z" transform="rotate(112.49 167.754 74.925)"/><path d="M163.35 64.14h.74a4.39 4.39 0 014.39 4.39V90.2a4.39 4.39 0 01-4.39 4.39h-.74V64.14z" transform="rotate(112.49 165.91 79.371)" fill="#365767"/><path class="cls-22" d="M154.39 72.16l-1.69-.7 1.41-3.39a1.46 1.46 0 011.9-.79l.34.14z"/><path d="M180.62 77.47l.3.12a2 2 0 011.1 2.66l-1.18 2.86-2.18-.9z" fill="#385969"/><path d="M152.55 76.61l-.34-.14a1.46 1.46 0 01-.79-1.91l1.4-3.39 1.69.7zm26.23 5.31l2.18.9-1.19 2.86a2 2 0 01-2.65 1.1l-.3-.12z" fill="#6d7f8c"/><path class="cls-23" d="M110.68 78.47a22.89 22.89 0 10-12.39-29.9 22.89 22.89 0 0012.39 29.9zm2-4.9a17.58 17.58 0 1123-9.52 17.58 17.58 0 01-22.96 9.52z"/><path d="M98.28 48.59l4.91 2a17.58 17.58 0 0032.48 13.45l4.91 2a22.89 22.89 0 01-42.3-17.51z" fill="#1f4a5a"/><path d="M135.75 64l-32.48-13.44A17.58 17.58 0 01135.75 64z" opacity=".34" fill="#fff"/><rect class="cls-1" x="139.66" y="75.64" width="27.56" height="9.1" rx="3.82" ry="3.82" transform="rotate(21.28 153.438 80.177)"/><path class="cls-2" d="M167 67l-9.42-2.18c-3.19-.74-8.12 1.93-9.07 6l-1 6.22a7.93 7.93 0 005.39 9l9.23 2.13c4.56 1.06 9.36-2.84 10.72-8.7 1.35-5.8-1.25-11.41-5.85-12.47z"/></g></g></svg>