<svg xmlns="http://www.w3.org/2000/svg" xmlns:xlink="http://www.w3.org/1999/xlink" viewBox="0 0 272.13 570.23"><defs><linearGradient id="linear-gradient" x1="188.63" y1="132.95" x2="188.63" y2="400.68" gradientTransform="translate(-30.62 -5.15)" gradientUnits="userSpaceOnUse"><stop offset="0" stop-color="#69aa61"/><stop offset=".37" stop-color="#3f6328"/></linearGradient><linearGradient id="linear-gradient-2" x1="-9445.58" y1="837.21" x2="-9445.58" y2="831.7" gradientTransform="matrix(-1.04 0 0 1.04 -9698.35 -271.84)" gradientUnits="userSpaceOnUse"><stop offset="0" stop-color="#fbd7ca"/><stop offset=".97" stop-color="#f29478"/></linearGradient><linearGradient id="linear-gradient-3" x1="-9322.02" y1="837.21" x2="-9322.02" y2="831.7" gradientTransform="matrix(1.04 0 0 1.04 9883.9 -362.48)" xlink:href="#linear-gradient-2"/><linearGradient id="linear-gradient-4" x1="148.9" y1="48.89" x2="148.9" y2="411.71" xlink:href="#linear-gradient"/><linearGradient id="linear-gradient-5" x1="-745.31" y1="47.27" x2="-745.31" y2="410.08" gradientTransform="matrix(-1 0 0 1 -551.57 -2.74)" xlink:href="#linear-gradient"/><linearGradient id="linear-gradient-6" x1="195.21" y1="137.17" x2="195.21" y2="99.7" gradientTransform="matrix(1 0 -.01 1 -35.08 -4.01)" gradientUnits="userSpaceOnUse"><stop offset="0" stop-color="#fbd7ca"/><stop offset=".81" stop-color="#f29478"/></linearGradient><linearGradient id="linear-gradient-7" x1="191.14" y1="31.95" x2="191.14" y2="131.68" gradientTransform="translate(-30.62 -5.15)" xlink:href="#linear-gradient-2"/><linearGradient id="linear-gradient-8" x1="-445.07" y1="93.49" x2="-428.54" y2="93.49" gradientTransform="matrix(-1 0 0 1 -276.62 -4.01)" gradientUnits="userSpaceOnUse"><stop offset="0" stop-color="#e83d4b"/><stop offset="1" stop-color="#87283d"/></linearGradient><style>.cls-1{fill:#facab8}.cls-4{fill:#ba890e}.cls-7{fill:#201f1d}.cls-11{fill:#f29478}.cls-14{fill:#87283d}.cls-15{fill:#fff}.cls-17{fill:#cb465c}.cls-19{fill:#4e6878}.cls-21{fill:#2f5363}.cls-22{fill:#003f4f}</style></defs><g id="Layer_2" data-name="Layer 2"><g id="Layer_1-2" data-name="Layer 1"><path class="cls-1" d="M6.29 39.28l10.59 17.44c1.32 2.17 3.3 2.35 5.48 1 2.17-1.32 4-3.21 2.69-5.39L14.19 34.48a4.64 4.64 0 00-6.35-1.55 4.64 4.64 0 00-1.55 6.35z"/><path class="cls-1" d="M13.47 33.44l8.35 18.62c1 2.32 3 2.74 5.3 1.7 2.32-1 4.39-2.69 3.35-5l-8.56-19.1a4.64 4.64 0 00-6.11-2.33 4.64 4.64 0 00-2.33 6.11z"/><path class="cls-1" d="M38.06 41.86L24.44 57.05c-1.7 1.89-1.3 3.84.6 5.54 1.89 1.69 4.24 2.91 5.93 1L45 48a4.65 4.65 0 00-.36-6.53 4.64 4.64 0 00-6.58.39z"/><path class="cls-1" d="M23.25 32.21l1.62 20.34c.2 2.54 1.89 3.59 4.43 3.38 2.53-.2 5-1.06 4.83-3.6l-1.66-20.85a4.64 4.64 0 00-5-4.24 4.64 4.64 0 00-4.22 4.97z"/><g id="Lehrerin_1" data-name="Lehrerin 1"><path d="M186.3 132.05l10.81-95.67A36.57 36.57 0 00160.46.07a36.58 36.58 0 00-36.31 36.64l-5.73 96.14z" fill="#c31e48"/><path d="M25.4 62.46c3 67 39.9 80.95 94.6 70.69m102.54-56.22c60.6 18.08 43.66 99.18-24.66 53.33" fill="none" stroke="#69aa61" stroke-linecap="round" stroke-linejoin="round" stroke-width="24.66"/><path class="cls-4" d="M208.61 310.61c3.09-19.74-3.27-42.18-8.15-49.18l-81.82-.35c-11.48 18.48-9.22 31-7.31 49.24z"/><path d="M201.19 261.93c-22.07-44.56-3.63-98.6 5.95-137.39-21.77-23.42-81.49-15.46-97.07.45 13.78 46.62 26.5 92.87 7.22 136.62z" fill="url(#linear-gradient)"/><path d="M148.79 550.22a8.39 8.39 0 008.53-8.25l-.06-12.22-17.59.08-12.94 3.78c-3.77 1.74-25.27 16.83-21.08 16.81z" fill="url(#linear-gradient-2)"/><path class="cls-7" d="M126.49 533.36l-22.23 7.69c-3.77 1.74-2.8 9.39 1.39 9.37l43.14-.2a8.39 8.39 0 008.53-8.25v-6.55c-3.89.68-16.32 10.11-30.83-2.06z"/><path class="cls-4" d="M157.44 535.37l-1.06-227.8-45.44.21 28 222.13 18.5 5.46z"/><path d="M173.32 550.11a8.39 8.39 0 01-8.6-8.17l-.06-12.23 17.6-.08 13 3.66c3.79 1.71 25.43 16.6 21.24 16.62z" fill="url(#linear-gradient-3)"/><path class="cls-7" d="M195.47 533l22.3 7.48c3.79 1.71 2.89 9.37-1.3 9.39l-43.15.2a8.39 8.39 0 01-8.6-8.17v-6.55c3.83.65 16.37 9.99 30.75-2.35z"/><path class="cls-4" d="M164.54 535.34l-1.05-227.8 45.44-.21-25.94 222.38-18.45 5.63z"/><path d="M141.23 314.94l-.94-202.89c-13.24 2.89-32.39 7.65-38 14.13 13.81 52.68 15.27 139.32-4 188.74z" fill="url(#linear-gradient-4)"/><path d="M173.74 313.17l-.94-202.89c13.27 2.77 32.47 7.35 38.14 13.77-13.32 52.82-14 139.46 5.74 188.7z" fill="url(#linear-gradient-5)"/><rect class="cls-11" x="128.56" y="53.89" width="6.3" height="17.14" rx="3.15" ry="3.15" transform="rotate(-6.92 131.759 62.497)"/><rect class="cls-11" x="183.08" y="55.39" width="6.3" height="17.14" rx="3.15" ry="3.15" transform="rotate(6.36 186.175 63.951)"/><path d="M159.2 125.8c-6.7 0-12.09-6.64-12-14.9l.09-17.32 24.29-.11-.1 17.32c-.12 8.26-5.59 14.98-12.28 15.01z" fill="url(#linear-gradient-6)"/><path d="M133.65 25.19c-.08 1-.12 2-.11 3l.19 41.43c.08 17.26 11.63 31.33 25.67 31.27h.6c14-.06 25.46-14.24 25.37-31.25l2.42-41.38c0-1.3-2.65-2.36-2.74-3.32z" fill="url(#linear-gradient-7)"/><path class="cls-14" d="M156.15 59.2a3.63 3.63 0 00.15-1c0-2.4-2.34-4.33-5.21-4.32s-5.17 2-5.16 4.36a3.59 3.59 0 00.16 1zM183 60.94a5.38 5.38 0 00.22-1.55c0-3.57-3.48-6.45-7.75-6.43s-7.71 2.93-7.7 6.5A5.76 5.76 0 00168 61z"/><path class="cls-15" d="M147.26 106.73c1.17 1.65 12.15 18.35 12.15 18.35l-9.26 10.62-9.32-23.27z"/><path class="cls-15" d="M171.45 107.34l-12.35 17.83 9.36 10.53 9.07-23.28-6.08-5.08z"/><path class="cls-14" d="M175.12 79.75V80c0 5.13-5.91 9.32-13.25 9.36s-13.32-4.1-13.35-9.24v-.23z"/><path d="M160.11 85.66a28.6 28.6 0 016.81 1.43 16.6 16.6 0 012 .82 17.78 17.78 0 01-7 1.43 16.47 16.47 0 01-9.53-2.76 18.51 18.51 0 017.72-.92z" fill="url(#linear-gradient-8)"/><path class="cls-17" d="M128.25 40.42c1.13 2.57 8.62 56.21 8.62 56.21l6.17-92c-10.8 6.72-18.98 15.79-14.79 35.79z"/><ellipse class="cls-17" cx="166.76" cy="25.57" rx="23.88" ry="31.52" transform="rotate(-63.59 166.742 25.576)"/><circle class="cls-1" cx="22.92" cy="53.84" r="14.81" transform="rotate(-49.45 22.927 53.843)"/><path class="cls-1" d="M1.26 48.37l14 14.8C17.05 65 19 64.77 20.87 63c1.85-1.74 3.25-4 1.5-5.83L8 42a4.63 4.63 0 00-6.53-.18 4.64 4.64 0 00-.21 6.55z"/><ellipse cx="162.37" cy="556.58" rx="83.84" ry="13.65" fill="#211f1e" opacity=".1"/></g><path class="cls-19" transform="rotate(112.49 203.645 66.774)" d="M201.76 59.5h3.77v14.54h-3.77z"/><path transform="rotate(112.49 202.219 70.219)" fill="#82909c" d="M200.33 62.94h3.77v14.54h-3.77z"/><path class="cls-21" transform="rotate(-67.51 198.322 64.57)" d="M196.45 63.43h3.77v2.28h-3.77z"/><path class="cls-19" transform="rotate(-67.51 196.898 68.013)" d="M195.02 66.87h3.77v2.28h-3.77z"/><path class="cls-22" d="M226.21 59.69h.79v30.45h-2a3.15 3.15 0 01-3.18-3.14V64.08a4.39 4.39 0 014.39-4.39z" transform="rotate(112.49 224.39 74.924)"/><path d="M220 64.14h.74a4.39 4.39 0 014.39 4.39V90.2a4.39 4.39 0 01-4.39 4.39H220V64.14z" transform="rotate(112.49 222.547 79.37)" fill="#365767"/><path class="cls-21" d="M211 72.16l-1.68-.7 1.4-3.39a1.46 1.46 0 011.91-.79l.33.14z"/><path d="M237.25 77.47l.3.12a2 2 0 011.11 2.66l-1.19 2.86-2.18-.9z" fill="#385969"/><path d="M209.18 76.61l-.34-.14a1.47 1.47 0 01-.79-1.91l1.41-3.39 1.68.7zm26.23 5.31l2.18.9-1.18 2.86a2 2 0 01-2.66 1.1l-.3-.12z" fill="#6d7f8c"/><path class="cls-22" d="M167.32 78.47a22.89 22.89 0 10-12.39-29.9 22.89 22.89 0 0012.39 29.9zm2-4.9a17.58 17.58 0 1123-9.52 17.59 17.59 0 01-22.97 9.52z"/><path d="M154.92 48.59l4.91 2a17.58 17.58 0 0032.48 13.45l4.91 2a22.89 22.89 0 01-42.3-17.51z" fill="#1f4a5a"/><path d="M192.39 64l-32.48-13.44A17.58 17.58 0 01192.39 64z" opacity=".34" fill="#fff"/><rect x="196.29" y="75.64" width="27.56" height="9.1" rx="3.82" ry="3.82" transform="rotate(21.28 210.092 80.197)" fill="#f6b097"/><path class="cls-1" d="M223.68 67l-9.42-2.18c-3.2-.74-8.12 1.93-9.07 6l-1 6.22a7.92 7.92 0 005.39 9l9.23 2.13c4.56 1.06 9.36-2.84 10.71-8.7 1.32-5.8-1.28-11.41-5.84-12.47z"/></g></g></svg>