<svg xmlns="http://www.w3.org/2000/svg" xmlns:xlink="http://www.w3.org/1999/xlink" viewBox="0 0 217.06 410.14"><defs><linearGradient id="linear-gradient" x1="-1634.52" y1="2127.9" x2="-1634.52" y2="2021.64" gradientTransform="matrix(1.36 0 0 1.36 2371.58 -2538.81)" gradientUnits="userSpaceOnUse"><stop offset="0" stop-color="#4d7ba6"/><stop offset=".79" stop-color="#026293"/></linearGradient><linearGradient id="linear-gradient-2" x1="1165.5" y1="2127.95" x2="1165.5" y2="2021.7" gradientTransform="matrix(-1.36 -.01 -.01 1.36 1695.71 -2541.94)" xlink:href="#linear-gradient"/><linearGradient id="linear-gradient-3" x1="888.31" y1="88.42" x2="888.31" y2="198.97" gradientTransform="matrix(-1 0 0 1 1004.12 -3.31)" gradientUnits="userSpaceOnUse"><stop offset="0" stop-color="#447481"/><stop offset="1" stop-color="#201f1d"/></linearGradient><linearGradient id="linear-gradient-4" x1="4175.89" y1="113.18" x2="4175.89" y2="71.93" gradientTransform="translate(-4059.88 -7.43)" gradientUnits="userSpaceOnUse"><stop offset="0" stop-color="#fbd7ca"/><stop offset=".81" stop-color="#f29478"/></linearGradient><linearGradient id="linear-gradient-5" x1="4176.09" y1="45.26" x2="4176.09" y2="194.99" gradientTransform="translate(-4059.37 -26.75)" gradientUnits="userSpaceOnUse"><stop offset=".01" stop-color="#fcdfd5"/><stop offset=".35" stop-color="#f8c0ae"/><stop offset=".76" stop-color="#f4a087"/><stop offset=".97" stop-color="#f29478"/></linearGradient><linearGradient id="linear-gradient-6" x1="881.18" y1="85.04" x2="895.81" y2="85.04" gradientTransform="matrix(-1 0 0 1 1004.12 -3.31)" gradientUnits="userSpaceOnUse"><stop offset="0" stop-color="#e83d4b"/><stop offset="1" stop-color="#87283d"/></linearGradient><style>.cls-2{fill:#71402d}.cls-3{fill:#94533d}.cls-7{fill:none;stroke:#447481;stroke-linecap:round;stroke-linejoin:round;stroke-width:19.14px}.cls-11{fill:#fbd8ca}.cls-12{fill:#87283d}.cls-16{fill:#facab8}.cls-17{fill:#4e6878}.cls-19{fill:#2f5363}.cls-20{fill:#003f4f}</style></defs><g id="Layer_2" data-name="Layer 2"><g id="Layer_1-2" data-name="Layer 1"><rect x="146.21" y="59.97" width="23.13" height="7.63" rx="3.82" ry="3.82" transform="rotate(14.17 157.767 63.806)" fill="#f6b097"/><g id="Lehrer_1" data-name="Lehrer 1"><path class="cls-2" d="M114.39 408.61l17.51.08.01-3.62-17.49-3.55-.03 7.09z"/><path class="cls-3" d="M134.63 385.3c.85-.31 18.43 11.88 27.64 15.78a9 9 0 015.48 8.32v.74l-23-.48-30.29-6.33v-9.61z"/><path fill="#026293" d="M80.05 230.3l65.14.3 3.03-24.94-69.52-.32 1.35 24.96z"/><path d="M147.68 207.63l-12.27 177.7s-21 14.38-21 12.87l.81-174.93z" fill="url(#linear-gradient)"/><path class="cls-2" d="M110.03 408.59l-17.51-.08.01-3.62 17.53-3.39-.03 7.09z"/><path class="cls-3" d="M90 385.1c-.85-.33-18.54 11.71-27.78 15.52a9 9 0 00-5.56 8.27v.74l23-.27 30.34-6.05v-9.61z"/><path d="M78.6 207.31l10.62 177.81s20.82 14.57 20.83 13.06l.81-174.93z" fill="url(#linear-gradient-2)"/><path class="cls-7" d="M143.55 109.11c47.69 10.8 94.75-27.11 37.88-44.43"/><path d="M149.25 211.1l-71.44-.33-2.75-94.29a21.52 21.52 0 0121.61-21.41l37.34.17a21.52 21.52 0 0121.41 21.61z" fill="url(#linear-gradient-3)"/><path d="M99.64 75.12h32.73v19.06A16.37 16.37 0 01116 110.54a16.37 16.37 0 01-16.36-16.36V75.12z" transform="rotate(.27 114.806 90.979)" fill="url(#linear-gradient-4)"/><path d="M99.71 89.11c1.27 1.94 13.17 21.43 13.17 21.43l-10.29 12.23-10-27.1zm33.36.66l-13.76 20.56 10.17 12.33 10.23-26.93-6.64-5.96z" fill="#447481"/><path class="cls-7" d="M82.1 110.29c-28 39.79-41.41 41.18-59.92 58.46"/><rect class="cls-11" x="86.37" y="50.96" width="6.16" height="17.61" rx="3.08" ry="3.08" transform="rotate(-15.17 89.45 59.755)"/><rect class="cls-11" x="138.75" y="51.42" width="6.16" height="17.61" rx="3.08" ry="3.08" transform="rotate(8.1 143.122 60.706)"/><path class="cls-12" d="M145.11 18c0-3.3-1.75-8.38-4.39-10.27a13 13 0 00-9.12-3.79l-31.86-.15A13 13 0 0090 8.07c-2.34 2.12-3.89 6.6-3.91 9.66l4.46 43.49.45-34.13a13 13 0 008.61 3.32l31.86.15a13 13 0 008.79-3.38l.32 34.82z"/><path d="M90.33 26.91l-.16 34.66c-.06 12.88 8.91 24.92 19.94 25h10.38c11 0 20.12-11.9 20.18-24.79l2-34.69c0-5-5.27-9-9.52-9L98.07 18c-4.25-.06-7.72 4-7.74 8.91z" fill="url(#linear-gradient-5)"/><path d="M86.07 18.45l4.52 42.77.27-37.84-4.79-4.93zm54.21 5.44l.3 38.08 4.51-43.67-4.81 5.59z" fill="#9d4f5a"/><rect class="cls-12" x="120.11" y="35.56" width="15.41" height="4.08" rx="1.75" ry="1.75" transform="rotate(14.17 127.838 37.624)"/><rect class="cls-12" x="95.76" y="35.59" width="13.2" height="3.49" rx="1.75" ry="1.75" transform="rotate(-12.08 102.366 37.351)"/><path class="cls-12" d="M133 65.15c-6.2-2.91-6.7-9-11.37-9.79a6.54 6.54 0 01-10.34 0c-4.18.69-4.73 5.83-11 9.89 6.28.23 13 0 16.17-3.61C118.82 64.71 127 66 133 65.15zm-21.73-50.5l14.26 10.55s-3.65-7.51-3.24-7.37 9.24 4.67 9.24 4.67l-5.82-7.38L111.14 14m-6.52-10.19l43.81.2-9.77 6-34.04-6.2z"/><path class="cls-12" d="M100.49 3.79S141.23-.59 140.57.07 134 8.79 134 8.79zm19.81 45.86a5.34 5.34 0 01-.22-1.5c0-3.44 3.36-6.21 7.48-6.19s7.44 2.82 7.44 6.26a5 5 0 01-.23 1.5zm-20.59-1.32a3.57 3.57 0 01-.14-1c0-2.25 2.19-4.06 4.88-4.05s4.86 1.85 4.85 4.09a3.53 3.53 0 01-.16 1zm28.43 22.59a1.27 1.27 0 010 .2c0 4.54-5.31 8.2-11.81 8.17s-11.75-3.74-11.72-8.29v-.2z"/><path d="M114.82 76a25.08 25.08 0 016 1.33 17.2 17.2 0 011.73.73 15.61 15.61 0 01-6.22 1.21 14.55 14.55 0 01-8.41-2.52 16.46 16.46 0 016.9-.75z" fill="url(#linear-gradient-6)"/><ellipse class="cls-16" cx="18.21" cy="174.52" rx="14.96" ry="11.33" transform="rotate(-67.22 18.202 174.506)"/><rect class="cls-16" x="-.46" y="160.23" width="30.06" height="9.64" rx="4.82" ry="4.82" transform="rotate(17.27 14.585 165.027)"/></g><path class="cls-17" transform="rotate(112.49 151.31 55.523)" d="M149.69 49.29h3.23v12.46h-3.23z"/><path transform="rotate(112.49 150.087 58.468)" fill="#82909c" d="M148.47 52.24h3.23V64.7h-3.23z"/><path class="cls-19" transform="matrix(.38 -.92 .92 .38 41.06 168.71)" d="M145.14 52.66h3.23v1.95h-3.23z"/><path class="cls-17" transform="rotate(-67.51 145.529 56.584)" d="M143.92 55.6h3.23v1.95h-3.23z"/><path class="cls-20" d="M171.27 49.45v26.08H170a3.15 3.15 0 01-3.15-3.15V53.85a4.39 4.39 0 014.39-4.39z" transform="rotate(112.49 169.072 62.497)"/><path d="M165.3 53.26a4.39 4.39 0 014.39 4.39V75a4.39 4.39 0 01-4.39 4.39V53.26z" transform="rotate(112.49 167.493 66.31)" fill="#365767"/><path class="cls-19" d="M157.63 60.13l-1.45-.6 1.21-2.9A1.25 1.25 0 01159 56l.29.12z"/><path d="M180.09 64.68l.26.11a1.73 1.73 0 01.94 2.27l-1 2.45-1.87-.77z" fill="#385969"/><path d="M156.05 63.94l-.29-.12a1.25 1.25 0 01-.68-1.63l1.21-2.9 1.44.59zm22.46 4.55l1.87.77-1 2.45a1.74 1.74 0 01-2.28.94l-.26-.1z" fill="#6d7f8c"/><path class="cls-20" d="M120.2 65.54a19.61 19.61 0 10-10.62-25.61 19.6 19.6 0 0010.62 25.61zm1.74-4.2a15.06 15.06 0 1119.67-8.15 15 15 0 01-19.67 8.15z"/><path d="M109.57 39.94l4.21 1.74A15.06 15.06 0 00141.6 53.2l4.2 1.74a19.61 19.61 0 01-36.23-15z" fill="#1f4a5a"/><path d="M141.67 53.16l-27.82-11.52a15.06 15.06 0 0127.82 11.52z" fill="#fff" opacity=".34"/><path class="cls-16" d="M172.81 50.9l-9.09-2.1c-3.07-.71-7.82 1.86-8.73 5.82l-1 6a7.65 7.65 0 005.2 8.68l8.89 2.06c4.4 1 9-2.74 10.33-8.39 1.3-5.65-1.21-11.05-5.6-12.07z"/></g></g></svg>