<svg class="image course-empty-content-image" viewBox="0 0 676 676" xmlns="http://www.w3.org/2000/svg"><g fill-rule="evenodd"><path d="M238.76 326.4c52.08-16.922 108.02 11.579 124.94 63.659 16.922 52.08-11.579 108.02-63.659 124.94-52.08 16.922-108.02-11.579-124.94-63.659-16.922-52.08 11.579-108.02 63.659-124.94zm111.78 67.934c-14.56-44.813-62.692-69.337-107.5-54.776-44.813 14.56-69.337 62.692-54.776 107.5 14.56 44.813 62.692 69.337 107.5 54.776 44.813-14.56 69.337-62.692 54.776-107.5zm168.41-220.55c66.245 17.75 105.56 85.841 87.807 152.09-17.75 66.245-85.841 105.56-152.09 87.807-66.245-17.75-105.56-85.841-87.807-152.09a8.664 8.664 0 0116.737 4.485c-15.273 57 18.554 115.59 75.555 130.86 57.001 15.273 115.59-18.554 130.86-75.555 15.121-56.431-17.882-114.42-73.852-130.39l-1.703-.471a8.664 8.664 0 014.485-16.737zM155.94 53.354c69.698-21.309 143.47 17.918 164.78 87.617 21.309 69.698-17.918 143.47-87.617 164.78-69.698 21.309-143.47-17.918-164.78-87.617-21.309-69.698 17.918-143.47 87.617-164.78zm147.17 93c-18.336-59.973-81.817-93.727-141.79-75.391s-93.727 81.817-75.391 141.79 81.817 93.727 141.79 75.391 93.727-81.817 75.391-141.79z" fill="#E3E7E9"/><path d="M526.89 282.58c3.882-3.241 8.456-4.156 13.723-2.745 5.623 1.507 9.223 4.588 10.798 9.244 1.575 4.655 1.25 11.134-.974 19.435-2.213 8.256-5.274 14.014-9.184 17.27-3.91 3.258-8.5 4.181-13.765 2.77-5.58-1.495-9.12-4.704-10.623-9.627-1.504-4.923-1.203-11.312.902-19.167 2.2-8.212 5.242-13.94 9.124-17.18zm-18.877-11.336l4.887 1.31-10.799 40.302 9.105 2.44-1.973 7.363-26.712-7.157 1.973-7.364 9.305 2.493 7.086-26.444 2.224-4.283-4.272 3.089-7.052 2.487-2.337-6.008 18.565-8.228zm30.559 15.938c-2.678-.718-4.979.149-6.903 2.599-1.924 2.45-3.658 6.554-5.2 12.311-1.46 5.445-1.995 9.81-1.608 13.095.388 3.285 1.943 5.292 4.665 6.022 2.633.705 4.929-.139 6.885-2.533s3.73-6.558 5.321-12.494c1.447-5.4 1.985-9.728 1.614-12.985-.37-3.256-1.962-5.261-4.774-6.015zm-50.135-21.183l5.771 4.704-38.394 47.689-5.735-4.838L488.437 266zm-51.524-12.945l30.193 8.09-.682 2.544-30.62 39.296-8.502-2.278 25-31.976 3.825-2.491-4.196-.407-17.205-4.61 2.188-8.168zm-245.91-58.523a7.596 7.596 0 013.14 10.273l-23.207 43.648a7.619 7.619 0 01-10.304 3.15l-19.864-10.562a7.596 7.596 0 01-3.141-10.273 7.615 7.615 0 0110.282-3.157l13.146 6.95 19.667-36.892a7.605 7.605 0 0110.281-3.137zm87.666-5.251a7.619 7.619 0 01-5.059 9.513l-58.289 17.821a7.619 7.619 0 11-4.455-14.572l58.29-17.82a7.619 7.619 0 019.513 5.058zm-118.11-47.545l11.138 36.43a3.81 3.81 0 01-2.53 4.758l-36.43 11.138a3.81 3.81 0 01-4.757-2.53l-11.138-36.43a3.81 3.81 0 012.53-4.758l36.43-11.138a3.81 3.81 0 014.757 2.53zm-10.231 15.384l-14.572 4.455 4.455 14.572 14.572-4.455-4.455-14.572zm110.52-26.128a7.619 7.619 0 01-5.059 9.513L197.5 158.325a7.619 7.619 0 11-4.455-14.572l58.29-17.82a7.619 7.619 0 019.513 5.058z" fill="#455B6A"/><path d="M347.91 626c104.21 0 180.13-15.468 180.13-27.274 0-11.806-84.477-27.791-188.68-27.791-104.21 0-188.68 15.985-188.68 27.791 0 11.806 93.034 27.274 197.24 27.274z" fill="#ECEEF0"/><path d="M307.79 368.22c5.129 2.613 7.216 8.816 4.771 13.96l-.13.265-39.69 77.156a10.586 10.586 0 01-13.982 4.76l-.266-.13-36.756-19.599a10.586 10.586 0 01-4.63-14.247 10.586 10.586 0 0113.982-4.76l.266.131 27.262 14.76 34.926-67.668a10.586 10.586 0 0114.247-4.63zm212.49-199.43c68.999 18.488 109.95 89.41 91.457 158.41-18.488 68.999-89.41 109.95-158.41 91.457-7.376-1.976-11.753-9.557-9.776-16.933 1.948-7.273 9.348-11.631 16.626-9.855l1.935.5c53.73 13.468 108.52-18.621 122.91-72.326s-17.018-108.89-70.284-124.09l-1.927-.534c-7.19-2.102-11.42-9.575-9.47-16.848 1.976-7.376 9.557-11.753 16.933-9.777z" fill="#B1063A"/></g></svg>