<svg width="328" height="185" viewBox="0 0 328 185" fill="none" xmlns="http://www.w3.org/2000/svg">
<rect width="328" height="185" fill="white"/>
<rect width="328" height="185" fill="white"/>
<g filter="url(#filter0_ddd_3298_26223)">
<path d="M111 92.0019V71.999H125.214V89.2017H140.575V71.999H152.047L151.924 72.4491C151.685 73.3234 147.489 89.5301 146.978 91.5517C146.693 92.6795 146.516 93.6508 146.584 93.7103C146.652 93.7697 149.459 94.1493 152.822 94.5537L158.937 95.2892L159.869 94.3375C162.502 91.6505 166.976 91.6048 169.559 94.2384C172.946 97.6901 170.005 103.079 164.747 103.059C162.881 103.052 161.387 102.453 159.984 101.149L158.873 100.117L152.767 100.872C149.408 101.288 146.609 101.672 146.546 101.727C146.307 101.936 147.536 104.566 148.523 105.957C150.336 108.513 152.521 110.137 155.718 111.306C156.531 111.603 157.24 111.882 157.292 111.925C157.345 111.968 153.605 112.004 148.981 112.004H140.575V97.2019H125.214V112.004H111L111 92.0019Z" fill="#253B55" stroke="white" stroke-width="0.0267641"/>
<path d="M177.224 111.829C177.34 111.732 177.943 111.505 178.564 111.323C183.859 109.773 187.937 103.853 187.942 97.7114C187.944 94.1648 186.76 91.407 184.182 88.956C182.431 87.2916 180.569 86.2319 178.098 85.4928C176.474 85.0071 176.018 84.9622 172.567 84.9485C169.039 84.9345 168.685 84.9681 166.868 85.49C165.802 85.796 164.78 86.0982 164.597 86.1615C164.383 86.2359 164.3 86.1804 164.363 86.0047C164.417 85.8551 164.775 84.4966 165.159 82.9857L165.857 80.2388H185.952V71.999L196.295 72.0986C205.937 72.1914 206.759 72.2269 208.408 72.6227C212.996 73.7232 215.698 75.9401 217.081 79.7391C217.591 81.1418 217.665 81.6795 217.681 84.1342C217.695 86.2221 217.601 87.2604 217.31 88.2297C216.043 92.4506 212.672 95.4096 207.855 96.5286C206.084 96.9399 201.891 97.2 196.848 97.2115L193.031 97.2201V112.004H185.022C180.419 112.004 177.104 111.929 177.224 111.829ZM201.015 88.7057C202.557 88.2921 203.941 87.0866 204.316 85.8309C205.019 83.4732 203.563 81.0888 201.023 80.4366C200.582 80.3236 198.604 80.1738 196.627 80.1036L193.032 79.9761V89.2906L196.425 89.1585C198.476 89.0787 200.292 88.8994 201.015 88.7057Z" fill="#253B55" stroke="white" stroke-width="0.0267641"/>
</g>
<path d="M289.208 110.066C289.667 109.995 290.044 109.757 290.34 109.354C290.635 108.951 290.747 108.52 290.675 108.061C290.604 107.602 290.367 107.225 289.964 106.93C289.561 106.635 289.129 106.523 288.671 106.594C288.212 106.665 287.835 106.902 287.539 107.305C287.244 107.708 287.132 108.139 287.204 108.598C287.275 109.057 287.512 109.434 287.915 109.73C288.318 110.025 288.75 110.137 289.208 110.066ZM287.255 103.958L289.222 103.653C289.135 102.712 289.173 101.988 289.337 101.479C289.5 100.971 289.967 100.225 290.737 99.2416C291.545 98.2406 292.083 97.3759 292.349 96.6474C292.616 95.9185 292.682 95.1194 292.547 94.25C292.315 92.7532 291.588 91.5879 290.366 90.7542C289.144 89.9204 287.716 89.63 286.083 89.883C284.848 90.0742 283.803 90.5776 282.947 91.3931C282.091 92.2088 281.501 93.2313 281.178 94.4608L283.106 94.9767C283.39 94.0421 283.8 93.3108 284.336 92.7827C284.871 92.2546 285.552 91.9266 286.379 91.7985C287.44 91.6343 288.368 91.8123 289.163 92.3327C289.959 92.8534 290.434 93.6111 290.588 94.6057C290.682 95.2101 290.599 95.7988 290.341 96.3716C290.082 96.9444 289.596 97.6612 288.883 98.5219C288.072 99.485 287.551 100.334 287.323 101.069C287.093 101.803 287.071 102.766 287.255 103.958ZM278.084 117.393C277.06 117.551 276.152 117.341 275.361 116.762C274.569 116.182 274.094 115.381 273.935 114.357L270.227 90.4125C270.068 89.3889 270.279 88.4813 270.858 87.6895C271.438 86.8978 272.239 86.4226 273.263 86.2641L297.207 82.5556C298.231 82.3971 299.138 82.6076 299.93 83.187C300.722 83.7664 301.197 84.5678 301.356 85.5914L305.064 109.536C305.223 110.56 305.012 111.467 304.433 112.259C303.853 113.051 303.052 113.526 302.028 113.685L278.084 117.393ZM277.739 115.169L301.684 111.461C302.026 111.408 302.318 111.217 302.559 110.888C302.8 110.559 302.894 110.223 302.841 109.881L299.132 85.9357C299.079 85.5933 298.888 85.3017 298.559 85.0608C298.23 84.82 297.894 84.7261 297.552 84.7791L273.607 88.4876C273.264 88.5406 272.973 88.7317 272.732 89.0608C272.491 89.3899 272.397 89.7257 272.45 90.0681L276.159 114.013C276.212 114.355 276.403 114.647 276.732 114.888C277.061 115.129 277.397 115.223 277.739 115.169ZM272.446 125.097C271.423 125.255 270.515 125.045 269.723 124.465C268.932 123.886 268.456 123.085 268.298 122.061L264.245 95.8925L266.469 95.5482L270.521 121.717C270.574 122.059 270.765 122.35 271.095 122.591C271.424 122.832 271.759 122.926 272.102 122.873L298.27 118.82L298.615 121.044L272.446 125.097Z" fill="#FE8687"/>
<path d="M207.784 57.1568L210.198 57.6829L238.842 39.2894L236.954 36.3489L208.31 54.743L207.784 57.1568ZM205.107 58.8762L206.313 53.3379L241.611 30.6459C241.88 30.4942 242.162 30.3932 242.458 30.3429C242.754 30.2927 243.05 30.2997 243.345 30.3641C243.641 30.4284 243.917 30.5373 244.173 30.6908C244.43 30.8441 244.649 31.0674 244.83 31.3606L246.662 34.2313C246.853 34.5179 246.963 34.8104 246.991 35.109C247.019 35.4079 247.002 35.697 246.942 35.9762C246.877 36.274 246.764 36.5482 246.605 36.7985C246.445 37.0485 246.231 37.2623 245.963 37.4399L210.645 60.0831L205.107 58.8762ZM237.872 37.8357L236.954 36.3489L238.842 39.2894L237.872 37.8357Z" fill="#ADB6BD"/>
<path d="M182.107 51.5615L192.38 53.8002L194.61 43.5694L184.336 41.3306L182.107 51.5615ZM172.386 36.4237L182.617 38.6532L184.856 28.3794L174.625 26.15L172.386 36.4237ZM184.815 39.1322L195.089 41.371L197.328 31.0973L187.054 28.8585L184.815 39.1322ZM197.287 41.8501L207.56 44.0887L209.799 33.815L199.526 31.5763L197.287 41.8501ZM200.005 29.3779L210.278 31.6166L212.517 21.3434L202.244 19.1048L200.005 29.3779ZM179.429 53.2808L182.138 40.8516L169.708 38.1431L172.905 23.4725L197.807 28.8989L200.524 16.4273L215.194 19.6241L209.28 46.7662L196.808 44.0485L194.1 56.4777L179.429 53.2808Z" fill="#ADB6BD"/>
<path d="M84.2631 157.339L85.8199 158.056L107.974 149.875L107.134 147.601L84.9802 155.782L84.2631 157.339ZM82.1923 158.104L83.8375 154.532L111.141 144.433C111.346 144.371 111.553 144.345 111.761 144.355C111.969 144.365 112.168 144.414 112.358 144.502C112.549 144.589 112.72 144.704 112.871 144.847C113.021 144.989 113.136 145.173 113.215 145.399L114.028 147.617C114.114 147.84 114.145 148.054 114.119 148.261C114.093 148.468 114.039 148.661 113.956 148.841C113.868 149.033 113.751 149.202 113.605 149.348C113.46 149.493 113.283 149.606 113.074 149.686L85.764 159.749L82.1923 158.104ZM107.534 148.745L107.134 147.601L107.974 149.875L107.534 148.745Z" fill="#FCC077"/>
<path fill-rule="evenodd" clip-rule="evenodd" d="M52.7492 146.035C52.986 146.406 53.3087 146.636 53.7172 146.726L60.4005 148.2C60.8091 148.29 61.1988 148.217 61.5696 147.98C61.9405 147.743 62.171 147.421 62.2611 147.012L63.7352 140.329C63.8253 139.92 63.7519 139.531 63.5151 139.16C63.2783 138.789 62.9556 138.558 62.5471 138.468L55.8638 136.994C55.4552 136.904 55.0656 136.977 54.6947 137.214C54.3238 137.451 54.0933 137.774 54.0032 138.182L52.5291 144.866C52.439 145.274 52.5124 145.664 52.7492 146.035ZM60.7368 146.676L54.0534 145.202L55.5275 138.518L62.2109 139.993L60.7368 146.676Z" fill="#FCC077"/>
<path d="M67.5698 143.88L67.2336 145.404L87.9094 149.964L88.2456 148.44L67.5698 143.88Z" fill="#FCC077"/>
<path fill-rule="evenodd" clip-rule="evenodd" d="M55.982 131.378C56.2189 131.749 56.5415 131.979 56.95 132.069L63.6334 133.543C64.0419 133.633 64.4316 133.56 64.8024 133.323C65.1733 133.086 65.4038 132.764 65.4939 132.355L66.968 125.672C67.0581 125.263 66.9847 124.874 66.7479 124.503C66.5111 124.132 66.1884 123.901 65.7799 123.811L59.0966 122.337C58.6881 122.247 58.2984 122.32 57.9275 122.557C57.5566 122.794 57.3262 123.117 57.2361 123.525L55.7619 130.209C55.6718 130.617 55.7452 131.007 55.982 131.378ZM63.9696 132.019L57.2863 130.545L58.7604 123.861L65.4437 125.336L63.9696 132.019Z" fill="#FCC077"/>
<path d="M70.8026 129.223L70.4664 130.747L91.1422 135.307L91.4784 133.783L70.8026 129.223Z" fill="#FCC077"/>
<path fill-rule="evenodd" clip-rule="evenodd" d="M49.5567 160.509C49.7935 160.88 50.1162 161.11 50.5247 161.2L57.208 162.674C57.6166 162.765 58.0062 162.691 58.3771 162.454C58.748 162.218 58.9784 161.895 59.0686 161.486L60.5427 154.803C60.6328 154.394 60.5594 154.005 60.3226 153.634C60.0857 153.263 59.7631 153.033 59.3546 152.942L52.6712 151.468C52.2627 151.378 51.873 151.452 51.5022 151.688C51.1313 151.925 50.9008 152.248 50.8107 152.656L49.3366 159.34C49.2465 159.748 49.3199 160.138 49.5567 160.509ZM57.5442 161.15L50.8609 159.676L52.335 152.993L59.0184 154.467L57.5442 161.15Z" fill="#FCC077"/>
<path d="M64.3773 158.354L64.0411 159.878L84.7169 164.438L85.0531 162.914L64.3773 158.354Z" fill="#FCC077"/>
<path d="M32.8992 57.2438L35.5635 52.8127L31.101 50.2005L28.4782 54.6215L32.8992 57.2438ZM30.6442 70.1003C29.6406 70.3565 28.7169 70.2343 27.8731 69.7337C27.0293 69.2331 26.4793 68.481 26.2231 67.4775L21.899 50.5399C21.6429 49.5367 21.7651 48.6132 22.2657 47.7694C22.7663 46.9256 23.5184 46.3756 24.5219 46.1194L56.7195 37.8994C57.723 37.6432 58.6467 37.7654 59.4905 38.266C60.3343 38.7666 60.8843 39.5185 61.1404 40.5217L65.4645 57.4592C65.7207 58.4628 65.5985 59.3865 65.0979 60.2303C64.5974 61.0741 63.8453 61.6241 62.8417 61.8803L56.1467 63.5895C56.1208 63.2091 56.0727 62.8343 56.0025 62.4652C55.9323 62.0961 55.8422 61.7321 55.7324 61.3731L62.2852 59.7002C62.6209 59.6145 62.8928 59.3963 63.1009 59.0455C63.3089 58.6944 63.37 58.3512 63.2844 58.0158L58.9603 41.0782C58.8747 40.7429 58.6565 40.4711 58.3057 40.2631C57.955 40.055 57.6118 39.9938 57.276 40.0795L25.0785 48.2995C24.7428 48.3852 24.4708 48.6034 24.2628 48.9542C24.0547 49.3049 23.9935 49.648 24.0791 49.9834L28.4032 66.9209C28.4888 67.2563 28.7071 67.5282 29.0579 67.7366C29.4086 67.9447 29.7519 68.0059 30.0876 67.9202L36.6404 66.2473C36.7161 66.615 36.8115 66.9776 36.9268 67.3352C37.0421 67.6928 37.1796 68.0447 37.3392 68.391L30.6442 70.1003ZM52.9307 49.3165C53.5349 49.1622 53.9962 48.8192 54.3144 48.2874C54.6326 47.7557 54.7146 47.1877 54.5603 46.5835C54.4061 45.9792 54.0631 45.518 53.5313 45.1998C52.9996 44.8815 52.4316 44.7995 51.8274 44.9538C51.2231 45.1081 50.7619 45.4511 50.4436 45.9828C50.1254 46.5146 50.0434 47.0826 50.1977 47.6868C50.352 48.291 50.695 48.7523 51.2267 49.0705C51.7584 49.3887 52.3264 49.4707 52.9307 49.3165ZM37.8153 85.5963L37.0318 82.5273C36.8142 81.6749 36.8463 80.8183 37.1282 79.9576C37.4099 79.0965 37.9059 78.3894 38.6161 77.8361C40.093 76.6579 41.6536 75.6513 43.2982 74.8162C44.9427 73.981 46.676 73.3309 48.4982 72.8657C50.3204 72.4005 52.1533 72.1402 53.9969 72.0848C55.8405 72.0294 57.6927 72.1648 59.5536 72.4908C60.4421 72.6359 61.2155 73.0154 61.8737 73.6291C62.5321 74.2432 62.9706 74.9784 63.1893 75.8349L63.9762 78.9175L37.8153 85.5963ZM39.4388 82.8597L61.2396 77.294L61.0127 76.4051C60.9013 75.969 60.6721 75.6018 60.325 75.3034C59.9779 75.005 59.5813 74.816 59.1353 74.7363C57.433 74.4356 55.7361 74.3076 54.0446 74.3524C52.3531 74.3972 50.6899 74.6283 49.0548 75.0458C47.4197 75.4632 45.8492 76.0576 44.3433 76.8291C42.8373 77.6006 41.4094 78.5264 40.0596 79.6063C39.7063 79.89 39.4489 80.246 39.2873 80.6743C39.1257 81.1026 39.1006 81.5347 39.2119 81.9707L39.4388 82.8597ZM47.7277 69.8474C46.2071 70.2356 44.7838 70.0362 43.4578 69.2492C42.1314 68.4624 41.2742 67.3088 40.886 65.7886C40.4978 64.268 40.6972 62.8447 41.4842 61.5187C42.2707 60.1924 43.4242 59.3352 44.9448 58.947C46.4654 58.5588 47.8887 58.7581 49.2147 59.5451C50.541 60.3316 51.3982 61.4851 51.7864 63.0057C52.1745 64.526 51.9752 65.9493 51.1883 67.2756C50.4018 68.6019 49.2483 69.4592 47.7277 69.8474ZM47.1711 67.6673C48.0795 67.4354 48.7704 66.9203 49.2439 66.1221C49.7174 65.324 49.8383 64.4707 49.6063 63.5623C49.3744 62.654 48.8594 61.963 48.0612 61.4895C47.263 61.016 46.4097 60.8952 45.5014 61.1271C44.593 61.359 43.9021 61.874 43.4285 62.6722C42.955 63.4704 42.8342 64.3237 43.0661 65.232C43.298 66.1404 43.8131 66.8313 44.6113 67.3049C45.4094 67.7784 46.2627 67.8992 47.1711 67.6673Z" fill="#AE3DC9"/>
<path d="M187.731 152C187.009 152 186.409 151.764 185.93 151.292C185.451 150.82 185.212 150.223 185.212 149.501C185.212 148.779 185.448 148.178 185.92 147.7C186.392 147.221 186.989 146.981 187.711 146.981C188.433 146.981 189.033 147.217 189.512 147.689C189.991 148.162 190.231 148.759 190.231 149.481C190.231 150.203 189.995 150.804 189.522 151.283C189.05 151.761 188.453 152 187.731 152ZM185.731 172.509V163.51H184V155.375C184 155.056 184.108 154.789 184.323 154.574C184.539 154.358 184.806 154.25 185.125 154.25H190.317C190.636 154.25 190.903 154.358 191.119 154.574C191.334 154.789 191.442 155.056 191.442 155.375V163.51H189.711V170.26H218.221V156.5H213.158C211.101 156.5 209.368 155.803 207.959 154.408C206.55 153.014 205.846 151.36 205.846 149.448C205.846 147.806 206.359 146.323 207.384 144.997C208.409 143.672 209.723 142.664 211.323 141.971C211.419 139.592 212.286 137.668 213.926 136.201C215.566 134.734 217.372 134.001 219.345 134.001C221.318 134.001 223.125 134.734 224.764 136.201C226.404 137.668 227.272 139.592 227.367 141.971C228.968 142.664 230.281 143.672 231.307 144.997C232.332 146.323 232.845 147.806 232.845 149.448C232.845 151.36 232.14 153.014 230.731 154.408C229.322 155.803 227.589 156.5 225.533 156.5H220.47V170.26H247.595C248.216 170.26 248.72 170.763 248.72 171.384V171.384C248.72 172.006 248.216 172.509 247.595 172.509H185.731ZM213.158 154.25H225.533C226.929 154.25 228.121 153.788 229.111 152.863C230.1 151.938 230.595 150.8 230.595 149.448C230.595 148.234 230.215 147.163 229.455 146.237C228.695 145.311 227.745 144.613 226.605 144.143L225.195 143.563L225.117 142.127C225.065 140.509 224.488 139.125 223.384 137.975C222.281 136.826 220.935 136.251 219.345 136.251C217.756 136.251 216.41 136.826 215.306 137.975C214.203 139.125 213.625 140.509 213.573 142.127L213.496 143.563L212.085 144.143C210.946 144.613 209.996 145.311 209.236 146.237C208.476 147.163 208.096 148.234 208.096 149.448C208.096 150.8 208.591 151.938 209.58 152.863C210.569 153.788 211.762 154.25 213.158 154.25Z" fill="#4163EB"/>
<path d="M198 146.001C195.494 146.001 193.367 145.128 191.621 143.381C189.874 141.634 189 139.508 189 137.001C189 134.494 189.874 132.367 191.621 130.621C193.367 128.874 195.494 128.001 198 128.001C200.507 128.001 202.634 128.874 204.38 130.621C206.127 132.367 207 134.494 207 137.001C207 139.508 206.127 141.634 204.38 143.381C202.634 145.128 200.507 146.001 198 146.001ZM197.135 143.491H198.866V137.866H204.491V136.136H198.866V130.511H197.135V136.136H191.51V137.866H197.135V143.491Z" fill="#4163EB"/>
<path d="M243 166C240.493 166 238.366 165.127 236.62 163.38C234.873 161.634 234 159.507 234 157C234 154.494 234.873 152.367 236.62 150.621C238.366 148.874 240.493 148 243 148C245.507 148 247.633 148.874 249.38 150.621C251.127 152.367 252 154.494 252 157C252 159.507 251.127 161.634 249.38 163.38C247.633 165.127 245.507 166 243 166ZM242.135 163.491H243.865V157.866H249.49V156.135H243.865V150.51H242.135V156.135H236.51V157.866H242.135V163.491Z" fill="#4163EB"/>
<defs>
<filter id="filter0_ddd_3298_26223" x="105.987" y="67.9854" width="116.709" height="50.0322" filterUnits="userSpaceOnUse" color-interpolation-filters="sRGB">
<feFlood flood-opacity="0" result="BackgroundImageFix"/>
<feColorMatrix in="SourceAlpha" type="matrix" values="0 0 0 0 0 0 0 0 0 0 0 0 0 0 0 0 0 0 127 0" result="hardAlpha"/>
<feOffset dy="1"/>
<feGaussianBlur stdDeviation="2.5"/>
<feColorMatrix type="matrix" values="0 0 0 0 0 0 0 0 0 0 0 0 0 0 0 0 0 0 0.12 0"/>
<feBlend mode="normal" in2="BackgroundImageFix" result="effect1_dropShadow_3298_26223"/>
<feColorMatrix in="SourceAlpha" type="matrix" values="0 0 0 0 0 0 0 0 0 0 0 0 0 0 0 0 0 0 127 0" result="hardAlpha"/>
<feOffset dy="2"/>
<feGaussianBlur stdDeviation="1"/>
<feColorMatrix type="matrix" values="0 0 0 0 0 0 0 0 0 0 0 0 0 0 0 0 0 0 0.14 0"/>
<feBlend mode="normal" in2="effect1_dropShadow_3298_26223" result="effect2_dropShadow_3298_26223"/>
<feColorMatrix in="SourceAlpha" type="matrix" values="0 0 0 0 0 0 0 0 0 0 0 0 0 0 0 0 0 0 127 0" result="hardAlpha"/>
<feMorphology radius="2" operator="erode" in="SourceAlpha" result="effect3_dropShadow_3298_26223"/>
<feOffset dy="3"/>
<feGaussianBlur stdDeviation="0.5"/>
<feColorMatrix type="matrix" values="0 0 0 0 0 0 0 0 0 0 0 0 0 0 0 0 0 0 0.2 0"/>
<feBlend mode="normal" in2="effect2_dropShadow_3298_26223" result="effect3_dropShadow_3298_26223"/>
<feBlend mode="normal" in="SourceGraphic" in2="effect3_dropShadow_3298_26223" result="shape"/>
</filter>
</defs>
</svg>
